<?xml version="1.0" encoding="us-ascii" standalone="no"?><svg xmlns="http://www.w3.org/2000/svg" xmlns:xlink="http://www.w3.org/1999/xlink" contentStyleType="text/css" height="1393.125px" preserveAspectRatio="none" style="width:2266px;height:1393px;background:#FFFFFF;" version="1.1" viewBox="0 0 2266 1393" width="2266.875px" zoomAndPan="magnify"><defs/><g><text fill="#17324D" font-family="sans-serif" font-size="37.5" font-weight="bold" lengthAdjust="spacing" textLength="626.25" x="817.5" y="76.4282">Prendre un rendez-vous v&#233;t&#233;rinaire</text><rect fill="none" height="33.0176" style="stroke:none;stroke-width:1.875;" width="2205" x="28.125" y="108.2483"/><ellipse cx="454.6875" cy="169.3909" fill="#222222" rx="18.75" ry="18.75" style="stroke:#222222;stroke-width:1.875;"/><rect fill="#F0F8F3" height="103.5352" rx="11.25" ry="11.25" style="stroke:#2F7D5B;stroke-width:0.9375;" width="331.875" x="288.75" y="225.6409"/><text fill="#17324D" font-family="sans-serif" font-size="26.25" lengthAdjust="spacing" textLength="260.625" x="307.5" y="271.6406">Choisir un v&#233;t&#233;rinaire,</text><text fill="#17324D" font-family="sans-serif" font-size="26.25" lengthAdjust="spacing" textLength="294.375" x="307.5" y="304.6582">un service et un cr&#233;neau</text><rect fill="#F0F8F3" height="103.5352" rx="11.25" ry="11.25" style="stroke:#2F7D5B;stroke-width:0.9375;" width="382.5" x="39.375" y="909.3713"/><text fill="#17324D" font-family="sans-serif" font-size="26.25" lengthAdjust="spacing" textLength="345" x="58.125" y="955.3711">Se pr&#233;senter au rendez-vous</text><text fill="#17324D" font-family="sans-serif" font-size="26.25" lengthAdjust="spacing" textLength="260.625" x="58.125" y="988.3887">et r&#233;gler le v&#233;t&#233;rinaire</text><rect fill="#F0F8F3" height="70.5176" rx="11.25" ry="11.25" style="stroke:#2F7D5B;stroke-width:0.9375;" width="358.125" x="51.5625" y="1158.4241"/><text fill="#17324D" font-family="sans-serif" font-size="26.25" lengthAdjust="spacing" textLength="320.625" x="70.3125" y="1204.4238">Laisser une note et un avis</text><rect fill="#F0F8F3" height="70.5176" rx="11.25" ry="11.25" style="stroke:#2F7D5B;stroke-width:0.9375;" width="277.5" x="540" y="665.2112"/><text fill="#17324D" font-family="sans-serif" font-size="26.25" lengthAdjust="spacing" textLength="240" x="558.75" y="711.2109">Refuser la demande</text><line style="stroke:#000000;stroke-width:2.8125;" x1="28.125" x2="28.125" y1="108.2483" y2="1371.4417"/><rect fill="#F0F8F3" height="70.5176" rx="11.25" ry="11.25" style="stroke:#2F7D5B;stroke-width:0.9375;" width="328.125" x="1009.6875" y="366.676"/><text fill="#17324D" font-family="sans-serif" font-size="26.25" lengthAdjust="spacing" textLength="290.625" x="1028.4375" y="412.6758">Transmettre la demande</text><rect fill="#F0F8F3" height="70.5176" rx="11.25" ry="11.25" style="stroke:#2F7D5B;stroke-width:0.9375;" width="226.875" x="836.25" y="773.2288"/><text fill="#17324D" font-family="sans-serif" font-size="26.25" lengthAdjust="spacing" textLength="189.375" x="855" y="819.2285">Notifier l'&#233;leveur</text><rect fill="#F0F8F3" height="103.5352" rx="11.25" ry="11.25" style="stroke:#2F7D5B;stroke-width:0.9375;" width="438.75" x="1178.4375" y="773.2288"/><text fill="#17324D" font-family="sans-serif" font-size="26.25" lengthAdjust="spacing" textLength="219.375" x="1197.1875" y="819.2285">Notifier l'&#233;leveur et</text><text fill="#17324D" font-family="sans-serif" font-size="26.25" lengthAdjust="spacing" textLength="401.25" x="1197.1875" y="852.2461">l'inviter &#224; choisir un autre cr&#233;neau</text><ellipse cx="1173.75" cy="1350.8167" fill="none" rx="20.625" ry="20.625" style="stroke:#222222;stroke-width:1.875;"/><ellipse cx="1173.75" cy="1350.8167" fill="#222222" rx="11.25" ry="11.25" style="stroke:#111111;stroke-width:1.875;"/><line style="stroke:#000000;stroke-width:2.8125;" x1="825" x2="825" y1="108.2483" y2="1371.4417"/><rect fill="#F0F8F3" height="70.5176" rx="11.25" ry="11.25" style="stroke:#2F7D5B;stroke-width:0.9375;" width="303.75" x="1875.9375" y="474.6936"/><text fill="#17324D" font-family="sans-serif" font-size="26.25" lengthAdjust="spacing" textLength="266.25" x="1894.6875" y="520.6934">V&#233;rifier sa disponibilit&#233;</text><polygon fill="#FFF3D8" points="1901.25,582.7112,2154.375,582.7112,2176.875,605.2112,2154.375,627.7112,1901.25,627.7112,1878.75,605.2112,1901.25,582.7112" style="stroke:#D8952F;stroke-width:0.9375;"/><text fill="#17324D" font-family="sans-serif" font-size="26.25" lengthAdjust="spacing" textLength="253.125" x="1901.25" y="615.9521">Cr&#233;neau disponible ?</text><text fill="#29485B" font-family="sans-serif" font-size="26.25" lengthAdjust="spacing" textLength="35.625" x="1843.125" y="599.4434">oui</text><text fill="#29485B" font-family="sans-serif" font-size="26.25" lengthAdjust="spacing" textLength="45" x="2176.875" y="599.4434">non</text><rect fill="#F0F8F3" height="70.5176" rx="11.25" ry="11.25" style="stroke:#2F7D5B;stroke-width:0.9375;" width="335.625" x="1635.9375" y="665.2112"/><text fill="#17324D" font-family="sans-serif" font-size="26.25" lengthAdjust="spacing" textLength="298.125" x="1654.6875" y="711.2109">Confirmer le rendez-vous</text><rect fill="#F0F8F3" height="70.5176" rx="11.25" ry="11.25" style="stroke:#2F7D5B;stroke-width:0.9375;" width="315" x="1646.25" y="1050.4065"/><text fill="#17324D" font-family="sans-serif" font-size="26.25" lengthAdjust="spacing" textLength="277.5" x="1665" y="1096.4063">Cl&#244;turer le rendez-vous</text><polygon fill="#FFF3D8" points="2027.8125,1247.6917,2050.3125,1270.1917,2027.8125,1292.6917,2005.3125,1270.1917,2027.8125,1247.6917" style="stroke:#D8952F;stroke-width:0.9375;"/><line style="stroke:#000000;stroke-width:2.8125;" x1="1624.6875" x2="1624.6875" y1="108.2483" y2="1371.4417"/><line style="stroke:#000000;stroke-width:2.8125;" x1="2231.25" x2="2231.25" y1="108.2483" y2="1371.4417"/><line style="stroke:#456A7D;stroke-width:2.625;" x1="454.6875" x2="454.6875" y1="188.1409" y2="225.6409"/><polygon fill="#456A7D" points="447.1875,206.8909,454.6875,225.6409,462.1875,206.8909,454.6875,214.3909" style="stroke:#456A7D;stroke-width:1.875;"/><line style="stroke:#456A7D;stroke-width:2.625;" x1="1878.75" x2="1803.75" y1="605.2112" y2="605.2112"/><line style="stroke:#456A7D;stroke-width:2.625;" x1="1803.75" x2="1803.75" y1="605.2112" y2="665.2112"/><polygon fill="#456A7D" points="1796.25,646.4612,1803.75,665.2112,1811.25,646.4612,1803.75,653.9612" style="stroke:#456A7D;stroke-width:1.875;"/><line style="stroke:#456A7D;stroke-width:2.625;" x1="2027.8125" x2="2027.8125" y1="545.2112" y2="582.7112"/><polygon fill="#456A7D" points="2020.3125,563.9612,2027.8125,582.7112,2035.3125,563.9612,2027.8125,571.4612" style="stroke:#456A7D;stroke-width:1.875;"/><line style="stroke:#456A7D;stroke-width:2.625;" x1="454.6875" x2="454.6875" y1="329.176" y2="338.551"/><line style="stroke:#456A7D;stroke-width:2.625;" x1="454.6875" x2="1173.75" y1="338.551" y2="338.551"/><line style="stroke:#456A7D;stroke-width:2.625;" x1="1173.75" x2="1173.75" y1="338.551" y2="366.676"/><polygon fill="#456A7D" points="1166.25,347.926,1173.75,366.676,1181.25,347.926,1173.75,355.426" style="stroke:#456A7D;stroke-width:1.875;"/><line style="stroke:#456A7D;stroke-width:2.625;" x1="1173.75" x2="1173.75" y1="437.1936" y2="446.5686"/><line style="stroke:#456A7D;stroke-width:2.625;" x1="1173.75" x2="2027.8125" y1="446.5686" y2="446.5686"/><line style="stroke:#456A7D;stroke-width:2.625;" x1="2027.8125" x2="2027.8125" y1="446.5686" y2="474.6936"/><polygon fill="#456A7D" points="2020.3125,455.9436,2027.8125,474.6936,2035.3125,455.9436,2027.8125,463.4436" style="stroke:#456A7D;stroke-width:1.875;"/><line style="stroke:#456A7D;stroke-width:2.625;" x1="1803.75" x2="1803.75" y1="735.7288" y2="745.1038"/><line style="stroke:#456A7D;stroke-width:2.625;" x1="1803.75" x2="949.6875" y1="745.1038" y2="745.1038"/><line style="stroke:#456A7D;stroke-width:2.625;" x1="949.6875" x2="949.6875" y1="745.1038" y2="773.2288"/><polygon fill="#456A7D" points="942.1875,754.4788,949.6875,773.2288,957.1875,754.4788,949.6875,761.9788" style="stroke:#456A7D;stroke-width:1.875;"/><line style="stroke:#456A7D;stroke-width:2.625;" x1="949.6875" x2="949.6875" y1="843.7463" y2="876.5588"/><line style="stroke:#456A7D;stroke-width:2.625;" x1="949.6875" x2="230.625" y1="876.5588" y2="876.5588"/><line style="stroke:#456A7D;stroke-width:2.625;" x1="230.625" x2="230.625" y1="876.5588" y2="909.3713"/><polygon fill="#456A7D" points="223.125,890.6213,230.625,909.3713,238.125,890.6213,230.625,898.1213" style="stroke:#456A7D;stroke-width:1.875;"/><line style="stroke:#456A7D;stroke-width:2.625;" x1="230.625" x2="230.625" y1="1012.9065" y2="1022.2815"/><line style="stroke:#456A7D;stroke-width:2.625;" x1="230.625" x2="1803.75" y1="1022.2815" y2="1022.2815"/><line style="stroke:#456A7D;stroke-width:2.625;" x1="1803.75" x2="1803.75" y1="1022.2815" y2="1050.4065"/><polygon fill="#456A7D" points="1796.25,1031.6565,1803.75,1050.4065,1811.25,1031.6565,1803.75,1039.1565" style="stroke:#456A7D;stroke-width:1.875;"/><line style="stroke:#456A7D;stroke-width:2.625;" x1="1803.75" x2="1803.75" y1="1120.9241" y2="1130.2991"/><line style="stroke:#456A7D;stroke-width:2.625;" x1="1803.75" x2="230.625" y1="1130.2991" y2="1130.2991"/><line style="stroke:#456A7D;stroke-width:2.625;" x1="230.625" x2="230.625" y1="1130.2991" y2="1158.4241"/><polygon fill="#456A7D" points="223.125,1139.6741,230.625,1158.4241,238.125,1139.6741,230.625,1147.1741" style="stroke:#456A7D;stroke-width:1.875;"/><line style="stroke:#456A7D;stroke-width:2.625;" x1="678.75" x2="678.75" y1="735.7288" y2="745.1038"/><line style="stroke:#456A7D;stroke-width:2.625;" x1="678.75" x2="1397.8125" y1="745.1038" y2="745.1038"/><line style="stroke:#456A7D;stroke-width:2.625;" x1="1397.8125" x2="1397.8125" y1="745.1038" y2="773.2288"/><polygon fill="#456A7D" points="1390.3125,754.4788,1397.8125,773.2288,1405.3125,754.4788,1397.8125,761.9788" style="stroke:#456A7D;stroke-width:1.875;"/><line style="stroke:#456A7D;stroke-width:2.625;" x1="2176.875" x2="2199.375" y1="605.2112" y2="605.2112"/><line style="stroke:#456A7D;stroke-width:2.625;" x1="2199.375" x2="2199.375" y1="605.2112" y2="638.9612"/><line style="stroke:#456A7D;stroke-width:2.625;" x1="2199.375" x2="678.75" y1="638.9612" y2="638.9612"/><line style="stroke:#456A7D;stroke-width:2.625;" x1="678.75" x2="678.75" y1="638.9612" y2="665.2112"/><polygon fill="#456A7D" points="671.25,646.4612,678.75,665.2112,686.25,646.4612,678.75,653.9612" style="stroke:#456A7D;stroke-width:1.875;"/><line style="stroke:#456A7D;stroke-width:2.625;" x1="230.625" x2="230.625" y1="1228.9417" y2="1270.1917"/><line style="stroke:#456A7D;stroke-width:2.625;" x1="230.625" x2="2005.3125" y1="1270.1917" y2="1270.1917"/><polygon fill="#456A7D" points="1986.5625,1262.6917,2005.3125,1270.1917,1986.5625,1277.6917,1994.0625,1270.1917" style="stroke:#456A7D;stroke-width:1.875;"/><line style="stroke:#456A7D;stroke-width:2.625;" x1="1397.8125" x2="1397.8125" y1="876.7639" y2="1236.4417"/><line style="stroke:#456A7D;stroke-width:2.625;" x1="1397.8125" x2="2084.0625" y1="1236.4417" y2="1236.4417"/><line style="stroke:#456A7D;stroke-width:2.625;" x1="2084.0625" x2="2084.0625" y1="1236.4417" y2="1270.1917"/><line style="stroke:#456A7D;stroke-width:2.625;" x1="2084.0625" x2="2050.3125" y1="1270.1917" y2="1270.1917"/><polygon fill="#456A7D" points="2069.0625,1262.6917,2050.3125,1270.1917,2069.0625,1277.6917,2061.5625,1270.1917" style="stroke:#456A7D;stroke-width:1.875;"/><line style="stroke:#456A7D;stroke-width:2.625;" x1="2027.8125" x2="2027.8125" y1="1292.6917" y2="1302.0667"/><line style="stroke:#456A7D;stroke-width:2.625;" x1="2027.8125" x2="1173.75" y1="1302.0667" y2="1302.0667"/><line style="stroke:#456A7D;stroke-width:2.625;" x1="1173.75" x2="1173.75" y1="1302.0667" y2="1330.1917"/><polygon fill="#456A7D" points="1166.25,1311.4417,1173.75,1330.1917,1181.25,1311.4417,1173.75,1318.9417" style="stroke:#456A7D;stroke-width:1.875;"/><text fill="#000000" font-family="sans-serif" font-size="26.25" lengthAdjust="spacing" textLength="90" x="381.5625" y="135.498">&#201;leveur</text><text fill="#000000" font-family="sans-serif" font-size="26.25" lengthAdjust="spacing" textLength="258.75" x="1095.4688" y="135.498">Syst&#232;me ElevConnect</text><text fill="#000000" font-family="sans-serif" font-size="26.25" lengthAdjust="spacing" textLength="129.375" x="1863.2813" y="135.498">V&#233;t&#233;rinaire</text><!--SRC=[bPR1Rjj648RlV8e1Uh03j8ObKH5j7m9A8jD3O1YLw_kQ74e3axlCxbAf0nzoxRqFq6DrxnlmJVea7KfCl99eEX4WGDhvPkQVsILdJs1X7tE4H1L59U6_Btz1IcAfHL6WWIZ7zKn9YOdrJc1nznuk8LEw41RMlAOqOGuIBTH_WrMLHR22yXpFuEQwOV6FKcaBAz6OqdgJaIHBIfvvve5aAJWDt8laOQbL9TEPofM6d-Bjno7Iac0Gd3ihPYLIzOda4ZAH6tGisq29qX8r38QE8IVM-LWYiA2LSgDZ9ghSnahQQr4WB8Gq2zIKTJCB-emmy1tZBTaSUzs_4LlduNcNgIr-C1aD_Ra3X5ghJwtH7xyD9qT6ntjuuGVZwI5mkwBaGQ8nC3XpXLyhYzEExWTHS4WfdQ9kYMWSHlxuW714ZAT-C8WS-mtd4Clz81VXT19EEg0ZFNuSnc-FGRTdCQSSTIExqtslyjJjIc9fJVRnEDbv7CIZBjBLFemdy_qkjrJlFhRCd4IXPDhLzz4yw75m5So3Y_4mxgpeHP6pN1WpVVLXss6zvMwHNr4mSXGlykDH51x2VOs9fEtSYaDXBTUhRCVqPLjOqN7eetayYGT7M6-kBTANwdU3YJ0ToK8-qq47wAORHHF_ulmOwgqDFrOe4_n06N_bmGCtc_gpGH_zwWvyzRWHsb92fP3szUAwd7eB_UeGDlFb-qNjyFuTQz7t7B0yZZo9f_7yHRoZbvvjNjvmer6c6e77P_CBF_-oLfM1TRsnzKQJ5CH6ptkg_-HfYfL-yepbPdYNivKYGxfnt8D_zdZ5e5vJWi33bVybkjv85DMLzxHuDBR-XoUDCvoVlCjRpOEdG6ivMIvuOXM2jJ1_vuPcyAxvan7FHyCOcL99kgUS6BhoA8FJMPlhcv5hVFS6x0ebdAgAtdW0bvmu8rrm5BOwPL-nyGM9xCMJOfSwFwatksvi7PvRmz02eMG91gLbadKuuJrk1zkM-IxnNjksaGwgRPJczR-sqjrAzn9_46IuxTnl1CaphUszM1F3oFSCE9LARil_3REgGTrE_s3X7DtBJqZoQvlN-GALF1y7lY_nDZvlEgjkBXHMbVy3]--></g></svg>