<?xml version="1.0" encoding="us-ascii" standalone="no"?><svg xmlns="http://www.w3.org/2000/svg" xmlns:xlink="http://www.w3.org/1999/xlink" contentStyleType="text/css" height="1220.625px" preserveAspectRatio="none" style="width:1933px;height:1220px;background:#FFFFFF;" version="1.1" viewBox="0 0 1933 1220" width="1933.125px" zoomAndPan="magnify"><defs/><g><text fill="#17324D" font-family="sans-serif" font-size="37.5" font-weight="bold" lengthAdjust="spacing" textLength="363.75" x="782.3438" y="76.4282">Publier une annonce</text><rect fill="none" height="33.0176" style="stroke:none;stroke-width:1.875;" width="1872.1875" x="28.125" y="108.2483"/><ellipse cx="210" cy="169.3909" fill="#222222" rx="18.75" ry="18.75" style="stroke:#222222;stroke-width:1.875;"/><rect fill="#F0F8F3" height="103.5352" rx="11.25" ry="11.25" style="stroke:#2F7D5B;stroke-width:0.9375;" width="341.25" x="39.375" y="225.6409"/><text fill="#17324D" font-family="sans-serif" font-size="26.25" lengthAdjust="spacing" textLength="211.875" x="58.125" y="271.6406">Remplir l'annonce</text><text fill="#17324D" font-family="sans-serif" font-size="26.25" lengthAdjust="spacing" textLength="303.75" x="58.125" y="304.6582">et le bar&#232;me de r&#233;duction</text><rect fill="#F0F8F3" height="70.5176" rx="11.25" ry="11.25" style="stroke:#2F7D5B;stroke-width:0.9375;" width="328.125" x="335.1563" y="557.1936"/><text fill="#17324D" font-family="sans-serif" font-size="26.25" lengthAdjust="spacing" textLength="290.625" x="353.9063" y="603.1934">Corriger les informations</text><ellipse cx="210" cy="1177.9065" fill="none" rx="20.625" ry="20.625" style="stroke:#222222;stroke-width:1.875;"/><ellipse cx="210" cy="1177.9065" fill="#222222" rx="11.25" ry="11.25" style="stroke:#111111;stroke-width:1.875;"/><line style="stroke:#000000;stroke-width:2.8125;" x1="28.125" x2="28.125" y1="108.2483" y2="1198.5315"/><rect fill="#F0F8F3" height="70.5176" rx="11.25" ry="11.25" style="stroke:#2F7D5B;stroke-width:0.9375;" width="341.25" x="1151.25" y="366.676"/><text fill="#17324D" font-family="sans-serif" font-size="26.25" lengthAdjust="spacing" textLength="303.75" x="1170" y="412.6758">Contr&#244;ler les informations</text><polygon fill="#FFF3D8" points="1212.1875,474.6936,1431.5625,474.6936,1454.0625,497.1936,1431.5625,519.6936,1212.1875,519.6936,1189.6875,497.1936,1212.1875,474.6936" style="stroke:#D8952F;stroke-width:0.9375;"/><text fill="#17324D" font-family="sans-serif" font-size="26.25" lengthAdjust="spacing" textLength="219.375" x="1212.1875" y="507.9346">Donn&#233;es valides ?</text><text fill="#29485B" font-family="sans-serif" font-size="26.25" lengthAdjust="spacing" textLength="35.625" x="1154.0625" y="491.4258">oui</text><text fill="#29485B" font-family="sans-serif" font-size="26.25" lengthAdjust="spacing" textLength="45" x="1454.0625" y="491.4258">non</text><rect fill="#F0F8F3" height="103.5352" rx="11.25" ry="11.25" style="stroke:#2F7D5B;stroke-width:0.9375;" width="290.625" x="887.3438" y="557.1936"/><text fill="#17324D" font-family="sans-serif" font-size="26.25" lengthAdjust="spacing" textLength="253.125" x="906.0938" y="603.1934">Enregistrer l'annonce</text><text fill="#17324D" font-family="sans-serif" font-size="26.25" lengthAdjust="spacing" textLength="165" x="906.0938" y="636.2109">&#171; en attente &#187;</text><rect fill="#F0F8F3" height="103.5352" rx="11.25" ry="11.25" style="stroke:#2F7D5B;stroke-width:0.9375;" width="328.125" x="682.0313" y="888.7463"/><text fill="#17324D" font-family="sans-serif" font-size="26.25" lengthAdjust="spacing" textLength="290.625" x="700.7813" y="934.7461">Rendre l'annonce visible</text><text fill="#17324D" font-family="sans-serif" font-size="26.25" lengthAdjust="spacing" textLength="279.375" x="700.7813" y="967.7637">et notifier le fournisseur</text><rect fill="#F0F8F3" height="103.5352" rx="11.25" ry="11.25" style="stroke:#2F7D5B;stroke-width:0.9375;" width="343.125" x="1047.6563" y="888.7463"/><text fill="#17324D" font-family="sans-serif" font-size="26.25" lengthAdjust="spacing" textLength="215.625" x="1066.4063" y="934.7461">Rejeter l'annonce,</text><text fill="#17324D" font-family="sans-serif" font-size="26.25" lengthAdjust="spacing" textLength="305.625" x="1066.4063" y="967.7637">indiquer le motif et notifier</text><polygon fill="#FFF3D8" points="1321.875,1074.7815,1344.375,1097.2815,1321.875,1119.7815,1299.375,1097.2815,1321.875,1074.7815" style="stroke:#D8952F;stroke-width:0.9375;"/><line style="stroke:#000000;stroke-width:2.8125;" x1="670.7813" x2="670.7813" y1="108.2483" y2="1198.5315"/><rect fill="#F0F8F3" height="70.5176" rx="11.25" ry="11.25" style="stroke:#2F7D5B;stroke-width:0.9375;" width="268.125" x="1564.6875" y="698.2288"/><text fill="#17324D" font-family="sans-serif" font-size="26.25" lengthAdjust="spacing" textLength="230.625" x="1583.4375" y="744.2285">Examiner l'annonce</text><polygon fill="#FFF3D8" points="1575.9375,806.2463,1821.5625,806.2463,1844.0625,828.7463,1821.5625,851.2463,1575.9375,851.2463,1553.4375,828.7463,1575.9375,806.2463" style="stroke:#D8952F;stroke-width:0.9375;"/><text fill="#17324D" font-family="sans-serif" font-size="26.25" lengthAdjust="spacing" textLength="245.625" x="1575.9375" y="839.4873">Annonce conforme ?</text><text fill="#29485B" font-family="sans-serif" font-size="26.25" lengthAdjust="spacing" textLength="35.625" x="1517.8125" y="822.9785">oui</text><text fill="#29485B" font-family="sans-serif" font-size="26.25" lengthAdjust="spacing" textLength="45" x="1844.0625" y="822.9785">non</text><polygon fill="#FFF3D8" points="1698.75,1011.0315,1721.25,1033.5315,1698.75,1056.0315,1676.25,1033.5315,1698.75,1011.0315" style="stroke:#D8952F;stroke-width:0.9375;"/><line style="stroke:#000000;stroke-width:2.8125;" x1="1508.4375" x2="1508.4375" y1="108.2483" y2="1198.5315"/><line style="stroke:#000000;stroke-width:2.8125;" x1="1898.4375" x2="1898.4375" y1="108.2483" y2="1198.5315"/><line style="stroke:#456A7D;stroke-width:2.625;" x1="210" x2="210" y1="188.1409" y2="225.6409"/><polygon fill="#456A7D" points="202.5,206.8909,210,225.6409,217.5,206.8909,210,214.3909" style="stroke:#456A7D;stroke-width:1.875;"/><line style="stroke:#456A7D;stroke-width:2.625;" x1="1189.6875" x2="1032.6563" y1="497.1936" y2="497.1936"/><line style="stroke:#456A7D;stroke-width:2.625;" x1="1032.6563" x2="1032.6563" y1="497.1936" y2="557.1936"/><polygon fill="#456A7D" points="1025.1563,538.4436,1032.6563,557.1936,1040.1563,538.4436,1032.6563,545.9436" style="stroke:#456A7D;stroke-width:1.875;"/><line style="stroke:#456A7D;stroke-width:2.625;" x1="1321.875" x2="1321.875" y1="437.1936" y2="474.6936"/><polygon fill="#456A7D" points="1314.375,455.9436,1321.875,474.6936,1329.375,455.9436,1321.875,463.4436" style="stroke:#456A7D;stroke-width:1.875;"/><line style="stroke:#456A7D;stroke-width:2.625;" x1="1698.75" x2="1698.75" y1="768.7463" y2="806.2463"/><polygon fill="#456A7D" points="1691.25,787.4963,1698.75,806.2463,1706.25,787.4963,1698.75,794.9963" style="stroke:#456A7D;stroke-width:1.875;"/><line style="stroke:#456A7D;stroke-width:2.625;" x1="210" x2="210" y1="329.176" y2="338.551"/><line style="stroke:#456A7D;stroke-width:2.625;" x1="210" x2="1321.875" y1="338.551" y2="338.551"/><line style="stroke:#456A7D;stroke-width:2.625;" x1="1321.875" x2="1321.875" y1="338.551" y2="366.676"/><polygon fill="#456A7D" points="1314.375,347.926,1321.875,366.676,1329.375,347.926,1321.875,355.426" style="stroke:#456A7D;stroke-width:1.875;"/><line style="stroke:#456A7D;stroke-width:2.625;" x1="1032.6563" x2="1032.6563" y1="660.7288" y2="670.1038"/><line style="stroke:#456A7D;stroke-width:2.625;" x1="1032.6563" x2="1698.75" y1="670.1038" y2="670.1038"/><line style="stroke:#456A7D;stroke-width:2.625;" x1="1698.75" x2="1698.75" y1="670.1038" y2="698.2288"/><polygon fill="#456A7D" points="1691.25,679.4788,1698.75,698.2288,1706.25,679.4788,1698.75,686.9788" style="stroke:#456A7D;stroke-width:1.875;"/><line style="stroke:#456A7D;stroke-width:2.625;" x1="1553.4375" x2="846.0938" y1="828.7463" y2="828.7463"/><line style="stroke:#456A7D;stroke-width:2.625;" x1="846.0938" x2="846.0938" y1="828.7463" y2="888.7463"/><polygon fill="#456A7D" points="838.5938,869.9963,846.0938,888.7463,853.5938,869.9963,846.0938,877.4963" style="stroke:#456A7D;stroke-width:1.875;"/><line style="stroke:#456A7D;stroke-width:2.625;" x1="1844.0625" x2="1866.5625" y1="828.7463" y2="828.7463"/><line style="stroke:#456A7D;stroke-width:2.625;" x1="1866.5625" x2="1866.5625" y1="828.7463" y2="862.4963"/><line style="stroke:#456A7D;stroke-width:2.625;" x1="1866.5625" x2="1219.2188" y1="862.4963" y2="862.4963"/><line style="stroke:#456A7D;stroke-width:2.625;" x1="1219.2188" x2="1219.2188" y1="862.4963" y2="888.7463"/><polygon fill="#456A7D" points="1211.7188,869.9963,1219.2188,888.7463,1226.7188,869.9963,1219.2188,877.4963" style="stroke:#456A7D;stroke-width:1.875;"/><line style="stroke:#456A7D;stroke-width:2.625;" x1="846.0938" x2="846.0938" y1="992.2815" y2="1033.5315"/><line style="stroke:#456A7D;stroke-width:2.625;" x1="846.0938" x2="1676.25" y1="1033.5315" y2="1033.5315"/><polygon fill="#456A7D" points="1657.5,1026.0315,1676.25,1033.5315,1657.5,1041.0315,1665,1033.5315" style="stroke:#456A7D;stroke-width:1.875;"/><line style="stroke:#456A7D;stroke-width:2.625;" x1="1219.2188" x2="1219.2188" y1="992.2815" y2="999.7815"/><line style="stroke:#456A7D;stroke-width:2.625;" x1="1219.2188" x2="1755" y1="999.7815" y2="999.7815"/><line style="stroke:#456A7D;stroke-width:2.625;" x1="1755" x2="1755" y1="999.7815" y2="1033.5315"/><line style="stroke:#456A7D;stroke-width:2.625;" x1="1755" x2="1721.25" y1="1033.5315" y2="1033.5315"/><polygon fill="#456A7D" points="1740,1026.0315,1721.25,1033.5315,1740,1041.0315,1732.5,1033.5315" style="stroke:#456A7D;stroke-width:1.875;"/><line style="stroke:#456A7D;stroke-width:2.625;" x1="1454.0625" x2="1476.5625" y1="497.1936" y2="497.1936"/><line style="stroke:#456A7D;stroke-width:2.625;" x1="1476.5625" x2="1476.5625" y1="497.1936" y2="530.9436"/><line style="stroke:#456A7D;stroke-width:2.625;" x1="1476.5625" x2="499.2188" y1="530.9436" y2="530.9436"/><line style="stroke:#456A7D;stroke-width:2.625;" x1="499.2188" x2="499.2188" y1="530.9436" y2="557.1936"/><polygon fill="#456A7D" points="491.7188,538.4436,499.2188,557.1936,506.7188,538.4436,499.2188,545.9436" style="stroke:#456A7D;stroke-width:1.875;"/><line style="stroke:#456A7D;stroke-width:2.625;" x1="1698.75" x2="1698.75" y1="1056.0315" y2="1063.5315"/><line style="stroke:#456A7D;stroke-width:2.625;" x1="1698.75" x2="1265.625" y1="1063.5315" y2="1063.5315"/><line style="stroke:#456A7D;stroke-width:2.625;" x1="1265.625" x2="1265.625" y1="1063.5315" y2="1097.2815"/><line style="stroke:#456A7D;stroke-width:2.625;" x1="1265.625" x2="1299.375" y1="1097.2815" y2="1097.2815"/><polygon fill="#456A7D" points="1280.625,1089.7815,1299.375,1097.2815,1280.625,1104.7815,1288.125,1097.2815" style="stroke:#456A7D;stroke-width:1.875;"/><line style="stroke:#456A7D;stroke-width:2.625;" x1="499.2188" x2="499.2188" y1="627.7112" y2="1063.5315"/><line style="stroke:#456A7D;stroke-width:2.625;" x1="499.2188" x2="1378.125" y1="1063.5315" y2="1063.5315"/><line style="stroke:#456A7D;stroke-width:2.625;" x1="1378.125" x2="1378.125" y1="1063.5315" y2="1097.2815"/><line style="stroke:#456A7D;stroke-width:2.625;" x1="1378.125" x2="1344.375" y1="1097.2815" y2="1097.2815"/><polygon fill="#456A7D" points="1363.125,1089.7815,1344.375,1097.2815,1363.125,1104.7815,1355.625,1097.2815" style="stroke:#456A7D;stroke-width:1.875;"/><line style="stroke:#456A7D;stroke-width:2.625;" x1="1321.875" x2="1321.875" y1="1119.7815" y2="1129.1565"/><line style="stroke:#456A7D;stroke-width:2.625;" x1="1321.875" x2="210" y1="1129.1565" y2="1129.1565"/><line style="stroke:#456A7D;stroke-width:2.625;" x1="210" x2="210" y1="1129.1565" y2="1157.2815"/><polygon fill="#456A7D" points="202.5,1138.5315,210,1157.2815,217.5,1138.5315,210,1146.0315" style="stroke:#456A7D;stroke-width:1.875;"/><text fill="#000000" font-family="sans-serif" font-size="26.25" lengthAdjust="spacing" textLength="142.5" x="278.2031" y="135.498">Fournisseur</text><text fill="#000000" font-family="sans-serif" font-size="26.25" lengthAdjust="spacing" textLength="258.75" x="960.2344" y="135.498">Syst&#232;me ElevConnect</text><text fill="#000000" font-family="sans-serif" font-size="26.25" lengthAdjust="spacing" textLength="170.625" x="1618.125" y="135.498">Administrateur</text><!--SRC=[ZPRDRjj64CVlV8e1Uh0358ObKH5j7mfA8jD3OHXLslkQ74fJBtVLtQKI5pha8Ve0FTRejRVUeZVfatH8CUbQPEW842HmVZF_-LXoU0OhzoWHCbsMbO9_F_mEEOcr4MM95XA9kuLM2ZCNdC7gvpTm3OKsfN2muslQ44fGwE3m1pXTEGGdI4gyWBlRciNtMsqSR4HjoWzF1IbofDL5O1z8RGNBmBt87jP6LofVQAaDV9Cs7u_8jmIZwDAxOZSYr-z8hQ4Gqg9dQG9bsYWqC1fx1acSv-CMWHFQQ3yw5gAIBjNAtOeIOIMKNQ6XefzPqMy8ez0plYKdST3zCz4uZo_xJ6tnezba72uz83P6lskDuVHrFEiOFU_nLHXDvwV0smrb3mgjXT65d_YjTZZlwNwKHAUKDZcQbaYcSH9EJmWlYUayZ4Q9PxzZ3R5-7kGgdi_YMG_KoITCu_Hr5_HxbhBaf1yvdkvxBNE_AvcZ7Rd7hjXb6gMJFjBFVPpEbi-xt5A3SsoP9ObIgxolxvDbDE3WPx2ChgRZjBUYBoQvaCBQ-Oitsn4RBBT1laV1I2TU4gQJ93w5XngJADSxYjF4McumioCpfBPoekVG9yjqbeuwsA1MWmn9_MGn4xP7BEOp7VM0ljmacOLNbrrei3RyjKALuGzKy5UTt72BURWO3T4lJk2JnvqmZZBQ2kLUBgxFQR3GJmvnlL- -FgaZFZon5dt30RVToBDqdYw_YFVqCd3rmnlkgdj9l6ugXI2Kqkm2GR1FTMKKMOkLsGVMSVd1zOzORYKPa6Sj6F3kh9zFmXp-vEMH8vZ3KrvbzPAy2VQhH-iQWxU8zy4r_tFcyBTaKSbRcjHn9xEFlGceWFCbeuSdDks4f9n_lti5ReCApdL5hmA0wqGPN9Dr1lriFlu530ddKF72_lZF3QFxE2zvRJFAvxskfVP-B_YQxrgJjNBSDY3JJLBOKUQ0_LNL9cwGoWt-7nPsPEbUDdrIsb51JSty4lAvkRKoyai0dBF7roZyWixF_Dk0L4uywYPmMOk0fzQ4Pw08deay7o_7NMXZQDqxaQExTNhx7m00]--></g></svg>