<?xml version="1.0" encoding="us-ascii" standalone="no"?><svg xmlns="http://www.w3.org/2000/svg" xmlns:xlink="http://www.w3.org/1999/xlink" contentStyleType="text/css" height="1920px" preserveAspectRatio="none" style="width:3380px;height:1920px;background:#FFFFFF;" version="1.1" viewBox="0 0 3380 1920" width="3380.625px" zoomAndPan="magnify"><defs/><g><text fill="#17324D" font-family="sans-serif" font-size="37.5" font-weight="bold" lengthAdjust="spacing" textLength="403.125" x="1485.9375" y="76.4282">Passer une commande</text><rect fill="none" height="33.0176" style="stroke:none;stroke-width:1.875;" width="3318.75" x="28.125" y="108.2483"/><ellipse cx="938.4375" cy="169.3909" fill="#222222" rx="18.75" ry="18.75" style="stroke:#222222;stroke-width:1.875;"/><rect fill="#F0F8F3" height="103.5352" rx="11.25" ry="11.25" style="stroke:#2F7D5B;stroke-width:0.9375;" width="431.25" x="722.8125" y="225.6409"/><text fill="#17324D" font-family="sans-serif" font-size="26.25" lengthAdjust="spacing" textLength="253.125" x="741.5625" y="271.6406">Choisir une annonce,</text><text fill="#17324D" font-family="sans-serif" font-size="26.25" lengthAdjust="spacing" textLength="393.75" x="741.5625" y="304.6582">une quantit&#233; et le mode de retrait</text><rect fill="#F0F8F3" height="70.5176" rx="11.25" ry="11.25" style="stroke:#2F7D5B;stroke-width:0.9375;" width="271.875" x="477.1875" y="731.2463"/><text fill="#17324D" font-family="sans-serif" font-size="26.25" lengthAdjust="spacing" textLength="234.375" x="495.9375" y="777.2461">Payer la commande</text><rect fill="#F0F8F3" height="103.5352" rx="11.25" ry="11.25" style="stroke:#2F7D5B;stroke-width:0.9375;" width="307.5" x="39.375" y="1451.7444"/><text fill="#17324D" font-family="sans-serif" font-size="26.25" lengthAdjust="spacing" textLength="270" x="58.125" y="1497.7441">Scanner le QR code et</text><text fill="#17324D" font-family="sans-serif" font-size="26.25" lengthAdjust="spacing" textLength="256.875" x="58.125" y="1530.7617">confirmer la r&#233;ception</text><rect fill="#F0F8F3" height="103.5352" rx="11.25" ry="11.25" style="stroke:#2F7D5B;stroke-width:0.9375;" width="300" x="365.625" y="1145.2991"/><text fill="#17324D" font-family="sans-serif" font-size="26.25" lengthAdjust="spacing" textLength="262.5" x="384.375" y="1191.2988">Confirmer la r&#233;ception</text><text fill="#17324D" font-family="sans-serif" font-size="26.25" lengthAdjust="spacing" textLength="223.125" x="384.375" y="1224.3164">chez le fournisseur</text><line style="stroke:#000000;stroke-width:2.8125;" x1="28.125" x2="28.125" y1="108.2483" y2="1898.8147"/><rect fill="#F0F8F3" height="103.5352" rx="11.25" ry="11.25" style="stroke:#2F7D5B;stroke-width:0.9375;" width="260.625" x="1963.125" y="366.676"/><text fill="#17324D" font-family="sans-serif" font-size="26.25" lengthAdjust="spacing" textLength="211.875" x="1981.875" y="412.6758">V&#233;rifier le stock et</text><text fill="#17324D" font-family="sans-serif" font-size="26.25" lengthAdjust="spacing" textLength="223.125" x="1981.875" y="445.6934">calculer le montant</text><polygon fill="#FFF3D8" points="1985.625,507.7112,2201.25,507.7112,2223.75,530.2112,2201.25,552.7112,1985.625,552.7112,1963.125,530.2112,1985.625,507.7112" style="stroke:#D8952F;stroke-width:0.9375;"/><text fill="#17324D" font-family="sans-serif" font-size="26.25" lengthAdjust="spacing" textLength="215.625" x="1985.625" y="540.9521">Stock disponible ?</text><text fill="#29485B" font-family="sans-serif" font-size="26.25" lengthAdjust="spacing" textLength="35.625" x="1927.5" y="524.4434">oui</text><text fill="#29485B" font-family="sans-serif" font-size="26.25" lengthAdjust="spacing" textLength="45" x="2223.75" y="524.4434">non</text><rect fill="#F0F8F3" height="103.5352" rx="11.25" ry="11.25" style="stroke:#2F7D5B;stroke-width:0.9375;" width="335.625" x="1600.3125" y="590.2112"/><text fill="#17324D" font-family="sans-serif" font-size="26.25" lengthAdjust="spacing" textLength="262.5" x="1619.0625" y="636.2109">Cr&#233;er la commande et</text><text fill="#17324D" font-family="sans-serif" font-size="26.25" lengthAdjust="spacing" textLength="298.125" x="1619.0625" y="669.2285">le code QR d'authenticit&#233;</text><polygon fill="#FFF3D8" points="1386.5625,1062.7991,1605.9375,1062.7991,1628.4375,1085.2991,1605.9375,1107.7991,1386.5625,1107.7991,1364.0625,1085.2991,1386.5625,1062.7991" style="stroke:#D8952F;stroke-width:0.9375;"/><text fill="#17324D" font-family="sans-serif" font-size="26.25" lengthAdjust="spacing" textLength="219.375" x="1386.5625" y="1096.04">Livraison choisie ?</text><text fill="#29485B" font-family="sans-serif" font-size="26.25" lengthAdjust="spacing" textLength="35.625" x="1328.4375" y="1079.5313">oui</text><text fill="#29485B" font-family="sans-serif" font-size="26.25" lengthAdjust="spacing" textLength="142.5" x="1628.4375" y="1079.5313">retrait direct</text><rect fill="#F0F8F3" height="103.5352" rx="11.25" ry="11.25" style="stroke:#2F7D5B;stroke-width:0.9375;" width="298.125" x="1172.8125" y="1145.2991"/><text fill="#17324D" font-family="sans-serif" font-size="26.25" lengthAdjust="spacing" textLength="241.875" x="1191.5625" y="1191.2988">Proposer la livraison</text><text fill="#17324D" font-family="sans-serif" font-size="26.25" lengthAdjust="spacing" textLength="260.625" x="1191.5625" y="1224.3164">&#224; un livreur disponible</text><polygon fill="#FFF3D8" points="1496.25,1574.0295,1518.75,1596.5295,1496.25,1619.0295,1473.75,1596.5295,1496.25,1574.0295" style="stroke:#D8952F;stroke-width:0.9375;"/><rect fill="#F0F8F3" height="103.5352" rx="11.25" ry="11.25" style="stroke:#2F7D5B;stroke-width:0.9375;" width="348.75" x="1321.875" y="1656.5295"/><text fill="#17324D" font-family="sans-serif" font-size="26.25" lengthAdjust="spacing" textLength="311.25" x="1340.625" y="1702.5293">Confirmer la commande et</text><text fill="#17324D" font-family="sans-serif" font-size="26.25" lengthAdjust="spacing" textLength="273.75" x="1340.625" y="1735.5469">verser les b&#233;n&#233;ficiaires</text><ellipse cx="1496.25" cy="1818.1897" fill="none" rx="20.625" ry="20.625" style="stroke:#222222;stroke-width:1.875;"/><ellipse cx="1496.25" cy="1818.1897" fill="#222222" rx="11.25" ry="11.25" style="stroke:#111111;stroke-width:1.875;"/><rect fill="#F0F8F3" height="103.5352" rx="11.25" ry="11.25" style="stroke:#2F7D5B;stroke-width:0.9375;" width="326.25" x="1876.875" y="1062.7991"/><text fill="#17324D" font-family="sans-serif" font-size="26.25" lengthAdjust="spacing" textLength="288.75" x="1895.625" y="1108.7988">Refuser la commande et</text><text fill="#17324D" font-family="sans-serif" font-size="26.25" lengthAdjust="spacing" textLength="260.625" x="1895.625" y="1141.8164">rembourser l'acheteur</text><ellipse cx="2040" cy="1252.5842" fill="none" rx="20.625" ry="20.625" style="stroke:#222222;stroke-width:1.875;"/><ellipse cx="2040" cy="1252.5842" fill="#222222" rx="11.25" ry="11.25" style="stroke:#111111;stroke-width:1.875;"/><rect fill="#F0F8F3" height="103.5352" rx="11.25" ry="11.25" style="stroke:#2F7D5B;stroke-width:0.9375;" width="318.75" x="2259.375" y="590.2112"/><text fill="#17324D" font-family="sans-serif" font-size="26.25" lengthAdjust="spacing" textLength="273.75" x="2278.125" y="636.2109">Informer l'acheteur que</text><text fill="#17324D" font-family="sans-serif" font-size="26.25" lengthAdjust="spacing" textLength="281.25" x="2278.125" y="669.2285">le stock est indisponible</text><ellipse cx="2418.75" cy="751.8713" fill="none" rx="20.625" ry="20.625" style="stroke:#222222;stroke-width:1.875;"/><ellipse cx="2418.75" cy="751.8713" fill="#222222" rx="11.25" ry="11.25" style="stroke:#111111;stroke-width:1.875;"/><line style="stroke:#000000;stroke-width:2.8125;" x1="1161.5625" x2="1161.5625" y1="108.2483" y2="1898.8147"/><rect fill="#F0F8F3" height="103.5352" rx="11.25" ry="11.25" style="stroke:#2F7D5B;stroke-width:0.9375;" width="271.875" x="2654.0625" y="839.2639"/><text fill="#17324D" font-family="sans-serif" font-size="26.25" lengthAdjust="spacing" textLength="234.375" x="2672.8125" y="885.2637">Accepter ou refuser</text><text fill="#17324D" font-family="sans-serif" font-size="26.25" lengthAdjust="spacing" textLength="157.5" x="2672.8125" y="918.2813">la commande</text><polygon fill="#FFF3D8" points="2653.125,980.2991,2926.875,980.2991,2949.375,1002.7991,2926.875,1025.2991,2653.125,1025.2991,2630.625,1002.7991,2653.125,980.2991" style="stroke:#D8952F;stroke-width:0.9375;"/><text fill="#17324D" font-family="sans-serif" font-size="26.25" lengthAdjust="spacing" textLength="273.75" x="2653.125" y="1013.54">Commande accept&#233;e ?</text><text fill="#29485B" font-family="sans-serif" font-size="26.25" lengthAdjust="spacing" textLength="35.625" x="2595" y="997.0313">oui</text><text fill="#29485B" font-family="sans-serif" font-size="26.25" lengthAdjust="spacing" textLength="45" x="2949.375" y="997.0313">non</text><line style="stroke:#000000;stroke-width:2.8125;" x1="2585.625" x2="2585.625" y1="108.2483" y2="1898.8147"/><rect fill="#F0F8F3" height="103.5352" rx="11.25" ry="11.25" style="stroke:#2F7D5B;stroke-width:0.9375;" width="322.5" x="3015" y="1310.7092"/><text fill="#17324D" font-family="sans-serif" font-size="26.25" lengthAdjust="spacing" textLength="232.5" x="3033.75" y="1356.709">Livrer la commande</text><text fill="#17324D" font-family="sans-serif" font-size="26.25" lengthAdjust="spacing" textLength="285" x="3033.75" y="1389.7266">et pr&#233;senter le QR code</text><line style="stroke:#000000;stroke-width:2.8125;" x1="3003.75" x2="3003.75" y1="108.2483" y2="1898.8147"/><line style="stroke:#000000;stroke-width:2.8125;" x1="3345" x2="3345" y1="108.2483" y2="1898.8147"/><line style="stroke:#456A7D;stroke-width:2.625;" x1="938.4375" x2="938.4375" y1="188.1409" y2="225.6409"/><polygon fill="#456A7D" points="930.9375,206.8909,938.4375,225.6409,945.9375,206.8909,938.4375,214.3909" style="stroke:#456A7D;stroke-width:1.875;"/><line style="stroke:#456A7D;stroke-width:2.625;" x1="1364.0625" x2="1321.875" y1="1085.2991" y2="1085.2991"/><line style="stroke:#456A7D;stroke-width:2.625;" x1="1321.875" x2="1321.875" y1="1085.2991" y2="1145.2991"/><polygon fill="#456A7D" points="1314.375,1126.5491,1321.875,1145.2991,1329.375,1126.5491,1321.875,1134.0491" style="stroke:#456A7D;stroke-width:1.875;"/><line style="stroke:#456A7D;stroke-width:2.625;" x1="1496.25" x2="1496.25" y1="1619.0295" y2="1656.5295"/><polygon fill="#456A7D" points="1488.75,1637.7795,1496.25,1656.5295,1503.75,1637.7795,1496.25,1645.2795" style="stroke:#456A7D;stroke-width:1.875;"/><line style="stroke:#456A7D;stroke-width:2.625;" x1="1496.25" x2="1496.25" y1="1760.0647" y2="1797.5647"/><polygon fill="#456A7D" points="1488.75,1778.8147,1496.25,1797.5647,1503.75,1778.8147,1496.25,1786.3147" style="stroke:#456A7D;stroke-width:1.875;"/><line style="stroke:#456A7D;stroke-width:2.625;" x1="2040" x2="2040" y1="1166.3342" y2="1231.9592"/><polygon fill="#456A7D" points="2032.5,1213.2092,2040,1231.9592,2047.5,1213.2092,2040,1220.7092" style="stroke:#456A7D;stroke-width:1.875;"/><line style="stroke:#456A7D;stroke-width:2.625;" x1="2418.75" x2="2418.75" y1="693.7463" y2="731.2463"/><polygon fill="#456A7D" points="2411.25,712.4963,2418.75,731.2463,2426.25,712.4963,2418.75,719.9963" style="stroke:#456A7D;stroke-width:1.875;"/><line style="stroke:#456A7D;stroke-width:2.625;" x1="1963.125" x2="1768.125" y1="530.2112" y2="530.2112"/><line style="stroke:#456A7D;stroke-width:2.625;" x1="1768.125" x2="1768.125" y1="530.2112" y2="590.2112"/><polygon fill="#456A7D" points="1760.625,571.4612,1768.125,590.2112,1775.625,571.4612,1768.125,578.9612" style="stroke:#456A7D;stroke-width:1.875;"/><line style="stroke:#456A7D;stroke-width:2.625;" x1="2223.75" x2="2418.75" y1="530.2112" y2="530.2112"/><line style="stroke:#456A7D;stroke-width:2.625;" x1="2418.75" x2="2418.75" y1="530.2112" y2="590.2112"/><polygon fill="#456A7D" points="2411.25,571.4612,2418.75,590.2112,2426.25,571.4612,2418.75,578.9612" style="stroke:#456A7D;stroke-width:1.875;"/><line style="stroke:#456A7D;stroke-width:2.625;" x1="2093.4375" x2="2093.4375" y1="470.2112" y2="507.7112"/><polygon fill="#456A7D" points="2085.9375,488.9612,2093.4375,507.7112,2100.9375,488.9612,2093.4375,496.4612" style="stroke:#456A7D;stroke-width:1.875;"/><line style="stroke:#456A7D;stroke-width:2.625;" x1="2790" x2="2790" y1="942.7991" y2="980.2991"/><polygon fill="#456A7D" points="2782.5,961.5491,2790,980.2991,2797.5,961.5491,2790,969.0491" style="stroke:#456A7D;stroke-width:1.875;"/><line style="stroke:#456A7D;stroke-width:2.625;" x1="938.4375" x2="938.4375" y1="329.176" y2="338.551"/><line style="stroke:#456A7D;stroke-width:2.625;" x1="938.4375" x2="2093.4375" y1="338.551" y2="338.551"/><line style="stroke:#456A7D;stroke-width:2.625;" x1="2093.4375" x2="2093.4375" y1="338.551" y2="366.676"/><polygon fill="#456A7D" points="2085.9375,347.926,2093.4375,366.676,2100.9375,347.926,2093.4375,355.426" style="stroke:#456A7D;stroke-width:1.875;"/><line style="stroke:#456A7D;stroke-width:2.625;" x1="1768.125" x2="1768.125" y1="693.7463" y2="703.1213"/><line style="stroke:#456A7D;stroke-width:2.625;" x1="1768.125" x2="613.125" y1="703.1213" y2="703.1213"/><line style="stroke:#456A7D;stroke-width:2.625;" x1="613.125" x2="613.125" y1="703.1213" y2="731.2463"/><polygon fill="#456A7D" points="605.625,712.4963,613.125,731.2463,620.625,712.4963,613.125,719.9963" style="stroke:#456A7D;stroke-width:1.875;"/><line style="stroke:#456A7D;stroke-width:2.625;" x1="613.125" x2="613.125" y1="801.7639" y2="811.1389"/><line style="stroke:#456A7D;stroke-width:2.625;" x1="613.125" x2="2790" y1="811.1389" y2="811.1389"/><line style="stroke:#456A7D;stroke-width:2.625;" x1="2790" x2="2790" y1="811.1389" y2="839.2639"/><polygon fill="#456A7D" points="2782.5,820.5139,2790,839.2639,2797.5,820.5139,2790,828.0139" style="stroke:#456A7D;stroke-width:1.875;"/><line style="stroke:#456A7D;stroke-width:2.625;" x1="1321.875" x2="1321.875" y1="1248.8342" y2="1281.6467"/><line style="stroke:#456A7D;stroke-width:2.625;" x1="1321.875" x2="3176.25" y1="1281.6467" y2="1281.6467"/><line style="stroke:#456A7D;stroke-width:2.625;" x1="3176.25" x2="3176.25" y1="1281.6467" y2="1310.7092"/><polygon fill="#456A7D" points="3168.75,1291.9592,3176.25,1310.7092,3183.75,1291.9592,3176.25,1299.4592" style="stroke:#456A7D;stroke-width:1.875;"/><line style="stroke:#456A7D;stroke-width:2.625;" x1="3176.25" x2="3176.25" y1="1414.2444" y2="1423.6194"/><line style="stroke:#456A7D;stroke-width:2.625;" x1="3176.25" x2="193.125" y1="1423.6194" y2="1423.6194"/><line style="stroke:#456A7D;stroke-width:2.625;" x1="193.125" x2="193.125" y1="1423.6194" y2="1451.7444"/><polygon fill="#456A7D" points="185.625,1432.9944,193.125,1451.7444,200.625,1432.9944,193.125,1440.4944" style="stroke:#456A7D;stroke-width:1.875;"/><line style="stroke:#456A7D;stroke-width:2.625;" x1="1628.4375" x2="1650.9375" y1="1085.2991" y2="1085.2991"/><line style="stroke:#456A7D;stroke-width:2.625;" x1="1650.9375" x2="1650.9375" y1="1085.2991" y2="1119.0491"/><line style="stroke:#456A7D;stroke-width:2.625;" x1="1650.9375" x2="515.625" y1="1119.0491" y2="1119.0491"/><line style="stroke:#456A7D;stroke-width:2.625;" x1="515.625" x2="515.625" y1="1119.0491" y2="1145.2991"/><polygon fill="#456A7D" points="508.125,1126.5491,515.625,1145.2991,523.125,1126.5491,515.625,1134.0491" style="stroke:#456A7D;stroke-width:1.875;"/><line style="stroke:#456A7D;stroke-width:2.625;" x1="193.125" x2="193.125" y1="1555.2795" y2="1596.5295"/><line style="stroke:#456A7D;stroke-width:2.625;" x1="193.125" x2="1473.75" y1="1596.5295" y2="1596.5295"/><polygon fill="#456A7D" points="1455,1589.0295,1473.75,1596.5295,1455,1604.0295,1462.5,1596.5295" style="stroke:#456A7D;stroke-width:1.875;"/><line style="stroke:#456A7D;stroke-width:2.625;" x1="515.625" x2="515.625" y1="1248.8342" y2="1562.7795"/><line style="stroke:#456A7D;stroke-width:2.625;" x1="515.625" x2="1552.5" y1="1562.7795" y2="1562.7795"/><line style="stroke:#456A7D;stroke-width:2.625;" x1="1552.5" x2="1552.5" y1="1562.7795" y2="1596.5295"/><line style="stroke:#456A7D;stroke-width:2.625;" x1="1552.5" x2="1518.75" y1="1596.5295" y2="1596.5295"/><polygon fill="#456A7D" points="1537.5,1589.0295,1518.75,1596.5295,1537.5,1604.0295,1530,1596.5295" style="stroke:#456A7D;stroke-width:1.875;"/><line style="stroke:#456A7D;stroke-width:2.625;" x1="2630.625" x2="1496.25" y1="1002.7991" y2="1002.7991"/><line style="stroke:#456A7D;stroke-width:2.625;" x1="1496.25" x2="1496.25" y1="1002.7991" y2="1062.7991"/><polygon fill="#456A7D" points="1488.75,1044.0491,1496.25,1062.7991,1503.75,1044.0491,1496.25,1051.5491" style="stroke:#456A7D;stroke-width:1.875;"/><line style="stroke:#456A7D;stroke-width:2.625;" x1="2949.375" x2="2971.875" y1="1002.7991" y2="1002.7991"/><line style="stroke:#456A7D;stroke-width:2.625;" x1="2971.875" x2="2971.875" y1="1002.7991" y2="1036.5491"/><line style="stroke:#456A7D;stroke-width:2.625;" x1="2971.875" x2="2040" y1="1036.5491" y2="1036.5491"/><line style="stroke:#456A7D;stroke-width:2.625;" x1="2040" x2="2040" y1="1036.5491" y2="1062.7991"/><polygon fill="#456A7D" points="2032.5,1044.0491,2040,1062.7991,2047.5,1044.0491,2040,1051.5491" style="stroke:#456A7D;stroke-width:1.875;"/><text fill="#000000" font-family="sans-serif" font-size="26.25" lengthAdjust="spacing" textLength="106.875" x="541.4063" y="135.498">Acheteur</text><text fill="#000000" font-family="sans-serif" font-size="26.25" lengthAdjust="spacing" textLength="258.75" x="1744.2188" y="135.498">Syst&#232;me ElevConnect</text><text fill="#000000" font-family="sans-serif" font-size="26.25" lengthAdjust="spacing" textLength="142.5" x="2723.4375" y="135.498">Fournisseur</text><text fill="#000000" font-family="sans-serif" font-size="26.25" lengthAdjust="spacing" textLength="82.5" x="3133.125" y="135.498">Livreur</text><!--SRC=[ZLPDRjiu5Dxp50IwI08KGMpBjU8i1h8iTGe4GQRgT4zJL4n48bMISkl2YnvY3Z3ByJbyavwaJpzkA4kH9qY0IEzxt_lUzqYH5pWosvHXAhEi4FZdZtzmpCcJ8bd6D0vIjl6b48mQT86Zp-_n72TIPSJW3RoJYhCK2sRmuLziP64ODeIdARl6ZmybbdtBfJ9uJSfGVDWdN733fRX6-fcBd40Pl2Bq-Kd9GiI-JAN2RyBgnqB4ESSZzyPwezSabb-vUC89IJMp8XKHbKemXKTZAv1oqBdD6GP1QscpiuGKgGcbC0yaOpWYGaTCyQGV4_7l38ySA_Y9cvGDflz6LCdZcxvGq_neDXaxImlWAIM_Da5d-iwRTO9MzlZMSQUBKy2dDQVFWccDHzUsy0TfsAB7VJTmJr5InKmrY63g1Sxq1669c2uSTnHOyKUeGPxQ9BVUOkRDUa0TFKxeXU-wGDkp44fE-Y7rwbx9DBPTeOPlkDbsYzs4RZZfGzhQn-5isNQvGGtEiS4iEScaYFjydopTWGHRmTAzdOx3tevU5UcdHEl5sSrMmmRRhI1_CWAG3b_WX9F0EmKF6HC8qpkAKs4DRb1PZHcg5XdIi-Y3PJWBHntOOAqACbJgRyqeqJt5F5ZJRW_GBZS9PixjJHSqs1lxKZ11sJrFu4-SR3X_uVYZ8VJP2Hmp7eaodFAS27E-kRwamKQF2Lvvlln_KJLyU68Dz3qGvbtcMRW8bw_2Uxn4flnumzT6QpXj2b6VeaJ432Eqy-YQ6LQe7T86UaTpVosvvZMG2261-Yqg7xuKf5otXps6anG8CmaCyAkOKOIRExIBjjeS_eFJnJgGTsZ- -R27WuP3SSZIHj9dO42KfBH8wvVmvJ10VeTuWY-Z2X5pdKl1Ln3zumgRDHFuKXRy2c4yzzLXNoQIbqw0iBeUmBz_VSJn1Hpba5AE4WJVGPBLA30yacsRe8A4ib22WqqDogEKvGQ0ie0kamByGoSvfM3_A89KUD3MaGpa_UQKePBZdc_0H2q5ffN_VHIbRYLpgMlfwJ45mRK6BaNbCoYtdBjhqdRtTMXtfAcUM_qZc6aEjcemhPu9s5ZQ-Pl3zgyYYIWiZnQs6giK2LTPpGw4fIDmbQff6Do2y6MpO42e0W-kNYtWzrCXm7qlgoOlusheHGmNcZDkjsdj1RHXgh8MRfIhmrwKzq3A2OZKDJqitHmTcu2DSNQmyu_reZajf5Ys0krLv88qRRThL9sqAiq_YF9Esyg1FSdGowRI1dFH7d_5Lx7z0W00]--></g></svg>