<?xml version="1.0" encoding="us-ascii" standalone="no"?><svg xmlns="http://www.w3.org/2000/svg" xmlns:xlink="http://www.w3.org/1999/xlink" contentStyleType="text/css" height="1848px" preserveAspectRatio="none" style="width:1975px;height:1848px;background:#FFFFFF;" version="1.1" viewBox="0 0 1975 1848" width="1975px" zoomAndPan="magnify"><defs/><g><rect fill="none" height="22.6406" style="stroke:none;stroke-width:1.0;" width="1942.75" x="15" y="12.4551"/><ellipse cx="337.5" cy="50.0957" fill="#222222" rx="10" ry="10" style="stroke:#222222;stroke-width:1.0;"/><rect fill="#F1F1F1" height="65.2813" rx="12.5" ry="12.5" style="stroke:#181818;stroke-width:0.5;" width="301" x="187" y="80.0957"/><text fill="#000000" font-family="sans-serif" font-size="12" lengthAdjust="spacing" textLength="281" x="197" y="102.5527">Consulter une annonce visible, choisir une quantit&#233;</text><text fill="#000000" font-family="sans-serif" font-size="12" lengthAdjust="spacing" textLength="160" x="197" y="117.6465">et choisir son mode de retrait</text><text fill="#000000" font-family="sans-serif" font-size="12" lengthAdjust="spacing" textLength="212" x="197" y="132.7402">(livraison par un livreur ou retrait direct)</text><rect fill="#F1F1F1" height="50.1875" rx="12.5" ry="12.5" style="stroke:#181818;stroke-width:0.5;" width="193" x="241" y="496.8105"/><text fill="#000000" font-family="sans-serif" font-size="12" lengthAdjust="spacing" textLength="116" x="251" y="519.2676">Effectuer le paiement</text><text fill="#000000" font-family="sans-serif" font-size="12" lengthAdjust="spacing" textLength="173" x="251" y="534.3613">(mobile money / carte bancaire)</text><rect fill="#F1F1F1" height="35.0938" rx="12.5" ry="12.5" style="stroke:#181818;stroke-width:0.5;" width="252" x="21" y="1423.5918"/><text fill="#000000" font-family="sans-serif" font-size="12" lengthAdjust="spacing" textLength="232" x="31" y="1446.0488">Scanner le QR code pr&#233;sent&#233; par le livreur</text><rect fill="#F1F1F1" height="95.4688" rx="12.5" ry="12.5" style="stroke:#181818;stroke-width:0.5;" width="249" x="403.5" y="1057.748"/><text fill="#000000" font-family="sans-serif" font-size="12" lengthAdjust="spacing" textLength="229" x="413.5" y="1080.2051">Se rendre chez le fournisseur et confirmer</text><text fill="#000000" font-family="sans-serif" font-size="12" lengthAdjust="spacing" textLength="151" x="413.5" y="1095.2988">la r&#233;ception en main propre</text><text fill="#000000" font-family="sans-serif" font-size="12" lengthAdjust="spacing" textLength="181" x="413.5" y="1110.3926">(aucune v&#233;rification par QR code,</text><text fill="#000000" font-family="sans-serif" font-size="12" lengthAdjust="spacing" textLength="202" x="413.5" y="1125.4863">ce m&#233;canisme ne s'appliquant qu'en</text><text fill="#000000" font-family="sans-serif" font-size="12" lengthAdjust="spacing" textLength="194" x="413.5" y="1140.5801">pr&#233;sence d'un livreur interm&#233;diaire)</text><rect fill="#F1F1F1" height="50.1875" rx="12.5" ry="12.5" style="stroke:#181818;stroke-width:0.5;" width="281" x="197" y="1744.0605"/><text fill="#000000" font-family="sans-serif" font-size="12" lengthAdjust="spacing" textLength="169" x="207" y="1766.5176">Laisser une note et un avis sur</text><text fill="#000000" font-family="sans-serif" font-size="12" lengthAdjust="spacing" textLength="261" x="207" y="1781.6113">la commande et, le cas &#233;ch&#233;ant, sur la livraison</text><ellipse cx="337.5" cy="1825.248" fill="none" rx="11" ry="11" style="stroke:#222222;stroke-width:1.0;"/><ellipse cx="337.5" cy="1825.248" fill="#222222" rx="6" ry="6" style="stroke:#111111;stroke-width:1.0;"/><line style="stroke:#000000;stroke-width:1.5;" x1="15" x2="15" y1="12.4551" y2="1836.248"/><rect fill="#F1F1F1" height="65.2813" rx="12.5" ry="12.5" style="stroke:#181818;stroke-width:0.5;" width="249" x="962" y="165.377"/><text fill="#000000" font-family="sans-serif" font-size="12" lengthAdjust="spacing" textLength="180" x="972" y="187.834">V&#233;rifier la disponibilit&#233; et calculer</text><text fill="#000000" font-family="sans-serif" font-size="12" lengthAdjust="spacing" textLength="229" x="972" y="202.9277">le montant net (r&#233;duction selon le bar&#232;me</text><text fill="#000000" font-family="sans-serif" font-size="12" lengthAdjust="spacing" textLength="74" x="972" y="218.0215">de l'annonce)</text><rect fill="#F1F1F1" height="35.0938" rx="12.5" ry="12.5" style="stroke:#181818;stroke-width:0.5;" width="196" x="988.5" y="299.5762"/><text fill="#000000" font-family="sans-serif" font-size="12" lengthAdjust="spacing" textLength="176" x="998.5" y="322.0332">Notifier l'acheteur (stock &#233;puis&#233;)</text><ellipse cx="1086.5" cy="373.623" fill="none" rx="11" ry="11" style="stroke:#222222;stroke-width:1.0;"/><ellipse cx="1086.5" cy="373.623" fill="#222222" rx="6" ry="6" style="stroke:#111111;stroke-width:1.0;"/><polygon fill="#F1F1F1" points="1036.5,250.6582,1136.5,250.6582,1148.5,262.6582,1136.5,274.6582,1036.5,274.6582,1024.5,262.6582,1036.5,250.6582" style="stroke:#181818;stroke-width:0.5;"/><text fill="#000000" font-family="sans-serif" font-size="11" lengthAdjust="spacing" textLength="18" x="1090.5" y="286.0771">non</text><text fill="#000000" font-family="sans-serif" font-size="11" lengthAdjust="spacing" textLength="100" x="1036.5" y="267.1592">Quantit&#233; disponible ?</text><text fill="#000000" font-family="sans-serif" font-size="11" lengthAdjust="spacing" textLength="14" x="1148.5" y="260.2412">oui</text><rect fill="#F1F1F1" height="50.1875" rx="12.5" ry="12.5" style="stroke:#181818;stroke-width:0.5;" width="284" x="944.5" y="426.623"/><text fill="#000000" font-family="sans-serif" font-size="12" lengthAdjust="spacing" textLength="222" x="954.5" y="449.0801">G&#233;n&#233;rer le code d'authenticit&#233; (QR code)</text><text fill="#000000" font-family="sans-serif" font-size="12" lengthAdjust="spacing" textLength="264" x="954.5" y="464.1738">et enregistrer la commande (statut = en_attente)</text><rect fill="#F1F1F1" height="50.1875" rx="12.5" ry="12.5" style="stroke:#181818;stroke-width:0.5;" width="220" x="976.5" y="566.998"/><text fill="#000000" font-family="sans-serif" font-size="12" lengthAdjust="spacing" textLength="200" x="986.5" y="589.4551">S&#233;questrer les fonds et mettre &#224; jour</text><text fill="#000000" font-family="sans-serif" font-size="12" lengthAdjust="spacing" textLength="87" x="986.5" y="604.5488">le statut (pay&#233;e)</text><rect fill="#F1F1F1" height="35.0938" rx="12.5" ry="12.5" style="stroke:#181818;stroke-width:0.5;" width="138" x="1017.5" y="637.1855"/><text fill="#000000" font-family="sans-serif" font-size="12" lengthAdjust="spacing" textLength="118" x="1027.5" y="659.6426">Notifier le fournisseur</text><rect fill="#F1F1F1" height="35.0938" rx="12.5" ry="12.5" style="stroke:#181818;stroke-width:0.5;" width="279" x="947" y="692.2793"/><text fill="#000000" font-family="sans-serif" font-size="12" lengthAdjust="spacing" textLength="259" x="957" y="714.7363">Mettre &#224; jour le statut (en_cours_de_traitement)</text><rect fill="#F1F1F1" height="50.1875" rx="12.5" ry="12.5" style="stroke:#181818;stroke-width:0.5;" width="272" x="838.25" y="846.4668"/><text fill="#000000" font-family="sans-serif" font-size="12" lengthAdjust="spacing" textLength="166" x="848.25" y="868.9238">Mettre &#224; jour le statut (refus&#233;e)</text><text fill="#000000" font-family="sans-serif" font-size="12" lengthAdjust="spacing" textLength="252" x="848.25" y="884.0176">et d&#233;clencher le remboursement de l'acheteur</text><ellipse cx="974.25" cy="927.6543" fill="none" rx="11" ry="11" style="stroke:#222222;stroke-width:1.0;"/><ellipse cx="974.25" cy="927.6543" fill="#222222" rx="6" ry="6" style="stroke:#111111;stroke-width:1.0;"/><rect fill="#F1F1F1" height="35.0938" rx="12.5" ry="12.5" style="stroke:#181818;stroke-width:0.5;" width="183" x="995" y="958.6543"/><text fill="#000000" font-family="sans-serif" font-size="12" lengthAdjust="spacing" textLength="163" x="1005" y="981.1113">Mettre &#224; jour le statut (valid&#233;e)</text><polygon fill="#F1F1F1" points="1002,1013.748,1171,1013.748,1183,1025.748,1171,1037.748,1002,1037.748,990,1025.748,1002,1013.748" style="stroke:#181818;stroke-width:0.5;"/><text fill="#000000" font-family="sans-serif" font-size="11" lengthAdjust="spacing" textLength="169" x="1002" y="1030.249">L'acheteur a-t-il choisi la livraison ?</text><text fill="#000000" font-family="sans-serif" font-size="11" lengthAdjust="spacing" textLength="14" x="976" y="1023.3311">oui</text><text fill="#000000" font-family="sans-serif" font-size="11" lengthAdjust="spacing" textLength="82" x="1183" y="1023.3311">non, retrait direct</text><rect fill="#F1F1F1" height="50.1875" rx="12.5" ry="12.5" style="stroke:#181818;stroke-width:0.5;" width="190" x="801" y="1057.748"/><text fill="#000000" font-family="sans-serif" font-size="12" lengthAdjust="spacing" textLength="170" x="811" y="1080.2051">Notifier les livreurs disponibles</text><text fill="#000000" font-family="sans-serif" font-size="12" lengthAdjust="spacing" textLength="106" x="811" y="1095.2988">selon leur planning</text><rect fill="#F1F1F1" height="50.1875" rx="12.5" ry="12.5" style="stroke:#181818;stroke-width:0.5;" width="309" x="741.5" y="1228.123"/><text fill="#000000" font-family="sans-serif" font-size="12" lengthAdjust="spacing" textLength="209" x="751.5" y="1250.5801">Mettre &#224; jour le statut de la commande</text><text fill="#000000" font-family="sans-serif" font-size="12" lengthAdjust="spacing" textLength="289" x="751.5" y="1265.6738">(en_cours_de_livraison) et de la livraison (en_cours)</text><rect fill="#F1F1F1" height="35.0938" rx="12.5" ry="12.5" style="stroke:#181818;stroke-width:0.5;" width="173" x="809.5" y="1368.498"/><text fill="#000000" font-family="sans-serif" font-size="12" lengthAdjust="spacing" textLength="153" x="819.5" y="1390.9551">Mettre &#224; jour le statut (livr&#233;e)</text><polygon fill="#F1F1F1" points="840.5,1478.6855,951.5,1478.6855,963.5,1490.6855,951.5,1502.6855,840.5,1502.6855,828.5,1490.6855,840.5,1478.6855" style="stroke:#181818;stroke-width:0.5;"/><text fill="#000000" font-family="sans-serif" font-size="11" lengthAdjust="spacing" textLength="111" x="840.5" y="1495.1865">Code QR authentique ?</text><text fill="#000000" font-family="sans-serif" font-size="11" lengthAdjust="spacing" textLength="18" x="810.5" y="1488.2686">non</text><text fill="#000000" font-family="sans-serif" font-size="11" lengthAdjust="spacing" textLength="14" x="963.5" y="1488.2686">oui</text><rect fill="#F1F1F1" height="50.1875" rx="12.5" ry="12.5" style="stroke:#181818;stroke-width:0.5;" width="227" x="662.5" y="1512.6855"/><text fill="#000000" font-family="sans-serif" font-size="12" lengthAdjust="spacing" textLength="194" x="672.5" y="1535.1426">Marquer la v&#233;rification d'authenticit&#233;</text><text fill="#000000" font-family="sans-serif" font-size="12" lengthAdjust="spacing" textLength="207" x="672.5" y="1550.2363">comme &#233;chou&#233;e et notifier les parties</text><ellipse cx="776" cy="1608.873" fill="none" rx="11" ry="11" style="stroke:#222222;stroke-width:1.0;"/><ellipse cx="776" cy="1608.873" fill="#222222" rx="6" ry="6" style="stroke:#111111;stroke-width:1.0;"/><rect fill="#F1F1F1" height="65.2813" rx="12.5" ry="12.5" style="stroke:#181818;stroke-width:0.5;" width="213" x="909.5" y="1512.6855"/><text fill="#000000" font-family="sans-serif" font-size="12" lengthAdjust="spacing" textLength="193" x="919.5" y="1535.1426">Marquer la commande (confirm&#233;e),</text><text fill="#000000" font-family="sans-serif" font-size="12" lengthAdjust="spacing" textLength="132" x="919.5" y="1550.2363">la livraison (termin&#233;e) et</text><text fill="#000000" font-family="sans-serif" font-size="12" lengthAdjust="spacing" textLength="118" x="919.5" y="1565.3301">l'authenticit&#233; (v&#233;rifi&#233;e)</text><rect fill="#F1F1F1" height="35.0938" rx="12.5" ry="12.5" style="stroke:#181818;stroke-width:0.5;" width="210" x="1172" y="1188.2168"/><text fill="#000000" font-family="sans-serif" font-size="12" lengthAdjust="spacing" textLength="190" x="1182" y="1210.6738">Marquer la commande (confirm&#233;e)</text><polygon fill="#F1F1F1" points="1086.5,1629.873,1098.5,1641.873,1086.5,1653.873,1074.5,1641.873,1086.5,1629.873" style="stroke:#181818;stroke-width:0.5;"/><rect fill="#F1F1F1" height="50.1875" rx="12.5" ry="12.5" style="stroke:#181818;stroke-width:0.5;" width="240" x="966.5" y="1673.873"/><text fill="#000000" font-family="sans-serif" font-size="12" lengthAdjust="spacing" textLength="151" x="976.5" y="1696.3301">D&#233;clencher les versements</text><text fill="#000000" font-family="sans-serif" font-size="12" lengthAdjust="spacing" textLength="220" x="976.5" y="1711.4238">(fournisseur, puis livreur le cas &#233;ch&#233;ant)</text><line style="stroke:#000000;stroke-width:1.5;" x1="656.5" x2="656.5" y1="12.4551" y2="1836.248"/><rect fill="#F1F1F1" height="35.0938" rx="12.5" ry="12.5" style="stroke:#181818;stroke-width:0.5;" width="187" x="1392" y="747.373"/><text fill="#000000" font-family="sans-serif" font-size="12" lengthAdjust="spacing" textLength="167" x="1402" y="769.8301">Consulter la commande re&#231;ue</text><polygon fill="#F1F1F1" points="1430.5,802.4668,1540.5,802.4668,1552.5,814.4668,1540.5,826.4668,1430.5,826.4668,1418.5,814.4668,1430.5,802.4668" style="stroke:#181818;stroke-width:0.5;"/><text fill="#000000" font-family="sans-serif" font-size="11" lengthAdjust="spacing" textLength="110" x="1430.5" y="818.9678">Commande accept&#233;e ?</text><text fill="#000000" font-family="sans-serif" font-size="11" lengthAdjust="spacing" textLength="18" x="1400.5" y="812.0498">non</text><text fill="#000000" font-family="sans-serif" font-size="11" lengthAdjust="spacing" textLength="14" x="1552.5" y="812.0498">oui</text><rect fill="#F1F1F1" height="35.0938" rx="12.5" ry="12.5" style="stroke:#181818;stroke-width:0.5;" width="137" x="1529.25" y="846.4668"/><text fill="#000000" font-family="sans-serif" font-size="12" lengthAdjust="spacing" textLength="117" x="1539.25" y="868.9238">Valider la commande</text><line style="stroke:#000000;stroke-width:1.5;" x1="1386" x2="1386" y1="12.4551" y2="1836.248"/><rect fill="#F1F1F1" height="50.1875" rx="12.5" ry="12.5" style="stroke:#181818;stroke-width:0.5;" width="184" x="1722.25" y="1142.9355"/><text fill="#000000" font-family="sans-serif" font-size="12" lengthAdjust="spacing" textLength="164" x="1732.25" y="1165.3926">Prendre en charge la livraison</text><text fill="#000000" font-family="sans-serif" font-size="12" lengthAdjust="spacing" textLength="157" x="1732.25" y="1180.4863">(ou la rejeter si indisponible)</text><rect fill="#F1F1F1" height="50.1875" rx="12.5" ry="12.5" style="stroke:#181818;stroke-width:0.5;" width="276" x="1676.25" y="1298.3105"/><text fill="#000000" font-family="sans-serif" font-size="12" lengthAdjust="spacing" textLength="256" x="1686.25" y="1320.7676">Livrer la commande et cliquer sur &#171; Livraison &#187;</text><text fill="#000000" font-family="sans-serif" font-size="12" lengthAdjust="spacing" textLength="228" x="1686.25" y="1335.8613">pour afficher le QR code de la commande</text><line style="stroke:#000000;stroke-width:1.5;" x1="1670.25" x2="1670.25" y1="12.4551" y2="1836.248"/><line style="stroke:#000000;stroke-width:1.5;" x1="1956.25" x2="1956.25" y1="12.4551" y2="1836.248"/><line style="stroke:#181818;stroke-width:1.0;" x1="337.5" x2="337.5" y1="60.0957" y2="80.0957"/><polygon fill="#181818" points="333.5,70.0957,337.5,80.0957,341.5,70.0957,337.5,74.0957" style="stroke:#181818;stroke-width:1.0;"/><line style="stroke:#181818;stroke-width:1.0;" x1="337.5" x2="337.5" y1="1794.248" y2="1814.248"/><polygon fill="#181818" points="333.5,1804.248,337.5,1814.248,341.5,1804.248,337.5,1808.248" style="stroke:#181818;stroke-width:1.0;"/><line style="stroke:#181818;stroke-width:1.0;" x1="1086.5" x2="1086.5" y1="334.6699" y2="362.623"/><polygon fill="#181818" points="1082.5,352.623,1086.5,362.623,1090.5,352.623,1086.5,356.623" style="stroke:#181818;stroke-width:1.0;"/><line style="stroke:#181818;stroke-width:1.0;" x1="1086.5" x2="1086.5" y1="274.6582" y2="299.5762"/><polygon fill="#181818" points="1082.5,289.5762,1086.5,299.5762,1090.5,289.5762,1086.5,293.5762" style="stroke:#181818;stroke-width:1.0;"/><line style="stroke:#181818;stroke-width:1.0;" x1="1148.5" x2="1194.5" y1="262.6582" y2="262.6582"/><polygon fill="#181818" points="1190.5,332.623,1194.5,342.623,1198.5,332.623,1194.5,336.623" style="stroke:#181818;stroke-width:1.0;"/><line style="stroke:#181818;stroke-width:1.0;" x1="1194.5" x2="1194.5" y1="262.6582" y2="406.623"/><line style="stroke:#181818;stroke-width:1.0;" x1="1194.5" x2="1086.5" y1="406.623" y2="406.623"/><line style="stroke:#181818;stroke-width:1.0;" x1="1086.5" x2="1086.5" y1="406.623" y2="426.623"/><polygon fill="#181818" points="1082.5,416.623,1086.5,426.623,1090.5,416.623,1086.5,420.623" style="stroke:#181818;stroke-width:1.0;"/><line style="stroke:#181818;stroke-width:1.0;" x1="1086.5" x2="1086.5" y1="230.6582" y2="250.6582"/><polygon fill="#181818" points="1082.5,240.6582,1086.5,250.6582,1090.5,240.6582,1086.5,244.6582" style="stroke:#181818;stroke-width:1.0;"/><line style="stroke:#181818;stroke-width:1.0;" x1="1086.5" x2="1086.5" y1="617.1855" y2="637.1855"/><polygon fill="#181818" points="1082.5,627.1855,1086.5,637.1855,1090.5,627.1855,1086.5,631.1855" style="stroke:#181818;stroke-width:1.0;"/><line style="stroke:#181818;stroke-width:1.0;" x1="1086.5" x2="1086.5" y1="672.2793" y2="692.2793"/><polygon fill="#181818" points="1082.5,682.2793,1086.5,692.2793,1090.5,682.2793,1086.5,686.2793" style="stroke:#181818;stroke-width:1.0;"/><line style="stroke:#181818;stroke-width:1.0;" x1="974.25" x2="974.25" y1="896.6543" y2="916.6543"/><polygon fill="#181818" points="970.25,906.6543,974.25,916.6543,978.25,906.6543,974.25,910.6543" style="stroke:#181818;stroke-width:1.0;"/><line style="stroke:#181818;stroke-width:1.0;" x1="776" x2="776" y1="1562.873" y2="1597.873"/><polygon fill="#181818" points="772,1587.873,776,1597.873,780,1587.873,776,1591.873" style="stroke:#181818;stroke-width:1.0;"/><line style="stroke:#181818;stroke-width:1.0;" x1="828.5" x2="776" y1="1490.6855" y2="1490.6855"/><line style="stroke:#181818;stroke-width:1.0;" x1="776" x2="776" y1="1490.6855" y2="1512.6855"/><polygon fill="#181818" points="772,1502.6855,776,1512.6855,780,1502.6855,776,1506.6855" style="stroke:#181818;stroke-width:1.0;"/><line style="stroke:#181818;stroke-width:1.0;" x1="963.5" x2="1016" y1="1490.6855" y2="1490.6855"/><line style="stroke:#181818;stroke-width:1.0;" x1="1016" x2="1016" y1="1490.6855" y2="1512.6855"/><polygon fill="#181818" points="1012,1502.6855,1016,1512.6855,1020,1502.6855,1016,1506.6855" style="stroke:#181818;stroke-width:1.0;"/><line style="stroke:#181818;stroke-width:1.0;" x1="1016" x2="1016" y1="1577.9668" y2="1641.873"/><line style="stroke:#181818;stroke-width:1.0;" x1="1016" x2="1074.5" y1="1641.873" y2="1641.873"/><polygon fill="#181818" points="1064.5,1637.873,1074.5,1641.873,1064.5,1645.873,1068.5,1641.873" style="stroke:#181818;stroke-width:1.0;"/><line style="stroke:#181818;stroke-width:1.0;" x1="990" x2="896" y1="1025.748" y2="1025.748"/><line style="stroke:#181818;stroke-width:1.0;" x1="896" x2="896" y1="1025.748" y2="1057.748"/><polygon fill="#181818" points="892,1047.748,896,1057.748,900,1047.748,896,1051.748" style="stroke:#181818;stroke-width:1.0;"/><line style="stroke:#181818;stroke-width:1.0;" x1="1277" x2="1277" y1="1223.3105" y2="1641.873"/><line style="stroke:#181818;stroke-width:1.0;" x1="1277" x2="1098.5" y1="1641.873" y2="1641.873"/><polygon fill="#181818" points="1108.5,1637.873,1098.5,1641.873,1108.5,1645.873,1104.5,1641.873" style="stroke:#181818;stroke-width:1.0;"/><line style="stroke:#181818;stroke-width:1.0;" x1="1086.5" x2="1086.5" y1="993.748" y2="1013.748"/><polygon fill="#181818" points="1082.5,1003.748,1086.5,1013.748,1090.5,1003.748,1086.5,1007.748" style="stroke:#181818;stroke-width:1.0;"/><line style="stroke:#181818;stroke-width:1.0;" x1="1086.5" x2="1086.5" y1="1653.873" y2="1673.873"/><polygon fill="#181818" points="1082.5,1663.873,1086.5,1673.873,1090.5,1663.873,1086.5,1667.873" style="stroke:#181818;stroke-width:1.0;"/><line style="stroke:#181818;stroke-width:1.0;" x1="1552.5" x2="1597.75" y1="814.4668" y2="814.4668"/><line style="stroke:#181818;stroke-width:1.0;" x1="1597.75" x2="1597.75" y1="814.4668" y2="846.4668"/><polygon fill="#181818" points="1593.75,836.4668,1597.75,846.4668,1601.75,836.4668,1597.75,840.4668" style="stroke:#181818;stroke-width:1.0;"/><line style="stroke:#181818;stroke-width:1.0;" x1="1597.75" x2="1597.75" y1="881.5605" y2="943.6543"/><line style="stroke:#181818;stroke-width:1.0;" x1="1597.75" x2="1086.5" y1="943.6543" y2="943.6543"/><line style="stroke:#181818;stroke-width:1.0;" x1="1086.5" x2="1086.5" y1="943.6543" y2="958.6543"/><polygon fill="#181818" points="1082.5,948.6543,1086.5,958.6543,1090.5,948.6543,1086.5,952.6543" style="stroke:#181818;stroke-width:1.0;"/><line style="stroke:#181818;stroke-width:1.0;" x1="1485.5" x2="1485.5" y1="782.4668" y2="802.4668"/><polygon fill="#181818" points="1481.5,792.4668,1485.5,802.4668,1489.5,792.4668,1485.5,796.4668" style="stroke:#181818;stroke-width:1.0;"/><line style="stroke:#181818;stroke-width:1.0;" x1="337.5" x2="337.5" y1="145.377" y2="150.377"/><line style="stroke:#181818;stroke-width:1.0;" x1="337.5" x2="1086.5" y1="150.377" y2="150.377"/><line style="stroke:#181818;stroke-width:1.0;" x1="1086.5" x2="1086.5" y1="150.377" y2="165.377"/><polygon fill="#181818" points="1082.5,155.377,1086.5,165.377,1090.5,155.377,1086.5,159.377" style="stroke:#181818;stroke-width:1.0;"/><line style="stroke:#181818;stroke-width:1.0;" x1="1086.5" x2="1086.5" y1="476.8105" y2="481.8105"/><line style="stroke:#181818;stroke-width:1.0;" x1="1086.5" x2="337.5" y1="481.8105" y2="481.8105"/><line style="stroke:#181818;stroke-width:1.0;" x1="337.5" x2="337.5" y1="481.8105" y2="496.8105"/><polygon fill="#181818" points="333.5,486.8105,337.5,496.8105,341.5,486.8105,337.5,490.8105" style="stroke:#181818;stroke-width:1.0;"/><line style="stroke:#181818;stroke-width:1.0;" x1="337.5" x2="337.5" y1="546.998" y2="551.998"/><line style="stroke:#181818;stroke-width:1.0;" x1="337.5" x2="1086.5" y1="551.998" y2="551.998"/><line style="stroke:#181818;stroke-width:1.0;" x1="1086.5" x2="1086.5" y1="551.998" y2="566.998"/><polygon fill="#181818" points="1082.5,556.998,1086.5,566.998,1090.5,556.998,1086.5,560.998" style="stroke:#181818;stroke-width:1.0;"/><line style="stroke:#181818;stroke-width:1.0;" x1="1086.5" x2="1086.5" y1="727.373" y2="732.373"/><line style="stroke:#181818;stroke-width:1.0;" x1="1086.5" x2="1485.5" y1="732.373" y2="732.373"/><line style="stroke:#181818;stroke-width:1.0;" x1="1485.5" x2="1485.5" y1="732.373" y2="747.373"/><polygon fill="#181818" points="1481.5,737.373,1485.5,747.373,1489.5,737.373,1485.5,741.373" style="stroke:#181818;stroke-width:1.0;"/><line style="stroke:#181818;stroke-width:1.0;" x1="1418.5" x2="974.25" y1="814.4668" y2="814.4668"/><line style="stroke:#181818;stroke-width:1.0;" x1="974.25" x2="974.25" y1="814.4668" y2="846.4668"/><polygon fill="#181818" points="970.25,836.4668,974.25,846.4668,978.25,836.4668,974.25,840.4668" style="stroke:#181818;stroke-width:1.0;"/><line style="stroke:#181818;stroke-width:1.0;" x1="896" x2="896" y1="1107.9355" y2="1125.4355"/><line style="stroke:#181818;stroke-width:1.0;" x1="896" x2="1814.25" y1="1125.4355" y2="1125.4355"/><line style="stroke:#181818;stroke-width:1.0;" x1="1814.25" x2="1814.25" y1="1125.4355" y2="1142.9355"/><polygon fill="#181818" points="1810.25,1132.9355,1814.25,1142.9355,1818.25,1132.9355,1814.25,1136.9355" style="stroke:#181818;stroke-width:1.0;"/><line style="stroke:#181818;stroke-width:1.0;" x1="1814.25" x2="1814.25" y1="1193.123" y2="1210.623"/><line style="stroke:#181818;stroke-width:1.0;" x1="1814.25" x2="896" y1="1210.623" y2="1210.623"/><line style="stroke:#181818;stroke-width:1.0;" x1="896" x2="896" y1="1210.623" y2="1228.123"/><polygon fill="#181818" points="892,1218.123,896,1228.123,900,1218.123,896,1222.123" style="stroke:#181818;stroke-width:1.0;"/><line style="stroke:#181818;stroke-width:1.0;" x1="896" x2="896" y1="1278.3105" y2="1283.3105"/><line style="stroke:#181818;stroke-width:1.0;" x1="896" x2="1814.25" y1="1283.3105" y2="1283.3105"/><line style="stroke:#181818;stroke-width:1.0;" x1="1814.25" x2="1814.25" y1="1283.3105" y2="1298.3105"/><polygon fill="#181818" points="1810.25,1288.3105,1814.25,1298.3105,1818.25,1288.3105,1814.25,1292.3105" style="stroke:#181818;stroke-width:1.0;"/><line style="stroke:#181818;stroke-width:1.0;" x1="1814.25" x2="1814.25" y1="1348.498" y2="1353.498"/><line style="stroke:#181818;stroke-width:1.0;" x1="1814.25" x2="896" y1="1353.498" y2="1353.498"/><line style="stroke:#181818;stroke-width:1.0;" x1="896" x2="896" y1="1353.498" y2="1368.498"/><polygon fill="#181818" points="892,1358.498,896,1368.498,900,1358.498,896,1362.498" style="stroke:#181818;stroke-width:1.0;"/><line style="stroke:#181818;stroke-width:1.0;" x1="896" x2="896" y1="1403.5918" y2="1408.5918"/><line style="stroke:#181818;stroke-width:1.0;" x1="896" x2="147" y1="1408.5918" y2="1408.5918"/><line style="stroke:#181818;stroke-width:1.0;" x1="147" x2="147" y1="1408.5918" y2="1423.5918"/><polygon fill="#181818" points="143,1413.5918,147,1423.5918,151,1413.5918,147,1417.5918" style="stroke:#181818;stroke-width:1.0;"/><line style="stroke:#181818;stroke-width:1.0;" x1="147" x2="147" y1="1458.6855" y2="1463.6855"/><line style="stroke:#181818;stroke-width:1.0;" x1="147" x2="896" y1="1463.6855" y2="1463.6855"/><line style="stroke:#181818;stroke-width:1.0;" x1="896" x2="896" y1="1463.6855" y2="1478.6855"/><polygon fill="#181818" points="892,1468.6855,896,1478.6855,900,1468.6855,896,1472.6855" style="stroke:#181818;stroke-width:1.0;"/><line style="stroke:#181818;stroke-width:1.0;" x1="528" x2="528" y1="1153.2168" y2="1170.7168"/><line style="stroke:#181818;stroke-width:1.0;" x1="528" x2="1277" y1="1170.7168" y2="1170.7168"/><line style="stroke:#181818;stroke-width:1.0;" x1="1277" x2="1277" y1="1170.7168" y2="1188.2168"/><polygon fill="#181818" points="1273,1178.2168,1277,1188.2168,1281,1178.2168,1277,1182.2168" style="stroke:#181818;stroke-width:1.0;"/><line style="stroke:#181818;stroke-width:1.0;" x1="1183" x2="1195" y1="1025.748" y2="1025.748"/><line style="stroke:#181818;stroke-width:1.0;" x1="1195" x2="1195" y1="1025.748" y2="1043.748"/><line style="stroke:#181818;stroke-width:1.0;" x1="1195" x2="528" y1="1043.748" y2="1043.748"/><line style="stroke:#181818;stroke-width:1.0;" x1="528" x2="528" y1="1043.748" y2="1057.748"/><polygon fill="#181818" points="524,1047.748,528,1057.748,532,1047.748,528,1051.748" style="stroke:#181818;stroke-width:1.0;"/><line style="stroke:#181818;stroke-width:1.0;" x1="1086.5" x2="1086.5" y1="1724.0605" y2="1729.0605"/><line style="stroke:#181818;stroke-width:1.0;" x1="1086.5" x2="337.5" y1="1729.0605" y2="1729.0605"/><line style="stroke:#181818;stroke-width:1.0;" x1="337.5" x2="337.5" y1="1729.0605" y2="1744.0605"/><polygon fill="#181818" points="333.5,1734.0605,337.5,1744.0605,341.5,1734.0605,337.5,1738.0605" style="stroke:#181818;stroke-width:1.0;"/><text fill="#000000" font-family="sans-serif" font-size="18" lengthAdjust="spacing" textLength="71" x="300.25" y="31.1406">Acheteur</text><text fill="#000000" font-family="sans-serif" font-size="18" lengthAdjust="spacing" textLength="176" x="933.25" y="31.1406">Syst&#232;me ElevConnect</text><text fill="#000000" font-family="sans-serif" font-size="18" lengthAdjust="spacing" textLength="95" x="1480.625" y="31.1406">Fournisseur</text><text fill="#000000" font-family="sans-serif" font-size="18" lengthAdjust="spacing" textLength="55" x="1785.75" y="31.1406">Livreur</text><!--SRC=[dLPDRzj64BtpLynD5A2WTnb1KQHfBcxHn41E0OprScXlIYxf_H3WGZ-cjvReJ-Wj_6Dzirn9f1GxG03387PdTjvxywNzJ_g10qUtBtnGBXJRDvtriGdiA5ecPMrdDTFEU7FNy8RqGuVFwV8nAXjC68TFbiFnndUMsgvYmf_Zu9G9dspPc1s-vAvNuaroWBZKnOCLLSQn3kkhOd_pvCFuJylqjk4T45cSxuljnt5mfZR0rYXO-xwpviuq0e44WMfqRDWL3GE13K17Wgnqur157GoYUsxm7mPtoac40YYRLQQ9qAQcyls1rp46x7zSKtXWIoKirmNHzhSkP2mhbKMaqeTE_q7Zq4VZnm7l4U6eBxZnJ6KNpRfWMvcwsBuR1miwui-aaruh5IL4C3e5Bzz_I1Tm2SJMyRtnmKtaTTUsoi894LM8WLx3ubQ507UXiJ_bTVkshY5Vd2Brod0Bew9iEqYNXE8d-W7YkI2gMAsGXXUIS3CEZv4p4lPKTxRo8d_B0OSq_aMVkvYIaB6LlNeQ1tbp9Xh3CJfhl0TAtFowyAQPDuXf7FdRYczJeIG2Wl2NqmlxUUNE1N8y_XrvIkoRmw7IcdjeV9dMPrWZtyy3T5n7BmHX1XsgST0DMoGWMJbkxmH-GarJkUNaVAqy06512v4_giPKIrfNkOoUIzBpO7Vos9GDaUJwLBpgLNXbcjp74kpKiqULCiHv7lsXbVsiNRmmows6f_i67MRilH3UNq_cYThl3Zm056_h1-NkUH4N5eWeHuu_isGMm8mzXKaDzXqfgtWkfeIP5zan_ZgbSudfPBg-O9E-b-KdOwanZz9z7X2-_4lNnvU-_0UdNf2fkZQ7UibTVuRnEucckJjb6_wdeG2V6usSB4FsCFMeKWmVcTAuoQbzCVhKMLLwvZ31GFYYjGIdSaaA4DjDirohD9RFPb-o5khWDA0WexGgfBJpiWF4ODXV9UFKHcY_UICj0vv6fkviRLmhicoIsJA_gBFMMBb5oEd-V39dy0TXfrwSOeFivdoZNMelOo4LFax_F1k6gMOcYDXb2Hto8WDBb8AWhJ9OewxhNIfT5RLiuwMWah-SLk685Gw-oBZnq1JMVgNwNWfJbkHZNB4qMyw_bbqqMz76YYJOeIQlXXTByHkAVsjo_RoOdfvsd4UdBygPI1kI5Nk4A3jK-LGiuw2cxJ1RWTTAlAPVBQYXL4iWgF2pHjgoM7RivkAvJMhUUPbS5L9n_mC0]--></g></svg>