<?xml version="1.0" encoding="us-ascii" standalone="no"?><svg xmlns="http://www.w3.org/2000/svg" xmlns:xlink="http://www.w3.org/1999/xlink" contentStyleType="text/css" height="1152px" preserveAspectRatio="none" style="width:1419px;height:1152px;background:#FFFFFF;" version="1.1" viewBox="0 0 1419 1152" width="1419px" zoomAndPan="magnify"><defs/><g><rect fill="none" height="45.2813" style="stroke:none;stroke-width:1.0;" width="1386.75" x="15" y="12.4551"/><ellipse cx="248.5" cy="72.7363" fill="#222222" rx="10" ry="10" style="stroke:#222222;stroke-width:1.0;"/><rect fill="#F1F1F1" height="35.0938" rx="12.5" ry="12.5" style="stroke:#181818;stroke-width:0.5;" width="177" x="160" y="102.7363"/><text fill="#000000" font-family="sans-serif" font-size="12" lengthAdjust="spacing" textLength="157" x="170" y="125.1934">Se connecter &#224; la plateforme</text><rect fill="#F1F1F1" height="95.4688" rx="12.5" ry="12.5" style="stroke:#181818;stroke-width:0.5;" width="303" x="97" y="157.8301"/><text fill="#000000" font-family="sans-serif" font-size="12" lengthAdjust="spacing" textLength="176" x="107" y="180.2871">Remplir le formulaire d'annonce</text><text fill="#000000" font-family="sans-serif" font-size="12" lengthAdjust="spacing" textLength="213" x="107" y="195.3809">(titre, description, prix unitaire, quantit&#233;,</text><text fill="#000000" font-family="sans-serif" font-size="12" lengthAdjust="spacing" textLength="232" x="107" y="210.4746">image_1 obligatoire, image_2 optionnelle,</text><text fill="#000000" font-family="sans-serif" font-size="12" lengthAdjust="spacing" textLength="199" x="107" y="225.5684">+ champs sp&#233;cifiques selon le r&#244;le :</text><text fill="#000000" font-family="sans-serif" font-size="12" lengthAdjust="spacing" textLength="283" x="107" y="240.6621">poids/mois si animal, unit&#233; de mesure si provende)</text><rect fill="#F1F1F1" height="50.1875" rx="12.5" ry="12.5" style="stroke:#181818;stroke-width:0.5;" width="260" x="118.5" y="273.2988"/><text fill="#000000" font-family="sans-serif" font-size="12" lengthAdjust="spacing" textLength="240" x="128.5" y="295.7559">D&#233;finir, si souhait&#233;, un bar&#232;me de r&#233;duction</text><text fill="#000000" font-family="sans-serif" font-size="12" lengthAdjust="spacing" textLength="126" x="128.5" y="310.8496">par tranche de quantit&#233;</text><line style="stroke:#000000;stroke-width:1.5;" x1="15" x2="15" y1="12.4551" y2="1140.623"/><rect fill="#F1F1F1" height="35.0938" rx="12.5" ry="12.5" style="stroke:#181818;stroke-width:0.5;" width="245" x="559.25" y="343.4863"/><text fill="#000000" font-family="sans-serif" font-size="12" lengthAdjust="spacing" textLength="225" x="569.25" y="365.9434">Contr&#244;ler la validit&#233; des donn&#233;es saisies</text><rect fill="#F1F1F1" height="50.1875" rx="12.5" ry="12.5" style="stroke:#181818;stroke-width:0.5;" width="245" x="559.25" y="447.498"/><text fill="#000000" font-family="sans-serif" font-size="12" lengthAdjust="spacing" textLength="225" x="569.25" y="469.9551">D&#233;duire type_annonce du r&#244;le de l'auteur</text><text fill="#000000" font-family="sans-serif" font-size="12" lengthAdjust="spacing" textLength="176" x="569.25" y="485.0488">(animal / provende / accessoire)</text><rect fill="#F1F1F1" height="35.0938" rx="12.5" ry="12.5" style="stroke:#181818;stroke-width:0.5;" width="249" x="557.25" y="517.6855"/><text fill="#000000" font-family="sans-serif" font-size="12" lengthAdjust="spacing" textLength="229" x="567.25" y="540.1426">Enregistrer l'annonce (statut = en_attente)</text><rect fill="#F1F1F1" height="35.0938" rx="12.5" ry="12.5" style="stroke:#181818;stroke-width:0.5;" width="147" x="608.25" y="572.7793"/><text fill="#000000" font-family="sans-serif" font-size="12" lengthAdjust="spacing" textLength="127" x="618.25" y="595.2363">Notifier l'administrateur</text><polygon fill="#F1F1F1" points="637.25,398.5801,726.25,398.5801,738.25,410.5801,726.25,422.5801,637.25,422.5801,625.25,410.5801,637.25,398.5801" style="stroke:#181818;stroke-width:0.5;"/><text fill="#000000" font-family="sans-serif" font-size="11" lengthAdjust="spacing" textLength="14" x="685.75" y="433.999">oui</text><text fill="#000000" font-family="sans-serif" font-size="11" lengthAdjust="spacing" textLength="89" x="637.25" y="415.0811">Donn&#233;es valides ?</text><text fill="#000000" font-family="sans-serif" font-size="11" lengthAdjust="spacing" textLength="18" x="738.25" y="408.1631">non</text><polygon fill="#F1F1F1" points="681.75,627.873,693.75,639.873,681.75,651.873,669.75,639.873,681.75,627.873" style="stroke:#181818;stroke-width:0.5;"/><text fill="#000000" font-family="sans-serif" font-size="11" lengthAdjust="spacing" textLength="150" x="693.75" y="637.4561">Remplir le formulaire d'annonce</text><rect fill="#F1F1F1" height="50.1875" rx="12.5" ry="12.5" style="stroke:#181818;stroke-width:0.5;" width="196" x="486" y="826.0605"/><text fill="#000000" font-family="sans-serif" font-size="12" lengthAdjust="spacing" textLength="162" x="496" y="848.5176">Mettre &#224; jour le statut (rejetee)</text><text fill="#000000" font-family="sans-serif" font-size="12" lengthAdjust="spacing" textLength="176" x="496" y="863.6113">et notifier le fournisseur du motif</text><ellipse cx="584" cy="907.248" fill="none" rx="11" ry="11" style="stroke:#222222;stroke-width:1.0;"/><ellipse cx="584" cy="907.248" fill="#222222" rx="6" ry="6" style="stroke:#111111;stroke-width:1.0;"/><rect fill="#F1F1F1" height="35.0938" rx="12.5" ry="12.5" style="stroke:#181818;stroke-width:0.5;" width="131" x="714" y="770.9668"/><text fill="#000000" font-family="sans-serif" font-size="12" lengthAdjust="spacing" textLength="111" x="724" y="793.4238">Approuver l'annonce</text><rect fill="#F1F1F1" height="50.1875" rx="12.5" ry="12.5" style="stroke:#181818;stroke-width:0.5;" width="179" x="592.25" y="938.248"/><text fill="#000000" font-family="sans-serif" font-size="12" lengthAdjust="spacing" textLength="159" x="602.25" y="960.7051">Mettre &#224; jour le statut (visible)</text><text fill="#000000" font-family="sans-serif" font-size="12" lengthAdjust="spacing" textLength="129" x="602.25" y="975.7988">et notifier le fournisseur</text><rect fill="#F1F1F1" height="35.0938" rx="12.5" ry="12.5" style="stroke:#181818;stroke-width:0.5;" width="252" x="555.75" y="1008.4355"/><text fill="#000000" font-family="sans-serif" font-size="12" lengthAdjust="spacing" textLength="232" x="565.75" y="1030.8926">Publier l'annonce dans le catalogue public</text><line style="stroke:#000000;stroke-width:1.5;" x1="480" x2="480" y1="12.4551" y2="1140.623"/><rect fill="#F1F1F1" height="35.0938" rx="12.5" ry="12.5" style="stroke:#181818;stroke-width:0.5;" width="231" x="855" y="1063.5293"/><text fill="#000000" font-family="sans-serif" font-size="12" lengthAdjust="spacing" textLength="211" x="865" y="1085.9863">Consulter l'annonce d&#233;sormais visible</text><ellipse cx="970.5" cy="1129.623" fill="none" rx="11" ry="11" style="stroke:#222222;stroke-width:1.0;"/><ellipse cx="970.5" cy="1129.623" fill="#222222" rx="6" ry="6" style="stroke:#111111;stroke-width:1.0;"/><line style="stroke:#000000;stroke-width:1.5;" x1="849" x2="849" y1="12.4551" y2="1140.623"/><rect fill="#F1F1F1" height="35.0938" rx="12.5" ry="12.5" style="stroke:#181818;stroke-width:0.5;" width="185" x="1211.25" y="671.873"/><text fill="#000000" font-family="sans-serif" font-size="12" lengthAdjust="spacing" textLength="165" x="1221.25" y="694.3301">Examiner l'annonce en attente</text><polygon fill="#F1F1F1" points="1252.75,726.9668,1354.75,726.9668,1366.75,738.9668,1354.75,750.9668,1252.75,750.9668,1240.75,738.9668,1252.75,726.9668" style="stroke:#181818;stroke-width:0.5;"/><text fill="#000000" font-family="sans-serif" font-size="11" lengthAdjust="spacing" textLength="102" x="1252.75" y="743.4678">Annonce conforme ?</text><text fill="#000000" font-family="sans-serif" font-size="11" lengthAdjust="spacing" textLength="18" x="1222.75" y="736.5498">non</text><text fill="#000000" font-family="sans-serif" font-size="11" lengthAdjust="spacing" textLength="14" x="1366.75" y="736.5498">oui</text><rect fill="#F1F1F1" height="35.0938" rx="12.5" ry="12.5" style="stroke:#181818;stroke-width:0.5;" width="220" x="1096" y="770.9668"/><text fill="#000000" font-family="sans-serif" font-size="12" lengthAdjust="spacing" textLength="200" x="1106" y="793.4238">Rejeter l'annonce et pr&#233;ciser le motif</text><line style="stroke:#000000;stroke-width:1.5;" x1="1090" x2="1090" y1="12.4551" y2="1140.623"/><line style="stroke:#000000;stroke-width:1.5;" x1="1400.25" x2="1400.25" y1="12.4551" y2="1140.623"/><line style="stroke:#181818;stroke-width:1.0;" x1="248.5" x2="248.5" y1="82.7363" y2="102.7363"/><polygon fill="#181818" points="244.5,92.7363,248.5,102.7363,252.5,92.7363,248.5,96.7363" style="stroke:#181818;stroke-width:1.0;"/><line style="stroke:#181818;stroke-width:1.0;" x1="248.5" x2="248.5" y1="137.8301" y2="157.8301"/><polygon fill="#181818" points="244.5,147.8301,248.5,157.8301,252.5,147.8301,248.5,151.8301" style="stroke:#181818;stroke-width:1.0;"/><line style="stroke:#181818;stroke-width:1.0;" x1="248.5" x2="248.5" y1="253.2988" y2="273.2988"/><polygon fill="#181818" points="244.5,263.2988,248.5,273.2988,252.5,263.2988,248.5,267.2988" style="stroke:#181818;stroke-width:1.0;"/><line style="stroke:#181818;stroke-width:1.0;" x1="681.75" x2="681.75" y1="497.6855" y2="517.6855"/><polygon fill="#181818" points="677.75,507.6855,681.75,517.6855,685.75,507.6855,681.75,511.6855" style="stroke:#181818;stroke-width:1.0;"/><line style="stroke:#181818;stroke-width:1.0;" x1="681.75" x2="681.75" y1="552.7793" y2="572.7793"/><polygon fill="#181818" points="677.75,562.7793,681.75,572.7793,685.75,562.7793,681.75,566.7793" style="stroke:#181818;stroke-width:1.0;"/><line style="stroke:#181818;stroke-width:1.0;" x1="681.75" x2="681.75" y1="422.5801" y2="447.498"/><polygon fill="#181818" points="677.75,437.498,681.75,447.498,685.75,437.498,681.75,441.498" style="stroke:#181818;stroke-width:1.0;"/><line style="stroke:#181818;stroke-width:1.0;" x1="738.25" x2="816.25" y1="410.5801" y2="410.5801"/><polygon fill="#181818" points="812.25,517.6855,816.25,527.6855,820.25,517.6855,816.25,521.6855" style="stroke:#181818;stroke-width:1.0;"/><line style="stroke:#181818;stroke-width:1.0;" x1="816.25" x2="816.25" y1="410.5801" y2="639.873"/><line style="stroke:#181818;stroke-width:1.0;" x1="816.25" x2="693.75" y1="639.873" y2="639.873"/><polygon fill="#181818" points="703.75,635.873,693.75,639.873,703.75,643.873,699.75,639.873" style="stroke:#181818;stroke-width:1.0;"/><line style="stroke:#181818;stroke-width:1.0;" x1="681.75" x2="681.75" y1="607.873" y2="627.873"/><polygon fill="#181818" points="677.75,617.873,681.75,627.873,685.75,617.873,681.75,621.873" style="stroke:#181818;stroke-width:1.0;"/><line style="stroke:#181818;stroke-width:1.0;" x1="681.75" x2="681.75" y1="378.5801" y2="398.5801"/><polygon fill="#181818" points="677.75,388.5801,681.75,398.5801,685.75,388.5801,681.75,392.5801" style="stroke:#181818;stroke-width:1.0;"/><line style="stroke:#181818;stroke-width:1.0;" x1="584" x2="584" y1="876.248" y2="896.248"/><polygon fill="#181818" points="580,886.248,584,896.248,588,886.248,584,890.248" style="stroke:#181818;stroke-width:1.0;"/><line style="stroke:#181818;stroke-width:1.0;" x1="681.75" x2="681.75" y1="988.4355" y2="1008.4355"/><polygon fill="#181818" points="677.75,998.4355,681.75,1008.4355,685.75,998.4355,681.75,1002.4355" style="stroke:#181818;stroke-width:1.0;"/><line style="stroke:#181818;stroke-width:1.0;" x1="970.5" x2="970.5" y1="1098.623" y2="1118.623"/><polygon fill="#181818" points="966.5,1108.623,970.5,1118.623,974.5,1108.623,970.5,1112.623" style="stroke:#181818;stroke-width:1.0;"/><line style="stroke:#181818;stroke-width:1.0;" x1="1240.75" x2="1206" y1="738.9668" y2="738.9668"/><line style="stroke:#181818;stroke-width:1.0;" x1="1206" x2="1206" y1="738.9668" y2="770.9668"/><polygon fill="#181818" points="1202,760.9668,1206,770.9668,1210,760.9668,1206,764.9668" style="stroke:#181818;stroke-width:1.0;"/><line style="stroke:#181818;stroke-width:1.0;" x1="1303.75" x2="1303.75" y1="706.9668" y2="726.9668"/><polygon fill="#181818" points="1299.75,716.9668,1303.75,726.9668,1307.75,716.9668,1303.75,720.9668" style="stroke:#181818;stroke-width:1.0;"/><line style="stroke:#181818;stroke-width:1.0;" x1="248.5" x2="248.5" y1="323.4863" y2="328.4863"/><line style="stroke:#181818;stroke-width:1.0;" x1="248.5" x2="681.75" y1="328.4863" y2="328.4863"/><line style="stroke:#181818;stroke-width:1.0;" x1="681.75" x2="681.75" y1="328.4863" y2="343.4863"/><polygon fill="#181818" points="677.75,333.4863,681.75,343.4863,685.75,333.4863,681.75,337.4863" style="stroke:#181818;stroke-width:1.0;"/><line style="stroke:#181818;stroke-width:1.0;" x1="681.75" x2="681.75" y1="651.873" y2="656.873"/><line style="stroke:#181818;stroke-width:1.0;" x1="681.75" x2="1303.75" y1="656.873" y2="656.873"/><line style="stroke:#181818;stroke-width:1.0;" x1="1303.75" x2="1303.75" y1="656.873" y2="671.873"/><polygon fill="#181818" points="1299.75,661.873,1303.75,671.873,1307.75,661.873,1303.75,665.873" style="stroke:#181818;stroke-width:1.0;"/><line style="stroke:#181818;stroke-width:1.0;" x1="1206" x2="1206" y1="806.0605" y2="811.0605"/><line style="stroke:#181818;stroke-width:1.0;" x1="1206" x2="584" y1="811.0605" y2="811.0605"/><line style="stroke:#181818;stroke-width:1.0;" x1="584" x2="584" y1="811.0605" y2="826.0605"/><polygon fill="#181818" points="580,816.0605,584,826.0605,588,816.0605,584,820.0605" style="stroke:#181818;stroke-width:1.0;"/><line style="stroke:#181818;stroke-width:1.0;" x1="1366.75" x2="1378.75" y1="738.9668" y2="738.9668"/><line style="stroke:#181818;stroke-width:1.0;" x1="1378.75" x2="1378.75" y1="738.9668" y2="756.9668"/><line style="stroke:#181818;stroke-width:1.0;" x1="1378.75" x2="779.5" y1="756.9668" y2="756.9668"/><line style="stroke:#181818;stroke-width:1.0;" x1="779.5" x2="779.5" y1="756.9668" y2="770.9668"/><polygon fill="#181818" points="775.5,760.9668,779.5,770.9668,783.5,760.9668,779.5,764.9668" style="stroke:#181818;stroke-width:1.0;"/><line style="stroke:#181818;stroke-width:1.0;" x1="779.5" x2="779.5" y1="806.0605" y2="923.248"/><line style="stroke:#181818;stroke-width:1.0;" x1="779.5" x2="681.75" y1="923.248" y2="923.248"/><line style="stroke:#181818;stroke-width:1.0;" x1="681.75" x2="681.75" y1="923.248" y2="938.248"/><polygon fill="#181818" points="677.75,928.248,681.75,938.248,685.75,928.248,681.75,932.248" style="stroke:#181818;stroke-width:1.0;"/><line style="stroke:#181818;stroke-width:1.0;" x1="681.75" x2="681.75" y1="1043.5293" y2="1048.5293"/><line style="stroke:#181818;stroke-width:1.0;" x1="681.75" x2="970.5" y1="1048.5293" y2="1048.5293"/><line style="stroke:#181818;stroke-width:1.0;" x1="970.5" x2="970.5" y1="1048.5293" y2="1063.5293"/><polygon fill="#181818" points="966.5,1053.5293,970.5,1063.5293,974.5,1053.5293,970.5,1057.5293" style="stroke:#181818;stroke-width:1.0;"/><text fill="#000000" font-family="sans-serif" font-size="18" lengthAdjust="spacing" textLength="95" x="20" y="31.1406">Fournisseur</text><text fill="#000000" font-family="sans-serif" font-size="18" lengthAdjust="spacing" textLength="455" x="20" y="53.7813">(&#201;leveur / Vendeur de provende / Vendeur d'accessoires)</text><text fill="#000000" font-family="sans-serif" font-size="18" lengthAdjust="spacing" textLength="176" x="576.5" y="31.1406">Syst&#232;me ElevConnect</text><text fill="#000000" font-family="sans-serif" font-size="18" lengthAdjust="spacing" textLength="95" x="922" y="31.1406">Fournisseur</text><text fill="#000000" font-family="sans-serif" font-size="18" lengthAdjust="spacing" textLength="114" x="1188.125" y="31.1406">Administrateur</text><!--SRC=[XLJDZjCm4BxxAUQsgGXQmR4Lh2gst428bJWXLMuyRRroxAmzhdQbl01lmP7SUOEy63DfjZI2mgMrv_URRpwdVHzoz3ObpF6hB_fl3WzyX6luWjx8oI0qCHpaTcwzqbM5AGKRCSrQbKX7KlCxX2fuZnLXXFuxE0sDquJR46jSgFbdh1jd8pW4CMMdEL-AUHzyXQeWIn5BRfggQ1komPVStZv2zfOak8I7h3s7zLsfRArtk7u5OUFiJbCO_4VZQmX3kaVdi5GleDhhkacGchwhxDO-PEGBkk05JEn_ykzSDS6QT5q7opuBsdCjLmwz-qwOg35b1io-PqvcFDLjtssjjx4KHmfvhmTud0SR7ViVDKfkx3kJAy6a6Xs1elRLVl2S9bgezkufqP2nuasyEtBPgZcVQ00PXTE3TjQCc18OZkex6KVRP34jbDr2SVji7OBv_sO6j4SF1LCzKm3jsUfRlhzy2_zPpqAXImX5o7Oey7Ui04A8oP9AJmsknsmmUUIPHtPNEXCtvkZYI3EBwqndlzN517F5bO-uiud54ILth5Ymx2WJl07qQqs4diRuZu5uoSTWK_DoE5LBGvx16xjLxN9YPefNZveja_hCrbZroEbojBF61qN_mIaB_1vfMeDuBj5Sme7OMf0j_adV1oGULDxFFQz8aiOvYpYKHsd5TVrfIDdNQPb2zAbBej1CrpPVDanqFfoZFB5oGNwN4HrOSXl7Y2xZuHVoAVCBdT1Yj4yILsdIBkmoVsKafk8dCD6bA3zbD-NKz5rY_bdkCFPVA1dq5m00]--></g></svg>