<?xml version="1.0" encoding="us-ascii" standalone="no"?><svg xmlns="http://www.w3.org/2000/svg" xmlns:xlink="http://www.w3.org/1999/xlink" contentStyleType="text/css" height="992px" preserveAspectRatio="none" style="width:991px;height:992px;background:#FFFFFF;" version="1.1" viewBox="0 0 991 992" width="991px" zoomAndPan="magnify"><defs/><g><rect fill="none" height="22.6406" style="stroke:none;stroke-width:1.0;" width="958.5" x="15" y="12.4551"/><ellipse cx="180" cy="50.0957" fill="#222222" rx="10" ry="10" style="stroke:#222222;stroke-width:1.0;"/><rect fill="#F1F1F1" height="50.1875" rx="12.5" ry="12.5" style="stroke:#181818;stroke-width:0.5;" width="172" x="94" y="80.0957"/><text fill="#000000" font-family="sans-serif" font-size="12" lengthAdjust="spacing" textLength="141" x="104" y="102.5527">Rechercher un v&#233;t&#233;rinaire</text><text fill="#000000" font-family="sans-serif" font-size="12" lengthAdjust="spacing" textLength="152" x="104" y="117.6465">(&#233;toiles et certificat affich&#233;s)</text><rect fill="#F1F1F1" height="50.1875" rx="12.5" ry="12.5" style="stroke:#181818;stroke-width:0.5;" width="242" x="59" y="150.2832"/><text fill="#000000" font-family="sans-serif" font-size="12" lengthAdjust="spacing" textLength="222" x="69" y="172.7402">Consulter les services et tarifs propos&#233;s</text><text fill="#000000" font-family="sans-serif" font-size="12" lengthAdjust="spacing" textLength="161" x="69" y="187.834">(SERVICES_VETERINAIRES)</text><rect fill="#F1F1F1" height="35.0938" rx="12.5" ry="12.5" style="stroke:#181818;stroke-width:0.5;" width="248" x="56" y="220.4707"/><text fill="#000000" font-family="sans-serif" font-size="12" lengthAdjust="spacing" textLength="228" x="66" y="242.9277">Choisir un service et un cr&#233;neau souhait&#233;</text><rect fill="#F1F1F1" height="35.0938" rx="12.5" ry="12.5" style="stroke:#181818;stroke-width:0.5;" width="217" x="71.5" y="630.127"/><text fill="#000000" font-family="sans-serif" font-size="12" lengthAdjust="spacing" textLength="197" x="81.5" y="652.584">Consulter le r&#233;sultat de la demande</text><rect fill="#F1F1F1" height="50.1875" rx="12.5" ry="12.5" style="stroke:#181818;stroke-width:0.5;" width="256" x="52" y="734.1387"/><text fill="#000000" font-family="sans-serif" font-size="12" lengthAdjust="spacing" textLength="189" x="62" y="756.5957">Se rendre au rendez-vous et r&#233;gler</text><text fill="#000000" font-family="sans-serif" font-size="12" lengthAdjust="spacing" textLength="236" x="62" y="771.6895">directement le v&#233;t&#233;rinaire (hors plateforme)</text><rect fill="#F1F1F1" height="35.0938" rx="12.5" ry="12.5" style="stroke:#181818;stroke-width:0.5;" width="272" x="44" y="859.4199"/><text fill="#000000" font-family="sans-serif" font-size="12" lengthAdjust="spacing" textLength="252" x="54" y="881.877">Laisser une note et un avis sur le rendez-vous</text><polygon fill="#F1F1F1" points="120.5,685.2207,239.5,685.2207,251.5,697.2207,239.5,709.2207,120.5,709.2207,108.5,697.2207,120.5,685.2207" style="stroke:#181818;stroke-width:0.5;"/><text fill="#000000" font-family="sans-serif" font-size="11" lengthAdjust="spacing" textLength="14" x="184" y="720.6396">oui</text><text fill="#000000" font-family="sans-serif" font-size="11" lengthAdjust="spacing" textLength="119" x="120.5" y="701.7217">Rendez-vous confirm&#233; ?</text><text fill="#000000" font-family="sans-serif" font-size="11" lengthAdjust="spacing" textLength="18" x="90.5" y="694.8037">non</text><polygon fill="#F1F1F1" points="180,914.5137,192,926.5137,180,938.5137,168,926.5137,180,914.5137" style="stroke:#181818;stroke-width:0.5;"/><ellipse cx="180" cy="969.5137" fill="none" rx="11" ry="11" style="stroke:#222222;stroke-width:1.0;"/><ellipse cx="180" cy="969.5137" fill="#222222" rx="6" ry="6" style="stroke:#111111;stroke-width:1.0;"/><line style="stroke:#000000;stroke-width:1.5;" x1="15" x2="15" y1="12.4551" y2="980.5137"/><rect fill="#F1F1F1" height="35.0938" rx="12.5" ry="12.5" style="stroke:#181818;stroke-width:0.5;" width="307" x="326" y="275.5645"/><text fill="#000000" font-family="sans-serif" font-size="12" lengthAdjust="spacing" textLength="287" x="336" y="298.0215">Enregistrer la demande de RDV (statut = en_attente)</text><rect fill="#F1F1F1" height="35.0938" rx="12.5" ry="12.5" style="stroke:#181818;stroke-width:0.5;" width="132" x="413.5" y="330.6582"/><text fill="#000000" font-family="sans-serif" font-size="12" lengthAdjust="spacing" textLength="112" x="423.5" y="353.1152">Notifier le v&#233;t&#233;rinaire</text><rect fill="#F1F1F1" height="50.1875" rx="12.5" ry="12.5" style="stroke:#181818;stroke-width:0.5;" width="281" x="339" y="559.9395"/><text fill="#000000" font-family="sans-serif" font-size="12" lengthAdjust="spacing" textLength="261" x="349" y="582.3965">Mettre &#224; jour le statut du RDV (confirme / refuse)</text><text fill="#000000" font-family="sans-serif" font-size="12" lengthAdjust="spacing" textLength="98" x="349" y="597.4902">et notifier l'&#233;leveur</text><line style="stroke:#000000;stroke-width:1.5;" x1="320" x2="320" y1="12.4551" y2="980.5137"/><rect fill="#F1F1F1" height="35.0938" rx="12.5" ry="12.5" style="stroke:#181818;stroke-width:0.5;" width="230" x="693.25" y="385.752"/><text fill="#000000" font-family="sans-serif" font-size="12" lengthAdjust="spacing" textLength="210" x="703.25" y="408.209">Consulter la demande de rendez-vous</text><polygon fill="#F1F1F1" points="757.75,440.8457,858.75,440.8457,870.75,452.8457,858.75,464.8457,757.75,464.8457,745.75,452.8457,757.75,440.8457" style="stroke:#181818;stroke-width:0.5;"/><text fill="#000000" font-family="sans-serif" font-size="11" lengthAdjust="spacing" textLength="101" x="757.75" y="457.3467">Cr&#233;neau disponible ?</text><text fill="#000000" font-family="sans-serif" font-size="11" lengthAdjust="spacing" textLength="14" x="731.75" y="450.4287">oui</text><text fill="#000000" font-family="sans-serif" font-size="11" lengthAdjust="spacing" textLength="18" x="870.75" y="450.4287">non</text><rect fill="#F1F1F1" height="35.0938" rx="12.5" ry="12.5" style="stroke:#181818;stroke-width:0.5;" width="158" x="643" y="474.8457"/><text fill="#000000" font-family="sans-serif" font-size="12" lengthAdjust="spacing" textLength="138" x="653" y="497.3027">Confirmer le rendez-vous</text><rect fill="#F1F1F1" height="35.0938" rx="12.5" ry="12.5" style="stroke:#181818;stroke-width:0.5;" width="147" x="821" y="474.8457"/><text fill="#000000" font-family="sans-serif" font-size="12" lengthAdjust="spacing" textLength="127" x="831" y="497.3027">Refuser le rendez-vous</text><polygon fill="#F1F1F1" points="808.25,515.9395,820.25,527.9395,808.25,539.9395,796.25,527.9395,808.25,515.9395" style="stroke:#181818;stroke-width:0.5;"/><rect fill="#F1F1F1" height="35.0938" rx="12.5" ry="12.5" style="stroke:#181818;stroke-width:0.5;" width="234" x="691.25" y="804.3262"/><text fill="#000000" font-family="sans-serif" font-size="12" lengthAdjust="spacing" textLength="214" x="701.25" y="826.7832">Marquer le rendez-vous comme r&#233;alis&#233;</text><line style="stroke:#000000;stroke-width:1.5;" x1="637" x2="637" y1="12.4551" y2="980.5137"/><line style="stroke:#000000;stroke-width:1.5;" x1="972" x2="972" y1="12.4551" y2="980.5137"/><line style="stroke:#181818;stroke-width:1.0;" x1="180" x2="180" y1="60.0957" y2="80.0957"/><polygon fill="#181818" points="176,70.0957,180,80.0957,184,70.0957,180,74.0957" style="stroke:#181818;stroke-width:1.0;"/><line style="stroke:#181818;stroke-width:1.0;" x1="180" x2="180" y1="130.2832" y2="150.2832"/><polygon fill="#181818" points="176,140.2832,180,150.2832,184,140.2832,180,144.2832" style="stroke:#181818;stroke-width:1.0;"/><line style="stroke:#181818;stroke-width:1.0;" x1="180" x2="180" y1="200.4707" y2="220.4707"/><polygon fill="#181818" points="176,210.4707,180,220.4707,184,210.4707,180,214.4707" style="stroke:#181818;stroke-width:1.0;"/><line style="stroke:#181818;stroke-width:1.0;" x1="180" x2="180" y1="709.2207" y2="734.1387"/><polygon fill="#181818" points="176,724.1387,180,734.1387,184,724.1387,180,728.1387" style="stroke:#181818;stroke-width:1.0;"/><line style="stroke:#181818;stroke-width:1.0;" x1="108.5" x2="34" y1="697.2207" y2="697.2207"/><polygon fill="#181818" points="30,804.3262,34,814.3262,38,804.3262,34,808.3262" style="stroke:#181818;stroke-width:1.0;"/><line style="stroke:#181818;stroke-width:1.0;" x1="34" x2="34" y1="697.2207" y2="926.5137"/><line style="stroke:#181818;stroke-width:1.0;" x1="34" x2="168" y1="926.5137" y2="926.5137"/><polygon fill="#181818" points="158,922.5137,168,926.5137,158,930.5137,162,926.5137" style="stroke:#181818;stroke-width:1.0;"/><line style="stroke:#181818;stroke-width:1.0;" x1="180" x2="180" y1="894.5137" y2="914.5137"/><polygon fill="#181818" points="176,904.5137,180,914.5137,184,904.5137,180,908.5137" style="stroke:#181818;stroke-width:1.0;"/><line style="stroke:#181818;stroke-width:1.0;" x1="180" x2="180" y1="665.2207" y2="685.2207"/><polygon fill="#181818" points="176,675.2207,180,685.2207,184,675.2207,180,679.2207" style="stroke:#181818;stroke-width:1.0;"/><line style="stroke:#181818;stroke-width:1.0;" x1="180" x2="180" y1="938.5137" y2="958.5137"/><polygon fill="#181818" points="176,948.5137,180,958.5137,184,948.5137,180,952.5137" style="stroke:#181818;stroke-width:1.0;"/><line style="stroke:#181818;stroke-width:1.0;" x1="479.5" x2="479.5" y1="310.6582" y2="330.6582"/><polygon fill="#181818" points="475.5,320.6582,479.5,330.6582,483.5,320.6582,479.5,324.6582" style="stroke:#181818;stroke-width:1.0;"/><line style="stroke:#181818;stroke-width:1.0;" x1="745.75" x2="722" y1="452.8457" y2="452.8457"/><line style="stroke:#181818;stroke-width:1.0;" x1="722" x2="722" y1="452.8457" y2="474.8457"/><polygon fill="#181818" points="718,464.8457,722,474.8457,726,464.8457,722,468.8457" style="stroke:#181818;stroke-width:1.0;"/><line style="stroke:#181818;stroke-width:1.0;" x1="870.75" x2="894.5" y1="452.8457" y2="452.8457"/><line style="stroke:#181818;stroke-width:1.0;" x1="894.5" x2="894.5" y1="452.8457" y2="474.8457"/><polygon fill="#181818" points="890.5,464.8457,894.5,474.8457,898.5,464.8457,894.5,468.8457" style="stroke:#181818;stroke-width:1.0;"/><line style="stroke:#181818;stroke-width:1.0;" x1="722" x2="722" y1="509.9395" y2="527.9395"/><line style="stroke:#181818;stroke-width:1.0;" x1="722" x2="796.25" y1="527.9395" y2="527.9395"/><polygon fill="#181818" points="786.25,523.9395,796.25,527.9395,786.25,531.9395,790.25,527.9395" style="stroke:#181818;stroke-width:1.0;"/><line style="stroke:#181818;stroke-width:1.0;" x1="894.5" x2="894.5" y1="509.9395" y2="527.9395"/><line style="stroke:#181818;stroke-width:1.0;" x1="894.5" x2="820.25" y1="527.9395" y2="527.9395"/><polygon fill="#181818" points="830.25,523.9395,820.25,527.9395,830.25,531.9395,826.25,527.9395" style="stroke:#181818;stroke-width:1.0;"/><line style="stroke:#181818;stroke-width:1.0;" x1="808.25" x2="808.25" y1="420.8457" y2="440.8457"/><polygon fill="#181818" points="804.25,430.8457,808.25,440.8457,812.25,430.8457,808.25,434.8457" style="stroke:#181818;stroke-width:1.0;"/><line style="stroke:#181818;stroke-width:1.0;" x1="180" x2="180" y1="255.5645" y2="260.5645"/><line style="stroke:#181818;stroke-width:1.0;" x1="180" x2="479.5" y1="260.5645" y2="260.5645"/><line style="stroke:#181818;stroke-width:1.0;" x1="479.5" x2="479.5" y1="260.5645" y2="275.5645"/><polygon fill="#181818" points="475.5,265.5645,479.5,275.5645,483.5,265.5645,479.5,269.5645" style="stroke:#181818;stroke-width:1.0;"/><line style="stroke:#181818;stroke-width:1.0;" x1="479.5" x2="479.5" y1="365.752" y2="370.752"/><line style="stroke:#181818;stroke-width:1.0;" x1="479.5" x2="808.25" y1="370.752" y2="370.752"/><line style="stroke:#181818;stroke-width:1.0;" x1="808.25" x2="808.25" y1="370.752" y2="385.752"/><polygon fill="#181818" points="804.25,375.752,808.25,385.752,812.25,375.752,808.25,379.752" style="stroke:#181818;stroke-width:1.0;"/><line style="stroke:#181818;stroke-width:1.0;" x1="808.25" x2="808.25" y1="539.9395" y2="544.9395"/><line style="stroke:#181818;stroke-width:1.0;" x1="808.25" x2="479.5" y1="544.9395" y2="544.9395"/><line style="stroke:#181818;stroke-width:1.0;" x1="479.5" x2="479.5" y1="544.9395" y2="559.9395"/><polygon fill="#181818" points="475.5,549.9395,479.5,559.9395,483.5,549.9395,479.5,553.9395" style="stroke:#181818;stroke-width:1.0;"/><line style="stroke:#181818;stroke-width:1.0;" x1="479.5" x2="479.5" y1="610.127" y2="615.127"/><line style="stroke:#181818;stroke-width:1.0;" x1="479.5" x2="180" y1="615.127" y2="615.127"/><line style="stroke:#181818;stroke-width:1.0;" x1="180" x2="180" y1="615.127" y2="630.127"/><polygon fill="#181818" points="176,620.127,180,630.127,184,620.127,180,624.127" style="stroke:#181818;stroke-width:1.0;"/><line style="stroke:#181818;stroke-width:1.0;" x1="180" x2="180" y1="784.3262" y2="789.3262"/><line style="stroke:#181818;stroke-width:1.0;" x1="180" x2="808.25" y1="789.3262" y2="789.3262"/><line style="stroke:#181818;stroke-width:1.0;" x1="808.25" x2="808.25" y1="789.3262" y2="804.3262"/><polygon fill="#181818" points="804.25,794.3262,808.25,804.3262,812.25,794.3262,808.25,798.3262" style="stroke:#181818;stroke-width:1.0;"/><line style="stroke:#181818;stroke-width:1.0;" x1="808.25" x2="808.25" y1="839.4199" y2="844.4199"/><line style="stroke:#181818;stroke-width:1.0;" x1="808.25" x2="180" y1="844.4199" y2="844.4199"/><line style="stroke:#181818;stroke-width:1.0;" x1="180" x2="180" y1="844.4199" y2="859.4199"/><polygon fill="#181818" points="176,849.4199,180,859.4199,184,849.4199,180,853.4199" style="stroke:#181818;stroke-width:1.0;"/><text fill="#000000" font-family="sans-serif" font-size="18" lengthAdjust="spacing" textLength="61" x="137" y="31.1406">&#201;leveur</text><text fill="#000000" font-family="sans-serif" font-size="18" lengthAdjust="spacing" textLength="176" x="390.5" y="31.1406">Syst&#232;me ElevConnect</text><text fill="#000000" font-family="sans-serif" font-size="18" lengthAdjust="spacing" textLength="86" x="761.5" y="31.1406">V&#233;t&#233;rinaire</text><!--SRC=[VLFDZjD03BxFK_X6Ua3SMo64IWwLs3qagDVLa3WResIcZ3sHG7a1te8ZUOwy69waIxTRu10bbkplpyuu_-Xmm1X6msA3c6s1LOiXFH0T3FCaynJ8MGfeCgqyTSY00XK6eOOgAs0RVRVpn9kTsUwzuzY9pgT6nZ1GjKue0JKCf-1FdhNRP6LU70_xl7muvf_oud3__b3avGBIUc9Q99mH4e1MLPWdXpO2-zXQKd4xCvRVMEPVFKAkPfJVOIMZsUOku2EnXAJ5GeszTJNg6ueFHyZKi4I1ju3kmOgW4qpKzpxPMkHVsrUYu_DwlF9wXHzGFxw_7dpadQ46ilsJx9huv1rzLl1t6v0M7MG-qiO09BI6GhzINq5WnmYPysxfAx29_BSkLrFpppJkK3G9c7_25n-NuNC0TLppgCxqy4PX4yF6QERkJnolvccz5GtYSZPN-mQrcGgz2KtXaiaQGd4H2sUoURgDeLnjgLRDwvd1T06A_zXXqBPQDr09zhgscqr1rlgWXzPPmSQh9TqhmCljATMT3L_ZJP8ghkyNBxOZJXUcmnV7ElVH4lFoXs0AwEauxK1wyV6_-rkNnE9Flm40]--></g></svg>