<?xml version="1.0" encoding="us-ascii" standalone="no"?><svg xmlns="http://www.w3.org/2000/svg" xmlns:xlink="http://www.w3.org/1999/xlink" contentStyleType="text/css" height="750px" preserveAspectRatio="none" style="width:1218px;height:750px;background:#FFFFFF;" version="1.1" viewBox="0 0 1218 750" width="1218.75px" zoomAndPan="magnify"><defs/><g><text fill="#17324D" font-family="sans-serif" font-size="37.5" font-weight="bold" lengthAdjust="spacing" textLength="661.875" x="265.3125" y="57.6782">Architecture simplifi&#233;e d'ElevConnect</text><!--entity CLIENT--><g id="elem_CLIENT"><rect fill="#EAF4F8" height="136.5527" rx="11.25" ry="11.25" style="stroke:#181818;stroke-width:0.9375;" width="371.25" x="185.625" y="99.668"/><text fill="#000000" font-family="sans-serif" font-size="26.25" font-weight="bold" lengthAdjust="spacing" textLength="168.75" x="204.375" y="145.6677">Pr&#233;sentation</text><text fill="#000000" font-family="sans-serif" font-size="26.25" lengthAdjust="spacing" textLength="181.875" x="204.375" y="178.6853">Navigateur web</text><text fill="#000000" font-family="sans-serif" font-size="26.25" lengthAdjust="spacing" textLength="333.75" x="204.375" y="211.7029">Blade &#183; Tailwind &#183; JavaScript</text></g><!--entity APP--><g id="elem_APP"><rect fill="#EAF4EA" height="136.5527" rx="11.25" ry="11.25" style="stroke:#181818;stroke-width:0.9375;" width="540" x="101.25" y="349.043"/><text fill="#000000" font-family="sans-serif" font-size="26.25" font-weight="bold" lengthAdjust="spacing" textLength="322.5" x="120" y="395.0427">Application ElevConnect</text><text fill="#000000" font-family="sans-serif" font-size="26.25" lengthAdjust="spacing" textLength="502.5" x="120" y="428.0603">Laravel : routes, contr&#244;leurs, r&#232;gles m&#233;tier</text><text fill="#000000" font-family="sans-serif" font-size="26.25" lengthAdjust="spacing" textLength="418.125" x="120" y="461.0779">Notifications &#183; QR code &#183; paiements</text></g><!--entity DB--><g id="elem_DB"><path d="M117.1875,618.1055 C117.1875,599.3555 195,599.3555 195,599.3555 C195,599.3555 272.8125,599.3555 272.8125,618.1055 L272.8125,701.0156 C272.8125,719.7656 195,719.7656 195,719.7656 C195,719.7656 117.1875,719.7656 117.1875,701.0156 L117.1875,618.1055 " fill="#FFF8E8" style="stroke:#181818;stroke-width:0.9375;"/><path d="M117.1875,618.1055 C117.1875,636.8555 195,636.8555 195,636.8555 C195,636.8555 272.8125,636.8555 272.8125,618.1055 " fill="none" style="stroke:#181818;stroke-width:0.9375;"/><text fill="#000000" font-family="sans-serif" font-size="26.25" font-weight="bold" lengthAdjust="spacing" textLength="118.125" x="135.9375" y="671.6052">Donn&#233;es</text><text fill="#000000" font-family="sans-serif" font-size="26.25" lengthAdjust="spacing" textLength="86.25" x="135.9375" y="704.6228">MySQL</text></g><!--entity PAYMENT--><g id="elem_PAYMENT"><path d="M358.7543,614.8464 C363.6384,602.7758 374.2232,599.5219 382.7144,611.2084 C390.9895,596.6092 403.959,591.8699 415.2971,607.956 C424.0789,596.3796 432.9004,594.7804 442.3701,607.1791 C446.5148,594.1509 458.3519,594.3437 466.093,603.298 C471.1067,586.0513 485.8235,586.7939 496.3019,597.3631 C506.6747,585.42 515.2946,585.2676 524.632,598.527 C532.1287,583.2671 542.635,581.1467 553.5277,595.1766 C562.133,584.932 574.892,586.4821 580.1918,599.0416 C588.736,587.1682 599.7046,585.6424 608.5326,598.7193 C618.4858,585.908 626.2569,587.4576 633.6327,601.1594 C645.4097,590.3898 658.5866,592.1193 663.2534,608.8248 C673.7486,595.6577 682.0699,598.4437 689.5683,611.7982 C698.8403,596.3268 708.0759,599.0937 718.215,610.8873 C727.6603,599.6032 741.7748,601.2097 747.7005,615.0224 C772.8103,627.5073 769.8281,643.8319 752.2424,660.5739 C774.3227,678.3975 774.5347,696.6944 746.8473,708.9701 C739.4449,721.1937 728.3744,721.2307 720.1315,709.9243 C709.2611,725.1861 699.0466,722.8868 688.9926,709.0507 C681.3662,721.5159 671.1935,722.8435 661.2075,711.845 C655.028,725.3498 644.9826,725.0419 636.6675,713.9781 C629.0316,727.3799 616.2631,727.0292 609.5996,713.0179 C600.4267,730.0778 590.494,728.9893 579.0006,715.3292 C571.1932,728.8405 562.5289,729.9296 552.3048,717.8502 C540.6341,730.2788 530.2736,731.1177 522.4993,713.929 C513.6735,727.2297 503.8115,726.8212 495.8898,713.0406 C488.2833,726.1169 477.3835,725.5732 468.6539,714.2965 C458.7133,727.0514 449.8326,725.8598 442.1595,712.0361 C433.2131,726.6388 424.545,727.6086 414.12,713.4792 C402.6371,724.1163 393.6172,726.3486 385.5376,709.8892 C375.3639,722.2255 363.1816,722.9315 355.1845,707.5091 C327.491,700.4757 324.4656,684.1757 339.8617,662.4797 C323.6152,637.4216 326.3435,620.6056 358.7543,614.8464 " fill="#F5EEF9" style="stroke:#181818;stroke-width:0.9375;"/><text fill="#000000" font-family="sans-serif" font-size="26.25" font-weight="bold" lengthAdjust="spacing" textLength="241.875" x="367.5" y="653.7927">Services externes</text><text fill="#000000" font-family="sans-serif" font-size="26.25" lengthAdjust="spacing" textLength="363.75" x="367.5" y="686.8103">Mobile Money &#183; Carte bancaire</text></g><g id="elem_GMN9"><path d="M706.875,386.543 L706.875,410.918 L641.4938,418.418 L706.875,425.918 L706.875,448.8281 A11.25,11.25 0 0 0 718.125,460.0781 L1194.375,460.0781 A11.25,11.25 0 0 0 1205.625,448.8281 L1205.625,394.043 L1186.875,375.293 L718.125,375.293 A11.25,11.25 0 0 0 706.875,386.543 " fill="#FFF8E8" style="stroke:#E5AE45;stroke-width:0.9375;"/><path d="M1186.875,375.293 L1186.875,388.418 A5.625,5.625 0 0 0 1192.5,394.043 L1205.625,394.043 L1186.875,375.293 " fill="#FFF8E8" style="stroke:#E5AE45;stroke-width:0.9375;"/><text fill="#5B481E" font-family="sans-serif" font-size="26.25" lengthAdjust="spacing" textLength="440.625" x="718.125" y="411.9177">L'application orchestre les annonces,</text><text fill="#5B481E" font-family="sans-serif" font-size="26.25" lengthAdjust="spacing" textLength="459.375" x="718.125" y="444.9353">commandes, livraisons et rendez-vous.</text></g><!--link CLIENT to APP--><g id="link_CLIENT_APP"><path d="M371.25,236.8992 C371.25,236.8992 371.25,339.518 371.25,339.518 " fill="none" id="CLIENT-to-APP" style="stroke:#456A7D;stroke-width:2.625;"/><polygon fill="#456A7D" points="371.25,348.893,378.75,332.018,371.25,339.518,363.75,332.018,371.25,348.893" style="stroke:#456A7D;stroke-width:2.625;"/><text fill="#29485B" font-family="sans-serif" font-size="26.25" lengthAdjust="spacing" textLength="84.375" x="285" y="281.7177">HTTPS</text></g><!--link APP to DB--><g id="link_APP_DB"><path d="M195,486.143 C195,486.143 195,589.3805 195,589.3805 " fill="none" id="APP-to-DB" style="stroke:#456A7D;stroke-width:2.625;"/><polygon fill="#456A7D" points="195,598.7555,202.5,581.8805,195,589.3805,187.5,581.8805,195,598.7555" style="stroke:#456A7D;stroke-width:2.625;"/><text fill="#29485B" font-family="sans-serif" font-size="26.25" lengthAdjust="spacing" textLength="180" x="13.125" y="531.2615">Eloquent / SQL</text></g><!--link APP to PAYMENT--><g id="link_APP_PAYMENT"><path d="M490.3125,486.143 C490.3125,486.143 490.3125,588.5742 490.3125,588.5742 " fill="none" id="APP-to-PAYMENT" style="stroke:#456A7D;stroke-width:2.625;"/><polygon fill="#456A7D" points="490.3125,597.9492,497.8125,581.0742,490.3125,588.5742,482.8125,581.0742,490.3125,597.9492" style="stroke:#456A7D;stroke-width:2.625;"/><text fill="#29485B" font-family="sans-serif" font-size="26.25" lengthAdjust="spacing" textLength="176.25" x="312.1875" y="566.4927">encaissements</text><text fill="#29485B" font-family="sans-serif" font-size="26.25" lengthAdjust="spacing" textLength="166.875" x="316.875" y="599.5103">et versements</text></g><!--SRC=[ZLR1Rjj64BtpAmR9mO0HkvP4HP8F1IY9J5h8Wb8f0GhuiY97qiBaBhkxfAES-X7zW1xZUu3Ugp_fbsIMaesrnD0L883SUJFlpUnmPyzWRhOfGYoph13mtvz_GSBPMh4iGmrXYkL82e6nySvW_kaTNCDAgemPA6bDAeuf23Im-nkCB0o2OJnDyH9cKul5pxbK1ZRCcfBTmueBRhWKbvw-uo9dH0DB5j-jbIn4CfAfLF0wgduE8iavjFfNpehUi4JUSx665KirEfOgK2oLG0MjjcD8EUdSvWWaQ2FTwBXYHMeYASoKPGXp9lGS5L_LO-Ry2qBBTumBRb9iT7z2LCxjgphJ8VbMhzFsnmuWK4hU7un-zstGEp4wtks1t-yEZm6B3O_l16eDhKjN-5GQ7DPKln_sZr5I9QWEYB0RX7xt2E68w0xzVYjqx3FYOEldGGR1i1VqQa0dUlmeYDwU0jsQHKJPgOViktifqyIjIcnuoStsbEmgwaUTEgIhlHtrni-hV40rxkC1C-OiaoAfgtjdt6zmS1MC-uDkEwhDw8SYHodJUlZYnxQ7DQPRGTuZ8yX9lD2FEc5m36ugJ2XCxLOS2plW6fNjCKriSyDgcZuSHxseTG9hvAeWJLGVDSPCrv05rDFz6g1Brmbx_k3g5DIO6_vHe8XnmbVq5qSVt6ZeZrfDw1TtuD5ZnfJXCS-PC2ydL-VKcEYZGs3do_yNjOStxzW1-eu2vgUHUz4m6lyGNbDBpyYSnXwTBiP86X9SqKoawUOPUwZJsHjlkA6bGY5edkKfN_7T0mt2CtUkUjQBYJLvl3e_dwdTWqP1lKM1pizlnPILV4sTLYYun-Mj6ARqtS6__y229YsDmCG-_yfADeyLpyqhO1f6ar_2wU9fCvuH13dfYAlmxdYtL1DAkwI1Vcsdg47zXcu5mgZTjvJOwKtjlb8G3TdkmN1Kf4qQIcaVJ5iT7tuZbxsyd77CA15TAGfcixqSEXiIPjYIMjcg6HCxbKHR-flj_CEaGe-7JtCeJcMHM2JDr9B7n8wV3T9utxl89QUqRgJ0hIKTKPFHQSz4p6WpgbYpuFURgXXHDmoZWUSTYdDnyNEbwXhUBnQpkMUVxHfnNrDXfDrx0py1QNgoFSQYYurbq7gVuQsz0PMe3g-U9sWWWkBhZG6viYmUmEICEPMNr1ke3JM6BIWJGbAZwJU4inSn9X9R_PINYbXiROb08Qr-kIXbeIyzUWRByXq0]--></g></svg>