<?plantuml 1.2026.1?><svg xmlns="http://www.w3.org/2000/svg" xmlns:xlink="http://www.w3.org/1999/xlink" contentStyleType="text/css" data-diagram-type="DESCRIPTION" height="727.5px" preserveAspectRatio="none" style="width:1327px;height:727px;background:#FFFFFF;" version="1.1" viewBox="0 0 1327 727" width="1327.5px" zoomAndPan="magnify"><title>Architecture simplifi&#233;e d'ElevConnect</title><defs/><g><g class="title" data-source-line="52"><text fill="#17324D" font-family="sans-serif" font-size="37.5" font-weight="bold" lengthAdjust="spacing" textLength="795.3186" x="253.7188" y="53.5583">Architecture simplifi&#233;e d'ElevConnect</text></g><!--entity CLIENT--><g class="entity" data-qualified-name="CLIENT" data-source-line="54" id="ent0002"><rect fill="#EAF4F8" height="129.1699" rx="11.25" ry="11.25" style="stroke:#181818;stroke-width:0.9375;" width="402.1161" x="194.5688" y="96.1523"/><text fill="#000000" font-family="sans-serif" font-size="26.25" font-weight="bold" lengthAdjust="spacing" textLength="190.6329" x="213.3188" y="139.2682">Pr&#233;sentation</text><text fill="#000000" font-family="sans-serif" font-size="26.25" lengthAdjust="spacing" textLength="207.7954" x="213.3188" y="169.8248">Navigateur web</text><text fill="#000000" font-family="sans-serif" font-size="26.25" lengthAdjust="spacing" textLength="364.6161" x="213.3188" y="200.3815">Blade &#183; Tailwind &#183; JavaScript</text></g><!--entity APP--><g class="entity" data-qualified-name="APP" data-source-line="55" id="ent0003"><rect fill="#EAF4EA" height="129.1699" rx="11.25" ry="11.25" style="stroke:#181818;stroke-width:0.9375;" width="600.7214" x="95.2688" y="337.8211"/><text fill="#000000" font-family="sans-serif" font-size="26.25" font-weight="bold" lengthAdjust="spacing" textLength="359.0021" x="114.0188" y="380.9369">Application ElevConnect</text><text fill="#000000" font-family="sans-serif" font-size="26.25" lengthAdjust="spacing" textLength="563.2214" x="114.0188" y="411.4936">Laravel : routes, contr&#244;leurs, r&#232;gles m&#233;tier</text><text fill="#000000" font-family="sans-serif" font-size="26.25" lengthAdjust="spacing" textLength="463.4253" x="114.0188" y="442.0502">Notifications &#183; QR code &#183; paiements</text></g><!--entity DB--><g class="entity" data-qualified-name="DB" data-source-line="56" id="ent0004"><path d="M125.1563,599.1773 C125.1563,580.4273 208.1213,580.4273 208.1213,580.4273 C208.1213,580.4273 291.0864,580.4273 291.0864,599.1773 L291.0864,677.1656 C291.0864,695.9156 208.1213,695.9156 208.1213,695.9156 C208.1213,695.9156 125.1563,695.9156 125.1563,677.1656 L125.1563,599.1773" fill="#FFF8E8" style="stroke:#181818;stroke-width:0.9375;"/><path d="M125.1563,599.1773 C125.1563,617.9273 208.1213,617.9273 208.1213,617.9273 C208.1213,617.9273 291.0864,617.9273 291.0864,599.1773" fill="none" style="stroke:#181818;stroke-width:0.9375;"/><text fill="#000000" font-family="sans-serif" font-size="26.25" font-weight="bold" lengthAdjust="spacing" textLength="128.4302" x="143.9063" y="649.7932">Donn&#233;es</text><text fill="#000000" font-family="sans-serif" font-size="26.25" lengthAdjust="spacing" textLength="90.1318" x="143.9063" y="680.3498">MySQL</text></g><!--entity PAYMENT--><g class="entity" data-qualified-name="PAYMENT" data-source-line="57" id="ent0005"><path d="M372.9708,597.7786 C383.3238,578.2602 395.1698,581.1483 407.4787,595.8035 C416.96,580.7435 425.2759,584.7181 434.8402,595.7162 C443.2874,578.4517 456.6982,581.1201 467.1275,593.5621 C477.3282,579.3279 490.0943,578.1816 498.9768,594.9179 C507.088,582.5154 517.6384,577.8965 527.9701,592.5372 C536.7139,580.6702 546.2793,580.6289 555.6617,591.7685 C565.4161,578.2768 582.627,574.4868 590.2916,593.9636 C600.1421,581.2476 612.3429,581.4338 619.6334,596.6526 C626.4645,582.7202 641.8661,579.7691 651.5818,593.2965 C660.3396,578.6356 671.7049,582.7729 679.1969,594.6154 C687.8597,581.8878 702.2347,581.9883 708.108,597.4739 C717.6696,580.8909 728.5691,582.8537 738.2204,597.3872 C747.2918,583.9927 762.4893,584.6584 770.1345,599.0265 C778.9287,581.5937 793.7797,585.3942 802.4373,599.1679 C828.6233,607.2994 834.2047,619.841 816.6992,642.3894 C835.7637,662.6114 823.6829,681.2064 800.6478,685.8962 C790.574,698.1453 780.644,697.5742 771.9677,684.3245 C763.7417,703.5249 753.0784,704.4811 739.8628,688.9347 C731.2565,702.3076 718.2435,704.1238 708.8351,689.8344 C702.6011,704.0873 689.7672,705.6189 680.142,693.5281 C671.407,706.356 658.1587,708.69 649.9613,692.9599 C641.6559,708.1423 629.835,711.8538 616.7766,698.4842 C608.7223,709.454 597.5538,709.1017 590.2372,697.6125 C577.9984,711.8175 565.1159,711.6272 557.2681,693.179 C549.1453,711.5988 534.3652,708.5094 524.0937,695.4427 C514.4381,707.9184 503.3131,709.884 495.1977,693.88 C482.0218,706.1248 473.3884,702.2387 466.0673,687.5481 C458.8026,704.2921 446.4628,706.0184 435.5081,691.1107 C424.1583,702.514 412.234,701.244 407.7174,684.3902 C399.099,699.248 385.9161,701.6824 374.6817,687.3508 C347.0529,677.61 343.3771,659.8738 365.2662,640.2369 C347.535,623.7621 347.6294,606.4374 372.9708,597.7786" fill="#F5EEF9" style="stroke:#181818;stroke-width:0.9375;"/><text fill="#000000" font-family="sans-serif" font-size="26.25" font-weight="bold" lengthAdjust="spacing" textLength="264.0381" x="384.675" y="631.9807">Services externes</text><text fill="#000000" font-family="sans-serif" font-size="26.25" lengthAdjust="spacing" textLength="400.6458" x="384.675" y="662.5373">Mobile Money &#183; Carte bancaire</text></g><g class="entity" data-qualified-name="GMN9" data-source-line="64" id="ent0010"><path d="M761.6063,373.7086 L761.6063,394.9711 L696.4688,402.4711 L761.6063,409.9711 L761.6063,431.0719 A11.25,11.25 0 0 0 772.8563,442.3219 L1304.6312,442.3219 A11.25,11.25 0 0 0 1315.8812,431.0719 L1315.8812,381.2086 L1297.1312,362.4586 L772.8563,362.4586 A11.25,11.25 0 0 0 761.6063,373.7086" fill="#FFF8E8" style="stroke:#E5AE45;stroke-width:0.9375;"/><path d="M1297.1312,362.4586 L1297.1312,375.5836 A5.625,5.625 0 0 0 1302.7562,381.2086 L1315.8812,381.2086 L1297.1312,362.4586" fill="#FFF8E8" style="stroke:#E5AE45;stroke-width:0.9375;"/><text fill="#5B481E" font-family="sans-serif" font-size="26.25" lengthAdjust="spacing" textLength="488.432" x="772.8563" y="396.1994">L'application orchestre les annonces,</text><text fill="#5B481E" font-family="sans-serif" font-size="26.25" lengthAdjust="spacing" textLength="514.8999" x="772.8563" y="426.7561">commandes, livraisons et rendez-vous.</text></g><!--link CLIENT to APP--><g class="link" data-entity-1="ent0002" data-entity-2="ent0003" data-link-type="dependency" data-source-line="59" id="lnk6"><path d="M395.625,226.1273 C395.625,260.5148 395.625,291.3023 395.625,325.6898" fill="none" id="CLIENT-to-APP" style="stroke:#456A7D;stroke-width:2.625;"/><polygon fill="#456A7D" points="395.625,336.9398,403.125,320.0648,395.625,327.5648,388.125,320.0648,395.625,336.9398" style="stroke:#456A7D;stroke-width:2.625;"/><text fill="#29485B" font-family="sans-serif" font-size="26.25" lengthAdjust="spacing" textLength="84.2999" x="311.25" y="274.0244">HTTPS</text></g><!--link APP to DB--><g class="link" data-entity-1="ent0003" data-entity-2="ent0004" data-link-type="dependency" data-source-line="60" id="lnk7"><path d="M208.125,467.4398 C208.125,502.6148 208.125,534.4336 208.125,568.5211" fill="none" id="APP-to-DB" style="stroke:#456A7D;stroke-width:2.625;"/><polygon fill="#456A7D" points="208.125,579.7711,215.625,562.8961,208.125,570.3961,200.625,562.8961,208.125,579.7711" style="stroke:#456A7D;stroke-width:2.625;"/><text fill="#29485B" font-family="sans-serif" font-size="26.25" lengthAdjust="spacing" textLength="193.7988" x="13.125" y="516.1057">Eloquent / SQL</text></g><!--link APP to PAYMENT--><g class="link" data-entity-1="ent0003" data-entity-2="ent0005" data-link-type="dependency" data-source-line="61" id="lnk8"><path d="M526.275,467.4398 C526.275,502.3336 526.275,533.7773 526.275,567.7336" fill="none" id="APP-to-PAYMENT" style="stroke:#456A7D;stroke-width:2.625;"/><polygon fill="#456A7D" points="526.275,578.9836,533.775,562.1086,526.275,569.6086,518.775,562.1086,526.275,578.9836" style="stroke:#456A7D;stroke-width:2.625;"/><text fill="#29485B" font-family="sans-serif" font-size="26.25" lengthAdjust="spacing" textLength="196.4264" x="528.15" y="485.6932">encaissements</text><text fill="#29485B" font-family="sans-serif" font-size="26.25" lengthAdjust="spacing" textLength="189.4153" x="531.6556" y="516.2498">et versements</text></g><?plantuml-src ZLR1Rjj64BtpAmR9mO0HkvP4HP8F1IY9J5h8Wb8f0GhuiY97qiBaBhkxfAES-X7zW1xZUu3Ugp_fbsIMaesrnD0L883SUJFlpUnmPyzWRhOfGYoph13mtvz_GSBPMh4iGmrXYkL82e6nySvW_kaTNCDAgemPA6bDAeuf23Im-nkCB0o2OJnDyH9cKul5pxbK1ZRCcfBTmueBRhWKbvw-uo9dH0DB5j-jbIn4CfAfLF0wgduE8iavjFfNpehUi4JUSx665KirEfOgK2oLG0MjjcD8EUdSvWWaQ2FTwBXYHMeYASoKPGXp9lGS5L_LO-Ry2qBBTumBRb9iT7z2LCxjgphJ8VbMhzFsnmuWK4hU7un-zstGEp4wtks1t-yEZm6B3O_l16eDhKjN-5GQ7DPKln_sZr5I9QWEYB0RX7xt2E68w0xzVYjqx3FYOEldGGR1i1VqQa0dUlmeYDwU0jsQHKJPgOViktifqyIjIcnuoStsbEmgwaUTEgIhlHtrni-hV40rxkC1C-OiaoAfgtjdt6zmS1MC-uDkEwhDw8SYHodJUlZYnxQ7DQPRGTuZ8yX9lD2FEc5m36ugJ2XCxLOS2plW6fNjCKriSyDgcZuSHxseTG9hvAeWJLGVDSPCrv05rDFz6g1Brmbx_k3g5DIO6_vHe8XnmbVq5qSVt6ZeZrfDw1TtuD5ZnfJXCS-PC2ydL-VKcEYZGs3do_yNjOStxzW1-eu2vgUHUz4m6lyGNbDBpyYSnXwTBiP86X9SqKoawUOPUwZJsHjlkA6bGY5edkKfN_7T0mt2CtUkUjQBYJLvl3e_dwdTWqP1lKM1pizlnPILV4sTLYYun-Mj6ARqtS6__y229YsDmCG-_yfADeyLpyqhO1f6ar_2wU9fCvuH13dfYAlmxdYtL1DAkwI1Vcsdg47zXcu5mgZTjvJOwKtjlb8G3TdkmN1Kf4qQIcaVJ5iT7tuZbxsyd77CA15TAGfcixqSEXiIPjYIMjcg6HCxbKHR-flj_CEaGe-7JtCeJcMHM2JDr9B7n8wV3T9utxl89QUqRgJ0hIKTKPFHQSz4p6WpgbYpuFURgXXHDmoZWUSTYdDnyNEbwXhUBnQpkMUVxHfnNrDXfDrx0py1QNgoFSQYYurbq7gVuQsz0PMe3g-U9sWWWkBhZG6viYmUmEICEPMNr1ke3JM6BIWJGbAZwJU4inSn9X9R_PINYbXiROb08Qr-kIXbeIyzUWRByXq0?></g></svg>