<?xml version="1.0" encoding="us-ascii" standalone="no"?><svg xmlns="http://www.w3.org/2000/svg" xmlns:xlink="http://www.w3.org/1999/xlink" contentStyleType="text/css" height="2095px" preserveAspectRatio="none" style="width:1630px;height:2095px;background:#FFFFFF;" version="1.1" viewBox="0 0 1630 2095" width="1630px" zoomAndPan="magnify"><defs/><g><!--class Utilisateur--><g id="elem_Utilisateur"><rect codeLine="3" fill="#F1F1F1" height="276.9219" id="Utilisateur" rx="2.5" ry="2.5" style="stroke:#181818;stroke-width:0.5;" width="144" x="699.5" y="7"/><ellipse cx="736.55" cy="23" fill="#A9DCDF" rx="11" ry="11" style="stroke:#181818;stroke-width:1.0;"/><path d="M738.7375,24.7656 L734.5969,24.7656 L734.175,25.7969 L734.5969,25.7969 Q735.2063,25.7969 735.4719,26.0313 Q735.7375,26.2656 735.7375,26.6563 Q735.7375,27.0313 735.4719,27.2656 Q735.2063,27.5 734.5969,27.5 L732.3,27.5 Q731.6906,27.5 731.4406,27.2656 Q731.175,27.0313 731.175,26.6406 Q731.175,26.2656 731.4563,26.0313 Q731.7219,25.7813 732.3469,25.7969 L735.0188,19.1406 L733.9094,19.1406 Q733.3,19.1406 733.0344,18.9063 Q732.7688,18.6719 732.7688,18.2813 Q732.7688,17.9063 733.0344,17.6719 Q733.3,17.4375 733.9094,17.4375 L737.5813,17.4375 L740.9719,25.7969 Q741.5656,25.7969 741.7531,25.9375 Q742.1438,26.2031 742.1438,26.6563 Q742.1438,27.0313 741.8781,27.2656 Q741.6281,27.5 741.0188,27.5 L738.7219,27.5 Q738.1125,27.5 737.8469,27.2656 Q737.5813,27.0313 737.5813,26.6406 Q737.5813,26.2656 737.8469,26.0313 Q738.1125,25.7969 738.7219,25.7969 L739.1438,25.7969 L738.7375,24.7656 Z M738.0188,23.0625 L736.6594,19.6875 L735.2844,23.0625 L738.0188,23.0625 Z " fill="#000000"/><text fill="#000000" font-family="sans-serif" font-size="14" font-style="italic" lengthAdjust="spacing" textLength="63" x="755.45" y="28.7285">Utilisateur</text><line style="stroke:#181818;stroke-width:0.5;" x1="700.5" x2="842.5" y1="39" y2="39"/><text fill="#000000" font-family="sans-serif" font-size="14" lengthAdjust="spacing" textLength="105" x="705.5" y="57.5332">-idUtilisateur : int</text><text fill="#000000" font-family="sans-serif" font-size="14" lengthAdjust="spacing" textLength="79" x="705.5" y="75.1426">-nom : string</text><text fill="#000000" font-family="sans-serif" font-size="14" lengthAdjust="spacing" textLength="100" x="705.5" y="92.752">-prenom : string</text><text fill="#000000" font-family="sans-serif" font-size="14" lengthAdjust="spacing" textLength="85" x="705.5" y="110.3613">-email : string</text><text fill="#000000" font-family="sans-serif" font-size="14" lengthAdjust="spacing" textLength="132" x="705.5" y="127.9707">-motDePasse : string</text><text fill="#000000" font-family="sans-serif" font-size="14" lengthAdjust="spacing" textLength="115" x="705.5" y="145.5801">-telephone : string</text><text fill="#000000" font-family="sans-serif" font-size="14" lengthAdjust="spacing" textLength="103" x="705.5" y="163.1895">-adresse : string</text><text fill="#000000" font-family="sans-serif" font-size="14" lengthAdjust="spacing" textLength="111" x="705.5" y="180.7988">-latitude : decimal</text><text fill="#000000" font-family="sans-serif" font-size="14" lengthAdjust="spacing" textLength="123" x="705.5" y="198.4082">-longitude : decimal</text><text fill="#000000" font-family="sans-serif" font-size="14" lengthAdjust="spacing" textLength="76" x="705.5" y="216.0176">-role : string</text><text fill="#000000" font-family="sans-serif" font-size="14" lengthAdjust="spacing" textLength="87" x="705.5" y="233.627">-statut : string</text><line style="stroke:#181818;stroke-width:0.5;" x1="700.5" x2="842.5" y1="240.7031" y2="240.7031"/><text fill="#000000" font-family="sans-serif" font-size="14" lengthAdjust="spacing" textLength="99" x="705.5" y="259.2363">+seConnecter()</text><text fill="#000000" font-family="sans-serif" font-size="14" lengthAdjust="spacing" textLength="100" x="705.5" y="276.8457">+modifierProfil()</text></g><!--class Eleveur--><g id="elem_Eleveur"><rect codeLine="19" fill="#F1F1F1" height="153.6563" id="Eleveur" rx="2.5" ry="2.5" style="stroke:#181818;stroke-width:0.5;" width="174" x="478.5" y="379.5"/><ellipse cx="537.25" cy="395.5" fill="#ADD1B2" rx="11" ry="11" style="stroke:#181818;stroke-width:1.0;"/><path d="M540.0156,391.375 Q540.1719,391.1563 540.3594,391.0469 Q540.5469,390.9375 540.7656,390.9375 Q541.1406,390.9375 541.375,391.2031 Q541.6094,391.4531 541.6094,392.0625 L541.6094,393.5156 Q541.6094,394.125 541.375,394.3906 Q541.1406,394.6563 540.7656,394.6563 Q540.4219,394.6563 540.2188,394.4531 Q540.0156,394.2656 539.9063,393.75 Q539.8594,393.3906 539.6719,393.2031 Q539.3438,392.8281 538.7344,392.6094 Q538.125,392.3906 537.5,392.3906 Q536.7344,392.3906 536.0938,392.7188 Q535.4688,393.0469 534.9688,393.7969 Q534.4844,394.5469 534.4844,395.5781 L534.4844,396.6719 Q534.4844,397.9063 535.375,398.7344 Q536.2656,399.5469 537.8594,399.5469 Q538.7969,399.5469 539.4531,399.2969 Q539.8438,399.1406 540.2656,398.7031 Q540.5313,398.4375 540.6719,398.3594 Q540.8281,398.2813 541.0313,398.2813 Q541.3594,398.2813 541.6094,398.5469 Q541.875,398.7969 541.875,399.1406 Q541.875,399.4844 541.5313,399.8906 Q541.0313,400.4688 540.2344,400.7969 Q539.1563,401.25 537.8594,401.25 Q536.3438,401.25 535.1406,400.625 Q534.1563,400.125 533.4688,399.0625 Q532.7813,397.9844 532.7813,396.7031 L532.7813,395.5469 Q532.7813,394.2188 533.3906,393.0781 Q534.0156,391.9219 535.1094,391.3125 Q536.2031,390.6875 537.4375,390.6875 Q538.1719,390.6875 538.8125,390.8594 Q539.4688,391.0156 540.0156,391.375 Z " fill="#000000"/><text fill="#000000" font-family="sans-serif" font-size="14" lengthAdjust="spacing" textLength="48" x="557.75" y="401.2285">Eleveur</text><line style="stroke:#181818;stroke-width:0.5;" x1="479.5" x2="651.5" y1="411.5" y2="411.5"/><text fill="#000000" font-family="sans-serif" font-size="14" lengthAdjust="spacing" textLength="151" x="484.5" y="430.0332">-nomExploitation : string</text><text fill="#000000" font-family="sans-serif" font-size="14" lengthAdjust="spacing" textLength="153" x="484.5" y="447.6426">-certificatChemin : string</text><text fill="#000000" font-family="sans-serif" font-size="14" lengthAdjust="spacing" textLength="151" x="484.5" y="465.252">-noteMoyenne : decimal</text><text fill="#000000" font-family="sans-serif" font-size="14" lengthAdjust="spacing" textLength="106" x="484.5" y="482.8613">-nombreAvis : int</text><line style="stroke:#181818;stroke-width:0.5;" x1="479.5" x2="651.5" y1="489.9375" y2="489.9375"/><text fill="#000000" font-family="sans-serif" font-size="14" lengthAdjust="spacing" textLength="117" x="484.5" y="508.4707">+publierAnnonce()</text><text fill="#000000" font-family="sans-serif" font-size="14" lengthAdjust="spacing" textLength="162" x="484.5" y="526.0801">+demanderRendezVous()</text></g><!--class Acheteur--><g id="elem_Acheteur"><rect codeLine="27" fill="#F1F1F1" height="83.2188" id="Acheteur" rx="2.5" ry="2.5" style="stroke:#181818;stroke-width:0.5;" width="148" x="260.5" y="581"/><ellipse cx="302.05" cy="597" fill="#ADD1B2" rx="11" ry="11" style="stroke:#181818;stroke-width:1.0;"/><path d="M304.8156,592.875 Q304.9719,592.6563 305.1594,592.5469 Q305.3469,592.4375 305.5656,592.4375 Q305.9406,592.4375 306.175,592.7031 Q306.4094,592.9531 306.4094,593.5625 L306.4094,595.0156 Q306.4094,595.625 306.175,595.8906 Q305.9406,596.1563 305.5656,596.1563 Q305.2219,596.1563 305.0188,595.9531 Q304.8156,595.7656 304.7063,595.25 Q304.6594,594.8906 304.4719,594.7031 Q304.1438,594.3281 303.5344,594.1094 Q302.925,593.8906 302.3,593.8906 Q301.5344,593.8906 300.8938,594.2188 Q300.2688,594.5469 299.7688,595.2969 Q299.2844,596.0469 299.2844,597.0781 L299.2844,598.1719 Q299.2844,599.4063 300.175,600.2344 Q301.0656,601.0469 302.6594,601.0469 Q303.5969,601.0469 304.2531,600.7969 Q304.6438,600.6406 305.0656,600.2031 Q305.3313,599.9375 305.4719,599.8594 Q305.6281,599.7813 305.8313,599.7813 Q306.1594,599.7813 306.4094,600.0469 Q306.675,600.2969 306.675,600.6406 Q306.675,600.9844 306.3313,601.3906 Q305.8313,601.9688 305.0344,602.2969 Q303.9563,602.75 302.6594,602.75 Q301.1438,602.75 299.9406,602.125 Q298.9563,601.625 298.2688,600.5625 Q297.5813,599.4844 297.5813,598.2031 L297.5813,597.0469 Q297.5813,595.7188 298.1906,594.5781 Q298.8156,593.4219 299.9094,592.8125 Q301.0031,592.1875 302.2375,592.1875 Q302.9719,592.1875 303.6125,592.3594 Q304.2688,592.5156 304.8156,592.875 Z " fill="#000000"/><text fill="#000000" font-family="sans-serif" font-size="14" lengthAdjust="spacing" textLength="57" x="321.95" y="602.7285">Acheteur</text><line style="stroke:#181818;stroke-width:0.5;" x1="261.5" x2="407.5" y1="613" y2="613"/><text fill="#000000" font-family="sans-serif" font-size="14" lengthAdjust="spacing" textLength="136" x="266.5" y="631.5332">-typeAcheteur : string</text><line style="stroke:#181818;stroke-width:0.5;" x1="261.5" x2="407.5" y1="638.6094" y2="638.6094"/><text fill="#000000" font-family="sans-serif" font-size="14" lengthAdjust="spacing" textLength="133" x="266.5" y="657.1426">+passerCommande()</text></g><!--class VendeurProvende--><g id="elem_VendeurProvende"><rect codeLine="31" fill="#F1F1F1" height="136.0469" id="VendeurProvende" rx="2.5" ry="2.5" style="stroke:#181818;stroke-width:0.5;" width="165" x="7" y="388.5"/><ellipse cx="30.1" cy="404.5" fill="#ADD1B2" rx="11" ry="11" style="stroke:#181818;stroke-width:1.0;"/><path d="M32.8656,400.375 Q33.0219,400.1563 33.2094,400.0469 Q33.3969,399.9375 33.6156,399.9375 Q33.9906,399.9375 34.225,400.2031 Q34.4594,400.4531 34.4594,401.0625 L34.4594,402.5156 Q34.4594,403.125 34.225,403.3906 Q33.9906,403.6563 33.6156,403.6563 Q33.2719,403.6563 33.0688,403.4531 Q32.8656,403.2656 32.7563,402.75 Q32.7094,402.3906 32.5219,402.2031 Q32.1938,401.8281 31.5844,401.6094 Q30.975,401.3906 30.35,401.3906 Q29.5844,401.3906 28.9438,401.7188 Q28.3188,402.0469 27.8188,402.7969 Q27.3344,403.5469 27.3344,404.5781 L27.3344,405.6719 Q27.3344,406.9063 28.225,407.7344 Q29.1156,408.5469 30.7094,408.5469 Q31.6469,408.5469 32.3031,408.2969 Q32.6938,408.1406 33.1156,407.7031 Q33.3813,407.4375 33.5219,407.3594 Q33.6781,407.2813 33.8813,407.2813 Q34.2094,407.2813 34.4594,407.5469 Q34.725,407.7969 34.725,408.1406 Q34.725,408.4844 34.3813,408.8906 Q33.8813,409.4688 33.0844,409.7969 Q32.0063,410.25 30.7094,410.25 Q29.1938,410.25 27.9906,409.625 Q27.0063,409.125 26.3188,408.0625 Q25.6313,406.9844 25.6313,405.7031 L25.6313,404.5469 Q25.6313,403.2188 26.2406,402.0781 Q26.8656,400.9219 27.9594,400.3125 Q29.0531,399.6875 30.2875,399.6875 Q31.0219,399.6875 31.6625,399.8594 Q32.3188,400.0156 32.8656,400.375 Z " fill="#000000"/><text fill="#000000" font-family="sans-serif" font-size="14" lengthAdjust="spacing" textLength="115" x="45.9" y="410.2285">VendeurProvende</text><line style="stroke:#181818;stroke-width:0.5;" x1="8" x2="171" y1="420.5" y2="420.5"/><text fill="#000000" font-family="sans-serif" font-size="14" lengthAdjust="spacing" textLength="135" x="13" y="439.0332">-nomBoutique : string</text><text fill="#000000" font-family="sans-serif" font-size="14" lengthAdjust="spacing" textLength="153" x="13" y="456.6426">-certificatChemin : string</text><text fill="#000000" font-family="sans-serif" font-size="14" lengthAdjust="spacing" textLength="151" x="13" y="474.252">-noteMoyenne : decimal</text><text fill="#000000" font-family="sans-serif" font-size="14" lengthAdjust="spacing" textLength="106" x="13" y="491.8613">-nombreAvis : int</text><line style="stroke:#181818;stroke-width:0.5;" x1="8" x2="171" y1="498.9375" y2="498.9375"/><text fill="#000000" font-family="sans-serif" font-size="14" lengthAdjust="spacing" textLength="117" x="13" y="517.4707">+publierAnnonce()</text></g><!--class VendeurAccessoire--><g id="elem_VendeurAccessoire"><rect codeLine="38" fill="#F1F1F1" height="136.0469" id="VendeurAccessoire" rx="2.5" ry="2.5" style="stroke:#181818;stroke-width:0.5;" width="165" x="207" y="388.5"/><ellipse cx="226.5" cy="404.5" fill="#ADD1B2" rx="11" ry="11" style="stroke:#181818;stroke-width:1.0;"/><path d="M229.2656,400.375 Q229.4219,400.1563 229.6094,400.0469 Q229.7969,399.9375 230.0156,399.9375 Q230.3906,399.9375 230.625,400.2031 Q230.8594,400.4531 230.8594,401.0625 L230.8594,402.5156 Q230.8594,403.125 230.625,403.3906 Q230.3906,403.6563 230.0156,403.6563 Q229.6719,403.6563 229.4688,403.4531 Q229.2656,403.2656 229.1563,402.75 Q229.1094,402.3906 228.9219,402.2031 Q228.5938,401.8281 227.9844,401.6094 Q227.375,401.3906 226.75,401.3906 Q225.9844,401.3906 225.3438,401.7188 Q224.7188,402.0469 224.2188,402.7969 Q223.7344,403.5469 223.7344,404.5781 L223.7344,405.6719 Q223.7344,406.9063 224.625,407.7344 Q225.5156,408.5469 227.1094,408.5469 Q228.0469,408.5469 228.7031,408.2969 Q229.0938,408.1406 229.5156,407.7031 Q229.7813,407.4375 229.9219,407.3594 Q230.0781,407.2813 230.2813,407.2813 Q230.6094,407.2813 230.8594,407.5469 Q231.125,407.7969 231.125,408.1406 Q231.125,408.4844 230.7813,408.8906 Q230.2813,409.4688 229.4844,409.7969 Q228.4063,410.25 227.1094,410.25 Q225.5938,410.25 224.3906,409.625 Q223.4063,409.125 222.7188,408.0625 Q222.0313,406.9844 222.0313,405.7031 L222.0313,404.5469 Q222.0313,403.2188 222.6406,402.0781 Q223.2656,400.9219 224.3594,400.3125 Q225.4531,399.6875 226.6875,399.6875 Q227.4219,399.6875 228.0625,399.8594 Q228.7188,400.0156 229.2656,400.375 Z " fill="#000000"/><text fill="#000000" font-family="sans-serif" font-size="14" lengthAdjust="spacing" textLength="123" x="241.5" y="410.2285">VendeurAccessoire</text><line style="stroke:#181818;stroke-width:0.5;" x1="208" x2="371" y1="420.5" y2="420.5"/><text fill="#000000" font-family="sans-serif" font-size="14" lengthAdjust="spacing" textLength="135" x="213" y="439.0332">-nomBoutique : string</text><text fill="#000000" font-family="sans-serif" font-size="14" lengthAdjust="spacing" textLength="153" x="213" y="456.6426">-certificatChemin : string</text><text fill="#000000" font-family="sans-serif" font-size="14" lengthAdjust="spacing" textLength="151" x="213" y="474.252">-noteMoyenne : decimal</text><text fill="#000000" font-family="sans-serif" font-size="14" lengthAdjust="spacing" textLength="106" x="213" y="491.8613">-nombreAvis : int</text><line style="stroke:#181818;stroke-width:0.5;" x1="208" x2="371" y1="498.9375" y2="498.9375"/><text fill="#000000" font-family="sans-serif" font-size="14" lengthAdjust="spacing" textLength="117" x="213" y="517.4707">+publierAnnonce()</text></g><!--class Veterinaire--><g id="elem_Veterinaire"><rect codeLine="45" fill="#F1F1F1" height="188.875" id="Veterinaire" rx="2.5" ry="2.5" style="stroke:#181818;stroke-width:0.5;" width="169" x="891" y="362"/><ellipse cx="936.75" cy="378" fill="#ADD1B2" rx="11" ry="11" style="stroke:#181818;stroke-width:1.0;"/><path d="M939.5156,373.875 Q939.6719,373.6563 939.8594,373.5469 Q940.0469,373.4375 940.2656,373.4375 Q940.6406,373.4375 940.875,373.7031 Q941.1094,373.9531 941.1094,374.5625 L941.1094,376.0156 Q941.1094,376.625 940.875,376.8906 Q940.6406,377.1563 940.2656,377.1563 Q939.9219,377.1563 939.7188,376.9531 Q939.5156,376.7656 939.4063,376.25 Q939.3594,375.8906 939.1719,375.7031 Q938.8438,375.3281 938.2344,375.1094 Q937.625,374.8906 937,374.8906 Q936.2344,374.8906 935.5938,375.2188 Q934.9688,375.5469 934.4688,376.2969 Q933.9844,377.0469 933.9844,378.0781 L933.9844,379.1719 Q933.9844,380.4063 934.875,381.2344 Q935.7656,382.0469 937.3594,382.0469 Q938.2969,382.0469 938.9531,381.7969 Q939.3438,381.6406 939.7656,381.2031 Q940.0313,380.9375 940.1719,380.8594 Q940.3281,380.7813 940.5313,380.7813 Q940.8594,380.7813 941.1094,381.0469 Q941.375,381.2969 941.375,381.6406 Q941.375,381.9844 941.0313,382.3906 Q940.5313,382.9688 939.7344,383.2969 Q938.6563,383.75 937.3594,383.75 Q935.8438,383.75 934.6406,383.125 Q933.6563,382.625 932.9688,381.5625 Q932.2813,380.4844 932.2813,379.2031 L932.2813,378.0469 Q932.2813,376.7188 932.8906,375.5781 Q933.5156,374.4219 934.6094,373.8125 Q935.7031,373.1875 936.9375,373.1875 Q937.6719,373.1875 938.3125,373.3594 Q938.9688,373.5156 939.5156,373.875 Z " fill="#000000"/><text fill="#000000" font-family="sans-serif" font-size="14" lengthAdjust="spacing" textLength="69" x="957.25" y="383.7285">Veterinaire</text><line style="stroke:#181818;stroke-width:0.5;" x1="892" x2="1059" y1="394" y2="394"/><text fill="#000000" font-family="sans-serif" font-size="14" lengthAdjust="spacing" textLength="111" x="897" y="412.5332">-specialite : string</text><text fill="#000000" font-family="sans-serif" font-size="14" lengthAdjust="spacing" textLength="156" x="897" y="430.1426">-zoneIntervention : string</text><text fill="#000000" font-family="sans-serif" font-size="14" lengthAdjust="spacing" textLength="153" x="897" y="447.752">-certificatChemin : string</text><text fill="#000000" font-family="sans-serif" font-size="14" lengthAdjust="spacing" textLength="151" x="897" y="465.3613">-noteMoyenne : decimal</text><text fill="#000000" font-family="sans-serif" font-size="14" lengthAdjust="spacing" textLength="106" x="897" y="482.9707">-nombreAvis : int</text><line style="stroke:#181818;stroke-width:0.5;" x1="892" x2="1059" y1="490.0469" y2="490.0469"/><text fill="#000000" font-family="sans-serif" font-size="14" lengthAdjust="spacing" textLength="106" x="897" y="508.5801">+gererServices()</text><text fill="#000000" font-family="sans-serif" font-size="14" lengthAdjust="spacing" textLength="157" x="897" y="526.1895">+confirmerRendezVous()</text><text fill="#000000" font-family="sans-serif" font-size="14" lengthAdjust="spacing" textLength="156" x="897" y="543.7988">+souscrireAbonnement()</text></g><!--class Livreur--><g id="elem_Livreur"><rect codeLine="55" fill="#F1F1F1" height="118.4375" id="Livreur" rx="2.5" ry="2.5" style="stroke:#181818;stroke-width:0.5;" width="168" x="687.5" y="397.5"/><ellipse cx="745.25" cy="413.5" fill="#ADD1B2" rx="11" ry="11" style="stroke:#181818;stroke-width:1.0;"/><path d="M748.0156,409.375 Q748.1719,409.1563 748.3594,409.0469 Q748.5469,408.9375 748.7656,408.9375 Q749.1406,408.9375 749.375,409.2031 Q749.6094,409.4531 749.6094,410.0625 L749.6094,411.5156 Q749.6094,412.125 749.375,412.3906 Q749.1406,412.6563 748.7656,412.6563 Q748.4219,412.6563 748.2188,412.4531 Q748.0156,412.2656 747.9063,411.75 Q747.8594,411.3906 747.6719,411.2031 Q747.3438,410.8281 746.7344,410.6094 Q746.125,410.3906 745.5,410.3906 Q744.7344,410.3906 744.0938,410.7188 Q743.4688,411.0469 742.9688,411.7969 Q742.4844,412.5469 742.4844,413.5781 L742.4844,414.6719 Q742.4844,415.9063 743.375,416.7344 Q744.2656,417.5469 745.8594,417.5469 Q746.7969,417.5469 747.4531,417.2969 Q747.8438,417.1406 748.2656,416.7031 Q748.5313,416.4375 748.6719,416.3594 Q748.8281,416.2813 749.0313,416.2813 Q749.3594,416.2813 749.6094,416.5469 Q749.875,416.7969 749.875,417.1406 Q749.875,417.4844 749.5313,417.8906 Q749.0313,418.4688 748.2344,418.7969 Q747.1563,419.25 745.8594,419.25 Q744.3438,419.25 743.1406,418.625 Q742.1563,418.125 741.4688,417.0625 Q740.7813,415.9844 740.7813,414.7031 L740.7813,413.5469 Q740.7813,412.2188 741.3906,411.0781 Q742.0156,409.9219 743.1094,409.3125 Q744.2031,408.6875 745.4375,408.6875 Q746.1719,408.6875 746.8125,408.8594 Q747.4688,409.0156 748.0156,409.375 Z " fill="#000000"/><text fill="#000000" font-family="sans-serif" font-size="14" lengthAdjust="spacing" textLength="44" x="765.75" y="419.2285">Livreur</text><line style="stroke:#181818;stroke-width:0.5;" x1="688.5" x2="854.5" y1="429.5" y2="429.5"/><text fill="#000000" font-family="sans-serif" font-size="14" lengthAdjust="spacing" textLength="156" x="693.5" y="448.0332">-moyenTransport : string</text><text fill="#000000" font-family="sans-serif" font-size="14" lengthAdjust="spacing" textLength="153" x="693.5" y="465.6426">-zoneCouverture : string</text><line style="stroke:#181818;stroke-width:0.5;" x1="688.5" x2="854.5" y1="472.7188" y2="472.7188"/><text fill="#000000" font-family="sans-serif" font-size="14" lengthAdjust="spacing" textLength="107" x="693.5" y="491.252">+gererPlanning()</text><text fill="#000000" font-family="sans-serif" font-size="14" lengthAdjust="spacing" textLength="123" x="693.5" y="508.8613">+assurerLivraison()</text></g><!--class Administrateur--><g id="elem_Administrateur"><rect codeLine="61" fill="#F1F1F1" height="100.8281" id="Administrateur" rx="2.5" ry="2.5" style="stroke:#181818;stroke-width:0.5;" width="139" x="1095" y="406"/><ellipse cx="1117.2" cy="422" fill="#ADD1B2" rx="11" ry="11" style="stroke:#181818;stroke-width:1.0;"/><path d="M1119.9656,417.875 Q1120.1219,417.6563 1120.3094,417.5469 Q1120.4969,417.4375 1120.7156,417.4375 Q1121.0906,417.4375 1121.325,417.7031 Q1121.5594,417.9531 1121.5594,418.5625 L1121.5594,420.0156 Q1121.5594,420.625 1121.325,420.8906 Q1121.0906,421.1563 1120.7156,421.1563 Q1120.3719,421.1563 1120.1688,420.9531 Q1119.9656,420.7656 1119.8563,420.25 Q1119.8094,419.8906 1119.6219,419.7031 Q1119.2938,419.3281 1118.6844,419.1094 Q1118.075,418.8906 1117.45,418.8906 Q1116.6844,418.8906 1116.0438,419.2188 Q1115.4188,419.5469 1114.9188,420.2969 Q1114.4344,421.0469 1114.4344,422.0781 L1114.4344,423.1719 Q1114.4344,424.4063 1115.325,425.2344 Q1116.2156,426.0469 1117.8094,426.0469 Q1118.7469,426.0469 1119.4031,425.7969 Q1119.7938,425.6406 1120.2156,425.2031 Q1120.4813,424.9375 1120.6219,424.8594 Q1120.7781,424.7813 1120.9813,424.7813 Q1121.3094,424.7813 1121.5594,425.0469 Q1121.825,425.2969 1121.825,425.6406 Q1121.825,425.9844 1121.4813,426.3906 Q1120.9813,426.9688 1120.1844,427.2969 Q1119.1063,427.75 1117.8094,427.75 Q1116.2938,427.75 1115.0906,427.125 Q1114.1063,426.625 1113.4188,425.5625 Q1112.7313,424.4844 1112.7313,423.2031 L1112.7313,422.0469 Q1112.7313,420.7188 1113.3406,419.5781 Q1113.9656,418.4219 1115.0594,417.8125 Q1116.1531,417.1875 1117.3875,417.1875 Q1118.1219,417.1875 1118.7625,417.3594 Q1119.4188,417.5156 1119.9656,417.875 Z " fill="#000000"/><text fill="#000000" font-family="sans-serif" font-size="14" lengthAdjust="spacing" textLength="91" x="1132.8" y="427.7285">Administrateur</text><line style="stroke:#181818;stroke-width:0.5;" x1="1096" x2="1233" y1="438" y2="438"/><line style="stroke:#181818;stroke-width:0.5;" x1="1096" x2="1233" y1="446" y2="446"/><text fill="#000000" font-family="sans-serif" font-size="14" lengthAdjust="spacing" textLength="127" x="1101" y="464.5332">+modererAnnonce()</text><text fill="#000000" font-family="sans-serif" font-size="14" lengthAdjust="spacing" textLength="115" x="1101" y="482.1426">+publierActualite()</text><text fill="#000000" font-family="sans-serif" font-size="14" lengthAdjust="spacing" textLength="121" x="1101" y="499.752">+gererUtilisateurs()</text></g><g id="elem_GMN10"><path d="M878.5,108 L878.5,141.5 L843.86,145.5 L878.5,149.5 L878.5,183.4063 A0,0 0 0 0 878.5,183.4063 L1158.5,183.4063 A0,0 0 0 0 1158.5,183.4063 L1158.5,118 L1148.5,108 L878.5,108 A0,0 0 0 0 878.5,108 " fill="#FEFFDD" style="stroke:#181818;stroke-width:0.5;"/><path d="M1148.5,108 L1148.5,118 L1158.5,118 L1148.5,108 " fill="#FEFFDD" style="stroke:#181818;stroke-width:0.5;"/><text fill="#000000" font-family="sans-serif" font-size="13" lengthAdjust="spacing" textLength="224" x="884.5" y="126.4951">latitude / longitude : coordonn&#233;es GPS</text><text fill="#000000" font-family="sans-serif" font-size="13" lengthAdjust="spacing" textLength="233" x="884.5" y="142.8467">communes &#224; tous les r&#244;les, port&#233;es une</text><text fill="#000000" font-family="sans-serif" font-size="13" lengthAdjust="spacing" textLength="231" x="884.5" y="159.1982">seule fois par la classe m&#232;re et h&#233;rit&#233;es</text><text fill="#000000" font-family="sans-serif" font-size="13" lengthAdjust="spacing" textLength="259" x="884.5" y="175.5498">par chaque sous-classe (pas de duplication).</text></g><!--class Annonce--><g id="elem_Annonce"><rect codeLine="82" fill="#F1F1F1" height="347.3594" id="Annonce" rx="2.5" ry="2.5" style="stroke:#181818;stroke-width:0.5;" width="160" x="139.5" y="694"/><ellipse cx="187.25" cy="710" fill="#ADD1B2" rx="11" ry="11" style="stroke:#181818;stroke-width:1.0;"/><path d="M190.0156,705.875 Q190.1719,705.6563 190.3594,705.5469 Q190.5469,705.4375 190.7656,705.4375 Q191.1406,705.4375 191.375,705.7031 Q191.6094,705.9531 191.6094,706.5625 L191.6094,708.0156 Q191.6094,708.625 191.375,708.8906 Q191.1406,709.1563 190.7656,709.1563 Q190.4219,709.1563 190.2188,708.9531 Q190.0156,708.7656 189.9063,708.25 Q189.8594,707.8906 189.6719,707.7031 Q189.3438,707.3281 188.7344,707.1094 Q188.125,706.8906 187.5,706.8906 Q186.7344,706.8906 186.0938,707.2188 Q185.4688,707.5469 184.9688,708.2969 Q184.4844,709.0469 184.4844,710.0781 L184.4844,711.1719 Q184.4844,712.4063 185.375,713.2344 Q186.2656,714.0469 187.8594,714.0469 Q188.7969,714.0469 189.4531,713.7969 Q189.8438,713.6406 190.2656,713.2031 Q190.5313,712.9375 190.6719,712.8594 Q190.8281,712.7813 191.0313,712.7813 Q191.3594,712.7813 191.6094,713.0469 Q191.875,713.2969 191.875,713.6406 Q191.875,713.9844 191.5313,714.3906 Q191.0313,714.9688 190.2344,715.2969 Q189.1563,715.75 187.8594,715.75 Q186.3438,715.75 185.1406,715.125 Q184.1563,714.625 183.4688,713.5625 Q182.7813,712.4844 182.7813,711.2031 L182.7813,710.0469 Q182.7813,708.7188 183.3906,707.5781 Q184.0156,706.4219 185.1094,705.8125 Q186.2031,705.1875 187.4375,705.1875 Q188.1719,705.1875 188.8125,705.3594 Q189.4688,705.5156 190.0156,705.875 Z " fill="#000000"/><text fill="#000000" font-family="sans-serif" font-size="14" lengthAdjust="spacing" textLength="56" x="207.75" y="715.7285">Annonce</text><line style="stroke:#181818;stroke-width:0.5;" x1="140.5" x2="298.5" y1="726" y2="726"/><text fill="#000000" font-family="sans-serif" font-size="14" lengthAdjust="spacing" textLength="99" x="145.5" y="744.5332">-idAnnonce : int</text><text fill="#000000" font-family="sans-serif" font-size="14" lengthAdjust="spacing" textLength="135" x="145.5" y="762.1426">-typeAnnonce : string</text><text fill="#000000" font-family="sans-serif" font-size="14" lengthAdjust="spacing" textLength="76" x="145.5" y="779.752">-titre : string</text><text fill="#000000" font-family="sans-serif" font-size="14" lengthAdjust="spacing" textLength="121" x="145.5" y="797.3613">-description : string</text><text fill="#000000" font-family="sans-serif" font-size="14" lengthAdjust="spacing" textLength="114" x="145.5" y="814.9707">-prixUnitaire : float</text><text fill="#000000" font-family="sans-serif" font-size="14" lengthAdjust="spacing" textLength="83" x="145.5" y="832.5801">-quantite : int</text><text fill="#000000" font-family="sans-serif" font-size="14" lengthAdjust="spacing" textLength="78" x="145.5" y="850.1895">-poids : float</text><text fill="#000000" font-family="sans-serif" font-size="14" lengthAdjust="spacing" textLength="61" x="145.5" y="867.7988">-mois : int</text><text fill="#000000" font-family="sans-serif" font-size="14" lengthAdjust="spacing" textLength="148" x="145.5" y="885.4082">-uniteDeMesure : string</text><text fill="#000000" font-family="sans-serif" font-size="14" lengthAdjust="spacing" textLength="98" x="145.5" y="903.0176">-image1 : string</text><text fill="#000000" font-family="sans-serif" font-size="14" lengthAdjust="spacing" textLength="98" x="145.5" y="920.627">-image2 : string</text><text fill="#000000" font-family="sans-serif" font-size="14" lengthAdjust="spacing" textLength="87" x="145.5" y="938.2363">-statut : string</text><text fill="#000000" font-family="sans-serif" font-size="14" lengthAdjust="spacing" textLength="115" x="145.5" y="955.8457">-motifRejet : string</text><text fill="#000000" font-family="sans-serif" font-size="14" lengthAdjust="spacing" textLength="76" x="145.5" y="973.4551">-etat : string</text><line style="stroke:#181818;stroke-width:0.5;" x1="140.5" x2="298.5" y1="980.5313" y2="980.5313"/><text fill="#000000" font-family="sans-serif" font-size="14" lengthAdjust="spacing" textLength="61" x="145.5" y="999.0645">+publier()</text><text fill="#000000" font-family="sans-serif" font-size="14" lengthAdjust="spacing" textLength="83" x="145.5" y="1016.6738">+approuver()</text><text fill="#000000" font-family="sans-serif" font-size="14" lengthAdjust="spacing" textLength="89" x="145.5" y="1034.2832">+rejeter(motif)</text></g><!--class ReductionAnnonce--><g id="elem_ReductionAnnonce"><rect codeLine="101" fill="#F1F1F1" height="118.4375" id="ReductionAnnonce" rx="2.5" ry="2.5" style="stroke:#181818;stroke-width:0.5;" width="221" x="28" y="1233.5"/><ellipse cx="74.25" cy="1249.5" fill="#ADD1B2" rx="11" ry="11" style="stroke:#181818;stroke-width:1.0;"/><path d="M77.0156,1245.375 Q77.1719,1245.1563 77.3594,1245.0469 Q77.5469,1244.9375 77.7656,1244.9375 Q78.1406,1244.9375 78.375,1245.2031 Q78.6094,1245.4531 78.6094,1246.0625 L78.6094,1247.5156 Q78.6094,1248.125 78.375,1248.3906 Q78.1406,1248.6563 77.7656,1248.6563 Q77.4219,1248.6563 77.2188,1248.4531 Q77.0156,1248.2656 76.9063,1247.75 Q76.8594,1247.3906 76.6719,1247.2031 Q76.3438,1246.8281 75.7344,1246.6094 Q75.125,1246.3906 74.5,1246.3906 Q73.7344,1246.3906 73.0938,1246.7188 Q72.4688,1247.0469 71.9688,1247.7969 Q71.4844,1248.5469 71.4844,1249.5781 L71.4844,1250.6719 Q71.4844,1251.9063 72.375,1252.7344 Q73.2656,1253.5469 74.8594,1253.5469 Q75.7969,1253.5469 76.4531,1253.2969 Q76.8438,1253.1406 77.2656,1252.7031 Q77.5313,1252.4375 77.6719,1252.3594 Q77.8281,1252.2813 78.0313,1252.2813 Q78.3594,1252.2813 78.6094,1252.5469 Q78.875,1252.7969 78.875,1253.1406 Q78.875,1253.4844 78.5313,1253.8906 Q78.0313,1254.4688 77.2344,1254.7969 Q76.1563,1255.25 74.8594,1255.25 Q73.3438,1255.25 72.1406,1254.625 Q71.1563,1254.125 70.4688,1253.0625 Q69.7813,1251.9844 69.7813,1250.7031 L69.7813,1249.5469 Q69.7813,1248.2188 70.3906,1247.0781 Q71.0156,1245.9219 72.1094,1245.3125 Q73.2031,1244.6875 74.4375,1244.6875 Q75.1719,1244.6875 75.8125,1244.8594 Q76.4688,1245.0156 77.0156,1245.375 Z " fill="#000000"/><text fill="#000000" font-family="sans-serif" font-size="14" lengthAdjust="spacing" textLength="120" x="94.75" y="1255.2285">ReductionAnnonce</text><line style="stroke:#181818;stroke-width:0.5;" x1="29" x2="248" y1="1265.5" y2="1265.5"/><text fill="#000000" font-family="sans-serif" font-size="14" lengthAdjust="spacing" textLength="107" x="34" y="1284.0332">-idReduction : int</text><text fill="#000000" font-family="sans-serif" font-size="14" lengthAdjust="spacing" textLength="105" x="34" y="1301.6426">-quantiteMin : int</text><text fill="#000000" font-family="sans-serif" font-size="14" lengthAdjust="spacing" textLength="108" x="34" y="1319.252">-quantiteMax : int</text><text fill="#000000" font-family="sans-serif" font-size="14" lengthAdjust="spacing" textLength="209" x="34" y="1336.8613">-pourcentageReduction : decimal</text><line style="stroke:#181818;stroke-width:0.5;" x1="29" x2="248" y1="1343.9375" y2="1343.9375"/></g><!--class Abonnement--><g id="elem_Abonnement"><rect codeLine="107" fill="#F1F1F1" height="153.6563" id="Abonnement" rx="2.5" ry="2.5" style="stroke:#181818;stroke-width:0.5;" width="147" x="1299" y="790.5"/><ellipse cx="1329.75" cy="806.5" fill="#ADD1B2" rx="11" ry="11" style="stroke:#181818;stroke-width:1.0;"/><path d="M1332.5156,802.375 Q1332.6719,802.1563 1332.8594,802.0469 Q1333.0469,801.9375 1333.2656,801.9375 Q1333.6406,801.9375 1333.875,802.2031 Q1334.1094,802.4531 1334.1094,803.0625 L1334.1094,804.5156 Q1334.1094,805.125 1333.875,805.3906 Q1333.6406,805.6563 1333.2656,805.6563 Q1332.9219,805.6563 1332.7188,805.4531 Q1332.5156,805.2656 1332.4063,804.75 Q1332.3594,804.3906 1332.1719,804.2031 Q1331.8438,803.8281 1331.2344,803.6094 Q1330.625,803.3906 1330,803.3906 Q1329.2344,803.3906 1328.5938,803.7188 Q1327.9688,804.0469 1327.4688,804.7969 Q1326.9844,805.5469 1326.9844,806.5781 L1326.9844,807.6719 Q1326.9844,808.9063 1327.875,809.7344 Q1328.7656,810.5469 1330.3594,810.5469 Q1331.2969,810.5469 1331.9531,810.2969 Q1332.3438,810.1406 1332.7656,809.7031 Q1333.0313,809.4375 1333.1719,809.3594 Q1333.3281,809.2813 1333.5313,809.2813 Q1333.8594,809.2813 1334.1094,809.5469 Q1334.375,809.7969 1334.375,810.1406 Q1334.375,810.4844 1334.0313,810.8906 Q1333.5313,811.4688 1332.7344,811.7969 Q1331.6563,812.25 1330.3594,812.25 Q1328.8438,812.25 1327.6406,811.625 Q1326.6563,811.125 1325.9688,810.0625 Q1325.2813,808.9844 1325.2813,807.7031 L1325.2813,806.5469 Q1325.2813,805.2188 1325.8906,804.0781 Q1326.5156,802.9219 1327.6094,802.3125 Q1328.7031,801.6875 1329.9375,801.6875 Q1330.6719,801.6875 1331.3125,801.8594 Q1331.9688,802.0156 1332.5156,802.375 Z " fill="#000000"/><text fill="#000000" font-family="sans-serif" font-size="14" lengthAdjust="spacing" textLength="80" x="1347.25" y="812.2285">Abonnement</text><line style="stroke:#181818;stroke-width:0.5;" x1="1300" x2="1445" y1="822.5" y2="822.5"/><text fill="#000000" font-family="sans-serif" font-size="14" lengthAdjust="spacing" textLength="123" x="1305" y="841.0332">-idAbonnement : int</text><text fill="#000000" font-family="sans-serif" font-size="14" lengthAdjust="spacing" textLength="99" x="1305" y="858.6426">-formule : string</text><text fill="#000000" font-family="sans-serif" font-size="14" lengthAdjust="spacing" textLength="111" x="1305" y="876.252">-dateDebut : date</text><text fill="#000000" font-family="sans-serif" font-size="14" lengthAdjust="spacing" textLength="135" x="1305" y="893.8613">-dateExpiration : date</text><text fill="#000000" font-family="sans-serif" font-size="14" lengthAdjust="spacing" textLength="87" x="1305" y="911.4707">-statut : string</text><line style="stroke:#181818;stroke-width:0.5;" x1="1300" x2="1445" y1="918.5469" y2="918.5469"/><text fill="#000000" font-family="sans-serif" font-size="14" lengthAdjust="spacing" textLength="86" x="1305" y="937.0801">+renouveler()</text></g><!--class Commande--><g id="elem_Commande"><rect codeLine="115" fill="#F1F1F1" height="347.3594" id="Commande" rx="2.5" ry="2.5" style="stroke:#181818;stroke-width:0.5;" width="209" x="284" y="1119"/><ellipse cx="348.25" cy="1135" fill="#ADD1B2" rx="11" ry="11" style="stroke:#181818;stroke-width:1.0;"/><path d="M351.0156,1130.875 Q351.1719,1130.6563 351.3594,1130.5469 Q351.5469,1130.4375 351.7656,1130.4375 Q352.1406,1130.4375 352.375,1130.7031 Q352.6094,1130.9531 352.6094,1131.5625 L352.6094,1133.0156 Q352.6094,1133.625 352.375,1133.8906 Q352.1406,1134.1563 351.7656,1134.1563 Q351.4219,1134.1563 351.2188,1133.9531 Q351.0156,1133.7656 350.9063,1133.25 Q350.8594,1132.8906 350.6719,1132.7031 Q350.3438,1132.3281 349.7344,1132.1094 Q349.125,1131.8906 348.5,1131.8906 Q347.7344,1131.8906 347.0938,1132.2188 Q346.4688,1132.5469 345.9688,1133.2969 Q345.4844,1134.0469 345.4844,1135.0781 L345.4844,1136.1719 Q345.4844,1137.4063 346.375,1138.2344 Q347.2656,1139.0469 348.8594,1139.0469 Q349.7969,1139.0469 350.4531,1138.7969 Q350.8438,1138.6406 351.2656,1138.2031 Q351.5313,1137.9375 351.6719,1137.8594 Q351.8281,1137.7813 352.0313,1137.7813 Q352.3594,1137.7813 352.6094,1138.0469 Q352.875,1138.2969 352.875,1138.6406 Q352.875,1138.9844 352.5313,1139.3906 Q352.0313,1139.9688 351.2344,1140.2969 Q350.1563,1140.75 348.8594,1140.75 Q347.3438,1140.75 346.1406,1140.125 Q345.1563,1139.625 344.4688,1138.5625 Q343.7813,1137.4844 343.7813,1136.2031 L343.7813,1135.0469 Q343.7813,1133.7188 344.3906,1132.5781 Q345.0156,1131.4219 346.1094,1130.8125 Q347.2031,1130.1875 348.4375,1130.1875 Q349.1719,1130.1875 349.8125,1130.3594 Q350.4688,1130.5156 351.0156,1130.875 Z " fill="#000000"/><text fill="#000000" font-family="sans-serif" font-size="14" lengthAdjust="spacing" textLength="72" x="368.75" y="1140.7285">Commande</text><line style="stroke:#181818;stroke-width:0.5;" x1="285" x2="492" y1="1151" y2="1151"/><text fill="#000000" font-family="sans-serif" font-size="14" lengthAdjust="spacing" textLength="115" x="290" y="1169.5332">-idCommande : int</text><text fill="#000000" font-family="sans-serif" font-size="14" lengthAdjust="spacing" textLength="83" x="290" y="1187.1426">-quantite : int</text><text fill="#000000" font-family="sans-serif" font-size="14" lengthAdjust="spacing" textLength="114" x="290" y="1204.752">-prixUnitaire : float</text><text fill="#000000" font-family="sans-serif" font-size="14" lengthAdjust="spacing" textLength="127" x="290" y="1222.3613">-montantTotal : float</text><text fill="#000000" font-family="sans-serif" font-size="14" lengthAdjust="spacing" textLength="197" x="290" y="1239.9707">-reductionSurCommande : float</text><text fill="#000000" font-family="sans-serif" font-size="14" lengthAdjust="spacing" textLength="188" x="290" y="1257.5801">-montantNetCommande : float</text><text fill="#000000" font-family="sans-serif" font-size="14" lengthAdjust="spacing" textLength="87" x="290" y="1275.1895">-statut : string</text><text fill="#000000" font-family="sans-serif" font-size="14" lengthAdjust="spacing" textLength="133" x="290" y="1292.7988">-motifDeRejet : string</text><text fill="#000000" font-family="sans-serif" font-size="14" lengthAdjust="spacing" textLength="121" x="290" y="1310.4082">-description : string</text><text fill="#000000" font-family="sans-serif" font-size="14" lengthAdjust="spacing" textLength="168" x="290" y="1328.0176">-noteClientCommande : int</text><text fill="#000000" font-family="sans-serif" font-size="14" lengthAdjust="spacing" textLength="185" x="290" y="1345.627">-avisClientCommande : string</text><text fill="#000000" font-family="sans-serif" font-size="14" lengthAdjust="spacing" textLength="157" x="290" y="1363.2363">-codeAuthenticite : string</text><line style="stroke:#181818;stroke-width:0.5;" x1="285" x2="492" y1="1370.3125" y2="1370.3125"/><text fill="#000000" font-family="sans-serif" font-size="14" lengthAdjust="spacing" textLength="54" x="290" y="1388.8457">+payer()</text><text fill="#000000" font-family="sans-serif" font-size="14" lengthAdjust="spacing" textLength="60" x="290" y="1406.4551">+valider()</text><text fill="#000000" font-family="sans-serif" font-size="14" lengthAdjust="spacing" textLength="66" x="290" y="1424.0645">+annuler()</text><text fill="#000000" font-family="sans-serif" font-size="14" lengthAdjust="spacing" textLength="93" x="290" y="1441.6738">+refuser(motif)</text><text fill="#000000" font-family="sans-serif" font-size="14" lengthAdjust="spacing" textLength="156" x="290" y="1459.2832">+confirmer(codeScanne)</text></g><!--class Paiement--><g id="elem_Paiement"><rect codeLine="134" fill="#F1F1F1" height="294.5313" id="Paiement" rx="2.5" ry="2.5" style="stroke:#181818;stroke-width:0.5;" width="251" x="74" y="1544"/><ellipse cx="165.75" cy="1560" fill="#ADD1B2" rx="11" ry="11" style="stroke:#181818;stroke-width:1.0;"/><path d="M168.5156,1555.875 Q168.6719,1555.6563 168.8594,1555.5469 Q169.0469,1555.4375 169.2656,1555.4375 Q169.6406,1555.4375 169.875,1555.7031 Q170.1094,1555.9531 170.1094,1556.5625 L170.1094,1558.0156 Q170.1094,1558.625 169.875,1558.8906 Q169.6406,1559.1563 169.2656,1559.1563 Q168.9219,1559.1563 168.7188,1558.9531 Q168.5156,1558.7656 168.4063,1558.25 Q168.3594,1557.8906 168.1719,1557.7031 Q167.8438,1557.3281 167.2344,1557.1094 Q166.625,1556.8906 166,1556.8906 Q165.2344,1556.8906 164.5938,1557.2188 Q163.9688,1557.5469 163.4688,1558.2969 Q162.9844,1559.0469 162.9844,1560.0781 L162.9844,1561.1719 Q162.9844,1562.4063 163.875,1563.2344 Q164.7656,1564.0469 166.3594,1564.0469 Q167.2969,1564.0469 167.9531,1563.7969 Q168.3438,1563.6406 168.7656,1563.2031 Q169.0313,1562.9375 169.1719,1562.8594 Q169.3281,1562.7813 169.5313,1562.7813 Q169.8594,1562.7813 170.1094,1563.0469 Q170.375,1563.2969 170.375,1563.6406 Q170.375,1563.9844 170.0313,1564.3906 Q169.5313,1564.9688 168.7344,1565.2969 Q167.6563,1565.75 166.3594,1565.75 Q164.8438,1565.75 163.6406,1565.125 Q162.6563,1564.625 161.9688,1563.5625 Q161.2813,1562.4844 161.2813,1561.2031 L161.2813,1560.0469 Q161.2813,1558.7188 161.8906,1557.5781 Q162.5156,1556.4219 163.6094,1555.8125 Q164.7031,1555.1875 165.9375,1555.1875 Q166.6719,1555.1875 167.3125,1555.3594 Q167.9688,1555.5156 168.5156,1555.875 Z " fill="#000000"/><text fill="#000000" font-family="sans-serif" font-size="14" lengthAdjust="spacing" textLength="59" x="186.25" y="1565.7285">Paiement</text><line style="stroke:#181818;stroke-width:0.5;" x1="75" x2="324" y1="1576" y2="1576"/><text fill="#000000" font-family="sans-serif" font-size="14" lengthAdjust="spacing" textLength="102" x="80" y="1594.5332">-idPaiement : int</text><text fill="#000000" font-family="sans-serif" font-size="14" lengthAdjust="spacing" textLength="188" x="80" y="1612.1426">-montantNetCommande : float</text><text fill="#000000" font-family="sans-serif" font-size="14" lengthAdjust="spacing" textLength="173" x="80" y="1629.752">-montantNetLivraison : float</text><text fill="#000000" font-family="sans-serif" font-size="14" lengthAdjust="spacing" textLength="122" x="80" y="1647.3613">-totalGeneral : float</text><text fill="#000000" font-family="sans-serif" font-size="14" lengthAdjust="spacing" textLength="171" x="80" y="1664.9707">-moyenDePaiement : string</text><text fill="#000000" font-family="sans-serif" font-size="14" lengthAdjust="spacing" textLength="167" x="80" y="1682.5801">-numeroDeCompte : string</text><text fill="#000000" font-family="sans-serif" font-size="14" lengthAdjust="spacing" textLength="211" x="80" y="1700.1895">-commissionSurCommande : float</text><text fill="#000000" font-family="sans-serif" font-size="14" lengthAdjust="spacing" textLength="196" x="80" y="1717.7988">-commissionSurLivraison : float</text><text fill="#000000" font-family="sans-serif" font-size="14" lengthAdjust="spacing" textLength="147" x="80" y="1735.4082">-totalCommission : float</text><text fill="#000000" font-family="sans-serif" font-size="14" lengthAdjust="spacing" textLength="239" x="80" y="1753.0176">-montantAVerserAuFournisseur : float</text><text fill="#000000" font-family="sans-serif" font-size="14" lengthAdjust="spacing" textLength="207" x="80" y="1770.627">-montantAVerserAuLivreur : float</text><text fill="#000000" font-family="sans-serif" font-size="14" lengthAdjust="spacing" textLength="146" x="80" y="1788.2363">-statutPaiement : string</text><line style="stroke:#181818;stroke-width:0.5;" x1="75" x2="324" y1="1795.3125" y2="1795.3125"/><text fill="#000000" font-family="sans-serif" font-size="14" lengthAdjust="spacing" textLength="79" x="80" y="1813.8457">+encaisser()</text><text fill="#000000" font-family="sans-serif" font-size="14" lengthAdjust="spacing" textLength="91" x="80" y="1831.4551">+rembourser()</text></g><!--class Livraison--><g id="elem_Livraison"><rect codeLine="150" fill="#F1F1F1" height="294.5313" id="Livraison" rx="2.5" ry="2.5" style="stroke:#181818;stroke-width:0.5;" width="206" x="500.5" y="1544"/><ellipse cx="570.75" cy="1560" fill="#ADD1B2" rx="11" ry="11" style="stroke:#181818;stroke-width:1.0;"/><path d="M573.5156,1555.875 Q573.6719,1555.6563 573.8594,1555.5469 Q574.0469,1555.4375 574.2656,1555.4375 Q574.6406,1555.4375 574.875,1555.7031 Q575.1094,1555.9531 575.1094,1556.5625 L575.1094,1558.0156 Q575.1094,1558.625 574.875,1558.8906 Q574.6406,1559.1563 574.2656,1559.1563 Q573.9219,1559.1563 573.7188,1558.9531 Q573.5156,1558.7656 573.4063,1558.25 Q573.3594,1557.8906 573.1719,1557.7031 Q572.8438,1557.3281 572.2344,1557.1094 Q571.625,1556.8906 571,1556.8906 Q570.2344,1556.8906 569.5938,1557.2188 Q568.9688,1557.5469 568.4688,1558.2969 Q567.9844,1559.0469 567.9844,1560.0781 L567.9844,1561.1719 Q567.9844,1562.4063 568.875,1563.2344 Q569.7656,1564.0469 571.3594,1564.0469 Q572.2969,1564.0469 572.9531,1563.7969 Q573.3438,1563.6406 573.7656,1563.2031 Q574.0313,1562.9375 574.1719,1562.8594 Q574.3281,1562.7813 574.5313,1562.7813 Q574.8594,1562.7813 575.1094,1563.0469 Q575.375,1563.2969 575.375,1563.6406 Q575.375,1563.9844 575.0313,1564.3906 Q574.5313,1564.9688 573.7344,1565.2969 Q572.6563,1565.75 571.3594,1565.75 Q569.8438,1565.75 568.6406,1565.125 Q567.6563,1564.625 566.9688,1563.5625 Q566.2813,1562.4844 566.2813,1561.2031 L566.2813,1560.0469 Q566.2813,1558.7188 566.8906,1557.5781 Q567.5156,1556.4219 568.6094,1555.8125 Q569.7031,1555.1875 570.9375,1555.1875 Q571.6719,1555.1875 572.3125,1555.3594 Q572.9688,1555.5156 573.5156,1555.875 Z " fill="#000000"/><text fill="#000000" font-family="sans-serif" font-size="14" lengthAdjust="spacing" textLength="57" x="591.25" y="1565.7285">Livraison</text><line style="stroke:#181818;stroke-width:0.5;" x1="501.5" x2="705.5" y1="1576" y2="1576"/><text fill="#000000" font-family="sans-serif" font-size="14" lengthAdjust="spacing" textLength="100" x="506.5" y="1594.5332">-idLivraison : int</text><text fill="#000000" font-family="sans-serif" font-size="14" lengthAdjust="spacing" textLength="179" x="506.5" y="1612.1426">-adresseFournisseur : string</text><text fill="#000000" font-family="sans-serif" font-size="14" lengthAdjust="spacing" textLength="139" x="506.5" y="1629.752">-adresseClient : string</text><text fill="#000000" font-family="sans-serif" font-size="14" lengthAdjust="spacing" textLength="146" x="506.5" y="1647.3613">-fraisDeLivraison : float</text><text fill="#000000" font-family="sans-serif" font-size="14" lengthAdjust="spacing" textLength="157" x="506.5" y="1664.9707">-reductionSurFrais : float</text><text fill="#000000" font-family="sans-serif" font-size="14" lengthAdjust="spacing" textLength="173" x="506.5" y="1682.5801">-montantNetLivraison : float</text><text fill="#000000" font-family="sans-serif" font-size="14" lengthAdjust="spacing" textLength="87" x="506.5" y="1700.1895">-statut : string</text><text fill="#000000" font-family="sans-serif" font-size="14" lengthAdjust="spacing" textLength="194" x="506.5" y="1717.7988">-verificationAuthenticite : string</text><text fill="#000000" font-family="sans-serif" font-size="14" lengthAdjust="spacing" textLength="121" x="506.5" y="1735.4082">-description : string</text><text fill="#000000" font-family="sans-serif" font-size="14" lengthAdjust="spacing" textLength="153" x="506.5" y="1753.0176">-noteClientLivraison : int</text><text fill="#000000" font-family="sans-serif" font-size="14" lengthAdjust="spacing" textLength="170" x="506.5" y="1770.627">-avisClientLivraison : string</text><line style="stroke:#181818;stroke-width:0.5;" x1="501.5" x2="705.5" y1="1777.7031" y2="1777.7031"/><text fill="#000000" font-family="sans-serif" font-size="14" lengthAdjust="spacing" textLength="132" x="506.5" y="1796.2363">+prendreEnCharge()</text><text fill="#000000" font-family="sans-serif" font-size="14" lengthAdjust="spacing" textLength="70" x="506.5" y="1813.8457">+terminer()</text><text fill="#000000" font-family="sans-serif" font-size="14" lengthAdjust="spacing" textLength="147" x="506.5" y="1831.4551">+verifierQRCode(code)</text></g><!--class PlanningLivreur--><g id="elem_PlanningLivreur"><rect codeLine="166" fill="#F1F1F1" height="118.4375" id="PlanningLivreur" rx="2.5" ry="2.5" style="stroke:#181818;stroke-width:0.5;" width="149" x="917" y="808.5"/><ellipse cx="940.1" cy="824.5" fill="#ADD1B2" rx="11" ry="11" style="stroke:#181818;stroke-width:1.0;"/><path d="M942.8656,820.375 Q943.0219,820.1563 943.2094,820.0469 Q943.3969,819.9375 943.6156,819.9375 Q943.9906,819.9375 944.225,820.2031 Q944.4594,820.4531 944.4594,821.0625 L944.4594,822.5156 Q944.4594,823.125 944.225,823.3906 Q943.9906,823.6563 943.6156,823.6563 Q943.2719,823.6563 943.0688,823.4531 Q942.8656,823.2656 942.7563,822.75 Q942.7094,822.3906 942.5219,822.2031 Q942.1938,821.8281 941.5844,821.6094 Q940.975,821.3906 940.35,821.3906 Q939.5844,821.3906 938.9438,821.7188 Q938.3188,822.0469 937.8188,822.7969 Q937.3344,823.5469 937.3344,824.5781 L937.3344,825.6719 Q937.3344,826.9063 938.225,827.7344 Q939.1156,828.5469 940.7094,828.5469 Q941.6469,828.5469 942.3031,828.2969 Q942.6938,828.1406 943.1156,827.7031 Q943.3813,827.4375 943.5219,827.3594 Q943.6781,827.2813 943.8813,827.2813 Q944.2094,827.2813 944.4594,827.5469 Q944.725,827.7969 944.725,828.1406 Q944.725,828.4844 944.3813,828.8906 Q943.8813,829.4688 943.0844,829.7969 Q942.0063,830.25 940.7094,830.25 Q939.1938,830.25 937.9906,829.625 Q937.0063,829.125 936.3188,828.0625 Q935.6313,826.9844 935.6313,825.7031 L935.6313,824.5469 Q935.6313,823.2188 936.2406,822.0781 Q936.8656,820.9219 937.9594,820.3125 Q939.0531,819.6875 940.2875,819.6875 Q941.0219,819.6875 941.6625,819.8594 Q942.3188,820.0156 942.8656,820.375 Z " fill="#000000"/><text fill="#000000" font-family="sans-serif" font-size="14" lengthAdjust="spacing" textLength="99" x="955.9" y="830.2285">PlanningLivreur</text><line style="stroke:#181818;stroke-width:0.5;" x1="918" x2="1065" y1="840.5" y2="840.5"/><text fill="#000000" font-family="sans-serif" font-size="14" lengthAdjust="spacing" textLength="98" x="923" y="859.0332">-idPlanning : int</text><text fill="#000000" font-family="sans-serif" font-size="14" lengthAdjust="spacing" textLength="137" x="923" y="876.6426">-dateDebut : datetime</text><text fill="#000000" font-family="sans-serif" font-size="14" lengthAdjust="spacing" textLength="119" x="923" y="894.252">-dateFin : datetime</text><text fill="#000000" font-family="sans-serif" font-size="14" lengthAdjust="spacing" textLength="108" x="923" y="911.8613">-disponible : bool</text><line style="stroke:#181818;stroke-width:0.5;" x1="918" x2="1065" y1="918.9375" y2="918.9375"/></g><!--class ReductionLivraison--><g id="elem_ReductionLivraison"><rect codeLine="172" fill="#F1F1F1" height="118.4375" id="ReductionLivraison" rx="2.5" ry="2.5" style="stroke:#181818;stroke-width:0.5;" width="221" x="661" y="808.5"/><ellipse cx="706.75" cy="824.5" fill="#ADD1B2" rx="11" ry="11" style="stroke:#181818;stroke-width:1.0;"/><path d="M709.5156,820.375 Q709.6719,820.1563 709.8594,820.0469 Q710.0469,819.9375 710.2656,819.9375 Q710.6406,819.9375 710.875,820.2031 Q711.1094,820.4531 711.1094,821.0625 L711.1094,822.5156 Q711.1094,823.125 710.875,823.3906 Q710.6406,823.6563 710.2656,823.6563 Q709.9219,823.6563 709.7188,823.4531 Q709.5156,823.2656 709.4063,822.75 Q709.3594,822.3906 709.1719,822.2031 Q708.8438,821.8281 708.2344,821.6094 Q707.625,821.3906 707,821.3906 Q706.2344,821.3906 705.5938,821.7188 Q704.9688,822.0469 704.4688,822.7969 Q703.9844,823.5469 703.9844,824.5781 L703.9844,825.6719 Q703.9844,826.9063 704.875,827.7344 Q705.7656,828.5469 707.3594,828.5469 Q708.2969,828.5469 708.9531,828.2969 Q709.3438,828.1406 709.7656,827.7031 Q710.0313,827.4375 710.1719,827.3594 Q710.3281,827.2813 710.5313,827.2813 Q710.8594,827.2813 711.1094,827.5469 Q711.375,827.7969 711.375,828.1406 Q711.375,828.4844 711.0313,828.8906 Q710.5313,829.4688 709.7344,829.7969 Q708.6563,830.25 707.3594,830.25 Q705.8438,830.25 704.6406,829.625 Q703.6563,829.125 702.9688,828.0625 Q702.2813,826.9844 702.2813,825.7031 L702.2813,824.5469 Q702.2813,823.2188 702.8906,822.0781 Q703.5156,820.9219 704.6094,820.3125 Q705.7031,819.6875 706.9375,819.6875 Q707.6719,819.6875 708.3125,819.8594 Q708.9688,820.0156 709.5156,820.375 Z " fill="#000000"/><text fill="#000000" font-family="sans-serif" font-size="14" lengthAdjust="spacing" textLength="121" x="727.25" y="830.2285">ReductionLivraison</text><line style="stroke:#181818;stroke-width:0.5;" x1="662" x2="881" y1="840.5" y2="840.5"/><text fill="#000000" font-family="sans-serif" font-size="14" lengthAdjust="spacing" textLength="107" x="667" y="859.0332">-idReduction : int</text><text fill="#000000" font-family="sans-serif" font-size="14" lengthAdjust="spacing" textLength="105" x="667" y="876.6426">-quantiteMin : int</text><text fill="#000000" font-family="sans-serif" font-size="14" lengthAdjust="spacing" textLength="108" x="667" y="894.252">-quantiteMax : int</text><text fill="#000000" font-family="sans-serif" font-size="14" lengthAdjust="spacing" textLength="209" x="667" y="911.8613">-pourcentageReduction : decimal</text><line style="stroke:#181818;stroke-width:0.5;" x1="662" x2="881" y1="918.9375" y2="918.9375"/></g><!--class Versement--><g id="elem_Versement"><rect codeLine="178" fill="#F1F1F1" height="171.2656" id="Versement" rx="2.5" ry="2.5" style="stroke:#181818;stroke-width:0.5;" width="192" x="201.5" y="1917"/><ellipse cx="259.25" cy="1933" fill="#ADD1B2" rx="11" ry="11" style="stroke:#181818;stroke-width:1.0;"/><path d="M262.0156,1928.875 Q262.1719,1928.6563 262.3594,1928.5469 Q262.5469,1928.4375 262.7656,1928.4375 Q263.1406,1928.4375 263.375,1928.7031 Q263.6094,1928.9531 263.6094,1929.5625 L263.6094,1931.0156 Q263.6094,1931.625 263.375,1931.8906 Q263.1406,1932.1563 262.7656,1932.1563 Q262.4219,1932.1563 262.2188,1931.9531 Q262.0156,1931.7656 261.9063,1931.25 Q261.8594,1930.8906 261.6719,1930.7031 Q261.3438,1930.3281 260.7344,1930.1094 Q260.125,1929.8906 259.5,1929.8906 Q258.7344,1929.8906 258.0938,1930.2188 Q257.4688,1930.5469 256.9688,1931.2969 Q256.4844,1932.0469 256.4844,1933.0781 L256.4844,1934.1719 Q256.4844,1935.4063 257.375,1936.2344 Q258.2656,1937.0469 259.8594,1937.0469 Q260.7969,1937.0469 261.4531,1936.7969 Q261.8438,1936.6406 262.2656,1936.2031 Q262.5313,1935.9375 262.6719,1935.8594 Q262.8281,1935.7813 263.0313,1935.7813 Q263.3594,1935.7813 263.6094,1936.0469 Q263.875,1936.2969 263.875,1936.6406 Q263.875,1936.9844 263.5313,1937.3906 Q263.0313,1937.9688 262.2344,1938.2969 Q261.1563,1938.75 259.8594,1938.75 Q258.3438,1938.75 257.1406,1938.125 Q256.1563,1937.625 255.4688,1936.5625 Q254.7813,1935.4844 254.7813,1934.2031 L254.7813,1933.0469 Q254.7813,1931.7188 255.3906,1930.5781 Q256.0156,1929.4219 257.1094,1928.8125 Q258.2031,1928.1875 259.4375,1928.1875 Q260.1719,1928.1875 260.8125,1928.3594 Q261.4688,1928.5156 262.0156,1928.875 Z " fill="#000000"/><text fill="#000000" font-family="sans-serif" font-size="14" lengthAdjust="spacing" textLength="68" x="279.75" y="1938.7285">Versement</text><line style="stroke:#181818;stroke-width:0.5;" x1="202.5" x2="392.5" y1="1949" y2="1949"/><text fill="#000000" font-family="sans-serif" font-size="14" lengthAdjust="spacing" textLength="111" x="207.5" y="1967.5332">-idVersement : int</text><text fill="#000000" font-family="sans-serif" font-size="14" lengthAdjust="spacing" textLength="153" x="207.5" y="1985.1426">-typeBeneficiaire : string</text><text fill="#000000" font-family="sans-serif" font-size="14" lengthAdjust="spacing" textLength="137" x="207.5" y="2002.752">-montantVerser : float</text><text fill="#000000" font-family="sans-serif" font-size="14" lengthAdjust="spacing" textLength="180" x="207.5" y="2020.3613">-moyenDeVersement : string</text><text fill="#000000" font-family="sans-serif" font-size="14" lengthAdjust="spacing" textLength="167" x="207.5" y="2037.9707">-numeroDeCompte : string</text><text fill="#000000" font-family="sans-serif" font-size="14" lengthAdjust="spacing" textLength="155" x="207.5" y="2055.5801">-statutVersement : string</text><line style="stroke:#181818;stroke-width:0.5;" x1="202.5" x2="392.5" y1="2062.6563" y2="2062.6563"/><text fill="#000000" font-family="sans-serif" font-size="14" lengthAdjust="spacing" textLength="72" x="207.5" y="2081.1895">+executer()</text></g><!--class ServiceVeterinaire--><g id="elem_ServiceVeterinaire"><rect codeLine="187" fill="#F1F1F1" height="171.2656" id="ServiceVeterinaire" rx="2.5" ry="2.5" style="stroke:#181818;stroke-width:0.5;" width="163" x="1101" y="782"/><ellipse cx="1122.75" cy="798" fill="#ADD1B2" rx="11" ry="11" style="stroke:#181818;stroke-width:1.0;"/><path d="M1125.5156,793.875 Q1125.6719,793.6563 1125.8594,793.5469 Q1126.0469,793.4375 1126.2656,793.4375 Q1126.6406,793.4375 1126.875,793.7031 Q1127.1094,793.9531 1127.1094,794.5625 L1127.1094,796.0156 Q1127.1094,796.625 1126.875,796.8906 Q1126.6406,797.1563 1126.2656,797.1563 Q1125.9219,797.1563 1125.7188,796.9531 Q1125.5156,796.7656 1125.4063,796.25 Q1125.3594,795.8906 1125.1719,795.7031 Q1124.8438,795.3281 1124.2344,795.1094 Q1123.625,794.8906 1123,794.8906 Q1122.2344,794.8906 1121.5938,795.2188 Q1120.9688,795.5469 1120.4688,796.2969 Q1119.9844,797.0469 1119.9844,798.0781 L1119.9844,799.1719 Q1119.9844,800.4063 1120.875,801.2344 Q1121.7656,802.0469 1123.3594,802.0469 Q1124.2969,802.0469 1124.9531,801.7969 Q1125.3438,801.6406 1125.7656,801.2031 Q1126.0313,800.9375 1126.1719,800.8594 Q1126.3281,800.7813 1126.5313,800.7813 Q1126.8594,800.7813 1127.1094,801.0469 Q1127.375,801.2969 1127.375,801.6406 Q1127.375,801.9844 1127.0313,802.3906 Q1126.5313,802.9688 1125.7344,803.2969 Q1124.6563,803.75 1123.3594,803.75 Q1121.8438,803.75 1120.6406,803.125 Q1119.6563,802.625 1118.9688,801.5625 Q1118.2813,800.4844 1118.2813,799.2031 L1118.2813,798.0469 Q1118.2813,796.7188 1118.8906,795.5781 Q1119.5156,794.4219 1120.6094,793.8125 Q1121.7031,793.1875 1122.9375,793.1875 Q1123.6719,793.1875 1124.3125,793.3594 Q1124.9688,793.5156 1125.5156,793.875 Z " fill="#000000"/><text fill="#000000" font-family="sans-serif" font-size="14" lengthAdjust="spacing" textLength="116" x="1138.25" y="803.7285">ServiceVeterinaire</text><line style="stroke:#181818;stroke-width:0.5;" x1="1102" x2="1263" y1="814" y2="814"/><text fill="#000000" font-family="sans-serif" font-size="14" lengthAdjust="spacing" textLength="90" x="1107" y="832.5332">-idService : int</text><text fill="#000000" font-family="sans-serif" font-size="14" lengthAdjust="spacing" textLength="123" x="1107" y="850.1426">-titreService : string</text><text fill="#000000" font-family="sans-serif" font-size="14" lengthAdjust="spacing" textLength="121" x="1107" y="867.752">-description : string</text><text fill="#000000" font-family="sans-serif" font-size="14" lengthAdjust="spacing" textLength="66" x="1107" y="885.3613">-prix : float</text><text fill="#000000" font-family="sans-serif" font-size="14" lengthAdjust="spacing" textLength="138" x="1107" y="902.9707">-tempsTraitement : int</text><text fill="#000000" font-family="sans-serif" font-size="14" lengthAdjust="spacing" textLength="151" x="1107" y="920.5801">-photoIllustrative : string</text><text fill="#000000" font-family="sans-serif" font-size="14" lengthAdjust="spacing" textLength="134" x="1107" y="938.1895">-statutService : string</text><line style="stroke:#181818;stroke-width:0.5;" x1="1102" x2="1263" y1="945.2656" y2="945.2656"/></g><!--class RendezVous--><g id="elem_RendezVous"><rect codeLine="196" fill="#F1F1F1" height="276.9219" id="RendezVous" rx="2.5" ry="2.5" style="stroke:#181818;stroke-width:0.5;" width="133" x="1116" y="1154"/><ellipse cx="1140.45" cy="1170" fill="#ADD1B2" rx="11" ry="11" style="stroke:#181818;stroke-width:1.0;"/><path d="M1143.2156,1165.875 Q1143.3719,1165.6563 1143.5594,1165.5469 Q1143.7469,1165.4375 1143.9656,1165.4375 Q1144.3406,1165.4375 1144.575,1165.7031 Q1144.8094,1165.9531 1144.8094,1166.5625 L1144.8094,1168.0156 Q1144.8094,1168.625 1144.575,1168.8906 Q1144.3406,1169.1563 1143.9656,1169.1563 Q1143.6219,1169.1563 1143.4188,1168.9531 Q1143.2156,1168.7656 1143.1063,1168.25 Q1143.0594,1167.8906 1142.8719,1167.7031 Q1142.5438,1167.3281 1141.9344,1167.1094 Q1141.325,1166.8906 1140.7,1166.8906 Q1139.9344,1166.8906 1139.2938,1167.2188 Q1138.6688,1167.5469 1138.1688,1168.2969 Q1137.6844,1169.0469 1137.6844,1170.0781 L1137.6844,1171.1719 Q1137.6844,1172.4063 1138.575,1173.2344 Q1139.4656,1174.0469 1141.0594,1174.0469 Q1141.9969,1174.0469 1142.6531,1173.7969 Q1143.0438,1173.6406 1143.4656,1173.2031 Q1143.7313,1172.9375 1143.8719,1172.8594 Q1144.0281,1172.7813 1144.2313,1172.7813 Q1144.5594,1172.7813 1144.8094,1173.0469 Q1145.075,1173.2969 1145.075,1173.6406 Q1145.075,1173.9844 1144.7313,1174.3906 Q1144.2313,1174.9688 1143.4344,1175.2969 Q1142.3563,1175.75 1141.0594,1175.75 Q1139.5438,1175.75 1138.3406,1175.125 Q1137.3563,1174.625 1136.6688,1173.5625 Q1135.9813,1172.4844 1135.9813,1171.2031 L1135.9813,1170.0469 Q1135.9813,1168.7188 1136.5906,1167.5781 Q1137.2156,1166.4219 1138.3094,1165.8125 Q1139.4031,1165.1875 1140.6375,1165.1875 Q1141.3719,1165.1875 1142.0125,1165.3594 Q1142.6688,1165.5156 1143.2156,1165.875 Z " fill="#000000"/><text fill="#000000" font-family="sans-serif" font-size="14" lengthAdjust="spacing" textLength="80" x="1156.55" y="1175.7285">RendezVous</text><line style="stroke:#181818;stroke-width:0.5;" x1="1117" x2="1248" y1="1186" y2="1186"/><text fill="#000000" font-family="sans-serif" font-size="14" lengthAdjust="spacing" textLength="68" x="1122" y="1204.5332">-idRdv : int</text><text fill="#000000" font-family="sans-serif" font-size="14" lengthAdjust="spacing" textLength="82" x="1122" y="1222.1426">-sujet : string</text><text fill="#000000" font-family="sans-serif" font-size="14" lengthAdjust="spacing" textLength="121" x="1122" y="1239.752">-description : string</text><text fill="#000000" font-family="sans-serif" font-size="14" lengthAdjust="spacing" textLength="118" x="1122" y="1257.3613">-datePrevue : date</text><text fill="#000000" font-family="sans-serif" font-size="14" lengthAdjust="spacing" textLength="87" x="1122" y="1274.9707">-statut : string</text><text fill="#000000" font-family="sans-serif" font-size="14" lengthAdjust="spacing" textLength="98" x="1122" y="1292.5801">-image1 : string</text><text fill="#000000" font-family="sans-serif" font-size="14" lengthAdjust="spacing" textLength="98" x="1122" y="1310.1895">-image2 : string</text><text fill="#000000" font-family="sans-serif" font-size="14" lengthAdjust="spacing" textLength="86" x="1122" y="1327.7988">-video : string</text><text fill="#000000" font-family="sans-serif" font-size="14" lengthAdjust="spacing" textLength="96" x="1122" y="1345.4082">-noteClient : int</text><text fill="#000000" font-family="sans-serif" font-size="14" lengthAdjust="spacing" textLength="113" x="1122" y="1363.0176">-avisClient : string</text><line style="stroke:#181818;stroke-width:0.5;" x1="1117" x2="1248" y1="1370.0938" y2="1370.0938"/><text fill="#000000" font-family="sans-serif" font-size="14" lengthAdjust="spacing" textLength="77" x="1122" y="1388.627">+confirmer()</text><text fill="#000000" font-family="sans-serif" font-size="14" lengthAdjust="spacing" textLength="63" x="1122" y="1406.2363">+refuser()</text><text fill="#000000" font-family="sans-serif" font-size="14" lengthAdjust="spacing" textLength="65" x="1122" y="1423.8457">+realiser()</text></g><!--class Notification--><g id="elem_Notification"><rect codeLine="211" fill="#F1F1F1" height="136.0469" id="Notification" rx="2.5" ry="2.5" style="stroke:#181818;stroke-width:0.5;" width="165" x="1269" y="388.5"/><ellipse cx="1312.8" cy="404.5" fill="#ADD1B2" rx="11" ry="11" style="stroke:#181818;stroke-width:1.0;"/><path d="M1315.5656,400.375 Q1315.7219,400.1563 1315.9094,400.0469 Q1316.0969,399.9375 1316.3156,399.9375 Q1316.6906,399.9375 1316.925,400.2031 Q1317.1594,400.4531 1317.1594,401.0625 L1317.1594,402.5156 Q1317.1594,403.125 1316.925,403.3906 Q1316.6906,403.6563 1316.3156,403.6563 Q1315.9719,403.6563 1315.7688,403.4531 Q1315.5656,403.2656 1315.4563,402.75 Q1315.4094,402.3906 1315.2219,402.2031 Q1314.8938,401.8281 1314.2844,401.6094 Q1313.675,401.3906 1313.05,401.3906 Q1312.2844,401.3906 1311.6438,401.7188 Q1311.0188,402.0469 1310.5188,402.7969 Q1310.0344,403.5469 1310.0344,404.5781 L1310.0344,405.6719 Q1310.0344,406.9063 1310.925,407.7344 Q1311.8156,408.5469 1313.4094,408.5469 Q1314.3469,408.5469 1315.0031,408.2969 Q1315.3938,408.1406 1315.8156,407.7031 Q1316.0813,407.4375 1316.2219,407.3594 Q1316.3781,407.2813 1316.5813,407.2813 Q1316.9094,407.2813 1317.1594,407.5469 Q1317.425,407.7969 1317.425,408.1406 Q1317.425,408.4844 1317.0813,408.8906 Q1316.5813,409.4688 1315.7844,409.7969 Q1314.7063,410.25 1313.4094,410.25 Q1311.8938,410.25 1310.6906,409.625 Q1309.7063,409.125 1309.0188,408.0625 Q1308.3313,406.9844 1308.3313,405.7031 L1308.3313,404.5469 Q1308.3313,403.2188 1308.9406,402.0781 Q1309.5656,400.9219 1310.6594,400.3125 Q1311.7531,399.6875 1312.9875,399.6875 Q1313.7219,399.6875 1314.3625,399.8594 Q1315.0188,400.0156 1315.5656,400.375 Z " fill="#000000"/><text fill="#000000" font-family="sans-serif" font-size="14" lengthAdjust="spacing" textLength="69" x="1333.2" y="410.2285">Notification</text><line style="stroke:#181818;stroke-width:0.5;" x1="1270" x2="1433" y1="420.5" y2="420.5"/><text fill="#000000" font-family="sans-serif" font-size="14" lengthAdjust="spacing" textLength="112" x="1275" y="439.0332">-idNotification : int</text><text fill="#000000" font-family="sans-serif" font-size="14" lengthAdjust="spacing" textLength="103" x="1275" y="456.6426">-contenu : string</text><text fill="#000000" font-family="sans-serif" font-size="14" lengthAdjust="spacing" textLength="79" x="1275" y="474.252">-type : string</text><text fill="#000000" font-family="sans-serif" font-size="14" lengthAdjust="spacing" textLength="55" x="1275" y="491.8613">-lu : bool</text><text fill="#000000" font-family="sans-serif" font-size="14" lengthAdjust="spacing" textLength="153" x="1275" y="509.4707">-dateCreation : datetime</text><line style="stroke:#181818;stroke-width:0.5;" x1="1270" x2="1433" y1="516.5469" y2="516.5469"/></g><!--class Actualite--><g id="elem_Actualite"><rect codeLine="218" fill="#F1F1F1" height="118.4375" id="Actualite" rx="2.5" ry="2.5" style="stroke:#181818;stroke-width:0.5;" width="154" x="1469.5" y="397.5"/><ellipse cx="1515.25" cy="413.5" fill="#ADD1B2" rx="11" ry="11" style="stroke:#181818;stroke-width:1.0;"/><path d="M1518.0156,409.375 Q1518.1719,409.1563 1518.3594,409.0469 Q1518.5469,408.9375 1518.7656,408.9375 Q1519.1406,408.9375 1519.375,409.2031 Q1519.6094,409.4531 1519.6094,410.0625 L1519.6094,411.5156 Q1519.6094,412.125 1519.375,412.3906 Q1519.1406,412.6563 1518.7656,412.6563 Q1518.4219,412.6563 1518.2188,412.4531 Q1518.0156,412.2656 1517.9063,411.75 Q1517.8594,411.3906 1517.6719,411.2031 Q1517.3438,410.8281 1516.7344,410.6094 Q1516.125,410.3906 1515.5,410.3906 Q1514.7344,410.3906 1514.0938,410.7188 Q1513.4688,411.0469 1512.9688,411.7969 Q1512.4844,412.5469 1512.4844,413.5781 L1512.4844,414.6719 Q1512.4844,415.9063 1513.375,416.7344 Q1514.2656,417.5469 1515.8594,417.5469 Q1516.7969,417.5469 1517.4531,417.2969 Q1517.8438,417.1406 1518.2656,416.7031 Q1518.5313,416.4375 1518.6719,416.3594 Q1518.8281,416.2813 1519.0313,416.2813 Q1519.3594,416.2813 1519.6094,416.5469 Q1519.875,416.7969 1519.875,417.1406 Q1519.875,417.4844 1519.5313,417.8906 Q1519.0313,418.4688 1518.2344,418.7969 Q1517.1563,419.25 1515.8594,419.25 Q1514.3438,419.25 1513.1406,418.625 Q1512.1563,418.125 1511.4688,417.0625 Q1510.7813,415.9844 1510.7813,414.7031 L1510.7813,413.5469 Q1510.7813,412.2188 1511.3906,411.0781 Q1512.0156,409.9219 1513.1094,409.3125 Q1514.2031,408.6875 1515.4375,408.6875 Q1516.1719,408.6875 1516.8125,408.8594 Q1517.4688,409.0156 1518.0156,409.375 Z " fill="#000000"/><text fill="#000000" font-family="sans-serif" font-size="14" lengthAdjust="spacing" textLength="54" x="1535.75" y="419.2285">Actualite</text><line style="stroke:#181818;stroke-width:0.5;" x1="1470.5" x2="1622.5" y1="429.5" y2="429.5"/><text fill="#000000" font-family="sans-serif" font-size="14" lengthAdjust="spacing" textLength="97" x="1475.5" y="448.0332">-idActualite : int</text><text fill="#000000" font-family="sans-serif" font-size="14" lengthAdjust="spacing" textLength="76" x="1475.5" y="465.6426">-titre : string</text><text fill="#000000" font-family="sans-serif" font-size="14" lengthAdjust="spacing" textLength="90" x="1475.5" y="483.252">-contenu : text</text><text fill="#000000" font-family="sans-serif" font-size="14" lengthAdjust="spacing" textLength="142" x="1475.5" y="500.8613">-datePublication : date</text><line style="stroke:#181818;stroke-width:0.5;" x1="1470.5" x2="1622.5" y1="507.9375" y2="507.9375"/></g><!--reverse link Utilisateur to Eleveur--><g id="link_Utilisateur_Eleveur"><path codeLine="74" d="M688.06,271.66 C663.81,308.04 638.05,346.68 616.44,379.09 " fill="none" id="Utilisateur-backto-Eleveur" style="stroke:#181818;stroke-width:1.0;"/><polygon fill="none" points="682.53,267.33,699.45,254.57,694.18,275.1,682.53,267.33" style="stroke:#181818;stroke-width:1.0;"/></g><!--reverse link Utilisateur to Acheteur--><g id="link_Utilisateur_Acheteur"><path codeLine="75" d="M681.51,189.63 C612.56,226.75 519.53,286.26 460.5,362 C405.34,432.77 433.38,472.73 389.5,551 C383.81,561.16 376.73,571.41 369.57,580.84 " fill="none" id="Utilisateur-backto-Acheteur" style="stroke:#181818;stroke-width:1.0;"/><polygon fill="none" points="678.41,183.35,699.37,180.22,684.94,195.74,678.41,183.35" style="stroke:#181818;stroke-width:1.0;"/></g><!--reverse link Utilisateur to VendeurProvende--><g id="link_Utilisateur_VendeurProvende"><path codeLine="76" d="M679.58,168.38 C560.41,199.38 348.96,263.53 189.5,362 C177.27,369.56 165.23,378.76 153.98,388.42 " fill="none" id="Utilisateur-backto-VendeurProvende" style="stroke:#181818;stroke-width:1.0;"/><polygon fill="none" points="678.2,161.51,699.31,163.33,681.67,175.07,678.2,161.51" style="stroke:#181818;stroke-width:1.0;"/></g><!--reverse link Utilisateur to VendeurAccessoire--><g id="link_Utilisateur_VendeurAccessoire"><path codeLine="77" d="M680.24,173.63 C600.51,200.42 484.52,247.12 399.5,314 C373.33,334.58 349.82,362.68 331.32,388.41 " fill="none" id="Utilisateur-backto-VendeurAccessoire" style="stroke:#181818;stroke-width:1.0;"/><polygon fill="none" points="678.26,166.91,699.44,167.33,682.62,180.22,678.26,166.91" style="stroke:#181818;stroke-width:1.0;"/></g><!--reverse link Utilisateur to Veterinaire--><g id="link_Utilisateur_Veterinaire"><path codeLine="78" d="M854.8,275.33 C856.72,278.25 858.62,281.14 860.5,284 C877.17,309.3 895.36,336.58 912.26,361.78 " fill="none" id="Utilisateur-backto-Veterinaire" style="stroke:#181818;stroke-width:1.0;"/><polygon fill="none" points="848.82,278.98,843.72,258.41,860.53,271.31,848.82,278.98" style="stroke:#181818;stroke-width:1.0;"/></g><!--reverse link Utilisateur to Livreur--><g id="link_Utilisateur_Livreur"><path codeLine="79" d="M771.5,304.39 C771.5,337.63 771.5,370.66 771.5,397.32 " fill="none" id="Utilisateur-backto-Livreur" style="stroke:#181818;stroke-width:1.0;"/><polygon fill="none" points="764.5,304.28,771.5,284.28,778.5,304.28,764.5,304.28" style="stroke:#181818;stroke-width:1.0;"/></g><!--reverse link Utilisateur to Administrateur--><g id="link_Utilisateur_Administrateur"><path codeLine="80" d="M858.3,282.22 C859.03,282.82 859.76,283.41 860.5,284 C900.64,315.85 1034.73,333.78 1077.5,362 C1095.45,373.84 1112.29,390.14 1126.28,405.81 " fill="none" id="Utilisateur-backto-Administrateur" style="stroke:#181818;stroke-width:1.0;"/><polygon fill="none" points="853.51,287.32,843.6,268.59,863.03,277.06,853.51,287.32" style="stroke:#181818;stroke-width:1.0;"/></g><!--link Eleveur to Annonce--><g id="link_Eleveur_Annonce"><path codeLine="225" d="M483.46,533.52 C469.77,548.46 456.48,564.61 445.5,581 C423.12,614.41 437.84,635.48 409.5,664 C386.22,687.43 367.07,673.09 341.5,694 C326.45,706.31 312.4,720.91 299.59,736.33 " fill="none" id="Eleveur-Annonce" style="stroke:#181818;stroke-width:1.0;"/><text fill="#000000" font-family="sans-serif" font-size="13" lengthAdjust="spacing" textLength="34" x="446.5" y="627.9951">publie</text><text fill="#000000" font-family="sans-serif" font-size="13" lengthAdjust="spacing" textLength="7" x="468.8416" y="554.6182">1</text><text fill="#000000" font-family="sans-serif" font-size="13" lengthAdjust="spacing" textLength="20" x="307.6136" y="721.4299">0..*</text></g><!--link VendeurProvende to Annonce--><g id="link_VendeurProvende_Annonce"><path codeLine="226" d="M108.58,524.67 C120.28,565.16 135.78,617.69 150.5,664 C153.59,673.73 156.82,683.71 160.11,693.77 " fill="none" id="VendeurProvende-Annonce" style="stroke:#181818;stroke-width:1.0;"/><text fill="#000000" font-family="sans-serif" font-size="13" lengthAdjust="spacing" textLength="34" x="151.5" y="627.9951">publie</text><text fill="#000000" font-family="sans-serif" font-size="13" lengthAdjust="spacing" textLength="7" x="103.1867" y="546.0359">1</text><text fill="#000000" font-family="sans-serif" font-size="13" lengthAdjust="spacing" textLength="20" x="136.9658" y="683.0303">0..*</text></g><!--link VendeurAccessoire to Annonce--><g id="link_VendeurAccessoire_Annonce"><path codeLine="227" d="M234.08,524.65 C222.76,542 212.49,561.35 206.5,581 C195.61,616.71 192.25,656.1 192.93,693.92 " fill="none" id="VendeurAccessoire-Annonce" style="stroke:#181818;stroke-width:1.0;"/><text fill="#000000" font-family="sans-serif" font-size="13" lengthAdjust="spacing" textLength="34" x="207.5" y="627.9951">publie</text><text fill="#000000" font-family="sans-serif" font-size="13" lengthAdjust="spacing" textLength="7" x="221.0039" y="546.0138">1</text><text fill="#000000" font-family="sans-serif" font-size="13" lengthAdjust="spacing" textLength="20" x="171.2729" y="683.1871">0..*</text></g><!--link Annonce to ReductionAnnonce--><g id="link_Annonce_ReductionAnnonce"><path codeLine="228" d="M186.44,1041.16 C173.36,1109.47 159.21,1183.37 149.7,1233.04 " fill="none" id="Annonce-ReductionAnnonce" style="stroke:#181818;stroke-width:1.0;"/><text fill="#000000" font-family="sans-serif" font-size="13" lengthAdjust="spacing" textLength="34" x="180.5" y="1085.4951">definit</text><text fill="#000000" font-family="sans-serif" font-size="13" lengthAdjust="spacing" textLength="7" x="177.7834" y="1062.8864">1</text><text fill="#000000" font-family="sans-serif" font-size="13" lengthAdjust="spacing" textLength="20" x="129.8388" y="1222.7301">0..*</text></g><!--link Veterinaire to Abonnement--><g id="link_Veterinaire_Abonnement"><path codeLine="229" d="M1060.1,538.03 C1065.86,542.58 1071.69,546.94 1077.5,551 C1101.29,567.62 1111.04,565.39 1135.5,581 C1204.67,625.14 1228.72,631.18 1281.5,694 C1305.57,722.65 1325.81,758.7 1341.05,790.43 " fill="none" id="Veterinaire-Abonnement" style="stroke:#181818;stroke-width:1.0;"/><text fill="#000000" font-family="sans-serif" font-size="13" lengthAdjust="spacing" textLength="46" x="1254.5" y="627.9951">souscrit</text><text fill="#000000" font-family="sans-serif" font-size="13" lengthAdjust="spacing" textLength="7" x="1067.9464" y="542.0951">1</text><text fill="#000000" font-family="sans-serif" font-size="13" lengthAdjust="spacing" textLength="20" x="1316.9698" y="779.5853">0..*</text></g><!--link Veterinaire to ServiceVeterinaire--><g id="link_Veterinaire_ServiceVeterinaire"><path codeLine="230" d="M1022.86,551.08 C1058.01,620.52 1105.54,714.43 1139.58,781.69 " fill="none" id="Veterinaire-ServiceVeterinaire" style="stroke:#181818;stroke-width:1.0;"/><text fill="#000000" font-family="sans-serif" font-size="13" lengthAdjust="spacing" textLength="46" x="1080.5" y="627.9951">propose</text><text fill="#000000" font-family="sans-serif" font-size="13" lengthAdjust="spacing" textLength="7" x="1019.218" y="572.4471">1</text><text fill="#000000" font-family="sans-serif" font-size="13" lengthAdjust="spacing" textLength="20" x="1115.0322" y="771.127">0..*</text></g><!--link Acheteur to Commande--><g id="link_Acheteur_Commande"><path codeLine="232" d="M337.8,664.28 C344.93,752.52 362.15,965.55 374.54,1118.87 " fill="none" id="Acheteur-Commande" style="stroke:#181818;stroke-width:1.0;"/><text fill="#000000" font-family="sans-serif" font-size="13" lengthAdjust="spacing" textLength="35" x="368.5" y="872.9951">passe</text><text fill="#000000" font-family="sans-serif" font-size="13" lengthAdjust="spacing" textLength="7" x="330.7681" y="685.7194">1</text><text fill="#000000" font-family="sans-serif" font-size="13" lengthAdjust="spacing" textLength="20" x="353.4543" y="1108.1348">0..*</text></g><!--link Annonce to Commande--><g id="link_Annonce_Commande"><path codeLine="233" d="M284.64,1041.15 C290.94,1057.35 297.3,1073.5 303.5,1089 C307.4,1098.73 311.44,1108.71 315.54,1118.77 " fill="none" id="Annonce-Commande" style="stroke:#181818;stroke-width:1.0;"/><text fill="#000000" font-family="sans-serif" font-size="13" lengthAdjust="spacing" textLength="53" x="304.5" y="1085.4951">concerne</text><text fill="#000000" font-family="sans-serif" font-size="13" lengthAdjust="spacing" textLength="7" x="280.4331" y="1062.876">1</text><text fill="#000000" font-family="sans-serif" font-size="13" lengthAdjust="spacing" textLength="20" x="291.7809" y="1108.0303">0..*</text></g><!--link Commande to Paiement--><g id="link_Commande_Paiement"><path codeLine="234" d="M306.29,1466.19 C293.95,1492.12 281.32,1518.64 269.27,1543.96 " fill="none" id="Commande-Paiement" style="stroke:#181818;stroke-width:1.0;"/><text fill="#000000" font-family="sans-serif" font-size="13" lengthAdjust="spacing" textLength="59" x="289.5" y="1510.4951">declenche</text><text fill="#000000" font-family="sans-serif" font-size="13" lengthAdjust="spacing" textLength="7" x="295.4063" y="1487.9178">1</text><text fill="#000000" font-family="sans-serif" font-size="13" lengthAdjust="spacing" textLength="7" x="265.8941" y="1532.9715">1</text></g><!--link Commande to Livraison--><g id="link_Commande_Livraison"><path codeLine="235" d="M482.02,1466.19 C496.06,1492.12 510.43,1518.64 524.14,1543.96 " fill="none" id="Commande-Livraison" style="stroke:#181818;stroke-width:1.0;"/><text fill="#000000" font-family="sans-serif" font-size="13" lengthAdjust="spacing" textLength="39" x="503.5" y="1510.4951">genere</text><text fill="#000000" font-family="sans-serif" font-size="13" lengthAdjust="spacing" textLength="7" x="479.099" y="1487.9178">1</text><text fill="#000000" font-family="sans-serif" font-size="13" lengthAdjust="spacing" textLength="22" x="497.1984" y="1532.9715">0..1</text></g><!--link Livreur to Livraison--><g id="link_Livreur_Livraison"><path codeLine="236" d="M730.29,515.51 C700.12,561.52 661.43,628.72 643.5,694 C563.01,987.01 574.08,1346.61 589,1543.78 " fill="none" id="Livreur-Livraison" style="stroke:#181818;stroke-width:1.0;"/><text fill="#000000" font-family="sans-serif" font-size="13" lengthAdjust="spacing" textLength="39" x="585.5" y="1085.4951">assure</text><text fill="#000000" font-family="sans-serif" font-size="13" lengthAdjust="spacing" textLength="22" x="701.6006" y="537.5853">0..1</text><text fill="#000000" font-family="sans-serif" font-size="13" lengthAdjust="spacing" textLength="20" x="567.7367" y="1533.267">0..*</text></g><!--link Livreur to PlanningLivreur--><g id="link_Livreur_PlanningLivreur"><path codeLine="237" d="M803.16,515.76 C829.13,563.6 866.8,633.13 899.5,694 C919.9,731.97 942.7,774.72 960.5,808.16 " fill="none" id="Livreur-PlanningLivreur" style="stroke:#181818;stroke-width:1.0;"/><text fill="#000000" font-family="sans-serif" font-size="13" lengthAdjust="spacing" textLength="34" x="883.5" y="627.9951">definit</text><text fill="#000000" font-family="sans-serif" font-size="13" lengthAdjust="spacing" textLength="7" x="799.592" y="537.4472">1</text><text fill="#000000" font-family="sans-serif" font-size="13" lengthAdjust="spacing" textLength="20" x="935.5031" y="797.4428">0..*</text></g><!--link Livreur to ReductionLivraison--><g id="link_Livreur_ReductionLivraison"><path codeLine="238" d="M771.5,515.67 C771.5,593.41 771.5,730.4 771.5,808.2 " fill="none" id="Livreur-ReductionLivraison" style="stroke:#181818;stroke-width:1.0;"/><text fill="#000000" font-family="sans-serif" font-size="13" lengthAdjust="spacing" textLength="34" x="772.5" y="627.9951">definit</text><text fill="#000000" font-family="sans-serif" font-size="13" lengthAdjust="spacing" textLength="7" x="764.0734" y="537.3462">1</text><text fill="#000000" font-family="sans-serif" font-size="13" lengthAdjust="spacing" textLength="20" x="750.2813" y="797.4877">0..*</text></g><!--link Paiement to Versement--><g id="link_Paiement_Versement"><path codeLine="239" d="M246.06,1839.31 C254.51,1865.94 263.05,1892.87 270.68,1916.93 " fill="none" id="Paiement-Versement" style="stroke:#181818;stroke-width:1.0;"/><text fill="#000000" font-family="sans-serif" font-size="13" lengthAdjust="spacing" textLength="39" x="261.5" y="1883.4951">genere</text><text fill="#000000" font-family="sans-serif" font-size="13" lengthAdjust="spacing" textLength="7" x="241.0112" y="1859.8838">1</text><text fill="#000000" font-family="sans-serif" font-size="13" lengthAdjust="spacing" textLength="20" x="247.4007" y="1906.0954">0..*</text></g><!--link Commande to Versement--><g id="link_Commande_Versement"><path codeLine="240" d="M382.15,1466.24 C376.17,1574.07 364.63,1715.39 342.5,1839 C337.93,1864.5 331.15,1891.79 324.22,1916.59 " fill="none" id="Commande-Versement" style="stroke:#181818;stroke-width:1.0;"/><text fill="#000000" font-family="sans-serif" font-size="13" lengthAdjust="spacing" textLength="53" x="378.5" y="1696.9951">concerne</text><text fill="#000000" font-family="sans-serif" font-size="13" lengthAdjust="spacing" textLength="7" x="374.7037" y="1487.97">1</text><text fill="#000000" font-family="sans-serif" font-size="13" lengthAdjust="spacing" textLength="20" x="305.6569" y="1906.0184">0..*</text></g><!--link Eleveur to RendezVous--><g id="link_Eleveur_RendezVous"><path codeLine="242" d="M539.26,533.7 C500.33,661.85 444.04,922.76 564.5,1089 C630.71,1180.37 970.26,1252.5 1115.96,1279.74 " fill="none" id="Eleveur-RendezVous" style="stroke:#181818;stroke-width:1.0;"/><text fill="#000000" font-family="sans-serif" font-size="13" lengthAdjust="spacing" textLength="53" x="533.5" y="872.9951">demande</text><text fill="#000000" font-family="sans-serif" font-size="13" lengthAdjust="spacing" textLength="7" x="529.7042" y="554.5469">1</text><text fill="#000000" font-family="sans-serif" font-size="13" lengthAdjust="spacing" textLength="20" x="1088.0668" y="1275.1164">0..*</text></g><!--link Veterinaire to RendezVous--><g id="link_Veterinaire_RendezVous"><path codeLine="243" d="M1060.22,541.53 C1065.84,545.07 1071.62,548.27 1077.5,551 C1171.77,594.84 1212.98,542.36 1309.5,581 C1388.31,612.55 1425.14,618.27 1463.5,694 C1533.19,831.58 1526.58,900.27 1463.5,1041 C1419.86,1138.36 1317.61,1213.42 1249.24,1255.02 " fill="none" id="Veterinaire-RendezVous" style="stroke:#181818;stroke-width:1.0;"/><text fill="#000000" font-family="sans-serif" font-size="13" lengthAdjust="spacing" textLength="39" x="1513.5" y="872.9951">honore</text><text fill="#000000" font-family="sans-serif" font-size="13" lengthAdjust="spacing" textLength="7" x="1068.0771" y="563.3318">1</text><text fill="#000000" font-family="sans-serif" font-size="13" lengthAdjust="spacing" textLength="20" x="1257.1538" y="1247.8471">0..*</text></g><!--link ServiceVeterinaire to RendezVous--><g id="link_ServiceVeterinaire_RendezVous"><path codeLine="244" d="M1182.5,953.08 C1182.5,1010.47 1182.5,1087.62 1182.5,1153.78 " fill="none" id="ServiceVeterinaire-RendezVous" style="stroke:#181818;stroke-width:1.0;"/><text fill="#000000" font-family="sans-serif" font-size="13" lengthAdjust="spacing" textLength="53" x="1183.5" y="1085.4951">concerne</text><text fill="#000000" font-family="sans-serif" font-size="13" lengthAdjust="spacing" textLength="22" x="1159.5547" y="974.6208">0..1</text><text fill="#000000" font-family="sans-serif" font-size="13" lengthAdjust="spacing" textLength="20" x="1161.9531" y="1143.2631">0..*</text></g><!--link Utilisateur to Notification--><g id="link_Utilisateur_Notification"><path codeLine="246" d="M843.75,270.57 C849.04,275.48 854.62,280.01 860.5,284 C878.82,296.45 1231.8,351.88 1251.5,362 C1265.03,368.95 1278.05,378.27 1289.96,388.33 " fill="none" id="Utilisateur-Notification" style="stroke:#181818;stroke-width:1.0;"/><text fill="#000000" font-family="sans-serif" font-size="13" lengthAdjust="spacing" textLength="32" x="1101.5" y="328.4951">recoit</text><text fill="#000000" font-family="sans-serif" font-size="13" lengthAdjust="spacing" textLength="7" x="851.5617" y="280.1601">1</text><text fill="#000000" font-family="sans-serif" font-size="13" lengthAdjust="spacing" textLength="20" x="1262.1353" y="377.5107">0..*</text></g><!--link Utilisateur to Actualite--><g id="link_Utilisateur_Actualite"><path codeLine="247" d="M843.65,271.51 C848.95,276.14 854.56,280.35 860.5,284 C914.19,317 1080.01,305.83 1142.5,314 C1280.31,332.02 1327.32,299.58 1451.5,362 C1468.87,370.73 1485.07,383.8 1498.99,397.42 " fill="none" id="Utilisateur-Actualite" style="stroke:#181818;stroke-width:1.0;"/><text fill="#000000" font-family="sans-serif" font-size="13" lengthAdjust="spacing" textLength="134" x="1374.5" y="328.4951">publie {r&#244;le &#8800; acheteur}</text><text fill="#000000" font-family="sans-serif" font-size="13" lengthAdjust="spacing" textLength="7" x="851.4514" y="298.8471">1</text><text fill="#000000" font-family="sans-serif" font-size="13" lengthAdjust="spacing" textLength="20" x="1471.981" y="386.7345">0..*</text></g><!--SRC=[pLZDSjis4BxhAJW-9Ktj9ZrcUb5a9vEP9gFQYUyGkPBGaW030XedQHwWRv5ZS-yR-4tw9Fq0alWZvRY7PdgnnSLYiLZiz-q2tMzSj4onfYXhrdLBhHNV64qlIock-0Sg7YyMRDDfnKhTgnHlDQzvnpGPLNnS5CLfmQjOzhJWGZkva0s-C9cBdHEqYYOoQXYlKr4ZzJcjiHQbSaqrjNifCZ6h54rqQwQvDfMLLbJoXjMzM8hTd5p9EZFGQQQDZcMFYevMKWWgDQa73vsaaHNVSb9h9RUyXl3JOj67wQAcGmWHjdrnqzQImogN8bsg9ALXfMHwjQU6PwD2QdebtvCGkTCmkb6qFF3E1_rHqPfD3OUMGaXHqk1cXIYBYjGbuU-7QsawvshlwRBSKtIQ-drBNfHilxL7ebQoSSOY2zVMhB51EDXVOS_FfD7ydQ5lkT_CgMLP8ZiaL_yRjv0zNB3WKDV26AkvplpvW4n_AQ2DeFx7IRCZHUeAAt44QyWPCC2MgoPB6WS3_2mLDh3SM3WqS2_QuC_ye48sDTQ9Dug9hfLAJpUuakQ0dHX5QQuvZzOr4mAIOLrOXvwo2p3UIH7dS8KGSCjJFfCTEAsL50hZmPJQk9WFOhTUH6CzG1OsZeNYkxqkv3QcFapo5FD3GYkbbAf2N6w_K5UyM5z1imHaZC3dxUT28tX5ZT_gzY_y-xwmSN6wq81kHmPKj9Ku7n0p5kbfbuhczay4YNInl_sYk9i2TQjJxfbDPdiifuFo0s0LnrvKfgrjZY1z7fujS90kCnQBcB1_-ltqTAIhwS181TEH3FL75G82vrGy6gQ3GoRD-9ISziYumpdxeZH-XuBagCrBuyh2jSf45TaSRwV0QnM_UIj0vDnDsTQIzTRV6GQSwdZ1LlAgIvGQ6G7l56UE2UVqYZgJEm34xkZ9ZEp7hnKgLq7vzf9-fKnEqCqulOV3YB2sLGwGmxUo9l3bx0MqNL9bIXkPFEH-8DhY69PNV5RARf9u6LM2Jh3BsDJ8NnxjddV2OGTHCBULgZ5vOQ-OZVZ6XSp-za8KQAx6ykn7vle0syOWIhMBq-ZKM1UzIrumtNMyvMFfr4Z4GUWtKhCw6L1ZPAwCYjQOp7nDUdRuQCASqqpA7CM19P8LSaVecOqor9V9O5ozGCrBe_UsifLPvREDndkVWWUmT1KIL0XJH-cvDLr8pwHgFR1BN9MOGE6CreodQUC5mVMlH2yC-pgKZ6jxNYz8aCgEpLL2szVw5UDW6hWipr4EcrPFOjKqlElkEF14umwtLbvlRalBQrA8vj8y1mf1hrtV01xN6olzDBdcDlce854oQpOSNxF1Kbq2e-3-U4RnXdn-zJr_wkdqJj2dO3gqjSREQJvCCRQUs_5_TVPpo0APzcsQfSiZ6NylbCs6mSCi7esH1Af2A2x4Qi_KRcnsGEaee05YpaLIlrokW1a7d0WoGm-MjdL0pY2FlCcPLVCciEjpBYPYZgPGy8rZw8sKzRJ0JBFX6vKOb-C9LGH9sb0y0zPnm7mWy8HKNRhqS9dZWjZaFScWJx7PYG3O3PL69t0QclhfhODNmr2y7Ti61V5zkw6KQAXfEpJy27mMB5pTjNnPryOrRlmmkxF9wY4bnbj8I8Ng49dlpFrhbqt3jQA3kmBUKUhltuKTKAJaCUZE8ZOzkb2tqj8sVg4AfZpvMchFApuYYJ0i2kEQXCbwNkHkzcPYHXoECLfXuQWXSiWDpmR33IhqO5wIfLHUpqPlDDq4vbZRJhHC-YzSmCPdb9Cd9mKw_vF7PsVVdHIXYU_xrqN-0d4_zUXju2iJHa6gDkc3BOziSJNHYnXmcUsuKnskqdVfpo0ORYdPoWuNEVzIaqwAsWJtQdDa0v5QQOSLhg1UDghYNrJFGPGr2lb-HX4syIkkH3lR1z5Yh1s3HbW_rkrlzq4tKSohK0ZqlFvC0GbJ_6xIEJ6f3exFRJ7Jz74xageHRpqTt-7kEEr4VI-5X1Sp6J29P38l-1HVdTE5CgfGL4g4vhX-3EuU5CL7zuHH_Ft7vu8DQVZf7m00]--></g></svg>