<?xml version="1.0" encoding="us-ascii" standalone="no"?><svg xmlns="http://www.w3.org/2000/svg" xmlns:xlink="http://www.w3.org/1999/xlink" contentStyleType="text/css" height="1188.75px" preserveAspectRatio="none" style="width:2304px;height:1188px;background:#FFFFFF;" version="1.1" viewBox="0 0 2304 1188" width="2304.375px" zoomAndPan="magnify"><defs/><g><text fill="#17324D" font-family="sans-serif" font-size="37.5" font-weight="bold" lengthAdjust="spacing" textLength="515.625" x="881.25" y="57.6782">Mod&#232;le m&#233;tier d'ElevConnect</text><!--class Utilisateur--><g id="elem_Utilisateur"><rect codeLine="56" fill="#FFFFFF" height="203.3203" id="Utilisateur" rx="11.25" ry="11.25" style="stroke:#2F7D5B;stroke-width:0.9375;" width="172.5" x="224.0625" y="584.3555"/><rect fill="#E4F3EA" height="56.25" rx="11.25" ry="11.25" style="stroke:#E4F3EA;stroke-width:0.9375;" width="172.5" x="224.0625" y="584.3555"/><rect fill="#E4F3EA" height="11.25" style="stroke:#E4F3EA;stroke-width:0.9375;" width="172.5" x="224.0625" y="629.3555"/><rect codeLine="56" fill="none" height="203.3203" id="Utilisateur" rx="11.25" ry="11.25" style="stroke:#2F7D5B;stroke-width:0.9375;" width="172.5" x="224.0625" y="584.3555"/><ellipse cx="250.3125" cy="612.4805" fill="#ADD1B2" rx="18.75" ry="18.75" style="stroke:#181818;stroke-width:1.875;"/><path d="M252.9492,605.0977 Q253.1836,604.7754 253.4766,604.6289 Q253.7695,604.4531 254.0918,604.4531 Q254.6777,604.4531 255.0293,604.8633 Q255.4102,605.2441 255.4102,606.1816 L255.4102,608.4082 Q255.4102,609.375 255.0293,609.7852 Q254.6777,610.166 254.0918,610.166 Q253.5645,610.166 253.2422,609.873 Q252.9199,609.5801 252.7734,608.7891 Q252.6855,608.2324 252.4219,607.9395 Q251.8945,607.3535 250.9277,607.0313 Q249.9902,606.6797 249.0527,606.6797 Q247.8809,606.6797 246.8848,607.207 Q245.8887,607.7051 245.127,608.877 Q244.3945,610.0195 244.3945,611.6016 L244.3945,613.3008 Q244.3945,615.2051 245.7715,616.4648 Q247.1484,617.7246 249.5801,617.7246 Q251.0449,617.7246 252.0703,617.3438 Q252.6563,617.1094 253.3301,616.4355 Q253.7402,616.0254 253.9453,615.9082 Q254.1797,615.7617 254.4727,615.7617 Q255,615.7617 255.4102,616.1719 Q255.8203,616.582 255.8203,617.1094 Q255.8203,617.6367 255.2637,618.252 Q254.4727,619.1602 253.2422,619.6582 Q251.6016,620.3613 249.6094,620.3613 Q247.2656,620.3613 245.3906,619.3945 Q243.8965,618.6328 242.8125,616.9922 Q241.7578,615.3223 241.7578,613.3594 L241.7578,611.5723 Q241.7578,609.5215 242.6953,607.7637 Q243.6621,605.9766 245.3613,605.0098 Q247.0605,604.043 248.9355,604.043 Q250.0781,604.043 251.0742,604.3066 Q252.0703,604.5703 252.9492,605.0977 Z " fill="#000000"/><text fill="#17324D" font-family="sans-serif" font-size="26.25" lengthAdjust="spacing" textLength="116.25" x="274.6875" y="623.2214">Utilisateur</text><line style="stroke:#2F7D5B;stroke-width:0.9375;" x1="225.9375" x2="394.6875" y1="640.6055" y2="640.6055"/><text fill="#000000" font-family="sans-serif" font-size="26.25" lengthAdjust="spacing" textLength="20.625" x="235.3125" y="675.3552">id</text><text fill="#000000" font-family="sans-serif" font-size="26.25" lengthAdjust="spacing" textLength="50.625" x="235.3125" y="708.3728">nom</text><text fill="#000000" font-family="sans-serif" font-size="26.25" lengthAdjust="spacing" textLength="61.875" x="235.3125" y="741.3904">email</text><text fill="#000000" font-family="sans-serif" font-size="26.25" lengthAdjust="spacing" textLength="45" x="235.3125" y="774.408">role</text></g><!--class Annonce--><g id="elem_Annonce"><rect codeLine="62" fill="#FFFFFF" height="236.3379" id="Annonce" rx="11.25" ry="11.25" style="stroke:#2F7D5B;stroke-width:0.9375;" width="161.25" x="778.125" y="265.6055"/><rect fill="#E4F3EA" height="56.25" rx="11.25" ry="11.25" style="stroke:#E4F3EA;stroke-width:0.9375;" width="161.25" x="778.125" y="265.6055"/><rect fill="#E4F3EA" height="11.25" style="stroke:#E4F3EA;stroke-width:0.9375;" width="161.25" x="778.125" y="310.6055"/><rect codeLine="62" fill="none" height="236.3379" id="Annonce" rx="11.25" ry="11.25" style="stroke:#2F7D5B;stroke-width:0.9375;" width="161.25" x="778.125" y="265.6055"/><ellipse cx="804.375" cy="293.7305" fill="#ADD1B2" rx="18.75" ry="18.75" style="stroke:#181818;stroke-width:1.875;"/><path d="M807.0117,286.3477 Q807.2461,286.0254 807.5391,285.8789 Q807.832,285.7031 808.1543,285.7031 Q808.7402,285.7031 809.0918,286.1133 Q809.4727,286.4941 809.4727,287.4316 L809.4727,289.6582 Q809.4727,290.625 809.0918,291.0352 Q808.7402,291.416 808.1543,291.416 Q807.627,291.416 807.3047,291.123 Q806.9824,290.8301 806.8359,290.0391 Q806.748,289.4824 806.4844,289.1895 Q805.957,288.6035 804.9902,288.2813 Q804.0527,287.9297 803.1152,287.9297 Q801.9434,287.9297 800.9473,288.457 Q799.9512,288.9551 799.1895,290.127 Q798.457,291.2695 798.457,292.8516 L798.457,294.5508 Q798.457,296.4551 799.834,297.7148 Q801.2109,298.9746 803.6426,298.9746 Q805.1074,298.9746 806.1328,298.5938 Q806.7188,298.3594 807.3926,297.6855 Q807.8027,297.2754 808.0078,297.1582 Q808.2422,297.0117 808.5352,297.0117 Q809.0625,297.0117 809.4727,297.4219 Q809.8828,297.832 809.8828,298.3594 Q809.8828,298.8867 809.3262,299.502 Q808.5352,300.4102 807.3047,300.9082 Q805.6641,301.6113 803.6719,301.6113 Q801.3281,301.6113 799.4531,300.6445 Q797.959,299.8828 796.875,298.2422 Q795.8203,296.5723 795.8203,294.6094 L795.8203,292.8223 Q795.8203,290.7715 796.7578,289.0137 Q797.7246,287.2266 799.4238,286.2598 Q801.123,285.293 802.998,285.293 Q804.1406,285.293 805.1367,285.5566 Q806.1328,285.8203 807.0117,286.3477 Z " fill="#000000"/><text fill="#17324D" font-family="sans-serif" font-size="26.25" lengthAdjust="spacing" textLength="105" x="828.75" y="304.4714">Annonce</text><line style="stroke:#2F7D5B;stroke-width:0.9375;" x1="780" x2="937.5" y1="321.8555" y2="321.8555"/><text fill="#000000" font-family="sans-serif" font-size="26.25" lengthAdjust="spacing" textLength="20.625" x="789.375" y="356.6052">id</text><text fill="#000000" font-family="sans-serif" font-size="26.25" lengthAdjust="spacing" textLength="50.625" x="789.375" y="389.6228">type</text><text fill="#000000" font-family="sans-serif" font-size="26.25" lengthAdjust="spacing" textLength="131.25" x="789.375" y="422.6404">prixUnitaire</text><text fill="#000000" font-family="sans-serif" font-size="26.25" lengthAdjust="spacing" textLength="95.625" x="789.375" y="455.658">quantite</text><text fill="#000000" font-family="sans-serif" font-size="26.25" lengthAdjust="spacing" textLength="65.625" x="789.375" y="488.6755">statut</text></g><!--class ReductionAnnonce--><g id="elem_ReductionAnnonce"><rect codeLine="69" fill="#FFFFFF" height="137.2852" id="ReductionAnnonce" rx="11.25" ry="11.25" style="stroke:#2F7D5B;stroke-width:0.9375;" width="281.25" x="1108.125" y="274.043"/><rect fill="#E4F3EA" height="56.25" rx="11.25" ry="11.25" style="stroke:#E4F3EA;stroke-width:0.9375;" width="281.25" x="1108.125" y="274.043"/><rect fill="#E4F3EA" height="11.25" style="stroke:#E4F3EA;stroke-width:0.9375;" width="281.25" x="1108.125" y="319.043"/><rect codeLine="69" fill="none" height="137.2852" id="ReductionAnnonce" rx="11.25" ry="11.25" style="stroke:#2F7D5B;stroke-width:0.9375;" width="281.25" x="1108.125" y="274.043"/><ellipse cx="1134.375" cy="302.168" fill="#ADD1B2" rx="18.75" ry="18.75" style="stroke:#181818;stroke-width:1.875;"/><path d="M1137.0117,294.7852 Q1137.2461,294.4629 1137.5391,294.3164 Q1137.832,294.1406 1138.1543,294.1406 Q1138.7402,294.1406 1139.0918,294.5508 Q1139.4727,294.9316 1139.4727,295.8691 L1139.4727,298.0957 Q1139.4727,299.0625 1139.0918,299.4727 Q1138.7402,299.8535 1138.1543,299.8535 Q1137.627,299.8535 1137.3047,299.5605 Q1136.9824,299.2676 1136.8359,298.4766 Q1136.748,297.9199 1136.4844,297.627 Q1135.957,297.041 1134.9902,296.7188 Q1134.0527,296.3672 1133.1152,296.3672 Q1131.9434,296.3672 1130.9473,296.8945 Q1129.9512,297.3926 1129.1895,298.5645 Q1128.457,299.707 1128.457,301.2891 L1128.457,302.9883 Q1128.457,304.8926 1129.834,306.1523 Q1131.2109,307.4121 1133.6426,307.4121 Q1135.1074,307.4121 1136.1328,307.0313 Q1136.7188,306.7969 1137.3926,306.123 Q1137.8027,305.7129 1138.0078,305.5957 Q1138.2422,305.4492 1138.5352,305.4492 Q1139.0625,305.4492 1139.4727,305.8594 Q1139.8828,306.2695 1139.8828,306.7969 Q1139.8828,307.3242 1139.3262,307.9395 Q1138.5352,308.8477 1137.3047,309.3457 Q1135.6641,310.0488 1133.6719,310.0488 Q1131.3281,310.0488 1129.4531,309.082 Q1127.959,308.3203 1126.875,306.6797 Q1125.8203,305.0098 1125.8203,303.0469 L1125.8203,301.2598 Q1125.8203,299.209 1126.7578,297.4512 Q1127.7246,295.6641 1129.4238,294.6973 Q1131.123,293.7305 1132.998,293.7305 Q1134.1406,293.7305 1135.1367,293.9941 Q1136.1328,294.2578 1137.0117,294.7852 Z " fill="#000000"/><text fill="#17324D" font-family="sans-serif" font-size="26.25" lengthAdjust="spacing" textLength="225" x="1158.75" y="312.9089">ReductionAnnonce</text><line style="stroke:#2F7D5B;stroke-width:0.9375;" x1="1110" x2="1387.5" y1="330.293" y2="330.293"/><text fill="#000000" font-family="sans-serif" font-size="26.25" lengthAdjust="spacing" textLength="136.875" x="1119.375" y="365.0427">quantiteMin</text><text fill="#000000" font-family="sans-serif" font-size="26.25" lengthAdjust="spacing" textLength="150" x="1119.375" y="398.0603">pourcentage</text></g><!--class Commande--><g id="elem_Commande"><rect codeLine="73" fill="#FFFFFF" height="236.3379" id="Commande" rx="11.25" ry="11.25" style="stroke:#2F7D5B;stroke-width:0.9375;" width="191.25" x="1153.125" y="477.4805"/><rect fill="#E4F3EA" height="56.25" rx="11.25" ry="11.25" style="stroke:#E4F3EA;stroke-width:0.9375;" width="191.25" x="1153.125" y="477.4805"/><rect fill="#E4F3EA" height="11.25" style="stroke:#E4F3EA;stroke-width:0.9375;" width="191.25" x="1153.125" y="522.4805"/><rect codeLine="73" fill="none" height="236.3379" id="Commande" rx="11.25" ry="11.25" style="stroke:#2F7D5B;stroke-width:0.9375;" width="191.25" x="1153.125" y="477.4805"/><ellipse cx="1179.375" cy="505.6055" fill="#ADD1B2" rx="18.75" ry="18.75" style="stroke:#181818;stroke-width:1.875;"/><path d="M1182.0117,498.2227 Q1182.2461,497.9004 1182.5391,497.7539 Q1182.832,497.5781 1183.1543,497.5781 Q1183.7402,497.5781 1184.0918,497.9883 Q1184.4727,498.3691 1184.4727,499.3066 L1184.4727,501.5332 Q1184.4727,502.5 1184.0918,502.9102 Q1183.7402,503.291 1183.1543,503.291 Q1182.627,503.291 1182.3047,502.998 Q1181.9824,502.7051 1181.8359,501.9141 Q1181.748,501.3574 1181.4844,501.0645 Q1180.957,500.4785 1179.9902,500.1563 Q1179.0527,499.8047 1178.1152,499.8047 Q1176.9434,499.8047 1175.9473,500.332 Q1174.9512,500.8301 1174.1895,502.002 Q1173.457,503.1445 1173.457,504.7266 L1173.457,506.4258 Q1173.457,508.3301 1174.834,509.5898 Q1176.2109,510.8496 1178.6426,510.8496 Q1180.1074,510.8496 1181.1328,510.4688 Q1181.7188,510.2344 1182.3926,509.5605 Q1182.8027,509.1504 1183.0078,509.0332 Q1183.2422,508.8867 1183.5352,508.8867 Q1184.0625,508.8867 1184.4727,509.2969 Q1184.8828,509.707 1184.8828,510.2344 Q1184.8828,510.7617 1184.3262,511.377 Q1183.5352,512.2852 1182.3047,512.7832 Q1180.6641,513.4863 1178.6719,513.4863 Q1176.3281,513.4863 1174.4531,512.5195 Q1172.959,511.7578 1171.875,510.1172 Q1170.8203,508.4473 1170.8203,506.4844 L1170.8203,504.6973 Q1170.8203,502.6465 1171.7578,500.8887 Q1172.7246,499.1016 1174.4238,498.1348 Q1176.123,497.168 1177.998,497.168 Q1179.1406,497.168 1180.1367,497.4316 Q1181.1328,497.6953 1182.0117,498.2227 Z " fill="#000000"/><text fill="#17324D" font-family="sans-serif" font-size="26.25" lengthAdjust="spacing" textLength="135" x="1203.75" y="516.3464">Commande</text><line style="stroke:#2F7D5B;stroke-width:0.9375;" x1="1155" x2="1342.5" y1="533.7305" y2="533.7305"/><text fill="#000000" font-family="sans-serif" font-size="26.25" lengthAdjust="spacing" textLength="20.625" x="1164.375" y="568.4802">id</text><text fill="#000000" font-family="sans-serif" font-size="26.25" lengthAdjust="spacing" textLength="95.625" x="1164.375" y="601.4978">quantite</text><text fill="#000000" font-family="sans-serif" font-size="26.25" lengthAdjust="spacing" textLength="135" x="1164.375" y="634.5154">montantNet</text><text fill="#000000" font-family="sans-serif" font-size="26.25" lengthAdjust="spacing" textLength="144.375" x="1164.375" y="667.533">modeRetrait</text><text fill="#000000" font-family="sans-serif" font-size="26.25" lengthAdjust="spacing" textLength="65.625" x="1164.375" y="700.5505">statut</text></g><!--class Paiement--><g id="elem_Paiement"><rect codeLine="80" fill="#FFFFFF" height="170.3027" id="Paiement" rx="11.25" ry="11.25" style="stroke:#2F7D5B;stroke-width:0.9375;" width="166.875" x="1665" y="510.293"/><rect fill="#E4F3EA" height="56.25" rx="11.25" ry="11.25" style="stroke:#E4F3EA;stroke-width:0.9375;" width="166.875" x="1665" y="510.293"/><rect fill="#E4F3EA" height="11.25" style="stroke:#E4F3EA;stroke-width:0.9375;" width="166.875" x="1665" y="555.293"/><rect codeLine="80" fill="none" height="170.3027" id="Paiement" rx="11.25" ry="11.25" style="stroke:#2F7D5B;stroke-width:0.9375;" width="166.875" x="1665" y="510.293"/><ellipse cx="1691.25" cy="538.418" fill="#ADD1B2" rx="18.75" ry="18.75" style="stroke:#181818;stroke-width:1.875;"/><path d="M1693.8867,531.0352 Q1694.1211,530.7129 1694.4141,530.5664 Q1694.707,530.3906 1695.0293,530.3906 Q1695.6152,530.3906 1695.9668,530.8008 Q1696.3477,531.1816 1696.3477,532.1191 L1696.3477,534.3457 Q1696.3477,535.3125 1695.9668,535.7227 Q1695.6152,536.1035 1695.0293,536.1035 Q1694.502,536.1035 1694.1797,535.8105 Q1693.8574,535.5176 1693.7109,534.7266 Q1693.623,534.1699 1693.3594,533.877 Q1692.832,533.291 1691.8652,532.9688 Q1690.9277,532.6172 1689.9902,532.6172 Q1688.8184,532.6172 1687.8223,533.1445 Q1686.8262,533.6426 1686.0645,534.8145 Q1685.332,535.957 1685.332,537.5391 L1685.332,539.2383 Q1685.332,541.1426 1686.709,542.4023 Q1688.0859,543.6621 1690.5176,543.6621 Q1691.9824,543.6621 1693.0078,543.2813 Q1693.5938,543.0469 1694.2676,542.373 Q1694.6777,541.9629 1694.8828,541.8457 Q1695.1172,541.6992 1695.4102,541.6992 Q1695.9375,541.6992 1696.3477,542.1094 Q1696.7578,542.5195 1696.7578,543.0469 Q1696.7578,543.5742 1696.2012,544.1895 Q1695.4102,545.0977 1694.1797,545.5957 Q1692.5391,546.2988 1690.5469,546.2988 Q1688.2031,546.2988 1686.3281,545.332 Q1684.834,544.5703 1683.75,542.9297 Q1682.6953,541.2598 1682.6953,539.2969 L1682.6953,537.5098 Q1682.6953,535.459 1683.6328,533.7012 Q1684.5996,531.9141 1686.2988,530.9473 Q1687.998,529.9805 1689.873,529.9805 Q1691.0156,529.9805 1692.0117,530.2441 Q1693.0078,530.5078 1693.8867,531.0352 Z " fill="#000000"/><text fill="#17324D" font-family="sans-serif" font-size="26.25" lengthAdjust="spacing" textLength="110.625" x="1715.625" y="549.1589">Paiement</text><line style="stroke:#2F7D5B;stroke-width:0.9375;" x1="1666.875" x2="1830" y1="566.543" y2="566.543"/><text fill="#000000" font-family="sans-serif" font-size="26.25" lengthAdjust="spacing" textLength="50.625" x="1676.25" y="601.2927">total</text><text fill="#000000" font-family="sans-serif" font-size="26.25" lengthAdjust="spacing" textLength="78.75" x="1676.25" y="634.3103">moyen</text><text fill="#000000" font-family="sans-serif" font-size="26.25" lengthAdjust="spacing" textLength="65.625" x="1676.25" y="667.3279">statut</text></g><!--class Livraison--><g id="elem_Livraison"><rect codeLine="85" fill="#FFFFFF" height="170.3027" id="Livraison" rx="11.25" ry="11.25" style="stroke:#2F7D5B;stroke-width:0.9375;" width="163.125" x="1666.875" y="99.668"/><rect fill="#E4F3EA" height="56.25" rx="11.25" ry="11.25" style="stroke:#E4F3EA;stroke-width:0.9375;" width="163.125" x="1666.875" y="99.668"/><rect fill="#E4F3EA" height="11.25" style="stroke:#E4F3EA;stroke-width:0.9375;" width="163.125" x="1666.875" y="144.668"/><rect codeLine="85" fill="none" height="170.3027" id="Livraison" rx="11.25" ry="11.25" style="stroke:#2F7D5B;stroke-width:0.9375;" width="163.125" x="1666.875" y="99.668"/><ellipse cx="1693.125" cy="127.793" fill="#ADD1B2" rx="18.75" ry="18.75" style="stroke:#181818;stroke-width:1.875;"/><path d="M1695.7617,120.4102 Q1695.9961,120.0879 1696.2891,119.9414 Q1696.582,119.7656 1696.9043,119.7656 Q1697.4902,119.7656 1697.8418,120.1758 Q1698.2227,120.5566 1698.2227,121.4941 L1698.2227,123.7207 Q1698.2227,124.6875 1697.8418,125.0977 Q1697.4902,125.4785 1696.9043,125.4785 Q1696.377,125.4785 1696.0547,125.1855 Q1695.7324,124.8926 1695.5859,124.1016 Q1695.498,123.5449 1695.2344,123.252 Q1694.707,122.666 1693.7402,122.3438 Q1692.8027,121.9922 1691.8652,121.9922 Q1690.6934,121.9922 1689.6973,122.5195 Q1688.7012,123.0176 1687.9395,124.1895 Q1687.207,125.332 1687.207,126.9141 L1687.207,128.6133 Q1687.207,130.5176 1688.584,131.7773 Q1689.9609,133.0371 1692.3926,133.0371 Q1693.8574,133.0371 1694.8828,132.6563 Q1695.4688,132.4219 1696.1426,131.748 Q1696.5527,131.3379 1696.7578,131.2207 Q1696.9922,131.0742 1697.2852,131.0742 Q1697.8125,131.0742 1698.2227,131.4844 Q1698.6328,131.8945 1698.6328,132.4219 Q1698.6328,132.9492 1698.0762,133.5645 Q1697.2852,134.4727 1696.0547,134.9707 Q1694.4141,135.6738 1692.4219,135.6738 Q1690.0781,135.6738 1688.2031,134.707 Q1686.709,133.9453 1685.625,132.3047 Q1684.5703,130.6348 1684.5703,128.6719 L1684.5703,126.8848 Q1684.5703,124.834 1685.5078,123.0762 Q1686.4746,121.2891 1688.1738,120.3223 Q1689.873,119.3555 1691.748,119.3555 Q1692.8906,119.3555 1693.8867,119.6191 Q1694.8828,119.8828 1695.7617,120.4102 Z " fill="#000000"/><text fill="#17324D" font-family="sans-serif" font-size="26.25" lengthAdjust="spacing" textLength="106.875" x="1717.5" y="138.5339">Livraison</text><line style="stroke:#2F7D5B;stroke-width:0.9375;" x1="1668.75" x2="1828.125" y1="155.918" y2="155.918"/><text fill="#000000" font-family="sans-serif" font-size="26.25" lengthAdjust="spacing" textLength="65.625" x="1678.125" y="190.6677">statut</text><text fill="#000000" font-family="sans-serif" font-size="26.25" lengthAdjust="spacing" textLength="97.5" x="1678.125" y="223.6853">codeQR</text><text fill="#000000" font-family="sans-serif" font-size="26.25" lengthAdjust="spacing" textLength="127.5" x="1678.125" y="256.7029">verification</text></g><!--class Versement--><g id="elem_Versement"><rect codeLine="90" fill="#FFFFFF" height="170.3027" id="Versement" rx="11.25" ry="11.25" style="stroke:#2F7D5B;stroke-width:0.9375;" width="183.75" x="2107.5" y="510.293"/><rect fill="#E4F3EA" height="56.25" rx="11.25" ry="11.25" style="stroke:#E4F3EA;stroke-width:0.9375;" width="183.75" x="2107.5" y="510.293"/><rect fill="#E4F3EA" height="11.25" style="stroke:#E4F3EA;stroke-width:0.9375;" width="183.75" x="2107.5" y="555.293"/><rect codeLine="90" fill="none" height="170.3027" id="Versement" rx="11.25" ry="11.25" style="stroke:#2F7D5B;stroke-width:0.9375;" width="183.75" x="2107.5" y="510.293"/><ellipse cx="2133.75" cy="538.418" fill="#ADD1B2" rx="18.75" ry="18.75" style="stroke:#181818;stroke-width:1.875;"/><path d="M2136.3867,531.0352 Q2136.6211,530.7129 2136.9141,530.5664 Q2137.207,530.3906 2137.5293,530.3906 Q2138.1152,530.3906 2138.4668,530.8008 Q2138.8477,531.1816 2138.8477,532.1191 L2138.8477,534.3457 Q2138.8477,535.3125 2138.4668,535.7227 Q2138.1152,536.1035 2137.5293,536.1035 Q2137.002,536.1035 2136.6797,535.8105 Q2136.3574,535.5176 2136.2109,534.7266 Q2136.123,534.1699 2135.8594,533.877 Q2135.332,533.291 2134.3652,532.9688 Q2133.4277,532.6172 2132.4902,532.6172 Q2131.3184,532.6172 2130.3223,533.1445 Q2129.3262,533.6426 2128.5645,534.8145 Q2127.832,535.957 2127.832,537.5391 L2127.832,539.2383 Q2127.832,541.1426 2129.209,542.4023 Q2130.5859,543.6621 2133.0176,543.6621 Q2134.4824,543.6621 2135.5078,543.2813 Q2136.0938,543.0469 2136.7676,542.373 Q2137.1777,541.9629 2137.3828,541.8457 Q2137.6172,541.6992 2137.9102,541.6992 Q2138.4375,541.6992 2138.8477,542.1094 Q2139.2578,542.5195 2139.2578,543.0469 Q2139.2578,543.5742 2138.7012,544.1895 Q2137.9102,545.0977 2136.6797,545.5957 Q2135.0391,546.2988 2133.0469,546.2988 Q2130.7031,546.2988 2128.8281,545.332 Q2127.334,544.5703 2126.25,542.9297 Q2125.1953,541.2598 2125.1953,539.2969 L2125.1953,537.5098 Q2125.1953,535.459 2126.1328,533.7012 Q2127.0996,531.9141 2128.7988,530.9473 Q2130.498,529.9805 2132.373,529.9805 Q2133.5156,529.9805 2134.5117,530.2441 Q2135.5078,530.5078 2136.3867,531.0352 Z " fill="#000000"/><text fill="#17324D" font-family="sans-serif" font-size="26.25" lengthAdjust="spacing" textLength="127.5" x="2158.125" y="549.1589">Versement</text><line style="stroke:#2F7D5B;stroke-width:0.9375;" x1="2109.375" x2="2289.375" y1="566.543" y2="566.543"/><text fill="#000000" font-family="sans-serif" font-size="26.25" lengthAdjust="spacing" textLength="95.625" x="2118.75" y="601.2927">montant</text><text fill="#000000" font-family="sans-serif" font-size="26.25" lengthAdjust="spacing" textLength="136.875" x="2118.75" y="634.3103">beneficiaire</text><text fill="#000000" font-family="sans-serif" font-size="26.25" lengthAdjust="spacing" textLength="65.625" x="2118.75" y="667.3279">statut</text></g><!--class ServiceVeterinaire--><g id="elem_ServiceVeterinaire"><rect codeLine="95" fill="#FFFFFF" height="137.2852" id="ServiceVeterinaire" rx="11.25" ry="11.25" style="stroke:#2F7D5B;stroke-width:0.9375;" width="273.75" x="721.875" y="701.543"/><rect fill="#E4F3EA" height="56.25" rx="11.25" ry="11.25" style="stroke:#E4F3EA;stroke-width:0.9375;" width="273.75" x="721.875" y="701.543"/><rect fill="#E4F3EA" height="11.25" style="stroke:#E4F3EA;stroke-width:0.9375;" width="273.75" x="721.875" y="746.543"/><rect codeLine="95" fill="none" height="137.2852" id="ServiceVeterinaire" rx="11.25" ry="11.25" style="stroke:#2F7D5B;stroke-width:0.9375;" width="273.75" x="721.875" y="701.543"/><ellipse cx="748.125" cy="729.668" fill="#ADD1B2" rx="18.75" ry="18.75" style="stroke:#181818;stroke-width:1.875;"/><path d="M750.7617,722.2852 Q750.9961,721.9629 751.2891,721.8164 Q751.582,721.6406 751.9043,721.6406 Q752.4902,721.6406 752.8418,722.0508 Q753.2227,722.4316 753.2227,723.3691 L753.2227,725.5957 Q753.2227,726.5625 752.8418,726.9727 Q752.4902,727.3535 751.9043,727.3535 Q751.377,727.3535 751.0547,727.0605 Q750.7324,726.7676 750.5859,725.9766 Q750.498,725.4199 750.2344,725.127 Q749.707,724.541 748.7402,724.2188 Q747.8027,723.8672 746.8652,723.8672 Q745.6934,723.8672 744.6973,724.3945 Q743.7012,724.8926 742.9395,726.0645 Q742.207,727.207 742.207,728.7891 L742.207,730.4883 Q742.207,732.3926 743.584,733.6523 Q744.9609,734.9121 747.3926,734.9121 Q748.8574,734.9121 749.8828,734.5313 Q750.4688,734.2969 751.1426,733.623 Q751.5527,733.2129 751.7578,733.0957 Q751.9922,732.9492 752.2852,732.9492 Q752.8125,732.9492 753.2227,733.3594 Q753.6328,733.7695 753.6328,734.2969 Q753.6328,734.8242 753.0762,735.4395 Q752.2852,736.3477 751.0547,736.8457 Q749.4141,737.5488 747.4219,737.5488 Q745.0781,737.5488 743.2031,736.582 Q741.709,735.8203 740.625,734.1797 Q739.5703,732.5098 739.5703,730.5469 L739.5703,728.7598 Q739.5703,726.709 740.5078,724.9512 Q741.4746,723.1641 743.1738,722.1973 Q744.873,721.2305 746.748,721.2305 Q747.8906,721.2305 748.8867,721.4941 Q749.8828,721.7578 750.7617,722.2852 Z " fill="#000000"/><text fill="#17324D" font-family="sans-serif" font-size="26.25" lengthAdjust="spacing" textLength="217.5" x="772.5" y="740.4089">ServiceVeterinaire</text><line style="stroke:#2F7D5B;stroke-width:0.9375;" x1="723.75" x2="993.75" y1="757.793" y2="757.793"/><text fill="#000000" font-family="sans-serif" font-size="26.25" lengthAdjust="spacing" textLength="45" x="733.125" y="792.5427">titre</text><text fill="#000000" font-family="sans-serif" font-size="26.25" lengthAdjust="spacing" textLength="41.25" x="733.125" y="825.5603">prix</text></g><!--class RendezVous--><g id="elem_RendezVous"><rect codeLine="99" fill="#FFFFFF" height="137.2852" id="RendezVous" rx="11.25" ry="11.25" style="stroke:#2F7D5B;stroke-width:0.9375;" width="206.25" x="1145.625" y="821.543"/><rect fill="#E4F3EA" height="56.25" rx="11.25" ry="11.25" style="stroke:#E4F3EA;stroke-width:0.9375;" width="206.25" x="1145.625" y="821.543"/><rect fill="#E4F3EA" height="11.25" style="stroke:#E4F3EA;stroke-width:0.9375;" width="206.25" x="1145.625" y="866.543"/><rect codeLine="99" fill="none" height="137.2852" id="RendezVous" rx="11.25" ry="11.25" style="stroke:#2F7D5B;stroke-width:0.9375;" width="206.25" x="1145.625" y="821.543"/><ellipse cx="1171.875" cy="849.668" fill="#ADD1B2" rx="18.75" ry="18.75" style="stroke:#181818;stroke-width:1.875;"/><path d="M1174.5117,842.2852 Q1174.7461,841.9629 1175.0391,841.8164 Q1175.332,841.6406 1175.6543,841.6406 Q1176.2402,841.6406 1176.5918,842.0508 Q1176.9727,842.4316 1176.9727,843.3691 L1176.9727,845.5957 Q1176.9727,846.5625 1176.5918,846.9727 Q1176.2402,847.3535 1175.6543,847.3535 Q1175.127,847.3535 1174.8047,847.0605 Q1174.4824,846.7676 1174.3359,845.9766 Q1174.248,845.4199 1173.9844,845.127 Q1173.457,844.541 1172.4902,844.2188 Q1171.5527,843.8672 1170.6152,843.8672 Q1169.4434,843.8672 1168.4473,844.3945 Q1167.4512,844.8926 1166.6895,846.0645 Q1165.957,847.207 1165.957,848.7891 L1165.957,850.4883 Q1165.957,852.3926 1167.334,853.6523 Q1168.7109,854.9121 1171.1426,854.9121 Q1172.6074,854.9121 1173.6328,854.5313 Q1174.2188,854.2969 1174.8926,853.623 Q1175.3027,853.2129 1175.5078,853.0957 Q1175.7422,852.9492 1176.0352,852.9492 Q1176.5625,852.9492 1176.9727,853.3594 Q1177.3828,853.7695 1177.3828,854.2969 Q1177.3828,854.8242 1176.8262,855.4395 Q1176.0352,856.3477 1174.8047,856.8457 Q1173.1641,857.5488 1171.1719,857.5488 Q1168.8281,857.5488 1166.9531,856.582 Q1165.459,855.8203 1164.375,854.1797 Q1163.3203,852.5098 1163.3203,850.5469 L1163.3203,848.7598 Q1163.3203,846.709 1164.2578,844.9512 Q1165.2246,843.1641 1166.9238,842.1973 Q1168.623,841.2305 1170.498,841.2305 Q1171.6406,841.2305 1172.6367,841.4941 Q1173.6328,841.7578 1174.5117,842.2852 Z " fill="#000000"/><text fill="#17324D" font-family="sans-serif" font-size="26.25" lengthAdjust="spacing" textLength="150" x="1196.25" y="860.4089">RendezVous</text><line style="stroke:#2F7D5B;stroke-width:0.9375;" x1="1147.5" x2="1350" y1="877.793" y2="877.793"/><text fill="#000000" font-family="sans-serif" font-size="26.25" lengthAdjust="spacing" textLength="136.875" x="1156.875" y="912.5427">datePrevue</text><text fill="#000000" font-family="sans-serif" font-size="26.25" lengthAdjust="spacing" textLength="65.625" x="1156.875" y="945.5603">statut</text></g><!--class Notification--><g id="elem_Notification"><rect codeLine="103" fill="#FFFFFF" height="137.2852" id="Notification" rx="11.25" ry="11.25" style="stroke:#2F7D5B;stroke-width:0.9375;" width="185.625" x="765.9375" y="1039.043"/><rect fill="#E4F3EA" height="56.25" rx="11.25" ry="11.25" style="stroke:#E4F3EA;stroke-width:0.9375;" width="185.625" x="765.9375" y="1039.043"/><rect fill="#E4F3EA" height="11.25" style="stroke:#E4F3EA;stroke-width:0.9375;" width="185.625" x="765.9375" y="1084.043"/><rect codeLine="103" fill="none" height="137.2852" id="Notification" rx="11.25" ry="11.25" style="stroke:#2F7D5B;stroke-width:0.9375;" width="185.625" x="765.9375" y="1039.043"/><ellipse cx="792.1875" cy="1067.168" fill="#ADD1B2" rx="18.75" ry="18.75" style="stroke:#181818;stroke-width:1.875;"/><path d="M794.8242,1059.7852 Q795.0586,1059.4629 795.3516,1059.3164 Q795.6445,1059.1406 795.9668,1059.1406 Q796.5527,1059.1406 796.9043,1059.5508 Q797.2852,1059.9316 797.2852,1060.8691 L797.2852,1063.0957 Q797.2852,1064.0625 796.9043,1064.4727 Q796.5527,1064.8535 795.9668,1064.8535 Q795.4395,1064.8535 795.1172,1064.5605 Q794.7949,1064.2676 794.6484,1063.4766 Q794.5605,1062.9199 794.2969,1062.627 Q793.7695,1062.041 792.8027,1061.7188 Q791.8652,1061.3672 790.9277,1061.3672 Q789.7559,1061.3672 788.7598,1061.8945 Q787.7637,1062.3926 787.002,1063.5645 Q786.2695,1064.707 786.2695,1066.2891 L786.2695,1067.9883 Q786.2695,1069.8926 787.6465,1071.1523 Q789.0234,1072.4121 791.4551,1072.4121 Q792.9199,1072.4121 793.9453,1072.0313 Q794.5313,1071.7969 795.2051,1071.123 Q795.6152,1070.7129 795.8203,1070.5957 Q796.0547,1070.4492 796.3477,1070.4492 Q796.875,1070.4492 797.2852,1070.8594 Q797.6953,1071.2695 797.6953,1071.7969 Q797.6953,1072.3242 797.1387,1072.9395 Q796.3477,1073.8477 795.1172,1074.3457 Q793.4766,1075.0488 791.4844,1075.0488 Q789.1406,1075.0488 787.2656,1074.082 Q785.7715,1073.3203 784.6875,1071.6797 Q783.6328,1070.0098 783.6328,1068.0469 L783.6328,1066.2598 Q783.6328,1064.209 784.5703,1062.4512 Q785.5371,1060.6641 787.2363,1059.6973 Q788.9355,1058.7305 790.8105,1058.7305 Q791.9531,1058.7305 792.9492,1058.9941 Q793.9453,1059.2578 794.8242,1059.7852 Z " fill="#000000"/><text fill="#17324D" font-family="sans-serif" font-size="26.25" lengthAdjust="spacing" textLength="129.375" x="816.5625" y="1077.9089">Notification</text><line style="stroke:#2F7D5B;stroke-width:0.9375;" x1="767.8125" x2="949.6875" y1="1095.293" y2="1095.293"/><text fill="#000000" font-family="sans-serif" font-size="26.25" lengthAdjust="spacing" textLength="95.625" x="777.1875" y="1130.0427">contenu</text><text fill="#000000" font-family="sans-serif" font-size="26.25" lengthAdjust="spacing" textLength="35.625" x="777.1875" y="1163.0603">lue</text></g><g id="elem_GMN24"><path d="M11.25,864.668 L11.25,926.9531 A11.25,11.25 0 0 0 22.5,938.2031 L598.125,938.2031 A11.25,11.25 0 0 0 609.375,926.9531 L609.375,872.168 L590.625,853.418 L290.625,853.418 L283.125,786.9117 L275.625,853.418 L22.5,853.418 A11.25,11.25 0 0 0 11.25,864.668 " fill="#FFF8E8" style="stroke:#E5AE45;stroke-width:0.9375;"/><path d="M590.625,853.418 L590.625,866.543 A5.625,5.625 0 0 0 596.25,872.168 L609.375,872.168 L590.625,853.418 " fill="#FFF8E8" style="stroke:#E5AE45;stroke-width:0.9375;"/><text fill="#5B481E" font-family="sans-serif" font-size="26.25" lengthAdjust="spacing" textLength="558.75" x="22.5" y="890.0427">R&#244;les : acheteur, &#233;leveur, vendeur, v&#233;t&#233;rinaire,</text><text fill="#5B481E" font-family="sans-serif" font-size="26.25" lengthAdjust="spacing" textLength="294.375" x="22.5" y="923.0603">livreur ou administrateur.</text></g><g id="elem_GMN27"><path d="M1501.875,347.168 L1501.875,409.4531 A11.25,11.25 0 0 0 1513.125,420.7031 L1983.75,420.7031 A11.25,11.25 0 0 0 1995,409.4531 L1995,354.668 L1976.25,335.918 L1756.875,335.918 L1749.375,270.818 L1741.875,335.918 L1513.125,335.918 A11.25,11.25 0 0 0 1501.875,347.168 " fill="#FFF8E8" style="stroke:#E5AE45;stroke-width:0.9375;"/><path d="M1976.25,335.918 L1976.25,349.043 A5.625,5.625 0 0 0 1981.875,354.668 L1995,354.668 L1976.25,335.918 " fill="#FFF8E8" style="stroke:#E5AE45;stroke-width:0.9375;"/><text fill="#5B481E" font-family="sans-serif" font-size="26.25" lengthAdjust="spacing" textLength="435" x="1513.125" y="372.5427">Cr&#233;&#233;e seulement si l'acheteur choisit</text><text fill="#5B481E" font-family="sans-serif" font-size="26.25" lengthAdjust="spacing" textLength="453.75" x="1513.125" y="405.5603">une livraison plut&#244;t qu'un retrait direct.</text></g><!--link Utilisateur to Annonce--><g id="link_Utilisateur_Annonce"><path codeLine="108" d="M396.6,623.4117 C551.0625,623.4117 858.75,623.4117 858.75,623.4117 C858.75,623.4117 858.75,511.5492 858.75,511.5492 " fill="none" id="Utilisateur-to-Annonce" style="stroke:#456A7D;stroke-width:2.625;"/><polygon fill="#456A7D" points="858.75,502.1742,851.25,519.0492,858.75,511.5492,866.25,519.0492,858.75,502.1742" style="stroke:#456A7D;stroke-width:2.625;"/><text fill="#29485B" font-family="sans-serif" font-size="26.25" lengthAdjust="spacing" textLength="71.25" x="572.0625" y="652.5365">publie</text><text fill="#29485B" font-family="sans-serif" font-size="26.25" lengthAdjust="spacing" textLength="148.125" x="533.625" y="685.5541">[fournisseur]</text><text fill="#29485B" font-family="sans-serif" font-size="26.25" lengthAdjust="spacing" textLength="15" x="411.5474" y="643.3151">1</text><text fill="#29485B" font-family="sans-serif" font-size="26.25" lengthAdjust="spacing" textLength="39.375" x="817.2217" y="544.1796">0..*</text></g><!--reverse link Annonce to ReductionAnnonce--><g id="link_Annonce_ReductionAnnonce"><path codeLine="109" d="M963.9375,342.4805 C963.9375,342.4805 1108.1063,342.4805 1108.1063,342.4805 " fill="none" id="Annonce-backto-ReductionAnnonce" style="stroke:#456A7D;stroke-width:2.625;"/><polygon fill="#456A7D" points="939.5625,342.4805,950.8125,349.9805,962.0625,342.4805,950.8125,334.9805,939.5625,342.4805" style="stroke:#456A7D;stroke-width:2.625;"/><text fill="#29485B" font-family="sans-serif" font-size="26.25" lengthAdjust="spacing" textLength="97.5" x="936.6375" y="335.9802">propose</text><text fill="#29485B" font-family="sans-serif" font-size="26.25" lengthAdjust="spacing" textLength="15" x="954.1893" y="365.6252">1</text><text fill="#29485B" font-family="sans-serif" font-size="26.25" lengthAdjust="spacing" textLength="39.375" x="1053.9507" y="371.2332">0..*</text></g><!--link Utilisateur to Commande--><g id="link_Utilisateur_Commande"><path codeLine="110" d="M396.9188,662.4867 C396.9188,662.4867 1143.2438,662.4867 1143.2438,662.4867 " fill="none" id="Utilisateur-to-Commande" style="stroke:#456A7D;stroke-width:2.625;"/><polygon fill="#456A7D" points="1152.6188,662.4867,1135.7438,654.9867,1143.2438,662.4867,1135.7438,669.9867,1152.6188,662.4867" style="stroke:#456A7D;stroke-width:2.625;"/><text fill="#29485B" font-family="sans-serif" font-size="26.25" lengthAdjust="spacing" textLength="71.25" x="796.3313" y="622.2365">passe</text><text fill="#29485B" font-family="sans-serif" font-size="26.25" lengthAdjust="spacing" textLength="120" x="771.9563" y="655.2541">[acheteur]</text><text fill="#29485B" font-family="sans-serif" font-size="26.25" lengthAdjust="spacing" textLength="15" x="411.3288" y="688.6615">1</text><text fill="#29485B" font-family="sans-serif" font-size="26.25" lengthAdjust="spacing" textLength="39.375" x="1098.4045" y="700.4152">0..*</text></g><!--link Annonce to Commande--><g id="link_Annonce_Commande"><path codeLine="111" d="M939.5625,489.668 C939.5625,489.668 1143.525,489.668 1143.525,489.668 " fill="none" id="Annonce-to-Commande" style="stroke:#456A7D;stroke-width:2.625;"/><polygon fill="#456A7D" points="1152.9,489.668,1136.025,482.168,1143.525,489.668,1136.025,497.168,1152.9,489.668" style="stroke:#456A7D;stroke-width:2.625;"/><text fill="#29485B" font-family="sans-serif" font-size="26.25" lengthAdjust="spacing" textLength="110.625" x="1043.4188" y="483.1677">concerne</text><text fill="#29485B" font-family="sans-serif" font-size="26.25" lengthAdjust="spacing" textLength="15" x="954.1893" y="537.1906">1</text><text fill="#29485B" font-family="sans-serif" font-size="26.25" lengthAdjust="spacing" textLength="39.375" x="1098.7218" y="505.454">0..*</text></g><!--reverse link Commande to Paiement--><g id="link_Commande_Paiement"><path codeLine="112" d="M1368.8813,595.6055 C1368.8813,595.6055 1664.625,595.6055 1664.625,595.6055 " fill="none" id="Commande-backto-Paiement" style="stroke:#456A7D;stroke-width:2.625;"/><polygon fill="#456A7D" points="1344.5063,595.6055,1355.7563,603.1055,1367.0063,595.6055,1355.7563,588.1055,1344.5063,595.6055" style="stroke:#456A7D;stroke-width:2.625;"/><text fill="#29485B" font-family="sans-serif" font-size="26.25" lengthAdjust="spacing" textLength="60" x="1454.8875" y="624.7302">r&#232;gle</text><text fill="#29485B" font-family="sans-serif" font-size="26.25" lengthAdjust="spacing" textLength="15" x="1359.672" y="625.2735">1</text><text fill="#29485B" font-family="sans-serif" font-size="26.25" lengthAdjust="spacing" textLength="45" x="1604.6748" y="625.1994">0..1</text></g><!--reverse link Commande to Livraison--><g id="link_Commande_Livraison"><path codeLine="113" d="M1369.2563,493.8867 C1369.2563,493.8867 1445.625,493.8867 1445.625,493.8867 C1445.625,493.8867 1445.625,210.293 1445.625,210.293 C1445.625,210.293 1576.8188,210.293 1666.5,210.293 " fill="none" id="Commande-backto-Livraison" style="stroke:#456A7D;stroke-width:2.625;"/><polygon fill="#456A7D" points="1344.8813,493.8867,1356.1313,501.3867,1367.3813,493.8867,1356.1313,486.3867,1344.8813,493.8867" style="stroke:#456A7D;stroke-width:2.625;"/><text fill="#29485B" font-family="sans-serif" font-size="26.25" lengthAdjust="spacing" textLength="48.75" x="1485" y="239.5865">livre</text><text fill="#29485B" font-family="sans-serif" font-size="26.25" lengthAdjust="spacing" textLength="123.75" x="1447.5" y="272.6041">[optionnel]</text><text fill="#29485B" font-family="sans-serif" font-size="26.25" lengthAdjust="spacing" textLength="15" x="1359.4544" y="509.1476">1</text><text fill="#29485B" font-family="sans-serif" font-size="26.25" lengthAdjust="spacing" textLength="45" x="1606.8135" y="243.4465">0..1</text></g><!--link Utilisateur to Livraison--><g id="link_Utilisateur_Livraison"><path codeLine="114" d="M311.25,583.9242 C311.25,429.8555 311.25,154.9805 311.25,154.9805 C311.25,154.9805 1657.1625,154.9805 1657.1625,154.9805 " fill="none" id="Utilisateur-to-Livraison" style="stroke:#456A7D;stroke-width:2.625;"/><polygon fill="#456A7D" points="1666.5375,154.9805,1649.6625,147.4805,1657.1625,154.9805,1649.6625,162.4805,1666.5375,154.9805" style="stroke:#456A7D;stroke-width:2.625;"/><text fill="#29485B" font-family="sans-serif" font-size="26.25" lengthAdjust="spacing" textLength="80.625" x="683.475" y="184.1052">assure</text><text fill="#29485B" font-family="sans-serif" font-size="26.25" lengthAdjust="spacing" textLength="88.125" x="679.725" y="217.1228">[livreur]</text><text fill="#29485B" font-family="sans-serif" font-size="26.25" lengthAdjust="spacing" textLength="45" x="263.3525" y="563.5156">0..1</text><text fill="#29485B" font-family="sans-serif" font-size="26.25" lengthAdjust="spacing" textLength="39.375" x="1612.2418" y="180.2724">0..*</text></g><!--link Paiement to Versement--><g id="link_Paiement_Versement"><path codeLine="115" d="M1832.1938,595.6055 C1832.1938,595.6055 2097.3563,595.6055 2097.3563,595.6055 " fill="none" id="Paiement-to-Versement" style="stroke:#456A7D;stroke-width:2.625;"/><polygon fill="#456A7D" points="2106.7313,595.6055,2089.8563,588.1055,2097.3563,595.6055,2089.8563,603.1055,2106.7313,595.6055" style="stroke:#456A7D;stroke-width:2.625;"/><text fill="#29485B" font-family="sans-serif" font-size="26.25" lengthAdjust="spacing" textLength="121.875" x="1841.025" y="589.1052">d&#233;clenche</text><text fill="#29485B" font-family="sans-serif" font-size="26.25" lengthAdjust="spacing" textLength="15" x="1846.7377" y="625.512">1</text><text fill="#29485B" font-family="sans-serif" font-size="26.25" lengthAdjust="spacing" textLength="39.375" x="2052.9638" y="624.9911">1..*</text></g><!--link Utilisateur to ServiceVeterinaire--><g id="link_Utilisateur_ServiceVeterinaire"><path codeLine="116" d="M396.6,729.9867 C396.6,729.9867 712.35,729.9867 712.35,729.9867 " fill="none" id="Utilisateur-to-ServiceVeterinaire" style="stroke:#456A7D;stroke-width:2.625;"/><polygon fill="#456A7D" points="721.725,729.9867,704.85,722.4867,712.35,729.9867,704.85,737.4867,721.725,729.9867" style="stroke:#456A7D;stroke-width:2.625;"/><text fill="#29485B" font-family="sans-serif" font-size="26.25" lengthAdjust="spacing" textLength="97.5" x="433.5375" y="759.1115">propose</text><text fill="#29485B" font-family="sans-serif" font-size="26.25" lengthAdjust="spacing" textLength="140.625" x="411.975" y="792.1291">[v&#233;t&#233;rinaire]</text><text fill="#29485B" font-family="sans-serif" font-size="26.25" lengthAdjust="spacing" textLength="15" x="411.5474" y="729.9204">1</text><text fill="#29485B" font-family="sans-serif" font-size="26.25" lengthAdjust="spacing" textLength="39.375" x="667.4133" y="754.9785">0..*</text></g><!--link ServiceVeterinaire to RendezVous--><g id="link_ServiceVeterinaire_RendezVous"><path codeLine="117" d="M995.7,829.9805 C995.7,829.9805 1135.9125,829.9805 1135.9125,829.9805 " fill="none" id="ServiceVeterinaire-to-RendezVous" style="stroke:#456A7D;stroke-width:2.625;"/><polygon fill="#456A7D" points="1145.2875,829.9805,1128.4125,822.4805,1135.9125,829.9805,1128.4125,837.4805,1145.2875,829.9805" style="stroke:#456A7D;stroke-width:2.625;"/><text fill="#29485B" font-family="sans-serif" font-size="26.25" lengthAdjust="spacing" textLength="110.625" x="953.3063" y="859.1052">concerne</text><text fill="#29485B" font-family="sans-serif" font-size="26.25" lengthAdjust="spacing" textLength="15" x="1010.5964" y="865.099">1</text><text fill="#29485B" font-family="sans-serif" font-size="26.25" lengthAdjust="spacing" textLength="39.375" x="1090.9036" y="816.145">0..*</text></g><!--link Utilisateur to RendezVous--><g id="link_Utilisateur_RendezVous"><path codeLine="118" d="M339.375,787.1367 C339.375,818.9555 339.375,845.918 339.375,845.918 C339.375,845.918 1135.95,845.918 1135.95,845.918 " fill="none" id="Utilisateur-to-RendezVous" style="stroke:#456A7D;stroke-width:2.625;"/><polygon fill="#456A7D" points="1145.325,845.918,1128.45,838.418,1135.95,845.918,1128.45,853.418,1145.325,845.918" style="stroke:#456A7D;stroke-width:2.625;"/><text fill="#29485B" font-family="sans-serif" font-size="26.25" lengthAdjust="spacing" textLength="110.625" x="710.1375" y="875.0427">demande</text><text fill="#29485B" font-family="sans-serif" font-size="26.25" lengthAdjust="spacing" textLength="103.125" x="713.8875" y="908.0603">[&#233;leveur]</text><text fill="#29485B" font-family="sans-serif" font-size="26.25" lengthAdjust="spacing" textLength="15" x="327.2725" y="830.193">1</text><text fill="#29485B" font-family="sans-serif" font-size="26.25" lengthAdjust="spacing" textLength="39.375" x="1090.9457" y="869.7846">0..*</text></g><!--link Utilisateur to Notification--><g id="link_Utilisateur_Notification"><path codeLine="119" d="M397.2375,758.4117 C502.425,758.4117 665.625,758.4117 665.625,758.4117 C665.625,758.4117 665.625,1107.4805 665.625,1107.4805 C665.625,1107.4805 756.2063,1107.4805 756.2063,1107.4805 " fill="none" id="Utilisateur-to-Notification" style="stroke:#456A7D;stroke-width:2.625;"/><polygon fill="#456A7D" points="765.5813,1107.4805,748.7063,1099.9805,756.2063,1107.4805,748.7063,1114.9805,765.5813,1107.4805" style="stroke:#456A7D;stroke-width:2.625;"/><text fill="#29485B" font-family="sans-serif" font-size="26.25" lengthAdjust="spacing" textLength="65.625" x="598.125" y="837.5427">re&#231;oit</text><text fill="#29485B" font-family="sans-serif" font-size="26.25" lengthAdjust="spacing" textLength="15" x="411.6963" y="799.275">1</text><text fill="#29485B" font-family="sans-serif" font-size="26.25" lengthAdjust="spacing" textLength="39.375" x="711.7465" y="1136.8191">0..*</text></g><!--SRC=[ZLVDRkCs4BxhAGRf8S0YCVoxTd8eu3zj2-m6QRp9fSs1biOs4OhKKfHtiqM1FaGVeBUkx_i6UfC-IKUqh32MeZH0BChppNppHmvz2WlpA1025KMfX7___0j2pjQQHH4cC1UudIefCJ3UAIpkti4bh9IEc84jVQSqHm4I3MH_Wr6fGJ2C2u4jkBxAiVWbLjh0XkMYCDkjkEI6AzdoaWSkOqOqi6J1mrghL8PJ9PI67tpxvo32c4Ddr7Q-IJOiL9-vNCEAYGGTYJKKA2rHGwVh20GdFnzZ179eerphk6AfCBwIvef520icamLglgh7BFXNX4xV4NxaHc2ZUecmojrsdQW8lZFiTVip1p3MMdqkXFt1s_6m8dIqknVzqM1o3FYuuS63n2I1Jijr_4ePdDHaVpGV7QEK3b4NYFbWFEyFZX2E4uD9VzIPE_9huc3hvqOknfFXU5W3glZJzyV-sohGpPbFbBrwoBwxbqg4RbO2mxVSF5R9slx8xzKXNT-x_d3sFCi5gh6E1MR6MQHaM9VttcpKeE1wC1jT3Bf-RKGlEZaLB4achswsFQmnN0lv2Hb1AlRcVRyt7n-3cn8pbwQs5CUE5RX6p_QO9hQ5OJLDFv_vGxzJWJLoMKWJrMs20KjgoCRKqwCQe4lNcm_x5-qgg34s_9IY3F0zNz6_FDfmqqb_scb2lrg1WyOrquO7F6RIl1vSdL9Ze0U5SJvV_hzJUtXpnGheEp8OLoqF_Oa_Un5UaqjFuChGt0FDrnj3SrFJJAJfvcruY81HR1uXmcY9Ed7C1lc661kZ-PAcui-1adOgj3sJZmBueCBi6psZR6Su3R7mr1d2u7bM7MuD5poX1amr_Eu1y90-f8he4oCQmVJKIg3tHu4VIwaeb2TiFWhf4Ml-vPPcCYFVwVLJol8Tb2yJQk_Kb0PkC4njSAwb0_m3bxajbUe0fQ6JjrIRqhM2oT0XTYZeM3FqSeN6leHuWqOpRghirunZHAQj6QCC4rRZ4MKL-vvloKYYf0KNGg0BJeY_tD1Ycmzd7Z1RgOFI7TNeYQ5mZ5PBb4XWNkJdY8hc_9O7U8U6RCeSitUG6tr8hfD0IiFNEvKc5XDIxQurRjCQipHFImyjc7h4e4nf9T8yjvvR_fFE2PoV_mWdxLRhpKbPwKk8qwNW-9lyTKM5aJn927tl7UIvsflpyuDQfRwahrMiw7BLG5QMbz3aUKx6WWsQ2bEzJf3BwQhcbT-vNj6ohFibwEpRMhoCVAhw9LtrjZftHSLvG1B5_VCOzXgEIwuoXP5QRMibZwDqeWoaOxMUUkOolzi6WWwBJMEwQlgbJ3CnRcdBPxj2Sk_Le8_iEJtb9BF1WMSA8TfC4d6seoF6njgW-wmhgHwO_QDehtgIRdzqmJ96HQ1Mxib4_NgJVHUOantQuWmEP6Uq4udUBjp0p_8st-SUL0eiZEX7Gq87GwxUyaW7SifZthA6f3xLsIxR8L37Yts54WxYzE0311l54tlEf18jsRxwiKXDzjtG6NLAluNq_ZGgplKdvly0]--></g></svg>