<?plantuml 1.2026.1?><svg xmlns="http://www.w3.org/2000/svg" xmlns:xlink="http://www.w3.org/1999/xlink" contentStyleType="text/css" data-diagram-type="CLASS" height="1158.75px" preserveAspectRatio="none" style="width:2495px;height:1158px;background:#FFFFFF;" version="1.1" viewBox="0 0 2495 1158" width="2495.625px" zoomAndPan="magnify"><title>Mod&#232;le m&#233;tier d'ElevConnect &#8212; vue simplifi&#233;e</title><defs/><g><g class="title" data-source-line="6"><text fill="#17324D" font-family="sans-serif" font-size="37.5" font-weight="bold" lengthAdjust="spacing" textLength="977.9846" x="746.0109" y="53.5583">Mod&#232;le m&#233;tier d'ElevConnect &#8212; vue simplifi&#233;e</text></g><!--class Utilisateur--><g class="entity" data-qualified-name="Utilisateur" data-source-line="8" id="ent0002"><rect fill="#FFFFFF" height="193.4766" rx="11.25" ry="11.25" style="stroke:#2F7D5B;stroke-width:0.9375;" width="191.2683" x="246.7875" y="570.2461"/><rect fill="#E4F3EA" height="56.25" rx="11.25" ry="11.25" style="stroke:#E4F3EA;stroke-width:0.9375;" width="191.2683" x="246.7875" y="570.2461"/><rect fill="#E4F3EA" height="11.25" style="stroke:#E4F3EA;stroke-width:0.9375;" width="191.2683" x="246.7875" y="615.2461"/><rect fill="none" height="193.4766" rx="11.25" ry="11.25" style="stroke:#2F7D5B;stroke-width:0.9375;" width="191.2683" x="246.7875" y="570.2461"/><ellipse cx="273.0375" cy="598.3711" fill="#ADD1B2" rx="18.75" ry="18.75" style="stroke:#181818;stroke-width:1.875;"/><path d="M277.5199,607.1895 Q276.6117,607.6582 275.6156,607.8926 Q274.6488,608.127 273.5648,608.127 Q269.6977,608.127 267.6469,605.5781 Q265.6254,603.0293 265.6254,598.1953 Q265.6254,593.3613 267.6469,590.8125 Q269.6977,588.2637 273.5648,588.2637 Q274.6488,588.2637 275.6449,588.498 Q276.641,588.7324 277.5199,589.1719 L277.5199,593.3906 Q276.5531,592.4824 275.6156,592.0723 Q274.7074,591.6621 273.7406,591.6621 Q271.6605,591.6621 270.6059,593.3027 Q269.5512,594.9434 269.5512,598.1953 Q269.5512,601.418 270.6059,603.0879 Q271.6605,604.7285 273.7406,604.7285 Q274.7074,604.7285 275.6156,604.3184 Q276.5531,603.8789 277.5199,603 L277.5199,607.1895 Z " fill="#000000"/><text fill="#17324D" font-family="sans-serif" font-size="26.25" lengthAdjust="spacing" textLength="135.0183" x="297.4125" y="607.4586">Utilisateur</text><line style="stroke:#2F7D5B;stroke-width:0.9375;" x1="248.6625" x2="436.1808" y1="626.4961" y2="626.4961"/><text fill="#000000" font-family="sans-serif" font-size="26.25" lengthAdjust="spacing" textLength="23.9557" x="258.0375" y="658.3619">id</text><text fill="#000000" font-family="sans-serif" font-size="26.25" lengthAdjust="spacing" textLength="58.2678" x="258.0375" y="688.9186">nom</text><text fill="#000000" font-family="sans-serif" font-size="26.25" lengthAdjust="spacing" textLength="72.3926" x="258.0375" y="719.4752">email</text><text fill="#000000" font-family="sans-serif" font-size="26.25" lengthAdjust="spacing" textLength="50.2954" x="258.0375" y="750.0319">role</text></g><!--class Annonce--><g class="entity" data-qualified-name="Annonce" data-source-line="14" id="ent0003"><rect fill="#FFFFFF" height="224.0332" rx="11.25" ry="11.25" style="stroke:#2F7D5B;stroke-width:0.9375;" width="176.5393" x="847.2563" y="260.5898"/><rect fill="#E4F3EA" height="56.25" rx="11.25" ry="11.25" style="stroke:#E4F3EA;stroke-width:0.9375;" width="176.5393" x="847.2563" y="260.5898"/><rect fill="#E4F3EA" height="11.25" style="stroke:#E4F3EA;stroke-width:0.9375;" width="176.5393" x="847.2563" y="305.5898"/><rect fill="none" height="224.0332" rx="11.25" ry="11.25" style="stroke:#2F7D5B;stroke-width:0.9375;" width="176.5393" x="847.2563" y="260.5898"/><ellipse cx="876.1067" cy="288.7148" fill="#ADD1B2" rx="18.75" ry="18.75" style="stroke:#181818;stroke-width:1.875;"/><path d="M880.5891,297.5332 Q879.6809,298.002 878.6848,298.2363 Q877.718,298.4707 876.6341,298.4707 Q872.7669,298.4707 870.7161,295.9219 Q868.6946,293.373 868.6946,288.5391 Q868.6946,283.7051 870.7161,281.1563 Q872.7669,278.6074 876.6341,278.6074 Q877.718,278.6074 878.7141,278.8418 Q879.7102,279.0762 880.5891,279.5156 L880.5891,283.7344 Q879.6223,282.8262 878.6848,282.416 Q877.7766,282.0059 876.8098,282.0059 Q874.7298,282.0059 873.6751,283.6465 Q872.6204,285.2871 872.6204,288.5391 Q872.6204,291.7617 873.6751,293.4316 Q874.7298,295.0723 876.8098,295.0723 Q877.7766,295.0723 878.6848,294.6621 Q879.6223,294.2227 880.5891,293.3438 L880.5891,297.5332 Z " fill="#000000"/><text fill="#17324D" font-family="sans-serif" font-size="26.25" lengthAdjust="spacing" textLength="114.5105" x="901.0596" y="297.8024">Annonce</text><line style="stroke:#2F7D5B;stroke-width:0.9375;" x1="849.1313" x2="1021.9206" y1="316.8398" y2="316.8398"/><text fill="#000000" font-family="sans-serif" font-size="26.25" lengthAdjust="spacing" textLength="23.9557" x="858.5063" y="348.7057">id</text><text fill="#000000" font-family="sans-serif" font-size="26.25" lengthAdjust="spacing" textLength="58.6395" x="858.5063" y="379.2623">type</text><text fill="#000000" font-family="sans-serif" font-size="26.25" lengthAdjust="spacing" textLength="154.0393" x="858.5063" y="409.819">prixUnitaire</text><text fill="#000000" font-family="sans-serif" font-size="26.25" lengthAdjust="spacing" textLength="110.05" x="858.5063" y="440.3756">quantite</text><text fill="#000000" font-family="sans-serif" font-size="26.25" lengthAdjust="spacing" textLength="77.276" x="858.5063" y="470.9323">statut</text></g><!--class ReductionAnnonce--><g class="entity" data-qualified-name="ReductionAnnonce" data-source-line="21" id="ent0004"><rect fill="#FFFFFF" height="132.3633" rx="11.25" ry="11.25" style="stroke:#2F7D5B;stroke-width:0.9375;" width="303.1641" x="1197.45" y="267.0586"/><rect fill="#E4F3EA" height="56.25" rx="11.25" ry="11.25" style="stroke:#E4F3EA;stroke-width:0.9375;" width="303.1641" x="1197.45" y="267.0586"/><rect fill="#E4F3EA" height="11.25" style="stroke:#E4F3EA;stroke-width:0.9375;" width="303.1641" x="1197.45" y="312.0586"/><rect fill="none" height="132.3633" rx="11.25" ry="11.25" style="stroke:#2F7D5B;stroke-width:0.9375;" width="303.1641" x="1197.45" y="267.0586"/><ellipse cx="1223.7" cy="295.1836" fill="#ADD1B2" rx="18.75" ry="18.75" style="stroke:#181818;stroke-width:1.875;"/><path d="M1228.1824,304.002 Q1227.2742,304.4707 1226.2781,304.7051 Q1225.3113,304.9395 1224.2273,304.9395 Q1220.3602,304.9395 1218.3094,302.3906 Q1216.2879,299.8418 1216.2879,295.0078 Q1216.2879,290.1738 1218.3094,287.625 Q1220.3602,285.0762 1224.2273,285.0762 Q1225.3113,285.0762 1226.3074,285.3105 Q1227.3035,285.5449 1228.1824,285.9844 L1228.1824,290.2031 Q1227.2156,289.2949 1226.2781,288.8848 Q1225.3699,288.4746 1224.4031,288.4746 Q1222.323,288.4746 1221.2684,290.1152 Q1220.2137,291.7559 1220.2137,295.0078 Q1220.2137,298.2305 1221.2684,299.9004 Q1222.323,301.541 1224.4031,301.541 Q1225.3699,301.541 1226.2781,301.1309 Q1227.2156,300.6914 1228.1824,299.8125 L1228.1824,304.002 Z " fill="#000000"/><text fill="#17324D" font-family="sans-serif" font-size="26.25" lengthAdjust="spacing" textLength="246.9141" x="1248.075" y="304.2711">ReductionAnnonce</text><line style="stroke:#2F7D5B;stroke-width:0.9375;" x1="1199.325" x2="1498.7391" y1="323.3086" y2="323.3086"/><text fill="#000000" font-family="sans-serif" font-size="26.25" lengthAdjust="spacing" textLength="156.6284" x="1208.7" y="355.1744">quantiteMin</text><text fill="#000000" font-family="sans-serif" font-size="26.25" lengthAdjust="spacing" textLength="166.5619" x="1208.7" y="385.7311">pourcentage</text></g><!--class Commande--><g class="entity" data-qualified-name="Commande" data-source-line="25" id="ent0005"><rect fill="#FFFFFF" height="224.0332" rx="11.25" ry="11.25" style="stroke:#2F7D5B;stroke-width:0.9375;" width="207.3157" x="1245.375" y="464.9648"/><rect fill="#E4F3EA" height="56.25" rx="11.25" ry="11.25" style="stroke:#E4F3EA;stroke-width:0.9375;" width="207.3157" x="1245.375" y="464.9648"/><rect fill="#E4F3EA" height="11.25" style="stroke:#E4F3EA;stroke-width:0.9375;" width="207.3157" x="1245.375" y="509.9648"/><rect fill="none" height="224.0332" rx="11.25" ry="11.25" style="stroke:#2F7D5B;stroke-width:0.9375;" width="207.3157" x="1245.375" y="464.9648"/><ellipse cx="1271.625" cy="493.0898" fill="#ADD1B2" rx="18.75" ry="18.75" style="stroke:#181818;stroke-width:1.875;"/><path d="M1276.1074,501.9082 Q1275.1992,502.377 1274.2031,502.6113 Q1273.2363,502.8457 1272.1523,502.8457 Q1268.2852,502.8457 1266.2344,500.2969 Q1264.2129,497.748 1264.2129,492.9141 Q1264.2129,488.0801 1266.2344,485.5313 Q1268.2852,482.9824 1272.1523,482.9824 Q1273.2363,482.9824 1274.2324,483.2168 Q1275.2285,483.4512 1276.1074,483.8906 L1276.1074,488.1094 Q1275.1406,487.2012 1274.2031,486.791 Q1273.2949,486.3809 1272.3281,486.3809 Q1270.248,486.3809 1269.1934,488.0215 Q1268.1387,489.6621 1268.1387,492.9141 Q1268.1387,496.1367 1269.1934,497.8066 Q1270.248,499.4473 1272.3281,499.4473 Q1273.2949,499.4473 1274.2031,499.0371 Q1275.1406,498.5977 1276.1074,497.7188 L1276.1074,501.9082 Z " fill="#000000"/><text fill="#17324D" font-family="sans-serif" font-size="26.25" lengthAdjust="spacing" textLength="151.0657" x="1296" y="502.1774">Commande</text><line style="stroke:#2F7D5B;stroke-width:0.9375;" x1="1247.25" x2="1450.8157" y1="521.2148" y2="521.2148"/><text fill="#000000" font-family="sans-serif" font-size="26.25" lengthAdjust="spacing" textLength="23.9557" x="1256.625" y="553.0807">id</text><text fill="#000000" font-family="sans-serif" font-size="26.25" lengthAdjust="spacing" textLength="110.05" x="1256.625" y="583.6373">quantite</text><text fill="#000000" font-family="sans-serif" font-size="26.25" lengthAdjust="spacing" textLength="157.6538" x="1256.625" y="614.194">montantNet</text><text fill="#000000" font-family="sans-serif" font-size="26.25" lengthAdjust="spacing" textLength="163.5883" x="1256.625" y="644.7506">modeRetrait</text><text fill="#000000" font-family="sans-serif" font-size="26.25" lengthAdjust="spacing" textLength="77.276" x="1256.625" y="675.3073">statut</text></g><!--class Paiement--><g class="entity" data-qualified-name="Paiement" data-source-line="32" id="ent0006"><rect fill="#FFFFFF" height="162.9199" rx="11.25" ry="11.25" style="stroke:#2F7D5B;stroke-width:0.9375;" width="180.2582" x="1801.9312" y="495.5273"/><rect fill="#E4F3EA" height="56.25" rx="11.25" ry="11.25" style="stroke:#E4F3EA;stroke-width:0.9375;" width="180.2582" x="1801.9312" y="495.5273"/><rect fill="#E4F3EA" height="11.25" style="stroke:#E4F3EA;stroke-width:0.9375;" width="180.2582" x="1801.9312" y="540.5273"/><rect fill="none" height="162.9199" rx="11.25" ry="11.25" style="stroke:#2F7D5B;stroke-width:0.9375;" width="180.2582" x="1801.9312" y="495.5273"/><ellipse cx="1828.1812" cy="523.6523" fill="#ADD1B2" rx="18.75" ry="18.75" style="stroke:#181818;stroke-width:1.875;"/><path d="M1832.6637,532.4707 Q1831.7555,532.9395 1830.7594,533.1738 Q1829.7926,533.4082 1828.7086,533.4082 Q1824.8414,533.4082 1822.7906,530.8594 Q1820.7691,528.3105 1820.7691,523.4766 Q1820.7691,518.6426 1822.7906,516.0938 Q1824.8414,513.5449 1828.7086,513.5449 Q1829.7926,513.5449 1830.7887,513.7793 Q1831.7848,514.0137 1832.6637,514.4531 L1832.6637,518.6719 Q1831.6969,517.7637 1830.7594,517.3535 Q1829.8512,516.9434 1828.8844,516.9434 Q1826.8043,516.9434 1825.7496,518.584 Q1824.6949,520.2246 1824.6949,523.4766 Q1824.6949,526.6992 1825.7496,528.3691 Q1826.8043,530.0098 1828.8844,530.0098 Q1829.8512,530.0098 1830.7594,529.5996 Q1831.6969,529.1602 1832.6637,528.2813 L1832.6637,532.4707 Z " fill="#000000"/><text fill="#17324D" font-family="sans-serif" font-size="26.25" lengthAdjust="spacing" textLength="124.0082" x="1852.5562" y="532.7399">Paiement</text><line style="stroke:#2F7D5B;stroke-width:0.9375;" x1="1803.8062" x2="1980.3144" y1="551.7773" y2="551.7773"/><text fill="#000000" font-family="sans-serif" font-size="26.25" lengthAdjust="spacing" textLength="60.0238" x="1813.1812" y="583.6432">total</text><text fill="#000000" font-family="sans-serif" font-size="26.25" lengthAdjust="spacing" textLength="89.9524" x="1813.1812" y="614.1998">moyen</text><text fill="#000000" font-family="sans-serif" font-size="26.25" lengthAdjust="spacing" textLength="77.276" x="1813.1812" y="644.7565">statut</text></g><!--class Livraison--><g class="entity" data-qualified-name="Livraison" data-source-line="37" id="ent0007"><rect fill="#FFFFFF" height="162.9199" rx="11.25" ry="11.25" style="stroke:#2F7D5B;stroke-width:0.9375;" width="174.2468" x="1804.9313" y="96.1523"/><rect fill="#E4F3EA" height="56.25" rx="11.25" ry="11.25" style="stroke:#E4F3EA;stroke-width:0.9375;" width="174.2468" x="1804.9313" y="96.1523"/><rect fill="#E4F3EA" height="11.25" style="stroke:#E4F3EA;stroke-width:0.9375;" width="174.2468" x="1804.9313" y="141.1523"/><rect fill="none" height="162.9199" rx="11.25" ry="11.25" style="stroke:#2F7D5B;stroke-width:0.9375;" width="174.2468" x="1804.9313" y="96.1523"/><ellipse cx="1831.1813" cy="124.2773" fill="#ADD1B2" rx="18.75" ry="18.75" style="stroke:#181818;stroke-width:1.875;"/><path d="M1835.6637,133.0957 Q1834.7555,133.5645 1833.7594,133.7988 Q1832.7926,134.0332 1831.7086,134.0332 Q1827.8414,134.0332 1825.7906,131.4844 Q1823.7691,128.9355 1823.7691,124.1016 Q1823.7691,119.2676 1825.7906,116.7188 Q1827.8414,114.1699 1831.7086,114.1699 Q1832.7926,114.1699 1833.7887,114.4043 Q1834.7848,114.6387 1835.6637,115.0781 L1835.6637,119.2969 Q1834.6969,118.3887 1833.7594,117.9785 Q1832.8512,117.5684 1831.8844,117.5684 Q1829.8043,117.5684 1828.7496,119.209 Q1827.6949,120.8496 1827.6949,124.1016 Q1827.6949,127.3242 1828.7496,128.9941 Q1829.8043,130.6348 1831.8844,130.6348 Q1832.8512,130.6348 1833.7594,130.2246 Q1834.6969,129.7852 1835.6637,128.9063 L1835.6637,133.0957 Z " fill="#000000"/><text fill="#17324D" font-family="sans-serif" font-size="26.25" lengthAdjust="spacing" textLength="117.9968" x="1855.5563" y="133.3649">Livraison</text><line style="stroke:#2F7D5B;stroke-width:0.9375;" x1="1806.8063" x2="1977.3031" y1="152.4023" y2="152.4023"/><text fill="#000000" font-family="sans-serif" font-size="26.25" lengthAdjust="spacing" textLength="77.276" x="1816.1813" y="184.2682">statut</text><text fill="#000000" font-family="sans-serif" font-size="26.25" lengthAdjust="spacing" textLength="102.2058" x="1816.1813" y="214.8248">codeQR</text><text fill="#000000" font-family="sans-serif" font-size="26.25" lengthAdjust="spacing" textLength="147.1051" x="1816.1813" y="245.3815">verification</text></g><!--class Versement--><g class="entity" data-qualified-name="Versement" data-source-line="42" id="ent0008"><rect fill="#FFFFFF" height="162.9199" rx="11.25" ry="11.25" style="stroke:#2F7D5B;stroke-width:0.9375;" width="199.6252" x="2283.5063" y="495.5273"/><rect fill="#E4F3EA" height="56.25" rx="11.25" ry="11.25" style="stroke:#E4F3EA;stroke-width:0.9375;" width="199.6252" x="2283.5063" y="495.5273"/><rect fill="#E4F3EA" height="11.25" style="stroke:#E4F3EA;stroke-width:0.9375;" width="199.6252" x="2283.5063" y="540.5273"/><rect fill="none" height="162.9199" rx="11.25" ry="11.25" style="stroke:#2F7D5B;stroke-width:0.9375;" width="199.6252" x="2283.5063" y="495.5273"/><ellipse cx="2309.7563" cy="523.6523" fill="#ADD1B2" rx="18.75" ry="18.75" style="stroke:#181818;stroke-width:1.875;"/><path d="M2314.2387,532.4707 Q2313.3305,532.9395 2312.3344,533.1738 Q2311.3676,533.4082 2310.2836,533.4082 Q2306.4164,533.4082 2304.3656,530.8594 Q2302.3441,528.3105 2302.3441,523.4766 Q2302.3441,518.6426 2304.3656,516.0938 Q2306.4164,513.5449 2310.2836,513.5449 Q2311.3676,513.5449 2312.3637,513.7793 Q2313.3598,514.0137 2314.2387,514.4531 L2314.2387,518.6719 Q2313.2719,517.7637 2312.3344,517.3535 Q2311.4262,516.9434 2310.4594,516.9434 Q2308.3793,516.9434 2307.3246,518.584 Q2306.2699,520.2246 2306.2699,523.4766 Q2306.2699,526.6992 2307.3246,528.3691 Q2308.3793,530.0098 2310.4594,530.0098 Q2311.4262,530.0098 2312.3344,529.5996 Q2313.2719,529.1602 2314.2387,528.2813 L2314.2387,532.4707 Z " fill="#000000"/><text fill="#17324D" font-family="sans-serif" font-size="26.25" lengthAdjust="spacing" textLength="143.3752" x="2334.1313" y="532.7399">Versement</text><line style="stroke:#2F7D5B;stroke-width:0.9375;" x1="2285.3813" x2="2481.2565" y1="551.7773" y2="551.7773"/><text fill="#000000" font-family="sans-serif" font-size="26.25" lengthAdjust="spacing" textLength="111.5753" x="2294.7563" y="583.6432">montant</text><text fill="#000000" font-family="sans-serif" font-size="26.25" lengthAdjust="spacing" textLength="154.1803" x="2294.7563" y="614.1998">beneficiaire</text><text fill="#000000" font-family="sans-serif" font-size="26.25" lengthAdjust="spacing" textLength="77.276" x="2294.7563" y="644.7565">statut</text></g><!--class ServiceVeterinaire--><g class="entity" data-qualified-name="ServiceVeterinaire" data-source-line="47" id="ent0009"><rect fill="#FFFFFF" height="132.3633" rx="11.25" ry="11.25" style="stroke:#2F7D5B;stroke-width:0.9375;" width="298.8574" x="786.0938" y="683.3086"/><rect fill="#E4F3EA" height="56.25" rx="11.25" ry="11.25" style="stroke:#E4F3EA;stroke-width:0.9375;" width="298.8574" x="786.0938" y="683.3086"/><rect fill="#E4F3EA" height="11.25" style="stroke:#E4F3EA;stroke-width:0.9375;" width="298.8574" x="786.0938" y="728.3086"/><rect fill="none" height="132.3633" rx="11.25" ry="11.25" style="stroke:#2F7D5B;stroke-width:0.9375;" width="298.8574" x="786.0938" y="683.3086"/><ellipse cx="812.3438" cy="711.4336" fill="#ADD1B2" rx="18.75" ry="18.75" style="stroke:#181818;stroke-width:1.875;"/><path d="M816.8262,720.252 Q815.918,720.7207 814.9219,720.9551 Q813.9551,721.1895 812.8711,721.1895 Q809.0039,721.1895 806.9531,718.6406 Q804.9316,716.0918 804.9316,711.2578 Q804.9316,706.4238 806.9531,703.875 Q809.0039,701.3262 812.8711,701.3262 Q813.9551,701.3262 814.9512,701.5605 Q815.9473,701.7949 816.8262,702.2344 L816.8262,706.4531 Q815.8594,705.5449 814.9219,705.1348 Q814.0137,704.7246 813.0469,704.7246 Q810.9668,704.7246 809.9121,706.3652 Q808.8574,708.0059 808.8574,711.2578 Q808.8574,714.4805 809.9121,716.1504 Q810.9668,717.791 813.0469,717.791 Q814.0137,717.791 814.9219,717.3809 Q815.8594,716.9414 816.8262,716.0625 L816.8262,720.252 Z " fill="#000000"/><text fill="#17324D" font-family="sans-serif" font-size="26.25" lengthAdjust="spacing" textLength="242.6074" x="836.7188" y="720.5211">ServiceVeterinaire</text><line style="stroke:#2F7D5B;stroke-width:0.9375;" x1="787.9688" x2="1083.0762" y1="739.5586" y2="739.5586"/><text fill="#000000" font-family="sans-serif" font-size="26.25" lengthAdjust="spacing" textLength="54.8199" x="797.3438" y="771.4244">titre</text><text fill="#000000" font-family="sans-serif" font-size="26.25" lengthAdjust="spacing" textLength="50.2826" x="797.3438" y="801.9811">prix</text></g><!--class RendezVous--><g class="entity" data-qualified-name="RendezVous" data-source-line="51" id="ent0010"><rect fill="#FFFFFF" height="132.3633" rx="11.25" ry="11.25" style="stroke:#2F7D5B;stroke-width:0.9375;" width="218.1976" x="1239.9375" y="797.6836"/><rect fill="#E4F3EA" height="56.25" rx="11.25" ry="11.25" style="stroke:#E4F3EA;stroke-width:0.9375;" width="218.1976" x="1239.9375" y="797.6836"/><rect fill="#E4F3EA" height="11.25" style="stroke:#E4F3EA;stroke-width:0.9375;" width="218.1976" x="1239.9375" y="842.6836"/><rect fill="none" height="132.3633" rx="11.25" ry="11.25" style="stroke:#2F7D5B;stroke-width:0.9375;" width="218.1976" x="1239.9375" y="797.6836"/><ellipse cx="1266.1875" cy="825.8086" fill="#ADD1B2" rx="18.75" ry="18.75" style="stroke:#181818;stroke-width:1.875;"/><path d="M1270.6699,834.627 Q1269.7617,835.0957 1268.7656,835.3301 Q1267.7988,835.5645 1266.7148,835.5645 Q1262.8477,835.5645 1260.7969,833.0156 Q1258.7754,830.4668 1258.7754,825.6328 Q1258.7754,820.7988 1260.7969,818.25 Q1262.8477,815.7012 1266.7148,815.7012 Q1267.7988,815.7012 1268.7949,815.9355 Q1269.791,816.1699 1270.6699,816.6094 L1270.6699,820.8281 Q1269.7031,819.9199 1268.7656,819.5098 Q1267.8574,819.0996 1266.8906,819.0996 Q1264.8105,819.0996 1263.7559,820.7402 Q1262.7012,822.3809 1262.7012,825.6328 Q1262.7012,828.8555 1263.7559,830.5254 Q1264.8105,832.166 1266.8906,832.166 Q1267.8574,832.166 1268.7656,831.7559 Q1269.7031,831.3164 1270.6699,830.4375 L1270.6699,834.627 Z " fill="#000000"/><text fill="#17324D" font-family="sans-serif" font-size="26.25" lengthAdjust="spacing" textLength="161.9476" x="1290.5625" y="834.8961">RendezVous</text><line style="stroke:#2F7D5B;stroke-width:0.9375;" x1="1241.8125" x2="1456.2601" y1="853.9336" y2="853.9336"/><text fill="#000000" font-family="sans-serif" font-size="26.25" lengthAdjust="spacing" textLength="150.2838" x="1251.1875" y="885.7994">datePrevue</text><text fill="#000000" font-family="sans-serif" font-size="26.25" lengthAdjust="spacing" textLength="77.276" x="1251.1875" y="916.3561">statut</text></g><!--class Notification--><g class="entity" data-qualified-name="Notification" data-source-line="55" id="ent0011"><rect fill="#FFFFFF" height="132.3633" rx="11.25" ry="11.25" style="stroke:#2F7D5B;stroke-width:0.9375;" width="206.8671" x="832.0875" y="1013.3086"/><rect fill="#E4F3EA" height="56.25" rx="11.25" ry="11.25" style="stroke:#E4F3EA;stroke-width:0.9375;" width="206.8671" x="832.0875" y="1013.3086"/><rect fill="#E4F3EA" height="11.25" style="stroke:#E4F3EA;stroke-width:0.9375;" width="206.8671" x="832.0875" y="1058.3086"/><rect fill="none" height="132.3633" rx="11.25" ry="11.25" style="stroke:#2F7D5B;stroke-width:0.9375;" width="206.8671" x="832.0875" y="1013.3086"/><ellipse cx="858.3375" cy="1041.4336" fill="#ADD1B2" rx="18.75" ry="18.75" style="stroke:#181818;stroke-width:1.875;"/><path d="M862.8199,1050.252 Q861.9117,1050.7207 860.9156,1050.9551 Q859.9488,1051.1895 858.8648,1051.1895 Q854.9977,1051.1895 852.9469,1048.6406 Q850.9254,1046.0918 850.9254,1041.2578 Q850.9254,1036.4238 852.9469,1033.875 Q854.9977,1031.3262 858.8648,1031.3262 Q859.9488,1031.3262 860.9449,1031.5605 Q861.941,1031.7949 862.8199,1032.2344 L862.8199,1036.4531 Q861.8531,1035.5449 860.9156,1035.1348 Q860.0074,1034.7246 859.0406,1034.7246 Q856.9605,1034.7246 855.9059,1036.3652 Q854.8512,1038.0059 854.8512,1041.2578 Q854.8512,1044.4805 855.9059,1046.1504 Q856.9605,1047.791 859.0406,1047.791 Q860.0074,1047.791 860.9156,1047.3809 Q861.8531,1046.9414 862.8199,1046.0625 L862.8199,1050.252 Z " fill="#000000"/><text fill="#17324D" font-family="sans-serif" font-size="26.25" lengthAdjust="spacing" textLength="150.6171" x="882.7125" y="1050.5211">Notification</text><line style="stroke:#2F7D5B;stroke-width:0.9375;" x1="833.9625" x2="1037.0796" y1="1069.5586" y2="1069.5586"/><text fill="#000000" font-family="sans-serif" font-size="26.25" lengthAdjust="spacing" textLength="106.8457" x="843.3375" y="1101.4244">contenu</text><text fill="#000000" font-family="sans-serif" font-size="26.25" lengthAdjust="spacing" textLength="40.08" x="843.3375" y="1131.9811">lue</text></g><g class="entity" data-qualified-name="GMN24" data-source-line="74" id="ent0025"><path d="M11.25,840.8086 L11.25,898.1719 A11.25,11.25 0 0 0 22.5,909.4219 L662.3511,909.4219 A11.25,11.25 0 0 0 673.6011,898.1719 L673.6011,848.3086 L654.8511,829.5586 L317.4938,829.5586 L309.9938,764.0836 L302.4938,829.5586 L22.5,829.5586 A11.25,11.25 0 0 0 11.25,840.8086" fill="#FFF8E8" style="stroke:#E5AE45;stroke-width:0.9375;"/><path d="M654.8511,829.5586 L654.8511,842.6836 A5.625,5.625 0 0 0 660.4761,848.3086 L673.6011,848.3086 L654.8511,829.5586" fill="#FFF8E8" style="stroke:#E5AE45;stroke-width:0.9375;"/><text fill="#5B481E" font-family="sans-serif" font-size="26.25" lengthAdjust="spacing" textLength="622.9761" x="22.5" y="863.2994">R&#244;les : acheteur, &#233;leveur, vendeur, v&#233;t&#233;rinaire,</text><text fill="#5B481E" font-family="sans-serif" font-size="26.25" lengthAdjust="spacing" textLength="336.4819" x="22.5" y="893.8561">livreur ou administrateur.</text></g><g class="entity" data-qualified-name="GMN27" data-source-line="78" id="ent0028"><path d="M1613.1188,336.4336 L1613.1188,393.7969 A11.25,11.25 0 0 0 1624.3688,405.0469 L2159.7453,405.0469 A11.25,11.25 0 0 0 2170.9953,393.7969 L2170.9953,343.9336 L2152.2453,325.1836 L1899.9938,325.1836 L1892.4938,259.8398 L1884.9938,325.1836 L1624.3688,325.1836 A11.25,11.25 0 0 0 1613.1188,336.4336" fill="#FFF8E8" style="stroke:#E5AE45;stroke-width:0.9375;"/><path d="M2152.2453,325.1836 L2152.2453,338.3086 A5.625,5.625 0 0 0 2157.8703,343.9336 L2170.9953,343.9336 L2152.2453,325.1836" fill="#FFF8E8" style="stroke:#E5AE45;stroke-width:0.9375;"/><text fill="#5B481E" font-family="sans-serif" font-size="26.25" lengthAdjust="spacing" textLength="487.8424" x="1624.3688" y="358.9244">Cr&#233;&#233;e seulement si l'acheteur choisit</text><text fill="#5B481E" font-family="sans-serif" font-size="26.25" lengthAdjust="spacing" textLength="518.5016" x="1624.3688" y="389.4811">une livraison plut&#244;t qu'un retrait direct.</text></g><!--link Utilisateur to Annonce--><g class="link" data-entity-1="ent0002" data-entity-2="ent0003" data-link-type="dependency" data-source-line="60" id="lnk12"><path codeLine="60" d="M438.4875,607.9336 C606.5625,607.9336 936.2438,607.9336 936.2438,607.9336 C936.2438,607.9336 936.2438,557.0836 936.2438,496.6898" fill="none" id="Utilisateur-to-Annonce" style="stroke:#456A7D;stroke-width:2.625;"/><polygon fill="#456A7D" points="936.2438,485.4398,928.7438,502.3148,936.2438,494.8148,943.7438,502.3148,936.2438,485.4398" style="stroke:#456A7D;stroke-width:2.625;"/><text fill="#29485B" font-family="sans-serif" font-size="26.25" lengthAdjust="spacing" textLength="80.6982" x="623.5505" y="634.1744">publie</text><text fill="#29485B" font-family="sans-serif" font-size="26.25" lengthAdjust="spacing" textLength="168.0743" x="579.8625" y="664.7311">[fournisseur]</text><text fill="#29485B" font-family="sans-serif" font-size="26.25" lengthAdjust="spacing" textLength="16.701" x="453.1711" y="626.1439">1</text><text fill="#29485B" font-family="sans-serif" font-size="26.25" lengthAdjust="spacing" textLength="46.5143" x="888.9441" y="523.8179">0..*</text></g><!--reverse link Annonce to ReductionAnnonce--><g class="link" data-entity-1="ent0003" data-entity-2="ent0004" data-link-type="composition" data-source-line="61" id="lnk13"><path codeLine="61" d="M1046.7375,333.2273 C1097.0438,333.2273 1138.875,333.2273 1197,333.2273" fill="none" id="Annonce-backto-ReductionAnnonce" style="stroke:#456A7D;stroke-width:2.625;"/><polygon fill="#456A7D" points="1024.2375,333.2273,1035.4875,340.7273,1046.7375,333.2273,1035.4875,325.7273,1024.2375,333.2273" style="stroke:#456A7D;stroke-width:2.625;"/><text fill="#29485B" font-family="sans-serif" font-size="26.25" lengthAdjust="spacing" textLength="106.0638" x="1003.7438" y="325.7182">propose</text><text fill="#29485B" font-family="sans-serif" font-size="26.25" lengthAdjust="spacing" textLength="16.701" x="1038.4935" y="354.0534">1</text><text fill="#29485B" font-family="sans-serif" font-size="26.25" lengthAdjust="spacing" textLength="46.5143" x="1135.9801" y="359.0005">0..*</text></g><!--link Utilisateur to Commande--><g class="link" data-entity-1="ent0002" data-entity-2="ent0005" data-link-type="dependency" data-source-line="62" id="lnk14"><path codeLine="62" d="M438.9375,645.6211 C628.65,645.6211 1037.3625,645.6211 1233.3188,645.6211" fill="none" id="Utilisateur-to-Commande" style="stroke:#456A7D;stroke-width:2.625;"/><polygon fill="#456A7D" points="1244.5688,645.6211,1227.6938,638.1211,1235.1938,645.6211,1227.6938,653.1211,1244.5688,645.6211" style="stroke:#456A7D;stroke-width:2.625;"/><text fill="#29485B" font-family="sans-serif" font-size="26.25" lengthAdjust="spacing" textLength="76.2506" x="874.3415" y="608.1119">passe</text><text fill="#29485B" font-family="sans-serif" font-size="26.25" lengthAdjust="spacing" textLength="137.6587" x="843.6375" y="638.6686">[acheteur]</text><text fill="#29485B" font-family="sans-serif" font-size="26.25" lengthAdjust="spacing" textLength="16.701" x="453.0289" y="669.1693">1</text><text fill="#29485B" font-family="sans-serif" font-size="26.25" lengthAdjust="spacing" textLength="46.5143" x="1184.1873" y="680.2144">0..*</text></g><!--link Annonce to Commande--><g class="link" data-entity-1="ent0003" data-entity-2="ent0005" data-link-type="dependency" data-source-line="63" id="lnk15"><path codeLine="63" d="M1024.2375,474.7898 C1089.0188,474.7898 1165.8188,474.7898 1233.9,474.7898" fill="none" id="Annonce-to-Commande" style="stroke:#456A7D;stroke-width:2.625;"/><polygon fill="#456A7D" points="1245.15,474.7898,1228.275,467.2898,1235.775,474.7898,1228.275,482.2898,1245.15,474.7898" style="stroke:#456A7D;stroke-width:2.625;"/><text fill="#29485B" font-family="sans-serif" font-size="26.25" lengthAdjust="spacing" textLength="121.2909" x="1136.5688" y="467.2807">concerne</text><text fill="#29485B" font-family="sans-serif" font-size="26.25" lengthAdjust="spacing" textLength="16.701" x="1038.4935" y="516.4079">1</text><text fill="#29485B" font-family="sans-serif" font-size="26.25" lengthAdjust="spacing" textLength="46.5143" x="1184.0542" y="488.0199">0..*</text></g><!--reverse link Commande to Paiement--><g class="link" data-entity-1="ent0005" data-entity-2="ent0006" data-link-type="composition" data-source-line="64" id="lnk16"><path codeLine="64" d="M1475.6063,576.9773 C1576.6125,576.9773 1705.8562,576.9773 1801.875,576.9773" fill="none" id="Commande-backto-Paiement" style="stroke:#456A7D;stroke-width:2.625;"/><polygon fill="#456A7D" points="1453.1063,576.9773,1464.3563,584.4773,1475.6063,576.9773,1464.3563,569.4773,1453.1063,576.9773" style="stroke:#456A7D;stroke-width:2.625;"/><text fill="#29485B" font-family="sans-serif" font-size="26.25" lengthAdjust="spacing" textLength="67.0477" x="1559.9813" y="603.2182">r&#232;gle</text><text fill="#29485B" font-family="sans-serif" font-size="26.25" lengthAdjust="spacing" textLength="16.701" x="1467.5106" y="603.3002">1</text><text fill="#29485B" font-family="sans-serif" font-size="26.25" lengthAdjust="spacing" textLength="50.0903" x="1737.1092" y="603.4903">0..1</text></g><!--reverse link Commande to Livraison--><g class="link" data-entity-1="ent0005" data-entity-2="ent0007" data-link-type="composition" data-source-line="65" id="lnk17"><path codeLine="65" d="M1476.075,480.2461 C1527.825,480.2461 1556.8688,480.2461 1556.8688,480.2461 C1556.8688,480.2461 1556.8688,204.7523 1556.8688,204.7523 C1556.8688,204.7523 1705.5563,204.7523 1804.875,204.7523" fill="none" id="Commande-backto-Livraison" style="stroke:#456A7D;stroke-width:2.625;"/><polygon fill="#456A7D" points="1453.575,480.2461,1464.825,487.7461,1476.075,480.2461,1464.825,472.7461,1453.575,480.2461" style="stroke:#456A7D;stroke-width:2.625;"/><text fill="#29485B" font-family="sans-serif" font-size="26.25" lengthAdjust="spacing" textLength="57.063" x="1601.996" y="232.6432">livre</text><text fill="#29485B" font-family="sans-serif" font-size="26.25" lengthAdjust="spacing" textLength="143.5675" x="1558.7438" y="263.1998">[optionnel]</text><text fill="#29485B" font-family="sans-serif" font-size="26.25" lengthAdjust="spacing" textLength="16.701" x="1468.0394" y="494.1753">1</text><text fill="#29485B" font-family="sans-serif" font-size="26.25" lengthAdjust="spacing" textLength="50.0903" x="1739.8388" y="235.3484">0..1</text></g><!--link Utilisateur to Livraison--><g class="link" data-entity-1="ent0002" data-entity-2="ent0007" data-link-type="dependency" data-source-line="66" id="lnk18"><path codeLine="66" d="M341.8688,569.8336 C341.8688,420.2086 341.8688,150.4523 341.8688,150.4523 C341.8688,150.4523 1465.0875,150.4523 1793.025,150.4523" fill="none" id="Utilisateur-to-Livraison" style="stroke:#456A7D;stroke-width:2.625;"/><polygon fill="#456A7D" points="1804.275,150.4523,1787.4,142.9523,1794.9,150.4523,1787.4,157.9523,1804.275,150.4523" style="stroke:#456A7D;stroke-width:2.625;"/><text fill="#29485B" font-family="sans-serif" font-size="26.25" lengthAdjust="spacing" textLength="87.0172" x="767.3598" y="176.6932">assure</text><text fill="#29485B" font-family="sans-serif" font-size="26.25" lengthAdjust="spacing" textLength="104.9744" x="758.3813" y="207.2498">[livreur]</text><text fill="#29485B" font-family="sans-serif" font-size="26.25" lengthAdjust="spacing" textLength="50.0903" x="289.8591" y="549.1666">0..1</text><text fill="#29485B" font-family="sans-serif" font-size="26.25" lengthAdjust="spacing" textLength="46.5143" x="1743.1889" y="173.0731">0..*</text></g><!--link Paiement to Versement--><g class="link" data-entity-1="ent0006" data-entity-2="ent0008" data-link-type="dependency" data-source-line="67" id="lnk19"><path codeLine="67" d="M1982.7375,576.9773 C2067.8438,576.9773 2183.6625,576.9773 2271.7687,576.9773" fill="none" id="Paiement-to-Versement" style="stroke:#456A7D;stroke-width:2.625;"/><polygon fill="#456A7D" points="2283.0187,576.9773,2266.1437,569.4773,2273.6437,576.9773,2266.1437,584.4773,2283.0187,576.9773" style="stroke:#456A7D;stroke-width:2.625;"/><text fill="#29485B" font-family="sans-serif" font-size="26.25" lengthAdjust="spacing" textLength="134.5441" x="1997.8687" y="569.4682">d&#233;clenche</text><text fill="#29485B" font-family="sans-serif" font-size="26.25" lengthAdjust="spacing" textLength="16.701" x="1997.2822" y="603.5857">1</text><text fill="#29485B" font-family="sans-serif" font-size="26.25" lengthAdjust="spacing" textLength="46.5143" x="2221.6192" y="603.3949">1..*</text></g><!--link Utilisateur to ServiceVeterinaire--><g class="link" data-entity-1="ent0002" data-entity-2="ent0009" data-link-type="dependency" data-source-line="68" id="lnk20"><path codeLine="68" d="M438.375,710.1023 C532.1438,710.1023 665.025,710.1023 774,710.1023" fill="none" id="Utilisateur-to-ServiceVeterinaire" style="stroke:#456A7D;stroke-width:2.625;"/><polygon fill="#456A7D" points="785.25,710.1023,768.375,702.6023,775.875,710.1023,768.375,717.6023,785.25,710.1023" style="stroke:#456A7D;stroke-width:2.625;"/><text fill="#29485B" font-family="sans-serif" font-size="26.25" lengthAdjust="spacing" textLength="106.0638" x="475.6068" y="736.3432">propose</text><text fill="#29485B" font-family="sans-serif" font-size="26.25" lengthAdjust="spacing" textLength="163.6523" x="446.8125" y="766.8998">[v&#233;t&#233;rinaire]</text><text fill="#29485B" font-family="sans-serif" font-size="26.25" lengthAdjust="spacing" textLength="16.701" x="453.0427" y="708.4614">1</text><text fill="#29485B" font-family="sans-serif" font-size="26.25" lengthAdjust="spacing" textLength="46.5143" x="724.3923" y="732.2456">0..*</text></g><!--link ServiceVeterinaire to RendezVous--><g class="link" data-entity-1="ent0009" data-entity-2="ent0010" data-link-type="dependency" data-source-line="69" id="lnk21"><path codeLine="69" d="M1085.4,806.6648 C1136.25,806.6648 1180.8188,806.6648 1227.9563,806.6648" fill="none" id="ServiceVeterinaire-to-RendezVous" style="stroke:#456A7D;stroke-width:2.625;"/><polygon fill="#456A7D" points="1239.2063,806.6648,1222.3313,799.1648,1229.8313,806.6648,1222.3313,814.1648,1239.2063,806.6648" style="stroke:#456A7D;stroke-width:2.625;"/><text fill="#29485B" font-family="sans-serif" font-size="26.25" lengthAdjust="spacing" textLength="121.2909" x="1040.4375" y="832.9057">concerne</text><text fill="#29485B" font-family="sans-serif" font-size="26.25" lengthAdjust="spacing" textLength="16.701" x="1099.9866" y="837.7099">1</text><text fill="#29485B" font-family="sans-serif" font-size="26.25" lengthAdjust="spacing" textLength="46.5143" x="1178.1708" y="792.2652">0..*</text></g><!--link Utilisateur to RendezVous--><g class="link" data-entity-1="ent0002" data-entity-2="ent0010" data-link-type="dependency" data-source-line="70" id="lnk22"><path codeLine="70" d="M373.7438,763.7648 C373.7438,795.4148 373.7438,822.6023 373.7438,822.6023 C373.7438,822.6023 972.75,822.6023 1227.8063,822.6023" fill="none" id="Utilisateur-to-RendezVous" style="stroke:#456A7D;stroke-width:2.625;"/><polygon fill="#456A7D" points="1239.0563,822.6023,1222.1813,815.1023,1229.6813,822.6023,1222.1813,830.1023,1239.0563,822.6023" style="stroke:#456A7D;stroke-width:2.625;"/><text fill="#29485B" font-family="sans-serif" font-size="26.25" lengthAdjust="spacing" textLength="123.9185" x="778.8562" y="848.8432">demande</text><text fill="#29485B" font-family="sans-serif" font-size="26.25" lengthAdjust="spacing" textLength="119.1888" x="781.2211" y="879.3998">[&#233;leveur]</text><text fill="#29485B" font-family="sans-serif" font-size="26.25" lengthAdjust="spacing" textLength="16.701" x="362.0591" y="803.1886">1</text><text fill="#29485B" font-family="sans-serif" font-size="26.25" lengthAdjust="spacing" textLength="46.5143" x="1178.8258" y="843.9637">0..*</text></g><!--link Utilisateur to Notification--><g class="link" data-entity-1="ent0002" data-entity-2="ent0011" data-link-type="dependency" data-source-line="71" id="lnk23"><path codeLine="71" d="M438.7313,736.9148 C553.5188,736.9148 729.9938,736.9148 729.9938,736.9148 C729.9938,736.9148 729.9938,1079.4773 729.9938,1079.4773 C729.9938,1079.4773 769.3313,1079.4773 820.3125,1079.4773" fill="none" id="Utilisateur-to-Notification" style="stroke:#456A7D;stroke-width:2.625;"/><polygon fill="#456A7D" points="831.5625,1079.4773,814.6875,1071.9773,822.1875,1079.4773,814.6875,1086.9773,831.5625,1079.4773" style="stroke:#456A7D;stroke-width:2.625;"/><text fill="#29485B" font-family="sans-serif" font-size="26.25" lengthAdjust="spacing" textLength="75.0201" x="653.1188" y="805.8307">re&#231;oit</text><text fill="#29485B" font-family="sans-serif" font-size="26.25" lengthAdjust="spacing" textLength="16.701" x="452.795" y="772.7306">1</text><text fill="#29485B" font-family="sans-serif" font-size="26.25" lengthAdjust="spacing" textLength="46.5143" x="770.457" y="1105.7991">0..*</text></g><?plantuml-src VLHBRjj03DtFALXl0WInaMozA104NHHeWjH1icc3OYpHDj7vg3CSeqvHe8Ve7HhlSmFTf2SfDRPa9KwziKQUz_X8Feflo1KcbGWbwNdGzalabS4H9MkKCZXZO0-1vWiMHC22oJkr826WhNW55kqKGrJnAxbAIm0eZ8xnd3dGD36-BxoxeGU4KyN41k7Ib_MZF6szPi80vT4xWyiBxvm4Xx-_ViCo8KIobQ4PrMjKAaU4MoP3KJEc03yK09NouxoLNxIQZ3o3DwX-Rl7dpdbNu0xBgmhbKGNwVkk8jPGZhz-ITf9PSuoiEN4NO89bolNs8xNmIt9DB9z2WOxrVATxuQtLhkm9zoIi5x3ZA-JyKk84EMZYVVLhJMWbT0x3dhN9Z1MwVUm7MagGw5q6Roy12ed_SIA79GRfPQ6pUItfJcpRAMmJazCK7GgOjlrv8NM3OKa5tY5BJDTWDWaIXxQvlGPA6nxkV8ePKuftrm75tlsmLvwx33DOneRH9JcPrFHMzUqVd0rWE7mBWzFHw7ZGEJs6AaqDuMVtQIR6E8fHqFUglMzenyDXIzlpL_Z1LpxY8R7ENa5BvesOBXR8UqglSuhcFZXKtN_zhEJO-Jw6K3_EpV-HEzV7OEJSfEAhfY27vlvv3Hj6BwK-MSf8cPsZD7LqINI5d6NMRcR6KDRhmg2JsW-rwvLvwTeiYalP0lLwUtElNa6_YDURgLup3oJmZ51YxgG8rslPEhdM0zndKob-OFt7oxUgd6U4gMVs5loilvbaNYVray56h1sB4sZ5JkHB5Fbyw1T-qepvflVW4-ZIaWolB8Q6FbB2WKRofMxdeT0lGhsMPGaoyMRZK2GmHsqEK2mynRndaiCijd6_Cedh9vOTTPISL9YtqNRLxvJ_0G00?></g></svg>