<?xml version="1.0" encoding="us-ascii" standalone="no"?><svg xmlns="http://www.w3.org/2000/svg" xmlns:xlink="http://www.w3.org/1999/xlink" contentStyleType="text/css" height="1683.75px" preserveAspectRatio="none" style="width:1631px;height:1683px;background:#FFFFFF;" version="1.1" viewBox="0 0 1631 1683" width="1631.25px" zoomAndPan="magnify"><defs/><g><text fill="#17324D" font-family="sans-serif" font-size="37.5" font-weight="bold" lengthAdjust="spacing" textLength="551.25" x="527.3438" y="57.6782">Mod&#232;le conceptuel de donn&#233;es</text><!--class UTILISATEUR--><g id="elem_UTILISATEUR"><rect codeLine="54" fill="#FFFFFF" height="218.3203" id="UTILISATEUR" rx="11.25" ry="11.25" style="stroke:#2F7D5B;stroke-width:0.9375;" width="219.375" x="627.1875" y="99.668"/><rect fill="#E4F3EA" height="56.25" rx="11.25" ry="11.25" style="stroke:#E4F3EA;stroke-width:0.9375;" width="219.375" x="627.1875" y="99.668"/><rect fill="#E4F3EA" height="11.25" style="stroke:#E4F3EA;stroke-width:0.9375;" width="219.375" x="627.1875" y="144.668"/><rect codeLine="54" fill="none" height="218.3203" id="UTILISATEUR" rx="11.25" ry="11.25" style="stroke:#2F7D5B;stroke-width:0.9375;" width="219.375" x="627.1875" y="99.668"/><ellipse cx="653.4375" cy="127.793" fill="#ADD1B2" rx="18.75" ry="18.75" style="stroke:#181818;stroke-width:1.875;"/><path d="M652.0605,128.8184 L652.0605,132.6563 L658.7695,132.6563 L658.7695,131.25 Q658.7695,130.2832 659.1211,129.9023 Q659.502,129.4922 660.0879,129.4922 Q660.6445,129.4922 660.9961,129.9023 Q661.377,130.2832 661.377,131.25 L661.377,135.293 L649.0137,135.293 Q648.0762,135.293 647.666,134.9414 Q647.2559,134.5605 647.2559,133.9746 Q647.2559,133.3887 647.666,133.0371 Q648.0762,132.6563 649.0137,132.6563 L649.4238,132.6563 L649.4238,122.373 L649.0137,122.373 Q648.0762,122.373 647.666,122.0215 Q647.2559,121.6406 647.2559,121.0547 Q647.2559,120.4688 647.666,120.1172 Q648.0762,119.7363 649.0137,119.7363 L660.8203,119.7656 L660.8203,123.75 Q660.8203,124.6875 660.4395,125.0977 Q660.0879,125.5078 659.502,125.5078 Q658.916,125.5078 658.5352,125.127 Q658.1836,124.7168 658.1836,123.75 L658.1836,122.373 L652.0605,122.373 L652.0605,126.1816 L654.375,126.1816 Q654.375,125.1563 654.5508,124.8633 Q654.9609,124.2188 655.6934,124.2188 Q656.25,124.2188 656.6016,124.6289 Q656.9824,125.0391 656.9824,125.9766 L656.9824,129.0234 Q656.9824,129.873 656.7773,130.166 Q656.3672,130.7813 655.6934,130.7813 Q654.9609,130.7813 654.5508,130.1367 Q654.375,129.8438 654.375,128.8184 L652.0605,128.8184 Z " fill="#000000"/><text fill="#17324D" font-family="sans-serif" font-size="26.25" lengthAdjust="spacing" textLength="163.125" x="677.8125" y="138.5339">UTILISATEUR</text><line style="stroke:#2F7D5B;stroke-width:0.9375;" x1="629.0625" x2="844.6875" y1="155.918" y2="155.918"/><ellipse cx="647.8125" cy="182.7393" fill="#000000" rx="5.625" ry="5.625" style="stroke:#000000;stroke-width:1.875;"/><text fill="#000000" font-family="sans-serif" font-size="26.25" lengthAdjust="spacing" textLength="150" x="662.8125" y="190.6677">id_utilisateur</text><line style="stroke:#2F7D5B;stroke-width:1.875;" x1="629.0625" x2="844.6875" y1="203.9355" y2="203.9355"/><text fill="#000000" font-family="sans-serif" font-size="26.25" lengthAdjust="spacing" textLength="50.625" x="638.4375" y="238.6853">nom</text><text fill="#000000" font-family="sans-serif" font-size="26.25" lengthAdjust="spacing" textLength="61.875" x="638.4375" y="271.7029">email</text><text fill="#000000" font-family="sans-serif" font-size="26.25" lengthAdjust="spacing" textLength="45" x="638.4375" y="304.7205">role</text></g><!--class ANNONCE--><g id="elem_ANNONCE"><rect codeLine="61" fill="#FFFFFF" height="251.3379" id="ANNONCE" rx="11.25" ry="11.25" style="stroke:#2F7D5B;stroke-width:0.9375;" width="185.625" x="317.8125" y="429.668"/><rect fill="#E4F3EA" height="56.25" rx="11.25" ry="11.25" style="stroke:#E4F3EA;stroke-width:0.9375;" width="185.625" x="317.8125" y="429.668"/><rect fill="#E4F3EA" height="11.25" style="stroke:#E4F3EA;stroke-width:0.9375;" width="185.625" x="317.8125" y="474.668"/><rect codeLine="61" fill="none" height="251.3379" id="ANNONCE" rx="11.25" ry="11.25" style="stroke:#2F7D5B;stroke-width:0.9375;" width="185.625" x="317.8125" y="429.668"/><ellipse cx="346.5938" cy="457.793" fill="#ADD1B2" rx="18.75" ry="18.75" style="stroke:#181818;stroke-width:1.875;"/><path d="M345.2168,458.8184 L345.2168,462.6563 L351.9258,462.6563 L351.9258,461.25 Q351.9258,460.2832 352.2773,459.9023 Q352.6582,459.4922 353.2441,459.4922 Q353.8008,459.4922 354.1523,459.9023 Q354.5332,460.2832 354.5332,461.25 L354.5332,465.293 L342.1699,465.293 Q341.2324,465.293 340.8223,464.9414 Q340.4121,464.5605 340.4121,463.9746 Q340.4121,463.3887 340.8223,463.0371 Q341.2324,462.6563 342.1699,462.6563 L342.5801,462.6563 L342.5801,452.373 L342.1699,452.373 Q341.2324,452.373 340.8223,452.0215 Q340.4121,451.6406 340.4121,451.0547 Q340.4121,450.4688 340.8223,450.1172 Q341.2324,449.7363 342.1699,449.7363 L353.9766,449.7656 L353.9766,453.75 Q353.9766,454.6875 353.5957,455.0977 Q353.2441,455.5078 352.6582,455.5078 Q352.0723,455.5078 351.6914,455.127 Q351.3398,454.7168 351.3398,453.75 L351.3398,452.373 L345.2168,452.373 L345.2168,456.1816 L347.5313,456.1816 Q347.5313,455.1563 347.707,454.8633 Q348.1172,454.2188 348.8496,454.2188 Q349.4063,454.2188 349.7578,454.6289 Q350.1387,455.0391 350.1387,455.9766 L350.1387,459.0234 Q350.1387,459.873 349.9336,460.166 Q349.5234,460.7813 348.8496,460.7813 Q348.1172,460.7813 347.707,460.1367 Q347.5313,459.8438 347.5313,458.8184 L345.2168,458.8184 Z " fill="#000000"/><text fill="#17324D" font-family="sans-serif" font-size="26.25" lengthAdjust="spacing" textLength="123.75" x="371.5313" y="468.5339">ANNONCE</text><line style="stroke:#2F7D5B;stroke-width:0.9375;" x1="319.6875" x2="501.5625" y1="485.918" y2="485.918"/><ellipse cx="338.4375" cy="512.7393" fill="#000000" rx="5.625" ry="5.625" style="stroke:#000000;stroke-width:1.875;"/><text fill="#000000" font-family="sans-serif" font-size="26.25" lengthAdjust="spacing" textLength="138.75" x="353.4375" y="520.6677">id_annonce</text><line style="stroke:#2F7D5B;stroke-width:1.875;" x1="319.6875" x2="501.5625" y1="533.9355" y2="533.9355"/><text fill="#000000" font-family="sans-serif" font-size="26.25" lengthAdjust="spacing" textLength="50.625" x="329.0625" y="568.6853">type</text><text fill="#000000" font-family="sans-serif" font-size="26.25" lengthAdjust="spacing" textLength="41.25" x="329.0625" y="601.7029">prix</text><text fill="#000000" font-family="sans-serif" font-size="26.25" lengthAdjust="spacing" textLength="95.625" x="329.0625" y="634.7205">quantite</text><text fill="#000000" font-family="sans-serif" font-size="26.25" lengthAdjust="spacing" textLength="65.625" x="329.0625" y="667.738">statut</text></g><!--class REDUCTION_ANNONCE--><g id="elem_REDUCTION_ANNONCE"><rect codeLine="69" fill="#FFFFFF" height="185.3027" id="REDUCTION_ANNONCE" rx="11.25" ry="11.25" style="stroke:#2F7D5B;stroke-width:0.9375;" width="345" x="13.125" y="826.2305"/><rect fill="#E4F3EA" height="56.25" rx="11.25" ry="11.25" style="stroke:#E4F3EA;stroke-width:0.9375;" width="345" x="13.125" y="826.2305"/><rect fill="#E4F3EA" height="11.25" style="stroke:#E4F3EA;stroke-width:0.9375;" width="345" x="13.125" y="871.2305"/><rect codeLine="69" fill="none" height="185.3027" id="REDUCTION_ANNONCE" rx="11.25" ry="11.25" style="stroke:#2F7D5B;stroke-width:0.9375;" width="345" x="13.125" y="826.2305"/><ellipse cx="39.375" cy="854.3555" fill="#ADD1B2" rx="18.75" ry="18.75" style="stroke:#181818;stroke-width:1.875;"/><path d="M37.998,855.3809 L37.998,859.2188 L44.707,859.2188 L44.707,857.8125 Q44.707,856.8457 45.0586,856.4648 Q45.4395,856.0547 46.0254,856.0547 Q46.582,856.0547 46.9336,856.4648 Q47.3145,856.8457 47.3145,857.8125 L47.3145,861.8555 L34.9512,861.8555 Q34.0137,861.8555 33.6035,861.5039 Q33.1934,861.123 33.1934,860.5371 Q33.1934,859.9512 33.6035,859.5996 Q34.0137,859.2188 34.9512,859.2188 L35.3613,859.2188 L35.3613,848.9355 L34.9512,848.9355 Q34.0137,848.9355 33.6035,848.584 Q33.1934,848.2031 33.1934,847.6172 Q33.1934,847.0313 33.6035,846.6797 Q34.0137,846.2988 34.9512,846.2988 L46.7578,846.3281 L46.7578,850.3125 Q46.7578,851.25 46.377,851.6602 Q46.0254,852.0703 45.4395,852.0703 Q44.8535,852.0703 44.4727,851.6895 Q44.1211,851.2793 44.1211,850.3125 L44.1211,848.9355 L37.998,848.9355 L37.998,852.7441 L40.3125,852.7441 Q40.3125,851.7188 40.4883,851.4258 Q40.8984,850.7813 41.6309,850.7813 Q42.1875,850.7813 42.5391,851.1914 Q42.9199,851.6016 42.9199,852.5391 L42.9199,855.5859 Q42.9199,856.4355 42.7148,856.7285 Q42.3047,857.3438 41.6309,857.3438 Q40.8984,857.3438 40.4883,856.6992 Q40.3125,856.4063 40.3125,855.3809 L37.998,855.3809 Z " fill="#000000"/><text fill="#17324D" font-family="sans-serif" font-size="26.25" lengthAdjust="spacing" textLength="288.75" x="63.75" y="865.0964">REDUCTION_ANNONCE</text><line style="stroke:#2F7D5B;stroke-width:0.9375;" x1="15" x2="356.25" y1="882.4805" y2="882.4805"/><ellipse cx="33.75" cy="909.3018" fill="#000000" rx="5.625" ry="5.625" style="stroke:#000000;stroke-width:1.875;"/><text fill="#000000" font-family="sans-serif" font-size="26.25" lengthAdjust="spacing" textLength="146.25" x="48.75" y="917.2302">id_reduction</text><line style="stroke:#2F7D5B;stroke-width:1.875;" x1="15" x2="356.25" y1="930.498" y2="930.498"/><text fill="#000000" font-family="sans-serif" font-size="26.25" lengthAdjust="spacing" textLength="165" x="24.375" y="965.2478">seuil_quantite</text><text fill="#000000" font-family="sans-serif" font-size="26.25" lengthAdjust="spacing" textLength="150" x="24.375" y="998.2654">pourcentage</text></g><!--class COMMANDE--><g id="elem_COMMANDE"><rect codeLine="75" fill="#FFFFFF" height="251.3379" id="COMMANDE" rx="11.25" ry="11.25" style="stroke:#2F7D5B;stroke-width:0.9375;" width="211.875" x="424.6875" y="793.418"/><rect fill="#E4F3EA" height="56.25" rx="11.25" ry="11.25" style="stroke:#E4F3EA;stroke-width:0.9375;" width="211.875" x="424.6875" y="793.418"/><rect fill="#E4F3EA" height="11.25" style="stroke:#E4F3EA;stroke-width:0.9375;" width="211.875" x="424.6875" y="838.418"/><rect codeLine="75" fill="none" height="251.3379" id="COMMANDE" rx="11.25" ry="11.25" style="stroke:#2F7D5B;stroke-width:0.9375;" width="211.875" x="424.6875" y="793.418"/><ellipse cx="453.4688" cy="821.543" fill="#ADD1B2" rx="18.75" ry="18.75" style="stroke:#181818;stroke-width:1.875;"/><path d="M452.0918,822.5684 L452.0918,826.4063 L458.8008,826.4063 L458.8008,825 Q458.8008,824.0332 459.1523,823.6523 Q459.5332,823.2422 460.1191,823.2422 Q460.6758,823.2422 461.0273,823.6523 Q461.4082,824.0332 461.4082,825 L461.4082,829.043 L449.0449,829.043 Q448.1074,829.043 447.6973,828.6914 Q447.2871,828.3105 447.2871,827.7246 Q447.2871,827.1387 447.6973,826.7871 Q448.1074,826.4063 449.0449,826.4063 L449.4551,826.4063 L449.4551,816.123 L449.0449,816.123 Q448.1074,816.123 447.6973,815.7715 Q447.2871,815.3906 447.2871,814.8047 Q447.2871,814.2188 447.6973,813.8672 Q448.1074,813.4863 449.0449,813.4863 L460.8516,813.5156 L460.8516,817.5 Q460.8516,818.4375 460.4707,818.8477 Q460.1191,819.2578 459.5332,819.2578 Q458.9473,819.2578 458.5664,818.877 Q458.2148,818.4668 458.2148,817.5 L458.2148,816.123 L452.0918,816.123 L452.0918,819.9316 L454.4063,819.9316 Q454.4063,818.9063 454.582,818.6133 Q454.9922,817.9688 455.7246,817.9688 Q456.2813,817.9688 456.6328,818.3789 Q457.0137,818.7891 457.0137,819.7266 L457.0137,822.7734 Q457.0137,823.623 456.8086,823.916 Q456.3984,824.5313 455.7246,824.5313 Q454.9922,824.5313 454.582,823.8867 Q454.4063,823.5938 454.4063,822.5684 L452.0918,822.5684 Z " fill="#000000"/><text fill="#17324D" font-family="sans-serif" font-size="26.25" lengthAdjust="spacing" textLength="150" x="478.4063" y="832.2839">COMMANDE</text><line style="stroke:#2F7D5B;stroke-width:0.9375;" x1="426.5625" x2="634.6875" y1="849.668" y2="849.668"/><ellipse cx="445.3125" cy="876.4893" fill="#000000" rx="5.625" ry="5.625" style="stroke:#000000;stroke-width:1.875;"/><text fill="#000000" font-family="sans-serif" font-size="26.25" lengthAdjust="spacing" textLength="165" x="460.3125" y="884.4177">id_commande</text><line style="stroke:#2F7D5B;stroke-width:1.875;" x1="426.5625" x2="634.6875" y1="897.6855" y2="897.6855"/><text fill="#000000" font-family="sans-serif" font-size="26.25" lengthAdjust="spacing" textLength="95.625" x="435.9375" y="932.4353">quantite</text><text fill="#000000" font-family="sans-serif" font-size="26.25" lengthAdjust="spacing" textLength="148.125" x="435.9375" y="965.4529">montant_net</text><text fill="#000000" font-family="sans-serif" font-size="26.25" lengthAdjust="spacing" textLength="150" x="435.9375" y="998.4705">mode_retrait</text><text fill="#000000" font-family="sans-serif" font-size="26.25" lengthAdjust="spacing" textLength="65.625" x="435.9375" y="1031.488">statut</text></g><!--class PAIEMENT--><g id="elem_PAIEMENT"><rect codeLine="83" fill="#FFFFFF" height="218.3203" id="PAIEMENT" rx="11.25" ry="11.25" style="stroke:#2F7D5B;stroke-width:0.9375;" width="191.25" x="198.75" y="1157.168"/><rect fill="#E4F3EA" height="56.25" rx="11.25" ry="11.25" style="stroke:#E4F3EA;stroke-width:0.9375;" width="191.25" x="198.75" y="1157.168"/><rect fill="#E4F3EA" height="11.25" style="stroke:#E4F3EA;stroke-width:0.9375;" width="191.25" x="198.75" y="1202.168"/><rect codeLine="83" fill="none" height="218.3203" id="PAIEMENT" rx="11.25" ry="11.25" style="stroke:#2F7D5B;stroke-width:0.9375;" width="191.25" x="198.75" y="1157.168"/><ellipse cx="228.375" cy="1185.293" fill="#ADD1B2" rx="18.75" ry="18.75" style="stroke:#181818;stroke-width:1.875;"/><path d="M226.998,1186.3184 L226.998,1190.1563 L233.707,1190.1563 L233.707,1188.75 Q233.707,1187.7832 234.0586,1187.4023 Q234.4395,1186.9922 235.0254,1186.9922 Q235.582,1186.9922 235.9336,1187.4023 Q236.3145,1187.7832 236.3145,1188.75 L236.3145,1192.793 L223.9512,1192.793 Q223.0137,1192.793 222.6035,1192.4414 Q222.1934,1192.0605 222.1934,1191.4746 Q222.1934,1190.8887 222.6035,1190.5371 Q223.0137,1190.1563 223.9512,1190.1563 L224.3613,1190.1563 L224.3613,1179.873 L223.9512,1179.873 Q223.0137,1179.873 222.6035,1179.5215 Q222.1934,1179.1406 222.1934,1178.5547 Q222.1934,1177.9688 222.6035,1177.6172 Q223.0137,1177.2363 223.9512,1177.2363 L235.7578,1177.2656 L235.7578,1181.25 Q235.7578,1182.1875 235.377,1182.5977 Q235.0254,1183.0078 234.4395,1183.0078 Q233.8535,1183.0078 233.4727,1182.627 Q233.1211,1182.2168 233.1211,1181.25 L233.1211,1179.873 L226.998,1179.873 L226.998,1183.6816 L229.3125,1183.6816 Q229.3125,1182.6563 229.4883,1182.3633 Q229.8984,1181.7188 230.6309,1181.7188 Q231.1875,1181.7188 231.5391,1182.1289 Q231.9199,1182.5391 231.9199,1183.4766 L231.9199,1186.5234 Q231.9199,1187.373 231.7148,1187.666 Q231.3047,1188.2813 230.6309,1188.2813 Q229.8984,1188.2813 229.4883,1187.6367 Q229.3125,1187.3438 229.3125,1186.3184 L226.998,1186.3184 Z " fill="#000000"/><text fill="#17324D" font-family="sans-serif" font-size="26.25" lengthAdjust="spacing" textLength="127.5" x="253.5" y="1196.0339">PAIEMENT</text><line style="stroke:#2F7D5B;stroke-width:0.9375;" x1="200.625" x2="388.125" y1="1213.418" y2="1213.418"/><ellipse cx="219.375" cy="1240.2393" fill="#000000" rx="5.625" ry="5.625" style="stroke:#000000;stroke-width:1.875;"/><text fill="#000000" font-family="sans-serif" font-size="26.25" lengthAdjust="spacing" textLength="144.375" x="234.375" y="1248.1677">id_paiement</text><line style="stroke:#2F7D5B;stroke-width:1.875;" x1="200.625" x2="388.125" y1="1261.4355" y2="1261.4355"/><text fill="#000000" font-family="sans-serif" font-size="26.25" lengthAdjust="spacing" textLength="50.625" x="210" y="1296.1853">total</text><text fill="#000000" font-family="sans-serif" font-size="26.25" lengthAdjust="spacing" textLength="78.75" x="210" y="1329.2029">moyen</text><text fill="#000000" font-family="sans-serif" font-size="26.25" lengthAdjust="spacing" textLength="65.625" x="210" y="1362.2205">statut</text></g><!--class LIVRAISON--><g id="elem_LIVRAISON"><rect codeLine="90" fill="#FFFFFF" height="185.3027" id="LIVRAISON" rx="11.25" ry="11.25" style="stroke:#2F7D5B;stroke-width:0.9375;" width="189.375" x="539.0625" y="1173.1055"/><rect fill="#E4F3EA" height="56.25" rx="11.25" ry="11.25" style="stroke:#E4F3EA;stroke-width:0.9375;" width="189.375" x="539.0625" y="1173.1055"/><rect fill="#E4F3EA" height="11.25" style="stroke:#E4F3EA;stroke-width:0.9375;" width="189.375" x="539.0625" y="1218.1055"/><rect codeLine="90" fill="none" height="185.3027" id="LIVRAISON" rx="11.25" ry="11.25" style="stroke:#2F7D5B;stroke-width:0.9375;" width="189.375" x="539.0625" y="1173.1055"/><ellipse cx="565.3125" cy="1201.2305" fill="#ADD1B2" rx="18.75" ry="18.75" style="stroke:#181818;stroke-width:1.875;"/><path d="M563.9355,1202.2559 L563.9355,1206.0938 L570.6445,1206.0938 L570.6445,1204.6875 Q570.6445,1203.7207 570.9961,1203.3398 Q571.377,1202.9297 571.9629,1202.9297 Q572.5195,1202.9297 572.8711,1203.3398 Q573.252,1203.7207 573.252,1204.6875 L573.252,1208.7305 L560.8887,1208.7305 Q559.9512,1208.7305 559.541,1208.3789 Q559.1309,1207.998 559.1309,1207.4121 Q559.1309,1206.8262 559.541,1206.4746 Q559.9512,1206.0938 560.8887,1206.0938 L561.2988,1206.0938 L561.2988,1195.8105 L560.8887,1195.8105 Q559.9512,1195.8105 559.541,1195.459 Q559.1309,1195.0781 559.1309,1194.4922 Q559.1309,1193.9063 559.541,1193.5547 Q559.9512,1193.1738 560.8887,1193.1738 L572.6953,1193.2031 L572.6953,1197.1875 Q572.6953,1198.125 572.3145,1198.5352 Q571.9629,1198.9453 571.377,1198.9453 Q570.791,1198.9453 570.4102,1198.5645 Q570.0586,1198.1543 570.0586,1197.1875 L570.0586,1195.8105 L563.9355,1195.8105 L563.9355,1199.6191 L566.25,1199.6191 Q566.25,1198.5938 566.4258,1198.3008 Q566.8359,1197.6563 567.5684,1197.6563 Q568.125,1197.6563 568.4766,1198.0664 Q568.8574,1198.4766 568.8574,1199.4141 L568.8574,1202.4609 Q568.8574,1203.3105 568.6523,1203.6035 Q568.2422,1204.2188 567.5684,1204.2188 Q566.8359,1204.2188 566.4258,1203.5742 Q566.25,1203.2813 566.25,1202.2559 L563.9355,1202.2559 Z " fill="#000000"/><text fill="#17324D" font-family="sans-serif" font-size="26.25" lengthAdjust="spacing" textLength="133.125" x="589.6875" y="1211.9714">LIVRAISON</text><line style="stroke:#2F7D5B;stroke-width:0.9375;" x1="540.9375" x2="726.5625" y1="1229.3555" y2="1229.3555"/><ellipse cx="559.6875" cy="1256.1768" fill="#000000" rx="5.625" ry="5.625" style="stroke:#000000;stroke-width:1.875;"/><text fill="#000000" font-family="sans-serif" font-size="26.25" lengthAdjust="spacing" textLength="133.125" x="574.6875" y="1264.1052">id_livraison</text><line style="stroke:#2F7D5B;stroke-width:1.875;" x1="540.9375" x2="726.5625" y1="1277.373" y2="1277.373"/><text fill="#000000" font-family="sans-serif" font-size="26.25" lengthAdjust="spacing" textLength="65.625" x="550.3125" y="1312.1228">statut</text><text fill="#000000" font-family="sans-serif" font-size="26.25" lengthAdjust="spacing" textLength="166.875" x="550.3125" y="1345.1404">verification_qr</text></g><!--class VERSEMENT--><g id="elem_VERSEMENT"><rect codeLine="96" fill="#FFFFFF" height="185.3027" id="VERSEMENT" rx="11.25" ry="11.25" style="stroke:#2F7D5B;stroke-width:0.9375;" width="213.75" x="26.25" y="1487.168"/><rect fill="#E4F3EA" height="56.25" rx="11.25" ry="11.25" style="stroke:#E4F3EA;stroke-width:0.9375;" width="213.75" x="26.25" y="1487.168"/><rect fill="#E4F3EA" height="11.25" style="stroke:#E4F3EA;stroke-width:0.9375;" width="213.75" x="26.25" y="1532.168"/><rect codeLine="96" fill="none" height="185.3027" id="VERSEMENT" rx="11.25" ry="11.25" style="stroke:#2F7D5B;stroke-width:0.9375;" width="213.75" x="26.25" y="1487.168"/><ellipse cx="52.5" cy="1515.293" fill="#ADD1B2" rx="18.75" ry="18.75" style="stroke:#181818;stroke-width:1.875;"/><path d="M51.123,1516.3184 L51.123,1520.1563 L57.832,1520.1563 L57.832,1518.75 Q57.832,1517.7832 58.1836,1517.4023 Q58.5645,1516.9922 59.1504,1516.9922 Q59.707,1516.9922 60.0586,1517.4023 Q60.4395,1517.7832 60.4395,1518.75 L60.4395,1522.793 L48.0762,1522.793 Q47.1387,1522.793 46.7285,1522.4414 Q46.3184,1522.0605 46.3184,1521.4746 Q46.3184,1520.8887 46.7285,1520.5371 Q47.1387,1520.1563 48.0762,1520.1563 L48.4863,1520.1563 L48.4863,1509.873 L48.0762,1509.873 Q47.1387,1509.873 46.7285,1509.5215 Q46.3184,1509.1406 46.3184,1508.5547 Q46.3184,1507.9688 46.7285,1507.6172 Q47.1387,1507.2363 48.0762,1507.2363 L59.8828,1507.2656 L59.8828,1511.25 Q59.8828,1512.1875 59.502,1512.5977 Q59.1504,1513.0078 58.5645,1513.0078 Q57.9785,1513.0078 57.5977,1512.627 Q57.2461,1512.2168 57.2461,1511.25 L57.2461,1509.873 L51.123,1509.873 L51.123,1513.6816 L53.4375,1513.6816 Q53.4375,1512.6563 53.6133,1512.3633 Q54.0234,1511.7188 54.7559,1511.7188 Q55.3125,1511.7188 55.6641,1512.1289 Q56.0449,1512.5391 56.0449,1513.4766 L56.0449,1516.5234 Q56.0449,1517.373 55.8398,1517.666 Q55.4297,1518.2813 54.7559,1518.2813 Q54.0234,1518.2813 53.6133,1517.6367 Q53.4375,1517.3438 53.4375,1516.3184 L51.123,1516.3184 Z " fill="#000000"/><text fill="#17324D" font-family="sans-serif" font-size="26.25" lengthAdjust="spacing" textLength="157.5" x="76.875" y="1526.0339">VERSEMENT</text><line style="stroke:#2F7D5B;stroke-width:0.9375;" x1="28.125" x2="238.125" y1="1543.418" y2="1543.418"/><ellipse cx="46.875" cy="1570.2393" fill="#000000" rx="5.625" ry="5.625" style="stroke:#000000;stroke-width:1.875;"/><text fill="#000000" font-family="sans-serif" font-size="26.25" lengthAdjust="spacing" textLength="159.375" x="61.875" y="1578.1677">id_versement</text><line style="stroke:#2F7D5B;stroke-width:1.875;" x1="28.125" x2="238.125" y1="1591.4355" y2="1591.4355"/><text fill="#000000" font-family="sans-serif" font-size="26.25" lengthAdjust="spacing" textLength="95.625" x="37.5" y="1626.1853">montant</text><text fill="#000000" font-family="sans-serif" font-size="26.25" lengthAdjust="spacing" textLength="65.625" x="37.5" y="1659.2029">statut</text></g><!--class SERVICE_VETERINAIRE--><g id="elem_SERVICE_VETERINAIRE"><rect codeLine="102" fill="#FFFFFF" height="185.3027" id="SERVICE_VETERINAIRE" rx="11.25" ry="11.25" style="stroke:#2F7D5B;stroke-width:0.9375;" width="348.75" x="836.25" y="462.4805"/><rect fill="#E4F3EA" height="56.25" rx="11.25" ry="11.25" style="stroke:#E4F3EA;stroke-width:0.9375;" width="348.75" x="836.25" y="462.4805"/><rect fill="#E4F3EA" height="11.25" style="stroke:#E4F3EA;stroke-width:0.9375;" width="348.75" x="836.25" y="507.4805"/><rect codeLine="102" fill="none" height="185.3027" id="SERVICE_VETERINAIRE" rx="11.25" ry="11.25" style="stroke:#2F7D5B;stroke-width:0.9375;" width="348.75" x="836.25" y="462.4805"/><ellipse cx="862.5" cy="490.6055" fill="#ADD1B2" rx="18.75" ry="18.75" style="stroke:#181818;stroke-width:1.875;"/><path d="M861.123,491.6309 L861.123,495.4688 L867.832,495.4688 L867.832,494.0625 Q867.832,493.0957 868.1836,492.7148 Q868.5645,492.3047 869.1504,492.3047 Q869.707,492.3047 870.0586,492.7148 Q870.4395,493.0957 870.4395,494.0625 L870.4395,498.1055 L858.0762,498.1055 Q857.1387,498.1055 856.7285,497.7539 Q856.3184,497.373 856.3184,496.7871 Q856.3184,496.2012 856.7285,495.8496 Q857.1387,495.4688 858.0762,495.4688 L858.4863,495.4688 L858.4863,485.1855 L858.0762,485.1855 Q857.1387,485.1855 856.7285,484.834 Q856.3184,484.4531 856.3184,483.8672 Q856.3184,483.2813 856.7285,482.9297 Q857.1387,482.5488 858.0762,482.5488 L869.8828,482.5781 L869.8828,486.5625 Q869.8828,487.5 869.502,487.9102 Q869.1504,488.3203 868.5645,488.3203 Q867.9785,488.3203 867.5977,487.9395 Q867.2461,487.5293 867.2461,486.5625 L867.2461,485.1855 L861.123,485.1855 L861.123,488.9941 L863.4375,488.9941 Q863.4375,487.9688 863.6133,487.6758 Q864.0234,487.0313 864.7559,487.0313 Q865.3125,487.0313 865.6641,487.4414 Q866.0449,487.8516 866.0449,488.7891 L866.0449,491.8359 Q866.0449,492.6855 865.8398,492.9785 Q865.4297,493.5938 864.7559,493.5938 Q864.0234,493.5938 863.6133,492.9492 Q863.4375,492.6563 863.4375,491.6309 L861.123,491.6309 Z " fill="#000000"/><text fill="#17324D" font-family="sans-serif" font-size="26.25" lengthAdjust="spacing" textLength="292.5" x="886.875" y="501.3464">SERVICE_VETERINAIRE</text><line style="stroke:#2F7D5B;stroke-width:0.9375;" x1="838.125" x2="1183.125" y1="518.7305" y2="518.7305"/><ellipse cx="856.875" cy="545.5518" fill="#000000" rx="5.625" ry="5.625" style="stroke:#000000;stroke-width:1.875;"/><text fill="#000000" font-family="sans-serif" font-size="26.25" lengthAdjust="spacing" textLength="120" x="871.875" y="553.4802">id_service</text><line style="stroke:#2F7D5B;stroke-width:1.875;" x1="838.125" x2="1183.125" y1="566.748" y2="566.748"/><text fill="#000000" font-family="sans-serif" font-size="26.25" lengthAdjust="spacing" textLength="45" x="847.5" y="601.4978">titre</text><text fill="#000000" font-family="sans-serif" font-size="26.25" lengthAdjust="spacing" textLength="41.25" x="847.5" y="634.5154">prix</text></g><!--class RENDEZ_VOUS--><g id="elem_RENDEZ_VOUS"><rect codeLine="108" fill="#FFFFFF" height="185.3027" id="RENDEZ_VOUS" rx="11.25" ry="11.25" style="stroke:#2F7D5B;stroke-width:0.9375;" width="245.625" x="1024.6875" y="826.2305"/><rect fill="#E4F3EA" height="56.25" rx="11.25" ry="11.25" style="stroke:#E4F3EA;stroke-width:0.9375;" width="245.625" x="1024.6875" y="826.2305"/><rect fill="#E4F3EA" height="11.25" style="stroke:#E4F3EA;stroke-width:0.9375;" width="245.625" x="1024.6875" y="871.2305"/><rect codeLine="108" fill="none" height="185.3027" id="RENDEZ_VOUS" rx="11.25" ry="11.25" style="stroke:#2F7D5B;stroke-width:0.9375;" width="245.625" x="1024.6875" y="826.2305"/><ellipse cx="1050.9375" cy="854.3555" fill="#ADD1B2" rx="18.75" ry="18.75" style="stroke:#181818;stroke-width:1.875;"/><path d="M1049.5605,855.3809 L1049.5605,859.2188 L1056.2695,859.2188 L1056.2695,857.8125 Q1056.2695,856.8457 1056.6211,856.4648 Q1057.002,856.0547 1057.5879,856.0547 Q1058.1445,856.0547 1058.4961,856.4648 Q1058.877,856.8457 1058.877,857.8125 L1058.877,861.8555 L1046.5137,861.8555 Q1045.5762,861.8555 1045.166,861.5039 Q1044.7559,861.123 1044.7559,860.5371 Q1044.7559,859.9512 1045.166,859.5996 Q1045.5762,859.2188 1046.5137,859.2188 L1046.9238,859.2188 L1046.9238,848.9355 L1046.5137,848.9355 Q1045.5762,848.9355 1045.166,848.584 Q1044.7559,848.2031 1044.7559,847.6172 Q1044.7559,847.0313 1045.166,846.6797 Q1045.5762,846.2988 1046.5137,846.2988 L1058.3203,846.3281 L1058.3203,850.3125 Q1058.3203,851.25 1057.9395,851.6602 Q1057.5879,852.0703 1057.002,852.0703 Q1056.416,852.0703 1056.0352,851.6895 Q1055.6836,851.2793 1055.6836,850.3125 L1055.6836,848.9355 L1049.5605,848.9355 L1049.5605,852.7441 L1051.875,852.7441 Q1051.875,851.7188 1052.0508,851.4258 Q1052.4609,850.7813 1053.1934,850.7813 Q1053.75,850.7813 1054.1016,851.1914 Q1054.4824,851.6016 1054.4824,852.5391 L1054.4824,855.5859 Q1054.4824,856.4355 1054.2773,856.7285 Q1053.8672,857.3438 1053.1934,857.3438 Q1052.4609,857.3438 1052.0508,856.6992 Q1051.875,856.4063 1051.875,855.3809 L1049.5605,855.3809 Z " fill="#000000"/><text fill="#17324D" font-family="sans-serif" font-size="26.25" lengthAdjust="spacing" textLength="189.375" x="1075.3125" y="865.0964">RENDEZ_VOUS</text><line style="stroke:#2F7D5B;stroke-width:0.9375;" x1="1026.5625" x2="1268.4375" y1="882.4805" y2="882.4805"/><ellipse cx="1045.3125" cy="909.3018" fill="#000000" rx="5.625" ry="5.625" style="stroke:#000000;stroke-width:1.875;"/><text fill="#000000" font-family="sans-serif" font-size="26.25" lengthAdjust="spacing" textLength="73.125" x="1060.3125" y="917.2302">id_rdv</text><line style="stroke:#2F7D5B;stroke-width:1.875;" x1="1026.5625" x2="1268.4375" y1="930.498" y2="930.498"/><text fill="#000000" font-family="sans-serif" font-size="26.25" lengthAdjust="spacing" textLength="150" x="1035.9375" y="965.2478">date_prevue</text><text fill="#000000" font-family="sans-serif" font-size="26.25" lengthAdjust="spacing" textLength="65.625" x="1035.9375" y="998.2654">statut</text></g><!--class NOTIFICATION--><g id="elem_NOTIFICATION"><rect codeLine="114" fill="#FFFFFF" height="185.3027" id="NOTIFICATION" rx="11.25" ry="11.25" style="stroke:#2F7D5B;stroke-width:0.9375;" width="234.375" x="1384.6875" y="462.4805"/><rect fill="#E4F3EA" height="56.25" rx="11.25" ry="11.25" style="stroke:#E4F3EA;stroke-width:0.9375;" width="234.375" x="1384.6875" y="462.4805"/><rect fill="#E4F3EA" height="11.25" style="stroke:#E4F3EA;stroke-width:0.9375;" width="234.375" x="1384.6875" y="507.4805"/><rect codeLine="114" fill="none" height="185.3027" id="NOTIFICATION" rx="11.25" ry="11.25" style="stroke:#2F7D5B;stroke-width:0.9375;" width="234.375" x="1384.6875" y="462.4805"/><ellipse cx="1410.9375" cy="490.6055" fill="#ADD1B2" rx="18.75" ry="18.75" style="stroke:#181818;stroke-width:1.875;"/><path d="M1409.5605,491.6309 L1409.5605,495.4688 L1416.2695,495.4688 L1416.2695,494.0625 Q1416.2695,493.0957 1416.6211,492.7148 Q1417.002,492.3047 1417.5879,492.3047 Q1418.1445,492.3047 1418.4961,492.7148 Q1418.877,493.0957 1418.877,494.0625 L1418.877,498.1055 L1406.5137,498.1055 Q1405.5762,498.1055 1405.166,497.7539 Q1404.7559,497.373 1404.7559,496.7871 Q1404.7559,496.2012 1405.166,495.8496 Q1405.5762,495.4688 1406.5137,495.4688 L1406.9238,495.4688 L1406.9238,485.1855 L1406.5137,485.1855 Q1405.5762,485.1855 1405.166,484.834 Q1404.7559,484.4531 1404.7559,483.8672 Q1404.7559,483.2813 1405.166,482.9297 Q1405.5762,482.5488 1406.5137,482.5488 L1418.3203,482.5781 L1418.3203,486.5625 Q1418.3203,487.5 1417.9395,487.9102 Q1417.5879,488.3203 1417.002,488.3203 Q1416.416,488.3203 1416.0352,487.9395 Q1415.6836,487.5293 1415.6836,486.5625 L1415.6836,485.1855 L1409.5605,485.1855 L1409.5605,488.9941 L1411.875,488.9941 Q1411.875,487.9688 1412.0508,487.6758 Q1412.4609,487.0313 1413.1934,487.0313 Q1413.75,487.0313 1414.1016,487.4414 Q1414.4824,487.8516 1414.4824,488.7891 L1414.4824,491.8359 Q1414.4824,492.6855 1414.2773,492.9785 Q1413.8672,493.5938 1413.1934,493.5938 Q1412.4609,493.5938 1412.0508,492.9492 Q1411.875,492.6563 1411.875,491.6309 L1409.5605,491.6309 Z " fill="#000000"/><text fill="#17324D" font-family="sans-serif" font-size="26.25" lengthAdjust="spacing" textLength="178.125" x="1435.3125" y="501.3464">NOTIFICATION</text><line style="stroke:#2F7D5B;stroke-width:0.9375;" x1="1386.5625" x2="1617.1875" y1="518.7305" y2="518.7305"/><ellipse cx="1405.3125" cy="545.5518" fill="#000000" rx="5.625" ry="5.625" style="stroke:#000000;stroke-width:1.875;"/><text fill="#000000" font-family="sans-serif" font-size="26.25" lengthAdjust="spacing" textLength="163.125" x="1420.3125" y="553.4802">id_notification</text><line style="stroke:#2F7D5B;stroke-width:1.875;" x1="1386.5625" x2="1617.1875" y1="566.748" y2="566.748"/><text fill="#000000" font-family="sans-serif" font-size="26.25" lengthAdjust="spacing" textLength="95.625" x="1395.9375" y="601.4978">contenu</text><text fill="#000000" font-family="sans-serif" font-size="26.25" lengthAdjust="spacing" textLength="20.625" x="1395.9375" y="634.5154">lu</text></g><g id="elem_GMN25"><path d="M420.9375,1549.043 L420.9375,1611.3281 A11.25,11.25 0 0 0 432.1875,1622.5781 L835.3125,1622.5781 A11.25,11.25 0 0 0 846.5625,1611.3281 L846.5625,1556.543 L827.8125,1537.793 L641.25,1537.793 L633.75,1359.293 L626.25,1537.793 L432.1875,1537.793 A11.25,11.25 0 0 0 420.9375,1549.043 " fill="#FFF8E8" style="stroke:#E5AE45;stroke-width:0.9375;"/><path d="M827.8125,1537.793 L827.8125,1550.918 A5.625,5.625 0 0 0 833.4375,1556.543 L846.5625,1556.543 L827.8125,1537.793 " fill="#FFF8E8" style="stroke:#E5AE45;stroke-width:0.9375;"/><text fill="#5B481E" font-family="sans-serif" font-size="26.25" lengthAdjust="spacing" textLength="384.375" x="432.1875" y="1574.4177">Optionnelle : absente si le retrait</text><text fill="#5B481E" font-family="sans-serif" font-size="26.25" lengthAdjust="spacing" textLength="386.25" x="432.1875" y="1607.4353">direct a &#233;t&#233; choisi par l'acheteur.</text></g><!--link UTILISATEUR to ANNONCE--><g id="link_UTILISATEUR_ANNONCE"><path codeLine="121" d="M659.5313,317.7305 C659.5313,380.318 659.5313,446.543 659.5313,446.543 C659.5313,446.543 574.65,446.543 504.0188,446.543 " fill="none" id="UTILISATEUR-ANNONCE" style="stroke:#456A7D;stroke-width:2.625;"/><text fill="#29485B" font-family="sans-serif" font-size="26.25" lengthAdjust="spacing" textLength="230.625" x="648.0563" y="440.0427">publie (fournisseur)</text><text fill="#29485B" font-family="sans-serif" font-size="26.25" lengthAdjust="spacing" textLength="37.5" x="610.3198" y="360.2647">1,1</text><text fill="#29485B" font-family="sans-serif" font-size="26.25" lengthAdjust="spacing" textLength="37.5" x="518.3872" y="426.0097">0,n</text></g><!--link ANNONCE to REDUCTION_ANNONCE--><g id="link_ANNONCE_REDUCTION_ANNONCE"><path codeLine="122" d="M337.9688,680.993 C337.9688,728.618 337.9688,781.9805 337.9688,826.0617 " fill="none" id="ANNONCE-REDUCTION_ANNONCE" style="stroke:#456A7D;stroke-width:2.625;"/><text fill="#29485B" font-family="sans-serif" font-size="26.25" lengthAdjust="spacing" textLength="71.25" x="264.8438" y="747.0177">d&#233;finit</text><text fill="#29485B" font-family="sans-serif" font-size="26.25" lengthAdjust="spacing" textLength="37.5" x="291.0425" y="722.9035">1,1</text><text fill="#29485B" font-family="sans-serif" font-size="26.25" lengthAdjust="spacing" textLength="37.5" x="320.0903" y="805.5466">0,n</text></g><!--link UTILISATEUR to COMMANDE--><g id="link_UTILISATEUR_COMMANDE"><path codeLine="123" d="M682.5,317.4117 C682.5,490.8492 682.5,810.293 682.5,810.293 C682.5,810.293 662.4563,810.293 636.9375,810.293 " fill="none" id="UTILISATEUR-COMMANDE" style="stroke:#456A7D;stroke-width:2.625;"/><text fill="#29485B" font-family="sans-serif" font-size="26.25" lengthAdjust="spacing" textLength="202.5" x="581.25" y="615.7677">passe (acheteur)</text><text fill="#29485B" font-family="sans-serif" font-size="26.25" lengthAdjust="spacing" textLength="37.5" x="657.123" y="359.9071">1,1</text><text fill="#29485B" font-family="sans-serif" font-size="26.25" lengthAdjust="spacing" textLength="37.5" x="651.3979" y="791.3117">0,n</text></g><!--link ANNONCE to COMMANDE--><g id="link_ANNONCE_COMMANDE"><path codeLine="124" d="M464.0625,680.993 C464.0625,717.3305 464.0625,757.0055 464.0625,793.343 " fill="none" id="ANNONCE-COMMANDE" style="stroke:#456A7D;stroke-width:2.625;"/><text fill="#29485B" font-family="sans-serif" font-size="26.25" lengthAdjust="spacing" textLength="110.625" x="351.5625" y="766.2927">concerne</text><text fill="#29485B" font-family="sans-serif" font-size="26.25" lengthAdjust="spacing" textLength="37.5" x="430.1396" y="722.9035">1,1</text><text fill="#29485B" font-family="sans-serif" font-size="26.25" lengthAdjust="spacing" textLength="37.5" x="416.6982" y="772.4019">0,n</text></g><!--link COMMANDE to PAIEMENT--><g id="link_COMMANDE_PAIEMENT"><path codeLine="125" d="M424.4625,1029.668 C396.5438,1029.668 374.0625,1029.668 374.0625,1029.668 C374.0625,1029.668 374.0625,1094.8805 374.0625,1156.7742 " fill="none" id="COMMANDE-PAIEMENT" style="stroke:#456A7D;stroke-width:2.625;"/><text fill="#29485B" font-family="sans-serif" font-size="26.25" lengthAdjust="spacing" textLength="60" x="312.1875" y="1061.5302">r&#232;gle</text><text fill="#29485B" font-family="sans-serif" font-size="26.25" lengthAdjust="spacing" textLength="37.5" x="372.5195" y="1036.0519">1,1</text><text fill="#29485B" font-family="sans-serif" font-size="26.25" lengthAdjust="spacing" textLength="37.5" x="344.3701" y="1136.1436">0,1</text></g><!--link COMMANDE to LIVRAISON--><g id="link_COMMANDE_LIVRAISON"><path codeLine="126" d="M587.8125,1044.7617 C587.8125,1087.0242 587.8125,1133.393 587.8125,1172.7117 " fill="none" id="COMMANDE-LIVRAISON" style="stroke:#456A7D;stroke-width:2.625;"/><text fill="#29485B" font-family="sans-serif" font-size="26.25" lengthAdjust="spacing" textLength="84.375" x="589.6875" y="1102.2365">g&#233;n&#232;re</text><text fill="#29485B" font-family="sans-serif" font-size="26.25" lengthAdjust="spacing" textLength="37.5" x="554.2764" y="1086.6742">1,1</text><text fill="#29485B" font-family="sans-serif" font-size="26.25" lengthAdjust="spacing" textLength="37.5" x="540.8115" y="1152.1636">0,1</text></g><!--link UTILISATEUR to LIVRAISON--><g id="link_UTILISATEUR_LIVRAISON"><path codeLine="127" d="M705.4688,317.5992 C705.4688,526.0617 705.4688,977.2992 705.4688,1172.6367 " fill="none" id="UTILISATEUR-LIVRAISON" style="stroke:#456A7D;stroke-width:2.625;"/><text fill="#29485B" font-family="sans-serif" font-size="26.25" lengthAdjust="spacing" textLength="180" x="523.5938" y="738.6177">assure (livreur)</text><text fill="#29485B" font-family="sans-serif" font-size="26.25" lengthAdjust="spacing" textLength="37.5" x="703.9263" y="360.1175">0,1</text><text fill="#29485B" font-family="sans-serif" font-size="26.25" lengthAdjust="spacing" textLength="37.5" x="675.7485" y="1152.0775">0,n</text></g><!--link PAIEMENT to VERSEMENT--><g id="link_PAIEMENT_VERSEMENT"><path codeLine="128" d="M219.375,1374.8742 C219.375,1411.3805 219.375,1451.7117 219.375,1486.868 " fill="none" id="PAIEMENT-VERSEMENT" style="stroke:#456A7D;stroke-width:2.625;"/><text fill="#29485B" font-family="sans-serif" font-size="26.25" lengthAdjust="spacing" textLength="84.375" x="221.25" y="1424.3802">g&#233;n&#232;re</text><text fill="#29485B" font-family="sans-serif" font-size="26.25" lengthAdjust="spacing" textLength="37.5" x="170.4492" y="1417.365">1,1</text><text fill="#29485B" font-family="sans-serif" font-size="26.25" lengthAdjust="spacing" textLength="37.5" x="191.7891" y="1466.3336">1,n</text></g><!--link UTILISATEUR to VERSEMENT--><g id="link_UTILISATEUR_VERSEMENT"><path codeLine="129" d="M755.4,317.4305 C755.4,631.0805 755.4,1513.418 755.4,1513.418 C755.4,1513.418 418.0125,1513.418 240.0938,1513.418 " fill="none" id="UTILISATEUR-VERSEMENT" style="stroke:#456A7D;stroke-width:2.625;"/><text fill="#29485B" font-family="sans-serif" font-size="26.25" lengthAdjust="spacing" textLength="106.875" x="757.275" y="1166.5677">b&#233;n&#233;ficie</text><text fill="#29485B" font-family="sans-serif" font-size="26.25" lengthAdjust="spacing" textLength="37.5" x="759.9429" y="359.9281">1,1</text><text fill="#29485B" font-family="sans-serif" font-size="26.25" lengthAdjust="spacing" textLength="37.5" x="254.63" y="1499.3383">0,n</text></g><!--link UTILISATEUR to SERVICE_VETERINAIRE--><g id="link_UTILISATEUR_SERVICE_VETERINAIRE"><path codeLine="130" d="M809.2875,317.2242 C809.2875,418.943 809.2875,555.293 809.2875,555.293 C809.2875,555.293 819.6375,555.293 835.6125,555.293 " fill="none" id="UTILISATEUR-SERVICE_VETERINAIRE" style="stroke:#456A7D;stroke-width:2.625;"/><text fill="#29485B" font-family="sans-serif" font-size="26.25" lengthAdjust="spacing" textLength="249.375" x="558.0375" y="478.5365">propose (v&#233;t&#233;rinaire)</text><text fill="#29485B" font-family="sans-serif" font-size="26.25" lengthAdjust="spacing" textLength="37.5" x="820.9677" y="360.4774">1,1</text><text fill="#29485B" font-family="sans-serif" font-size="26.25" lengthAdjust="spacing" textLength="37.5" x="783.8831" y="549.5511">0,n</text></g><!--link SERVICE_VETERINAIRE to RENDEZ_VOUS--><g id="link_SERVICE_VETERINAIRE_RENDEZ_VOUS"><path codeLine="131" d="M1104.8438,648.4992 C1104.8438,703.0055 1104.8438,771.6117 1104.8438,826.0805 " fill="none" id="SERVICE_VETERINAIRE-RENDEZ_VOUS" style="stroke:#456A7D;stroke-width:2.625;"/><text fill="#29485B" font-family="sans-serif" font-size="26.25" lengthAdjust="spacing" textLength="110.625" x="1106.7188" y="730.7802">concerne</text><text fill="#29485B" font-family="sans-serif" font-size="26.25" lengthAdjust="spacing" textLength="37.5" x="1077.0132" y="689.8269">1,1</text><text fill="#29485B" font-family="sans-serif" font-size="26.25" lengthAdjust="spacing" textLength="37.5" x="1058.3247" y="805.5681">0,n</text></g><!--link UTILISATEUR to RENDEZ_VOUS--><g id="link_UTILISATEUR_RENDEZ_VOUS"><path codeLine="132" d="M782.3438,317.8992 C782.3438,517.2305 782.3438,919.043 782.3438,919.043 C782.3438,919.043 918.375,919.043 1024.3875,919.043 " fill="none" id="UTILISATEUR-RENDEZ_VOUS" style="stroke:#456A7D;stroke-width:2.625;"/><text fill="#29485B" font-family="sans-serif" font-size="26.25" lengthAdjust="spacing" textLength="225" x="784.2188" y="732.9927">demande (&#233;leveur)</text><text fill="#29485B" font-family="sans-serif" font-size="26.25" lengthAdjust="spacing" textLength="37.5" x="790.1704" y="360.454">1,1</text><text fill="#29485B" font-family="sans-serif" font-size="26.25" lengthAdjust="spacing" textLength="37.5" x="972.2579" y="912.8497">0,n</text></g><!--link UTILISATEUR to NOTIFICATION--><g id="link_UTILISATEUR_NOTIFICATION"><path codeLine="133" d="M847.2937,208.418 C1059.15,208.418 1501.875,208.418 1501.875,208.418 C1501.875,208.418 1501.875,359.5805 1501.875,462.3305 " fill="none" id="UTILISATEUR-NOTIFICATION" style="stroke:#456A7D;stroke-width:2.625;"/><text fill="#29485B" font-family="sans-serif" font-size="26.25" lengthAdjust="spacing" textLength="65.625" x="1234.05" y="201.9177">re&#231;oit</text><text fill="#29485B" font-family="sans-serif" font-size="26.25" lengthAdjust="spacing" textLength="37.5" x="861.4216" y="202.0672">1,1</text><text fill="#29485B" font-family="sans-serif" font-size="26.25" lengthAdjust="spacing" textLength="37.5" x="1461.6211" y="441.8181">0,n</text></g><!--SRC=[ZLVBRk985DtxAwuoYtIFkYFCeo7P6R1xB2Kc0i9YDgXY5r2AgNBAPRepev7c8-O3UjVXE_mdyoLpRHukiEDCf63iElVSrwcwvX8cwYMau8lrEk7mxz__GC38KfBrciPWXtGp49nJNncNC9bzXHjO2Bac2ZRuJ4X6G-1KGVe3b4WK1KLO6D8hkFSoBFqU2QbWHRAb8Dqk66UA2Nvbn4-CHmJTm2FndvPI93mOY518-CN9_pH4434mUmtjIRmYWVZ6-18M98ofjf8J-K9oAi5iQWiXmpXV8WeOq4hex7H1ab0vWYkFh2bC28ydLB95DMR2_g1WjhN5ALCXhJK_8dBZPgDgQP-ysMqrsqCDO4aflkqNsvqlLhUqg5athzkzJlySC5qn_udJE0RpIW_S4uhsAwhVitldA243AlS8ksFPxSuPGWkYqs_tJ5jRlqSVP7bASctrkrQt0bIAf-rOpfSoKA-PWovRrP2TkXz56EXLyHNRCFLITjPmUawh2gd7tdIwmzCgxr6rVTnZXeoi1G-gwjuQzceCz0Y6lUjEqwdCwCqW1o69u_wxcsq7gqqtX_n62K9AV7RRQTdMERYkC3PNbQqu3soFguriXwdpDb6aGlJsqEawPWbMwok7rBbwYAbFuWfd5cgwLm7KtRNiRlkwKGRLvaQV4yfzUiiM-C_FDjoWtnwOTUXtEt2mk2TICPz5XAltawiogatqO61by-N_1xM3rtTi3_sAX56PkUlqdU6Ry8fQ6af4EFRmT55Au91W4cSYJZT3POSwt8aWVSr7Av94Ai5H6U0Kn76QRd6s6WRDrGeFK_VMdLXJ-s4CVne0lm8BvebY8OjHOOd4Hvy_umSNQ_oaQvomU9KYfCPV1mxByqRUm2xi2UUPsuDjDldm4ads7I_F2SdCiYSngZXH1T7O7ZuCfkx8cvSe9GsINNvxqfWcB9nhP958f8z4UFOMZ8FHtPtb3JMYx5s3yE0OdCQ09vt2cpdEwlmkeEXMIS9KHQptbclVsTwqO8u8esjSFQOj50bpeXVAAnXktTdOSYSZhw08sGRTnLgMEnl0DnwSwimdMGdcpx9WcTdZoLaWY8rF8jadLX73n1xFt84zdzbJU-nwbZlMIXLJkM5Q6vcInpvgFSFo_ZwVZHucMhU2pS4gG1dD8qatILN7lT7KTTo1bJMzCET27PCzyA2G5UK9VWiJj3TquLwOdymBXC55unE_EEhn1gBaCMGKFYnG6vp5g1dvqJWidrcLnNTpV6kiytQK6Bh3QOFUYB-YgiwLPfBlJtnXD8xFT2n-EUhi1cJwkWpVHXPwke5bkkNfAxRh9F36IHGw7WDF98QU2J2F_EYsS69cHeNStd9ocggEVypmM52VrPfKQH9hAqKaikfkqgrAjv9nWaVUHwCANUfi8L6juZKXd5e4D3ynu4EwnPyaUNbgR4yaZKsZwK-12Z9GrFHmMej5KNrKz2ZAbCuf_dZ9Ul4Ou-wW43F0- -84sXtnG20l0FWhmH22umB2ouFahd1Z1P2v-Wy0]--></g></svg>