<?xml version="1.0" encoding="us-ascii" standalone="no"?><svg xmlns="http://www.w3.org/2000/svg" xmlns:xlink="http://www.w3.org/1999/xlink" contentStyleType="text/css" height="1356px" preserveAspectRatio="none" style="width:1871px;height:1356px;background:#FFFFFF;" version="1.1" viewBox="0 0 1871 1356" width="1871px" zoomAndPan="magnify"><defs/><g><!--class UTILISATEUR--><g id="elem_UTILISATEUR"><rect codeLine="5" fill="#F1F1F1" height="188.875" id="UTILISATEUR" rx="2.5" ry="2.5" style="stroke:#181818;stroke-width:0.5;" width="119" x="864.5" y="7"/><ellipse cx="879.5" cy="23" fill="#ADD1B2" rx="11" ry="11" style="stroke:#181818;stroke-width:1.0;"/><path d="M878.3594,23.7969 L878.3594,26.2969 L882.6875,26.2969 L882.6875,25.375 Q882.6875,24.7656 882.9219,24.5 Q883.1719,24.2344 883.5469,24.2344 Q883.9219,24.2344 884.1563,24.5 Q884.3906,24.7656 884.3906,25.375 L884.3906,28 L876.3906,28 Q875.7656,28 875.5,27.7656 Q875.25,27.5313 875.25,27.1406 Q875.25,26.7656 875.5156,26.5313 Q875.7813,26.2969 876.3906,26.2969 L876.6563,26.2969 L876.6563,19.6406 L876.3906,19.6406 Q875.7656,19.6406 875.5,19.4063 Q875.25,19.1719 875.25,18.7813 Q875.25,18.4063 875.5,18.1719 Q875.7656,17.9375 876.3906,17.9375 L884.0156,17.9375 L884.0156,20.5313 Q884.0156,21.1406 883.7813,21.4063 Q883.5625,21.6563 883.1719,21.6563 Q882.7969,21.6563 882.5625,21.4063 Q882.3281,21.1406 882.3281,20.5313 L882.3281,19.6406 L878.3594,19.6406 L878.3594,22.0938 L879.8438,22.0938 Q879.8438,21.4375 879.9688,21.25 Q880.2344,20.8438 880.7031,20.8438 Q881.0781,20.8438 881.3125,21.1094 Q881.5469,21.3594 881.5469,21.9688 L881.5469,23.9375 Q881.5469,24.4844 881.4219,24.6719 Q881.1563,25.0625 880.7031,25.0625 Q880.2344,25.0625 879.9688,24.6563 Q879.8438,24.4688 879.8438,23.7969 L878.3594,23.7969 Z " fill="#000000"/><text fill="#000000" font-family="sans-serif" font-size="14" lengthAdjust="spacing" textLength="87" x="893.5" y="28.7285">UTILISATEUR</text><line style="stroke:#181818;stroke-width:0.5;" x1="865.5" x2="982.5" y1="39" y2="39"/><ellipse cx="875.5" cy="53.3047" fill="#000000" rx="3" ry="3" style="stroke:#000000;stroke-width:1.0;"/><text fill="#000000" font-family="sans-serif" font-size="14" lengthAdjust="spacing" textLength="80" x="884.5" y="57.5332">id_utilisateur</text><line style="stroke:#181818;stroke-width:1.0;" x1="865.5" x2="982.5" y1="64.6094" y2="64.6094"/><text fill="#000000" font-family="sans-serif" font-size="14" lengthAdjust="spacing" textLength="27" x="870.5" y="83.1426">nom</text><text fill="#000000" font-family="sans-serif" font-size="14" lengthAdjust="spacing" textLength="48" x="870.5" y="100.752">prenom</text><text fill="#000000" font-family="sans-serif" font-size="14" lengthAdjust="spacing" textLength="33" x="870.5" y="118.3613">email</text><text fill="#000000" font-family="sans-serif" font-size="14" lengthAdjust="spacing" textLength="24" x="870.5" y="135.9707">role</text><text fill="#000000" font-family="sans-serif" font-size="14" lengthAdjust="spacing" textLength="35" x="870.5" y="153.5801">statut</text><text fill="#000000" font-family="sans-serif" font-size="14" lengthAdjust="spacing" textLength="46" x="870.5" y="171.1895">latitude</text><text fill="#000000" font-family="sans-serif" font-size="14" lengthAdjust="spacing" textLength="58" x="870.5" y="188.7988">longitude</text></g><!--class ABONNEMENT--><g id="elem_ABONNEMENT"><rect codeLine="17" fill="#F1F1F1" height="136.0469" id="ABONNEMENT" rx="2.5" ry="2.5" style="stroke:#181818;stroke-width:0.5;" width="126" x="7" y="353.5"/><ellipse cx="22" cy="369.5" fill="#ADD1B2" rx="11" ry="11" style="stroke:#181818;stroke-width:1.0;"/><path d="M20.8594,370.2969 L20.8594,372.7969 L25.1875,372.7969 L25.1875,371.875 Q25.1875,371.2656 25.4219,371 Q25.6719,370.7344 26.0469,370.7344 Q26.4219,370.7344 26.6563,371 Q26.8906,371.2656 26.8906,371.875 L26.8906,374.5 L18.8906,374.5 Q18.2656,374.5 18,374.2656 Q17.75,374.0313 17.75,373.6406 Q17.75,373.2656 18.0156,373.0313 Q18.2813,372.7969 18.8906,372.7969 L19.1563,372.7969 L19.1563,366.1406 L18.8906,366.1406 Q18.2656,366.1406 18,365.9063 Q17.75,365.6719 17.75,365.2813 Q17.75,364.9063 18,364.6719 Q18.2656,364.4375 18.8906,364.4375 L26.5156,364.4375 L26.5156,367.0313 Q26.5156,367.6406 26.2813,367.9063 Q26.0625,368.1563 25.6719,368.1563 Q25.2969,368.1563 25.0625,367.9063 Q24.8281,367.6406 24.8281,367.0313 L24.8281,366.1406 L20.8594,366.1406 L20.8594,368.5938 L22.3438,368.5938 Q22.3438,367.9375 22.4688,367.75 Q22.7344,367.3438 23.2031,367.3438 Q23.5781,367.3438 23.8125,367.6094 Q24.0469,367.8594 24.0469,368.4688 L24.0469,370.4375 Q24.0469,370.9844 23.9219,371.1719 Q23.6563,371.5625 23.2031,371.5625 Q22.7344,371.5625 22.4688,371.1563 Q22.3438,370.9688 22.3438,370.2969 L20.8594,370.2969 Z " fill="#000000"/><text fill="#000000" font-family="sans-serif" font-size="14" lengthAdjust="spacing" textLength="94" x="36" y="375.2285">ABONNEMENT</text><line style="stroke:#181818;stroke-width:0.5;" x1="8" x2="132" y1="385.5" y2="385.5"/><ellipse cx="18" cy="399.8047" fill="#000000" rx="3" ry="3" style="stroke:#000000;stroke-width:1.0;"/><text fill="#000000" font-family="sans-serif" font-size="14" lengthAdjust="spacing" textLength="98" x="27" y="404.0332">id_abonnement</text><line style="stroke:#181818;stroke-width:1.0;" x1="8" x2="132" y1="411.1094" y2="411.1094"/><text fill="#000000" font-family="sans-serif" font-size="14" lengthAdjust="spacing" textLength="47" x="13" y="429.6426">formule</text><text fill="#000000" font-family="sans-serif" font-size="14" lengthAdjust="spacing" textLength="72" x="13" y="447.252">date_debut</text><text fill="#000000" font-family="sans-serif" font-size="14" lengthAdjust="spacing" textLength="97" x="13" y="464.8613">date_expiration</text><text fill="#000000" font-family="sans-serif" font-size="14" lengthAdjust="spacing" textLength="35" x="13" y="482.4707">statut</text></g><!--class SERVICE_VETERINAIRE--><g id="elem_SERVICE_VETERINAIRE"><rect codeLine="26" fill="#F1F1F1" height="136.0469" id="SERVICE_VETERINAIRE" rx="2.5" ry="2.5" style="stroke:#181818;stroke-width:0.5;" width="188" x="168" y="353.5"/><ellipse cx="183" cy="369.5" fill="#ADD1B2" rx="11" ry="11" style="stroke:#181818;stroke-width:1.0;"/><path d="M181.8594,370.2969 L181.8594,372.7969 L186.1875,372.7969 L186.1875,371.875 Q186.1875,371.2656 186.4219,371 Q186.6719,370.7344 187.0469,370.7344 Q187.4219,370.7344 187.6563,371 Q187.8906,371.2656 187.8906,371.875 L187.8906,374.5 L179.8906,374.5 Q179.2656,374.5 179,374.2656 Q178.75,374.0313 178.75,373.6406 Q178.75,373.2656 179.0156,373.0313 Q179.2813,372.7969 179.8906,372.7969 L180.1563,372.7969 L180.1563,366.1406 L179.8906,366.1406 Q179.2656,366.1406 179,365.9063 Q178.75,365.6719 178.75,365.2813 Q178.75,364.9063 179,364.6719 Q179.2656,364.4375 179.8906,364.4375 L187.5156,364.4375 L187.5156,367.0313 Q187.5156,367.6406 187.2813,367.9063 Q187.0625,368.1563 186.6719,368.1563 Q186.2969,368.1563 186.0625,367.9063 Q185.8281,367.6406 185.8281,367.0313 L185.8281,366.1406 L181.8594,366.1406 L181.8594,368.5938 L183.3438,368.5938 Q183.3438,367.9375 183.4688,367.75 Q183.7344,367.3438 184.2031,367.3438 Q184.5781,367.3438 184.8125,367.6094 Q185.0469,367.8594 185.0469,368.4688 L185.0469,370.4375 Q185.0469,370.9844 184.9219,371.1719 Q184.6563,371.5625 184.2031,371.5625 Q183.7344,371.5625 183.4688,371.1563 Q183.3438,370.9688 183.3438,370.2969 L181.8594,370.2969 Z " fill="#000000"/><text fill="#000000" font-family="sans-serif" font-size="14" lengthAdjust="spacing" textLength="156" x="197" y="375.2285">SERVICE_VETERINAIRE</text><line style="stroke:#181818;stroke-width:0.5;" x1="169" x2="355" y1="385.5" y2="385.5"/><ellipse cx="179" cy="399.8047" fill="#000000" rx="3" ry="3" style="stroke:#000000;stroke-width:1.0;"/><text fill="#000000" font-family="sans-serif" font-size="14" lengthAdjust="spacing" textLength="64" x="188" y="404.0332">id_service</text><line style="stroke:#181818;stroke-width:1.0;" x1="169" x2="355" y1="411.1094" y2="411.1094"/><text fill="#000000" font-family="sans-serif" font-size="14" lengthAdjust="spacing" textLength="77" x="174" y="429.6426">titre_service</text><text fill="#000000" font-family="sans-serif" font-size="14" lengthAdjust="spacing" textLength="22" x="174" y="447.252">prix</text><text fill="#000000" font-family="sans-serif" font-size="14" lengthAdjust="spacing" textLength="109" x="174" y="464.8613">temps_traitement</text><text fill="#000000" font-family="sans-serif" font-size="14" lengthAdjust="spacing" textLength="88" x="174" y="482.4707">statut_service</text></g><!--class RENDEZ_VOUS--><g id="elem_RENDEZ_VOUS"><rect codeLine="35" fill="#F1F1F1" height="171.2656" id="RENDEZ_VOUS" rx="2.5" ry="2.5" style="stroke:#181818;stroke-width:0.5;" width="133" x="316.5" y="603"/><ellipse cx="331.5" cy="619" fill="#ADD1B2" rx="11" ry="11" style="stroke:#181818;stroke-width:1.0;"/><path d="M330.3594,619.7969 L330.3594,622.2969 L334.6875,622.2969 L334.6875,621.375 Q334.6875,620.7656 334.9219,620.5 Q335.1719,620.2344 335.5469,620.2344 Q335.9219,620.2344 336.1563,620.5 Q336.3906,620.7656 336.3906,621.375 L336.3906,624 L328.3906,624 Q327.7656,624 327.5,623.7656 Q327.25,623.5313 327.25,623.1406 Q327.25,622.7656 327.5156,622.5313 Q327.7813,622.2969 328.3906,622.2969 L328.6563,622.2969 L328.6563,615.6406 L328.3906,615.6406 Q327.7656,615.6406 327.5,615.4063 Q327.25,615.1719 327.25,614.7813 Q327.25,614.4063 327.5,614.1719 Q327.7656,613.9375 328.3906,613.9375 L336.0156,613.9375 L336.0156,616.5313 Q336.0156,617.1406 335.7813,617.4063 Q335.5625,617.6563 335.1719,617.6563 Q334.7969,617.6563 334.5625,617.4063 Q334.3281,617.1406 334.3281,616.5313 L334.3281,615.6406 L330.3594,615.6406 L330.3594,618.0938 L331.8438,618.0938 Q331.8438,617.4375 331.9688,617.25 Q332.2344,616.8438 332.7031,616.8438 Q333.0781,616.8438 333.3125,617.1094 Q333.5469,617.3594 333.5469,617.9688 L333.5469,619.9375 Q333.5469,620.4844 333.4219,620.6719 Q333.1563,621.0625 332.7031,621.0625 Q332.2344,621.0625 331.9688,620.6563 Q331.8438,620.4688 331.8438,619.7969 L330.3594,619.7969 Z " fill="#000000"/><text fill="#000000" font-family="sans-serif" font-size="14" lengthAdjust="spacing" textLength="101" x="345.5" y="624.7285">RENDEZ_VOUS</text><line style="stroke:#181818;stroke-width:0.5;" x1="317.5" x2="448.5" y1="635" y2="635"/><ellipse cx="327.5" cy="649.3047" fill="#000000" rx="3" ry="3" style="stroke:#000000;stroke-width:1.0;"/><text fill="#000000" font-family="sans-serif" font-size="14" lengthAdjust="spacing" textLength="39" x="336.5" y="653.5332">id_rdv</text><line style="stroke:#181818;stroke-width:1.0;" x1="317.5" x2="448.5" y1="660.6094" y2="660.6094"/><text fill="#000000" font-family="sans-serif" font-size="14" lengthAdjust="spacing" textLength="30" x="322.5" y="679.1426">sujet</text><text fill="#000000" font-family="sans-serif" font-size="14" lengthAdjust="spacing" textLength="69" x="322.5" y="696.752">description</text><text fill="#000000" font-family="sans-serif" font-size="14" lengthAdjust="spacing" textLength="80" x="322.5" y="714.3613">date_prevue</text><text fill="#000000" font-family="sans-serif" font-size="14" lengthAdjust="spacing" textLength="35" x="322.5" y="731.9707">statut</text><text fill="#000000" font-family="sans-serif" font-size="14" lengthAdjust="spacing" textLength="69" x="322.5" y="749.5801">note_client</text><text fill="#000000" font-family="sans-serif" font-size="14" lengthAdjust="spacing" textLength="66" x="322.5" y="767.1895">avis_client</text></g><!--class ANNONCE--><g id="elem_ANNONCE"><rect codeLine="46" fill="#F1F1F1" height="188.875" id="ANNONCE" rx="2.5" ry="2.5" style="stroke:#181818;stroke-width:0.5;" width="102" x="674" y="327"/><ellipse cx="690.8" cy="343" fill="#ADD1B2" rx="11" ry="11" style="stroke:#181818;stroke-width:1.0;"/><path d="M689.6594,343.7969 L689.6594,346.2969 L693.9875,346.2969 L693.9875,345.375 Q693.9875,344.7656 694.2219,344.5 Q694.4719,344.2344 694.8469,344.2344 Q695.2219,344.2344 695.4563,344.5 Q695.6906,344.7656 695.6906,345.375 L695.6906,348 L687.6906,348 Q687.0656,348 686.8,347.7656 Q686.55,347.5313 686.55,347.1406 Q686.55,346.7656 686.8156,346.5313 Q687.0813,346.2969 687.6906,346.2969 L687.9563,346.2969 L687.9563,339.6406 L687.6906,339.6406 Q687.0656,339.6406 686.8,339.4063 Q686.55,339.1719 686.55,338.7813 Q686.55,338.4063 686.8,338.1719 Q687.0656,337.9375 687.6906,337.9375 L695.3156,337.9375 L695.3156,340.5313 Q695.3156,341.1406 695.0813,341.4063 Q694.8625,341.6563 694.4719,341.6563 Q694.0969,341.6563 693.8625,341.4063 Q693.6281,341.1406 693.6281,340.5313 L693.6281,339.6406 L689.6594,339.6406 L689.6594,342.0938 L691.1438,342.0938 Q691.1438,341.4375 691.2688,341.25 Q691.5344,340.8438 692.0031,340.8438 Q692.3781,340.8438 692.6125,341.1094 Q692.8469,341.3594 692.8469,341.9688 L692.8469,343.9375 Q692.8469,344.4844 692.7219,344.6719 Q692.4563,345.0625 692.0031,345.0625 Q691.5344,345.0625 691.2688,344.6563 Q691.1438,344.4688 691.1438,343.7969 L689.6594,343.7969 Z " fill="#000000"/><text fill="#000000" font-family="sans-serif" font-size="14" lengthAdjust="spacing" textLength="66" x="705.2" y="348.7285">ANNONCE</text><line style="stroke:#181818;stroke-width:0.5;" x1="675" x2="775" y1="359" y2="359"/><ellipse cx="685" cy="373.3047" fill="#000000" rx="3" ry="3" style="stroke:#000000;stroke-width:1.0;"/><text fill="#000000" font-family="sans-serif" font-size="14" lengthAdjust="spacing" textLength="74" x="694" y="377.5332">id_annonce</text><line style="stroke:#181818;stroke-width:1.0;" x1="675" x2="775" y1="384.6094" y2="384.6094"/><text fill="#000000" font-family="sans-serif" font-size="14" lengthAdjust="spacing" textLength="90" x="680" y="403.1426">type_annonce</text><text fill="#000000" font-family="sans-serif" font-size="14" lengthAdjust="spacing" textLength="24" x="680" y="420.752">titre</text><text fill="#000000" font-family="sans-serif" font-size="14" lengthAdjust="spacing" textLength="77" x="680" y="438.3613">prix_unitaire</text><text fill="#000000" font-family="sans-serif" font-size="14" lengthAdjust="spacing" textLength="51" x="680" y="455.9707">quantite</text><text fill="#000000" font-family="sans-serif" font-size="14" lengthAdjust="spacing" textLength="35" x="680" y="473.5801">statut</text><text fill="#000000" font-family="sans-serif" font-size="14" lengthAdjust="spacing" textLength="66" x="680" y="491.1895">motif_rejet</text><text fill="#000000" font-family="sans-serif" font-size="14" lengthAdjust="spacing" textLength="24" x="680" y="508.7988">etat</text></g><!--class REDUCTION_ANNONCE--><g id="elem_REDUCTION_ANNONCE"><rect codeLine="58" fill="#F1F1F1" height="118.4375" id="REDUCTION_ANNONCE" rx="2.5" ry="2.5" style="stroke:#181818;stroke-width:0.5;" width="186" x="485" y="629.5"/><ellipse cx="500" cy="645.5" fill="#ADD1B2" rx="11" ry="11" style="stroke:#181818;stroke-width:1.0;"/><path d="M498.8594,646.2969 L498.8594,648.7969 L503.1875,648.7969 L503.1875,647.875 Q503.1875,647.2656 503.4219,647 Q503.6719,646.7344 504.0469,646.7344 Q504.4219,646.7344 504.6563,647 Q504.8906,647.2656 504.8906,647.875 L504.8906,650.5 L496.8906,650.5 Q496.2656,650.5 496,650.2656 Q495.75,650.0313 495.75,649.6406 Q495.75,649.2656 496.0156,649.0313 Q496.2813,648.7969 496.8906,648.7969 L497.1563,648.7969 L497.1563,642.1406 L496.8906,642.1406 Q496.2656,642.1406 496,641.9063 Q495.75,641.6719 495.75,641.2813 Q495.75,640.9063 496,640.6719 Q496.2656,640.4375 496.8906,640.4375 L504.5156,640.4375 L504.5156,643.0313 Q504.5156,643.6406 504.2813,643.9063 Q504.0625,644.1563 503.6719,644.1563 Q503.2969,644.1563 503.0625,643.9063 Q502.8281,643.6406 502.8281,643.0313 L502.8281,642.1406 L498.8594,642.1406 L498.8594,644.5938 L500.3438,644.5938 Q500.3438,643.9375 500.4688,643.75 Q500.7344,643.3438 501.2031,643.3438 Q501.5781,643.3438 501.8125,643.6094 Q502.0469,643.8594 502.0469,644.4688 L502.0469,646.4375 Q502.0469,646.9844 501.9219,647.1719 Q501.6563,647.5625 501.2031,647.5625 Q500.7344,647.5625 500.4688,647.1563 Q500.3438,646.9688 500.3438,646.2969 L498.8594,646.2969 Z " fill="#000000"/><text fill="#000000" font-family="sans-serif" font-size="14" lengthAdjust="spacing" textLength="154" x="514" y="651.2285">REDUCTION_ANNONCE</text><line style="stroke:#181818;stroke-width:0.5;" x1="486" x2="670" y1="661.5" y2="661.5"/><ellipse cx="496" cy="675.8047" fill="#000000" rx="3" ry="3" style="stroke:#000000;stroke-width:1.0;"/><text fill="#000000" font-family="sans-serif" font-size="14" lengthAdjust="spacing" textLength="78" x="505" y="680.0332">id_reduction</text><line style="stroke:#181818;stroke-width:1.0;" x1="486" x2="670" y1="687.1094" y2="687.1094"/><text fill="#000000" font-family="sans-serif" font-size="14" lengthAdjust="spacing" textLength="81" x="491" y="705.6426">quantite_min</text><text fill="#000000" font-family="sans-serif" font-size="14" lengthAdjust="spacing" textLength="84" x="491" y="723.252">quantite_max</text><text fill="#000000" font-family="sans-serif" font-size="14" lengthAdjust="spacing" textLength="147" x="491" y="740.8613">pourcentage_reduction</text></g><!--class COMMANDE--><g id="elem_COMMANDE"><rect codeLine="66" fill="#F1F1F1" height="188.875" id="COMMANDE" rx="2.5" ry="2.5" style="stroke:#181818;stroke-width:0.5;" width="176" x="706" y="594"/><ellipse cx="749.8" cy="610" fill="#ADD1B2" rx="11" ry="11" style="stroke:#181818;stroke-width:1.0;"/><path d="M748.6594,610.7969 L748.6594,613.2969 L752.9875,613.2969 L752.9875,612.375 Q752.9875,611.7656 753.2219,611.5 Q753.4719,611.2344 753.8469,611.2344 Q754.2219,611.2344 754.4563,611.5 Q754.6906,611.7656 754.6906,612.375 L754.6906,615 L746.6906,615 Q746.0656,615 745.8,614.7656 Q745.55,614.5313 745.55,614.1406 Q745.55,613.7656 745.8156,613.5313 Q746.0813,613.2969 746.6906,613.2969 L746.9563,613.2969 L746.9563,606.6406 L746.6906,606.6406 Q746.0656,606.6406 745.8,606.4063 Q745.55,606.1719 745.55,605.7813 Q745.55,605.4063 745.8,605.1719 Q746.0656,604.9375 746.6906,604.9375 L754.3156,604.9375 L754.3156,607.5313 Q754.3156,608.1406 754.0813,608.4063 Q753.8625,608.6563 753.4719,608.6563 Q753.0969,608.6563 752.8625,608.4063 Q752.6281,608.1406 752.6281,607.5313 L752.6281,606.6406 L748.6594,606.6406 L748.6594,609.0938 L750.1438,609.0938 Q750.1438,608.4375 750.2688,608.25 Q750.5344,607.8438 751.0031,607.8438 Q751.3781,607.8438 751.6125,608.1094 Q751.8469,608.3594 751.8469,608.9688 L751.8469,610.9375 Q751.8469,611.4844 751.7219,611.6719 Q751.4563,612.0625 751.0031,612.0625 Q750.5344,612.0625 750.2688,611.6563 Q750.1438,611.4688 750.1438,610.7969 L748.6594,610.7969 Z " fill="#000000"/><text fill="#000000" font-family="sans-serif" font-size="14" lengthAdjust="spacing" textLength="80" x="770.2" y="615.7285">COMMANDE</text><line style="stroke:#181818;stroke-width:0.5;" x1="707" x2="881" y1="626" y2="626"/><ellipse cx="717" cy="640.3047" fill="#000000" rx="3" ry="3" style="stroke:#000000;stroke-width:1.0;"/><text fill="#000000" font-family="sans-serif" font-size="14" lengthAdjust="spacing" textLength="88" x="726" y="644.5332">id_commande</text><line style="stroke:#181818;stroke-width:1.0;" x1="707" x2="881" y1="651.6094" y2="651.6094"/><text fill="#000000" font-family="sans-serif" font-size="14" lengthAdjust="spacing" textLength="51" x="712" y="670.1426">quantite</text><text fill="#000000" font-family="sans-serif" font-size="14" lengthAdjust="spacing" textLength="77" x="712" y="687.752">prix_unitaire</text><text fill="#000000" font-family="sans-serif" font-size="14" lengthAdjust="spacing" textLength="86" x="712" y="705.3613">montant_total</text><text fill="#000000" font-family="sans-serif" font-size="14" lengthAdjust="spacing" textLength="164" x="712" y="722.9707">reduction_sur_commande</text><text fill="#000000" font-family="sans-serif" font-size="14" lengthAdjust="spacing" textLength="156" x="712" y="740.5801">montant_net_commande</text><text fill="#000000" font-family="sans-serif" font-size="14" lengthAdjust="spacing" textLength="35" x="712" y="758.1895">statut</text><text fill="#000000" font-family="sans-serif" font-size="14" lengthAdjust="spacing" textLength="112" x="712" y="775.7988">code_authenticite</text></g><!--class PAIEMENT--><g id="elem_PAIEMENT"><rect codeLine="78" fill="#F1F1F1" height="136.0469" id="PAIEMENT" rx="2.5" ry="2.5" style="stroke:#181818;stroke-width:0.5;" width="144" x="738" y="972.5"/><ellipse cx="772.8" cy="988.5" fill="#ADD1B2" rx="11" ry="11" style="stroke:#181818;stroke-width:1.0;"/><path d="M771.6594,989.2969 L771.6594,991.7969 L775.9875,991.7969 L775.9875,990.875 Q775.9875,990.2656 776.2219,990 Q776.4719,989.7344 776.8469,989.7344 Q777.2219,989.7344 777.4563,990 Q777.6906,990.2656 777.6906,990.875 L777.6906,993.5 L769.6906,993.5 Q769.0656,993.5 768.8,993.2656 Q768.55,993.0313 768.55,992.6406 Q768.55,992.2656 768.8156,992.0313 Q769.0813,991.7969 769.6906,991.7969 L769.9563,991.7969 L769.9563,985.1406 L769.6906,985.1406 Q769.0656,985.1406 768.8,984.9063 Q768.55,984.6719 768.55,984.2813 Q768.55,983.9063 768.8,983.6719 Q769.0656,983.4375 769.6906,983.4375 L777.3156,983.4375 L777.3156,986.0313 Q777.3156,986.6406 777.0813,986.9063 Q776.8625,987.1563 776.4719,987.1563 Q776.0969,987.1563 775.8625,986.9063 Q775.6281,986.6406 775.6281,986.0313 L775.6281,985.1406 L771.6594,985.1406 L771.6594,987.5938 L773.1438,987.5938 Q773.1438,986.9375 773.2688,986.75 Q773.5344,986.3438 774.0031,986.3438 Q774.3781,986.3438 774.6125,986.6094 Q774.8469,986.8594 774.8469,987.4688 L774.8469,989.4375 Q774.8469,989.9844 774.7219,990.1719 Q774.4563,990.5625 774.0031,990.5625 Q773.5344,990.5625 773.2688,990.1563 Q773.1438,989.9688 773.1438,989.2969 L771.6594,989.2969 Z " fill="#000000"/><text fill="#000000" font-family="sans-serif" font-size="14" lengthAdjust="spacing" textLength="68" x="791.2" y="994.2285">PAIEMENT</text><line style="stroke:#181818;stroke-width:0.5;" x1="739" x2="881" y1="1004.5" y2="1004.5"/><ellipse cx="749" cy="1018.8047" fill="#000000" rx="3" ry="3" style="stroke:#000000;stroke-width:1.0;"/><text fill="#000000" font-family="sans-serif" font-size="14" lengthAdjust="spacing" textLength="77" x="758" y="1023.0332">id_paiement</text><line style="stroke:#181818;stroke-width:1.0;" x1="739" x2="881" y1="1030.1094" y2="1030.1094"/><text fill="#000000" font-family="sans-serif" font-size="14" lengthAdjust="spacing" textLength="83" x="744" y="1048.6426">total_general</text><text fill="#000000" font-family="sans-serif" font-size="14" lengthAdjust="spacing" textLength="132" x="744" y="1066.252">moyen_de_paiement</text><text fill="#000000" font-family="sans-serif" font-size="14" lengthAdjust="spacing" textLength="108" x="744" y="1083.8613">total_commission</text><text fill="#000000" font-family="sans-serif" font-size="14" lengthAdjust="spacing" textLength="101" x="744" y="1101.4707">statut_paiement</text></g><!--class LIVRAISON--><g id="elem_LIVRAISON"><rect codeLine="87" fill="#F1F1F1" height="188.875" id="LIVRAISON" rx="2.5" ry="2.5" style="stroke:#181818;stroke-width:0.5;" width="161" x="943.5" y="946"/><ellipse cx="984.6" cy="962" fill="#ADD1B2" rx="11" ry="11" style="stroke:#181818;stroke-width:1.0;"/><path d="M983.4594,962.7969 L983.4594,965.2969 L987.7875,965.2969 L987.7875,964.375 Q987.7875,963.7656 988.0219,963.5 Q988.2719,963.2344 988.6469,963.2344 Q989.0219,963.2344 989.2563,963.5 Q989.4906,963.7656 989.4906,964.375 L989.4906,967 L981.4906,967 Q980.8656,967 980.6,966.7656 Q980.35,966.5313 980.35,966.1406 Q980.35,965.7656 980.6156,965.5313 Q980.8813,965.2969 981.4906,965.2969 L981.7563,965.2969 L981.7563,958.6406 L981.4906,958.6406 Q980.8656,958.6406 980.6,958.4063 Q980.35,958.1719 980.35,957.7813 Q980.35,957.4063 980.6,957.1719 Q980.8656,956.9375 981.4906,956.9375 L989.1156,956.9375 L989.1156,959.5313 Q989.1156,960.1406 988.8813,960.4063 Q988.6625,960.6563 988.2719,960.6563 Q987.8969,960.6563 987.6625,960.4063 Q987.4281,960.1406 987.4281,959.5313 L987.4281,958.6406 L983.4594,958.6406 L983.4594,961.0938 L984.9438,961.0938 Q984.9438,960.4375 985.0688,960.25 Q985.3344,959.8438 985.8031,959.8438 Q986.1781,959.8438 986.4125,960.1094 Q986.6469,960.3594 986.6469,960.9688 L986.6469,962.9375 Q986.6469,963.4844 986.5219,963.6719 Q986.2563,964.0625 985.8031,964.0625 Q985.3344,964.0625 985.0688,963.6563 Q984.9438,963.4688 984.9438,962.7969 L983.4594,962.7969 Z " fill="#000000"/><text fill="#000000" font-family="sans-serif" font-size="14" lengthAdjust="spacing" textLength="71" x="1004.4" y="967.7285">LIVRAISON</text><line style="stroke:#181818;stroke-width:0.5;" x1="944.5" x2="1103.5" y1="978" y2="978"/><ellipse cx="954.5" cy="992.3047" fill="#000000" rx="3" ry="3" style="stroke:#000000;stroke-width:1.0;"/><text fill="#000000" font-family="sans-serif" font-size="14" lengthAdjust="spacing" textLength="71" x="963.5" y="996.5332">id_livraison</text><line style="stroke:#181818;stroke-width:1.0;" x1="944.5" x2="1103.5" y1="1003.6094" y2="1003.6094"/><text fill="#000000" font-family="sans-serif" font-size="14" lengthAdjust="spacing" textLength="130" x="949.5" y="1022.1426">adresse_fournisseur</text><text fill="#000000" font-family="sans-serif" font-size="14" lengthAdjust="spacing" textLength="92" x="949.5" y="1039.752">adresse_client</text><text fill="#000000" font-family="sans-serif" font-size="14" lengthAdjust="spacing" textLength="139" x="949.5" y="1057.3613">montant_net_livraison</text><text fill="#000000" font-family="sans-serif" font-size="14" lengthAdjust="spacing" textLength="35" x="949.5" y="1074.9707">statut</text><text fill="#000000" font-family="sans-serif" font-size="14" lengthAdjust="spacing" textLength="149" x="949.5" y="1092.5801">verification_authenticite</text><text fill="#000000" font-family="sans-serif" font-size="14" lengthAdjust="spacing" textLength="129" x="949.5" y="1110.1895">note_client_livraison</text><text fill="#000000" font-family="sans-serif" font-size="14" lengthAdjust="spacing" textLength="126" x="949.5" y="1127.7988">avis_client_livraison</text></g><!--class PLANNING_LIVREUR--><g id="elem_PLANNING_LIVREUR"><rect codeLine="99" fill="#F1F1F1" height="118.4375" id="PLANNING_LIVREUR" rx="2.5" ry="2.5" style="stroke:#181818;stroke-width:0.5;" width="165" x="1029.5" y="362.5"/><ellipse cx="1044.5" cy="378.5" fill="#ADD1B2" rx="11" ry="11" style="stroke:#181818;stroke-width:1.0;"/><path d="M1043.3594,379.2969 L1043.3594,381.7969 L1047.6875,381.7969 L1047.6875,380.875 Q1047.6875,380.2656 1047.9219,380 Q1048.1719,379.7344 1048.5469,379.7344 Q1048.9219,379.7344 1049.1563,380 Q1049.3906,380.2656 1049.3906,380.875 L1049.3906,383.5 L1041.3906,383.5 Q1040.7656,383.5 1040.5,383.2656 Q1040.25,383.0313 1040.25,382.6406 Q1040.25,382.2656 1040.5156,382.0313 Q1040.7813,381.7969 1041.3906,381.7969 L1041.6563,381.7969 L1041.6563,375.1406 L1041.3906,375.1406 Q1040.7656,375.1406 1040.5,374.9063 Q1040.25,374.6719 1040.25,374.2813 Q1040.25,373.9063 1040.5,373.6719 Q1040.7656,373.4375 1041.3906,373.4375 L1049.0156,373.4375 L1049.0156,376.0313 Q1049.0156,376.6406 1048.7813,376.9063 Q1048.5625,377.1563 1048.1719,377.1563 Q1047.7969,377.1563 1047.5625,376.9063 Q1047.3281,376.6406 1047.3281,376.0313 L1047.3281,375.1406 L1043.3594,375.1406 L1043.3594,377.5938 L1044.8438,377.5938 Q1044.8438,376.9375 1044.9688,376.75 Q1045.2344,376.3438 1045.7031,376.3438 Q1046.0781,376.3438 1046.3125,376.6094 Q1046.5469,376.8594 1046.5469,377.4688 L1046.5469,379.4375 Q1046.5469,379.9844 1046.4219,380.1719 Q1046.1563,380.5625 1045.7031,380.5625 Q1045.2344,380.5625 1044.9688,380.1563 Q1044.8438,379.9688 1044.8438,379.2969 L1043.3594,379.2969 Z " fill="#000000"/><text fill="#000000" font-family="sans-serif" font-size="14" lengthAdjust="spacing" textLength="133" x="1058.5" y="384.2285">PLANNING_LIVREUR</text><line style="stroke:#181818;stroke-width:0.5;" x1="1030.5" x2="1193.5" y1="394.5" y2="394.5"/><ellipse cx="1040.5" cy="408.8047" fill="#000000" rx="3" ry="3" style="stroke:#000000;stroke-width:1.0;"/><text fill="#000000" font-family="sans-serif" font-size="14" lengthAdjust="spacing" textLength="73" x="1049.5" y="413.0332">id_planning</text><line style="stroke:#181818;stroke-width:1.0;" x1="1030.5" x2="1193.5" y1="420.1094" y2="420.1094"/><text fill="#000000" font-family="sans-serif" font-size="14" lengthAdjust="spacing" textLength="72" x="1035.5" y="438.6426">date_debut</text><text fill="#000000" font-family="sans-serif" font-size="14" lengthAdjust="spacing" textLength="51" x="1035.5" y="456.252">date_fin</text><text fill="#000000" font-family="sans-serif" font-size="14" lengthAdjust="spacing" textLength="64" x="1035.5" y="473.8613">disponible</text></g><!--class REDUCTION_LIVRAISON--><g id="elem_REDUCTION_LIVRAISON"><rect codeLine="107" fill="#F1F1F1" height="118.4375" id="REDUCTION_LIVRAISON" rx="2.5" ry="2.5" style="stroke:#181818;stroke-width:0.5;" width="191" x="1229.5" y="362.5"/><ellipse cx="1244.5" cy="378.5" fill="#ADD1B2" rx="11" ry="11" style="stroke:#181818;stroke-width:1.0;"/><path d="M1243.3594,379.2969 L1243.3594,381.7969 L1247.6875,381.7969 L1247.6875,380.875 Q1247.6875,380.2656 1247.9219,380 Q1248.1719,379.7344 1248.5469,379.7344 Q1248.9219,379.7344 1249.1563,380 Q1249.3906,380.2656 1249.3906,380.875 L1249.3906,383.5 L1241.3906,383.5 Q1240.7656,383.5 1240.5,383.2656 Q1240.25,383.0313 1240.25,382.6406 Q1240.25,382.2656 1240.5156,382.0313 Q1240.7813,381.7969 1241.3906,381.7969 L1241.6563,381.7969 L1241.6563,375.1406 L1241.3906,375.1406 Q1240.7656,375.1406 1240.5,374.9063 Q1240.25,374.6719 1240.25,374.2813 Q1240.25,373.9063 1240.5,373.6719 Q1240.7656,373.4375 1241.3906,373.4375 L1249.0156,373.4375 L1249.0156,376.0313 Q1249.0156,376.6406 1248.7813,376.9063 Q1248.5625,377.1563 1248.1719,377.1563 Q1247.7969,377.1563 1247.5625,376.9063 Q1247.3281,376.6406 1247.3281,376.0313 L1247.3281,375.1406 L1243.3594,375.1406 L1243.3594,377.5938 L1244.8438,377.5938 Q1244.8438,376.9375 1244.9688,376.75 Q1245.2344,376.3438 1245.7031,376.3438 Q1246.0781,376.3438 1246.3125,376.6094 Q1246.5469,376.8594 1246.5469,377.4688 L1246.5469,379.4375 Q1246.5469,379.9844 1246.4219,380.1719 Q1246.1563,380.5625 1245.7031,380.5625 Q1245.2344,380.5625 1244.9688,380.1563 Q1244.8438,379.9688 1244.8438,379.2969 L1243.3594,379.2969 Z " fill="#000000"/><text fill="#000000" font-family="sans-serif" font-size="14" lengthAdjust="spacing" textLength="159" x="1258.5" y="384.2285">REDUCTION_LIVRAISON</text><line style="stroke:#181818;stroke-width:0.5;" x1="1230.5" x2="1419.5" y1="394.5" y2="394.5"/><ellipse cx="1240.5" cy="408.8047" fill="#000000" rx="3" ry="3" style="stroke:#000000;stroke-width:1.0;"/><text fill="#000000" font-family="sans-serif" font-size="14" lengthAdjust="spacing" textLength="78" x="1249.5" y="413.0332">id_reduction</text><line style="stroke:#181818;stroke-width:1.0;" x1="1230.5" x2="1419.5" y1="420.1094" y2="420.1094"/><text fill="#000000" font-family="sans-serif" font-size="14" lengthAdjust="spacing" textLength="81" x="1235.5" y="438.6426">quantite_min</text><text fill="#000000" font-family="sans-serif" font-size="14" lengthAdjust="spacing" textLength="84" x="1235.5" y="456.252">quantite_max</text><text fill="#000000" font-family="sans-serif" font-size="14" lengthAdjust="spacing" textLength="147" x="1235.5" y="473.8613">pourcentage_reduction</text></g><!--class VERSEMENT--><g id="elem_VERSEMENT"><rect codeLine="115" fill="#F1F1F1" height="136.0469" id="VERSEMENT" rx="2.5" ry="2.5" style="stroke:#181818;stroke-width:0.5;" width="152" x="734" y="1213"/><ellipse cx="765.2" cy="1229" fill="#ADD1B2" rx="11" ry="11" style="stroke:#181818;stroke-width:1.0;"/><path d="M764.0594,1229.7969 L764.0594,1232.2969 L768.3875,1232.2969 L768.3875,1231.375 Q768.3875,1230.7656 768.6219,1230.5 Q768.8719,1230.2344 769.2469,1230.2344 Q769.6219,1230.2344 769.8563,1230.5 Q770.0906,1230.7656 770.0906,1231.375 L770.0906,1234 L762.0906,1234 Q761.4656,1234 761.2,1233.7656 Q760.95,1233.5313 760.95,1233.1406 Q760.95,1232.7656 761.2156,1232.5313 Q761.4813,1232.2969 762.0906,1232.2969 L762.3563,1232.2969 L762.3563,1225.6406 L762.0906,1225.6406 Q761.4656,1225.6406 761.2,1225.4063 Q760.95,1225.1719 760.95,1224.7813 Q760.95,1224.4063 761.2,1224.1719 Q761.4656,1223.9375 762.0906,1223.9375 L769.7156,1223.9375 L769.7156,1226.5313 Q769.7156,1227.1406 769.4813,1227.4063 Q769.2625,1227.6563 768.8719,1227.6563 Q768.4969,1227.6563 768.2625,1227.4063 Q768.0281,1227.1406 768.0281,1226.5313 L768.0281,1225.6406 L764.0594,1225.6406 L764.0594,1228.0938 L765.5438,1228.0938 Q765.5438,1227.4375 765.6688,1227.25 Q765.9344,1226.8438 766.4031,1226.8438 Q766.7781,1226.8438 767.0125,1227.1094 Q767.2469,1227.3594 767.2469,1227.9688 L767.2469,1229.9375 Q767.2469,1230.4844 767.1219,1230.6719 Q766.8563,1231.0625 766.4031,1231.0625 Q765.9344,1231.0625 765.6688,1230.6563 Q765.5438,1230.4688 765.5438,1229.7969 L764.0594,1229.7969 Z " fill="#000000"/><text fill="#000000" font-family="sans-serif" font-size="14" lengthAdjust="spacing" textLength="84" x="782.8" y="1234.7285">VERSEMENT</text><line style="stroke:#181818;stroke-width:0.5;" x1="735" x2="885" y1="1245" y2="1245"/><ellipse cx="745" cy="1259.3047" fill="#000000" rx="3" ry="3" style="stroke:#000000;stroke-width:1.0;"/><text fill="#000000" font-family="sans-serif" font-size="14" lengthAdjust="spacing" textLength="85" x="754" y="1263.5332">id_versement</text><line style="stroke:#181818;stroke-width:1.0;" x1="735" x2="885" y1="1270.6094" y2="1270.6094"/><text fill="#000000" font-family="sans-serif" font-size="14" lengthAdjust="spacing" textLength="108" x="740" y="1289.1426">type_beneficiaire</text><text fill="#000000" font-family="sans-serif" font-size="14" lengthAdjust="spacing" textLength="99" x="740" y="1306.752">montant_verser</text><text fill="#000000" font-family="sans-serif" font-size="14" lengthAdjust="spacing" textLength="140" x="740" y="1324.3613">moyen_de_versement</text><text fill="#000000" font-family="sans-serif" font-size="14" lengthAdjust="spacing" textLength="109" x="740" y="1341.9707">statut_versement</text></g><!--class NOTIFICATION--><g id="elem_NOTIFICATION"><rect codeLine="124" fill="#F1F1F1" height="118.4375" id="NOTIFICATION" rx="2.5" ry="2.5" style="stroke:#181818;stroke-width:0.5;" width="127" x="1527.5" y="362.5"/><ellipse cx="1542.5" cy="378.5" fill="#ADD1B2" rx="11" ry="11" style="stroke:#181818;stroke-width:1.0;"/><path d="M1541.3594,379.2969 L1541.3594,381.7969 L1545.6875,381.7969 L1545.6875,380.875 Q1545.6875,380.2656 1545.9219,380 Q1546.1719,379.7344 1546.5469,379.7344 Q1546.9219,379.7344 1547.1563,380 Q1547.3906,380.2656 1547.3906,380.875 L1547.3906,383.5 L1539.3906,383.5 Q1538.7656,383.5 1538.5,383.2656 Q1538.25,383.0313 1538.25,382.6406 Q1538.25,382.2656 1538.5156,382.0313 Q1538.7813,381.7969 1539.3906,381.7969 L1539.6563,381.7969 L1539.6563,375.1406 L1539.3906,375.1406 Q1538.7656,375.1406 1538.5,374.9063 Q1538.25,374.6719 1538.25,374.2813 Q1538.25,373.9063 1538.5,373.6719 Q1538.7656,373.4375 1539.3906,373.4375 L1547.0156,373.4375 L1547.0156,376.0313 Q1547.0156,376.6406 1546.7813,376.9063 Q1546.5625,377.1563 1546.1719,377.1563 Q1545.7969,377.1563 1545.5625,376.9063 Q1545.3281,376.6406 1545.3281,376.0313 L1545.3281,375.1406 L1541.3594,375.1406 L1541.3594,377.5938 L1542.8438,377.5938 Q1542.8438,376.9375 1542.9688,376.75 Q1543.2344,376.3438 1543.7031,376.3438 Q1544.0781,376.3438 1544.3125,376.6094 Q1544.5469,376.8594 1544.5469,377.4688 L1544.5469,379.4375 Q1544.5469,379.9844 1544.4219,380.1719 Q1544.1563,380.5625 1543.7031,380.5625 Q1543.2344,380.5625 1542.9688,380.1563 Q1542.8438,379.9688 1542.8438,379.2969 L1541.3594,379.2969 Z " fill="#000000"/><text fill="#000000" font-family="sans-serif" font-size="14" lengthAdjust="spacing" textLength="95" x="1556.5" y="384.2285">NOTIFICATION</text><line style="stroke:#181818;stroke-width:0.5;" x1="1528.5" x2="1653.5" y1="394.5" y2="394.5"/><ellipse cx="1538.5" cy="408.8047" fill="#000000" rx="3" ry="3" style="stroke:#000000;stroke-width:1.0;"/><text fill="#000000" font-family="sans-serif" font-size="14" lengthAdjust="spacing" textLength="87" x="1547.5" y="413.0332">id_notification</text><line style="stroke:#181818;stroke-width:1.0;" x1="1528.5" x2="1653.5" y1="420.1094" y2="420.1094"/><text fill="#000000" font-family="sans-serif" font-size="14" lengthAdjust="spacing" textLength="51" x="1533.5" y="438.6426">contenu</text><text fill="#000000" font-family="sans-serif" font-size="14" lengthAdjust="spacing" textLength="27" x="1533.5" y="456.252">type</text><text fill="#000000" font-family="sans-serif" font-size="14" lengthAdjust="spacing" textLength="11" x="1533.5" y="473.8613">lu</text></g><!--class ACTUALITE--><g id="elem_ACTUALITE"><rect codeLine="132" fill="#F1F1F1" height="118.4375" id="ACTUALITE" rx="2.5" ry="2.5" style="stroke:#181818;stroke-width:0.5;" width="116" x="1690" y="362.5"/><ellipse cx="1709.05" cy="378.5" fill="#ADD1B2" rx="11" ry="11" style="stroke:#181818;stroke-width:1.0;"/><path d="M1707.9094,379.2969 L1707.9094,381.7969 L1712.2375,381.7969 L1712.2375,380.875 Q1712.2375,380.2656 1712.4719,380 Q1712.7219,379.7344 1713.0969,379.7344 Q1713.4719,379.7344 1713.7063,380 Q1713.9406,380.2656 1713.9406,380.875 L1713.9406,383.5 L1705.9406,383.5 Q1705.3156,383.5 1705.05,383.2656 Q1704.8,383.0313 1704.8,382.6406 Q1704.8,382.2656 1705.0656,382.0313 Q1705.3313,381.7969 1705.9406,381.7969 L1706.2063,381.7969 L1706.2063,375.1406 L1705.9406,375.1406 Q1705.3156,375.1406 1705.05,374.9063 Q1704.8,374.6719 1704.8,374.2813 Q1704.8,373.9063 1705.05,373.6719 Q1705.3156,373.4375 1705.9406,373.4375 L1713.5656,373.4375 L1713.5656,376.0313 Q1713.5656,376.6406 1713.3313,376.9063 Q1713.1125,377.1563 1712.7219,377.1563 Q1712.3469,377.1563 1712.1125,376.9063 Q1711.8781,376.6406 1711.8781,376.0313 L1711.8781,375.1406 L1707.9094,375.1406 L1707.9094,377.5938 L1709.3938,377.5938 Q1709.3938,376.9375 1709.5188,376.75 Q1709.7844,376.3438 1710.2531,376.3438 Q1710.6281,376.3438 1710.8625,376.6094 Q1711.0969,376.8594 1711.0969,377.4688 L1711.0969,379.4375 Q1711.0969,379.9844 1710.9719,380.1719 Q1710.7063,380.5625 1710.2531,380.5625 Q1709.7844,380.5625 1709.5188,380.1563 Q1709.3938,379.9688 1709.3938,379.2969 L1707.9094,379.2969 Z " fill="#000000"/><text fill="#000000" font-family="sans-serif" font-size="14" lengthAdjust="spacing" textLength="75" x="1723.95" y="384.2285">ACTUALITE</text><line style="stroke:#181818;stroke-width:0.5;" x1="1691" x2="1805" y1="394.5" y2="394.5"/><ellipse cx="1701" cy="408.8047" fill="#000000" rx="3" ry="3" style="stroke:#000000;stroke-width:1.0;"/><text fill="#000000" font-family="sans-serif" font-size="14" lengthAdjust="spacing" textLength="72" x="1710" y="413.0332">id_actualite</text><line style="stroke:#181818;stroke-width:1.0;" x1="1691" x2="1805" y1="420.1094" y2="420.1094"/><text fill="#000000" font-family="sans-serif" font-size="14" lengthAdjust="spacing" textLength="24" x="1696" y="438.6426">titre</text><text fill="#000000" font-family="sans-serif" font-size="14" lengthAdjust="spacing" textLength="51" x="1696" y="456.252">contenu</text><text fill="#000000" font-family="sans-serif" font-size="14" lengthAdjust="spacing" textLength="104" x="1696" y="473.8613">date_publication</text></g><!--link UTILISATEUR to ABONNEMENT--><g id="link_UTILISATEUR_ABONNEMENT"><path codeLine="140" d="M864.21,102.3 C691.52,103.08 197.56,115.13 91,226 C59.23,259.06 55.13,311.34 58.35,353.38 " fill="none" id="UTILISATEUR-ABONNEMENT" style="stroke:#181818;stroke-width:1.0;"/><text fill="#000000" font-family="sans-serif" font-size="13" lengthAdjust="spacing" textLength="76" x="144" y="248.9951">SOUSCRIRE</text><path d="M96,257.8516 L96,283.8516 L268,283.8516 L268,267.8516 L258,257.8516 L96,257.8516 " fill="#FEFFDD" style="stroke:#181818;stroke-width:0.5;"/><path d="M258,257.8516 L258,267.8516 L268,267.8516 L258,257.8516 " fill="#FEFFDD" style="stroke:#181818;stroke-width:0.5;"/><text fill="#000000" font-family="sans-serif" font-size="13" lengthAdjust="spacing" textLength="151" x="102" y="276.3467">R&#233;serv&#233; au r&#244;le v&#233;t&#233;rinaire</text><text fill="#000000" font-family="sans-serif" font-size="13" lengthAdjust="spacing" textLength="18" x="838.6861" y="99.0337">1,1</text><text fill="#000000" font-family="sans-serif" font-size="13" lengthAdjust="spacing" textLength="18" x="38.0914" y="342.5662">0,n</text></g><!--link UTILISATEUR to SERVICE_VETERINAIRE--><g id="link_UTILISATEUR_SERVICE_VETERINAIRE"><path codeLine="144" d="M864.32,107.21 C728.83,119.06 403.56,154.43 324,226 C288.3,258.12 273.02,310.73 266.55,353.14 " fill="none" id="UTILISATEUR-SERVICE_VETERINAIRE" style="stroke:#181818;stroke-width:1.0;"/><text fill="#000000" font-family="sans-serif" font-size="13" lengthAdjust="spacing" textLength="74" x="325" y="266.9951">PROPOSER</text><text fill="#000000" font-family="sans-serif" font-size="13" lengthAdjust="spacing" textLength="18" x="838.3789" y="122.3179">1,1</text><text fill="#000000" font-family="sans-serif" font-size="13" lengthAdjust="spacing" textLength="18" x="248.0911" y="342.7762">0,n</text></g><!--link UTILISATEUR to RENDEZ_VOUS--><g id="link_UTILISATEUR_RENDEZ_VOUS"><path codeLine="145" d="M864.27,108.59 C755.99,123.36 531.25,172.18 453,327 C446.77,339.32 416.91,500.08 398.26,602.71 " fill="none" id="UTILISATEUR-RENDEZ_VOUS" style="stroke:#181818;stroke-width:1.0;"/><text fill="#000000" font-family="sans-serif" font-size="13" lengthAdjust="spacing" textLength="74" x="454" y="426.9951">DEMANDER</text><text fill="#000000" font-family="sans-serif" font-size="13" lengthAdjust="spacing" textLength="18" x="838.3231" y="106.0074">1,1</text><text fill="#000000" font-family="sans-serif" font-size="13" lengthAdjust="spacing" textLength="18" x="380.798" y="592.1487">0,n</text></g><!--link UTILISATEUR to RENDEZ_VOUS--><g id="link_UTILISATEUR_RENDEZ_VOUS"><path codeLine="146" d="M864.33,109.58 C793.18,121.22 675.54,151.15 609,226 C520.47,325.58 595.41,398.28 533,516 C529.87,521.9 488.33,569.27 449.76,612.73 " fill="none" id="UTILISATEUR-RENDEZ_VOUS-1" style="stroke:#181818;stroke-width:1.0;"/><text fill="#000000" font-family="sans-serif" font-size="13" lengthAdjust="spacing" textLength="65" x="564" y="426.9951">HONORER</text><text fill="#000000" font-family="sans-serif" font-size="13" lengthAdjust="spacing" textLength="18" x="838.39" y="124.9619">1,1</text><text fill="#000000" font-family="sans-serif" font-size="13" lengthAdjust="spacing" textLength="18" x="457.5728" y="601.5908">0,n</text></g><!--link SERVICE_VETERINAIRE to RENDEZ_VOUS--><g id="link_SERVICE_VETERINAIRE_RENDEZ_VOUS"><path codeLine="147" d="M285.62,489.84 C294.48,513.56 305.07,540.23 316,564 C321.86,576.74 328.46,589.99 335.19,602.88 " fill="none" id="SERVICE_VETERINAIRE-RENDEZ_VOUS" style="stroke:#181818;stroke-width:1.0;"/><text fill="#000000" font-family="sans-serif" font-size="13" lengthAdjust="spacing" textLength="82" x="317" y="560.4951">CONCERNER</text><text fill="#000000" font-family="sans-serif" font-size="13" lengthAdjust="spacing" textLength="18" x="269.1277" y="511.2234">0,1</text><text fill="#000000" font-family="sans-serif" font-size="13" lengthAdjust="spacing" textLength="18" x="312.1304" y="592.0409">0,n</text></g><!--link UTILISATEUR to ANNONCE--><g id="link_UTILISATEUR_ANNONCE"><path codeLine="149" d="M864.43,108.12 C794.04,118.31 679.84,146.8 627,226 C609.49,252.25 616.61,267.2 627,297 C629.71,304.79 651.59,332.61 673.98,359.87 " fill="none" id="UTILISATEUR-ANNONCE" style="stroke:#181818;stroke-width:1.0;"/><text fill="#000000" font-family="sans-serif" font-size="13" lengthAdjust="spacing" textLength="55" x="720" y="240.4951">PUBLIER</text><path d="M632,249.3516 L632,291.3516 L863,291.3516 L863,259.3516 L853,249.3516 L632,249.3516 " fill="#FEFFDD" style="stroke:#181818;stroke-width:0.5;"/><path d="M853,249.3516 L853,259.3516 L863,259.3516 L853,249.3516 " fill="#FEFFDD" style="stroke:#181818;stroke-width:0.5;"/><text fill="#000000" font-family="sans-serif" font-size="13" lengthAdjust="spacing" textLength="192" x="638" y="267.8467">R&#244;le = &#233;leveur, vendeur_provende</text><text fill="#000000" font-family="sans-serif" font-size="13" lengthAdjust="spacing" textLength="210" x="638" y="284.1982">ou vendeur_accessoire (trigger SQL)</text><text fill="#000000" font-family="sans-serif" font-size="13" lengthAdjust="spacing" textLength="18" x="838.5129" y="105.03">1,1</text><text fill="#000000" font-family="sans-serif" font-size="13" lengthAdjust="spacing" textLength="18" x="647.9148" y="348.0406">0,n</text></g><!--link ANNONCE to REDUCTION_ANNONCE--><g id="link_ANNONCE_REDUCTION_ANNONCE"><path codeLine="154" d="M674,514.44 C652.85,552.56 628.96,595.64 610.3,629.28 " fill="none" id="ANNONCE-REDUCTION_ANNONCE" style="stroke:#181818;stroke-width:1.0;"/><text fill="#000000" font-family="sans-serif" font-size="13" lengthAdjust="spacing" textLength="50" x="657" y="560.4951">DEFINIR</text><text fill="#000000" font-family="sans-serif" font-size="13" lengthAdjust="spacing" textLength="18" x="647.9375" y="523.3809">1,1</text><text fill="#000000" font-family="sans-serif" font-size="13" lengthAdjust="spacing" textLength="18" x="595.1397" y="618.5774">0,n</text></g><!--link UTILISATEUR to COMMANDE--><g id="link_UTILISATEUR_COMMANDE"><path codeLine="156" d="M910.47,196.26 C893.53,310.51 864.41,496.63 845,564 C842.17,573.81 838.81,583.89 835.18,593.87 " fill="none" id="UTILISATEUR-COMMANDE" style="stroke:#181818;stroke-width:1.0;"/><text fill="#000000" font-family="sans-serif" font-size="13" lengthAdjust="spacing" textLength="54" x="891" y="426.9951">PASSER</text><text fill="#000000" font-family="sans-serif" font-size="13" lengthAdjust="spacing" textLength="18" x="890.8155" y="217.3191">1,1</text><text fill="#000000" font-family="sans-serif" font-size="13" lengthAdjust="spacing" textLength="18" x="819.7443" y="583.2058">0,n</text></g><!--link ANNONCE to COMMANDE--><g id="link_ANNONCE_COMMANDE"><path codeLine="157" d="M745.27,516.34 C748.99,532.29 752.97,548.65 757,564 C759.56,573.74 762.36,583.88 765.24,593.96 " fill="none" id="ANNONCE-COMMANDE" style="stroke:#181818;stroke-width:1.0;"/><text fill="#000000" font-family="sans-serif" font-size="13" lengthAdjust="spacing" textLength="82" x="758" y="560.4951">CONCERNER</text><text fill="#000000" font-family="sans-serif" font-size="13" lengthAdjust="spacing" textLength="18" x="728.0976" y="537.4049">1,1</text><text fill="#000000" font-family="sans-serif" font-size="13" lengthAdjust="spacing" textLength="18" x="744.231" y="583.3029">0,n</text></g><!--link COMMANDE to PAIEMENT--><g id="link_COMMANDE_PAIEMENT"><path codeLine="158" d="M705.78,762.74 C692.81,777.91 681.36,794.86 674,813 C656.79,855.42 654.3,874.68 674,916 C683.11,935.11 695.07,932.06 711,946 C720.61,954.41 730.56,963.43 740.3,972.43 " fill="none" id="COMMANDE-PAIEMENT" style="stroke:#181818;stroke-width:1.0;"/><text fill="#000000" font-family="sans-serif" font-size="13" lengthAdjust="spacing" textLength="64" x="675" y="869.9951">GENERER</text><text fill="#000000" font-family="sans-serif" font-size="13" lengthAdjust="spacing" textLength="18" x="680.0328" y="765.5326">1,1</text><text fill="#000000" font-family="sans-serif" font-size="13" lengthAdjust="spacing" textLength="18" x="713.6922" y="961.6216">0,1</text></g><!--link COMMANDE to LIVRAISON--><g id="link_COMMANDE_LIVRAISON"><path codeLine="159" d="M761.45,783.18 C752.18,827.69 751.24,879.1 780,916 C813.52,959.02 849.76,922.54 899,946 C914.05,953.17 929.08,962.29 943.23,972.01 " fill="none" id="COMMANDE-LIVRAISON" style="stroke:#181818;stroke-width:1.0;"/><text fill="#000000" font-family="sans-serif" font-size="13" lengthAdjust="spacing" textLength="67" x="868" y="827.4951">PRODUIRE</text><path d="M785,836.3516 L785,911.3516 L1018,911.3516 L1018,846.3516 L1008,836.3516 L785,836.3516 " fill="#FEFFDD" style="stroke:#181818;stroke-width:0.5;"/><path d="M1008,836.3516 L1008,846.3516 L1018,846.3516 L1008,836.3516 " fill="#FEFFDD" style="stroke:#181818;stroke-width:0.5;"/><text fill="#000000" font-family="sans-serif" font-size="13" lengthAdjust="spacing" textLength="212" x="791" y="854.8467">Livraison optionnelle : l'acheteur peut</text><text fill="#000000" font-family="sans-serif" font-size="13" lengthAdjust="spacing" textLength="186" x="791" y="871.1982">choisir le retrait direct aupr&#232;s du</text><text fill="#000000" font-family="sans-serif" font-size="13" lengthAdjust="spacing" textLength="211" x="791" y="887.5498">fournisseur, auquel cas aucune ligne</text><text fill="#000000" font-family="sans-serif" font-size="13" lengthAdjust="spacing" textLength="135" x="791" y="903.9014">LIVRAISON n'est cr&#233;&#233;e</text><text fill="#000000" font-family="sans-serif" font-size="13" lengthAdjust="spacing" textLength="18" x="740.3987" y="804.2332">1,1</text><text fill="#000000" font-family="sans-serif" font-size="13" lengthAdjust="spacing" textLength="18" x="917.5154" y="962.9522">0,1</text></g><!--link UTILISATEUR to LIVRAISON--><g id="link_UTILISATEUR_LIVRAISON"><path codeLine="167" d="M941.99,196.27 C966.99,331.77 1010.95,590.47 1027,813 C1030.14,856.54 1029.99,904.9 1028.82,945.73 " fill="none" id="UTILISATEUR-LIVRAISON" style="stroke:#181818;stroke-width:1.0;"/><text fill="#000000" font-family="sans-serif" font-size="13" lengthAdjust="spacing" textLength="63" x="1002" y="560.4951">ASSURER</text><text fill="#000000" font-family="sans-serif" font-size="13" lengthAdjust="spacing" textLength="18" x="924.6502" y="217.3298">0,1</text><text fill="#000000" font-family="sans-serif" font-size="13" lengthAdjust="spacing" textLength="18" x="1010.4869" y="935.0546">0,n</text></g><!--link UTILISATEUR to PLANNING_LIVREUR--><g id="link_UTILISATEUR_PLANNING_LIVREUR"><path codeLine="168" d="M983.68,195.93 C989.93,206.04 996.14,216.21 1002,226 C1029.08,271.28 1058.43,323.34 1080,362.2 " fill="none" id="UTILISATEUR-PLANNING_LIVREUR" style="stroke:#181818;stroke-width:1.0;"/><text fill="#000000" font-family="sans-serif" font-size="13" lengthAdjust="spacing" textLength="50" x="1044" y="266.9951">DEFINIR</text><text fill="#000000" font-family="sans-serif" font-size="13" lengthAdjust="spacing" textLength="18" x="969.5602" y="217.2857">1,1</text><text fill="#000000" font-family="sans-serif" font-size="13" lengthAdjust="spacing" textLength="18" x="1057.0031" y="351.4877">0,n</text></g><!--link UTILISATEUR to REDUCTION_LIVRAISON--><g id="link_UTILISATEUR_REDUCTION_LIVRAISON"><path codeLine="169" d="M983.67,141.16 C1019.07,164.71 1064.43,195.96 1103,226 C1158.79,269.45 1218.94,322.58 1262.54,362.32 " fill="none" id="UTILISATEUR-REDUCTION_LIVRAISON" style="stroke:#181818;stroke-width:1.0;"/><text fill="#000000" font-family="sans-serif" font-size="13" lengthAdjust="spacing" textLength="50" x="1186" y="266.9951">DEFINIR</text><text fill="#000000" font-family="sans-serif" font-size="13" lengthAdjust="spacing" textLength="18" x="991.61" y="142.3434">1,1</text><text fill="#000000" font-family="sans-serif" font-size="13" lengthAdjust="spacing" textLength="18" x="1235.8308" y="351.6223">0,n</text></g><!--link PAIEMENT to VERSEMENT--><g id="link_PAIEMENT_VERSEMENT"><path codeLine="171" d="M810,1108.57 C810,1141.09 810,1180.05 810,1212.61 " fill="none" id="PAIEMENT-VERSEMENT" style="stroke:#181818;stroke-width:1.0;"/><text fill="#000000" font-family="sans-serif" font-size="13" lengthAdjust="spacing" textLength="64" x="811" y="1179.4951">GENERER</text><text fill="#000000" font-family="sans-serif" font-size="13" lengthAdjust="spacing" textLength="18" x="791.0719" y="1129.9255">1,1</text><text fill="#000000" font-family="sans-serif" font-size="13" lengthAdjust="spacing" textLength="18" x="791.0719" y="1202.2431">0,n</text></g><!--link COMMANDE to VERSEMENT--><g id="link_COMMANDE_VERSEMENT"><path codeLine="172" d="M705.88,767.4 C699.84,772.69 693.83,777.93 688,783 C672.54,796.44 662.73,794.97 653,813 C584.97,939.13 575.21,1005.22 636,1135 C656.35,1178.44 696.82,1213.41 733.61,1238.12 " fill="none" id="COMMANDE-VERSEMENT" style="stroke:#181818;stroke-width:1.0;"/><text fill="#000000" font-family="sans-serif" font-size="13" lengthAdjust="spacing" textLength="82" x="637" y="1045.9951">CONCERNER</text><text fill="#000000" font-family="sans-serif" font-size="13" lengthAdjust="spacing" textLength="18" x="680.1408" y="787.8389">1,1</text><text fill="#000000" font-family="sans-serif" font-size="13" lengthAdjust="spacing" textLength="18" x="708.005" y="1231.0972">0,n</text></g><!--link UTILISATEUR to VERSEMENT--><g id="link_UTILISATEUR_VERSEMENT"><path codeLine="173" d="M983.64,108.78 C1126.03,127.41 1474,195.91 1474,420.5 C1474,420.5 1474,420.5 1474,1041.5 C1474,1165.21 1060.58,1242.19 886.17,1269.15 " fill="none" id="UTILISATEUR-VERSEMENT" style="stroke:#181818;stroke-width:1.0;"/><text fill="#000000" font-family="sans-serif" font-size="13" lengthAdjust="spacing" textLength="77" x="1475" y="693.9951">BENEFICIER</text><text fill="#000000" font-family="sans-serif" font-size="13" lengthAdjust="spacing" textLength="18" x="991.5765" y="106.2194">1,1</text><text fill="#000000" font-family="sans-serif" font-size="13" lengthAdjust="spacing" textLength="18" x="894.0216" y="1264.8292">0,n</text></g><!--link UTILISATEUR to NOTIFICATION--><g id="link_UTILISATEUR_NOTIFICATION"><path codeLine="175" d="M983.63,108.55 C1114.19,122.86 1420.08,162.39 1500,226 C1542.59,259.89 1566.2,318.39 1578.62,362.4 " fill="none" id="UTILISATEUR-NOTIFICATION" style="stroke:#181818;stroke-width:1.0;"/><text fill="#000000" font-family="sans-serif" font-size="13" lengthAdjust="spacing" textLength="67" x="1554" y="266.9951">RECEVOIR</text><text fill="#000000" font-family="sans-serif" font-size="13" lengthAdjust="spacing" textLength="18" x="991.5653" y="123.8128">1,1</text><text fill="#000000" font-family="sans-serif" font-size="13" lengthAdjust="spacing" textLength="18" x="1558.0143" y="351.7121">0,n</text></g><!--link UTILISATEUR to ACTUALITE--><g id="link_UTILISATEUR_ACTUALITE"><path codeLine="176" d="M983.53,106.62 C1133.89,118.01 1524.49,153.92 1630,226 C1677.78,258.64 1709.52,317.62 1727.93,362.1 " fill="none" id="UTILISATEUR-ACTUALITE" style="stroke:#181818;stroke-width:1.0;"/><text fill="#000000" font-family="sans-serif" font-size="13" lengthAdjust="spacing" textLength="96" x="1732.5" y="240.4951">PUBLIER_ACTU</text><path d="M1697,249.3516 L1697,291.3516 L1864,291.3516 L1864,259.3516 L1854,249.3516 L1697,249.3516 " fill="#FEFFDD" style="stroke:#181818;stroke-width:0.5;"/><path d="M1854,249.3516 L1854,259.3516 L1864,259.3516 L1854,249.3516 " fill="#FEFFDD" style="stroke:#181818;stroke-width:0.5;"/><text fill="#000000" font-family="sans-serif" font-size="13" lengthAdjust="spacing" textLength="93" x="1703" y="267.8467">R&#244;le &#8800; acheteur</text><text fill="#000000" font-family="sans-serif" font-size="13" lengthAdjust="spacing" textLength="146" x="1703" y="284.1982">(contr&#244;l&#233; par trigger SQL)</text><text fill="#000000" font-family="sans-serif" font-size="13" lengthAdjust="spacing" textLength="18" x="991.4538" y="103.8097">1,1</text><text fill="#000000" font-family="sans-serif" font-size="13" lengthAdjust="spacing" textLength="18" x="1706.5688" y="351.797">0,n</text></g><!--SRC=[hLRDRkCs4BxdAGXVuXHEqGLwCj23usYt0cmfbNyElGYCD7QubIWjVum4HHzWtsAFwtlVm6_I9-cGiaJAzdfHe9UOcipCD_Dn-96tP5xbXwy5a80hfWxx-mGAgbZ5oN0-VHoHJILAMZ1P0fc3O1Bko3qHK8l3NWB700ASy4hPc9jRybHGhbRp6Hba1PLoGEWECeAhAcFMHn9G9ACYPnppOW9vJ4o6hwEtEqmnPv8Slf2FbHP4Ge6bO7aoUpdiIqfsFvCXur89dTbiFwfNTNTp0wRwDx9QXhDmCLa6guJyUKF83uJbgLOC6w0Aj43J_Jt-uLM9Vsi1pG9AoWhy5LK1-2En6wrmOPXGEZSsB6FRhF_gq2OFSHG5yo1QEZ3wN74E9NgqM8P1RVFcM4EQmxFDRJ_WjMQYeQw3TVaNGR8Efq6w3fP14aQJC0aSa0InOncqA1WWm3FMWhqQCvIrJ9MWJBL5DJ2TguDBWkWn-3rTnwk5Wn7vheMG-YFOoa5cWjN7gcqVoEHEzwZ3aO0qArY3INTCjbyUVr4KHrEl9yfvnRsUtchmRBR5OskfvanHPhy_QMhozU3BIh5DAg2f6D3SQ_HnDLs6SPIULI0WRmQhhQ5DdfQCzpwfeRV66SqmAzs25-gGfl5yFa5M7K1MbINbEPpclz1NMM5YhbA5fyjEPmkGIYtyHAqZ1-MREpAoAaSUjNenLMK6p5NuD0bF9hYch3U_5ZxT0WTXooYhD-0unhvZusEmcPJ-D3id1paBryaaNCIHmopO3aTKEjffBa1AI3T8CCUSpTbjhTrS-PtxERhMToWj6vRP8zQde3UYlM1lM3sxHzaCnoQCFgIcaPxIr2X-dF5jsyNvWT_OASgPh2lEdWkuE9KN2FgVvt8T98kJRKUcP7_VpUbxncr7_jZ9I5fduG-37txSUcTom56y3D-7qudfqs5pSrgFkzJ2PmW5N1yBCGgiVUcOBbUJMRZqnIDJsjmeVKdiPMgqIZyNBHOczA-CmRlHkm46ay5F8pxmzNrC5YYBqmGb-CRC3J6t4kD_ODB4t8HYXpSXrKGS_iRB2Z_mOXDumndQWETsrgv1NPBwCNbAugSO_tKjqbVjCNaChDxyXuXVuoXECE1I1UZ_xS2fKSuamj2h71uL5fjPFSn2z3wZpp3s2pdi2zZXCH_XcKNzGeMhHMMNw5Jfpagp33MWGcB9K0cstO8WYzzcTuxc5lAixLFLDtIz3wFmUWUTXcCBauNPZMy0U8wEcyxeE-EYqzqn-H2WunLN9mTs8XvN5uPmrkeKgUp5pA50LiUakANP2vYd3wcXkGnUAYQPC6yg0VPXW78a85CullYg-of9hkshfHFU4VxdauO2NsqIbvdcWB1RRZR6rSPlGUB33j-5Xxqtytrc-_FaDuRChfBhStkcksx_haxxkQnw6z_jmqcOKyZlRD29hzlvApNv0G-O71Kn_CuvwWdd6BkQ1kluUkTE8xl3bnhRvHFup-Slf9qLD0wDQXerGrshgI0NZzg_]--></g></svg>