<?xml version="1.0" encoding="us-ascii" standalone="no"?><svg xmlns="http://www.w3.org/2000/svg" xmlns:xlink="http://www.w3.org/1999/xlink" contentStyleType="text/css" height="2173.125px" preserveAspectRatio="none" style="width:2341px;height:2173px;background:#FFFFFF;" version="1.1" viewBox="0 0 2341 2173" width="2341.875px" zoomAndPan="magnify"><defs/><g><text fill="#17324D" font-family="sans-serif" font-size="37.5" font-weight="bold" lengthAdjust="spacing" textLength="709.9219" x="802.8516" y="57.6782">Sch&#233;ma relationnel &#8212; tables principales</text><!--cluster Utilisateurs--><g id="cluster_Utilisateurs"><path d="M1340.625,97.793 L1479.375,97.793 A16.875,16.875 0 0 1 1490.625,109.043 L1503.75,142.0605 L1648.125,142.0605 A11.25,11.25 0 0 1 1659.375,153.3105 L1659.375,401.543 A11.25,11.25 0 0 1 1648.125,412.793 L1340.625,412.793 A11.25,11.25 0 0 1 1329.375,401.543 L1329.375,109.043 A11.25,11.25 0 0 1 1340.625,97.793 " fill="#F4FAF6" style="stroke:#9CB4C1;stroke-width:2.8125;"/><line style="stroke:#9CB4C1;stroke-width:2.8125;" x1="1329.375" x2="1503.75" y1="142.0605" y2="142.0605"/><text fill="#000000" font-family="sans-serif" font-size="26.25" font-weight="bold" lengthAdjust="spacing" textLength="150" x="1336.875" y="128.7927">Utilisateurs</text></g><!--cluster Catalogue--><g id="cluster_Catalogue"><path d="M22.5,457.793 L144.375,457.793 A16.875,16.875 0 0 1 155.625,469.043 L168.75,502.0605 L423.75,502.0605 A11.25,11.25 0 0 1 435,513.3105 L435,1172.168 A11.25,11.25 0 0 1 423.75,1183.418 L22.5,1183.418 A11.25,11.25 0 0 1 11.25,1172.168 L11.25,469.043 A11.25,11.25 0 0 1 22.5,457.793 " fill="#F4FAF6" style="stroke:#9CB4C1;stroke-width:2.8125;"/><line style="stroke:#9CB4C1;stroke-width:2.8125;" x1="11.25" x2="168.75" y1="502.0605" y2="502.0605"/><text fill="#000000" font-family="sans-serif" font-size="26.25" font-weight="bold" lengthAdjust="spacing" textLength="133.125" x="18.75" y="488.7927">Catalogue</text></g><!--cluster Vente & livraison--><g id="cluster_Vente &amp; livraison"><path d="M491.25,834.668 L705,834.668 A16.875,16.875 0 0 1 716.25,845.918 L729.375,878.9355 L1216.875,878.9355 A11.25,11.25 0 0 1 1228.125,890.1855 L1228.125,1933.418 A11.25,11.25 0 0 1 1216.875,1944.668 L491.25,1944.668 A11.25,11.25 0 0 1 480,1933.418 L480,845.918 A11.25,11.25 0 0 1 491.25,834.668 " fill="#F4FAF6" style="stroke:#9CB4C1;stroke-width:2.8125;"/><line style="stroke:#9CB4C1;stroke-width:2.8125;" x1="480" x2="729.375" y1="878.9355" y2="878.9355"/><text fill="#000000" font-family="sans-serif" font-size="26.25" font-weight="bold" lengthAdjust="spacing" textLength="225" x="487.5" y="865.6677">Vente &amp; livraison</text></g><!--cluster Services v?t?rinaires--><g id="cluster_Services v&#233;t&#233;rinaires"><path d="M1284.375,474.668 L1558.125,474.668 A16.875,16.875 0 0 1 1569.375,485.918 L1582.5,518.9355 L1704.375,518.9355 A11.25,11.25 0 0 1 1715.625,530.1855 L1715.625,1189.043 A11.25,11.25 0 0 1 1704.375,1200.293 L1284.375,1200.293 A11.25,11.25 0 0 1 1273.125,1189.043 L1273.125,485.918 A11.25,11.25 0 0 1 1284.375,474.668 " fill="#F4FAF6" style="stroke:#9CB4C1;stroke-width:2.8125;"/><line style="stroke:#9CB4C1;stroke-width:2.8125;" x1="1273.125" x2="1582.5" y1="518.9355" y2="518.9355"/><text fill="#000000" font-family="sans-serif" font-size="26.25" font-weight="bold" lengthAdjust="spacing" textLength="285" x="1280.625" y="505.6677">Services v&#233;t&#233;rinaires</text></g><!--cluster Communication--><g id="cluster_Communication"><path d="M1998.75,474.668 L2190,474.668 A16.875,16.875 0 0 1 2201.25,485.918 L2214.375,518.9355 L2317.5,518.9355 A11.25,11.25 0 0 1 2328.75,530.1855 L2328.75,778.418 A11.25,11.25 0 0 1 2317.5,789.668 L1998.75,789.668 A11.25,11.25 0 0 1 1987.5,778.418 L1987.5,485.918 A11.25,11.25 0 0 1 1998.75,474.668 " fill="#F4FAF6" style="stroke:#9CB4C1;stroke-width:2.8125;"/><line style="stroke:#9CB4C1;stroke-width:2.8125;" x1="1987.5" x2="2214.375" y1="518.9355" y2="518.9355"/><text fill="#000000" font-family="sans-serif" font-size="26.25" font-weight="bold" lengthAdjust="spacing" textLength="202.5" x="1995" y="505.6677">Communication</text></g><!--class USER--><g id="elem_USER"><rect codeLine="55" fill="#FFFFFF" height="218.3203" id="USER" rx="11.25" ry="11.25" style="stroke:#2F7D5B;stroke-width:0.9375;" width="268.125" x="1360.3125" y="165.293"/><rect fill="#E4F3EA" height="56.25" rx="11.25" ry="11.25" style="stroke:#E4F3EA;stroke-width:0.9375;" width="268.125" x="1360.3125" y="165.293"/><rect fill="#E4F3EA" height="11.25" style="stroke:#E4F3EA;stroke-width:0.9375;" width="268.125" x="1360.3125" y="210.293"/><rect codeLine="55" fill="none" height="218.3203" id="USER" rx="11.25" ry="11.25" style="stroke:#2F7D5B;stroke-width:0.9375;" width="268.125" x="1360.3125" y="165.293"/><ellipse cx="1400.9063" cy="193.418" fill="#ADD1B2" rx="18.75" ry="18.75" style="stroke:#181818;stroke-width:1.875;"/><path d="M1399.5293,194.4434 L1399.5293,198.2813 L1406.2383,198.2813 L1406.2383,196.875 Q1406.2383,195.9082 1406.5898,195.5273 Q1406.9707,195.1172 1407.5566,195.1172 Q1408.1133,195.1172 1408.4648,195.5273 Q1408.8457,195.9082 1408.8457,196.875 L1408.8457,200.918 L1396.4824,200.918 Q1395.5449,200.918 1395.1348,200.5664 Q1394.7246,200.1855 1394.7246,199.5996 Q1394.7246,199.0137 1395.1348,198.6621 Q1395.5449,198.2813 1396.4824,198.2813 L1396.8926,198.2813 L1396.8926,187.998 L1396.4824,187.998 Q1395.5449,187.998 1395.1348,187.6465 Q1394.7246,187.2656 1394.7246,186.6797 Q1394.7246,186.0938 1395.1348,185.7422 Q1395.5449,185.3613 1396.4824,185.3613 L1408.2891,185.3906 L1408.2891,189.375 Q1408.2891,190.3125 1407.9082,190.7227 Q1407.5566,191.1328 1406.9707,191.1328 Q1406.3848,191.1328 1406.0039,190.752 Q1405.6523,190.3418 1405.6523,189.375 L1405.6523,187.998 L1399.5293,187.998 L1399.5293,191.8066 L1401.8438,191.8066 Q1401.8438,190.7813 1402.0195,190.4883 Q1402.4297,189.8438 1403.1621,189.8438 Q1403.7188,189.8438 1404.0703,190.2539 Q1404.4512,190.6641 1404.4512,191.6016 L1404.4512,194.6484 Q1404.4512,195.498 1404.2461,195.791 Q1403.8359,196.4063 1403.1621,196.4063 Q1402.4297,196.4063 1402.0195,195.7617 Q1401.8438,195.4688 1401.8438,194.4434 L1399.5293,194.4434 Z " fill="#000000"/><text fill="#17324D" font-family="sans-serif" font-size="26.25" lengthAdjust="spacing" textLength="180" x="1428.4688" y="204.1589">UTILISATEURS</text><line style="stroke:#2F7D5B;stroke-width:0.9375;" x1="1362.1875" x2="1626.5625" y1="221.543" y2="221.543"/><ellipse cx="1380.9375" cy="248.3643" fill="#000000" rx="5.625" ry="5.625" style="stroke:#000000;stroke-width:1.875;"/><text fill="#000000" font-family="sans-serif" font-size="26.25" lengthAdjust="spacing" textLength="221.25" x="1395.9375" y="256.2927">id_utilisateur &#171;PK&#187;</text><line style="stroke:#2F7D5B;stroke-width:1.875;" x1="1362.1875" x2="1626.5625" y1="269.5605" y2="269.5605"/><text fill="#000000" font-family="sans-serif" font-size="26.25" lengthAdjust="spacing" textLength="136.875" x="1371.5625" y="304.3103">email &#171;UQ&#187;</text><text fill="#000000" font-family="sans-serif" font-size="26.25" lengthAdjust="spacing" textLength="45" x="1371.5625" y="337.3279">role</text><text fill="#000000" font-family="sans-serif" font-size="26.25" lengthAdjust="spacing" textLength="65.625" x="1371.5625" y="370.3455">statut</text></g><!--class ANN--><g id="elem_ANN"><rect codeLine="65" fill="#FFFFFF" height="251.3379" id="ANN" rx="11.25" ry="11.25" style="stroke:#2F7D5B;stroke-width:0.9375;" width="256.875" x="147.1875" y="525.293"/><rect fill="#E4F3EA" height="56.25" rx="11.25" ry="11.25" style="stroke:#E4F3EA;stroke-width:0.9375;" width="256.875" x="147.1875" y="525.293"/><rect fill="#E4F3EA" height="11.25" style="stroke:#E4F3EA;stroke-width:0.9375;" width="256.875" x="147.1875" y="570.293"/><rect codeLine="65" fill="none" height="251.3379" id="ANN" rx="11.25" ry="11.25" style="stroke:#2F7D5B;stroke-width:0.9375;" width="256.875" x="147.1875" y="525.293"/><ellipse cx="200.4375" cy="553.418" fill="#ADD1B2" rx="18.75" ry="18.75" style="stroke:#181818;stroke-width:1.875;"/><path d="M199.0605,554.4434 L199.0605,558.2813 L205.7695,558.2813 L205.7695,556.875 Q205.7695,555.9082 206.1211,555.5273 Q206.502,555.1172 207.0879,555.1172 Q207.6445,555.1172 207.9961,555.5273 Q208.377,555.9082 208.377,556.875 L208.377,560.918 L196.0137,560.918 Q195.0762,560.918 194.666,560.5664 Q194.2559,560.1855 194.2559,559.5996 Q194.2559,559.0137 194.666,558.6621 Q195.0762,558.2813 196.0137,558.2813 L196.4238,558.2813 L196.4238,547.998 L196.0137,547.998 Q195.0762,547.998 194.666,547.6465 Q194.2559,547.2656 194.2559,546.6797 Q194.2559,546.0938 194.666,545.7422 Q195.0762,545.3613 196.0137,545.3613 L207.8203,545.3906 L207.8203,549.375 Q207.8203,550.3125 207.4395,550.7227 Q207.0879,551.1328 206.502,551.1328 Q205.916,551.1328 205.5352,550.752 Q205.1836,550.3418 205.1836,549.375 L205.1836,547.998 L199.0605,547.998 L199.0605,551.8066 L201.375,551.8066 Q201.375,550.7813 201.5508,550.4883 Q201.9609,549.8438 202.6934,549.8438 Q203.25,549.8438 203.6016,550.2539 Q203.9824,550.6641 203.9824,551.6016 L203.9824,554.6484 Q203.9824,555.498 203.7773,555.791 Q203.3672,556.4063 202.6934,556.4063 Q201.9609,556.4063 201.5508,555.7617 Q201.375,555.4688 201.375,554.4434 L199.0605,554.4434 Z " fill="#000000"/><text fill="#17324D" font-family="sans-serif" font-size="26.25" lengthAdjust="spacing" textLength="140.625" x="230.8125" y="564.1589">ANNONCES</text><line style="stroke:#2F7D5B;stroke-width:0.9375;" x1="149.0625" x2="402.1875" y1="581.543" y2="581.543"/><ellipse cx="167.8125" cy="608.3643" fill="#000000" rx="5.625" ry="5.625" style="stroke:#000000;stroke-width:1.875;"/><text fill="#000000" font-family="sans-serif" font-size="26.25" lengthAdjust="spacing" textLength="210" x="182.8125" y="616.2927">id_annonce &#171;PK&#187;</text><line style="stroke:#2F7D5B;stroke-width:1.875;" x1="149.0625" x2="402.1875" y1="629.5605" y2="629.5605"/><text fill="#000000" font-family="sans-serif" font-size="26.25" lengthAdjust="spacing" textLength="221.25" x="158.4375" y="664.3103">id_utilisateur &#171;FK&#187;</text><text fill="#000000" font-family="sans-serif" font-size="26.25" lengthAdjust="spacing" textLength="144.375" x="158.4375" y="697.3279">prix_unitaire</text><text fill="#000000" font-family="sans-serif" font-size="26.25" lengthAdjust="spacing" textLength="95.625" x="158.4375" y="730.3455">quantite</text><text fill="#000000" font-family="sans-serif" font-size="26.25" lengthAdjust="spacing" textLength="65.625" x="158.4375" y="763.363">statut</text></g><!--class RED--><g id="elem_RED"><rect codeLine="73" fill="#FFFFFF" height="218.3203" id="RED" rx="11.25" ry="11.25" style="stroke:#2F7D5B;stroke-width:0.9375;" width="361.875" x="42.1875" y="935.918"/><rect fill="#E4F3EA" height="56.25" rx="11.25" ry="11.25" style="stroke:#E4F3EA;stroke-width:0.9375;" width="361.875" x="42.1875" y="935.918"/><rect fill="#E4F3EA" height="11.25" style="stroke:#E4F3EA;stroke-width:0.9375;" width="361.875" x="42.1875" y="980.918"/><rect codeLine="73" fill="none" height="218.3203" id="RED" rx="11.25" ry="11.25" style="stroke:#2F7D5B;stroke-width:0.9375;" width="361.875" x="42.1875" y="935.918"/><ellipse cx="68.4375" cy="964.043" fill="#ADD1B2" rx="18.75" ry="18.75" style="stroke:#181818;stroke-width:1.875;"/><path d="M67.0605,965.0684 L67.0605,968.9063 L73.7695,968.9063 L73.7695,967.5 Q73.7695,966.5332 74.1211,966.1523 Q74.502,965.7422 75.0879,965.7422 Q75.6445,965.7422 75.9961,966.1523 Q76.377,966.5332 76.377,967.5 L76.377,971.543 L64.0137,971.543 Q63.0762,971.543 62.666,971.1914 Q62.2559,970.8105 62.2559,970.2246 Q62.2559,969.6387 62.666,969.2871 Q63.0762,968.9063 64.0137,968.9063 L64.4238,968.9063 L64.4238,958.623 L64.0137,958.623 Q63.0762,958.623 62.666,958.2715 Q62.2559,957.8906 62.2559,957.3047 Q62.2559,956.7188 62.666,956.3672 Q63.0762,955.9863 64.0137,955.9863 L75.8203,956.0156 L75.8203,960 Q75.8203,960.9375 75.4395,961.3477 Q75.0879,961.7578 74.502,961.7578 Q73.916,961.7578 73.5352,961.377 Q73.1836,960.9668 73.1836,960 L73.1836,958.623 L67.0605,958.623 L67.0605,962.4316 L69.375,962.4316 Q69.375,961.4063 69.5508,961.1133 Q69.9609,960.4688 70.6934,960.4688 Q71.25,960.4688 71.6016,960.8789 Q71.9824,961.2891 71.9824,962.2266 L71.9824,965.2734 Q71.9824,966.123 71.7773,966.416 Q71.3672,967.0313 70.6934,967.0313 Q69.9609,967.0313 69.5508,966.3867 Q69.375,966.0938 69.375,965.0684 L67.0605,965.0684 Z " fill="#000000"/><text fill="#17324D" font-family="sans-serif" font-size="26.25" lengthAdjust="spacing" textLength="305.625" x="92.8125" y="974.7839">REDUCTIONS_ANNONCE</text><line style="stroke:#2F7D5B;stroke-width:0.9375;" x1="44.0625" x2="402.1875" y1="992.168" y2="992.168"/><ellipse cx="62.8125" cy="1018.9893" fill="#000000" rx="5.625" ry="5.625" style="stroke:#000000;stroke-width:1.875;"/><text fill="#000000" font-family="sans-serif" font-size="26.25" lengthAdjust="spacing" textLength="217.5" x="77.8125" y="1026.9177">id_reduction &#171;PK&#187;</text><line style="stroke:#2F7D5B;stroke-width:1.875;" x1="44.0625" x2="402.1875" y1="1040.1855" y2="1040.1855"/><text fill="#000000" font-family="sans-serif" font-size="26.25" lengthAdjust="spacing" textLength="210" x="53.4375" y="1074.9353">id_annonce &#171;FK&#187;</text><text fill="#000000" font-family="sans-serif" font-size="26.25" lengthAdjust="spacing" textLength="151.875" x="53.4375" y="1107.9529">quantite_min</text><text fill="#000000" font-family="sans-serif" font-size="26.25" lengthAdjust="spacing" textLength="150" x="53.4375" y="1140.9705">pourcentage</text></g><!--class CMD--><g id="elem_CMD"><rect codeLine="83" fill="#FFFFFF" height="284.3555" id="CMD" rx="11.25" ry="11.25" style="stroke:#2F7D5B;stroke-width:0.9375;" width="283.125" x="584.0625" y="902.168"/><rect fill="#E4F3EA" height="56.25" rx="11.25" ry="11.25" style="stroke:#E4F3EA;stroke-width:0.9375;" width="283.125" x="584.0625" y="902.168"/><rect fill="#E4F3EA" height="11.25" style="stroke:#E4F3EA;stroke-width:0.9375;" width="283.125" x="584.0625" y="947.168"/><rect codeLine="83" fill="none" height="284.3555" id="CMD" rx="11.25" ry="11.25" style="stroke:#2F7D5B;stroke-width:0.9375;" width="283.125" x="584.0625" y="902.168"/><ellipse cx="637.3125" cy="930.293" fill="#ADD1B2" rx="18.75" ry="18.75" style="stroke:#181818;stroke-width:1.875;"/><path d="M635.9355,931.3184 L635.9355,935.1563 L642.6445,935.1563 L642.6445,933.75 Q642.6445,932.7832 642.9961,932.4023 Q643.377,931.9922 643.9629,931.9922 Q644.5195,931.9922 644.8711,932.4023 Q645.252,932.7832 645.252,933.75 L645.252,937.793 L632.8887,937.793 Q631.9512,937.793 631.541,937.4414 Q631.1309,937.0605 631.1309,936.4746 Q631.1309,935.8887 631.541,935.5371 Q631.9512,935.1563 632.8887,935.1563 L633.2988,935.1563 L633.2988,924.873 L632.8887,924.873 Q631.9512,924.873 631.541,924.5215 Q631.1309,924.1406 631.1309,923.5547 Q631.1309,922.9688 631.541,922.6172 Q631.9512,922.2363 632.8887,922.2363 L644.6953,922.2656 L644.6953,926.25 Q644.6953,927.1875 644.3145,927.5977 Q643.9629,928.0078 643.377,928.0078 Q642.791,928.0078 642.4102,927.627 Q642.0586,927.2168 642.0586,926.25 L642.0586,924.873 L635.9355,924.873 L635.9355,928.6816 L638.25,928.6816 Q638.25,927.6563 638.4258,927.3633 Q638.8359,926.7188 639.5684,926.7188 Q640.125,926.7188 640.4766,927.1289 Q640.8574,927.5391 640.8574,928.4766 L640.8574,931.5234 Q640.8574,932.373 640.6523,932.666 Q640.2422,933.2813 639.5684,933.2813 Q638.8359,933.2813 638.4258,932.6367 Q638.25,932.3438 638.25,931.3184 L635.9355,931.3184 Z " fill="#000000"/><text fill="#17324D" font-family="sans-serif" font-size="26.25" lengthAdjust="spacing" textLength="166.875" x="667.6875" y="941.0339">COMMANDES</text><line style="stroke:#2F7D5B;stroke-width:0.9375;" x1="585.9375" x2="865.3125" y1="958.418" y2="958.418"/><ellipse cx="604.6875" cy="985.2393" fill="#000000" rx="5.625" ry="5.625" style="stroke:#000000;stroke-width:1.875;"/><text fill="#000000" font-family="sans-serif" font-size="26.25" lengthAdjust="spacing" textLength="236.25" x="619.6875" y="993.1677">id_commande &#171;PK&#187;</text><line style="stroke:#2F7D5B;stroke-width:1.875;" x1="585.9375" x2="865.3125" y1="1006.4355" y2="1006.4355"/><text fill="#000000" font-family="sans-serif" font-size="26.25" lengthAdjust="spacing" textLength="210" x="595.3125" y="1041.1853">id_annonce &#171;FK&#187;</text><text fill="#000000" font-family="sans-serif" font-size="26.25" lengthAdjust="spacing" textLength="211.875" x="595.3125" y="1074.2029">id_acheteur &#171;FK&#187;</text><text fill="#000000" font-family="sans-serif" font-size="26.25" lengthAdjust="spacing" textLength="148.125" x="595.3125" y="1107.2205">montant_net</text><text fill="#000000" font-family="sans-serif" font-size="26.25" lengthAdjust="spacing" textLength="150" x="595.3125" y="1140.238">mode_retrait</text><text fill="#000000" font-family="sans-serif" font-size="26.25" lengthAdjust="spacing" textLength="65.625" x="595.3125" y="1173.2556">statut</text></g><!--class PAY--><g id="elem_PAY"><rect codeLine="92" fill="#FFFFFF" height="218.3203" id="PAY" rx="11.25" ry="11.25" style="stroke:#2F7D5B;stroke-width:0.9375;" width="311.25" x="510" y="1316.543"/><rect fill="#E4F3EA" height="56.25" rx="11.25" ry="11.25" style="stroke:#E4F3EA;stroke-width:0.9375;" width="311.25" x="510" y="1316.543"/><rect fill="#E4F3EA" height="11.25" style="stroke:#E4F3EA;stroke-width:0.9375;" width="311.25" x="510" y="1361.543"/><rect codeLine="92" fill="none" height="218.3203" id="PAY" rx="11.25" ry="11.25" style="stroke:#2F7D5B;stroke-width:0.9375;" width="311.25" x="510" y="1316.543"/><ellipse cx="586.0313" cy="1344.668" fill="#ADD1B2" rx="18.75" ry="18.75" style="stroke:#181818;stroke-width:1.875;"/><path d="M584.6543,1345.6934 L584.6543,1349.5313 L591.3633,1349.5313 L591.3633,1348.125 Q591.3633,1347.1582 591.7148,1346.7773 Q592.0957,1346.3672 592.6816,1346.3672 Q593.2383,1346.3672 593.5898,1346.7773 Q593.9707,1347.1582 593.9707,1348.125 L593.9707,1352.168 L581.6074,1352.168 Q580.6699,1352.168 580.2598,1351.8164 Q579.8496,1351.4355 579.8496,1350.8496 Q579.8496,1350.2637 580.2598,1349.9121 Q580.6699,1349.5313 581.6074,1349.5313 L582.0176,1349.5313 L582.0176,1339.248 L581.6074,1339.248 Q580.6699,1339.248 580.2598,1338.8965 Q579.8496,1338.5156 579.8496,1337.9297 Q579.8496,1337.3438 580.2598,1336.9922 Q580.6699,1336.6113 581.6074,1336.6113 L593.4141,1336.6406 L593.4141,1340.625 Q593.4141,1341.5625 593.0332,1341.9727 Q592.6816,1342.3828 592.0957,1342.3828 Q591.5098,1342.3828 591.1289,1342.002 Q590.7773,1341.5918 590.7773,1340.625 L590.7773,1339.248 L584.6543,1339.248 L584.6543,1343.0566 L586.9688,1343.0566 Q586.9688,1342.0313 587.1445,1341.7383 Q587.5547,1341.0938 588.2871,1341.0938 Q588.8438,1341.0938 589.1953,1341.5039 Q589.5762,1341.9141 589.5762,1342.8516 L589.5762,1345.8984 Q589.5762,1346.748 589.3711,1347.041 Q588.9609,1347.6563 588.2871,1347.6563 Q587.5547,1347.6563 587.1445,1347.0117 Q586.9688,1346.7188 586.9688,1345.6934 L584.6543,1345.6934 Z " fill="#000000"/><text fill="#17324D" font-family="sans-serif" font-size="26.25" lengthAdjust="spacing" textLength="144.375" x="621.4688" y="1355.4089">PAIEMENTS</text><line style="stroke:#2F7D5B;stroke-width:0.9375;" x1="511.875" x2="819.375" y1="1372.793" y2="1372.793"/><ellipse cx="530.625" cy="1399.6143" fill="#000000" rx="5.625" ry="5.625" style="stroke:#000000;stroke-width:1.875;"/><text fill="#000000" font-family="sans-serif" font-size="26.25" lengthAdjust="spacing" textLength="215.625" x="545.625" y="1407.5427">id_paiement &#171;PK&#187;</text><line style="stroke:#2F7D5B;stroke-width:1.875;" x1="511.875" x2="819.375" y1="1420.8105" y2="1420.8105"/><text fill="#000000" font-family="sans-serif" font-size="26.25" lengthAdjust="spacing" textLength="288.75" x="521.25" y="1455.5603">id_commande &#171;FK, UQ&#187;</text><text fill="#000000" font-family="sans-serif" font-size="26.25" lengthAdjust="spacing" textLength="155.625" x="521.25" y="1488.5779">total_general</text><text fill="#000000" font-family="sans-serif" font-size="26.25" lengthAdjust="spacing" textLength="65.625" x="521.25" y="1521.5955">statut</text></g><!--class DEL--><g id="elem_DEL"><rect codeLine="99" fill="#FFFFFF" height="251.3379" id="DEL" rx="11.25" ry="11.25" style="stroke:#2F7D5B;stroke-width:0.9375;" width="311.25" x="886.875" y="1299.668"/><rect fill="#E4F3EA" height="56.25" rx="11.25" ry="11.25" style="stroke:#E4F3EA;stroke-width:0.9375;" width="311.25" x="886.875" y="1299.668"/><rect fill="#E4F3EA" height="11.25" style="stroke:#E4F3EA;stroke-width:0.9375;" width="311.25" x="886.875" y="1344.668"/><rect codeLine="99" fill="none" height="251.3379" id="DEL" rx="11.25" ry="11.25" style="stroke:#2F7D5B;stroke-width:0.9375;" width="311.25" x="886.875" y="1299.668"/><ellipse cx="960.375" cy="1327.793" fill="#ADD1B2" rx="18.75" ry="18.75" style="stroke:#181818;stroke-width:1.875;"/><path d="M958.998,1328.8184 L958.998,1332.6563 L965.707,1332.6563 L965.707,1331.25 Q965.707,1330.2832 966.0586,1329.9023 Q966.4395,1329.4922 967.0254,1329.4922 Q967.582,1329.4922 967.9336,1329.9023 Q968.3145,1330.2832 968.3145,1331.25 L968.3145,1335.293 L955.9512,1335.293 Q955.0137,1335.293 954.6035,1334.9414 Q954.1934,1334.5605 954.1934,1333.9746 Q954.1934,1333.3887 954.6035,1333.0371 Q955.0137,1332.6563 955.9512,1332.6563 L956.3613,1332.6563 L956.3613,1322.373 L955.9512,1322.373 Q955.0137,1322.373 954.6035,1322.0215 Q954.1934,1321.6406 954.1934,1321.0547 Q954.1934,1320.4688 954.6035,1320.1172 Q955.0137,1319.7363 955.9512,1319.7363 L967.7578,1319.7656 L967.7578,1323.75 Q967.7578,1324.6875 967.377,1325.0977 Q967.0254,1325.5078 966.4395,1325.5078 Q965.8535,1325.5078 965.4727,1325.127 Q965.1211,1324.7168 965.1211,1323.75 L965.1211,1322.373 L958.998,1322.373 L958.998,1326.1816 L961.3125,1326.1816 Q961.3125,1325.1563 961.4883,1324.8633 Q961.8984,1324.2188 962.6309,1324.2188 Q963.1875,1324.2188 963.5391,1324.6289 Q963.9199,1325.0391 963.9199,1325.9766 L963.9199,1329.0234 Q963.9199,1329.873 963.7148,1330.166 Q963.3047,1330.7813 962.6309,1330.7813 Q961.8984,1330.7813 961.4883,1330.1367 Q961.3125,1329.8438 961.3125,1328.8184 L958.998,1328.8184 Z " fill="#000000"/><text fill="#17324D" font-family="sans-serif" font-size="26.25" lengthAdjust="spacing" textLength="150" x="995.25" y="1338.5339">LIVRAISONS</text><line style="stroke:#2F7D5B;stroke-width:0.9375;" x1="888.75" x2="1196.25" y1="1355.918" y2="1355.918"/><ellipse cx="907.5" cy="1382.7393" fill="#000000" rx="5.625" ry="5.625" style="stroke:#000000;stroke-width:1.875;"/><text fill="#000000" font-family="sans-serif" font-size="26.25" lengthAdjust="spacing" textLength="204.375" x="922.5" y="1390.6677">id_livraison &#171;PK&#187;</text><line style="stroke:#2F7D5B;stroke-width:1.875;" x1="888.75" x2="1196.25" y1="1403.9355" y2="1403.9355"/><text fill="#000000" font-family="sans-serif" font-size="26.25" lengthAdjust="spacing" textLength="288.75" x="898.125" y="1438.6853">id_commande &#171;FK, UQ&#187;</text><text fill="#000000" font-family="sans-serif" font-size="26.25" lengthAdjust="spacing" textLength="180" x="898.125" y="1471.7029">id_livreur &#171;FK&#187;</text><text fill="#000000" font-family="sans-serif" font-size="26.25" lengthAdjust="spacing" textLength="65.625" x="898.125" y="1504.7205">statut</text><text fill="#000000" font-family="sans-serif" font-size="26.25" lengthAdjust="spacing" textLength="166.875" x="898.125" y="1537.738">verification_qr</text></g><!--class SETTLE--><g id="elem_SETTLE"><rect codeLine="107" fill="#FFFFFF" height="251.3379" id="SETTLE" rx="11.25" ry="11.25" style="stroke:#2F7D5B;stroke-width:0.9375;" width="277.5" x="723.75" y="1663.418"/><rect fill="#E4F3EA" height="56.25" rx="11.25" ry="11.25" style="stroke:#E4F3EA;stroke-width:0.9375;" width="277.5" x="723.75" y="1663.418"/><rect fill="#E4F3EA" height="11.25" style="stroke:#E4F3EA;stroke-width:0.9375;" width="277.5" x="723.75" y="1708.418"/><rect codeLine="107" fill="none" height="251.3379" id="SETTLE" rx="11.25" ry="11.25" style="stroke:#2F7D5B;stroke-width:0.9375;" width="277.5" x="723.75" y="1663.418"/><ellipse cx="771.0938" cy="1691.543" fill="#ADD1B2" rx="18.75" ry="18.75" style="stroke:#181818;stroke-width:1.875;"/><path d="M769.7168,1692.5684 L769.7168,1696.4063 L776.4258,1696.4063 L776.4258,1695 Q776.4258,1694.0332 776.7773,1693.6523 Q777.1582,1693.2422 777.7441,1693.2422 Q778.3008,1693.2422 778.6523,1693.6523 Q779.0332,1694.0332 779.0332,1695 L779.0332,1699.043 L766.6699,1699.043 Q765.7324,1699.043 765.3223,1698.6914 Q764.9121,1698.3105 764.9121,1697.7246 Q764.9121,1697.1387 765.3223,1696.7871 Q765.7324,1696.4063 766.6699,1696.4063 L767.0801,1696.4063 L767.0801,1686.123 L766.6699,1686.123 Q765.7324,1686.123 765.3223,1685.7715 Q764.9121,1685.3906 764.9121,1684.8047 Q764.9121,1684.2188 765.3223,1683.8672 Q765.7324,1683.4863 766.6699,1683.4863 L778.4766,1683.5156 L778.4766,1687.5 Q778.4766,1688.4375 778.0957,1688.8477 Q777.7441,1689.2578 777.1582,1689.2578 Q776.5723,1689.2578 776.1914,1688.877 Q775.8398,1688.4668 775.8398,1687.5 L775.8398,1686.123 L769.7168,1686.123 L769.7168,1689.9316 L772.0313,1689.9316 Q772.0313,1688.9063 772.207,1688.6133 Q772.6172,1687.9688 773.3496,1687.9688 Q773.9063,1687.9688 774.2578,1688.3789 Q774.6387,1688.7891 774.6387,1689.7266 L774.6387,1692.7734 Q774.6387,1693.623 774.4336,1693.916 Q774.0234,1694.5313 773.3496,1694.5313 Q772.6172,1694.5313 772.207,1693.8867 Q772.0313,1693.5938 772.0313,1692.5684 L769.7168,1692.5684 Z " fill="#000000"/><text fill="#17324D" font-family="sans-serif" font-size="26.25" lengthAdjust="spacing" textLength="174.375" x="800.1563" y="1702.2839">VERSEMENTS</text><line style="stroke:#2F7D5B;stroke-width:0.9375;" x1="725.625" x2="999.375" y1="1719.668" y2="1719.668"/><ellipse cx="744.375" cy="1746.4893" fill="#000000" rx="5.625" ry="5.625" style="stroke:#000000;stroke-width:1.875;"/><text fill="#000000" font-family="sans-serif" font-size="26.25" lengthAdjust="spacing" textLength="230.625" x="759.375" y="1754.4177">id_versement &#171;PK&#187;</text><line style="stroke:#2F7D5B;stroke-width:1.875;" x1="725.625" x2="999.375" y1="1767.6855" y2="1767.6855"/><text fill="#000000" font-family="sans-serif" font-size="26.25" lengthAdjust="spacing" textLength="215.625" x="735" y="1802.4353">id_paiement &#171;FK&#187;</text><text fill="#000000" font-family="sans-serif" font-size="26.25" lengthAdjust="spacing" textLength="243.75" x="735" y="1835.4529">id_beneficiaire &#171;FK&#187;</text><text fill="#000000" font-family="sans-serif" font-size="26.25" lengthAdjust="spacing" textLength="95.625" x="735" y="1868.4705">montant</text><text fill="#000000" font-family="sans-serif" font-size="26.25" lengthAdjust="spacing" textLength="65.625" x="735" y="1901.488">statut</text></g><!--class SERVICE--><g id="elem_SERVICE"><rect codeLine="118" fill="#FFFFFF" height="218.3203" id="SERVICE" rx="11.25" ry="11.25" style="stroke:#2F7D5B;stroke-width:0.9375;" width="382.5" x="1303.125" y="542.168"/><rect fill="#E4F3EA" height="56.25" rx="11.25" ry="11.25" style="stroke:#E4F3EA;stroke-width:0.9375;" width="382.5" x="1303.125" y="542.168"/><rect fill="#E4F3EA" height="11.25" style="stroke:#E4F3EA;stroke-width:0.9375;" width="382.5" x="1303.125" y="587.168"/><rect codeLine="118" fill="none" height="218.3203" id="SERVICE" rx="11.25" ry="11.25" style="stroke:#2F7D5B;stroke-width:0.9375;" width="382.5" x="1303.125" y="542.168"/><ellipse cx="1329.375" cy="570.293" fill="#ADD1B2" rx="18.75" ry="18.75" style="stroke:#181818;stroke-width:1.875;"/><path d="M1327.998,571.3184 L1327.998,575.1563 L1334.707,575.1563 L1334.707,573.75 Q1334.707,572.7832 1335.0586,572.4023 Q1335.4395,571.9922 1336.0254,571.9922 Q1336.582,571.9922 1336.9336,572.4023 Q1337.3145,572.7832 1337.3145,573.75 L1337.3145,577.793 L1324.9512,577.793 Q1324.0137,577.793 1323.6035,577.4414 Q1323.1934,577.0605 1323.1934,576.4746 Q1323.1934,575.8887 1323.6035,575.5371 Q1324.0137,575.1563 1324.9512,575.1563 L1325.3613,575.1563 L1325.3613,564.873 L1324.9512,564.873 Q1324.0137,564.873 1323.6035,564.5215 Q1323.1934,564.1406 1323.1934,563.5547 Q1323.1934,562.9688 1323.6035,562.6172 Q1324.0137,562.2363 1324.9512,562.2363 L1336.7578,562.2656 L1336.7578,566.25 Q1336.7578,567.1875 1336.377,567.5977 Q1336.0254,568.0078 1335.4395,568.0078 Q1334.8535,568.0078 1334.4727,567.627 Q1334.1211,567.2168 1334.1211,566.25 L1334.1211,564.873 L1327.998,564.873 L1327.998,568.6816 L1330.3125,568.6816 Q1330.3125,567.6563 1330.4883,567.3633 Q1330.8984,566.7188 1331.6309,566.7188 Q1332.1875,566.7188 1332.5391,567.1289 Q1332.9199,567.5391 1332.9199,568.4766 L1332.9199,571.5234 Q1332.9199,572.373 1332.7148,572.666 Q1332.3047,573.2813 1331.6309,573.2813 Q1330.8984,573.2813 1330.4883,572.6367 Q1330.3125,572.3438 1330.3125,571.3184 L1327.998,571.3184 Z " fill="#000000"/><text fill="#17324D" font-family="sans-serif" font-size="26.25" lengthAdjust="spacing" textLength="326.25" x="1353.75" y="581.0339">SERVICES_VETERINAIRES</text><line style="stroke:#2F7D5B;stroke-width:0.9375;" x1="1305" x2="1683.75" y1="598.418" y2="598.418"/><ellipse cx="1323.75" cy="625.2393" fill="#000000" rx="5.625" ry="5.625" style="stroke:#000000;stroke-width:1.875;"/><text fill="#000000" font-family="sans-serif" font-size="26.25" lengthAdjust="spacing" textLength="191.25" x="1338.75" y="633.1677">id_service &#171;PK&#187;</text><line style="stroke:#2F7D5B;stroke-width:1.875;" x1="1305" x2="1683.75" y1="646.4355" y2="646.4355"/><text fill="#000000" font-family="sans-serif" font-size="26.25" lengthAdjust="spacing" textLength="232.5" x="1314.375" y="681.1853">id_veterinaire &#171;FK&#187;</text><text fill="#000000" font-family="sans-serif" font-size="26.25" lengthAdjust="spacing" textLength="45" x="1314.375" y="714.2029">titre</text><text fill="#000000" font-family="sans-serif" font-size="26.25" lengthAdjust="spacing" textLength="41.25" x="1314.375" y="747.2205">prix</text></g><!--class APPT--><g id="elem_APPT"><rect codeLine="125" fill="#FFFFFF" height="251.3379" id="APPT" rx="11.25" ry="11.25" style="stroke:#2F7D5B;stroke-width:0.9375;" width="245.625" x="1405.3125" y="919.043"/><rect fill="#E4F3EA" height="56.25" rx="11.25" ry="11.25" style="stroke:#E4F3EA;stroke-width:0.9375;" width="245.625" x="1405.3125" y="919.043"/><rect fill="#E4F3EA" height="11.25" style="stroke:#E4F3EA;stroke-width:0.9375;" width="245.625" x="1405.3125" y="964.043"/><rect codeLine="125" fill="none" height="251.3379" id="APPT" rx="11.25" ry="11.25" style="stroke:#2F7D5B;stroke-width:0.9375;" width="245.625" x="1405.3125" y="919.043"/><ellipse cx="1431.5625" cy="947.168" fill="#ADD1B2" rx="18.75" ry="18.75" style="stroke:#181818;stroke-width:1.875;"/><path d="M1430.1855,948.1934 L1430.1855,952.0313 L1436.8945,952.0313 L1436.8945,950.625 Q1436.8945,949.6582 1437.2461,949.2773 Q1437.627,948.8672 1438.2129,948.8672 Q1438.7695,948.8672 1439.1211,949.2773 Q1439.502,949.6582 1439.502,950.625 L1439.502,954.668 L1427.1387,954.668 Q1426.2012,954.668 1425.791,954.3164 Q1425.3809,953.9355 1425.3809,953.3496 Q1425.3809,952.7637 1425.791,952.4121 Q1426.2012,952.0313 1427.1387,952.0313 L1427.5488,952.0313 L1427.5488,941.748 L1427.1387,941.748 Q1426.2012,941.748 1425.791,941.3965 Q1425.3809,941.0156 1425.3809,940.4297 Q1425.3809,939.8438 1425.791,939.4922 Q1426.2012,939.1113 1427.1387,939.1113 L1438.9453,939.1406 L1438.9453,943.125 Q1438.9453,944.0625 1438.5645,944.4727 Q1438.2129,944.8828 1437.627,944.8828 Q1437.041,944.8828 1436.6602,944.502 Q1436.3086,944.0918 1436.3086,943.125 L1436.3086,941.748 L1430.1855,941.748 L1430.1855,945.5566 L1432.5,945.5566 Q1432.5,944.5313 1432.6758,944.2383 Q1433.0859,943.5938 1433.8184,943.5938 Q1434.375,943.5938 1434.7266,944.0039 Q1435.1074,944.4141 1435.1074,945.3516 L1435.1074,948.3984 Q1435.1074,949.248 1434.9023,949.541 Q1434.4922,950.1563 1433.8184,950.1563 Q1433.0859,950.1563 1432.6758,949.5117 Q1432.5,949.2188 1432.5,948.1934 L1430.1855,948.1934 Z " fill="#000000"/><text fill="#17324D" font-family="sans-serif" font-size="26.25" lengthAdjust="spacing" textLength="189.375" x="1455.9375" y="957.9089">RENDEZ_VOUS</text><line style="stroke:#2F7D5B;stroke-width:0.9375;" x1="1407.1875" x2="1649.0625" y1="975.293" y2="975.293"/><ellipse cx="1425.9375" cy="1002.1143" fill="#000000" rx="5.625" ry="5.625" style="stroke:#000000;stroke-width:1.875;"/><text fill="#000000" font-family="sans-serif" font-size="26.25" lengthAdjust="spacing" textLength="144.375" x="1440.9375" y="1010.0427">id_rdv &#171;PK&#187;</text><line style="stroke:#2F7D5B;stroke-width:1.875;" x1="1407.1875" x2="1649.0625" y1="1023.3105" y2="1023.3105"/><text fill="#000000" font-family="sans-serif" font-size="26.25" lengthAdjust="spacing" textLength="191.25" x="1416.5625" y="1058.0603">id_service &#171;FK&#187;</text><text fill="#000000" font-family="sans-serif" font-size="26.25" lengthAdjust="spacing" textLength="195" x="1416.5625" y="1091.0779">id_eleveur &#171;FK&#187;</text><text fill="#000000" font-family="sans-serif" font-size="26.25" lengthAdjust="spacing" textLength="150" x="1416.5625" y="1124.0955">date_prevue</text><text fill="#000000" font-family="sans-serif" font-size="26.25" lengthAdjust="spacing" textLength="65.625" x="1416.5625" y="1157.113">statut</text></g><!--class NOTIF--><g id="elem_NOTIF"><rect codeLine="136" fill="#FFFFFF" height="218.3203" id="NOTIF" rx="11.25" ry="11.25" style="stroke:#2F7D5B;stroke-width:0.9375;" width="281.25" x="2017.5" y="542.168"/><rect fill="#E4F3EA" height="56.25" rx="11.25" ry="11.25" style="stroke:#E4F3EA;stroke-width:0.9375;" width="281.25" x="2017.5" y="542.168"/><rect fill="#E4F3EA" height="11.25" style="stroke:#E4F3EA;stroke-width:0.9375;" width="281.25" x="2017.5" y="587.168"/><rect codeLine="136" fill="none" height="218.3203" id="NOTIF" rx="11.25" ry="11.25" style="stroke:#2F7D5B;stroke-width:0.9375;" width="281.25" x="2017.5" y="542.168"/><ellipse cx="2057.25" cy="570.293" fill="#ADD1B2" rx="18.75" ry="18.75" style="stroke:#181818;stroke-width:1.875;"/><path d="M2055.873,571.3184 L2055.873,575.1563 L2062.582,575.1563 L2062.582,573.75 Q2062.582,572.7832 2062.9336,572.4023 Q2063.3145,571.9922 2063.9004,571.9922 Q2064.457,571.9922 2064.8086,572.4023 Q2065.1895,572.7832 2065.1895,573.75 L2065.1895,577.793 L2052.8262,577.793 Q2051.8887,577.793 2051.4785,577.4414 Q2051.0684,577.0605 2051.0684,576.4746 Q2051.0684,575.8887 2051.4785,575.5371 Q2051.8887,575.1563 2052.8262,575.1563 L2053.2363,575.1563 L2053.2363,564.873 L2052.8262,564.873 Q2051.8887,564.873 2051.4785,564.5215 Q2051.0684,564.1406 2051.0684,563.5547 Q2051.0684,562.9688 2051.4785,562.6172 Q2051.8887,562.2363 2052.8262,562.2363 L2064.6328,562.2656 L2064.6328,566.25 Q2064.6328,567.1875 2064.252,567.5977 Q2063.9004,568.0078 2063.3145,568.0078 Q2062.7285,568.0078 2062.3477,567.627 Q2061.9961,567.2168 2061.9961,566.25 L2061.9961,564.873 L2055.873,564.873 L2055.873,568.6816 L2058.1875,568.6816 Q2058.1875,567.6563 2058.3633,567.3633 Q2058.7734,566.7188 2059.5059,566.7188 Q2060.0625,566.7188 2060.4141,567.1289 Q2060.7949,567.5391 2060.7949,568.4766 L2060.7949,571.5234 Q2060.7949,572.373 2060.5898,572.666 Q2060.1797,573.2813 2059.5059,573.2813 Q2058.7734,573.2813 2058.3633,572.6367 Q2058.1875,572.3438 2058.1875,571.3184 L2055.873,571.3184 Z " fill="#000000"/><text fill="#17324D" font-family="sans-serif" font-size="26.25" lengthAdjust="spacing" textLength="195" x="2084.625" y="581.0339">NOTIFICATIONS</text><line style="stroke:#2F7D5B;stroke-width:0.9375;" x1="2019.375" x2="2296.875" y1="598.418" y2="598.418"/><ellipse cx="2038.125" cy="625.2393" fill="#000000" rx="5.625" ry="5.625" style="stroke:#000000;stroke-width:1.875;"/><text fill="#000000" font-family="sans-serif" font-size="26.25" lengthAdjust="spacing" textLength="234.375" x="2053.125" y="633.1677">id_notification &#171;PK&#187;</text><line style="stroke:#2F7D5B;stroke-width:1.875;" x1="2019.375" x2="2296.875" y1="646.4355" y2="646.4355"/><text fill="#000000" font-family="sans-serif" font-size="26.25" lengthAdjust="spacing" textLength="221.25" x="2028.75" y="681.1853">id_utilisateur &#171;FK&#187;</text><text fill="#000000" font-family="sans-serif" font-size="26.25" lengthAdjust="spacing" textLength="95.625" x="2028.75" y="714.2029">contenu</text><text fill="#000000" font-family="sans-serif" font-size="26.25" lengthAdjust="spacing" textLength="20.625" x="2028.75" y="747.2205">lu</text></g><!--link USER to ANN--><g id="link_USER_ANN"><path codeLine="145" d="M1449.6938,398.0555 C1449.6938,398.0555 1449.6938,534.668 1449.6938,534.668 C1449.6938,534.668 419.0625,534.668 419.0625,534.668 " fill="none" id="USER-ANN" style="stroke:#456A7D;stroke-width:2.625;"/><line style="stroke:#456A7D;stroke-width:2.625;" x1="1442.1938" x2="1457.1938" y1="390.5555" y2="390.5555"/><line style="stroke:#456A7D;stroke-width:2.625;" x1="1442.1938" x2="1457.1938" y1="396.1805" y2="396.1805"/><line style="stroke:#456A7D;stroke-width:2.625;" x1="1449.6938" x2="1449.6938" y1="398.0555" y2="383.0555"/><line style="stroke:#456A7D;stroke-width:2.625;" x1="419.0625" x2="404.0625" y1="534.668" y2="545.918"/><line style="stroke:#456A7D;stroke-width:2.625;" x1="419.0625" x2="404.0625" y1="534.668" y2="523.418"/><line style="stroke:#456A7D;stroke-width:2.625;" x1="419.0625" x2="404.0625" y1="534.668" y2="534.668"/><ellipse cx="430.3125" cy="534.668" fill="none" rx="7.5" ry="7.5" style="stroke:#456A7D;stroke-width:2.625;"/><text fill="#29485B" font-family="sans-serif" font-size="26.25" lengthAdjust="spacing" textLength="71.25" x="929.55" y="528.1677">publie</text></g><!--link ANN to RED--><g id="link_ANN_RED"><path codeLine="146" d="M232.8187,791.5805 C232.8187,791.5805 232.8187,920.4305 232.8187,920.4305 " fill="none" id="ANN-RED" style="stroke:#456A7D;stroke-width:2.625;"/><line style="stroke:#456A7D;stroke-width:2.625;" x1="225.3187" x2="240.3187" y1="784.0805" y2="784.0805"/><line style="stroke:#456A7D;stroke-width:2.625;" x1="225.3187" x2="240.3187" y1="789.7055" y2="789.7055"/><line style="stroke:#456A7D;stroke-width:2.625;" x1="232.8187" x2="232.8187" y1="791.5805" y2="776.5805"/><line style="stroke:#456A7D;stroke-width:2.625;" x1="232.8187" x2="244.0687" y1="920.4305" y2="935.4305"/><line style="stroke:#456A7D;stroke-width:2.625;" x1="232.8187" x2="221.5687" y1="920.4305" y2="935.4305"/><line style="stroke:#456A7D;stroke-width:2.625;" x1="232.8187" x2="232.8187" y1="920.4305" y2="935.4305"/><ellipse cx="232.8187" cy="909.1805" fill="none" rx="7.5" ry="7.5" style="stroke:#456A7D;stroke-width:2.625;"/><text fill="#29485B" font-family="sans-serif" font-size="26.25" lengthAdjust="spacing" textLength="101.25" x="129.6938" y="849.5052">applique</text></g><!--link USER to CMD--><g id="link_USER_CMD"><path codeLine="147" d="M1344.5813,210.293 C1344.5813,210.293 725.625,210.293 725.625,210.293 C725.625,210.293 725.625,886.6992 725.625,886.6992 " fill="none" id="USER-CMD" style="stroke:#456A7D;stroke-width:2.625;"/><line style="stroke:#456A7D;stroke-width:2.625;" x1="1352.0813" x2="1352.0813" y1="202.793" y2="217.793"/><line style="stroke:#456A7D;stroke-width:2.625;" x1="1346.4563" x2="1346.4563" y1="202.793" y2="217.793"/><line style="stroke:#456A7D;stroke-width:2.625;" x1="1344.5813" x2="1359.5813" y1="210.293" y2="210.293"/><line style="stroke:#456A7D;stroke-width:2.625;" x1="725.625" x2="736.875" y1="886.6992" y2="901.6992"/><line style="stroke:#456A7D;stroke-width:2.625;" x1="725.625" x2="714.375" y1="886.6992" y2="901.6992"/><line style="stroke:#456A7D;stroke-width:2.625;" x1="725.625" x2="725.625" y1="886.6992" y2="901.6992"/><ellipse cx="725.625" cy="875.4492" fill="none" rx="7.5" ry="7.5" style="stroke:#456A7D;stroke-width:2.625;"/><text fill="#29485B" font-family="sans-serif" font-size="26.25" lengthAdjust="spacing" textLength="71.25" x="652.5" y="232.5177">passe</text></g><!--link ANN to CMD--><g id="link_ANN_CMD"><path codeLine="148" d="M318.4313,792.1242 C318.4313,792.1242 318.4313,919.043 318.4313,919.043 C318.4313,919.043 568.7813,919.043 568.7813,919.043 " fill="none" id="ANN-CMD" style="stroke:#456A7D;stroke-width:2.625;"/><line style="stroke:#456A7D;stroke-width:2.625;" x1="310.9313" x2="325.9313" y1="784.6242" y2="784.6242"/><line style="stroke:#456A7D;stroke-width:2.625;" x1="310.9313" x2="325.9313" y1="790.2492" y2="790.2492"/><line style="stroke:#456A7D;stroke-width:2.625;" x1="318.4313" x2="318.4313" y1="792.1242" y2="777.1242"/><line style="stroke:#456A7D;stroke-width:2.625;" x1="568.7813" x2="583.7813" y1="919.043" y2="907.793"/><line style="stroke:#456A7D;stroke-width:2.625;" x1="568.7813" x2="583.7813" y1="919.043" y2="930.293"/><line style="stroke:#456A7D;stroke-width:2.625;" x1="568.7813" x2="583.7813" y1="919.043" y2="919.043"/><ellipse cx="557.5313" cy="919.043" fill="none" rx="7.5" ry="7.5" style="stroke:#456A7D;stroke-width:2.625;"/><text fill="#29485B" font-family="sans-serif" font-size="26.25" lengthAdjust="spacing" textLength="110.625" x="267.6563" y="912.5427">concerne</text></g><!--link CMD to PAY--><g id="link_CMD_PAY"><path codeLine="149" d="M702.6563,1202.4867 C702.6563,1202.4867 702.6563,1301.1867 702.6563,1301.1867 " fill="none" id="CMD-PAY" style="stroke:#456A7D;stroke-width:2.625;"/><line style="stroke:#456A7D;stroke-width:2.625;" x1="695.1563" x2="710.1563" y1="1194.9867" y2="1194.9867"/><line style="stroke:#456A7D;stroke-width:2.625;" x1="695.1563" x2="710.1563" y1="1200.6117" y2="1200.6117"/><line style="stroke:#456A7D;stroke-width:2.625;" x1="702.6563" x2="702.6563" y1="1202.4867" y2="1187.4867"/><line style="stroke:#456A7D;stroke-width:2.625;" x1="702.6563" x2="702.6563" y1="1294.8117" y2="1316.1867"/><ellipse cx="702.6563" cy="1294.8117" fill="none" rx="8.25" ry="8.25" style="stroke:#456A7D;stroke-width:2.625;"/><line style="stroke:#456A7D;stroke-width:2.625;" x1="710.9063" x2="694.4062" y1="1308.6867" y2="1308.6867"/><text fill="#29485B" font-family="sans-serif" font-size="26.25" lengthAdjust="spacing" textLength="60" x="640.7813" y="1245.3365">r&#232;gle</text></g><!--link CMD to DEL--><g id="link_CMD_DEL"><path codeLine="150" d="M844.2188,1202.693 C844.2188,1202.693 844.2188,1309.043 844.2188,1309.043 C844.2188,1309.043 871.7625,1309.043 871.7625,1309.043 " fill="none" id="CMD-DEL" style="stroke:#456A7D;stroke-width:2.625;"/><line style="stroke:#456A7D;stroke-width:2.625;" x1="836.7188" x2="851.7188" y1="1195.193" y2="1195.193"/><line style="stroke:#456A7D;stroke-width:2.625;" x1="836.7188" x2="851.7188" y1="1200.818" y2="1200.818"/><line style="stroke:#456A7D;stroke-width:2.625;" x1="844.2188" x2="844.2188" y1="1202.693" y2="1187.693"/><line style="stroke:#456A7D;stroke-width:2.625;" x1="865.3875" x2="886.7625" y1="1309.043" y2="1309.043"/><ellipse cx="865.3875" cy="1309.043" fill="none" rx="8.25" ry="8.25" style="stroke:#456A7D;stroke-width:2.625;"/><line style="stroke:#456A7D;stroke-width:2.625;" x1="879.2625" x2="879.2625" y1="1300.793" y2="1317.293"/><text fill="#29485B" font-family="sans-serif" font-size="26.25" lengthAdjust="spacing" textLength="234.375" x="607.9688" y="1298.7552">livraison optionnelle</text></g><!--link USER to DEL--><g id="link_USER_DEL"><path codeLine="151" d="M1345.0125,296.543 C1345.0125,296.543 1042.5,296.543 1042.5,296.543 C1042.5,296.543 1042.5,1284.6492 1042.5,1284.6492 " fill="none" id="USER-DEL" style="stroke:#456A7D;stroke-width:2.625;"/><line style="stroke:#456A7D;stroke-width:2.625;" x1="1338.6375" x2="1360.0125" y1="296.543" y2="296.543"/><ellipse cx="1338.6375" cy="296.543" fill="none" rx="8.25" ry="8.25" style="stroke:#456A7D;stroke-width:2.625;"/><line style="stroke:#456A7D;stroke-width:2.625;" x1="1352.5125" x2="1352.5125" y1="288.293" y2="304.793"/><line style="stroke:#456A7D;stroke-width:2.625;" x1="1042.5" x2="1053.75" y1="1284.6492" y2="1299.6492"/><line style="stroke:#456A7D;stroke-width:2.625;" x1="1042.5" x2="1031.25" y1="1284.6492" y2="1299.6492"/><line style="stroke:#456A7D;stroke-width:2.625;" x1="1042.5" x2="1042.5" y1="1284.6492" y2="1299.6492"/><ellipse cx="1042.5" cy="1273.3992" fill="none" rx="7.5" ry="7.5" style="stroke:#456A7D;stroke-width:2.625;"/><text fill="#29485B" font-family="sans-serif" font-size="26.25" lengthAdjust="spacing" textLength="48.75" x="991.875" y="632.8302">livre</text></g><!--link PAY to SETTLE--><g id="link_PAY_SETTLE"><path codeLine="152" d="M772.5,1549.4367 C772.5,1549.4367 772.5,1648.3805 772.5,1648.3805 " fill="none" id="PAY-SETTLE" style="stroke:#456A7D;stroke-width:2.625;"/><line style="stroke:#456A7D;stroke-width:2.625;" x1="765" x2="780" y1="1541.9367" y2="1541.9367"/><line style="stroke:#456A7D;stroke-width:2.625;" x1="765" x2="780" y1="1547.5617" y2="1547.5617"/><line style="stroke:#456A7D;stroke-width:2.625;" x1="772.5" x2="772.5" y1="1549.4367" y2="1534.4367"/><line style="stroke:#456A7D;stroke-width:2.625;" x1="772.5" x2="783.75" y1="1648.3805" y2="1663.3805"/><line style="stroke:#456A7D;stroke-width:2.625;" x1="772.5" x2="761.25" y1="1648.3805" y2="1663.3805"/><line style="stroke:#456A7D;stroke-width:2.625;" x1="772.5" x2="772.5" y1="1648.3805" y2="1663.3805"/><ellipse cx="772.5" cy="1637.1305" fill="none" rx="7.5" ry="7.5" style="stroke:#456A7D;stroke-width:2.625;"/><text fill="#29485B" font-family="sans-serif" font-size="26.25" lengthAdjust="spacing" textLength="121.875" x="648.75" y="1592.399">d&#233;clenche</text></g><!--link USER to SETTLE--><g id="link_USER_SETTLE"><path codeLine="153" d="M1344.6563,253.418 C1344.6563,253.418 877.0313,253.418 877.0313,253.418 C877.0313,253.418 877.0313,1648.3805 877.0313,1648.3805 " fill="none" id="USER-SETTLE" style="stroke:#456A7D;stroke-width:2.625;"/><line style="stroke:#456A7D;stroke-width:2.625;" x1="1352.1563" x2="1352.1563" y1="245.918" y2="260.918"/><line style="stroke:#456A7D;stroke-width:2.625;" x1="1346.5313" x2="1346.5313" y1="245.918" y2="260.918"/><line style="stroke:#456A7D;stroke-width:2.625;" x1="1344.6563" x2="1359.6563" y1="253.418" y2="253.418"/><line style="stroke:#456A7D;stroke-width:2.625;" x1="877.0313" x2="888.2813" y1="1648.3805" y2="1663.3805"/><line style="stroke:#456A7D;stroke-width:2.625;" x1="877.0313" x2="865.7813" y1="1648.3805" y2="1663.3805"/><line style="stroke:#456A7D;stroke-width:2.625;" x1="877.0313" x2="877.0313" y1="1648.3805" y2="1663.3805"/><ellipse cx="877.0313" cy="1637.1305" fill="none" rx="7.5" ry="7.5" style="stroke:#456A7D;stroke-width:2.625;"/><text fill="#29485B" font-family="sans-serif" font-size="26.25" lengthAdjust="spacing" textLength="65.625" x="809.5313" y="710.5865">re&#231;oit</text></g><!--link USER to SERVICE--><g id="link_USER_SERVICE"><path codeLine="154" d="M1539.0563,398.0555 C1539.0563,398.0555 1539.0563,527.1492 1539.0563,527.1492 " fill="none" id="USER-SERVICE" style="stroke:#456A7D;stroke-width:2.625;"/><line style="stroke:#456A7D;stroke-width:2.625;" x1="1531.5563" x2="1546.5563" y1="390.5555" y2="390.5555"/><line style="stroke:#456A7D;stroke-width:2.625;" x1="1531.5563" x2="1546.5563" y1="396.1805" y2="396.1805"/><line style="stroke:#456A7D;stroke-width:2.625;" x1="1539.0563" x2="1539.0563" y1="398.0555" y2="383.0555"/><line style="stroke:#456A7D;stroke-width:2.625;" x1="1539.0563" x2="1550.3063" y1="527.1492" y2="542.1492"/><line style="stroke:#456A7D;stroke-width:2.625;" x1="1539.0563" x2="1527.8063" y1="527.1492" y2="542.1492"/><line style="stroke:#456A7D;stroke-width:2.625;" x1="1539.0563" x2="1539.0563" y1="527.1492" y2="542.1492"/><ellipse cx="1539.0563" cy="515.8992" fill="none" rx="7.5" ry="7.5" style="stroke:#456A7D;stroke-width:2.625;"/><text fill="#29485B" font-family="sans-serif" font-size="26.25" lengthAdjust="spacing" textLength="97.5" x="1439.6813" y="456.1115">propose</text></g><!--link SERVICE to APPT--><g id="link_SERVICE_APPT"><path codeLine="155" d="M1528.125,775.0805 C1528.125,775.0805 1528.125,903.593 1528.125,903.593 " fill="none" id="SERVICE-APPT" style="stroke:#456A7D;stroke-width:2.625;"/><line style="stroke:#456A7D;stroke-width:2.625;" x1="1520.625" x2="1535.625" y1="767.5805" y2="767.5805"/><line style="stroke:#456A7D;stroke-width:2.625;" x1="1520.625" x2="1535.625" y1="773.2055" y2="773.2055"/><line style="stroke:#456A7D;stroke-width:2.625;" x1="1528.125" x2="1528.125" y1="775.0805" y2="760.0805"/><line style="stroke:#456A7D;stroke-width:2.625;" x1="1528.125" x2="1539.375" y1="903.593" y2="918.593"/><line style="stroke:#456A7D;stroke-width:2.625;" x1="1528.125" x2="1516.875" y1="903.593" y2="918.593"/><line style="stroke:#456A7D;stroke-width:2.625;" x1="1528.125" x2="1528.125" y1="903.593" y2="918.593"/><ellipse cx="1528.125" cy="892.343" fill="none" rx="7.5" ry="7.5" style="stroke:#456A7D;stroke-width:2.625;"/><text fill="#29485B" font-family="sans-serif" font-size="26.25" lengthAdjust="spacing" textLength="110.625" x="1415.625" y="832.8365">concerne</text></g><!--link USER to APPT--><g id="link_USER_APPT"><path codeLine="156" d="M1344.675,339.668 C1344.675,339.668 1250.625,339.668 1250.625,339.668 C1250.625,339.668 1250.625,1044.668 1250.625,1044.668 C1250.625,1044.668 1389.7875,1044.668 1389.7875,1044.668 " fill="none" id="USER-APPT" style="stroke:#456A7D;stroke-width:2.625;"/><line style="stroke:#456A7D;stroke-width:2.625;" x1="1352.175" x2="1352.175" y1="332.168" y2="347.168"/><line style="stroke:#456A7D;stroke-width:2.625;" x1="1346.55" x2="1346.55" y1="332.168" y2="347.168"/><line style="stroke:#456A7D;stroke-width:2.625;" x1="1344.675" x2="1359.675" y1="339.668" y2="339.668"/><line style="stroke:#456A7D;stroke-width:2.625;" x1="1389.7875" x2="1404.7875" y1="1044.668" y2="1033.418"/><line style="stroke:#456A7D;stroke-width:2.625;" x1="1389.7875" x2="1404.7875" y1="1044.668" y2="1055.918"/><line style="stroke:#456A7D;stroke-width:2.625;" x1="1389.7875" x2="1404.7875" y1="1044.668" y2="1044.668"/><ellipse cx="1378.5375" cy="1044.668" fill="none" rx="7.5" ry="7.5" style="stroke:#456A7D;stroke-width:2.625;"/><text fill="#29485B" font-family="sans-serif" font-size="26.25" lengthAdjust="spacing" textLength="110.625" x="1138.125" y="708.224">demande</text></g><!--link USER to NOTIF--><g id="link_USER_NOTIF"><path codeLine="157" d="M1643.7,274.043 C1643.7,274.043 2158.125,274.043 2158.125,274.043 C2158.125,274.043 2158.125,526.9055 2158.125,526.9055 " fill="none" id="USER-NOTIF" style="stroke:#456A7D;stroke-width:2.625;"/><line style="stroke:#456A7D;stroke-width:2.625;" x1="1636.2" x2="1636.2" y1="281.543" y2="266.543"/><line style="stroke:#456A7D;stroke-width:2.625;" x1="1641.825" x2="1641.825" y1="281.543" y2="266.543"/><line style="stroke:#456A7D;stroke-width:2.625;" x1="1643.7" x2="1628.7" y1="274.043" y2="274.043"/><line style="stroke:#456A7D;stroke-width:2.625;" x1="2158.125" x2="2169.375" y1="526.9055" y2="541.9055"/><line style="stroke:#456A7D;stroke-width:2.625;" x1="2158.125" x2="2146.875" y1="526.9055" y2="541.9055"/><line style="stroke:#456A7D;stroke-width:2.625;" x1="2158.125" x2="2158.125" y1="526.9055" y2="541.9055"/><ellipse cx="2158.125" cy="515.6555" fill="none" rx="7.5" ry="7.5" style="stroke:#456A7D;stroke-width:2.625;"/><text fill="#29485B" font-family="sans-serif" font-size="26.25" lengthAdjust="spacing" textLength="65.625" x="1959.8438" y="267.5427">re&#231;oit</text></g><rect fill="none" height="158.3203" id="_legend" rx="11.25" ry="11.25" style="stroke:#000000;stroke-width:1.875;" width="363.75" x="1929.375" y="1978.418"/><text fill="#000000" font-family="sans-serif" font-size="26.25" font-weight="bold" lengthAdjust="spacing" textLength="151.875" x="1946.25" y="2018.7927">Abr&#233;viation</text><text fill="#000000" font-family="sans-serif" font-size="26.25" font-weight="bold" lengthAdjust="spacing" textLength="163.125" x="2113.125" y="2018.7927">Signification</text><text fill="#000000" font-family="sans-serif" font-size="26.25" lengthAdjust="spacing" textLength="33.75" x="1946.25" y="2051.8103">PK</text><text fill="#000000" font-family="sans-serif" font-size="26.25" lengthAdjust="spacing" textLength="136.875" x="2113.125" y="2051.8103">cl&#233; primaire</text><text fill="#000000" font-family="sans-serif" font-size="26.25" lengthAdjust="spacing" textLength="33.75" x="1946.25" y="2084.8279">FK</text><text fill="#000000" font-family="sans-serif" font-size="26.25" lengthAdjust="spacing" textLength="157.5" x="2113.125" y="2084.8279">cl&#233; &#233;trang&#232;re</text><text fill="#000000" font-family="sans-serif" font-size="26.25" lengthAdjust="spacing" textLength="37.5" x="1946.25" y="2117.8455">UQ</text><text fill="#000000" font-family="sans-serif" font-size="26.25" lengthAdjust="spacing" textLength="161.25" x="2113.125" y="2117.8455">valeur unique</text><line style="stroke:#000000;stroke-width:1.875;" x1="1938.75" x2="2283.75" y1="1991.543" y2="1991.543"/><line style="stroke:#000000;stroke-width:1.875;" x1="1938.75" x2="2283.75" y1="2024.5605" y2="2024.5605"/><line style="stroke:#000000;stroke-width:1.875;" x1="1938.75" x2="2283.75" y1="2057.5781" y2="2057.5781"/><line style="stroke:#000000;stroke-width:1.875;" x1="1938.75" x2="2283.75" y1="2090.5957" y2="2090.5957"/><line style="stroke:#000000;stroke-width:1.875;" x1="1938.75" x2="2283.75" y1="2123.6133" y2="2123.6133"/><line style="stroke:#000000;stroke-width:1.875;" x1="1938.75" x2="1938.75" y1="1991.543" y2="2123.6133"/><line style="stroke:#000000;stroke-width:1.875;" x1="2105.625" x2="2105.625" y1="1991.543" y2="2123.6133"/><line style="stroke:#000000;stroke-width:1.875;" x1="2283.75" x2="2283.75" y1="1991.543" y2="2123.6133"/><!--SRC=[bLVTRjis5BxtKn0Ti0B34iI9NJj1Lq2sfTP8uhYMRM2xCMY9iOdGf49HRhEcm1vY3x2xDS_XDzcJx92IRSfIb3P04kcSZpmVpo_r6ldgWH4KYDKguUY_l_v68SKBYLSh4YENaNLNS4u2LNkD_EbxT85kXLnXXTOW4v8IXZXHQFCFKY9H12bC6IF7Q3ZGMF8v4bAX9TQgSFDqIpbLLF3ZMdn7UOJ139hZu6uXHSB3hc12efyyysCXmeYYUll4aiHB78fFb2_GBMOniJHceq18JYIgdreAHe7dGqGG45eAUtToYnEcFC7L0Ay8yZ6FVIBfRJd6ftyIL6zOoZ5LZ5Gkto7CujEJCbLs-7hhxBJHim2EbE9JfcmqtpYjWj9QVNhUQ3SxXu3naWPtdCGngX_Rn0T2aKw9zzjk-n0bP4XaXd2RZjje7Y0i4irEerrtBVqGRE15VfDpfzDoMYMW0f-6vtXlYa3RPnwOF2k7fDaz5ooqlH8ekgRgeMZin6jxPsL8c_kfr-hblPoXAkEOONeKhmGFo_n-rcjNBB0PzDhdpLElz4JFakmo7CUT5uijXLKUrq0-40oGmdvkmpjpdKDmbMDShaf3SKWimrKoIp5Lrdo5IvBUxNajhrw0LTeoa2fJavW4E2unva1Ejqk0jhapjzKuFoc2Aiz6xXF20t95R-6N7nHSjzFerglGBqPWksA8fQ81ZJ1NBn-kR57bGRSB73rVlfzK2g-EM0Pz3nj6nPrRNiVhFGilyMLDYGZ67dGNfGGC2IfX9i9qgodTr94VB3TFAumaOLYBESnAFLyLdZEOhP6aNFi3dckrAErOwDL4KKPZoAn4ng_Gbnf2nEGqQCRzgxxlZDt9o7-5S8mclZio28H-GJIS9VkbwEtRuUMxTqPtT6J-aHLCPf1FFcPoAHWn3p4aSgBWyMljgyMaYnLcOf6GF0rdCBWPTDsK0hpO333d0XnMOhr0pzi2m0sVPmbS2p2upqZk4wnj5SZjEOpStgGxxjyC_5b6nx01iSr6aZ0nyIZdioUxuxArF5jHdf8JYGp0AZYau9yfo0dw6IuMQubfB7ZUJzsRwsjdqCiSrRtEKTEtBSn3yjtCj3HOaaFdmM1GG7a6LvliFIHmRWM4rFFk6pfzzzeTZ5DgG-Ttcrg4ALa1ifoQHTox_1Njaaa9I9RPWi2r2xFdBL_rfoEdxqFWZEcUUsMRtddonsndAmzSixEFuAeArp4Qc2AStSi3JbDtv5lkyDtn-CgrQS7okC8bbiFiSCt15s2KwhGk2LbLvS7rSKq3Q17hpPFQF46Vq9iSj0Ce_caVwd0sTSVkg3zm-YDtUmAZiOyGfpkM7s0DQPNPi8c2cQmWTOaMAX1I-u_Pz6QIDOBXS9ohlN1TRcpFn7OMWU-CW_Y5q2bcaIJhfBfBcU-MBBXv3mrkndslttLCep0iZSIcoONQPSOFTQq0eaXuOfvPicLbElBZuz6H-69QumMAaZcZfAPVChbkKXS8Hn6ZC5voItIJW2LmNygjICM1RWdmMLFJhqRpQ4ht0idDjmNBoNLTNUmR4n9HDd_Org0mE-znfARtoWnc9N2XlzW21YDmcUUvqqko-LT0fyahq-o3WqWH2JZALh9rZ4uLwpmvfwMwa9X2pwdIsErjrXY1TXCYIHTBdHQFlo5dBZTFQvf64zvzkk3xy3vg41fUmf-0RPvqLgzCpgSARwU0efEOBpRVThh9H_YpXaaDIG391d431HXFAVmF]--></g></svg>