<?plantuml 1.2026.1?><svg xmlns="http://www.w3.org/2000/svg" xmlns:xlink="http://www.w3.org/1999/xlink" contentStyleType="text/css" data-diagram-type="CLASS" height="2094.375px" preserveAspectRatio="none" style="width:2430px;height:2094px;background:#FFFFFF;" version="1.1" viewBox="0 0 2430 2094" width="2430px" zoomAndPan="magnify"><title>Sch&#233;ma relationnel &#8212; tables principales</title><defs/><g><g class="title" data-source-line="4"><text fill="#17324D" font-family="sans-serif" font-size="37.5" font-weight="bold" lengthAdjust="spacing" textLength="849.1882" x="777.2809" y="53.5583">Sch&#233;ma relationnel &#8212; tables principales</text></g><!--cluster Utilisateurs--><g class="cluster" data-qualified-name="Utilisateurs" data-source-line="6" id="ent0002"><path d="M1395,94.2773 L1555.5542,94.2773 A16.875,16.875 0 0 1 1566.8042,105.5273 L1579.9292,136.084 L1721.25,136.084 A11.25,11.25 0 0 1 1732.5,147.334 L1732.5,387.1148 A11.25,11.25 0 0 1 1721.25,398.3648 L1395,398.3648 A11.25,11.25 0 0 1 1383.75,387.1148 L1383.75,105.5273 A11.25,11.25 0 0 1 1395,94.2773" fill="#F4FAF6" style="stroke:#9CB4C1;stroke-width:2.8125;"/><line style="stroke:#9CB4C1;stroke-width:2.8125;" x1="1383.75" x2="1579.9292" y1="136.084" y2="136.084"/><text fill="#1F5B43" font-family="sans-serif" font-size="26.25" font-weight="bold" lengthAdjust="spacing" textLength="171.8042" x="1391.25" y="122.3932">Utilisateurs</text></g><!--cluster Catalogue--><g class="cluster" data-qualified-name="Catalogue" data-source-line="16" id="ent0004"><path d="M22.5,443.3648 L160.8032,443.3648 A16.875,16.875 0 0 1 172.0532,454.6148 L185.1782,485.1715 L435,485.1715 A11.25,11.25 0 0 1 446.25,496.4215 L446.25,1131.1523 A11.25,11.25 0 0 1 435,1142.4023 L22.5,1142.4023 A11.25,11.25 0 0 1 11.25,1131.1523 L11.25,454.6148 A11.25,11.25 0 0 1 22.5,443.3648" fill="#F4FAF6" style="stroke:#9CB4C1;stroke-width:2.8125;"/><line style="stroke:#9CB4C1;stroke-width:2.8125;" x1="11.25" x2="185.1782" y1="485.1715" y2="485.1715"/><text fill="#1F5B43" font-family="sans-serif" font-size="26.25" font-weight="bold" lengthAdjust="spacing" textLength="149.5532" x="18.75" y="471.4807">Catalogue</text></g><!--cluster Vente & livraison--><g class="cluster" data-qualified-name="Vente . livraison" data-source-line="34" id="ent0007"><path d="M502.5,807.7523 L746.6876,807.7523 A16.875,16.875 0 0 1 757.9376,819.0023 L771.0626,849.559 L1278.75,849.559 A11.25,11.25 0 0 1 1290,860.809 L1290,1864.7836 A11.25,11.25 0 0 1 1278.75,1876.0336 L502.5,1876.0336 A11.25,11.25 0 0 1 491.25,1864.7836 L491.25,819.0023 A11.25,11.25 0 0 1 502.5,807.7523" fill="#F4FAF6" style="stroke:#9CB4C1;stroke-width:2.8125;"/><line style="stroke:#9CB4C1;stroke-width:2.8125;" x1="491.25" x2="771.0626" y1="849.559" y2="849.559"/><text fill="#1F5B43" font-family="sans-serif" font-size="26.25" font-weight="bold" lengthAdjust="spacing" textLength="255.4376" x="498.75" y="835.8682">Vente &amp; livraison</text></g><!--cluster Services v?t?rinaires--><g class="cluster" data-qualified-name="Services v.t.rinaires" data-source-line="69" id="ent0012"><path d="M1346.25,458.6461 L1647.8723,458.6461 A16.875,16.875 0 0 1 1659.1223,469.8961 L1672.2473,500.4527 L1770,500.4527 A11.25,11.25 0 0 1 1781.25,511.7027 L1781.25,1146.4336 A11.25,11.25 0 0 1 1770,1157.6836 L1346.25,1157.6836 A11.25,11.25 0 0 1 1335,1146.4336 L1335,469.8961 A11.25,11.25 0 0 1 1346.25,458.6461" fill="#F4FAF6" style="stroke:#9CB4C1;stroke-width:2.8125;"/><line style="stroke:#9CB4C1;stroke-width:2.8125;" x1="1335" x2="1672.2473" y1="500.4527" y2="500.4527"/><text fill="#1F5B43" font-family="sans-serif" font-size="26.25" font-weight="bold" lengthAdjust="spacing" textLength="312.8723" x="1342.5" y="486.7619">Services v&#233;t&#233;rinaires</text></g><!--cluster Communication--><g class="cluster" data-qualified-name="Communication" data-source-line="87" id="ent0015"><path d="M2064.375,458.6461 L2283.0432,458.6461 A16.875,16.875 0 0 1 2294.2932,469.8961 L2307.4182,500.4527 L2405.625,500.4527 A11.25,11.25 0 0 1 2416.875,511.7027 L2416.875,751.5023 A11.25,11.25 0 0 1 2405.625,762.7523 L2064.375,762.7523 A11.25,11.25 0 0 1 2053.125,751.5023 L2053.125,469.8961 A11.25,11.25 0 0 1 2064.375,458.6461" fill="#F4FAF6" style="stroke:#9CB4C1;stroke-width:2.8125;"/><line style="stroke:#9CB4C1;stroke-width:2.8125;" x1="2053.125" x2="2307.4182" y1="500.4527" y2="500.4527"/><text fill="#1F5B43" font-family="sans-serif" font-size="26.25" font-weight="bold" lengthAdjust="spacing" textLength="229.9182" x="2060.625" y="486.7619">Communication</text></g><!--class USER--><g class="entity" data-qualified-name="Utilisateurs.USER" data-source-line="7" id="ent0003"><rect fill="#FFFFFF" height="208.4766" rx="11.25" ry="11.25" style="stroke:#2F7D5B;stroke-width:0.9375;" width="289.9054" x="1413.1688" y="159.9023"/><rect fill="#E4F3EA" height="56.25" rx="11.25" ry="11.25" style="stroke:#E4F3EA;stroke-width:0.9375;" width="289.9054" x="1413.1688" y="159.9023"/><rect fill="#E4F3EA" height="11.25" style="stroke:#E4F3EA;stroke-width:0.9375;" width="289.9054" x="1413.1688" y="204.9023"/><rect fill="none" height="208.4766" rx="11.25" ry="11.25" style="stroke:#2F7D5B;stroke-width:0.9375;" width="289.9054" x="1413.1688" y="159.9023"/><ellipse cx="1460.5438" cy="188.0273" fill="#ADD1B2" rx="18.75" ry="18.75" style="stroke:#181818;stroke-width:1.875;"/><path d="M1466.1688,197.4023 L1454.2743,197.4023 L1454.2743,178.2715 L1466.1688,178.2715 L1466.1688,181.6113 L1458.0536,181.6113 L1458.0536,185.7129 L1465.4071,185.7129 L1465.4071,189.0527 L1458.0536,189.0527 L1458.0536,194.0625 L1466.1688,194.0625 L1466.1688,197.4023 Z " fill="#000000"/><text fill="#17324D" font-family="sans-serif" font-size="26.25" lengthAdjust="spacing" textLength="186.7108" x="1489.6133" y="197.1149">UTILISATEURS</text><line style="stroke:#2F7D5B;stroke-width:0.9375;" x1="1415.0438" x2="1701.1991" y1="216.1523" y2="216.1523"/><g data-visibility-modifier="IE_MANDATORY"><ellipse cx="1433.7938" cy="241.7432" fill="#000000" rx="5.625" ry="5.625" style="stroke:#000000;stroke-width:1.875;"/></g><text fill="#000000" font-family="sans-serif" font-size="26.25" lengthAdjust="spacing" textLength="243.0304" x="1448.7938" y="248.0182">id_utilisateur &#171;PK&#187;</text><line style="stroke:#2F7D5B;stroke-width:1.875;" x1="1415.0438" x2="1701.1991" y1="261.709" y2="261.709"/><text fill="#000000" font-family="sans-serif" font-size="26.25" lengthAdjust="spacing" textLength="152.7319" x="1424.4188" y="293.5748">email &#171;UQ&#187;</text><text fill="#000000" font-family="sans-serif" font-size="26.25" lengthAdjust="spacing" textLength="50.2954" x="1424.4188" y="324.1315">role</text><text fill="#000000" font-family="sans-serif" font-size="26.25" lengthAdjust="spacing" textLength="77.276" x="1424.4188" y="354.6881">statut</text></g><!--class ANN--><g class="entity" data-qualified-name="Catalogue.ANN" data-source-line="17" id="ent0005"><rect fill="#FFFFFF" height="239.0332" rx="11.25" ry="11.25" style="stroke:#2F7D5B;stroke-width:0.9375;" width="270.1025" x="146.1938" y="508.9898"/><rect fill="#E4F3EA" height="56.25" rx="11.25" ry="11.25" style="stroke:#E4F3EA;stroke-width:0.9375;" width="270.1025" x="146.1938" y="508.9898"/><rect fill="#E4F3EA" height="11.25" style="stroke:#E4F3EA;stroke-width:0.9375;" width="270.1025" x="146.1938" y="553.9898"/><rect fill="none" height="239.0332" rx="11.25" ry="11.25" style="stroke:#2F7D5B;stroke-width:0.9375;" width="270.1025" x="146.1938" y="508.9898"/><ellipse cx="201.5803" cy="537.1148" fill="#ADD1B2" rx="18.75" ry="18.75" style="stroke:#181818;stroke-width:1.875;"/><path d="M207.2053,546.4898 L195.3108,546.4898 L195.3108,527.359 L207.2053,527.359 L207.2053,530.6988 L199.0901,530.6988 L199.0901,534.8004 L206.4436,534.8004 L206.4436,538.1402 L199.0901,538.1402 L199.0901,543.15 L207.2053,543.15 L207.2053,546.4898 Z " fill="#000000"/><text fill="#17324D" font-family="sans-serif" font-size="26.25" lengthAdjust="spacing" textLength="149.1046" x="232.4301" y="546.2024">ANNONCES</text><line style="stroke:#2F7D5B;stroke-width:0.9375;" x1="148.0688" x2="414.4213" y1="565.2398" y2="565.2398"/><g data-visibility-modifier="IE_MANDATORY"><ellipse cx="166.8188" cy="590.8307" fill="#000000" rx="5.625" ry="5.625" style="stroke:#000000;stroke-width:1.875;"/></g><text fill="#000000" font-family="sans-serif" font-size="26.25" lengthAdjust="spacing" textLength="223.2275" x="181.8188" y="597.1057">id_annonce &#171;PK&#187;</text><line style="stroke:#2F7D5B;stroke-width:1.875;" x1="148.0688" x2="414.4213" y1="610.7965" y2="610.7965"/><text fill="#000000" font-family="sans-serif" font-size="26.25" lengthAdjust="spacing" textLength="242.2998" x="157.4438" y="642.6623">id_utilisateur &#171;FK&#187;</text><text fill="#000000" font-family="sans-serif" font-size="26.25" lengthAdjust="spacing" textLength="164.588" x="157.4438" y="673.219">prix_unitaire</text><text fill="#000000" font-family="sans-serif" font-size="26.25" lengthAdjust="spacing" textLength="110.05" x="157.4438" y="703.7756">quantite</text><text fill="#000000" font-family="sans-serif" font-size="26.25" lengthAdjust="spacing" textLength="77.276" x="157.4438" y="734.3323">statut</text></g><!--class RED--><g class="entity" data-qualified-name="Catalogue.RED" data-source-line="25" id="ent0006"><rect fill="#FFFFFF" height="208.4766" rx="11.25" ry="11.25" style="stroke:#2F7D5B;stroke-width:0.9375;" width="375.1337" x="41.175" y="903.9398"/><rect fill="#E4F3EA" height="56.25" rx="11.25" ry="11.25" style="stroke:#E4F3EA;stroke-width:0.9375;" width="375.1337" x="41.175" y="903.9398"/><rect fill="#E4F3EA" height="11.25" style="stroke:#E4F3EA;stroke-width:0.9375;" width="375.1337" x="41.175" y="948.9398"/><rect fill="none" height="208.4766" rx="11.25" ry="11.25" style="stroke:#2F7D5B;stroke-width:0.9375;" width="375.1337" x="41.175" y="903.9398"/><ellipse cx="67.425" cy="932.0648" fill="#ADD1B2" rx="18.75" ry="18.75" style="stroke:#181818;stroke-width:1.875;"/><path d="M73.05,941.4398 L61.1555,941.4398 L61.1555,922.309 L73.05,922.309 L73.05,925.6488 L64.9348,925.6488 L64.9348,929.7504 L72.2883,929.7504 L72.2883,933.0902 L64.9348,933.0902 L64.9348,938.1 L73.05,938.1 L73.05,941.4398 Z " fill="#000000"/><text fill="#17324D" font-family="sans-serif" font-size="26.25" lengthAdjust="spacing" textLength="318.8837" x="91.8" y="941.1524">REDUCTIONS_ANNONCE</text><line style="stroke:#2F7D5B;stroke-width:0.9375;" x1="43.05" x2="414.4337" y1="960.1898" y2="960.1898"/><g data-visibility-modifier="IE_MANDATORY"><ellipse cx="61.8" cy="985.7807" fill="#000000" rx="5.625" ry="5.625" style="stroke:#000000;stroke-width:1.875;"/></g><text fill="#000000" font-family="sans-serif" font-size="26.25" lengthAdjust="spacing" textLength="235.545" x="76.8" y="992.0557">id_reduction &#171;PK&#187;</text><line style="stroke:#2F7D5B;stroke-width:1.875;" x1="43.05" x2="414.4337" y1="1005.7465" y2="1005.7465"/><text fill="#000000" font-family="sans-serif" font-size="26.25" lengthAdjust="spacing" textLength="222.4969" x="52.425" y="1037.6123">id_annonce &#171;FK&#187;</text><text fill="#000000" font-family="sans-serif" font-size="26.25" lengthAdjust="spacing" textLength="172.6758" x="52.425" y="1068.169">quantite_min</text><text fill="#000000" font-family="sans-serif" font-size="26.25" lengthAdjust="spacing" textLength="166.5619" x="52.425" y="1098.7256">pourcentage</text></g><!--class CMD--><g class="entity" data-qualified-name="Vente . livraison.CMD" data-source-line="35" id="ent0008"><rect fill="#FFFFFF" height="269.5898" rx="11.25" ry="11.25" style="stroke:#2F7D5B;stroke-width:0.9375;" width="304.6326" x="605.175" y="873.3773"/><rect fill="#E4F3EA" height="56.25" rx="11.25" ry="11.25" style="stroke:#E4F3EA;stroke-width:0.9375;" width="304.6326" x="605.175" y="873.3773"/><rect fill="#E4F3EA" height="11.25" style="stroke:#E4F3EA;stroke-width:0.9375;" width="304.6326" x="605.175" y="918.3773"/><rect fill="none" height="269.5898" rx="11.25" ry="11.25" style="stroke:#2F7D5B;stroke-width:0.9375;" width="304.6326" x="605.175" y="873.3773"/><ellipse cx="664.2933" cy="901.5023" fill="#ADD1B2" rx="18.75" ry="18.75" style="stroke:#181818;stroke-width:1.875;"/><path d="M669.9183,910.8773 L658.0238,910.8773 L658.0238,891.7465 L669.9183,891.7465 L669.9183,895.0863 L661.8031,895.0863 L661.8031,899.1879 L669.1566,899.1879 L669.1566,902.5277 L661.8031,902.5277 L661.8031,907.5375 L669.9183,907.5375 L669.9183,910.8773 Z " fill="#000000"/><text fill="#17324D" font-family="sans-serif" font-size="26.25" lengthAdjust="spacing" textLength="175.3418" x="695.9724" y="910.5899">COMMANDES</text><line style="stroke:#2F7D5B;stroke-width:0.9375;" x1="607.05" x2="907.9326" y1="929.6273" y2="929.6273"/><g data-visibility-modifier="IE_MANDATORY"><ellipse cx="625.8" cy="955.2182" fill="#000000" rx="5.625" ry="5.625" style="stroke:#000000;stroke-width:1.875;"/></g><text fill="#000000" font-family="sans-serif" font-size="26.25" lengthAdjust="spacing" textLength="257.7576" x="640.8" y="961.4932">id_commande &#171;PK&#187;</text><line style="stroke:#2F7D5B;stroke-width:1.875;" x1="607.05" x2="907.9326" y1="975.184" y2="975.184"/><text fill="#000000" font-family="sans-serif" font-size="26.25" lengthAdjust="spacing" textLength="222.4969" x="616.425" y="1007.0498">id_annonce &#171;FK&#187;</text><text fill="#000000" font-family="sans-serif" font-size="26.25" lengthAdjust="spacing" textLength="227.0343" x="616.425" y="1037.6065">id_acheteur &#171;FK&#187;</text><text fill="#000000" font-family="sans-serif" font-size="26.25" lengthAdjust="spacing" textLength="167.7795" x="616.425" y="1068.1631">montant_net</text><text fill="#000000" font-family="sans-serif" font-size="26.25" lengthAdjust="spacing" textLength="169.2664" x="616.425" y="1098.7198">mode_retrait</text><text fill="#000000" font-family="sans-serif" font-size="26.25" lengthAdjust="spacing" textLength="77.276" x="616.425" y="1129.2764">statut</text></g><!--class PAY--><g class="entity" data-qualified-name="Vente . livraison.PAY" data-source-line="44" id="ent0009"><rect fill="#FFFFFF" height="208.4766" rx="11.25" ry="11.25" style="stroke:#2F7D5B;stroke-width:0.9375;" width="336.0901" x="521.9625" y="1270.7461"/><rect fill="#E4F3EA" height="56.25" rx="11.25" ry="11.25" style="stroke:#E4F3EA;stroke-width:0.9375;" width="336.0901" x="521.9625" y="1270.7461"/><rect fill="#E4F3EA" height="11.25" style="stroke:#E4F3EA;stroke-width:0.9375;" width="336.0901" x="521.9625" y="1315.7461"/><rect fill="none" height="208.4766" rx="11.25" ry="11.25" style="stroke:#2F7D5B;stroke-width:0.9375;" width="336.0901" x="521.9625" y="1270.7461"/><ellipse cx="607.6668" cy="1298.8711" fill="#ADD1B2" rx="18.75" ry="18.75" style="stroke:#181818;stroke-width:1.875;"/><path d="M613.2918,1308.2461 L601.3973,1308.2461 L601.3973,1289.1152 L613.2918,1289.1152 L613.2918,1292.4551 L605.1766,1292.4551 L605.1766,1296.5566 L612.5301,1296.5566 L612.5301,1299.8965 L605.1766,1299.8965 L605.1766,1304.9063 L613.2918,1304.9063 L613.2918,1308.2461 Z " fill="#000000"/><text fill="#17324D" font-family="sans-serif" font-size="26.25" lengthAdjust="spacing" textLength="149.6814" x="643.2918" y="1307.9586">PAIEMENTS</text><line style="stroke:#2F7D5B;stroke-width:0.9375;" x1="523.8375" x2="856.1776" y1="1326.9961" y2="1326.9961"/><g data-visibility-modifier="IE_MANDATORY"><ellipse cx="542.5875" cy="1352.5869" fill="#000000" rx="5.625" ry="5.625" style="stroke:#000000;stroke-width:1.875;"/></g><text fill="#000000" font-family="sans-serif" font-size="26.25" lengthAdjust="spacing" textLength="235.4297" x="557.5875" y="1358.8619">id_paiement &#171;PK&#187;</text><line style="stroke:#2F7D5B;stroke-width:1.875;" x1="523.8375" x2="856.1776" y1="1372.5527" y2="1372.5527"/><text fill="#000000" font-family="sans-serif" font-size="26.25" lengthAdjust="spacing" textLength="313.5901" x="533.2125" y="1404.4186">id_commande &#171;FK, UQ&#187;</text><text fill="#000000" font-family="sans-serif" font-size="26.25" lengthAdjust="spacing" textLength="172.9193" x="533.2125" y="1434.9752">total_general</text><text fill="#000000" font-family="sans-serif" font-size="26.25" lengthAdjust="spacing" textLength="77.276" x="533.2125" y="1465.5319">statut</text></g><!--class DEL--><g class="entity" data-qualified-name="Vente . livraison.DEL" data-source-line="51" id="ent0010"><rect fill="#FFFFFF" height="239.0332" rx="11.25" ry="11.25" style="stroke:#2F7D5B;stroke-width:0.9375;" width="336.0901" x="923.2125" y="1255.4648"/><rect fill="#E4F3EA" height="56.25" rx="11.25" ry="11.25" style="stroke:#E4F3EA;stroke-width:0.9375;" width="336.0901" x="923.2125" y="1255.4648"/><rect fill="#E4F3EA" height="11.25" style="stroke:#E4F3EA;stroke-width:0.9375;" width="336.0901" x="923.2125" y="1300.4648"/><rect fill="none" height="239.0332" rx="11.25" ry="11.25" style="stroke:#2F7D5B;stroke-width:0.9375;" width="336.0901" x="923.2125" y="1255.4648"/><ellipse cx="1004.8153" cy="1283.5898" fill="#ADD1B2" rx="18.75" ry="18.75" style="stroke:#181818;stroke-width:1.875;"/><path d="M1010.4403,1292.9648 L998.5458,1292.9648 L998.5458,1273.834 L1010.4403,1273.834 L1010.4403,1277.1738 L1002.325,1277.1738 L1002.325,1281.2754 L1009.6786,1281.2754 L1009.6786,1284.6152 L1002.325,1284.6152 L1002.325,1289.625 L1010.4403,1289.625 L1010.4403,1292.9648 Z " fill="#000000"/><text fill="#17324D" font-family="sans-serif" font-size="26.25" lengthAdjust="spacing" textLength="157.8845" x="1040.4403" y="1292.6774">LIVRAISONS</text><line style="stroke:#2F7D5B;stroke-width:0.9375;" x1="925.0875" x2="1257.4276" y1="1311.7148" y2="1311.7148"/><g data-visibility-modifier="IE_MANDATORY"><ellipse cx="943.8375" cy="1337.3057" fill="#000000" rx="5.625" ry="5.625" style="stroke:#000000;stroke-width:1.875;"/></g><text fill="#000000" font-family="sans-serif" font-size="26.25" lengthAdjust="spacing" textLength="221.2537" x="958.8375" y="1343.5807">id_livraison &#171;PK&#187;</text><line style="stroke:#2F7D5B;stroke-width:1.875;" x1="925.0875" x2="1257.4276" y1="1357.2715" y2="1357.2715"/><text fill="#000000" font-family="sans-serif" font-size="26.25" lengthAdjust="spacing" textLength="313.5901" x="934.4625" y="1389.1373">id_commande &#171;FK, UQ&#187;</text><text fill="#000000" font-family="sans-serif" font-size="26.25" lengthAdjust="spacing" textLength="194.35" x="934.4625" y="1419.694">id_livreur &#171;FK&#187;</text><text fill="#000000" font-family="sans-serif" font-size="26.25" lengthAdjust="spacing" textLength="77.276" x="934.4625" y="1450.2506">statut</text><text fill="#000000" font-family="sans-serif" font-size="26.25" lengthAdjust="spacing" textLength="187.6849" x="934.4625" y="1480.8073">verification_qr</text></g><!--class SETTLE--><g class="entity" data-qualified-name="Vente . livraison.SETTLE" data-source-line="59" id="ent0011"><rect fill="#FFFFFF" height="239.0332" rx="11.25" ry="11.25" style="stroke:#2F7D5B;stroke-width:0.9375;" width="298.4161" x="750.7875" y="1607.0086"/><rect fill="#E4F3EA" height="56.25" rx="11.25" ry="11.25" style="stroke:#E4F3EA;stroke-width:0.9375;" width="298.4161" x="750.7875" y="1607.0086"/><rect fill="#E4F3EA" height="11.25" style="stroke:#E4F3EA;stroke-width:0.9375;" width="298.4161" x="750.7875" y="1652.0086"/><rect fill="none" height="239.0332" rx="11.25" ry="11.25" style="stroke:#2F7D5B;stroke-width:0.9375;" width="298.4161" x="750.7875" y="1607.0086"/><ellipse cx="806.0933" cy="1635.1336" fill="#ADD1B2" rx="18.75" ry="18.75" style="stroke:#181818;stroke-width:1.875;"/><path d="M811.7183,1644.5086 L799.8238,1644.5086 L799.8238,1625.3777 L811.7183,1625.3777 L811.7183,1628.7176 L803.6031,1628.7176 L803.6031,1632.8191 L810.9566,1632.8191 L810.9566,1636.159 L803.6031,1636.159 L803.6031,1641.1687 L811.7183,1641.1687 L811.7183,1644.5086 Z " fill="#000000"/><text fill="#17324D" font-family="sans-serif" font-size="26.25" lengthAdjust="spacing" textLength="177.5977" x="836.9252" y="1644.2211">VERSEMENTS</text><line style="stroke:#2F7D5B;stroke-width:0.9375;" x1="752.6625" x2="1047.3286" y1="1663.2586" y2="1663.2586"/><g data-visibility-modifier="IE_MANDATORY"><ellipse cx="771.4125" cy="1688.8494" fill="#000000" rx="5.625" ry="5.625" style="stroke:#000000;stroke-width:1.875;"/></g><text fill="#000000" font-family="sans-serif" font-size="26.25" lengthAdjust="spacing" textLength="251.5411" x="786.4125" y="1695.1244">id_versement &#171;PK&#187;</text><line style="stroke:#2F7D5B;stroke-width:1.875;" x1="752.6625" x2="1047.3286" y1="1708.8152" y2="1708.8152"/><text fill="#000000" font-family="sans-serif" font-size="26.25" lengthAdjust="spacing" textLength="234.6991" x="762.0375" y="1740.6811">id_paiement &#171;FK&#187;</text><text fill="#000000" font-family="sans-serif" font-size="26.25" lengthAdjust="spacing" textLength="264.0381" x="762.0375" y="1771.2377">id_beneficiaire &#171;FK&#187;</text><text fill="#000000" font-family="sans-serif" font-size="26.25" lengthAdjust="spacing" textLength="111.5753" x="762.0375" y="1801.7944">montant</text><text fill="#000000" font-family="sans-serif" font-size="26.25" lengthAdjust="spacing" textLength="77.276" x="762.0375" y="1832.351">statut</text></g><!--class SERVICE--><g class="entity" data-qualified-name="Services v.t.rinaires.SERVICE" data-source-line="70" id="ent0013"><rect fill="#FFFFFF" height="208.4766" rx="11.25" ry="11.25" style="stroke:#2F7D5B;stroke-width:0.9375;" width="388.1049" x="1364.0813" y="524.2711"/><rect fill="#E4F3EA" height="56.25" rx="11.25" ry="11.25" style="stroke:#E4F3EA;stroke-width:0.9375;" width="388.1049" x="1364.0813" y="524.2711"/><rect fill="#E4F3EA" height="11.25" style="stroke:#E4F3EA;stroke-width:0.9375;" width="388.1049" x="1364.0813" y="569.2711"/><rect fill="none" height="208.4766" rx="11.25" ry="11.25" style="stroke:#2F7D5B;stroke-width:0.9375;" width="388.1049" x="1364.0813" y="524.2711"/><ellipse cx="1390.3313" cy="552.3961" fill="#ADD1B2" rx="18.75" ry="18.75" style="stroke:#181818;stroke-width:1.875;"/><path d="M1395.9563,561.7711 L1384.0617,561.7711 L1384.0617,542.6402 L1395.9563,542.6402 L1395.9563,545.9801 L1387.841,545.9801 L1387.841,550.0816 L1395.1945,550.0816 L1395.1945,553.4215 L1387.841,553.4215 L1387.841,558.4312 L1395.9563,558.4312 L1395.9563,561.7711 Z " fill="#000000"/><text fill="#17324D" font-family="sans-serif" font-size="26.25" lengthAdjust="spacing" textLength="331.8549" x="1414.7063" y="561.4836">SERVICES_VETERINAIRES</text><line style="stroke:#2F7D5B;stroke-width:0.9375;" x1="1365.9563" x2="1750.3111" y1="580.5211" y2="580.5211"/><g data-visibility-modifier="IE_MANDATORY"><ellipse cx="1384.7063" cy="606.1119" fill="#000000" rx="5.625" ry="5.625" style="stroke:#000000;stroke-width:1.875;"/></g><text fill="#000000" font-family="sans-serif" font-size="26.25" lengthAdjust="spacing" textLength="204.6167" x="1399.7063" y="612.3869">id_service &#171;PK&#187;</text><line style="stroke:#2F7D5B;stroke-width:1.875;" x1="1365.9563" x2="1750.3111" y1="626.0777" y2="626.0777"/><text fill="#000000" font-family="sans-serif" font-size="26.25" lengthAdjust="spacing" textLength="253.028" x="1375.3313" y="657.9436">id_veterinaire &#171;FK&#187;</text><text fill="#000000" font-family="sans-serif" font-size="26.25" lengthAdjust="spacing" textLength="54.8199" x="1375.3313" y="688.5002">titre</text><text fill="#000000" font-family="sans-serif" font-size="26.25" lengthAdjust="spacing" textLength="50.2826" x="1375.3313" y="719.0569">prix</text></g><!--class APPT--><g class="entity" data-qualified-name="Services v.t.rinaires.APPT" data-source-line="77" id="ent0014"><rect fill="#FFFFFF" height="239.0332" rx="11.25" ry="11.25" style="stroke:#2F7D5B;stroke-width:0.9375;" width="253.1122" x="1465.3125" y="888.6586"/><rect fill="#E4F3EA" height="56.25" rx="11.25" ry="11.25" style="stroke:#E4F3EA;stroke-width:0.9375;" width="253.1122" x="1465.3125" y="888.6586"/><rect fill="#E4F3EA" height="11.25" style="stroke:#E4F3EA;stroke-width:0.9375;" width="253.1122" x="1465.3125" y="933.6586"/><rect fill="none" height="239.0332" rx="11.25" ry="11.25" style="stroke:#2F7D5B;stroke-width:0.9375;" width="253.1122" x="1465.3125" y="888.6586"/><ellipse cx="1491.5625" cy="916.7836" fill="#ADD1B2" rx="18.75" ry="18.75" style="stroke:#181818;stroke-width:1.875;"/><path d="M1497.1875,926.1586 L1485.293,926.1586 L1485.293,907.0277 L1497.1875,907.0277 L1497.1875,910.3676 L1489.0723,910.3676 L1489.0723,914.4691 L1496.4258,914.4691 L1496.4258,917.809 L1489.0723,917.809 L1489.0723,922.8187 L1497.1875,922.8187 L1497.1875,926.1586 Z " fill="#000000"/><text fill="#17324D" font-family="sans-serif" font-size="26.25" lengthAdjust="spacing" textLength="196.8622" x="1515.9375" y="925.8711">RENDEZ_VOUS</text><line style="stroke:#2F7D5B;stroke-width:0.9375;" x1="1467.1875" x2="1716.5497" y1="944.9086" y2="944.9086"/><g data-visibility-modifier="IE_MANDATORY"><ellipse cx="1485.9375" cy="970.4994" fill="#000000" rx="5.625" ry="5.625" style="stroke:#000000;stroke-width:1.875;"/></g><text fill="#000000" font-family="sans-serif" font-size="26.25" lengthAdjust="spacing" textLength="153.5779" x="1500.9375" y="976.7744">id_rdv &#171;PK&#187;</text><line style="stroke:#2F7D5B;stroke-width:1.875;" x1="1467.1875" x2="1716.5497" y1="990.4652" y2="990.4652"/><text fill="#000000" font-family="sans-serif" font-size="26.25" lengthAdjust="spacing" textLength="203.8861" x="1476.5625" y="1022.3311">id_service &#171;FK&#187;</text><text fill="#000000" font-family="sans-serif" font-size="26.25" lengthAdjust="spacing" textLength="208.5645" x="1476.5625" y="1052.8877">id_eleveur &#171;FK&#187;</text><text fill="#000000" font-family="sans-serif" font-size="26.25" lengthAdjust="spacing" textLength="164.2419" x="1476.5625" y="1083.4444">date_prevue</text><text fill="#000000" font-family="sans-serif" font-size="26.25" lengthAdjust="spacing" textLength="77.276" x="1476.5625" y="1114.001">statut</text></g><!--class NOTIF--><g class="entity" data-qualified-name="Communication.NOTIF" data-source-line="88" id="ent0016"><rect fill="#FFFFFF" height="208.4766" rx="11.25" ry="11.25" style="stroke:#2F7D5B;stroke-width:0.9375;" width="305.0812" x="2082.4688" y="524.2711"/><rect fill="#E4F3EA" height="56.25" rx="11.25" ry="11.25" style="stroke:#E4F3EA;stroke-width:0.9375;" width="305.0812" x="2082.4688" y="524.2711"/><rect fill="#E4F3EA" height="11.25" style="stroke:#E4F3EA;stroke-width:0.9375;" width="305.0812" x="2082.4688" y="569.2711"/><rect fill="none" height="208.4766" rx="11.25" ry="11.25" style="stroke:#2F7D5B;stroke-width:0.9375;" width="305.0812" x="2082.4688" y="524.2711"/><ellipse cx="2128.921" cy="552.3961" fill="#ADD1B2" rx="18.75" ry="18.75" style="stroke:#181818;stroke-width:1.875;"/><path d="M2134.546,561.7711 L2122.6514,561.7711 L2122.6514,542.6402 L2134.546,542.6402 L2134.546,545.9801 L2126.4307,545.9801 L2126.4307,550.0816 L2133.7842,550.0816 L2133.7842,553.4215 L2126.4307,553.4215 L2126.4307,558.4312 L2134.546,558.4312 L2134.546,561.7711 Z " fill="#000000"/><text fill="#17324D" font-family="sans-serif" font-size="26.25" lengthAdjust="spacing" textLength="203.9374" x="2157.7853" y="561.4836">NOTIFICATIONS</text><line style="stroke:#2F7D5B;stroke-width:0.9375;" x1="2084.3438" x2="2385.6749" y1="580.5211" y2="580.5211"/><g data-visibility-modifier="IE_MANDATORY"><ellipse cx="2103.0938" cy="606.1119" fill="#000000" rx="5.625" ry="5.625" style="stroke:#000000;stroke-width:1.875;"/></g><text fill="#000000" font-family="sans-serif" font-size="26.25" lengthAdjust="spacing" textLength="258.2062" x="2118.0938" y="612.3869">id_notification &#171;PK&#187;</text><line style="stroke:#2F7D5B;stroke-width:1.875;" x1="2084.3438" x2="2385.6749" y1="626.0777" y2="626.0777"/><text fill="#000000" font-family="sans-serif" font-size="26.25" lengthAdjust="spacing" textLength="242.2998" x="2093.7188" y="657.9436">id_utilisateur &#171;FK&#187;</text><text fill="#000000" font-family="sans-serif" font-size="26.25" lengthAdjust="spacing" textLength="106.8457" x="2093.7188" y="688.5002">contenu</text><text fill="#000000" font-family="sans-serif" font-size="26.25" lengthAdjust="spacing" textLength="23.9301" x="2093.7188" y="719.0569">lu</text></g><!--link USER to ANN--><g class="link" data-entity-1="ent0003" data-entity-2="ent0005" data-link-type="crowfoot" data-source-line="97" id="lnk17"><path codeLine="97" d="M1509.8063,384.0398 C1509.8063,453.4148 1509.8063,516.6586 1509.8063,516.6586 C1509.8063,516.6586 770.0813,516.6586 450.5813,516.6586" fill="none" id="USER-ANN" style="stroke:#456A7D;stroke-width:2.625;"/><line style="stroke:#456A7D;stroke-width:2.625;" x1="1502.3063" x2="1517.3063" y1="376.5398" y2="376.5398"/><line style="stroke:#456A7D;stroke-width:2.625;" x1="1502.3063" x2="1517.3063" y1="382.1648" y2="382.1648"/><line style="stroke:#456A7D;stroke-width:2.625;" x1="1509.8063" x2="1509.8063" y1="384.0398" y2="369.0398"/><line style="stroke:#456A7D;stroke-width:2.625;" x1="431.8313" x2="416.8313" y1="516.6586" y2="527.9086"/><line style="stroke:#456A7D;stroke-width:2.625;" x1="431.8313" x2="416.8313" y1="516.6586" y2="505.4086"/><line style="stroke:#456A7D;stroke-width:2.625;" x1="431.8313" x2="416.8313" y1="516.6586" y2="516.6586"/><ellipse cx="443.0813" cy="516.6586" fill="none" rx="7.5" ry="7.5" style="stroke:#456A7D;stroke-width:2.625;"/><text fill="#29485B" font-family="sans-serif" font-size="26.25" lengthAdjust="spacing" textLength="80.6982" x="954.6375" y="509.1494">publie</text></g><!--link ANN to RED--><g class="link" data-entity-1="ent0005" data-entity-2="ent0006" data-link-type="crowfoot" data-source-line="98" id="lnk18"><path codeLine="98" d="M236.2313,763.6336 C236.2313,813.3961 236.2313,821.7961 236.2313,869.7961" fill="none" id="ANN-RED" style="stroke:#456A7D;stroke-width:2.625;"/><line style="stroke:#456A7D;stroke-width:2.625;" x1="228.7313" x2="243.7313" y1="756.1336" y2="756.1336"/><line style="stroke:#456A7D;stroke-width:2.625;" x1="228.7313" x2="243.7313" y1="761.7586" y2="761.7586"/><line style="stroke:#456A7D;stroke-width:2.625;" x1="236.2313" x2="236.2313" y1="763.6336" y2="748.6336"/><line style="stroke:#456A7D;stroke-width:2.625;" x1="236.2313" x2="247.4813" y1="888.5461" y2="903.5461"/><line style="stroke:#456A7D;stroke-width:2.625;" x1="236.2313" x2="224.9813" y1="888.5461" y2="903.5461"/><line style="stroke:#456A7D;stroke-width:2.625;" x1="236.2313" x2="236.2313" y1="888.5461" y2="903.5461"/><ellipse cx="236.2313" cy="877.2961" fill="none" rx="7.5" ry="7.5" style="stroke:#456A7D;stroke-width:2.625;"/><text fill="#29485B" font-family="sans-serif" font-size="26.25" lengthAdjust="spacing" textLength="113.4467" x="121.8562" y="818.5807">applique</text></g><!--link USER to CMD--><g class="link" data-entity-1="ent0003" data-entity-2="ent0008" data-link-type="crowfoot" data-source-line="99" id="lnk19"><path codeLine="99" d="M1398.1313,201.6586 C1167.4125,201.6586 757.5,201.6586 757.5,201.6586 C757.5,201.6586 757.5,609.8273 757.5,839.4211" fill="none" id="USER-CMD" style="stroke:#456A7D;stroke-width:2.625;"/><line style="stroke:#456A7D;stroke-width:2.625;" x1="1405.6313" x2="1405.6313" y1="194.1586" y2="209.1586"/><line style="stroke:#456A7D;stroke-width:2.625;" x1="1400.0063" x2="1400.0063" y1="194.1586" y2="209.1586"/><line style="stroke:#456A7D;stroke-width:2.625;" x1="1398.1313" x2="1413.1313" y1="201.6586" y2="201.6586"/><line style="stroke:#456A7D;stroke-width:2.625;" x1="757.5" x2="768.75" y1="858.1711" y2="873.1711"/><line style="stroke:#456A7D;stroke-width:2.625;" x1="757.5" x2="746.25" y1="858.1711" y2="873.1711"/><line style="stroke:#456A7D;stroke-width:2.625;" x1="757.5" x2="757.5" y1="858.1711" y2="873.1711"/><ellipse cx="757.5" cy="846.9211" fill="none" rx="7.5" ry="7.5" style="stroke:#456A7D;stroke-width:2.625;"/><text fill="#29485B" font-family="sans-serif" font-size="26.25" lengthAdjust="spacing" textLength="76.2506" x="680.625" y="202.0994">passe</text></g><!--link ANN to CMD--><g class="link" data-entity-1="ent0005" data-entity-2="ent0008" data-link-type="crowfoot" data-source-line="100" id="lnk20"><path codeLine="100" d="M326.2687,763.3336 C326.2687,831.3023 326.2687,887.9086 326.2687,887.9086 C326.2687,887.9086 446.55,887.9086 570.5062,887.9086" fill="none" id="ANN-CMD" style="stroke:#456A7D;stroke-width:2.625;"/><line style="stroke:#456A7D;stroke-width:2.625;" x1="318.7687" x2="333.7687" y1="755.8336" y2="755.8336"/><line style="stroke:#456A7D;stroke-width:2.625;" x1="318.7687" x2="333.7687" y1="761.4586" y2="761.4586"/><line style="stroke:#456A7D;stroke-width:2.625;" x1="326.2687" x2="326.2687" y1="763.3336" y2="748.3336"/><line style="stroke:#456A7D;stroke-width:2.625;" x1="589.2562" x2="604.2562" y1="887.9086" y2="876.6586"/><line style="stroke:#456A7D;stroke-width:2.625;" x1="589.2562" x2="604.2562" y1="887.9086" y2="899.1586"/><line style="stroke:#456A7D;stroke-width:2.625;" x1="589.2562" x2="604.2562" y1="887.9086" y2="887.9086"/><ellipse cx="578.0062" cy="887.9086" fill="none" rx="7.5" ry="7.5" style="stroke:#456A7D;stroke-width:2.625;"/><text fill="#29485B" font-family="sans-serif" font-size="26.25" lengthAdjust="spacing" textLength="121.2909" x="273.6" y="880.3994">concerne</text></g><!--link CMD to PAY--><g class="link" data-entity-1="ent0008" data-entity-2="ent0009" data-link-type="association" data-source-line="101" id="lnk21"><path codeLine="101" d="M731.6063,1158.7148 C731.6063,1200.5461 731.6063,1202.8336 731.6063,1242.2461" fill="none" id="CMD-PAY" style="stroke:#456A7D;stroke-width:2.625;"/><line style="stroke:#456A7D;stroke-width:2.625;" x1="724.1063" x2="739.1063" y1="1151.2148" y2="1151.2148"/><line style="stroke:#456A7D;stroke-width:2.625;" x1="724.1063" x2="739.1063" y1="1156.8398" y2="1156.8398"/><line style="stroke:#456A7D;stroke-width:2.625;" x1="731.6063" x2="731.6063" y1="1158.7148" y2="1143.7148"/><line style="stroke:#456A7D;stroke-width:2.625;" x1="731.6063" x2="731.6063" y1="1248.9961" y2="1270.3711"/><ellipse cx="731.6063" cy="1248.9961" fill="none" rx="8.25" ry="8.25" style="stroke:#456A7D;stroke-width:2.625;"/><line style="stroke:#456A7D;stroke-width:2.625;" x1="739.8562" x2="723.3562" y1="1262.8711" y2="1262.8711"/><text fill="#29485B" font-family="sans-serif" font-size="26.25" lengthAdjust="spacing" textLength="67.0477" x="664.1063" y="1199.5432">r&#232;gle</text></g><!--link CMD to DEL--><g class="link" data-entity-1="ent0008" data-entity-2="ent0010" data-link-type="association" data-source-line="102" id="lnk22"><path codeLine="102" d="M883.9313,1158.7523 C883.9313,1219.5773 883.9313,1262.9086 883.9313,1262.9086 C883.9313,1262.9086 871.5375,1262.9086 894.3188,1262.9086" fill="none" id="CMD-DEL" style="stroke:#456A7D;stroke-width:2.625;"/><line style="stroke:#456A7D;stroke-width:2.625;" x1="876.4313" x2="891.4313" y1="1151.2523" y2="1151.2523"/><line style="stroke:#456A7D;stroke-width:2.625;" x1="876.4313" x2="891.4313" y1="1156.8773" y2="1156.8773"/><line style="stroke:#456A7D;stroke-width:2.625;" x1="883.9313" x2="883.9313" y1="1158.7523" y2="1143.7523"/><line style="stroke:#456A7D;stroke-width:2.625;" x1="901.0688" x2="922.4438" y1="1262.9086" y2="1262.9086"/><ellipse cx="901.0688" cy="1262.9086" fill="none" rx="8.25" ry="8.25" style="stroke:#456A7D;stroke-width:2.625;"/><line style="stroke:#456A7D;stroke-width:2.625;" x1="914.9438" x2="914.9438" y1="1254.6586" y2="1271.1586"/><text fill="#29485B" font-family="sans-serif" font-size="26.25" lengthAdjust="spacing" textLength="265.5377" x="617.6813" y="1248.8182">livraison optionnelle</text></g><!--link USER to DEL--><g class="link" data-entity-1="ent0003" data-entity-2="ent0010" data-link-type="crowfoot" data-source-line="103" id="lnk23"><path codeLine="103" d="M1384.2,284.1586 C1247.2125,284.1586 1091.25,284.1586 1091.25,284.1586 C1091.25,284.1586 1091.25,937.1648 1091.25,1220.8523" fill="none" id="USER-DEL" style="stroke:#456A7D;stroke-width:2.625;"/><line style="stroke:#456A7D;stroke-width:2.625;" x1="1390.95" x2="1412.325" y1="284.1586" y2="284.1586"/><ellipse cx="1390.95" cy="284.1586" fill="none" rx="8.25" ry="8.25" style="stroke:#456A7D;stroke-width:2.625;"/><line style="stroke:#456A7D;stroke-width:2.625;" x1="1404.825" x2="1404.825" y1="275.9086" y2="292.4086"/><line style="stroke:#456A7D;stroke-width:2.625;" x1="1091.25" x2="1102.5" y1="1239.6023" y2="1254.6023"/><line style="stroke:#456A7D;stroke-width:2.625;" x1="1091.25" x2="1080" y1="1239.6023" y2="1254.6023"/><line style="stroke:#456A7D;stroke-width:2.625;" x1="1091.25" x2="1091.25" y1="1239.6023" y2="1254.6023"/><ellipse cx="1091.25" cy="1228.3523" fill="none" rx="7.5" ry="7.5" style="stroke:#456A7D;stroke-width:2.625;"/><text fill="#29485B" font-family="sans-serif" font-size="26.25" lengthAdjust="spacing" textLength="57.063" x="1033.125" y="601.3432">livre</text></g><!--link PAY to SETTLE--><g class="link" data-entity-1="ent0009" data-entity-2="ent0011" data-link-type="crowfoot" data-source-line="104" id="lnk24"><path codeLine="104" d="M804.4125,1494.9773 C804.4125,1534.8398 804.4125,1531.7648 804.4125,1572.9023" fill="none" id="PAY-SETTLE" style="stroke:#456A7D;stroke-width:2.625;"/><line style="stroke:#456A7D;stroke-width:2.625;" x1="796.9125" x2="811.9125" y1="1487.4773" y2="1487.4773"/><line style="stroke:#456A7D;stroke-width:2.625;" x1="796.9125" x2="811.9125" y1="1493.1023" y2="1493.1023"/><line style="stroke:#456A7D;stroke-width:2.625;" x1="804.4125" x2="804.4125" y1="1494.9773" y2="1479.9773"/><line style="stroke:#456A7D;stroke-width:2.625;" x1="804.4125" x2="815.6625" y1="1591.6523" y2="1606.6523"/><line style="stroke:#456A7D;stroke-width:2.625;" x1="804.4125" x2="793.1625" y1="1591.6523" y2="1606.6523"/><line style="stroke:#456A7D;stroke-width:2.625;" x1="804.4125" x2="804.4125" y1="1591.6523" y2="1606.6523"/><ellipse cx="804.4125" cy="1580.4023" fill="none" rx="7.5" ry="7.5" style="stroke:#456A7D;stroke-width:2.625;"/><text fill="#29485B" font-family="sans-serif" font-size="26.25" lengthAdjust="spacing" textLength="134.5441" x="669.4125" y="1535.8057">d&#233;clenche</text></g><!--link USER to SETTLE--><g class="link" data-entity-1="ent0003" data-entity-2="ent0011" data-link-type="crowfoot" data-source-line="105" id="lnk25"><path codeLine="105" d="M1397.5313,242.9086 C1208.2313,242.9086 916.5188,242.9086 916.5188,242.9086 C916.5188,242.9086 916.5188,1219.4086 916.5188,1572.6211" fill="none" id="USER-SETTLE" style="stroke:#456A7D;stroke-width:2.625;"/><line style="stroke:#456A7D;stroke-width:2.625;" x1="1405.0313" x2="1405.0313" y1="235.4086" y2="250.4086"/><line style="stroke:#456A7D;stroke-width:2.625;" x1="1399.4063" x2="1399.4063" y1="235.4086" y2="250.4086"/><line style="stroke:#456A7D;stroke-width:2.625;" x1="1397.5313" x2="1412.5313" y1="242.9086" y2="242.9086"/><line style="stroke:#456A7D;stroke-width:2.625;" x1="916.5188" x2="927.7688" y1="1591.3711" y2="1606.3711"/><line style="stroke:#456A7D;stroke-width:2.625;" x1="916.5188" x2="905.2688" y1="1591.3711" y2="1606.3711"/><line style="stroke:#456A7D;stroke-width:2.625;" x1="916.5188" x2="916.5188" y1="1591.3711" y2="1606.3711"/><ellipse cx="916.5188" cy="1580.1211" fill="none" rx="7.5" ry="7.5" style="stroke:#456A7D;stroke-width:2.625;"/><text fill="#29485B" font-family="sans-serif" font-size="26.25" lengthAdjust="spacing" textLength="75.0201" x="839.6438" y="669.1244">re&#231;oit</text></g><!--link USER to SERVICE--><g class="link" data-entity-1="ent0003" data-entity-2="ent0013" data-link-type="crowfoot" data-source-line="106" id="lnk26"><path codeLine="106" d="M1606.4438,384.0398 C1606.4438,432.6023 1606.4438,441.4148 1606.4438,489.9773" fill="none" id="USER-SERVICE" style="stroke:#456A7D;stroke-width:2.625;"/><line style="stroke:#456A7D;stroke-width:2.625;" x1="1598.9438" x2="1613.9438" y1="376.5398" y2="376.5398"/><line style="stroke:#456A7D;stroke-width:2.625;" x1="1598.9438" x2="1613.9438" y1="382.1648" y2="382.1648"/><line style="stroke:#456A7D;stroke-width:2.625;" x1="1606.4438" x2="1606.4438" y1="384.0398" y2="369.0398"/><line style="stroke:#456A7D;stroke-width:2.625;" x1="1606.4438" x2="1617.6938" y1="508.7273" y2="523.7273"/><line style="stroke:#456A7D;stroke-width:2.625;" x1="1606.4438" x2="1595.1938" y1="508.7273" y2="523.7273"/><line style="stroke:#456A7D;stroke-width:2.625;" x1="1606.4438" x2="1606.4438" y1="508.7273" y2="523.7273"/><ellipse cx="1606.4438" cy="497.4773" fill="none" rx="7.5" ry="7.5" style="stroke:#456A7D;stroke-width:2.625;"/><text fill="#29485B" font-family="sans-serif" font-size="26.25" lengthAdjust="spacing" textLength="106.0638" x="1499.5688" y="438.8744">propose</text></g><!--link SERVICE to APPT--><g class="link" data-entity-1="ent0013" data-entity-2="ent0014" data-link-type="crowfoot" data-source-line="107" id="lnk27"><path codeLine="107" d="M1591.875,748.2586 C1591.875,796.3336 1591.875,804.8273 1591.875,854.6086" fill="none" id="SERVICE-APPT" style="stroke:#456A7D;stroke-width:2.625;"/><line style="stroke:#456A7D;stroke-width:2.625;" x1="1584.375" x2="1599.375" y1="740.7586" y2="740.7586"/><line style="stroke:#456A7D;stroke-width:2.625;" x1="1584.375" x2="1599.375" y1="746.3836" y2="746.3836"/><line style="stroke:#456A7D;stroke-width:2.625;" x1="1591.875" x2="1591.875" y1="748.2586" y2="733.2586"/><line style="stroke:#456A7D;stroke-width:2.625;" x1="1591.875" x2="1603.125" y1="873.3586" y2="888.3586"/><line style="stroke:#456A7D;stroke-width:2.625;" x1="1591.875" x2="1580.625" y1="873.3586" y2="888.3586"/><line style="stroke:#456A7D;stroke-width:2.625;" x1="1591.875" x2="1591.875" y1="873.3586" y2="888.3586"/><ellipse cx="1591.875" cy="862.1086" fill="none" rx="7.5" ry="7.5" style="stroke:#456A7D;stroke-width:2.625;"/><text fill="#29485B" font-family="sans-serif" font-size="26.25" lengthAdjust="spacing" textLength="121.2909" x="1470" y="803.2994">concerne</text></g><!--link USER to APPT--><g class="link" data-entity-1="ent0003" data-entity-2="ent0014" data-link-type="crowfoot" data-source-line="108" id="lnk28"><path codeLine="108" d="M1397.625,327.2836 C1344.2813,327.2836 1311.675,327.2836 1311.675,327.2836 C1311.675,327.2836 1311.675,1007.9086 1311.675,1007.9086 C1311.675,1007.9086 1357.0125,1007.9086 1431.15,1007.9086" fill="none" id="USER-APPT" style="stroke:#456A7D;stroke-width:2.625;"/><line style="stroke:#456A7D;stroke-width:2.625;" x1="1405.125" x2="1405.125" y1="319.7836" y2="334.7836"/><line style="stroke:#456A7D;stroke-width:2.625;" x1="1399.5" x2="1399.5" y1="319.7836" y2="334.7836"/><line style="stroke:#456A7D;stroke-width:2.625;" x1="1397.625" x2="1412.625" y1="327.2836" y2="327.2836"/><line style="stroke:#456A7D;stroke-width:2.625;" x1="1449.9" x2="1464.9" y1="1007.9086" y2="996.6586"/><line style="stroke:#456A7D;stroke-width:2.625;" x1="1449.9" x2="1464.9" y1="1007.9086" y2="1019.1586"/><line style="stroke:#456A7D;stroke-width:2.625;" x1="1449.9" x2="1464.9" y1="1007.9086" y2="1007.9086"/><ellipse cx="1438.65" cy="1007.9086" fill="none" rx="7.5" ry="7.5" style="stroke:#456A7D;stroke-width:2.625;"/><text fill="#29485B" font-family="sans-serif" font-size="26.25" lengthAdjust="spacing" textLength="123.9185" x="1186.05" y="686.2244">demande</text></g><!--link USER to NOTIF--><g class="link" data-entity-1="ent0003" data-entity-2="ent0016" data-link-type="crowfoot" data-source-line="109" id="lnk29"><path codeLine="109" d="M1718.325,263.5336 C1917.225,263.5336 2235,263.5336 2235,263.5336 C2235,263.5336 2235,381.8648 2235,489.6773" fill="none" id="USER-NOTIF" style="stroke:#456A7D;stroke-width:2.625;"/><line style="stroke:#456A7D;stroke-width:2.625;" x1="1710.825" x2="1710.825" y1="271.0336" y2="256.0336"/><line style="stroke:#456A7D;stroke-width:2.625;" x1="1716.45" x2="1716.45" y1="271.0336" y2="256.0336"/><line style="stroke:#456A7D;stroke-width:2.625;" x1="1718.325" x2="1703.325" y1="263.5336" y2="263.5336"/><line style="stroke:#456A7D;stroke-width:2.625;" x1="2235" x2="2246.25" y1="508.4273" y2="523.4273"/><line style="stroke:#456A7D;stroke-width:2.625;" x1="2235" x2="2223.75" y1="508.4273" y2="523.4273"/><line style="stroke:#456A7D;stroke-width:2.625;" x1="2235" x2="2235" y1="508.4273" y2="523.4273"/><ellipse cx="2235" cy="497.1773" fill="none" rx="7.5" ry="7.5" style="stroke:#456A7D;stroke-width:2.625;"/><text fill="#29485B" font-family="sans-serif" font-size="26.25" lengthAdjust="spacing" textLength="75.0201" x="2022.2437" y="256.0244">re&#231;oit</text></g><g class="legend" data-source-line="111"><rect fill="none" height="148.4766" rx="11.25" ry="11.25" style="stroke:#000000;stroke-width:1.875;" width="413.5895" x="1967.6605" y="1909.7836"/><text fill="#000000" font-family="sans-serif" font-size="26.25" font-weight="bold" lengthAdjust="spacing" textLength="171.9452" x="1986.1743" y="1947.2744">Abr&#233;viation</text><text fill="#000000" font-family="sans-serif" font-size="26.25" font-weight="bold" lengthAdjust="spacing" textLength="186.3391" x="2176.3971" y="1947.2744">Signification</text><text fill="#000000" font-family="sans-serif" font-size="26.25" lengthAdjust="spacing" textLength="33.0432" x="1985.3796" y="1977.8311">PK</text><text fill="#000000" font-family="sans-serif" font-size="26.25" lengthAdjust="spacing" textLength="156.8591" x="2175.6024" y="1977.8311">cl&#233; primaire</text><text fill="#000000" font-family="sans-serif" font-size="26.25" lengthAdjust="spacing" textLength="32.3126" x="1985.3796" y="2008.3877">FK</text><text fill="#000000" font-family="sans-serif" font-size="26.25" lengthAdjust="spacing" textLength="175.9314" x="2175.6024" y="2008.3877">cl&#233; &#233;trang&#232;re</text><text fill="#000000" font-family="sans-serif" font-size="26.25" lengthAdjust="spacing" textLength="39.8749" x="1985.3796" y="2038.9444">UQ</text><text fill="#000000" font-family="sans-serif" font-size="26.25" lengthAdjust="spacing" textLength="180.8533" x="2175.6024" y="2038.9444">valeur unique</text><line style="stroke:#000000;stroke-width:1.875;" x1="1977.0355" x2="2371.875" y1="1922.9086" y2="1922.9086"/><line style="stroke:#000000;stroke-width:1.875;" x1="1977.0355" x2="2371.875" y1="1953.4652" y2="1953.4652"/><line style="stroke:#000000;stroke-width:1.875;" x1="1977.0355" x2="2371.875" y1="1984.0219" y2="1984.0219"/><line style="stroke:#000000;stroke-width:1.875;" x1="1977.0355" x2="2371.875" y1="2014.5785" y2="2014.5785"/><line style="stroke:#000000;stroke-width:1.875;" x1="1977.0355" x2="2371.875" y1="2045.1352" y2="2045.1352"/><line style="stroke:#000000;stroke-width:1.875;" x1="1977.0355" x2="1977.0355" y1="1922.9086" y2="2045.1352"/><line style="stroke:#000000;stroke-width:1.875;" x1="2167.2583" x2="2167.2583" y1="1922.9086" y2="2045.1352"/><line style="stroke:#000000;stroke-width:1.875;" x1="2371.875" x2="2371.875" y1="1922.9086" y2="2045.1352"/></g><?plantuml-src bLLBRjim4Dth56mMNHHr3s2a0GH71eJ4drYoWNOZqDBK8KgH2aK93U82FKJlqFWSkabFqY4bMvBj1Ct69cT8pfitCq_lc8XvaG196DqecaQvVkJmYHKfTnmjCw8bMKkjPOed5CIQIU5efZcG8BwlTYab2ZWrPW6S_FtrcsYwvf2JJE7JBAEuTfoCnj_f1iZ5KZFESggXKFa5UN880O7FFQ8dz6_zm0szvIAu83Gdoy1Rs1E4V20iYOhsAhcydDzSNLdVO63_8AMCetrvrzYLv60NkQQwqBZywVpi81bHJRdS5D27uKwdi-d8go7Wfek02Y5536UYdy0RxmyW3J-YGZ1DaJvhUIYeYNK2hiMmyAwNez2VJOEeWMFHeBcBHa5Is7gSnzE2FM3PHuvI9cfmib0nHaL2JlXPeHt8Uy9PgIZBfUZpD9fD9kxqkY5gDEb1YsMQKf70VoCprlWUZibB9M8JEXAWctq2cBT6GFfb-kQkxqsyQLX3cxjVkj0ooY35a-UXTO2FRpwIGpDfYSqIRK20elpboBV-Qk7w0HREXhxsRhkX3qo-BNPpyuYQGtn2Ib3i6ulj44OFwWZJobi47Je2BmnllIuil9w_Gac7i6wvriW51cMchS-KxBN92q2LB4Q9AAkThdQe4-QH8pd0uL_vE8VHoWkzXJzr_OMtpy1wkYdazOld4oYnhPeONQ0OfXb8Cw8d4uYj_JLQpPQD4CpdOM_sal9yi1P9bopWK1xLBq6bY385PV6wIc5Je7hKnUqpD9s5_jWVkLOeB4fhwS8KKXywuqsg5MCLGHHspOizAgl8s-rW89-iD0v9Lgmv0yTi6hiHgI6XMSRP0wRMlM940g_GFE_TgCsnaGGbm35RwzdQqHqILJrlUCzkvchO2XEHMVFzuVk0qhxSdWF7lDK4R4PWI99g5tCGA3mzd0U_WkgFHANfE-lkmqIKp2IcihViYJ6jqicdHrhjIy0EUizLrwwDwN10kKc8OfjxqnRRpyHTgsfNihgQk0_OHhJbtPf3P7w3Fp6lTgQhKzlpjMDySE3GAIesrVF1jxp3dnA_rDW4s6nODtHWy1h2Fm00?></g></svg>