<?xml version="1.0" encoding="us-ascii" standalone="no"?><svg xmlns="http://www.w3.org/2000/svg" xmlns:xlink="http://www.w3.org/1999/xlink" contentStyleType="text/css" height="1374.375px" preserveAspectRatio="none" style="width:1593px;height:1374px;background:#FFFFFF;" version="1.1" viewBox="0 0 1593 1374" width="1593.75px" zoomAndPan="magnify"><defs/><g><text fill="#17324D" font-family="sans-serif" font-size="37.5" font-weight="bold" lengthAdjust="spacing" textLength="429.375" x="585.4688" y="67.0532">Rendez-vous v&#233;t&#233;rinaire</text><rect fill="#F4FAF6" height="337.998" rx="11.25" ry="11.25" style="stroke:#9CB4C1;stroke-width:2.8125;" width="1564.6875" x="18.75" y="747.4512"/><line style="stroke:#9CB4C1;stroke-width:0.9375;stroke-dasharray:5.0,5.0;" x1="88.125" x2="88.125" y1="241.4355" y2="1220.8594"/><line style="stroke:#9CB4C1;stroke-width:0.9375;stroke-dasharray:5.0,5.0;" x1="532.5" x2="532.5" y1="241.4355" y2="1220.8594"/><line style="stroke:#9CB4C1;stroke-width:0.9375;stroke-dasharray:5.0,5.0;" x1="935.625" x2="935.625" y1="241.4355" y2="1220.8594"/><line style="stroke:#9CB4C1;stroke-width:0.9375;stroke-dasharray:5.0,5.0;" x1="1294.6875" x2="1294.6875" y1="241.4355" y2="1220.8594"/><line style="stroke:#9CB4C1;stroke-width:0.9375;stroke-dasharray:5.0,5.0;" x1="1493.4375" x2="1493.4375" y1="241.4355" y2="1220.8594"/><text fill="#000000" font-family="sans-serif" font-size="26.25" lengthAdjust="spacing" textLength="90" x="37.5" y="235.6677">&#201;leveur</text><ellipse cx="88.125" cy="111.8555" fill="#FFFFFF" rx="15" ry="15" style="stroke:#2F7D5B;stroke-width:0.9375;"/><path d="M88.125,126.8555 L88.125,177.4805 M63.75,141.8555 L112.5,141.8555 M88.125,177.4805 L63.75,205.6055 M88.125,177.4805 L112.5,205.6055 " fill="none" style="stroke:#2F7D5B;stroke-width:0.9375;"/><text fill="#000000" font-family="sans-serif" font-size="26.25" lengthAdjust="spacing" textLength="90" x="37.5" y="1246.2341">&#201;leveur</text><ellipse cx="88.125" cy="1267.9395" fill="#FFFFFF" rx="15" ry="15" style="stroke:#2F7D5B;stroke-width:0.9375;"/><path d="M88.125,1282.9395 L88.125,1333.5645 M63.75,1297.9395 L112.5,1297.9395 M88.125,1333.5645 L63.75,1361.6895 M88.125,1333.5645 L112.5,1361.6895 " fill="none" style="stroke:#2F7D5B;stroke-width:0.9375;"/><text fill="#000000" font-family="sans-serif" font-size="26.25" lengthAdjust="spacing" textLength="157.5" x="448.125" y="235.6677">Interface web</text><path d="M494.0625,155.918 L494.0625,200.918 M494.0625,178.418 L525.9375,178.418 " fill="none" style="stroke:#181818;stroke-width:0.9375;"/><ellipse cx="548.4375" cy="178.418" fill="#E2E2F0" rx="22.5" ry="22.5" style="stroke:#181818;stroke-width:0.9375;"/><text fill="#000000" font-family="sans-serif" font-size="26.25" lengthAdjust="spacing" textLength="157.5" x="448.125" y="1246.2341">Interface web</text><path d="M494.0625,1259.502 L494.0625,1304.502 M494.0625,1282.002 L525.9375,1282.002 " fill="none" style="stroke:#181818;stroke-width:0.9375;"/><ellipse cx="548.4375" cy="1282.002" fill="#E2E2F0" rx="22.5" ry="22.5" style="stroke:#181818;stroke-width:0.9375;"/><text fill="#000000" font-family="sans-serif" font-size="26.25" lengthAdjust="spacing" textLength="150" x="855" y="235.6677">ElevConnect</text><ellipse cx="935.625" cy="178.418" fill="#E2E2F0" rx="22.5" ry="22.5" style="stroke:#181818;stroke-width:0.9375;"/><polygon fill="#181818" points="928.125,155.918,939.375,146.543,935.625,155.918,939.375,165.293,928.125,155.918" style="stroke:#181818;stroke-width:1.875;"/><text fill="#000000" font-family="sans-serif" font-size="26.25" lengthAdjust="spacing" textLength="150" x="855" y="1246.2341">ElevConnect</text><ellipse cx="935.625" cy="1282.002" fill="#E2E2F0" rx="22.5" ry="22.5" style="stroke:#181818;stroke-width:0.9375;"/><polygon fill="#181818" points="928.125,1259.502,939.375,1250.127,935.625,1259.502,939.375,1268.877,928.125,1259.502" style="stroke:#181818;stroke-width:1.875;"/><text fill="#000000" font-family="sans-serif" font-size="26.25" lengthAdjust="spacing" textLength="208.125" x="1185.9375" y="235.6677">Base de donn&#233;es</text><path d="M1261.875,140.918 C1261.875,122.168 1295.625,122.168 1295.625,122.168 C1295.625,122.168 1329.375,122.168 1329.375,140.918 L1329.375,189.668 C1329.375,208.418 1295.625,208.418 1295.625,208.418 C1295.625,208.418 1261.875,208.418 1261.875,189.668 L1261.875,140.918 " fill="#E2E2F0" style="stroke:#181818;stroke-width:2.8125;"/><path d="M1261.875,140.918 C1261.875,159.668 1295.625,159.668 1295.625,159.668 C1295.625,159.668 1329.375,159.668 1329.375,140.918 " fill="none" style="stroke:#181818;stroke-width:2.8125;"/><text fill="#000000" font-family="sans-serif" font-size="26.25" lengthAdjust="spacing" textLength="208.125" x="1185.9375" y="1246.2341">Base de donn&#233;es</text><path d="M1261.875,1270.752 C1261.875,1252.002 1295.625,1252.002 1295.625,1252.002 C1295.625,1252.002 1329.375,1252.002 1329.375,1270.752 L1329.375,1319.502 C1329.375,1338.252 1295.625,1338.252 1295.625,1338.252 C1295.625,1338.252 1261.875,1338.252 1261.875,1319.502 L1261.875,1270.752 " fill="#E2E2F0" style="stroke:#181818;stroke-width:2.8125;"/><path d="M1261.875,1270.752 C1261.875,1289.502 1295.625,1289.502 1295.625,1289.502 C1295.625,1289.502 1329.375,1289.502 1329.375,1270.752 " fill="none" style="stroke:#181818;stroke-width:2.8125;"/><text fill="#000000" font-family="sans-serif" font-size="26.25" lengthAdjust="spacing" textLength="129.375" x="1424.0625" y="235.6677">V&#233;t&#233;rinaire</text><ellipse cx="1494.375" cy="111.8555" fill="#FFFFFF" rx="15" ry="15" style="stroke:#2F7D5B;stroke-width:0.9375;"/><path d="M1494.375,126.8555 L1494.375,177.4805 M1470,141.8555 L1518.75,141.8555 M1494.375,177.4805 L1470,205.6055 M1494.375,177.4805 L1518.75,205.6055 " fill="none" style="stroke:#2F7D5B;stroke-width:0.9375;"/><text fill="#000000" font-family="sans-serif" font-size="26.25" lengthAdjust="spacing" textLength="129.375" x="1424.0625" y="1246.2341">V&#233;t&#233;rinaire</text><ellipse cx="1494.375" cy="1267.9395" fill="#FFFFFF" rx="15" ry="15" style="stroke:#2F7D5B;stroke-width:0.9375;"/><path d="M1494.375,1282.9395 L1494.375,1333.5645 M1470,1297.9395 L1518.75,1297.9395 M1494.375,1333.5645 L1470,1361.6895 M1494.375,1333.5645 L1518.75,1361.6895 " fill="none" style="stroke:#2F7D5B;stroke-width:0.9375;"/><polygon fill="#456A7D" points="510,296.9531,528.75,304.4531,510,311.9531,517.5,304.4531" style="stroke:#456A7D;stroke-width:1.875;"/><line style="stroke:#456A7D;stroke-width:2.625;" x1="88.125" x2="521.25" y1="304.4531" y2="304.4531"/><text fill="#29485B" font-family="sans-serif" font-size="26.25" font-weight="bold" lengthAdjust="spacing" textLength="15" x="101.25" y="294.9353">1</text><text fill="#29485B" font-family="sans-serif" font-size="26.25" lengthAdjust="spacing" textLength="376.875" x="123.75" y="294.9353">choisit un service et un cr&#233;neau</text><polygon fill="#456A7D" points="913.125,356.2207,931.875,363.7207,913.125,371.2207,920.625,363.7207" style="stroke:#456A7D;stroke-width:1.875;"/><line style="stroke:#456A7D;stroke-width:2.625;" x1="532.5" x2="924.375" y1="363.7207" y2="363.7207"/><text fill="#29485B" font-family="sans-serif" font-size="26.25" font-weight="bold" lengthAdjust="spacing" textLength="15" x="545.625" y="354.2029">2</text><text fill="#29485B" font-family="sans-serif" font-size="26.25" lengthAdjust="spacing" textLength="288.75" x="568.125" y="354.2029">demanderRendezVous()</text><polygon fill="#456A7D" points="1273.125,415.4883,1291.875,422.9883,1273.125,430.4883,1280.625,422.9883" style="stroke:#456A7D;stroke-width:1.875;"/><line style="stroke:#456A7D;stroke-width:2.625;" x1="935.625" x2="1284.375" y1="422.9883" y2="422.9883"/><text fill="#29485B" font-family="sans-serif" font-size="26.25" font-weight="bold" lengthAdjust="spacing" textLength="15" x="948.75" y="413.4705">3</text><text fill="#29485B" font-family="sans-serif" font-size="26.25" lengthAdjust="spacing" textLength="266.25" x="971.25" y="413.4705">enregistre la demande</text><polygon fill="#456A7D" points="1471.875,474.7559,1490.625,482.2559,1471.875,489.7559,1479.375,482.2559" style="stroke:#456A7D;stroke-width:1.875;"/><line style="stroke:#456A7D;stroke-width:2.625;" x1="935.625" x2="1483.125" y1="482.2559" y2="482.2559"/><text fill="#29485B" font-family="sans-serif" font-size="26.25" font-weight="bold" lengthAdjust="spacing" textLength="15" x="948.75" y="472.738">4</text><text fill="#29485B" font-family="sans-serif" font-size="26.25" lengthAdjust="spacing" textLength="217.5" x="971.25" y="472.738">notifie la demande</text><polygon fill="#456A7D" points="553.125,534.0234,534.375,541.5234,553.125,549.0234,545.625,541.5234" style="stroke:#456A7D;stroke-width:1.875;"/><line style="stroke:#456A7D;stroke-width:2.625;" x1="541.875" x2="1492.5" y1="541.5234" y2="541.5234"/><text fill="#29485B" font-family="sans-serif" font-size="26.25" font-weight="bold" lengthAdjust="spacing" textLength="15" x="564.375" y="532.0056">5</text><text fill="#29485B" font-family="sans-serif" font-size="26.25" lengthAdjust="spacing" textLength="221.25" x="586.875" y="532.0056">confirme ou refuse</text><polygon fill="#456A7D" points="913.125,593.291,931.875,600.791,913.125,608.291,920.625,600.791" style="stroke:#456A7D;stroke-width:1.875;"/><line style="stroke:#456A7D;stroke-width:2.625;" x1="532.5" x2="924.375" y1="600.791" y2="600.791"/><text fill="#29485B" font-family="sans-serif" font-size="26.25" font-weight="bold" lengthAdjust="spacing" textLength="15" x="545.625" y="591.2732">6</text><text fill="#29485B" font-family="sans-serif" font-size="26.25" lengthAdjust="spacing" textLength="335.625" x="568.125" y="591.2732">traiterRendezVous(d&#233;cision)</text><polygon fill="#456A7D" points="1273.125,652.5586,1291.875,660.0586,1273.125,667.5586,1280.625,660.0586" style="stroke:#456A7D;stroke-width:1.875;"/><line style="stroke:#456A7D;stroke-width:2.625;" x1="935.625" x2="1284.375" y1="660.0586" y2="660.0586"/><text fill="#29485B" font-family="sans-serif" font-size="26.25" font-weight="bold" lengthAdjust="spacing" textLength="15" x="948.75" y="650.5408">7</text><text fill="#29485B" font-family="sans-serif" font-size="26.25" lengthAdjust="spacing" textLength="219.375" x="971.25" y="650.5408">met &#224; jour le statut</text><polygon fill="#456A7D" points="108.75,711.8262,90,719.3262,108.75,726.8262,101.25,719.3262" style="stroke:#456A7D;stroke-width:1.875;"/><line style="stroke:#456A7D;stroke-width:2.625;" x1="97.5" x2="933.75" y1="719.3262" y2="719.3262"/><text fill="#29485B" font-family="sans-serif" font-size="26.25" font-weight="bold" lengthAdjust="spacing" textLength="15" x="120" y="709.8083">8</text><text fill="#29485B" font-family="sans-serif" font-size="26.25" lengthAdjust="spacing" textLength="204.375" x="142.5" y="709.8083">notifie la d&#233;cision</text><path d="M30,747.4512 L146.25,747.4512 L146.25,765.4688 L127.5,784.2188 L18.75,784.2188 L18.75,758.7012 A11.25,11.25 0 0 1 30,747.4512 " fill="#F7FBFD" style="stroke:#9CB4C1;stroke-width:2.8125;"/><rect fill="none" height="337.998" rx="11.25" ry="11.25" style="stroke:#9CB4C1;stroke-width:2.8125;" width="1564.6875" x="18.75" y="747.4512"/><text fill="#000000" font-family="sans-serif" font-size="26.25" font-weight="bold" lengthAdjust="spacing" textLength="43.125" x="46.875" y="776.5759">opt</text><text fill="#000000" font-family="sans-serif" font-size="26.25" font-weight="bold" lengthAdjust="spacing" textLength="309.375" x="174.375" y="778.4509">[rendez-vous confirm&#233;]</text><polygon fill="#456A7D" points="553.125,825.8789,534.375,833.3789,553.125,840.8789,545.625,833.3789" style="stroke:#456A7D;stroke-width:1.875;"/><line style="stroke:#456A7D;stroke-width:2.625;" x1="541.875" x2="1492.5" y1="833.3789" y2="833.3789"/><text fill="#29485B" font-family="sans-serif" font-size="26.25" font-weight="bold" lengthAdjust="spacing" textLength="15" x="564.375" y="823.8611">9</text><text fill="#29485B" font-family="sans-serif" font-size="26.25" lengthAdjust="spacing" textLength="262.5" x="586.875" y="823.8611">cl&#244;ture le rendez-vous</text><polygon fill="#456A7D" points="913.125,885.1465,931.875,892.6465,913.125,900.1465,920.625,892.6465" style="stroke:#456A7D;stroke-width:1.875;"/><line style="stroke:#456A7D;stroke-width:2.625;" x1="532.5" x2="924.375" y1="892.6465" y2="892.6465"/><text fill="#29485B" font-family="sans-serif" font-size="26.25" font-weight="bold" lengthAdjust="spacing" textLength="30" x="545.625" y="883.1287">10</text><text fill="#29485B" font-family="sans-serif" font-size="26.25" lengthAdjust="spacing" textLength="206.25" x="583.125" y="883.1287">marquerR&#233;alis&#233;()</text><polygon fill="#456A7D" points="1273.125,944.4141,1291.875,951.9141,1273.125,959.4141,1280.625,951.9141" style="stroke:#456A7D;stroke-width:1.875;"/><line style="stroke:#456A7D;stroke-width:2.625;" x1="935.625" x2="1284.375" y1="951.9141" y2="951.9141"/><text fill="#29485B" font-family="sans-serif" font-size="26.25" font-weight="bold" lengthAdjust="spacing" textLength="30" x="948.75" y="942.3962">11</text><text fill="#29485B" font-family="sans-serif" font-size="26.25" lengthAdjust="spacing" textLength="277.5" x="986.25" y="942.3962">enregistre la r&#233;alisation</text><polygon fill="#456A7D" points="510,1003.6816,528.75,1011.1816,510,1018.6816,517.5,1011.1816" style="stroke:#456A7D;stroke-width:1.875;"/><line style="stroke:#456A7D;stroke-width:2.625;" x1="88.125" x2="521.25" y1="1011.1816" y2="1011.1816"/><text fill="#29485B" font-family="sans-serif" font-size="26.25" font-weight="bold" lengthAdjust="spacing" textLength="30" x="101.25" y="1001.6638">12</text><text fill="#29485B" font-family="sans-serif" font-size="26.25" lengthAdjust="spacing" textLength="159.375" x="138.75" y="1001.6638">laisse un avis</text><polygon fill="#456A7D" points="913.125,1062.9492,931.875,1070.4492,913.125,1077.9492,920.625,1070.4492" style="stroke:#456A7D;stroke-width:1.875;"/><line style="stroke:#456A7D;stroke-width:2.625;" x1="532.5" x2="924.375" y1="1070.4492" y2="1070.4492"/><text fill="#29485B" font-family="sans-serif" font-size="26.25" font-weight="bold" lengthAdjust="spacing" textLength="30" x="545.625" y="1060.9314">13</text><text fill="#29485B" font-family="sans-serif" font-size="26.25" lengthAdjust="spacing" textLength="196.875" x="583.125" y="1060.9314">enregistrerAvis()</text><path d="M31.875,1119.1992 L31.875,1181.0742 A11.25,11.25 0 0 0 43.125,1192.3242 L1537.5,1192.3242 A11.25,11.25 0 0 0 1548.75,1181.0742 L1548.75,1126.6992 L1530,1107.9492 L43.125,1107.9492 A11.25,11.25 0 0 0 31.875,1119.1992 " fill="#FFF8E8" style="stroke:#E5AE45;stroke-width:0.9375;"/><path d="M1530,1107.9492 L1530,1121.0742 A5.625,5.625 0 0 0 1535.625,1126.6992 L1548.75,1126.6992 L1530,1107.9492 " fill="#FFF8E8" style="stroke:#E5AE45;stroke-width:0.9375;"/><text fill="#5B481E" font-family="sans-serif" font-size="26.25" lengthAdjust="spacing" textLength="380.625" x="592.0313" y="1144.574">Le r&#232;glement se fait directement</text><text fill="#5B481E" font-family="sans-serif" font-size="26.25" lengthAdjust="spacing" textLength="367.5" x="592.0313" y="1177.5916">entre l'&#233;leveur et le v&#233;t&#233;rinaire.</text><!--SRC=[ZPRDRjj64CVl-nG3z-0MI0nBeYAvXmAaHAO134E87DzNv53QcjnLTvTodLEklVS1UYplUGE-IP-aGufALX9DLx04cFFRcVzy4BENiBJF6KAiyhoGyE-Nlo0HVArvdgE1CCFTJ4c9iMMNi7nu3pz3gdJEBUpecT82Cv1eeVeRh2eiWkKYo_0A5dSrYtzibRQmuRKfgSfKI665abVCF0gvvHG6LZn-N6jLo6IcCgNXXwZvE4Io5J2ONZjFp8Odwad8DQGyC-XO6aUnqX8r38QE8HEaytcBG88solMEAIyo6obfxtYEiEJIB56Bj9jPYiy80yyntWkROU_nRqHpU7ZTPMgJ7qn6Gs_k0BxMwgarUkDt_kJCw9mUtdZJSN0At6z4_2ZH61XSkSBlbCMWe_hJS7fAAPsWRebmx8VU-8HmH8m3Rpe87Vk2Ol3riPCRFvZuamxeJ8yN-T6xSz2jMKGXHzt8VhfNAalSgiHMx8HzFWzs7KsZKHVfQXz6a_bnbLkgjuyjCnSyLpBfgljeFkqvu2gOJs_6mwWpenT5pZ9kJF3goxR7UjDja5-H4tBcB_IYKUYVmds52QNjRCMfi9RhLRPd-g8jBUyO-d0UJQB16TORgq7wGdqo67FJ4SodcPvsW6wuKJZnRgxFeTxSyFS2POot8gMlF7dXPe4t6_JHhtRWS6B1jHMns79fNq-kwr1leeS3VhrV_h-eFTxViHPzJmwtvvudKH3DNyGxQibehIbPv2lKZDVXeVgJ5YOM6ZZjpjkGhMh_N3_3nGTfKQSyHdZ2rKLj__I1nTHChJAuSFPiO_CN2vPmorVKSRW8wj-4_eYeIZGDCW_Qc0zLQQjI2yc5njho4DupPkkz0XzH9lZvxKuL1dP776Ea3zx-GZ9eJySR9OomG3S0WtedI2Os_yMwAYNoWX56CEaYEi6Sar-zz_v0pd_yYTKc8kP1lVQbnhKmbk9a_80V2997Y5HMfEB8pchBDqLAfaBJFbK5Q4mBMlAk1Akvi4SAw7OHKmvA7al9zvUJtnGrXGfYwAKjx86eIt0ivU24CRMr5FXx-Lf1LSa0ZeHcrLTRr9cYonFbwisvfc7I7wkIPy9K9HKCuEMIwJt7wxiIWMwhCYuCZGFrXk_4QPZlNhHFLef2YXYZ3AcGExeIaQStpO00t9BUwfzrXZbAIssdgnHDG4B34Tlc6J7qMmkwhCfshgcQbEVHA5tLCUeYudy0]--></g></svg>