<?xml version="1.0" encoding="us-ascii" standalone="no"?><svg xmlns="http://www.w3.org/2000/svg" xmlns:xlink="http://www.w3.org/1999/xlink" contentStyleType="text/css" height="796px" preserveAspectRatio="none" style="width:1114px;height:796px;background:#FFFFFF;" version="1.1" viewBox="0 0 1114 796" width="1114px" zoomAndPan="magnify"><defs/><g><rect fill="none" height="155.5938" style="stroke:#000000;stroke-width:1.5;" width="1006.5" x="10" y="523.7891"/><line style="stroke:#181818;stroke-width:0.5;stroke-dasharray:5.0,5.0;" x1="186" x2="186" y1="100.2188" y2="696.3828"/><line style="stroke:#181818;stroke-width:0.5;stroke-dasharray:5.0,5.0;" x1="405.5" x2="405.5" y1="100.2188" y2="696.3828"/><line style="stroke:#181818;stroke-width:0.5;stroke-dasharray:5.0,5.0;" x1="700.5" x2="700.5" y1="100.2188" y2="696.3828"/><line style="stroke:#181818;stroke-width:0.5;stroke-dasharray:5.0,5.0;" x1="947.5" x2="947.5" y1="100.2188" y2="696.3828"/><line style="stroke:#181818;stroke-width:0.5;stroke-dasharray:5.0,5.0;" x1="1064.5" x2="1064.5" y1="100.2188" y2="696.3828"/><text fill="#000000" font-family="sans-serif" font-size="14" lengthAdjust="spacing" textLength="76" x="145" y="79.5332">Fournisseur</text><text fill="#000000" font-family="sans-serif" font-size="14" lengthAdjust="spacing" textLength="326" x="20" y="97.1426">(&#201;leveur / Vendeur provende / Vendeur accessoire)</text><ellipse cx="186" cy="13.5" fill="#E2E2F0" rx="8" ry="8" style="stroke:#181818;stroke-width:0.5;"/><path d="M186,21.5 L186,48.5 M173,29.5 L199,29.5 M186,48.5 L173,63.5 M186,48.5 L199,63.5 " fill="none" style="stroke:#181818;stroke-width:0.5;"/><text fill="#000000" font-family="sans-serif" font-size="14" lengthAdjust="spacing" textLength="76" x="145" y="709.916">Fournisseur</text><text fill="#000000" font-family="sans-serif" font-size="14" lengthAdjust="spacing" textLength="326" x="20" y="727.5254">(&#201;leveur / Vendeur provende / Vendeur accessoire)</text><ellipse cx="186" cy="739.1016" fill="#E2E2F0" rx="8" ry="8" style="stroke:#181818;stroke-width:0.5;"/><path d="M186,747.1016 L186,774.1016 M173,755.1016 L199,755.1016 M186,774.1016 L173,789.1016 M186,774.1016 L199,789.1016 " fill="none" style="stroke:#181818;stroke-width:0.5;"/><rect fill="#E2E2F0" height="31.6094" rx="2.5" ry="2.5" style="stroke:#181818;stroke-width:0.5;" width="69" x="371.5" y="67.6094"/><text fill="#000000" font-family="sans-serif" font-size="14" lengthAdjust="spacing" textLength="55" x="378.5" y="89.1426">Interface</text><rect fill="#E2E2F0" height="31.6094" rx="2.5" ry="2.5" style="stroke:#181818;stroke-width:0.5;" width="69" x="371.5" y="695.3828"/><text fill="#000000" font-family="sans-serif" font-size="14" lengthAdjust="spacing" textLength="55" x="378.5" y="716.916">Interface</text><rect fill="#E2E2F0" height="31.6094" rx="2.5" ry="2.5" style="stroke:#181818;stroke-width:0.5;" width="137" x="632.5" y="67.6094"/><text fill="#000000" font-family="sans-serif" font-size="14" lengthAdjust="spacing" textLength="123" x="639.5" y="89.1426">Contr&#244;leurAnnonce</text><rect fill="#E2E2F0" height="31.6094" rx="2.5" ry="2.5" style="stroke:#181818;stroke-width:0.5;" width="137" x="632.5" y="695.3828"/><text fill="#000000" font-family="sans-serif" font-size="14" lengthAdjust="spacing" textLength="123" x="639.5" y="716.916">Contr&#244;leurAnnonce</text><text fill="#000000" font-family="sans-serif" font-size="14" lengthAdjust="spacing" textLength="111" x="889.5" y="97.1426">Base de donn&#233;es</text><path d="M930,46.6094 C930,36.6094 948,36.6094 948,36.6094 C948,36.6094 966,36.6094 966,46.6094 L966,72.6094 C966,82.6094 948,82.6094 948,82.6094 C948,82.6094 930,82.6094 930,72.6094 L930,46.6094 " fill="#E2E2F0" style="stroke:#181818;stroke-width:1.5;"/><path d="M930,46.6094 C930,56.6094 948,56.6094 948,56.6094 C948,56.6094 966,56.6094 966,46.6094 " fill="none" style="stroke:#181818;stroke-width:1.5;"/><text fill="#000000" font-family="sans-serif" font-size="14" lengthAdjust="spacing" textLength="111" x="889.5" y="709.916">Base de donn&#233;es</text><path d="M930,722.9922 C930,712.9922 948,712.9922 948,712.9922 C948,712.9922 966,712.9922 966,722.9922 L966,748.9922 C966,758.9922 948,758.9922 948,758.9922 C948,758.9922 930,758.9922 930,748.9922 L930,722.9922 " fill="#E2E2F0" style="stroke:#181818;stroke-width:1.5;"/><path d="M930,722.9922 C930,732.9922 948,732.9922 948,732.9922 C948,732.9922 966,732.9922 966,722.9922 " fill="none" style="stroke:#181818;stroke-width:1.5;"/><text fill="#000000" font-family="sans-serif" font-size="14" lengthAdjust="spacing" textLength="91" x="1016.5" y="97.1426">Administrateur</text><ellipse cx="1065" cy="31.1094" fill="#E2E2F0" rx="8" ry="8" style="stroke:#181818;stroke-width:0.5;"/><path d="M1065,39.1094 L1065,66.1094 M1052,47.1094 L1078,47.1094 M1065,66.1094 L1052,81.1094 M1065,66.1094 L1078,81.1094 " fill="none" style="stroke:#181818;stroke-width:0.5;"/><text fill="#000000" font-family="sans-serif" font-size="14" lengthAdjust="spacing" textLength="91" x="1016.5" y="709.916">Administrateur</text><ellipse cx="1065" cy="721.4922" fill="#E2E2F0" rx="8" ry="8" style="stroke:#181818;stroke-width:0.5;"/><path d="M1065,729.4922 L1065,756.4922 M1052,737.4922 L1078,737.4922 M1065,756.4922 L1052,771.4922 M1065,756.4922 L1078,771.4922 " fill="none" style="stroke:#181818;stroke-width:0.5;"/><polygon fill="#181818" points="394,144.9219,404,148.9219,394,152.9219,398,148.9219" style="stroke:#181818;stroke-width:1.0;"/><line style="stroke:#181818;stroke-width:1.0;" x1="186" x2="400" y1="148.9219" y2="148.9219"/><text fill="#000000" font-family="sans-serif" font-size="13" lengthAdjust="spacing" textLength="175" x="193" y="127.7139">remplit le formulaire d'annonce</text><text fill="#000000" font-family="sans-serif" font-size="13" lengthAdjust="spacing" textLength="130" x="193" y="144.0654">+ bar&#232;me de r&#233;duction</text><polygon fill="#181818" points="689,175.2734,699,179.2734,689,183.2734,693,179.2734" style="stroke:#181818;stroke-width:1.0;"/><line style="stroke:#181818;stroke-width:1.0;" x1="406" x2="695" y1="179.2734" y2="179.2734"/><text fill="#000000" font-family="sans-serif" font-size="13" lengthAdjust="spacing" textLength="242" x="413" y="174.417">soumettre(donn&#233;esAnnonce, reductions[])</text><line style="stroke:#181818;stroke-width:1.0;" x1="701" x2="743" y1="209.625" y2="209.625"/><line style="stroke:#181818;stroke-width:1.0;" x1="743" x2="743" y1="209.625" y2="222.625"/><line style="stroke:#181818;stroke-width:1.0;" x1="702" x2="743" y1="222.625" y2="222.625"/><polygon fill="#181818" points="712,218.625,702,222.625,712,226.625,708,222.625" style="stroke:#181818;stroke-width:1.0;"/><text fill="#000000" font-family="sans-serif" font-size="13" lengthAdjust="spacing" textLength="155" x="708" y="204.7686">valider les donn&#233;es saisies</text><line style="stroke:#181818;stroke-width:1.0;" x1="701" x2="743" y1="252.9766" y2="252.9766"/><line style="stroke:#181818;stroke-width:1.0;" x1="743" x2="743" y1="252.9766" y2="265.9766"/><line style="stroke:#181818;stroke-width:1.0;" x1="702" x2="743" y1="265.9766" y2="265.9766"/><polygon fill="#181818" points="712,261.9766,702,265.9766,712,269.9766,708,265.9766" style="stroke:#181818;stroke-width:1.0;"/><text fill="#000000" font-family="sans-serif" font-size="13" lengthAdjust="spacing" textLength="233" x="708" y="248.1201">d&#233;duire type_annonce du r&#244;le de l'auteur</text><polygon fill="#181818" points="936,292.3281,946,296.3281,936,300.3281,940,296.3281" style="stroke:#181818;stroke-width:1.0;"/><line style="stroke:#181818;stroke-width:1.0;" x1="701" x2="942" y1="296.3281" y2="296.3281"/><text fill="#000000" font-family="sans-serif" font-size="13" lengthAdjust="spacing" textLength="221" x="708" y="291.4717">INSERT annonce (statut = en_attente)</text><polygon fill="#181818" points="936,322.6797,946,326.6797,936,330.6797,940,326.6797" style="stroke:#181818;stroke-width:1.0;"/><line style="stroke:#181818;stroke-width:1.0;" x1="701" x2="942" y1="326.6797" y2="326.6797"/><text fill="#000000" font-family="sans-serif" font-size="13" lengthAdjust="spacing" textLength="221" x="708" y="321.8232">INSERT reductions_annonce (bar&#232;me)</text><polygon fill="#181818" points="712,353.0313,702,357.0313,712,361.0313,708,357.0313" style="stroke:#181818;stroke-width:1.0;"/><line style="stroke:#181818;stroke-width:1.0;stroke-dasharray:2.0,2.0;" x1="706" x2="947" y1="357.0313" y2="357.0313"/><text fill="#000000" font-family="sans-serif" font-size="13" lengthAdjust="spacing" textLength="148" x="718" y="352.1748">confirmation (id_annonce)</text><polygon fill="#181818" points="1053,383.3828,1063,387.3828,1053,391.3828,1057,387.3828" style="stroke:#181818;stroke-width:1.0;"/><line style="stroke:#181818;stroke-width:1.0;" x1="701" x2="1059" y1="387.3828" y2="387.3828"/><text fill="#000000" font-family="sans-serif" font-size="13" lengthAdjust="spacing" textLength="231" x="708" y="382.5264">notification(nouvelle annonce &#224; mod&#233;rer)</text><polygon fill="#181818" points="417,413.7344,407,417.7344,417,421.7344,413,417.7344" style="stroke:#181818;stroke-width:1.0;"/><line style="stroke:#181818;stroke-width:1.0;stroke-dasharray:2.0,2.0;" x1="411" x2="700" y1="417.7344" y2="417.7344"/><text fill="#000000" font-family="sans-serif" font-size="13" lengthAdjust="spacing" textLength="102" x="423" y="412.8779">annonce soumise</text><polygon fill="#181818" points="197,444.0859,187,448.0859,197,452.0859,193,448.0859" style="stroke:#181818;stroke-width:1.0;"/><line style="stroke:#181818;stroke-width:1.0;stroke-dasharray:2.0,2.0;" x1="191" x2="405" y1="448.0859" y2="448.0859"/><text fill="#000000" font-family="sans-serif" font-size="13" lengthAdjust="spacing" textLength="196" x="203" y="443.2295">affiche &#171; en attente de validation &#187;</text><polygon fill="#181818" points="417,474.4375,407,478.4375,417,482.4375,413,478.4375" style="stroke:#181818;stroke-width:1.0;"/><line style="stroke:#181818;stroke-width:1.0;" x1="411" x2="1064" y1="478.4375" y2="478.4375"/><text fill="#000000" font-family="sans-serif" font-size="13" lengthAdjust="spacing" textLength="169" x="423" y="473.5811">consulte l'annonce en attente</text><polygon fill="#181818" points="689,504.7891,699,508.7891,689,512.7891,693,508.7891" style="stroke:#181818;stroke-width:1.0;"/><line style="stroke:#181818;stroke-width:1.0;" x1="406" x2="695" y1="508.7891" y2="508.7891"/><text fill="#000000" font-family="sans-serif" font-size="13" lengthAdjust="spacing" textLength="271" x="413" y="503.9326">modererAnnonce(id_annonce, decision, motif?)</text><path d="M10,523.7891 L71,523.7891 L71,532.1406 L61,542.1406 L10,542.1406 L10,523.7891 " fill="#EEEEEE" style="stroke:#000000;stroke-width:1.5;"/><rect fill="none" height="155.5938" style="stroke:#000000;stroke-width:1.5;" width="1006.5" x="10" y="523.7891"/><text fill="#000000" font-family="sans-serif" font-size="13" font-weight="bold" lengthAdjust="spacing" textLength="16" x="25" y="538.2842">alt</text><text fill="#000000" font-family="sans-serif" font-size="11" font-weight="bold" lengthAdjust="spacing" textLength="124" x="86" y="537.208">[d&#233;cision = approuver]</text><polygon fill="#181818" points="936,560.4922,946,564.4922,936,568.4922,940,564.4922" style="stroke:#181818;stroke-width:1.0;"/><line style="stroke:#181818;stroke-width:1.0;" x1="701" x2="942" y1="564.4922" y2="564.4922"/><text fill="#000000" font-family="sans-serif" font-size="13" lengthAdjust="spacing" textLength="140" x="708" y="559.6357">UPDATE statut = visible</text><polygon fill="#181818" points="197,590.8438,187,594.8438,197,598.8438,193,594.8438" style="stroke:#181818;stroke-width:1.0;"/><line style="stroke:#181818;stroke-width:1.0;" x1="191" x2="700" y1="594.8438" y2="594.8438"/><text fill="#000000" font-family="sans-serif" font-size="13" lengthAdjust="spacing" textLength="235" x="203" y="589.9873">notification(annonce approuv&#233;e et visible)</text><line style="stroke:#000000;stroke-width:1.0;stroke-dasharray:2.0,2.0;" x1="10" x2="1016.5" y1="603.8438" y2="603.8438"/><text fill="#000000" font-family="sans-serif" font-size="11" font-weight="bold" lengthAdjust="spacing" textLength="105" x="15" y="615.2627">[d&#233;cision = rejeter]</text><polygon fill="#181818" points="936,637.0313,946,641.0313,936,645.0313,940,641.0313" style="stroke:#181818;stroke-width:1.0;"/><line style="stroke:#181818;stroke-width:1.0;" x1="701" x2="942" y1="641.0313" y2="641.0313"/><text fill="#000000" font-family="sans-serif" font-size="13" lengthAdjust="spacing" textLength="212" x="708" y="636.1748">UPDATE statut = rejetee, motif_rejet</text><polygon fill="#181818" points="197,667.3828,187,671.3828,197,675.3828,193,671.3828" style="stroke:#181818;stroke-width:1.0;"/><line style="stroke:#181818;stroke-width:1.0;" x1="191" x2="700" y1="671.3828" y2="671.3828"/><text fill="#000000" font-family="sans-serif" font-size="13" lengthAdjust="spacing" textLength="202" x="203" y="666.5264">notification(annonce rejet&#233;e : motif)</text><!--SRC=[ZLFDZjCm4BxxAKQzR2AwuhuIe7QxIBqW1BjSM5HDuwamSkp8dbJY4NWBZgouSkEsUJ76ZjEV5H9SgjJ-_kQR11ls0MQlVH-SYP7wSE-guPkblJp2S_X0JgUdBlXzUZmvmgQX6Bq9LCy08oGDrM5WqvWE7SDixPZ23XlAztVhyzjhxpWClwneBPpphi2kELYbaN6BaM2sJB_YgxrpmmF5Z5aj5Ox15xer4fm3ikZaIpbIAeM1ovTY2bSGgEsiOR04En_QtgA41ds1e-szUmPR3CEFDZk5uK7t3HllbB158oKIbUZxbfW3LLEM4dik1eKHFtwgLSOVUNkqHbCGztYO0YAQQ2W-nUhadSBnruus9H_e7d9HAPszm3wDUc2kbi9Rltb_y-uM9a8L6RbdU07aDiXCieZwhunZyeDRLRgebG0lZzaQxtOcj9ZGK1az4Ox2qhpWd6UpCqt6LSxtUx8IVL8VlaFhPSn0OI9EQveWgMWJARSlTtcLShiJqSy4ZpzbA2X3fKPolsEgnzzAfH2JeaIElUNSMX4_Si-tAw58CfMLdemt5uz6bkNTN40osgjQeUMqgl5OMiPElWyPD2Y0ivRltguMjpTmMCTU65jB9x0otLbfKzOYAoyC44_SMf5DdyI9VQ0lnFys7s5KnjZal_-P96DJZgkHB26S_WC0]--></g></svg>