<?xml version="1.0" encoding="us-ascii" standalone="no"?><svg xmlns="http://www.w3.org/2000/svg" xmlns:xlink="http://www.w3.org/1999/xlink" contentStyleType="text/css" height="1610.625px" preserveAspectRatio="none" style="width:1912px;height:1610px;background:#FFFFFF;" version="1.1" viewBox="0 0 1912 1610" width="1912.5px" zoomAndPan="magnify"><defs/><g><text fill="#17324D" font-family="sans-serif" font-size="37.5" font-weight="bold" lengthAdjust="spacing" textLength="624.375" x="647.3438" y="67.0532">Paiement, s&#233;questre et versements</text><rect fill="#F4FAF6" height="278.7305" rx="11.25" ry="11.25" style="stroke:#9CB4C1;stroke-width:2.8125;" width="1161.5625" x="740.625" y="1147.3242"/><line style="stroke:#9CB4C1;stroke-width:0.9375;stroke-dasharray:5.0,5.0;" x1="67.5" x2="67.5" y1="241.4355" y2="1457.9297"/><line style="stroke:#9CB4C1;stroke-width:0.9375;stroke-dasharray:5.0,5.0;" x1="383.4375" x2="383.4375" y1="241.4355" y2="1457.9297"/><line style="stroke:#9CB4C1;stroke-width:0.9375;stroke-dasharray:5.0,5.0;" x1="866.25" x2="866.25" y1="241.4355" y2="1457.9297"/><line style="stroke:#9CB4C1;stroke-width:0.9375;stroke-dasharray:5.0,5.0;" x1="1208.4375" x2="1208.4375" y1="241.4355" y2="1457.9297"/><line style="stroke:#9CB4C1;stroke-width:0.9375;stroke-dasharray:5.0,5.0;" x1="1487.8125" x2="1487.8125" y1="241.4355" y2="1457.9297"/><line style="stroke:#9CB4C1;stroke-width:0.9375;stroke-dasharray:5.0,5.0;" x1="1694.0625" x2="1694.0625" y1="241.4355" y2="1457.9297"/><line style="stroke:#9CB4C1;stroke-width:0.9375;stroke-dasharray:5.0,5.0;" x1="1836.5625" x2="1836.5625" y1="241.4355" y2="1457.9297"/><text fill="#000000" font-family="sans-serif" font-size="26.25" lengthAdjust="spacing" textLength="106.875" x="9.375" y="235.6677">Acheteur</text><ellipse cx="68.4375" cy="111.8555" fill="#FFFFFF" rx="15" ry="15" style="stroke:#2F7D5B;stroke-width:0.9375;"/><path d="M68.4375,126.8555 L68.4375,177.4805 M44.0625,141.8555 L92.8125,141.8555 M68.4375,177.4805 L44.0625,205.6055 M68.4375,177.4805 L92.8125,205.6055 " fill="none" style="stroke:#2F7D5B;stroke-width:0.9375;"/><text fill="#000000" font-family="sans-serif" font-size="26.25" lengthAdjust="spacing" textLength="106.875" x="9.375" y="1483.3044">Acheteur</text><ellipse cx="68.4375" cy="1505.0098" fill="#FFFFFF" rx="15" ry="15" style="stroke:#2F7D5B;stroke-width:0.9375;"/><path d="M68.4375,1520.0098 L68.4375,1570.6348 M44.0625,1535.0098 L92.8125,1535.0098 M68.4375,1570.6348 L44.0625,1598.7598 M68.4375,1570.6348 L92.8125,1598.7598 " fill="none" style="stroke:#2F7D5B;stroke-width:0.9375;"/><text fill="#000000" font-family="sans-serif" font-size="26.25" lengthAdjust="spacing" textLength="157.5" x="299.0625" y="235.6677">Interface web</text><path d="M345,155.918 L345,200.918 M345,178.418 L376.875,178.418 " fill="none" style="stroke:#181818;stroke-width:0.9375;"/><ellipse cx="399.375" cy="178.418" fill="#E2E2F0" rx="22.5" ry="22.5" style="stroke:#181818;stroke-width:0.9375;"/><text fill="#000000" font-family="sans-serif" font-size="26.25" lengthAdjust="spacing" textLength="157.5" x="299.0625" y="1483.3044">Interface web</text><path d="M345,1496.5723 L345,1541.5723 M345,1519.0723 L376.875,1519.0723 " fill="none" style="stroke:#181818;stroke-width:0.9375;"/><ellipse cx="399.375" cy="1519.0723" fill="#E2E2F0" rx="22.5" ry="22.5" style="stroke:#181818;stroke-width:0.9375;"/><text fill="#000000" font-family="sans-serif" font-size="26.25" lengthAdjust="spacing" textLength="204.375" x="759.375" y="235.6677">Service paiement</text><ellipse cx="867.1875" cy="178.418" fill="#E2E2F0" rx="22.5" ry="22.5" style="stroke:#181818;stroke-width:0.9375;"/><polygon fill="#181818" points="859.6875,155.918,870.9375,146.543,867.1875,155.918,870.9375,165.293,859.6875,155.918" style="stroke:#181818;stroke-width:1.875;"/><text fill="#000000" font-family="sans-serif" font-size="26.25" lengthAdjust="spacing" textLength="204.375" x="759.375" y="1483.3044">Service paiement</text><ellipse cx="867.1875" cy="1519.0723" fill="#E2E2F0" rx="22.5" ry="22.5" style="stroke:#181818;stroke-width:0.9375;"/><polygon fill="#181818" points="859.6875,1496.5723,870.9375,1487.1973,867.1875,1496.5723,870.9375,1505.9473,859.6875,1496.5723" style="stroke:#181818;stroke-width:1.875;"/><rect fill="#EAF4F8" height="59.2676" rx="11.25" ry="11.25" style="stroke:#3E7490;stroke-width:0.9375;" width="303.75" x="1056.5625" y="180.293"/><text fill="#000000" font-family="sans-serif" font-size="26.25" lengthAdjust="spacing" textLength="277.5" x="1069.6875" y="220.6677">Passerelle de paiement</text><rect fill="#EAF4F8" height="59.2676" rx="11.25" ry="11.25" style="stroke:#3E7490;stroke-width:0.9375;" width="303.75" x="1056.5625" y="1456.0547"/><text fill="#000000" font-family="sans-serif" font-size="26.25" lengthAdjust="spacing" textLength="277.5" x="1069.6875" y="1496.4294">Passerelle de paiement</text><text fill="#000000" font-family="sans-serif" font-size="26.25" lengthAdjust="spacing" textLength="208.125" x="1379.0625" y="235.6677">Base de donn&#233;es</text><path d="M1455,140.918 C1455,122.168 1488.75,122.168 1488.75,122.168 C1488.75,122.168 1522.5,122.168 1522.5,140.918 L1522.5,189.668 C1522.5,208.418 1488.75,208.418 1488.75,208.418 C1488.75,208.418 1455,208.418 1455,189.668 L1455,140.918 " fill="#E2E2F0" style="stroke:#181818;stroke-width:2.8125;"/><path d="M1455,140.918 C1455,159.668 1488.75,159.668 1488.75,159.668 C1488.75,159.668 1522.5,159.668 1522.5,140.918 " fill="none" style="stroke:#181818;stroke-width:2.8125;"/><text fill="#000000" font-family="sans-serif" font-size="26.25" lengthAdjust="spacing" textLength="208.125" x="1379.0625" y="1483.3044">Base de donn&#233;es</text><path d="M1455,1507.8223 C1455,1489.0723 1488.75,1489.0723 1488.75,1489.0723 C1488.75,1489.0723 1522.5,1489.0723 1522.5,1507.8223 L1522.5,1556.5723 C1522.5,1575.3223 1488.75,1575.3223 1488.75,1575.3223 C1488.75,1575.3223 1455,1575.3223 1455,1556.5723 L1455,1507.8223 " fill="#E2E2F0" style="stroke:#181818;stroke-width:2.8125;"/><path d="M1455,1507.8223 C1455,1526.5723 1488.75,1526.5723 1488.75,1526.5723 C1488.75,1526.5723 1522.5,1526.5723 1522.5,1507.8223 " fill="none" style="stroke:#181818;stroke-width:2.8125;"/><text fill="#000000" font-family="sans-serif" font-size="26.25" lengthAdjust="spacing" textLength="142.5" x="1617.1875" y="235.6677">Fournisseur</text><ellipse cx="1694.0625" cy="111.8555" fill="#FFFFFF" rx="15" ry="15" style="stroke:#2F7D5B;stroke-width:0.9375;"/><path d="M1694.0625,126.8555 L1694.0625,177.4805 M1669.6875,141.8555 L1718.4375,141.8555 M1694.0625,177.4805 L1669.6875,205.6055 M1694.0625,177.4805 L1718.4375,205.6055 " fill="none" style="stroke:#2F7D5B;stroke-width:0.9375;"/><text fill="#000000" font-family="sans-serif" font-size="26.25" lengthAdjust="spacing" textLength="142.5" x="1617.1875" y="1483.3044">Fournisseur</text><ellipse cx="1694.0625" cy="1505.0098" fill="#FFFFFF" rx="15" ry="15" style="stroke:#2F7D5B;stroke-width:0.9375;"/><path d="M1694.0625,1520.0098 L1694.0625,1570.6348 M1669.6875,1535.0098 L1718.4375,1535.0098 M1694.0625,1570.6348 L1669.6875,1598.7598 M1694.0625,1570.6348 L1718.4375,1598.7598 " fill="none" style="stroke:#2F7D5B;stroke-width:0.9375;"/><text fill="#000000" font-family="sans-serif" font-size="26.25" lengthAdjust="spacing" textLength="82.5" x="1789.6875" y="235.6677">Livreur</text><ellipse cx="1836.5625" cy="111.8555" fill="#FFFFFF" rx="15" ry="15" style="stroke:#2F7D5B;stroke-width:0.9375;"/><path d="M1836.5625,126.8555 L1836.5625,177.4805 M1812.1875,141.8555 L1860.9375,141.8555 M1836.5625,177.4805 L1812.1875,205.6055 M1836.5625,177.4805 L1860.9375,205.6055 " fill="none" style="stroke:#2F7D5B;stroke-width:0.9375;"/><text fill="#000000" font-family="sans-serif" font-size="26.25" lengthAdjust="spacing" textLength="82.5" x="1789.6875" y="1483.3044">Livreur</text><ellipse cx="1836.5625" cy="1505.0098" fill="#FFFFFF" rx="15" ry="15" style="stroke:#2F7D5B;stroke-width:0.9375;"/><path d="M1836.5625,1520.0098 L1836.5625,1570.6348 M1812.1875,1535.0098 L1860.9375,1535.0098 M1836.5625,1570.6348 L1812.1875,1598.7598 M1836.5625,1570.6348 L1860.9375,1598.7598 " fill="none" style="stroke:#2F7D5B;stroke-width:0.9375;"/><polygon fill="#456A7D" points="360.9375,296.9531,379.6875,304.4531,360.9375,311.9531,368.4375,304.4531" style="stroke:#456A7D;stroke-width:1.875;"/><line style="stroke:#456A7D;stroke-width:2.625;" x1="68.4375" x2="372.1875" y1="304.4531" y2="304.4531"/><text fill="#29485B" font-family="sans-serif" font-size="26.25" font-weight="bold" lengthAdjust="spacing" textLength="15" x="81.5625" y="294.9353">1</text><text fill="#29485B" font-family="sans-serif" font-size="26.25" lengthAdjust="spacing" textLength="245.625" x="104.0625" y="294.9353">confirme le paiement</text><polygon fill="#456A7D" points="844.6875,356.2207,863.4375,363.7207,844.6875,371.2207,852.1875,363.7207" style="stroke:#456A7D;stroke-width:1.875;"/><line style="stroke:#456A7D;stroke-width:2.625;" x1="383.4375" x2="855.9375" y1="363.7207" y2="363.7207"/><text fill="#29485B" font-family="sans-serif" font-size="26.25" font-weight="bold" lengthAdjust="spacing" textLength="15" x="396.5625" y="354.2029">2</text><text fill="#29485B" font-family="sans-serif" font-size="26.25" lengthAdjust="spacing" textLength="416.25" x="419.0625" y="354.2029">initierPaiement(commande, moyen)</text><polygon fill="#456A7D" points="1185.9375,415.4883,1204.6875,422.9883,1185.9375,430.4883,1193.4375,422.9883" style="stroke:#456A7D;stroke-width:1.875;"/><line style="stroke:#456A7D;stroke-width:2.625;" x1="867.1875" x2="1197.1875" y1="422.9883" y2="422.9883"/><text fill="#29485B" font-family="sans-serif" font-size="26.25" font-weight="bold" lengthAdjust="spacing" textLength="15" x="880.3125" y="413.4705">3</text><text fill="#29485B" font-family="sans-serif" font-size="26.25" lengthAdjust="spacing" textLength="168.75" x="902.8125" y="413.4705">d&#233;biter le total</text><polygon fill="#456A7D" points="887.8125,474.7559,869.0625,482.2559,887.8125,489.7559,880.3125,482.2559" style="stroke:#456A7D;stroke-width:1.875;"/><line style="stroke:#456A7D;stroke-width:2.625;stroke-dasharray:2.0,2.0;" x1="876.5625" x2="1206.5625" y1="482.2559" y2="482.2559"/><text fill="#29485B" font-family="sans-serif" font-size="26.25" font-weight="bold" lengthAdjust="spacing" textLength="15" x="899.0625" y="472.738">4</text><text fill="#29485B" font-family="sans-serif" font-size="26.25" lengthAdjust="spacing" textLength="210" x="921.5625" y="472.738">paiement accept&#233;</text><polygon fill="#456A7D" points="1466.25,534.0234,1485,541.5234,1466.25,549.0234,1473.75,541.5234" style="stroke:#456A7D;stroke-width:1.875;"/><line style="stroke:#456A7D;stroke-width:2.625;" x1="867.1875" x2="1477.5" y1="541.5234" y2="541.5234"/><text fill="#29485B" font-family="sans-serif" font-size="26.25" font-weight="bold" lengthAdjust="spacing" textLength="15" x="880.3125" y="532.0056">5</text><text fill="#29485B" font-family="sans-serif" font-size="26.25" lengthAdjust="spacing" textLength="390" x="902.8125" y="532.0056">enregistre le paiement s&#233;questr&#233;</text><polygon fill="#456A7D" points="1671.5625,593.291,1690.3125,600.791,1671.5625,608.291,1679.0625,600.791" style="stroke:#456A7D;stroke-width:1.875;"/><line style="stroke:#456A7D;stroke-width:2.625;" x1="867.1875" x2="1682.8125" y1="600.791" y2="600.791"/><text fill="#29485B" font-family="sans-serif" font-size="26.25" font-weight="bold" lengthAdjust="spacing" textLength="15" x="880.3125" y="591.2732">6</text><text fill="#29485B" font-family="sans-serif" font-size="26.25" lengthAdjust="spacing" textLength="275.625" x="902.8125" y="591.2732">notifie le paiement re&#231;u</text><path d="M18.75,636.416 L18.75,698.291 A11.25,11.25 0 0 0 30,709.541 L1871.25,709.541 A11.25,11.25 0 0 0 1882.5,698.291 L1882.5,643.916 L1863.75,625.166 L30,625.166 A11.25,11.25 0 0 0 18.75,636.416 " fill="#FFF8E8" style="stroke:#E5AE45;stroke-width:0.9375;"/><path d="M1863.75,625.166 L1863.75,638.291 A5.625,5.625 0 0 0 1869.375,643.916 L1882.5,643.916 L1863.75,625.166 " fill="#FFF8E8" style="stroke:#E5AE45;stroke-width:0.9375;"/><text fill="#5B481E" font-family="sans-serif" font-size="26.25" lengthAdjust="spacing" textLength="532.5" x="676.4063" y="661.7908">Le versement intervient apr&#232;s la confirmation</text><text fill="#5B481E" font-family="sans-serif" font-size="26.25" lengthAdjust="spacing" textLength="386.25" x="676.4063" y="694.8083">de la r&#233;ception de la commande.</text><polygon fill="#456A7D" points="360.9375,756.0938,379.6875,763.5938,360.9375,771.0938,368.4375,763.5938" style="stroke:#456A7D;stroke-width:1.875;"/><line style="stroke:#456A7D;stroke-width:2.625;" x1="68.4375" x2="372.1875" y1="763.5938" y2="763.5938"/><text fill="#29485B" font-family="sans-serif" font-size="26.25" font-weight="bold" lengthAdjust="spacing" textLength="15" x="81.5625" y="754.0759">7</text><text fill="#29485B" font-family="sans-serif" font-size="26.25" lengthAdjust="spacing" textLength="247.5" x="104.0625" y="754.0759">confirme la r&#233;ception</text><polygon fill="#456A7D" points="844.6875,815.3613,863.4375,822.8613,844.6875,830.3613,852.1875,822.8613" style="stroke:#456A7D;stroke-width:1.875;"/><line style="stroke:#456A7D;stroke-width:2.625;" x1="383.4375" x2="855.9375" y1="822.8613" y2="822.8613"/><text fill="#29485B" font-family="sans-serif" font-size="26.25" font-weight="bold" lengthAdjust="spacing" textLength="15" x="396.5625" y="813.3435">8</text><text fill="#29485B" font-family="sans-serif" font-size="26.25" lengthAdjust="spacing" textLength="168.75" x="419.0625" y="813.3435">lib&#233;rerFonds()</text><polygon fill="#456A7D" points="1466.25,874.6289,1485,882.1289,1466.25,889.6289,1473.75,882.1289" style="stroke:#456A7D;stroke-width:1.875;"/><line style="stroke:#456A7D;stroke-width:2.625;" x1="867.1875" x2="1477.5" y1="882.1289" y2="882.1289"/><text fill="#29485B" font-family="sans-serif" font-size="26.25" font-weight="bold" lengthAdjust="spacing" textLength="15" x="880.3125" y="872.6111">9</text><text fill="#29485B" font-family="sans-serif" font-size="26.25" lengthAdjust="spacing" textLength="266.25" x="902.8125" y="872.6111">confirme la commande</text><polygon fill="#456A7D" points="1185.9375,933.8965,1204.6875,941.3965,1185.9375,948.8965,1193.4375,941.3965" style="stroke:#456A7D;stroke-width:1.875;"/><line style="stroke:#456A7D;stroke-width:2.625;" x1="867.1875" x2="1197.1875" y1="941.3965" y2="941.3965"/><text fill="#29485B" font-family="sans-serif" font-size="26.25" font-weight="bold" lengthAdjust="spacing" textLength="30" x="880.3125" y="931.8787">10</text><text fill="#29485B" font-family="sans-serif" font-size="26.25" lengthAdjust="spacing" textLength="258.75" x="917.8125" y="931.8787">cr&#233;diter le fournisseur</text><polygon fill="#456A7D" points="887.8125,993.1641,869.0625,1000.6641,887.8125,1008.1641,880.3125,1000.6641" style="stroke:#456A7D;stroke-width:1.875;"/><line style="stroke:#456A7D;stroke-width:2.625;stroke-dasharray:2.0,2.0;" x1="876.5625" x2="1206.5625" y1="1000.6641" y2="1000.6641"/><text fill="#29485B" font-family="sans-serif" font-size="26.25" font-weight="bold" lengthAdjust="spacing" textLength="30" x="899.0625" y="991.1462">11</text><text fill="#29485B" font-family="sans-serif" font-size="26.25" lengthAdjust="spacing" textLength="202.5" x="936.5625" y="991.1462">versement r&#233;ussi</text><polygon fill="#456A7D" points="1466.25,1052.4316,1485,1059.9316,1466.25,1067.4316,1473.75,1059.9316" style="stroke:#456A7D;stroke-width:1.875;"/><line style="stroke:#456A7D;stroke-width:2.625;" x1="867.1875" x2="1477.5" y1="1059.9316" y2="1059.9316"/><text fill="#29485B" font-family="sans-serif" font-size="26.25" font-weight="bold" lengthAdjust="spacing" textLength="30" x="880.3125" y="1050.4138">12</text><text fill="#29485B" font-family="sans-serif" font-size="26.25" lengthAdjust="spacing" textLength="420" x="917.8125" y="1050.4138">enregistre le versement fournisseur</text><polygon fill="#456A7D" points="1671.5625,1111.6992,1690.3125,1119.1992,1671.5625,1126.6992,1679.0625,1119.1992" style="stroke:#456A7D;stroke-width:1.875;"/><line style="stroke:#456A7D;stroke-width:2.625;" x1="867.1875" x2="1682.8125" y1="1119.1992" y2="1119.1992"/><text fill="#29485B" font-family="sans-serif" font-size="26.25" font-weight="bold" lengthAdjust="spacing" textLength="30" x="880.3125" y="1109.6814">13</text><text fill="#29485B" font-family="sans-serif" font-size="26.25" lengthAdjust="spacing" textLength="230.625" x="917.8125" y="1109.6814">notifie le versement</text><path d="M751.875,1147.3242 L868.125,1147.3242 L868.125,1165.3418 L849.375,1184.0918 L740.625,1184.0918 L740.625,1158.5742 A11.25,11.25 0 0 1 751.875,1147.3242 " fill="#F7FBFD" style="stroke:#9CB4C1;stroke-width:2.8125;"/><rect fill="none" height="278.7305" rx="11.25" ry="11.25" style="stroke:#9CB4C1;stroke-width:2.8125;" width="1161.5625" x="740.625" y="1147.3242"/><text fill="#000000" font-family="sans-serif" font-size="26.25" font-weight="bold" lengthAdjust="spacing" textLength="43.125" x="768.75" y="1176.449">opt</text><text fill="#000000" font-family="sans-serif" font-size="26.25" font-weight="bold" lengthAdjust="spacing" textLength="399.375" x="896.25" y="1178.324">[une livraison a &#233;t&#233; effectu&#233;e]</text><polygon fill="#456A7D" points="1185.9375,1225.752,1204.6875,1233.252,1185.9375,1240.752,1193.4375,1233.252" style="stroke:#456A7D;stroke-width:1.875;"/><line style="stroke:#456A7D;stroke-width:2.625;" x1="867.1875" x2="1197.1875" y1="1233.252" y2="1233.252"/><text fill="#29485B" font-family="sans-serif" font-size="26.25" font-weight="bold" lengthAdjust="spacing" textLength="30" x="880.3125" y="1223.7341">14</text><text fill="#29485B" font-family="sans-serif" font-size="26.25" lengthAdjust="spacing" textLength="198.75" x="917.8125" y="1223.7341">cr&#233;diter le livreur</text><polygon fill="#456A7D" points="887.8125,1285.0195,869.0625,1292.5195,887.8125,1300.0195,880.3125,1292.5195" style="stroke:#456A7D;stroke-width:1.875;"/><line style="stroke:#456A7D;stroke-width:2.625;stroke-dasharray:2.0,2.0;" x1="876.5625" x2="1206.5625" y1="1292.5195" y2="1292.5195"/><text fill="#29485B" font-family="sans-serif" font-size="26.25" font-weight="bold" lengthAdjust="spacing" textLength="30" x="899.0625" y="1283.0017">15</text><text fill="#29485B" font-family="sans-serif" font-size="26.25" lengthAdjust="spacing" textLength="202.5" x="936.5625" y="1283.0017">versement r&#233;ussi</text><polygon fill="#456A7D" points="1466.25,1344.2871,1485,1351.7871,1466.25,1359.2871,1473.75,1351.7871" style="stroke:#456A7D;stroke-width:1.875;"/><line style="stroke:#456A7D;stroke-width:2.625;" x1="867.1875" x2="1477.5" y1="1351.7871" y2="1351.7871"/><text fill="#29485B" font-family="sans-serif" font-size="26.25" font-weight="bold" lengthAdjust="spacing" textLength="30" x="880.3125" y="1342.2693">16</text><text fill="#29485B" font-family="sans-serif" font-size="26.25" lengthAdjust="spacing" textLength="360" x="917.8125" y="1342.2693">enregistre le versement livreur</text><polygon fill="#456A7D" points="1814.0625,1403.5547,1832.8125,1411.0547,1814.0625,1418.5547,1821.5625,1411.0547" style="stroke:#456A7D;stroke-width:1.875;"/><line style="stroke:#456A7D;stroke-width:2.625;" x1="867.1875" x2="1825.3125" y1="1411.0547" y2="1411.0547"/><text fill="#29485B" font-family="sans-serif" font-size="26.25" font-weight="bold" lengthAdjust="spacing" textLength="30" x="880.3125" y="1401.5369">17</text><text fill="#29485B" font-family="sans-serif" font-size="26.25" lengthAdjust="spacing" textLength="230.625" x="917.8125" y="1401.5369">notifie le versement</text><!--SRC=[ZPR1RkCs48RlUeg1UzXT81l4jhnsUYWWsL8sG90QTR90ZxGqieb8f4fIphgdFaGVeBVMp-4twPDq9CinRSjA0oG7pZSp__oaGdw0cLcd297CiaB0lt_y2J5d2yMo33K4AQx6KWYCZFC1Pj_ku4T8fCgOWHMjISKn1O46jd-1aOL1C8odALx3zB5ayNikbO4bAqFnTfDmmGsNujhHBrpaZDh0d4Kl2oKB4OzbAXNy45O_5X7d7BgZ6sj5BraiNxbOGC9IZLQaAXH99L11jsS5Kauwrpa22LfAkpech4XDA8LvP1d2Z0azGyMJPcR6VqVekbRmYPiKMzFVY2gvTzCKgeVl3lizTs81dbBojGwwWo_Uy2nePVTktT70FmMUbZnw4QWrTAzjuO_IeD_W_YWOdL9InQXg8XXuWJiu8ImH0zyTTGChFgKUR75SvDRpXzwm0JhJuuPU-EKSj3qBgMM_6TcTxhbCOzkLoF0LD-lpPZVXAEmtaRRsNZYS7BjSKwtxM3CJpZ8fuYRV-vDHIuAjO3Aw7VJ2neakYXodJ6l_tOzjXxMEMo5VaH5oLYzmmtxWdS9jnWJ2D6x5gR2QQrMsOzgwpGnhEFJ191o6tJEijLU5jBLwrXWntT3CepCzQW3jTlrWwDxUd4Eji-5l1Oe87tX2l-BaWnlxxhZRHh-x0_kCALE6Hpndmhm_N5DIww3x1A-yN_w_g1tUlcCrUaS5y_FAmz0F9nVn1YyTkjQaAB8vAeULxUapNAB1GW7Ju8s_ElEoFbDhwDmBWofX4S8hpZjb_FdUYMWpbKoXGnV6YbCiPnmp5AO2fjwlJdvm3JfJ-f9G8TslT24TitVUK-34pB0vdH7e-ELVOcAwkxSRr1KpyMkLeIoKu5Hh9pJy-VcNElB0LwfUVRZ_vZYcl9tet-ckqnNexOOyqKOXOFa4KBeAQ70S6XS-_qHJqRLFSoLSqMMO7cGw5A4u3KL0zGn0jI_yiNnzC17Z5MHoZUAJKs94bsCHJY-7EIV_odf66fOwLU3pMxrz4s1HXBdPRlO59dxv2X4A5xnIRGaw37F0IoieGKZ34tvCAzp-NJWEXUW9GPEN-tjLkGJmW0SlQ3PJxcQb9bVRVpIaREy8Any_b41RGulKk5HBI_N2tePh1qLSgi1Bljh9HywcVBxTA5JqVoBM7pyT-M2dxrkTE1rHsNXlTN8u9wU67yQbX49htcBuWRKBNdJy3NSScHie1AtIiMHSaqyCjXlQNi0aeVTdGMURt6mP8TqTQ8BU7U2jJki8Xu8rJIVWadxQnFy0]--></g></svg>