<?plantuml 1.2026.1?><svg xmlns="http://www.w3.org/2000/svg" xmlns:xlink="http://www.w3.org/1999/xlink" contentStyleType="text/css" data-diagram-type="SEQUENCE" height="1323.75px" preserveAspectRatio="none" style="width:1753px;height:1323px;background:#FFFFFF;" version="1.1" viewBox="0 0 1753 1323" width="1753.125px" zoomAndPan="magnify"><title>Rendez-vous v&#233;t&#233;rinaire &#8212; vue simplifi&#233;e</title><defs/><g><text fill="#17324D" font-family="sans-serif" font-size="37.5" font-weight="bold" lengthAdjust="spacing" textLength="876.3977" x="441.1789" y="62.9333">Rendez-vous v&#233;t&#233;rinaire &#8212; vue simplifi&#233;e</text><rect fill="#F4FAF6" height="320.7715" rx="11.25" ry="11.25" style="stroke:#9CB4C1;stroke-width:2.8125;" width="1723.1305" x="18.75" y="721.7871"/><g class="participant-lifeline" data-entity-uid="part1" data-qualified-name="ELE" id="part1-lifeline"><g><title>.leveur</title><rect fill="#000000" fill-opacity="0.00000" height="937.5879" width="15" x="85.1962" y="235.459"/><line style="stroke:#9CB4C1;stroke-width:0.9375;stroke-dasharray:9.375,9.375;" x1="91.875" x2="91.875" y1="235.459" y2="1173.0469"/></g></g><g class="participant-lifeline" data-entity-uid="part2" data-qualified-name="UI" id="part2-lifeline"><g><title>Interface web</title><rect fill="#000000" fill-opacity="0.00000" height="937.5879" width="15" x="577.2684" y="235.459"/><line style="stroke:#9CB4C1;stroke-width:0.9375;stroke-dasharray:9.375,9.375;" x1="584.6942" x2="584.6942" y1="235.459" y2="1173.0469"/></g></g><g class="participant-lifeline" data-entity-uid="part3" data-qualified-name="APP" id="part3-lifeline"><g><title>ElevConnect</title><rect fill="#000000" fill-opacity="0.00000" height="937.5879" width="15" x="1020.3653" y="235.459"/><line style="stroke:#9CB4C1;stroke-width:0.9375;stroke-dasharray:9.375,9.375;" x1="1026.4398" x2="1026.4398" y1="235.459" y2="1173.0469"/></g></g><g class="participant-lifeline" data-entity-uid="part4" data-qualified-name="DB" id="part4-lifeline"><g><title>Base de donn.es</title><rect fill="#000000" fill-opacity="0.00000" height="937.5879" width="15" x="1421.716" y="235.459"/><line style="stroke:#9CB4C1;stroke-width:0.9375;stroke-dasharray:9.375,9.375;" x1="1429.0192" x2="1429.0192" y1="235.459" y2="1173.0469"/></g></g><g class="participant-lifeline" data-entity-uid="part5" data-qualified-name="VET" id="part5-lifeline"><g><title>V.t.rinaire</title><rect fill="#000000" fill-opacity="0.00000" height="937.5879" width="15" x="1637.2092" y="235.459"/><line style="stroke:#9CB4C1;stroke-width:0.9375;stroke-dasharray:9.375,9.375;" x1="1643.1628" x2="1643.1628" y1="235.459" y2="1173.0469"/></g></g><g class="participant participant-head" data-entity-uid="part1" data-qualified-name="ELE" id="part1-head"><text fill="#000000" font-family="sans-serif" font-size="26.25" lengthAdjust="spacing" textLength="99.1425" x="37.5" y="229.2682">&#201;leveur</text><ellipse cx="92.6962" cy="108.3398" fill="#FFFFFF" rx="15" ry="15" style="stroke:#2F7D5B;stroke-width:0.9375;"/><path d="M92.6962,123.3398 L92.6962,173.9648 M68.3212,138.3398 L117.0712,138.3398 M92.6962,173.9648 L68.3212,202.0898 M92.6962,173.9648 L117.0712,202.0898" fill="none" style="stroke:#2F7D5B;stroke-width:0.9375;"/></g><g class="participant participant-tail" data-entity-uid="part1" data-qualified-name="ELE" id="part1-tail"><text fill="#000000" font-family="sans-serif" font-size="26.25" lengthAdjust="spacing" textLength="99.1425" x="37.5" y="1195.5377">&#201;leveur</text><ellipse cx="92.6962" cy="1217.666" fill="#FFFFFF" rx="15" ry="15" style="stroke:#2F7D5B;stroke-width:0.9375;"/><path d="M92.6962,1232.666 L92.6962,1283.291 M68.3212,1247.666 L117.0712,1247.666 M92.6962,1283.291 L68.3212,1311.416 M92.6962,1283.291 L117.0712,1311.416" fill="none" style="stroke:#2F7D5B;stroke-width:0.9375;"/></g><g class="participant participant-head" data-entity-uid="part2" data-qualified-name="UI" id="part2-head"><text fill="#000000" font-family="sans-serif" font-size="26.25" lengthAdjust="spacing" textLength="180.1483" x="489.0692" y="229.2682">Interface web</text><path d="M546.3309,152.4023 L546.3309,197.4023 M546.3309,174.9023 L578.2059,174.9023" fill="none" style="stroke:#181818;stroke-width:0.9375;"/><ellipse cx="600.7059" cy="174.9023" fill="#E2E2F0" rx="22.5" ry="22.5" style="stroke:#181818;stroke-width:0.9375;"/></g><g class="participant participant-tail" data-entity-uid="part2" data-qualified-name="UI" id="part2-tail"><text fill="#000000" font-family="sans-serif" font-size="26.25" lengthAdjust="spacing" textLength="180.1483" x="489.0692" y="1195.5377">Interface web</text><path d="M546.3309,1209.2285 L546.3309,1254.2285 M546.3309,1231.7285 L578.2059,1231.7285" fill="none" style="stroke:#181818;stroke-width:0.9375;"/><ellipse cx="600.7059" cy="1231.7285" fill="#E2E2F0" rx="22.5" ry="22.5" style="stroke:#181818;stroke-width:0.9375;"/></g><g class="participant participant-head" data-entity-uid="part3" data-qualified-name="APP" id="part3-head"><text fill="#000000" font-family="sans-serif" font-size="26.25" lengthAdjust="spacing" textLength="164.101" x="940.1898" y="229.2682">ElevConnect</text><ellipse cx="1027.8653" cy="174.9023" fill="#E2E2F0" rx="22.5" ry="22.5" style="stroke:#181818;stroke-width:0.9375;"/><polygon fill="#181818" points="1020.3653,152.4023,1031.6153,143.0273,1027.8653,152.4023,1031.6153,161.7773,1020.3653,152.4023" style="stroke:#181818;stroke-width:1.875;"/></g><g class="participant participant-tail" data-entity-uid="part3" data-qualified-name="APP" id="part3-tail"><text fill="#000000" font-family="sans-serif" font-size="26.25" lengthAdjust="spacing" textLength="164.101" x="940.1898" y="1195.5377">ElevConnect</text><ellipse cx="1027.8653" cy="1231.7285" fill="#E2E2F0" rx="22.5" ry="22.5" style="stroke:#181818;stroke-width:0.9375;"/><polygon fill="#181818" points="1020.3653,1209.2285,1031.6153,1199.8535,1027.8653,1209.2285,1031.6153,1218.6035,1020.3653,1209.2285" style="stroke:#181818;stroke-width:1.875;"/></g><g class="participant participant-head" data-entity-uid="part4" data-qualified-name="DB" id="part4-head"><text fill="#000000" font-family="sans-serif" font-size="26.25" lengthAdjust="spacing" textLength="225.3937" x="1310.8942" y="229.2682">Base de donn&#233;es</text><path d="M1395.466,137.4023 C1395.466,118.6523 1429.216,118.6523 1429.216,118.6523 C1429.216,118.6523 1462.966,118.6523 1462.966,137.4023 L1462.966,186.1523 C1462.966,204.9023 1429.216,204.9023 1429.216,204.9023 C1429.216,204.9023 1395.466,204.9023 1395.466,186.1523 L1395.466,137.4023" fill="#E2E2F0" style="stroke:#181818;stroke-width:0.9375;"/><path d="M1395.466,137.4023 C1395.466,156.1523 1429.216,156.1523 1429.216,156.1523 C1429.216,156.1523 1462.966,156.1523 1462.966,137.4023" fill="none" style="stroke:#181818;stroke-width:0.9375;"/></g><g class="participant participant-tail" data-entity-uid="part4" data-qualified-name="DB" id="part4-tail"><text fill="#000000" font-family="sans-serif" font-size="26.25" lengthAdjust="spacing" textLength="225.3937" x="1310.8942" y="1195.5377">Base de donn&#233;es</text><path d="M1395.466,1220.4785 C1395.466,1201.7285 1429.216,1201.7285 1429.216,1201.7285 C1429.216,1201.7285 1462.966,1201.7285 1462.966,1220.4785 L1462.966,1269.2285 C1462.966,1287.9785 1429.216,1287.9785 1429.216,1287.9785 C1429.216,1287.9785 1395.466,1287.9785 1395.466,1269.2285 L1395.466,1220.4785" fill="#E2E2F0" style="stroke:#181818;stroke-width:0.9375;"/><path d="M1395.466,1220.4785 C1395.466,1239.2285 1429.216,1239.2285 1429.216,1239.2285 C1429.216,1239.2285 1462.966,1239.2285 1462.966,1220.4785" fill="none" style="stroke:#181818;stroke-width:0.9375;"/></g><g class="participant participant-head" data-entity-uid="part5" data-qualified-name="VET" id="part5-head"><text fill="#000000" font-family="sans-serif" font-size="26.25" lengthAdjust="spacing" textLength="145.5927" x="1566.2878" y="229.2682">V&#233;t&#233;rinaire</text><ellipse cx="1644.7092" cy="108.3398" fill="#FFFFFF" rx="15" ry="15" style="stroke:#2F7D5B;stroke-width:0.9375;"/><path d="M1644.7092,123.3398 L1644.7092,173.9648 M1620.3342,138.3398 L1669.0842,138.3398 M1644.7092,173.9648 L1620.3342,202.0898 M1644.7092,173.9648 L1669.0842,202.0898" fill="none" style="stroke:#2F7D5B;stroke-width:0.9375;"/></g><g class="participant participant-tail" data-entity-uid="part5" data-qualified-name="VET" id="part5-tail"><text fill="#000000" font-family="sans-serif" font-size="26.25" lengthAdjust="spacing" textLength="145.5927" x="1566.2878" y="1195.5377">V&#233;t&#233;rinaire</text><ellipse cx="1644.7092" cy="1217.666" fill="#FFFFFF" rx="15" ry="15" style="stroke:#2F7D5B;stroke-width:0.9375;"/><path d="M1644.7092,1232.666 L1644.7092,1283.291 M1620.3342,1247.666 L1669.0842,1247.666 M1644.7092,1283.291 L1620.3342,1311.416 M1644.7092,1283.291 L1669.0842,1311.416" fill="none" style="stroke:#2F7D5B;stroke-width:0.9375;"/></g><g class="message" data-entity-1="part1" data-entity-2="part2" id="msg1"><polygon fill="#456A7D" points="562.2684,288.5156,581.0184,296.0156,562.2684,303.5156,569.7684,296.0156" style="stroke:#456A7D;stroke-width:1.875;"/><line style="stroke:#456A7D;stroke-width:2.625;" x1="92.6962" x2="573.5184" y1="296.0156" y2="296.0156"/><text fill="#29485B" font-family="sans-serif" font-size="26.25" font-weight="bold" lengthAdjust="spacing" textLength="18.2648" x="105.8212" y="286.0748">1</text><text fill="#29485B" font-family="sans-serif" font-size="26.25" lengthAdjust="spacing" textLength="421.3074" x="131.586" y="286.0748">choisit un service et un cr&#233;neau</text></g><g class="message" data-entity-1="part2" data-entity-2="part3" id="msg2"><polygon fill="#456A7D" points="1005.3653,345.3223,1024.1153,352.8223,1005.3653,360.3223,1012.8653,352.8223" style="stroke:#456A7D;stroke-width:1.875;"/><line style="stroke:#456A7D;stroke-width:2.625;" x1="584.7684" x2="1016.6153" y1="352.8223" y2="352.8223"/><text fill="#29485B" font-family="sans-serif" font-size="26.25" font-weight="bold" lengthAdjust="spacing" textLength="18.2648" x="597.8934" y="342.8815">2</text><text fill="#29485B" font-family="sans-serif" font-size="26.25" lengthAdjust="spacing" textLength="317.1405" x="623.6581" y="342.8815">demanderRendezVous()</text></g><g class="message" data-entity-1="part3" data-entity-2="part4" id="msg3"><polygon fill="#456A7D" points="1406.716,402.1289,1425.466,409.6289,1406.716,417.1289,1414.216,409.6289" style="stroke:#456A7D;stroke-width:1.875;"/><line style="stroke:#456A7D;stroke-width:2.625;" x1="1027.8653" x2="1417.966" y1="409.6289" y2="409.6289"/><text fill="#29485B" font-family="sans-serif" font-size="26.25" font-weight="bold" lengthAdjust="spacing" textLength="18.2648" x="1040.9903" y="399.6881">3</text><text fill="#29485B" font-family="sans-serif" font-size="26.25" lengthAdjust="spacing" textLength="298.5809" x="1066.7551" y="399.6881">enregistre la demande</text></g><g class="message" data-entity-1="part3" data-entity-2="part5" id="msg4"><polygon fill="#456A7D" points="1622.2092,458.9355,1640.9592,466.4355,1622.2092,473.9355,1629.7092,466.4355" style="stroke:#456A7D;stroke-width:1.875;"/><line style="stroke:#456A7D;stroke-width:2.625;" x1="1027.8653" x2="1633.4592" y1="466.4355" y2="466.4355"/><text fill="#29485B" font-family="sans-serif" font-size="26.25" font-weight="bold" lengthAdjust="spacing" textLength="18.2648" x="1040.9903" y="456.4948">4</text><text fill="#29485B" font-family="sans-serif" font-size="26.25" lengthAdjust="spacing" textLength="246.9525" x="1066.7551" y="456.4948">notifie la demande</text></g><g class="message" data-entity-1="part5" data-entity-2="part2" id="msg5"><polygon fill="#456A7D" points="605.3934,515.7422,586.6434,523.2422,605.3934,530.7422,597.8934,523.2422" style="stroke:#456A7D;stroke-width:1.875;"/><line style="stroke:#456A7D;stroke-width:2.625;" x1="594.1434" x2="1642.8342" y1="523.2422" y2="523.2422"/><text fill="#29485B" font-family="sans-serif" font-size="26.25" font-weight="bold" lengthAdjust="spacing" textLength="18.2648" x="616.6434" y="513.3014">5</text><text fill="#29485B" font-family="sans-serif" font-size="26.25" lengthAdjust="spacing" textLength="248.2086" x="642.4081" y="513.3014">confirme ou refuse</text></g><g class="message" data-entity-1="part2" data-entity-2="part3" id="msg6"><polygon fill="#456A7D" points="1005.3653,572.5488,1024.1153,580.0488,1005.3653,587.5488,1012.8653,580.0488" style="stroke:#456A7D;stroke-width:1.875;"/><line style="stroke:#456A7D;stroke-width:2.625;" x1="584.7684" x2="1016.6153" y1="580.0488" y2="580.0488"/><text fill="#29485B" font-family="sans-serif" font-size="26.25" font-weight="bold" lengthAdjust="spacing" textLength="18.2648" x="597.8934" y="570.108">6</text><text fill="#29485B" font-family="sans-serif" font-size="26.25" lengthAdjust="spacing" textLength="372.3322" x="623.6581" y="570.108">traiterRendezVous(d&#233;cision)</text></g><g class="message" data-entity-1="part3" data-entity-2="part4" id="msg7"><polygon fill="#456A7D" points="1406.716,629.3555,1425.466,636.8555,1406.716,644.3555,1414.216,636.8555" style="stroke:#456A7D;stroke-width:1.875;"/><line style="stroke:#456A7D;stroke-width:2.625;" x1="1027.8653" x2="1417.966" y1="636.8555" y2="636.8555"/><text fill="#29485B" font-family="sans-serif" font-size="26.25" font-weight="bold" lengthAdjust="spacing" textLength="18.2648" x="1040.9903" y="626.9147">7</text><text fill="#29485B" font-family="sans-serif" font-size="26.25" lengthAdjust="spacing" textLength="252.9767" x="1066.7551" y="626.9147">met &#224; jour le statut</text></g><g class="message" data-entity-1="part3" data-entity-2="part1" id="msg8"><polygon fill="#456A7D" points="113.3212,686.1621,94.5712,693.6621,113.3212,701.1621,105.8212,693.6621" style="stroke:#456A7D;stroke-width:1.875;"/><line style="stroke:#456A7D;stroke-width:2.625;" x1="102.0712" x2="1025.9903" y1="693.6621" y2="693.6621"/><text fill="#29485B" font-family="sans-serif" font-size="26.25" font-weight="bold" lengthAdjust="spacing" textLength="18.2648" x="124.5712" y="683.7213">8</text><text fill="#29485B" font-family="sans-serif" font-size="26.25" lengthAdjust="spacing" textLength="231.2384" x="150.336" y="683.7213">notifie la d&#233;cision</text></g><path d="M30,721.7871 L152.4976,721.7871 L152.4976,737.3438 L133.7476,756.0938 L18.75,756.0938 L18.75,733.0371 A11.25,11.25 0 0 1 30,721.7871" fill="#F7FBFD" style="stroke:#9CB4C1;stroke-width:2.8125;"/><rect fill="none" height="320.7715" rx="11.25" ry="11.25" style="stroke:#9CB4C1;stroke-width:2.8125;" width="1723.1305" x="18.75" y="721.7871"/><text fill="#000000" font-family="sans-serif" font-size="26.25" font-weight="bold" lengthAdjust="spacing" textLength="49.3726" x="46.875" y="748.028">opt</text><text fill="#000000" font-family="sans-serif" font-size="26.25" font-weight="bold" lengthAdjust="spacing" textLength="345.5951" x="180.6226" y="749.903">[rendez-vous confirm&#233;]</text><g class="message" data-entity-1="part5" data-entity-2="part2" id="msg9"><polygon fill="#456A7D" points="605.3934,792.832,586.6434,800.332,605.3934,807.832,597.8934,800.332" style="stroke:#456A7D;stroke-width:1.875;"/><line style="stroke:#456A7D;stroke-width:2.625;" x1="594.1434" x2="1642.8342" y1="800.332" y2="800.332"/><text fill="#29485B" font-family="sans-serif" font-size="26.25" font-weight="bold" lengthAdjust="spacing" textLength="18.2648" x="616.6434" y="790.3912">9</text><text fill="#29485B" font-family="sans-serif" font-size="26.25" lengthAdjust="spacing" textLength="293.3386" x="642.4081" y="790.3912">cl&#244;ture le rendez-vous</text></g><g class="message" data-entity-1="part2" data-entity-2="part3" id="msg10"><polygon fill="#456A7D" points="1005.3653,849.6387,1024.1153,857.1387,1005.3653,864.6387,1012.8653,857.1387" style="stroke:#456A7D;stroke-width:1.875;"/><line style="stroke:#456A7D;stroke-width:2.625;" x1="584.7684" x2="1016.6153" y1="857.1387" y2="857.1387"/><text fill="#29485B" font-family="sans-serif" font-size="26.25" font-weight="bold" lengthAdjust="spacing" textLength="36.5295" x="597.8934" y="847.1979">10</text><text fill="#29485B" font-family="sans-serif" font-size="26.25" lengthAdjust="spacing" textLength="228.0597" x="641.9229" y="847.1979">marquerR&#233;alis&#233;()</text></g><g class="message" data-entity-1="part3" data-entity-2="part4" id="msg11"><polygon fill="#456A7D" points="1406.716,906.4453,1425.466,913.9453,1406.716,921.4453,1414.216,913.9453" style="stroke:#456A7D;stroke-width:1.875;"/><line style="stroke:#456A7D;stroke-width:2.625;" x1="1027.8653" x2="1417.966" y1="913.9453" y2="913.9453"/><text fill="#29485B" font-family="sans-serif" font-size="26.25" font-weight="bold" lengthAdjust="spacing" textLength="36.5295" x="1040.9903" y="904.0045">11</text><text fill="#29485B" font-family="sans-serif" font-size="26.25" lengthAdjust="spacing" textLength="312.3212" x="1085.0198" y="904.0045">enregistre la r&#233;alisation</text></g><g class="message" data-entity-1="part1" data-entity-2="part2" id="msg12"><polygon fill="#456A7D" points="562.2684,963.252,581.0184,970.752,562.2684,978.252,569.7684,970.752" style="stroke:#456A7D;stroke-width:1.875;"/><line style="stroke:#456A7D;stroke-width:2.625;" x1="92.6962" x2="573.5184" y1="970.752" y2="970.752"/><text fill="#29485B" font-family="sans-serif" font-size="26.25" font-weight="bold" lengthAdjust="spacing" textLength="36.5295" x="105.8212" y="960.8112">12</text><text fill="#29485B" font-family="sans-serif" font-size="26.25" lengthAdjust="spacing" textLength="176.7261" x="149.8508" y="960.8112">laisse un avis</text></g><g class="message" data-entity-1="part2" data-entity-2="part3" id="msg13"><polygon fill="#456A7D" points="1005.3653,1020.0586,1024.1153,1027.5586,1005.3653,1035.0586,1012.8653,1027.5586" style="stroke:#456A7D;stroke-width:1.875;"/><line style="stroke:#456A7D;stroke-width:2.625;" x1="584.7684" x2="1016.6153" y1="1027.5586" y2="1027.5586"/><text fill="#29485B" font-family="sans-serif" font-size="26.25" font-weight="bold" lengthAdjust="spacing" textLength="36.5295" x="597.8934" y="1017.6178">13</text><text fill="#29485B" font-family="sans-serif" font-size="26.25" lengthAdjust="spacing" textLength="220.3308" x="641.9229" y="1017.6178">enregistrerAvis()</text></g><path d="M30,1076.3086 L30,1132.5586 A11.25,11.25 0 0 0 41.25,1143.8086 L1695,1143.8086 A11.25,11.25 0 0 0 1706.25,1132.5586 L1706.25,1083.8086 L1687.5,1065.0586 L41.25,1065.0586 A11.25,11.25 0 0 0 30,1076.3086" fill="#FFF8E8" style="stroke:#E5AE45;stroke-width:0.9375;"/><path d="M1687.5,1065.0586 L1687.5,1078.1836 A5.625,5.625 0 0 0 1693.125,1083.8086 L1706.25,1083.8086 L1687.5,1065.0586" fill="#FFF8E8" style="stroke:#E5AE45;stroke-width:0.9375;"/><text fill="#5B481E" font-family="sans-serif" font-size="26.25" lengthAdjust="spacing" textLength="433.0096" x="643.1854" y="1098.7994">Le r&#232;glement se fait directement</text><text fill="#5B481E" font-family="sans-serif" font-size="26.25" lengthAdjust="spacing" textLength="418.0133" x="643.1854" y="1129.3561">entre l'&#233;leveur et le v&#233;t&#233;rinaire.</text><?plantuml-src TP8nRXH144NpFaMn2I3PFW01aXTlOCc1XM1JL3jJkxJLqssggmUPY9IS0n0oEJVect0IVgztyGuIoKWpzQV-gr_rpCSkb5wezxnJ7ZvaUmXouSiGdEDYAPPX8-guiwHKlmKPfIXnfjNDocrIYJth0oskeubkkHFwB9j5gx-_TbsAfYdGOeNVtgGOfRDzxVBsrlLilE4ij5YsPqE0eawIzvAhvS5pNIUha_h8NgLLrgjtpfct8FHMOYzVpiTKCeqptU-ltsaiGjaFzy5lFVew1sGwVmqoUaNTn-IpDogHikZeGIxxjqxh58MBWmnYe4BToy2mqaV3DVnUl7Ij1CNL4WA9AZkV3TQ1Z_AZ0iIGn6G0cTLTg_mbId7hTH1AXLIs9SiCmPIzpGZwEdMO8SKvoe0vwW-wIzWJCih6LkoeQ17CKOvDd4lt1kEdH0z0TN94Cz1GVrbfaygf7gfJte7rKm5ldJZuN2S4HlJ_oFHHnzPGY4vN5TXdN0XsmwF_r-QfYrwY2XSGEOS94UGesZgTxM-6w0QyzUSko23Hi7RQ8b9Slk8kzz-WmRC1FQ_JuTIH9kQSNTT5ysWXoXy0?></g></svg>