<?xml version="1.0" encoding="us-ascii" standalone="no"?><svg xmlns="http://www.w3.org/2000/svg" xmlns:xlink="http://www.w3.org/1999/xlink" contentStyleType="text/css" height="1213.125px" preserveAspectRatio="none" style="width:1494px;height:1213px;background:#FFFFFF;" version="1.1" viewBox="0 0 1494 1213" width="1494.375px" zoomAndPan="magnify"><defs/><g><text fill="#17324D" font-family="sans-serif" font-size="37.5" font-weight="bold" lengthAdjust="spacing" textLength="468.75" x="516.0938" y="67.0532">Publication d'une annonce</text><rect fill="#F4FAF6" height="315.498" rx="11.25" ry="11.25" style="stroke:#9CB4C1;stroke-width:2.8125;" width="1292.8125" x="18.75" y="712.5586"/><path d="M18.75,872.7539 L1311.5625,872.7539 L1311.5625,1016.8066 A11.25,11.25 0 0 1 1300.3125,1028.0566 L30,1028.0566 A11.25,11.25 0 0 1 18.75,1016.8066 L18.75,872.7539 " fill="#F4FAF6" style="stroke:none;stroke-width:1.875;"/><line style="stroke:#9CB4C1;stroke-width:0.9375;stroke-dasharray:5.0,5.0;" x1="114.375" x2="114.375" y1="241.4355" y2="1059.9316"/><line style="stroke:#9CB4C1;stroke-width:0.9375;stroke-dasharray:5.0,5.0;" x1="363.75" x2="363.75" y1="241.4355" y2="1059.9316"/><line style="stroke:#9CB4C1;stroke-width:0.9375;stroke-dasharray:5.0,5.0;" x1="823.125" x2="823.125" y1="241.4355" y2="1059.9316"/><line style="stroke:#9CB4C1;stroke-width:0.9375;stroke-dasharray:5.0,5.0;" x1="1182.1875" x2="1182.1875" y1="241.4355" y2="1059.9316"/><line style="stroke:#9CB4C1;stroke-width:0.9375;stroke-dasharray:5.0,5.0;" x1="1401.5625" x2="1401.5625" y1="241.4355" y2="1059.9316"/><text fill="#000000" font-family="sans-serif" font-size="26.25" lengthAdjust="spacing" textLength="142.5" x="37.5" y="235.6677">Fournisseur</text><ellipse cx="114.375" cy="111.8555" fill="#FFFFFF" rx="15" ry="15" style="stroke:#2F7D5B;stroke-width:0.9375;"/><path d="M114.375,126.8555 L114.375,177.4805 M90,141.8555 L138.75,141.8555 M114.375,177.4805 L90,205.6055 M114.375,177.4805 L138.75,205.6055 " fill="none" style="stroke:#2F7D5B;stroke-width:0.9375;"/><text fill="#000000" font-family="sans-serif" font-size="26.25" lengthAdjust="spacing" textLength="142.5" x="37.5" y="1085.3064">Fournisseur</text><ellipse cx="114.375" cy="1107.0117" fill="#FFFFFF" rx="15" ry="15" style="stroke:#2F7D5B;stroke-width:0.9375;"/><path d="M114.375,1122.0117 L114.375,1172.6367 M90,1137.0117 L138.75,1137.0117 M114.375,1172.6367 L90,1200.7617 M114.375,1172.6367 L138.75,1200.7617 " fill="none" style="stroke:#2F7D5B;stroke-width:0.9375;"/><text fill="#000000" font-family="sans-serif" font-size="26.25" lengthAdjust="spacing" textLength="157.5" x="279.375" y="235.6677">Interface web</text><path d="M325.3125,155.918 L325.3125,200.918 M325.3125,178.418 L357.1875,178.418 " fill="none" style="stroke:#181818;stroke-width:0.9375;"/><ellipse cx="379.6875" cy="178.418" fill="#E2E2F0" rx="22.5" ry="22.5" style="stroke:#181818;stroke-width:0.9375;"/><text fill="#000000" font-family="sans-serif" font-size="26.25" lengthAdjust="spacing" textLength="157.5" x="279.375" y="1085.3064">Interface web</text><path d="M325.3125,1098.5742 L325.3125,1143.5742 M325.3125,1121.0742 L357.1875,1121.0742 " fill="none" style="stroke:#181818;stroke-width:0.9375;"/><ellipse cx="379.6875" cy="1121.0742" fill="#E2E2F0" rx="22.5" ry="22.5" style="stroke:#181818;stroke-width:0.9375;"/><text fill="#000000" font-family="sans-serif" font-size="26.25" lengthAdjust="spacing" textLength="150" x="742.5" y="235.6677">ElevConnect</text><ellipse cx="823.125" cy="178.418" fill="#E2E2F0" rx="22.5" ry="22.5" style="stroke:#181818;stroke-width:0.9375;"/><polygon fill="#181818" points="815.625,155.918,826.875,146.543,823.125,155.918,826.875,165.293,815.625,155.918" style="stroke:#181818;stroke-width:1.875;"/><text fill="#000000" font-family="sans-serif" font-size="26.25" lengthAdjust="spacing" textLength="150" x="742.5" y="1085.3064">ElevConnect</text><ellipse cx="823.125" cy="1121.0742" fill="#E2E2F0" rx="22.5" ry="22.5" style="stroke:#181818;stroke-width:0.9375;"/><polygon fill="#181818" points="815.625,1098.5742,826.875,1089.1992,823.125,1098.5742,826.875,1107.9492,815.625,1098.5742" style="stroke:#181818;stroke-width:1.875;"/><text fill="#000000" font-family="sans-serif" font-size="26.25" lengthAdjust="spacing" textLength="208.125" x="1073.4375" y="235.6677">Base de donn&#233;es</text><path d="M1149.375,140.918 C1149.375,122.168 1183.125,122.168 1183.125,122.168 C1183.125,122.168 1216.875,122.168 1216.875,140.918 L1216.875,189.668 C1216.875,208.418 1183.125,208.418 1183.125,208.418 C1183.125,208.418 1149.375,208.418 1149.375,189.668 L1149.375,140.918 " fill="#E2E2F0" style="stroke:#181818;stroke-width:2.8125;"/><path d="M1149.375,140.918 C1149.375,159.668 1183.125,159.668 1183.125,159.668 C1183.125,159.668 1216.875,159.668 1216.875,140.918 " fill="none" style="stroke:#181818;stroke-width:2.8125;"/><text fill="#000000" font-family="sans-serif" font-size="26.25" lengthAdjust="spacing" textLength="208.125" x="1073.4375" y="1085.3064">Base de donn&#233;es</text><path d="M1149.375,1109.8242 C1149.375,1091.0742 1183.125,1091.0742 1183.125,1091.0742 C1183.125,1091.0742 1216.875,1091.0742 1216.875,1109.8242 L1216.875,1158.5742 C1216.875,1177.3242 1183.125,1177.3242 1183.125,1177.3242 C1183.125,1177.3242 1149.375,1177.3242 1149.375,1158.5742 L1149.375,1109.8242 " fill="#E2E2F0" style="stroke:#181818;stroke-width:2.8125;"/><path d="M1149.375,1109.8242 C1149.375,1128.5742 1183.125,1128.5742 1183.125,1128.5742 C1183.125,1128.5742 1216.875,1128.5742 1216.875,1109.8242 " fill="none" style="stroke:#181818;stroke-width:2.8125;"/><text fill="#000000" font-family="sans-serif" font-size="26.25" lengthAdjust="spacing" textLength="170.625" x="1311.5625" y="235.6677">Administrateur</text><ellipse cx="1402.5" cy="111.8555" fill="#FFFFFF" rx="15" ry="15" style="stroke:#2F7D5B;stroke-width:0.9375;"/><path d="M1402.5,126.8555 L1402.5,177.4805 M1378.125,141.8555 L1426.875,141.8555 M1402.5,177.4805 L1378.125,205.6055 M1402.5,177.4805 L1426.875,205.6055 " fill="none" style="stroke:#2F7D5B;stroke-width:0.9375;"/><text fill="#000000" font-family="sans-serif" font-size="26.25" lengthAdjust="spacing" textLength="170.625" x="1311.5625" y="1085.3064">Administrateur</text><ellipse cx="1402.5" cy="1107.0117" fill="#FFFFFF" rx="15" ry="15" style="stroke:#2F7D5B;stroke-width:0.9375;"/><path d="M1402.5,1122.0117 L1402.5,1172.6367 M1378.125,1137.0117 L1426.875,1137.0117 M1402.5,1172.6367 L1378.125,1200.7617 M1402.5,1172.6367 L1426.875,1200.7617 " fill="none" style="stroke:#2F7D5B;stroke-width:0.9375;"/><polygon fill="#456A7D" points="341.25,296.9531,360,304.4531,341.25,311.9531,348.75,304.4531" style="stroke:#456A7D;stroke-width:1.875;"/><line style="stroke:#456A7D;stroke-width:2.625;" x1="114.375" x2="352.5" y1="304.4531" y2="304.4531"/><text fill="#29485B" font-family="sans-serif" font-size="26.25" font-weight="bold" lengthAdjust="spacing" textLength="15" x="127.5" y="294.9353">1</text><text fill="#29485B" font-family="sans-serif" font-size="26.25" lengthAdjust="spacing" textLength="181.875" x="150" y="294.9353">saisit l'annonce</text><polygon fill="#456A7D" points="800.625,356.2207,819.375,363.7207,800.625,371.2207,808.125,363.7207" style="stroke:#456A7D;stroke-width:1.875;"/><line style="stroke:#456A7D;stroke-width:2.625;" x1="363.75" x2="811.875" y1="363.7207" y2="363.7207"/><text fill="#29485B" font-family="sans-serif" font-size="26.25" font-weight="bold" lengthAdjust="spacing" textLength="15" x="376.875" y="354.2029">2</text><text fill="#29485B" font-family="sans-serif" font-size="26.25" lengthAdjust="spacing" textLength="345" x="399.375" y="354.2029">soumettreAnnonce(donn&#233;es)</text><line style="stroke:#456A7D;stroke-width:2.625;" x1="823.125" x2="901.875" y1="422.9883" y2="422.9883"/><line style="stroke:#456A7D;stroke-width:2.625;" x1="901.875" x2="901.875" y1="422.9883" y2="447.3633"/><line style="stroke:#456A7D;stroke-width:2.625;" x1="825" x2="901.875" y1="447.3633" y2="447.3633"/><polygon fill="#456A7D" points="843.75,439.8633,825,447.3633,843.75,454.8633,836.25,447.3633" style="stroke:#456A7D;stroke-width:1.875;"/><text fill="#29485B" font-family="sans-serif" font-size="26.25" font-weight="bold" lengthAdjust="spacing" textLength="15" x="836.25" y="413.4705">3</text><text fill="#29485B" font-family="sans-serif" font-size="26.25" lengthAdjust="spacing" textLength="262.5" x="858.75" y="413.4705">valide les informations</text><polygon fill="#456A7D" points="1160.625,499.1309,1179.375,506.6309,1160.625,514.1309,1168.125,506.6309" style="stroke:#456A7D;stroke-width:1.875;"/><line style="stroke:#456A7D;stroke-width:2.625;" x1="823.125" x2="1171.875" y1="506.6309" y2="506.6309"/><text fill="#29485B" font-family="sans-serif" font-size="26.25" font-weight="bold" lengthAdjust="spacing" textLength="15" x="836.25" y="497.113">4</text><text fill="#29485B" font-family="sans-serif" font-size="26.25" lengthAdjust="spacing" textLength="292.5" x="858.75" y="497.113">enregistre &#171; en attente &#187;</text><polygon fill="#456A7D" points="1380,558.3984,1398.75,565.8984,1380,573.3984,1387.5,565.8984" style="stroke:#456A7D;stroke-width:1.875;"/><line style="stroke:#456A7D;stroke-width:2.625;" x1="823.125" x2="1391.25" y1="565.8984" y2="565.8984"/><text fill="#29485B" font-family="sans-serif" font-size="26.25" font-weight="bold" lengthAdjust="spacing" textLength="15" x="836.25" y="556.3806">5</text><text fill="#29485B" font-family="sans-serif" font-size="26.25" lengthAdjust="spacing" textLength="240" x="858.75" y="556.3806">notifie la mod&#233;ration</text><polygon fill="#456A7D" points="384.375,617.666,365.625,625.166,384.375,632.666,376.875,625.166" style="stroke:#456A7D;stroke-width:1.875;"/><line style="stroke:#456A7D;stroke-width:2.625;" x1="373.125" x2="1400.625" y1="625.166" y2="625.166"/><text fill="#29485B" font-family="sans-serif" font-size="26.25" font-weight="bold" lengthAdjust="spacing" textLength="15" x="395.625" y="615.6482">6</text><text fill="#29485B" font-family="sans-serif" font-size="26.25" lengthAdjust="spacing" textLength="232.5" x="418.125" y="615.6482">approuve ou rejette</text><polygon fill="#456A7D" points="800.625,676.9336,819.375,684.4336,800.625,691.9336,808.125,684.4336" style="stroke:#456A7D;stroke-width:1.875;"/><line style="stroke:#456A7D;stroke-width:2.625;" x1="363.75" x2="811.875" y1="684.4336" y2="684.4336"/><text fill="#29485B" font-family="sans-serif" font-size="26.25" font-weight="bold" lengthAdjust="spacing" textLength="15" x="376.875" y="674.9158">7</text><text fill="#29485B" font-family="sans-serif" font-size="26.25" lengthAdjust="spacing" textLength="391.875" x="399.375" y="674.9158">mod&#233;rerAnnonce(d&#233;cision, motif)</text><path d="M30,712.5586 L135,712.5586 L135,730.5762 L116.25,749.3262 L18.75,749.3262 L18.75,723.8086 A11.25,11.25 0 0 1 30,712.5586 " fill="#F7FBFD" style="stroke:#9CB4C1;stroke-width:2.8125;"/><rect fill="none" height="315.498" rx="11.25" ry="11.25" style="stroke:#9CB4C1;stroke-width:2.8125;" width="1292.8125" x="18.75" y="712.5586"/><text fill="#000000" font-family="sans-serif" font-size="26.25" font-weight="bold" lengthAdjust="spacing" textLength="31.875" x="46.875" y="741.6833">alt</text><text fill="#000000" font-family="sans-serif" font-size="26.25" font-weight="bold" lengthAdjust="spacing" textLength="285" x="163.125" y="743.5583">[annonce approuv&#233;e]</text><polygon fill="#456A7D" points="1160.625,790.9863,1179.375,798.4863,1160.625,805.9863,1168.125,798.4863" style="stroke:#456A7D;stroke-width:1.875;"/><line style="stroke:#456A7D;stroke-width:2.625;" x1="823.125" x2="1171.875" y1="798.4863" y2="798.4863"/><text fill="#29485B" font-family="sans-serif" font-size="26.25" font-weight="bold" lengthAdjust="spacing" textLength="15" x="836.25" y="788.9685">8</text><text fill="#29485B" font-family="sans-serif" font-size="26.25" lengthAdjust="spacing" textLength="256.875" x="858.75" y="788.9685">rend l'annonce visible</text><polygon fill="#456A7D" points="135,850.2539,116.25,857.7539,135,865.2539,127.5,857.7539" style="stroke:#456A7D;stroke-width:1.875;"/><line style="stroke:#456A7D;stroke-width:2.625;" x1="123.75" x2="821.25" y1="857.7539" y2="857.7539"/><text fill="#29485B" font-family="sans-serif" font-size="26.25" font-weight="bold" lengthAdjust="spacing" textLength="15" x="146.25" y="848.2361">9</text><text fill="#29485B" font-family="sans-serif" font-size="26.25" lengthAdjust="spacing" textLength="234.375" x="168.75" y="848.2361">notifie la publication</text><line style="stroke:#9CB4C1;stroke-width:1.875;stroke-dasharray:2.0,2.0;" x1="18.75" x2="1311.5625" y1="874.6289" y2="874.6289"/><text fill="#000000" font-family="sans-serif" font-size="26.25" font-weight="bold" lengthAdjust="spacing" textLength="236.25" x="28.125" y="901.8787">[annonce rejet&#233;e]</text><polygon fill="#456A7D" points="1160.625,946.2891,1179.375,953.7891,1160.625,961.2891,1168.125,953.7891" style="stroke:#456A7D;stroke-width:1.875;"/><line style="stroke:#456A7D;stroke-width:2.625;" x1="823.125" x2="1171.875" y1="953.7891" y2="953.7891"/><text fill="#29485B" font-family="sans-serif" font-size="26.25" font-weight="bold" lengthAdjust="spacing" textLength="30" x="836.25" y="944.2712">10</text><text fill="#29485B" font-family="sans-serif" font-size="26.25" lengthAdjust="spacing" textLength="211.875" x="873.75" y="944.2712">enregistre le motif</text><polygon fill="#456A7D" points="135,1005.5566,116.25,1013.0566,135,1020.5566,127.5,1013.0566" style="stroke:#456A7D;stroke-width:1.875;"/><line style="stroke:#456A7D;stroke-width:2.625;" x1="123.75" x2="821.25" y1="1013.0566" y2="1013.0566"/><text fill="#29485B" font-family="sans-serif" font-size="26.25" font-weight="bold" lengthAdjust="spacing" textLength="30" x="146.25" y="1003.5388">11</text><text fill="#29485B" font-family="sans-serif" font-size="26.25" lengthAdjust="spacing" textLength="159.375" x="183.75" y="1003.5388">notifie le rejet</text><!--SRC=[ZPR1RkCs48RlV8f1UaWNQ8FObjTA3mKaIzekq4sDUjCxBOqTDXJfafIpwQaFqGVeDUWZzBPvapv9HxBiPIn5gM4RiEQRcNzcQ0pFOUaU94Akox9IyEyVVq8X-CRmiaGBgSJTN2k5kMFdiFpb7Nm7QsrAxc17pxGHA46XWwU_mEdA8JWkfCGBM5pNB7xQQkFWbjUcukbnBPHmGgiBPk-4sd9A0okUtssChbGnrr8R-2fhNXvHR0MCmallYRtbXRuNQWDhBYrwbYPGher20wEnPv22T3vi4KZGhVQZuvfNqcLQkMjU8YoviaiqOjtFBCNl2AF0CtuKJkAW-v5edCUNVQQs-D5iCWuI3uYCqVUjCPY-ZMOTe-SzlWh2QNmAVBmL-Pr2Qs5quGk_rWxZdkw7QNXAQLEWQObq6gN1z8JmH4pZ81obddr1EVZcUP2hA9v5inweeoV8eknj5_Hxbb7AIJ-oFzqhBGk_AxaJE-4Ukiakip2Rz96-zd4sIvvtkQK6vzWoYU2bLaLVtoT9EE3WAqZ2g-auwwteHP5poQsDN_spxR71SXla1-I4TEAbGJP9erDug36fShsZE1NMSeFAzinGjgNZFOS-JR9PDkfWWxaQP2ZLZSMSsvva4Ptfi0VqqqtIMN1rsOK6QyFVAbGv_YZMz54dVxXv7Cn7G_Ih4pXuBBXn8XTRhjphnVKv3HPwS8Zg_VB_HUtnuOcrw3iAkEr6dcLnbho8z_IIqLhJgYfNQ1YlqqEcAwE4jLWPu1Qodsv-Pgiw1pSFSFPUEJHhdYFSu-gi1cxUivm6QhI4Cs_NDhPeiM05Ttn5KuUpkFukw4t4qoFQ1adYDczKbBHPhJDq9FUfe-G3OwvUBh2eLbBalDwxK9nN2e4hfQamOAnM2Dz-Jq9eMrikh70WprixewTa8o6rKLSbEcSmsXk_FYXvmshWoEsu5AHJqkr1gFrTWHBR0vJ4zRL06TpKSX4-_qs_W3k7r1pu_CynMFA1GAMTM0kAng7KT7ymJJ36Qkj1DTzkQK0xMkmL6FoLD3uNldT4SzJzz9XJdLfzGoOA_uPnwOujQQDHOGp0rsnG5LzQ0piAiP8Ur7JocUBjbxupf5lACKUZifl1wmfDhT7sSlWs2YDL_m40]--></g></svg>