<?xml version="1.0" encoding="us-ascii" standalone="no"?><svg xmlns="http://www.w3.org/2000/svg" xmlns:xlink="http://www.w3.org/1999/xlink" contentStyleType="text/css" height="1841.25px" preserveAspectRatio="none" style="width:1893px;height:1841px;background:#FFFFFF;" version="1.1" viewBox="0 0 1893 1841" width="1893.75px" zoomAndPan="magnify"><defs/><g><text fill="#17324D" font-family="sans-serif" font-size="37.5" font-weight="bold" lengthAdjust="spacing" textLength="421.875" x="737.8125" y="67.0532">Commande et r&#233;ception</text><rect fill="#F4FAF6" height="611.8359" rx="11.25" ry="11.25" style="stroke:#9CB4C1;stroke-width:2.8125;" width="1861.875" x="18.75" y="925.2539"/><path d="M18.75,1322.5195 L1880.625,1322.5195 L1880.625,1525.8398 A11.25,11.25 0 0 1 1869.375,1537.0898 L30,1537.0898 A11.25,11.25 0 0 1 18.75,1525.8398 L18.75,1322.5195 " fill="#F4FAF6" style="stroke:none;stroke-width:1.875;"/><line style="stroke:#9CB4C1;stroke-width:0.9375;stroke-dasharray:5.0,5.0;" x1="95.625" x2="95.625" y1="241.4355" y2="1687.5"/><line style="stroke:#9CB4C1;stroke-width:0.9375;stroke-dasharray:5.0,5.0;" x1="495.9375" x2="495.9375" y1="241.4355" y2="1687.5"/><line style="stroke:#9CB4C1;stroke-width:0.9375;stroke-dasharray:5.0,5.0;" x1="1073.4375" x2="1073.4375" y1="241.4355" y2="1687.5"/><line style="stroke:#9CB4C1;stroke-width:0.9375;stroke-dasharray:5.0,5.0;" x1="1466.25" x2="1466.25" y1="241.4355" y2="1687.5"/><line style="stroke:#9CB4C1;stroke-width:0.9375;stroke-dasharray:5.0,5.0;" x1="1672.5" x2="1672.5" y1="241.4355" y2="1687.5"/><line style="stroke:#9CB4C1;stroke-width:0.9375;stroke-dasharray:5.0,5.0;" x1="1815" x2="1815" y1="241.4355" y2="1687.5"/><text fill="#000000" font-family="sans-serif" font-size="26.25" lengthAdjust="spacing" textLength="106.875" x="37.5" y="235.6677">Acheteur</text><ellipse cx="96.5625" cy="111.8555" fill="#FFFFFF" rx="15" ry="15" style="stroke:#2F7D5B;stroke-width:0.9375;"/><path d="M96.5625,126.8555 L96.5625,177.4805 M72.1875,141.8555 L120.9375,141.8555 M96.5625,177.4805 L72.1875,205.6055 M96.5625,177.4805 L120.9375,205.6055 " fill="none" style="stroke:#2F7D5B;stroke-width:0.9375;"/><text fill="#000000" font-family="sans-serif" font-size="26.25" lengthAdjust="spacing" textLength="106.875" x="37.5" y="1712.8748">Acheteur</text><ellipse cx="96.5625" cy="1734.5801" fill="#FFFFFF" rx="15" ry="15" style="stroke:#2F7D5B;stroke-width:0.9375;"/><path d="M96.5625,1749.5801 L96.5625,1800.2051 M72.1875,1764.5801 L120.9375,1764.5801 M96.5625,1800.2051 L72.1875,1828.3301 M96.5625,1800.2051 L120.9375,1828.3301 " fill="none" style="stroke:#2F7D5B;stroke-width:0.9375;"/><text fill="#000000" font-family="sans-serif" font-size="26.25" lengthAdjust="spacing" textLength="157.5" x="411.5625" y="235.6677">Interface web</text><path d="M457.5,155.918 L457.5,200.918 M457.5,178.418 L489.375,178.418 " fill="none" style="stroke:#181818;stroke-width:0.9375;"/><ellipse cx="511.875" cy="178.418" fill="#E2E2F0" rx="22.5" ry="22.5" style="stroke:#181818;stroke-width:0.9375;"/><text fill="#000000" font-family="sans-serif" font-size="26.25" lengthAdjust="spacing" textLength="157.5" x="411.5625" y="1712.8748">Interface web</text><path d="M457.5,1726.1426 L457.5,1771.1426 M457.5,1748.6426 L489.375,1748.6426 " fill="none" style="stroke:#181818;stroke-width:0.9375;"/><ellipse cx="511.875" cy="1748.6426" fill="#E2E2F0" rx="22.5" ry="22.5" style="stroke:#181818;stroke-width:0.9375;"/><text fill="#000000" font-family="sans-serif" font-size="26.25" lengthAdjust="spacing" textLength="150" x="992.8125" y="235.6677">ElevConnect</text><ellipse cx="1073.4375" cy="178.418" fill="#E2E2F0" rx="22.5" ry="22.5" style="stroke:#181818;stroke-width:0.9375;"/><polygon fill="#181818" points="1065.9375,155.918,1077.1875,146.543,1073.4375,155.918,1077.1875,165.293,1065.9375,155.918" style="stroke:#181818;stroke-width:1.875;"/><text fill="#000000" font-family="sans-serif" font-size="26.25" lengthAdjust="spacing" textLength="150" x="992.8125" y="1712.8748">ElevConnect</text><ellipse cx="1073.4375" cy="1748.6426" fill="#E2E2F0" rx="22.5" ry="22.5" style="stroke:#181818;stroke-width:0.9375;"/><polygon fill="#181818" points="1065.9375,1726.1426,1077.1875,1716.7676,1073.4375,1726.1426,1077.1875,1735.5176,1065.9375,1726.1426" style="stroke:#181818;stroke-width:1.875;"/><text fill="#000000" font-family="sans-serif" font-size="26.25" lengthAdjust="spacing" textLength="208.125" x="1357.5" y="235.6677">Base de donn&#233;es</text><path d="M1433.4375,140.918 C1433.4375,122.168 1467.1875,122.168 1467.1875,122.168 C1467.1875,122.168 1500.9375,122.168 1500.9375,140.918 L1500.9375,189.668 C1500.9375,208.418 1467.1875,208.418 1467.1875,208.418 C1467.1875,208.418 1433.4375,208.418 1433.4375,189.668 L1433.4375,140.918 " fill="#E2E2F0" style="stroke:#181818;stroke-width:2.8125;"/><path d="M1433.4375,140.918 C1433.4375,159.668 1467.1875,159.668 1467.1875,159.668 C1467.1875,159.668 1500.9375,159.668 1500.9375,140.918 " fill="none" style="stroke:#181818;stroke-width:2.8125;"/><text fill="#000000" font-family="sans-serif" font-size="26.25" lengthAdjust="spacing" textLength="208.125" x="1357.5" y="1712.8748">Base de donn&#233;es</text><path d="M1433.4375,1737.3926 C1433.4375,1718.6426 1467.1875,1718.6426 1467.1875,1718.6426 C1467.1875,1718.6426 1500.9375,1718.6426 1500.9375,1737.3926 L1500.9375,1786.1426 C1500.9375,1804.8926 1467.1875,1804.8926 1467.1875,1804.8926 C1467.1875,1804.8926 1433.4375,1804.8926 1433.4375,1786.1426 L1433.4375,1737.3926 " fill="#E2E2F0" style="stroke:#181818;stroke-width:2.8125;"/><path d="M1433.4375,1737.3926 C1433.4375,1756.1426 1467.1875,1756.1426 1467.1875,1756.1426 C1467.1875,1756.1426 1500.9375,1756.1426 1500.9375,1737.3926 " fill="none" style="stroke:#181818;stroke-width:2.8125;"/><text fill="#000000" font-family="sans-serif" font-size="26.25" lengthAdjust="spacing" textLength="142.5" x="1595.625" y="235.6677">Fournisseur</text><ellipse cx="1672.5" cy="111.8555" fill="#FFFFFF" rx="15" ry="15" style="stroke:#2F7D5B;stroke-width:0.9375;"/><path d="M1672.5,126.8555 L1672.5,177.4805 M1648.125,141.8555 L1696.875,141.8555 M1672.5,177.4805 L1648.125,205.6055 M1672.5,177.4805 L1696.875,205.6055 " fill="none" style="stroke:#2F7D5B;stroke-width:0.9375;"/><text fill="#000000" font-family="sans-serif" font-size="26.25" lengthAdjust="spacing" textLength="142.5" x="1595.625" y="1712.8748">Fournisseur</text><ellipse cx="1672.5" cy="1734.5801" fill="#FFFFFF" rx="15" ry="15" style="stroke:#2F7D5B;stroke-width:0.9375;"/><path d="M1672.5,1749.5801 L1672.5,1800.2051 M1648.125,1764.5801 L1696.875,1764.5801 M1672.5,1800.2051 L1648.125,1828.3301 M1672.5,1800.2051 L1696.875,1828.3301 " fill="none" style="stroke:#2F7D5B;stroke-width:0.9375;"/><text fill="#000000" font-family="sans-serif" font-size="26.25" lengthAdjust="spacing" textLength="82.5" x="1768.125" y="235.6677">Livreur</text><ellipse cx="1815" cy="111.8555" fill="#FFFFFF" rx="15" ry="15" style="stroke:#2F7D5B;stroke-width:0.9375;"/><path d="M1815,126.8555 L1815,177.4805 M1790.625,141.8555 L1839.375,141.8555 M1815,177.4805 L1790.625,205.6055 M1815,177.4805 L1839.375,205.6055 " fill="none" style="stroke:#2F7D5B;stroke-width:0.9375;"/><text fill="#000000" font-family="sans-serif" font-size="26.25" lengthAdjust="spacing" textLength="82.5" x="1768.125" y="1712.8748">Livreur</text><ellipse cx="1815" cy="1734.5801" fill="#FFFFFF" rx="15" ry="15" style="stroke:#2F7D5B;stroke-width:0.9375;"/><path d="M1815,1749.5801 L1815,1800.2051 M1790.625,1764.5801 L1839.375,1764.5801 M1815,1800.2051 L1790.625,1828.3301 M1815,1800.2051 L1839.375,1828.3301 " fill="none" style="stroke:#2F7D5B;stroke-width:0.9375;"/><polygon fill="#456A7D" points="473.4375,296.9531,492.1875,304.4531,473.4375,311.9531,480.9375,304.4531" style="stroke:#456A7D;stroke-width:1.875;"/><line style="stroke:#456A7D;stroke-width:2.625;" x1="96.5625" x2="484.6875" y1="304.4531" y2="304.4531"/><text fill="#29485B" font-family="sans-serif" font-size="26.25" font-weight="bold" lengthAdjust="spacing" textLength="15" x="109.6875" y="294.9353">1</text><text fill="#29485B" font-family="sans-serif" font-size="26.25" lengthAdjust="spacing" textLength="331.875" x="132.1875" y="294.9353">choisit l'annonce et le retrait</text><polygon fill="#456A7D" points="1050.9375,356.2207,1069.6875,363.7207,1050.9375,371.2207,1058.4375,363.7207" style="stroke:#456A7D;stroke-width:1.875;"/><line style="stroke:#456A7D;stroke-width:2.625;" x1="495.9375" x2="1062.1875" y1="363.7207" y2="363.7207"/><text fill="#29485B" font-family="sans-serif" font-size="26.25" font-weight="bold" lengthAdjust="spacing" textLength="15" x="509.0625" y="354.2029">2</text><text fill="#29485B" font-family="sans-serif" font-size="26.25" lengthAdjust="spacing" textLength="510" x="531.5625" y="354.2029">cr&#233;erCommande(annonce, quantit&#233;, mode)</text><polygon fill="#456A7D" points="1444.6875,415.4883,1463.4375,422.9883,1444.6875,430.4883,1452.1875,422.9883" style="stroke:#456A7D;stroke-width:1.875;"/><line style="stroke:#456A7D;stroke-width:2.625;" x1="1073.4375" x2="1455.9375" y1="422.9883" y2="422.9883"/><text fill="#29485B" font-family="sans-serif" font-size="26.25" font-weight="bold" lengthAdjust="spacing" textLength="15" x="1086.5625" y="413.4705">3</text><text fill="#29485B" font-family="sans-serif" font-size="26.25" lengthAdjust="spacing" textLength="326.25" x="1109.0625" y="413.4705">v&#233;rifie le stock et enregistre</text><polygon fill="#456A7D" points="516.5625,474.7559,497.8125,482.2559,516.5625,489.7559,509.0625,482.2559" style="stroke:#456A7D;stroke-width:1.875;"/><line style="stroke:#456A7D;stroke-width:2.625;stroke-dasharray:2.0,2.0;" x1="505.3125" x2="1071.5625" y1="482.2559" y2="482.2559"/><text fill="#29485B" font-family="sans-serif" font-size="26.25" font-weight="bold" lengthAdjust="spacing" textLength="15" x="527.8125" y="472.738">4</text><text fill="#29485B" font-family="sans-serif" font-size="26.25" lengthAdjust="spacing" textLength="307.5" x="550.3125" y="472.738">affiche le montant &#224; payer</text><polygon fill="#456A7D" points="473.4375,534.0234,492.1875,541.5234,473.4375,549.0234,480.9375,541.5234" style="stroke:#456A7D;stroke-width:1.875;"/><line style="stroke:#456A7D;stroke-width:2.625;" x1="96.5625" x2="484.6875" y1="541.5234" y2="541.5234"/><text fill="#29485B" font-family="sans-serif" font-size="26.25" font-weight="bold" lengthAdjust="spacing" textLength="15" x="109.6875" y="532.0056">5</text><text fill="#29485B" font-family="sans-serif" font-size="26.25" lengthAdjust="spacing" textLength="215.625" x="132.1875" y="532.0056">paie la commande</text><polygon fill="#456A7D" points="1050.9375,593.291,1069.6875,600.791,1050.9375,608.291,1058.4375,600.791" style="stroke:#456A7D;stroke-width:1.875;"/><line style="stroke:#456A7D;stroke-width:2.625;" x1="495.9375" x2="1062.1875" y1="600.791" y2="600.791"/><text fill="#29485B" font-family="sans-serif" font-size="26.25" font-weight="bold" lengthAdjust="spacing" textLength="15" x="509.0625" y="591.2732">6</text><text fill="#29485B" font-family="sans-serif" font-size="26.25" lengthAdjust="spacing" textLength="240" x="531.5625" y="591.2732">confirmerPaiement()</text><polygon fill="#456A7D" points="1444.6875,652.5586,1463.4375,660.0586,1444.6875,667.5586,1452.1875,660.0586" style="stroke:#456A7D;stroke-width:1.875;"/><line style="stroke:#456A7D;stroke-width:2.625;" x1="1073.4375" x2="1455.9375" y1="660.0586" y2="660.0586"/><text fill="#29485B" font-family="sans-serif" font-size="26.25" font-weight="bold" lengthAdjust="spacing" textLength="15" x="1086.5625" y="650.5408">7</text><text fill="#29485B" font-family="sans-serif" font-size="26.25" lengthAdjust="spacing" textLength="210" x="1109.0625" y="650.5408">commande pay&#233;e</text><polygon fill="#456A7D" points="1650,711.8262,1668.75,719.3262,1650,726.8262,1657.5,719.3262" style="stroke:#456A7D;stroke-width:1.875;"/><line style="stroke:#456A7D;stroke-width:2.625;" x1="1073.4375" x2="1661.25" y1="719.3262" y2="719.3262"/><text fill="#29485B" font-family="sans-serif" font-size="26.25" font-weight="bold" lengthAdjust="spacing" textLength="15" x="1086.5625" y="709.8083">8</text><text fill="#29485B" font-family="sans-serif" font-size="26.25" lengthAdjust="spacing" textLength="236.25" x="1109.0625" y="709.8083">notifie la commande</text><polygon fill="#456A7D" points="516.5625,771.0938,497.8125,778.5938,516.5625,786.0938,509.0625,778.5938" style="stroke:#456A7D;stroke-width:1.875;"/><line style="stroke:#456A7D;stroke-width:2.625;" x1="505.3125" x2="1670.625" y1="778.5938" y2="778.5938"/><text fill="#29485B" font-family="sans-serif" font-size="26.25" font-weight="bold" lengthAdjust="spacing" textLength="15" x="527.8125" y="769.0759">9</text><text fill="#29485B" font-family="sans-serif" font-size="26.25" lengthAdjust="spacing" textLength="258.75" x="550.3125" y="769.0759">accepte la commande</text><polygon fill="#456A7D" points="1050.9375,830.3613,1069.6875,837.8613,1050.9375,845.3613,1058.4375,837.8613" style="stroke:#456A7D;stroke-width:1.875;"/><line style="stroke:#456A7D;stroke-width:2.625;" x1="495.9375" x2="1062.1875" y1="837.8613" y2="837.8613"/><text fill="#29485B" font-family="sans-serif" font-size="26.25" font-weight="bold" lengthAdjust="spacing" textLength="30" x="509.0625" y="828.3435">10</text><text fill="#29485B" font-family="sans-serif" font-size="26.25" lengthAdjust="spacing" textLength="232.5" x="546.5625" y="828.3435">validerCommande()</text><polygon fill="#456A7D" points="1444.6875,889.6289,1463.4375,897.1289,1444.6875,904.6289,1452.1875,897.1289" style="stroke:#456A7D;stroke-width:1.875;"/><line style="stroke:#456A7D;stroke-width:2.625;" x1="1073.4375" x2="1455.9375" y1="897.1289" y2="897.1289"/><text fill="#29485B" font-family="sans-serif" font-size="26.25" font-weight="bold" lengthAdjust="spacing" textLength="30" x="1086.5625" y="887.6111">11</text><text fill="#29485B" font-family="sans-serif" font-size="26.25" lengthAdjust="spacing" textLength="221.25" x="1124.0625" y="887.6111">commande valid&#233;e</text><path d="M30,925.2539 L135,925.2539 L135,943.2715 L116.25,962.0215 L18.75,962.0215 L18.75,936.5039 A11.25,11.25 0 0 1 30,925.2539 " fill="#F7FBFD" style="stroke:#9CB4C1;stroke-width:2.8125;"/><rect fill="none" height="611.8359" rx="11.25" ry="11.25" style="stroke:#9CB4C1;stroke-width:2.8125;" width="1861.875" x="18.75" y="925.2539"/><text fill="#000000" font-family="sans-serif" font-size="26.25" font-weight="bold" lengthAdjust="spacing" textLength="31.875" x="46.875" y="954.3787">alt</text><text fill="#000000" font-family="sans-serif" font-size="26.25" font-weight="bold" lengthAdjust="spacing" textLength="236.25" x="163.125" y="956.2537">[livraison choisie]</text><polygon fill="#456A7D" points="1792.5,1003.6816,1811.25,1011.1816,1792.5,1018.6816,1800,1011.1816" style="stroke:#456A7D;stroke-width:1.875;"/><line style="stroke:#456A7D;stroke-width:2.625;" x1="1073.4375" x2="1803.75" y1="1011.1816" y2="1011.1816"/><text fill="#29485B" font-family="sans-serif" font-size="26.25" font-weight="bold" lengthAdjust="spacing" textLength="30" x="1086.5625" y="1001.6638">12</text><text fill="#29485B" font-family="sans-serif" font-size="26.25" lengthAdjust="spacing" textLength="230.625" x="1124.0625" y="1001.6638">propose la livraison</text><polygon fill="#456A7D" points="516.5625,1062.9492,497.8125,1070.4492,516.5625,1077.9492,509.0625,1070.4492" style="stroke:#456A7D;stroke-width:1.875;"/><line style="stroke:#456A7D;stroke-width:2.625;" x1="505.3125" x2="1813.125" y1="1070.4492" y2="1070.4492"/><text fill="#29485B" font-family="sans-serif" font-size="26.25" font-weight="bold" lengthAdjust="spacing" textLength="30" x="527.8125" y="1060.9314">13</text><text fill="#29485B" font-family="sans-serif" font-size="26.25" lengthAdjust="spacing" textLength="283.125" x="565.3125" y="1060.9314">prend en charge et livre</text><polygon fill="#456A7D" points="1050.9375,1122.2168,1069.6875,1129.7168,1050.9375,1137.2168,1058.4375,1129.7168" style="stroke:#456A7D;stroke-width:1.875;"/><line style="stroke:#456A7D;stroke-width:2.625;" x1="495.9375" x2="1062.1875" y1="1129.7168" y2="1129.7168"/><text fill="#29485B" font-family="sans-serif" font-size="26.25" font-weight="bold" lengthAdjust="spacing" textLength="30" x="509.0625" y="1120.199">14</text><text fill="#29485B" font-family="sans-serif" font-size="26.25" lengthAdjust="spacing" textLength="234.375" x="546.5625" y="1120.199">confirme la livraison</text><polygon fill="#456A7D" points="473.4375,1181.4844,492.1875,1188.9844,473.4375,1196.4844,480.9375,1188.9844" style="stroke:#456A7D;stroke-width:1.875;"/><line style="stroke:#456A7D;stroke-width:2.625;" x1="96.5625" x2="484.6875" y1="1188.9844" y2="1188.9844"/><text fill="#29485B" font-family="sans-serif" font-size="26.25" font-weight="bold" lengthAdjust="spacing" textLength="30" x="109.6875" y="1179.4666">15</text><text fill="#29485B" font-family="sans-serif" font-size="26.25" lengthAdjust="spacing" textLength="226.875" x="147.1875" y="1179.4666">scanne le QR code</text><polygon fill="#456A7D" points="1050.9375,1240.752,1069.6875,1248.252,1050.9375,1255.752,1058.4375,1248.252" style="stroke:#456A7D;stroke-width:1.875;"/><line style="stroke:#456A7D;stroke-width:2.625;" x1="495.9375" x2="1062.1875" y1="1248.252" y2="1248.252"/><text fill="#29485B" font-family="sans-serif" font-size="26.25" font-weight="bold" lengthAdjust="spacing" textLength="30" x="509.0625" y="1238.7341">16</text><text fill="#29485B" font-family="sans-serif" font-size="26.25" lengthAdjust="spacing" textLength="307.5" x="546.5625" y="1238.7341">confirmerR&#233;ception(code)</text><polygon fill="#456A7D" points="1444.6875,1300.0195,1463.4375,1307.5195,1444.6875,1315.0195,1452.1875,1307.5195" style="stroke:#456A7D;stroke-width:1.875;"/><line style="stroke:#456A7D;stroke-width:2.625;" x1="1073.4375" x2="1455.9375" y1="1307.5195" y2="1307.5195"/><text fill="#29485B" font-family="sans-serif" font-size="26.25" font-weight="bold" lengthAdjust="spacing" textLength="30" x="1086.5625" y="1298.0017">17</text><text fill="#29485B" font-family="sans-serif" font-size="26.25" lengthAdjust="spacing" textLength="253.125" x="1124.0625" y="1298.0017">commande confirm&#233;e</text><line style="stroke:#9CB4C1;stroke-width:1.875;stroke-dasharray:2.0,2.0;" x1="18.75" x2="1880.625" y1="1324.3945" y2="1324.3945"/><text fill="#000000" font-family="sans-serif" font-size="26.25" font-weight="bold" lengthAdjust="spacing" textLength="183.75" x="28.125" y="1351.6443">[retrait direct]</text><polygon fill="#456A7D" points="473.4375,1396.0547,492.1875,1403.5547,473.4375,1411.0547,480.9375,1403.5547" style="stroke:#456A7D;stroke-width:1.875;"/><line style="stroke:#456A7D;stroke-width:2.625;" x1="96.5625" x2="484.6875" y1="1403.5547" y2="1403.5547"/><text fill="#29485B" font-family="sans-serif" font-size="26.25" font-weight="bold" lengthAdjust="spacing" textLength="30" x="109.6875" y="1394.0369">18</text><text fill="#29485B" font-family="sans-serif" font-size="26.25" lengthAdjust="spacing" textLength="247.5" x="147.1875" y="1394.0369">confirme la r&#233;ception</text><polygon fill="#456A7D" points="1050.9375,1455.3223,1069.6875,1462.8223,1050.9375,1470.3223,1058.4375,1462.8223" style="stroke:#456A7D;stroke-width:1.875;"/><line style="stroke:#456A7D;stroke-width:2.625;" x1="495.9375" x2="1062.1875" y1="1462.8223" y2="1462.8223"/><text fill="#29485B" font-family="sans-serif" font-size="26.25" font-weight="bold" lengthAdjust="spacing" textLength="30" x="509.0625" y="1453.3044">19</text><text fill="#29485B" font-family="sans-serif" font-size="26.25" lengthAdjust="spacing" textLength="249.375" x="546.5625" y="1453.3044">confirmerR&#233;ception()</text><polygon fill="#456A7D" points="1444.6875,1514.5898,1463.4375,1522.0898,1444.6875,1529.5898,1452.1875,1522.0898" style="stroke:#456A7D;stroke-width:1.875;"/><line style="stroke:#456A7D;stroke-width:2.625;" x1="1073.4375" x2="1455.9375" y1="1522.0898" y2="1522.0898"/><text fill="#29485B" font-family="sans-serif" font-size="26.25" font-weight="bold" lengthAdjust="spacing" textLength="30" x="1086.5625" y="1512.572">20</text><text fill="#29485B" font-family="sans-serif" font-size="26.25" lengthAdjust="spacing" textLength="253.125" x="1124.0625" y="1512.572">commande confirm&#233;e</text><polygon fill="#456A7D" points="1444.6875,1586.9824,1463.4375,1594.4824,1444.6875,1601.9824,1452.1875,1594.4824" style="stroke:#456A7D;stroke-width:1.875;"/><line style="stroke:#456A7D;stroke-width:2.625;" x1="1073.4375" x2="1455.9375" y1="1594.4824" y2="1594.4824"/><text fill="#29485B" font-family="sans-serif" font-size="26.25" font-weight="bold" lengthAdjust="spacing" textLength="30" x="1086.5625" y="1584.9646">21</text><text fill="#29485B" font-family="sans-serif" font-size="26.25" lengthAdjust="spacing" textLength="238.125" x="1124.0625" y="1584.9646">cr&#233;e les versements</text><polygon fill="#456A7D" points="117.1875,1646.25,98.4375,1653.75,117.1875,1661.25,109.6875,1653.75" style="stroke:#456A7D;stroke-width:1.875;"/><line style="stroke:#456A7D;stroke-width:2.625;stroke-dasharray:2.0,2.0;" x1="105.9375" x2="1071.5625" y1="1653.75" y2="1653.75"/><text fill="#29485B" font-family="sans-serif" font-size="26.25" font-weight="bold" lengthAdjust="spacing" textLength="30" x="128.4375" y="1644.2322">22</text><text fill="#29485B" font-family="sans-serif" font-size="26.25" lengthAdjust="spacing" textLength="266.25" x="165.9375" y="1644.2322">confirme la commande</text><!--SRC=[ZPRDSk964CVlUeekvs2dQkCo81QSGweaa7PTvV8Iizxx8BLWojACTcR0IqvvY3n0hZm7Rx9FaXuXo02oRChueFvrzxy_nCmbJCqwHqXaKIm5_Fpx7qWvcojM5AWXod4raa9WOhnBc7xx1Bz39bN13ApecLGSSn1eOFil6Baq28RnFCThc3nO5d-KKXbOC6jAjvkC2swu5DUUVkQYP9G6PYnvdYkv5Eb8vbB1Bt7rSOYqvD0PtZXFz8AbyeMBEMGir-XOga29L08LTBgE8UUaSrqYaA25TADZnfQvYQKm3wn0c3AXfwXurinC-Ly87TynVkKcnrRt0r4vTs-QJ7NndK6lwuyT851AljH6l_yn69mP7U_khJ_iXwV0rmLFdWLg3PrhL_Y3D1WsT7yO3KyfgL9KDH7rWyZldn2EY7xe3pkHOvzG3ZO_3d8RX8DWq02TwV7Z8Fvu3hezYobbhndPRVTCvgdRbSJm5JVhysGtyJ3kDP6kzcuy61ztkQPQvrWpOyuAATAcllV6mnO7Ly5uUDllneqLlIfob3EjmpTVjXtMMcw5V4P6o5cyo8zxKN0AjpKc4gPn5AV2QgvLsOvfopOrh67fet4yY3jdM6kk2cbBzQGnOReXMK0xFMm0tNIzQE3Vtfn3hRNXzoMA1EzvHbznyiADGd_KQQFVdC3UOyAKuGalcJ1l5zVar5hetY6mvylxHUtmzedLw2SAM9v77iHXF7uLR-YbHyUQ5CjYXifZDZszXWiqk5J0D0IZpzxCncTg3HTtmg3AM8BmWhCBQt-wyn8Qff8vN3ZdR6KB9XClPORDQE9m4Th_AVqHiTsWhf1nMEUCvL89hdMTDlxoz5XRxlbArK_lxxvvdh5d3Opef6U2mj6nhRQR14jx8eFdaM3uxG_IHGTtif1SSmFv9HD2KXCiJSuAZMBSU0GHIZ8jIr5iQtPXhsg73_1zoUphkDryW4Ac-AjdSV8QX-IqscxeZEHeWseZasUR08N2ETT6uOxTgs5PngcpbgMVGaDXxOMZP6jg_97iajc8hBhDM377EgN8k2fGJOWgK9YhOqbx9nkOAjhRR4F9AgJPwNMYUvNje3AnlNmz_uhbF7KQzKhs2hFvFPPJpsc6Z6iQq6uaw07KRZHJMxAIfTHLrWDBZ3KUkg9GfDHS2i7KV3TAkng4DVNdD9JRO9tGUAj1_Fb83kbhCTJZOREkachu1zd7rTOEjbwaczn-mUWIgkobypYxg_3_rNs7X7Ub5wbtF16xrrIgfhkkqjN6wCDUMbd7WlOn_mC0]--></g></svg>