<?xml version="1.0" encoding="us-ascii" standalone="no"?><svg xmlns="http://www.w3.org/2000/svg" xmlns:xlink="http://www.w3.org/1999/xlink" contentStyleType="text/css" height="1737px" preserveAspectRatio="none" style="width:1462px;height:1737px;background:#FFFFFF;" version="1.1" viewBox="0 0 1462 1737" width="1462px" zoomAndPan="magnify"><defs/><g><rect fill="none" height="661.4063" style="stroke:#000000;stroke-width:1.5;" width="1445" x="10" y="747.9922"/><rect fill="none" height="171.9453" style="stroke:#000000;stroke-width:1.5;" width="1006" x="297" y="1107.2109"/><line style="stroke:#181818;stroke-width:0.5;stroke-dasharray:5.0,5.0;" x1="51" x2="51" y1="82.6094" y2="1655.2109"/><line style="stroke:#181818;stroke-width:0.5;stroke-dasharray:5.0,5.0;" x1="341" x2="341" y1="82.6094" y2="1655.2109"/><line style="stroke:#181818;stroke-width:0.5;stroke-dasharray:5.0,5.0;" x1="644" x2="644" y1="82.6094" y2="1655.2109"/><line style="stroke:#181818;stroke-width:0.5;stroke-dasharray:5.0,5.0;" x1="890.5" x2="890.5" y1="82.6094" y2="1655.2109"/><line style="stroke:#181818;stroke-width:0.5;stroke-dasharray:5.0,5.0;" x1="1234" x2="1234" y1="82.6094" y2="1655.2109"/><line style="stroke:#181818;stroke-width:0.5;stroke-dasharray:5.0,5.0;" x1="1344" x2="1344" y1="82.6094" y2="1655.2109"/><line style="stroke:#181818;stroke-width:0.5;stroke-dasharray:5.0,5.0;" x1="1420" x2="1420" y1="82.6094" y2="1655.2109"/><text fill="#000000" font-family="sans-serif" font-size="14" lengthAdjust="spacing" textLength="57" x="20" y="79.5332">Acheteur</text><ellipse cx="51.5" cy="13.5" fill="#E2E2F0" rx="8" ry="8" style="stroke:#181818;stroke-width:0.5;"/><path d="M51.5,21.5 L51.5,48.5 M38.5,29.5 L64.5,29.5 M51.5,48.5 L38.5,63.5 M51.5,48.5 L64.5,63.5 " fill="none" style="stroke:#181818;stroke-width:0.5;"/><text fill="#000000" font-family="sans-serif" font-size="14" lengthAdjust="spacing" textLength="57" x="20" y="1668.7441">Acheteur</text><ellipse cx="51.5" cy="1680.3203" fill="#E2E2F0" rx="8" ry="8" style="stroke:#181818;stroke-width:0.5;"/><path d="M51.5,1688.3203 L51.5,1715.3203 M38.5,1696.3203 L64.5,1696.3203 M51.5,1715.3203 L38.5,1730.3203 M51.5,1715.3203 L64.5,1730.3203 " fill="none" style="stroke:#181818;stroke-width:0.5;"/><rect fill="#E2E2F0" height="31.6094" rx="2.5" ry="2.5" style="stroke:#181818;stroke-width:0.5;" width="69" x="307" y="50"/><text fill="#000000" font-family="sans-serif" font-size="14" lengthAdjust="spacing" textLength="55" x="314" y="71.5332">Interface</text><rect fill="#E2E2F0" height="31.6094" rx="2.5" ry="2.5" style="stroke:#181818;stroke-width:0.5;" width="69" x="307" y="1654.2109"/><text fill="#000000" font-family="sans-serif" font-size="14" lengthAdjust="spacing" textLength="55" x="314" y="1675.7441">Interface</text><rect fill="#E2E2F0" height="31.6094" rx="2.5" ry="2.5" style="stroke:#181818;stroke-width:0.5;" width="153" x="568" y="50"/><text fill="#000000" font-family="sans-serif" font-size="14" lengthAdjust="spacing" textLength="139" x="575" y="71.5332">Contr&#244;leurCommande</text><rect fill="#E2E2F0" height="31.6094" rx="2.5" ry="2.5" style="stroke:#181818;stroke-width:0.5;" width="153" x="568" y="1654.2109"/><text fill="#000000" font-family="sans-serif" font-size="14" lengthAdjust="spacing" textLength="139" x="575" y="1675.7441">Contr&#244;leurCommande</text><rect fill="#E2E2F0" height="31.6094" rx="2.5" ry="2.5" style="stroke:#181818;stroke-width:0.5;" width="140" x="820.5" y="50"/><text fill="#000000" font-family="sans-serif" font-size="14" lengthAdjust="spacing" textLength="126" x="827.5" y="71.5332">Contr&#244;leurPaiement</text><rect fill="#E2E2F0" height="31.6094" rx="2.5" ry="2.5" style="stroke:#181818;stroke-width:0.5;" width="140" x="820.5" y="1654.2109"/><text fill="#000000" font-family="sans-serif" font-size="14" lengthAdjust="spacing" textLength="126" x="827.5" y="1675.7441">Contr&#244;leurPaiement</text><text fill="#000000" font-family="sans-serif" font-size="14" lengthAdjust="spacing" textLength="111" x="1176" y="79.5332">Base de donn&#233;es</text><path d="M1216.5,29 C1216.5,19 1234.5,19 1234.5,19 C1234.5,19 1252.5,19 1252.5,29 L1252.5,55 C1252.5,65 1234.5,65 1234.5,65 C1234.5,65 1216.5,65 1216.5,55 L1216.5,29 " fill="#E2E2F0" style="stroke:#181818;stroke-width:1.5;"/><path d="M1216.5,29 C1216.5,39 1234.5,39 1234.5,39 C1234.5,39 1252.5,39 1252.5,29 " fill="none" style="stroke:#181818;stroke-width:1.5;"/><text fill="#000000" font-family="sans-serif" font-size="14" lengthAdjust="spacing" textLength="111" x="1176" y="1668.7441">Base de donn&#233;es</text><path d="M1216.5,1681.8203 C1216.5,1671.8203 1234.5,1671.8203 1234.5,1671.8203 C1234.5,1671.8203 1252.5,1671.8203 1252.5,1681.8203 L1252.5,1707.8203 C1252.5,1717.8203 1234.5,1717.8203 1234.5,1717.8203 C1234.5,1717.8203 1216.5,1717.8203 1216.5,1707.8203 L1216.5,1681.8203 " fill="#E2E2F0" style="stroke:#181818;stroke-width:1.5;"/><path d="M1216.5,1681.8203 C1216.5,1691.8203 1234.5,1691.8203 1234.5,1691.8203 C1234.5,1691.8203 1252.5,1691.8203 1252.5,1681.8203 " fill="none" style="stroke:#181818;stroke-width:1.5;"/><text fill="#000000" font-family="sans-serif" font-size="14" lengthAdjust="spacing" textLength="76" x="1303" y="79.5332">Fournisseur</text><ellipse cx="1344" cy="13.5" fill="#E2E2F0" rx="8" ry="8" style="stroke:#181818;stroke-width:0.5;"/><path d="M1344,21.5 L1344,48.5 M1331,29.5 L1357,29.5 M1344,48.5 L1331,63.5 M1344,48.5 L1357,63.5 " fill="none" style="stroke:#181818;stroke-width:0.5;"/><text fill="#000000" font-family="sans-serif" font-size="14" lengthAdjust="spacing" textLength="76" x="1303" y="1668.7441">Fournisseur</text><ellipse cx="1344" cy="1680.3203" fill="#E2E2F0" rx="8" ry="8" style="stroke:#181818;stroke-width:0.5;"/><path d="M1344,1688.3203 L1344,1715.3203 M1331,1696.3203 L1357,1696.3203 M1344,1715.3203 L1331,1730.3203 M1344,1715.3203 L1357,1730.3203 " fill="none" style="stroke:#181818;stroke-width:0.5;"/><text fill="#000000" font-family="sans-serif" font-size="14" lengthAdjust="spacing" textLength="44" x="1395" y="79.5332">Livreur</text><ellipse cx="1420" cy="13.5" fill="#E2E2F0" rx="8" ry="8" style="stroke:#181818;stroke-width:0.5;"/><path d="M1420,21.5 L1420,48.5 M1407,29.5 L1433,29.5 M1420,48.5 L1407,63.5 M1420,48.5 L1433,63.5 " fill="none" style="stroke:#181818;stroke-width:0.5;"/><text fill="#000000" font-family="sans-serif" font-size="14" lengthAdjust="spacing" textLength="44" x="1395" y="1668.7441">Livreur</text><ellipse cx="1420" cy="1680.3203" fill="#E2E2F0" rx="8" ry="8" style="stroke:#181818;stroke-width:0.5;"/><path d="M1420,1688.3203 L1420,1715.3203 M1407,1696.3203 L1433,1696.3203 M1420,1715.3203 L1407,1730.3203 M1420,1715.3203 L1433,1730.3203 " fill="none" style="stroke:#181818;stroke-width:0.5;"/><polygon fill="#181818" points="329.5,127.3125,339.5,131.3125,329.5,135.3125,333.5,131.3125" style="stroke:#181818;stroke-width:1.0;"/><line style="stroke:#181818;stroke-width:1.0;" x1="51.5" x2="335.5" y1="131.3125" y2="131.3125"/><text fill="#000000" font-family="sans-serif" font-size="13" lengthAdjust="spacing" textLength="195" x="58.5" y="110.1045">choisit une annonce, une quantit&#233;</text><text fill="#000000" font-family="sans-serif" font-size="13" lengthAdjust="spacing" textLength="266" x="58.5" y="126.4561">et son mode de retrait (livraison / retrait direct)</text><polygon fill="#181818" points="632.5,157.6641,642.5,161.6641,632.5,165.6641,636.5,161.6641" style="stroke:#181818;stroke-width:1.0;"/><line style="stroke:#181818;stroke-width:1.0;" x1="341.5" x2="638.5" y1="161.6641" y2="161.6641"/><text fill="#000000" font-family="sans-serif" font-size="13" lengthAdjust="spacing" textLength="275" x="348.5" y="156.8076">creerCommande(id_annonce, qte, mode_retrait)</text><polygon fill="#181818" points="1222.5,188.0156,1232.5,192.0156,1222.5,196.0156,1226.5,192.0156" style="stroke:#181818;stroke-width:1.0;"/><line style="stroke:#181818;stroke-width:1.0;" x1="644.5" x2="1228.5" y1="192.0156" y2="192.0156"/><text fill="#000000" font-family="sans-serif" font-size="13" lengthAdjust="spacing" textLength="108" x="651.5" y="187.1592">v&#233;rifier disponibilit&#233;</text><polygon fill="#181818" points="655.5,218.3672,645.5,222.3672,655.5,226.3672,651.5,222.3672" style="stroke:#181818;stroke-width:1.0;"/><line style="stroke:#181818;stroke-width:1.0;stroke-dasharray:2.0,2.0;" x1="649.5" x2="1233.5" y1="222.3672" y2="222.3672"/><text fill="#000000" font-family="sans-serif" font-size="13" lengthAdjust="spacing" textLength="108" x="661.5" y="217.5107">quantit&#233; disponible</text><line style="stroke:#181818;stroke-width:1.0;" x1="644.5" x2="686.5" y1="269.0703" y2="269.0703"/><line style="stroke:#181818;stroke-width:1.0;" x1="686.5" x2="686.5" y1="269.0703" y2="282.0703"/><line style="stroke:#181818;stroke-width:1.0;" x1="645.5" x2="686.5" y1="282.0703" y2="282.0703"/><polygon fill="#181818" points="655.5,278.0703,645.5,282.0703,655.5,286.0703,651.5,282.0703" style="stroke:#181818;stroke-width:1.0;"/><text fill="#000000" font-family="sans-serif" font-size="13" lengthAdjust="spacing" textLength="193" x="651.5" y="247.8623">calculer montant_total, r&#233;duction,</text><text fill="#000000" font-family="sans-serif" font-size="13" lengthAdjust="spacing" textLength="143" x="651.5" y="264.2139">montant_net_commande</text><line style="stroke:#181818;stroke-width:1.0;" x1="644.5" x2="686.5" y1="312.4219" y2="312.4219"/><line style="stroke:#181818;stroke-width:1.0;" x1="686.5" x2="686.5" y1="312.4219" y2="325.4219"/><line style="stroke:#181818;stroke-width:1.0;" x1="645.5" x2="686.5" y1="325.4219" y2="325.4219"/><polygon fill="#181818" points="655.5,321.4219,645.5,325.4219,655.5,329.4219,651.5,325.4219" style="stroke:#181818;stroke-width:1.0;"/><text fill="#000000" font-family="sans-serif" font-size="13" lengthAdjust="spacing" textLength="180" x="651.5" y="307.5654">g&#233;n&#233;rer code_authenticite (QR)</text><polygon fill="#181818" points="1222.5,351.7734,1232.5,355.7734,1222.5,359.7734,1226.5,355.7734" style="stroke:#181818;stroke-width:1.0;"/><line style="stroke:#181818;stroke-width:1.0;" x1="644.5" x2="1228.5" y1="355.7734" y2="355.7734"/><text fill="#000000" font-family="sans-serif" font-size="13" lengthAdjust="spacing" textLength="187" x="651.5" y="350.917">INSERT commande (en_attente)</text><polygon fill="#181818" points="352.5,382.125,342.5,386.125,352.5,390.125,348.5,386.125" style="stroke:#181818;stroke-width:1.0;"/><line style="stroke:#181818;stroke-width:1.0;stroke-dasharray:2.0,2.0;" x1="346.5" x2="643.5" y1="386.125" y2="386.125"/><text fill="#000000" font-family="sans-serif" font-size="13" lengthAdjust="spacing" textLength="207" x="358.5" y="381.2686">commande cr&#233;&#233;e, aller au paiement</text><polygon fill="#181818" points="329.5,412.4766,339.5,416.4766,329.5,420.4766,333.5,416.4766" style="stroke:#181818;stroke-width:1.0;"/><line style="stroke:#181818;stroke-width:1.0;" x1="51.5" x2="335.5" y1="416.4766" y2="416.4766"/><text fill="#000000" font-family="sans-serif" font-size="13" lengthAdjust="spacing" textLength="116" x="58.5" y="411.6201">effectue le paiement</text><polygon fill="#181818" points="878.5,442.8281,888.5,446.8281,878.5,450.8281,882.5,446.8281" style="stroke:#181818;stroke-width:1.0;"/><line style="stroke:#181818;stroke-width:1.0;" x1="341.5" x2="884.5" y1="446.8281" y2="446.8281"/><text fill="#000000" font-family="sans-serif" font-size="13" lengthAdjust="spacing" textLength="269" x="348.5" y="441.9717">payer(id_commande, moyen, numero_compte)</text><line style="stroke:#181818;stroke-width:1.0;" x1="890.5" x2="932.5" y1="477.1797" y2="477.1797"/><line style="stroke:#181818;stroke-width:1.0;" x1="932.5" x2="932.5" y1="477.1797" y2="490.1797"/><line style="stroke:#181818;stroke-width:1.0;" x1="891.5" x2="932.5" y1="490.1797" y2="490.1797"/><polygon fill="#181818" points="901.5,486.1797,891.5,490.1797,901.5,494.1797,897.5,490.1797" style="stroke:#181818;stroke-width:1.0;"/><text fill="#000000" font-family="sans-serif" font-size="13" lengthAdjust="spacing" textLength="302" x="897.5" y="472.3232">calculer commissions (5% commande, 5% livraison)</text><polygon fill="#181818" points="1222.5,516.5313,1232.5,520.5313,1222.5,524.5313,1226.5,520.5313" style="stroke:#181818;stroke-width:1.0;"/><line style="stroke:#181818;stroke-width:1.0;" x1="890.5" x2="1228.5" y1="520.5313" y2="520.5313"/><text fill="#000000" font-family="sans-serif" font-size="13" lengthAdjust="spacing" textLength="225" x="897.5" y="515.6748">INSERT paiement (statut = en_attente)</text><polygon fill="#181818" points="1222.5,546.8828,1232.5,550.8828,1222.5,554.8828,1226.5,550.8828" style="stroke:#181818;stroke-width:1.0;"/><line style="stroke:#181818;stroke-width:1.0;" x1="890.5" x2="1228.5" y1="550.8828" y2="550.8828"/><text fill="#000000" font-family="sans-serif" font-size="13" lengthAdjust="spacing" textLength="205" x="897.5" y="546.0264">UPDATE paiement (statut = reussi)</text><polygon fill="#181818" points="1222.5,577.2344,1232.5,581.2344,1222.5,585.2344,1226.5,581.2344" style="stroke:#181818;stroke-width:1.0;"/><line style="stroke:#181818;stroke-width:1.0;" x1="890.5" x2="1228.5" y1="581.2344" y2="581.2344"/><text fill="#000000" font-family="sans-serif" font-size="13" lengthAdjust="spacing" textLength="216" x="897.5" y="576.3779">UPDATE commande (statut = payee)</text><polygon fill="#181818" points="1332,607.5859,1342,611.5859,1332,615.5859,1336,611.5859" style="stroke:#181818;stroke-width:1.0;"/><line style="stroke:#181818;stroke-width:1.0;" x1="890.5" x2="1338" y1="611.5859" y2="611.5859"/><text fill="#000000" font-family="sans-serif" font-size="13" lengthAdjust="spacing" textLength="223" x="897.5" y="606.7295">notification(nouvelle commande pay&#233;e)</text><polygon fill="#181818" points="1222.5,637.9375,1232.5,641.9375,1222.5,645.9375,1226.5,641.9375" style="stroke:#181818;stroke-width:1.0;"/><line style="stroke:#181818;stroke-width:1.0;" x1="890.5" x2="1228.5" y1="641.9375" y2="641.9375"/><text fill="#000000" font-family="sans-serif" font-size="13" lengthAdjust="spacing" textLength="320" x="897.5" y="637.0811">UPDATE commande (statut = en_cours_de_traitement)</text><polygon fill="#181818" points="352.5,668.2891,342.5,672.2891,352.5,676.2891,348.5,672.2891" style="stroke:#181818;stroke-width:1.0;"/><line style="stroke:#181818;stroke-width:1.0;" x1="346.5" x2="1343" y1="672.2891" y2="672.2891"/><text fill="#000000" font-family="sans-serif" font-size="13" lengthAdjust="spacing" textLength="182" x="358.5" y="667.4326">consulte et valide la commande</text><polygon fill="#181818" points="632.5,698.6406,642.5,702.6406,632.5,706.6406,636.5,702.6406" style="stroke:#181818;stroke-width:1.0;"/><line style="stroke:#181818;stroke-width:1.0;" x1="341.5" x2="638.5" y1="702.6406" y2="702.6406"/><text fill="#000000" font-family="sans-serif" font-size="13" lengthAdjust="spacing" textLength="191" x="348.5" y="697.7842">validerCommande(id_commande)</text><polygon fill="#181818" points="1222.5,728.9922,1232.5,732.9922,1222.5,736.9922,1226.5,732.9922" style="stroke:#181818;stroke-width:1.0;"/><line style="stroke:#181818;stroke-width:1.0;" x1="644.5" x2="1228.5" y1="732.9922" y2="732.9922"/><text fill="#000000" font-family="sans-serif" font-size="13" lengthAdjust="spacing" textLength="220" x="651.5" y="728.1357">UPDATE commande (statut = validee)</text><path d="M10,747.9922 L71,747.9922 L71,756.3438 L61,766.3438 L10,766.3438 L10,747.9922 " fill="#EEEEEE" style="stroke:#000000;stroke-width:1.5;"/><rect fill="none" height="661.4063" style="stroke:#000000;stroke-width:1.5;" width="1445" x="10" y="747.9922"/><text fill="#000000" font-family="sans-serif" font-size="13" font-weight="bold" lengthAdjust="spacing" textLength="16" x="25" y="762.4873">alt</text><text fill="#000000" font-family="sans-serif" font-size="11" font-weight="bold" lengthAdjust="spacing" textLength="189" x="86" y="761.4111">[l'acheteur avait choisi la livraison]</text><polygon fill="#181818" points="1408,784.6953,1418,788.6953,1408,792.6953,1412,788.6953" style="stroke:#181818;stroke-width:1.0;"/><line style="stroke:#181818;stroke-width:1.0;" x1="644.5" x2="1414" y1="788.6953" y2="788.6953"/><text fill="#000000" font-family="sans-serif" font-size="13" lengthAdjust="spacing" textLength="178" x="651.5" y="783.8389">notification(livraison disponible)</text><polygon fill="#181818" points="352.5,815.0469,342.5,819.0469,352.5,823.0469,348.5,819.0469" style="stroke:#181818;stroke-width:1.0;"/><line style="stroke:#181818;stroke-width:1.0;" x1="346.5" x2="1419" y1="819.0469" y2="819.0469"/><text fill="#000000" font-family="sans-serif" font-size="13" lengthAdjust="spacing" textLength="157" x="358.5" y="814.1904">prend en charge la livraison</text><polygon fill="#181818" points="632.5,845.3984,642.5,849.3984,632.5,853.3984,636.5,849.3984" style="stroke:#181818;stroke-width:1.0;"/><line style="stroke:#181818;stroke-width:1.0;" x1="341.5" x2="638.5" y1="849.3984" y2="849.3984"/><text fill="#000000" font-family="sans-serif" font-size="13" lengthAdjust="spacing" textLength="239" x="348.5" y="844.542">prendreEnChargeLivraison(id_commande)</text><polygon fill="#181818" points="1222.5,875.75,1232.5,879.75,1222.5,883.75,1226.5,879.75" style="stroke:#181818;stroke-width:1.0;"/><line style="stroke:#181818;stroke-width:1.0;" x1="644.5" x2="1228.5" y1="879.75" y2="879.75"/><text fill="#000000" font-family="sans-serif" font-size="13" lengthAdjust="spacing" textLength="252" x="651.5" y="874.8936">INSERT livraison (statut = prise_en_charge)</text><polygon fill="#181818" points="1222.5,906.1016,1232.5,910.1016,1222.5,914.1016,1226.5,910.1016" style="stroke:#181818;stroke-width:1.0;"/><line style="stroke:#181818;stroke-width:1.0;" x1="644.5" x2="1228.5" y1="910.1016" y2="910.1016"/><text fill="#000000" font-family="sans-serif" font-size="13" lengthAdjust="spacing" textLength="308" x="651.5" y="905.2451">UPDATE commande (statut = en_cours_de_livraison)</text><polygon fill="#181818" points="352.5,936.4531,342.5,940.4531,352.5,944.4531,348.5,940.4531" style="stroke:#181818;stroke-width:1.0;"/><line style="stroke:#181818;stroke-width:1.0;" x1="346.5" x2="1419" y1="940.4531" y2="940.4531"/><text fill="#000000" font-family="sans-serif" font-size="13" lengthAdjust="spacing" textLength="218" x="358.5" y="935.5967">livre la commande, affiche le QR code</text><polygon fill="#181818" points="632.5,966.8047,642.5,970.8047,632.5,974.8047,636.5,970.8047" style="stroke:#181818;stroke-width:1.0;"/><line style="stroke:#181818;stroke-width:1.0;" x1="341.5" x2="638.5" y1="970.8047" y2="970.8047"/><text fill="#000000" font-family="sans-serif" font-size="13" lengthAdjust="spacing" textLength="212" x="348.5" y="965.9482">demarrerConfirmation(id_commande)</text><polygon fill="#181818" points="1222.5,997.1563,1232.5,1001.1563,1222.5,1005.1563,1226.5,1001.1563" style="stroke:#181818;stroke-width:1.0;"/><line style="stroke:#181818;stroke-width:1.0;" x1="644.5" x2="1228.5" y1="1001.1563" y2="1001.1563"/><text fill="#000000" font-family="sans-serif" font-size="13" lengthAdjust="spacing" textLength="210" x="651.5" y="996.2998">UPDATE commande (statut = livree)</text><polygon fill="#181818" points="329.5,1027.5078,339.5,1031.5078,329.5,1035.5078,333.5,1031.5078" style="stroke:#181818;stroke-width:1.0;"/><line style="stroke:#181818;stroke-width:1.0;" x1="51.5" x2="335.5" y1="1031.5078" y2="1031.5078"/><text fill="#000000" font-family="sans-serif" font-size="13" lengthAdjust="spacing" textLength="111" x="58.5" y="1026.6514">scanne le QR code</text><polygon fill="#181818" points="632.5,1057.8594,642.5,1061.8594,632.5,1065.8594,636.5,1061.8594" style="stroke:#181818;stroke-width:1.0;"/><line style="stroke:#181818;stroke-width:1.0;" x1="341.5" x2="638.5" y1="1061.8594" y2="1061.8594"/><text fill="#000000" font-family="sans-serif" font-size="13" lengthAdjust="spacing" textLength="279" x="348.5" y="1057.0029">verifierAuthenticite(id_commande, code_scanne)</text><polygon fill="#181818" points="1222.5,1088.2109,1232.5,1092.2109,1222.5,1096.2109,1226.5,1092.2109" style="stroke:#181818;stroke-width:1.0;"/><line style="stroke:#181818;stroke-width:1.0;" x1="644.5" x2="1228.5" y1="1092.2109" y2="1092.2109"/><text fill="#000000" font-family="sans-serif" font-size="13" lengthAdjust="spacing" textLength="160" x="651.5" y="1087.3545">comparer code_authenticite</text><path d="M297,1107.2109 L358,1107.2109 L358,1115.5625 L348,1125.5625 L297,1125.5625 L297,1107.2109 " fill="#EEEEEE" style="stroke:#000000;stroke-width:1.5;"/><rect fill="none" height="171.9453" style="stroke:#000000;stroke-width:1.5;" width="1006" x="297" y="1107.2109"/><text fill="#000000" font-family="sans-serif" font-size="13" font-weight="bold" lengthAdjust="spacing" textLength="16" x="312" y="1121.7061">alt</text><text fill="#000000" font-family="sans-serif" font-size="11" font-weight="bold" lengthAdjust="spacing" textLength="70" x="373" y="1120.6299">[code valide]</text><polygon fill="#181818" points="1222.5,1143.9141,1232.5,1147.9141,1222.5,1151.9141,1226.5,1147.9141" style="stroke:#181818;stroke-width:1.0;"/><line style="stroke:#181818;stroke-width:1.0;" x1="644.5" x2="1228.5" y1="1147.9141" y2="1147.9141"/><text fill="#000000" font-family="sans-serif" font-size="13" lengthAdjust="spacing" textLength="237" x="651.5" y="1143.0576">UPDATE commande (statut = confirmee)</text><polygon fill="#181818" points="1222.5,1190.6172,1232.5,1194.6172,1222.5,1198.6172,1226.5,1194.6172" style="stroke:#181818;stroke-width:1.0;"/><line style="stroke:#181818;stroke-width:1.0;" x1="644.5" x2="1228.5" y1="1194.6172" y2="1194.6172"/><text fill="#000000" font-family="sans-serif" font-size="13" lengthAdjust="spacing" textLength="213" x="651.5" y="1173.4092">UPDATE livraison (statut = terminee,</text><text fill="#000000" font-family="sans-serif" font-size="13" lengthAdjust="spacing" textLength="193" x="651.5" y="1189.7607">verification_authenticite = verifiee)</text><line style="stroke:#000000;stroke-width:1.0;stroke-dasharray:2.0,2.0;" x1="297" x2="1303" y1="1203.6172" y2="1203.6172"/><text fill="#000000" font-family="sans-serif" font-size="11" font-weight="bold" lengthAdjust="spacing" textLength="80" x="302" y="1215.0361">[code invalide]</text><polygon fill="#181818" points="1222.5,1236.8047,1232.5,1240.8047,1222.5,1244.8047,1226.5,1240.8047" style="stroke:#181818;stroke-width:1.0;"/><line style="stroke:#181818;stroke-width:1.0;" x1="644.5" x2="1228.5" y1="1240.8047" y2="1240.8047"/><text fill="#000000" font-family="sans-serif" font-size="13" lengthAdjust="spacing" textLength="306" x="651.5" y="1235.9482">UPDATE livraison (verification_authenticite = echoue)</text><polygon fill="#181818" points="352.5,1267.1563,342.5,1271.1563,352.5,1275.1563,348.5,1271.1563" style="stroke:#181818;stroke-width:1.0;"/><line style="stroke:#181818;stroke-width:1.0;stroke-dasharray:2.0,2.0;" x1="346.5" x2="643.5" y1="1271.1563" y2="1271.1563"/><text fill="#000000" font-family="sans-serif" font-size="13" lengthAdjust="spacing" textLength="134" x="358.5" y="1266.2998">alerte fraude potentielle</text><line style="stroke:#000000;stroke-width:1.0;stroke-dasharray:2.0,2.0;" x1="10" x2="1455" y1="1287.1563" y2="1287.1563"/><text fill="#000000" font-family="sans-serif" font-size="11" font-weight="bold" lengthAdjust="spacing" textLength="212" x="15" y="1298.5752">[l'acheteur avait choisi le retrait direct]</text><polygon fill="#181818" points="329.5,1336.6953,339.5,1340.6953,329.5,1344.6953,333.5,1340.6953" style="stroke:#181818;stroke-width:1.0;"/><line style="stroke:#181818;stroke-width:1.0;" x1="51.5" x2="335.5" y1="1340.6953" y2="1340.6953"/><text fill="#000000" font-family="sans-serif" font-size="13" lengthAdjust="spacing" textLength="210" x="58.5" y="1319.4873">confirme la r&#233;ception en main propre</text><text fill="#000000" font-family="sans-serif" font-size="13" lengthAdjust="spacing" textLength="191" x="58.5" y="1335.8389">(aucune v&#233;rification par QR code)</text><polygon fill="#181818" points="632.5,1367.0469,642.5,1371.0469,632.5,1375.0469,636.5,1371.0469" style="stroke:#181818;stroke-width:1.0;"/><line style="stroke:#181818;stroke-width:1.0;" x1="341.5" x2="638.5" y1="1371.0469" y2="1371.0469"/><text fill="#000000" font-family="sans-serif" font-size="13" lengthAdjust="spacing" textLength="241" x="348.5" y="1366.1904">confirmerReceptionDirecte(id_commande)</text><polygon fill="#181818" points="1222.5,1397.3984,1232.5,1401.3984,1222.5,1405.3984,1226.5,1401.3984" style="stroke:#181818;stroke-width:1.0;"/><line style="stroke:#181818;stroke-width:1.0;" x1="644.5" x2="1228.5" y1="1401.3984" y2="1401.3984"/><text fill="#000000" font-family="sans-serif" font-size="13" lengthAdjust="spacing" textLength="237" x="651.5" y="1396.542">UPDATE commande (statut = confirmee)</text><polygon fill="#181818" points="878.5,1434.75,888.5,1438.75,878.5,1442.75,882.5,1438.75" style="stroke:#181818;stroke-width:1.0;"/><line style="stroke:#181818;stroke-width:1.0;" x1="644.5" x2="884.5" y1="1438.75" y2="1438.75"/><text fill="#000000" font-family="sans-serif" font-size="13" lengthAdjust="spacing" textLength="222" x="651.5" y="1433.8936">d&#233;clencherVersements(id_commande)</text><polygon fill="#181818" points="1222.5,1465.1016,1232.5,1469.1016,1222.5,1473.1016,1226.5,1469.1016" style="stroke:#181818;stroke-width:1.0;"/><line style="stroke:#181818;stroke-width:1.0;" x1="890.5" x2="1228.5" y1="1469.1016" y2="1469.1016"/><text fill="#000000" font-family="sans-serif" font-size="13" lengthAdjust="spacing" textLength="184" x="897.5" y="1464.2451">INSERT versement (fournisseur)</text><polygon fill="#181818" points="1222.5,1495.4531,1232.5,1499.4531,1222.5,1503.4531,1226.5,1499.4531" style="stroke:#181818;stroke-width:1.0;"/><line style="stroke:#181818;stroke-width:1.0;" x1="890.5" x2="1228.5" y1="1499.4531" y2="1499.4531"/><text fill="#000000" font-family="sans-serif" font-size="13" lengthAdjust="spacing" textLength="234" x="897.5" y="1494.5967">INSERT versement (livreur, si applicable)</text><polygon fill="#181818" points="352.5,1525.8047,342.5,1529.8047,352.5,1533.8047,348.5,1529.8047" style="stroke:#181818;stroke-width:1.0;"/><line style="stroke:#181818;stroke-width:1.0;stroke-dasharray:2.0,2.0;" x1="346.5" x2="643.5" y1="1529.8047" y2="1529.8047"/><text fill="#000000" font-family="sans-serif" font-size="13" lengthAdjust="spacing" textLength="124" x="358.5" y="1524.9482">commande confirm&#233;e</text><polygon fill="#181818" points="329.5,1556.1563,339.5,1560.1563,329.5,1564.1563,333.5,1560.1563" style="stroke:#181818;stroke-width:1.0;"/><line style="stroke:#181818;stroke-width:1.0;" x1="51.5" x2="335.5" y1="1560.1563" y2="1560.1563"/><text fill="#000000" font-family="sans-serif" font-size="13" lengthAdjust="spacing" textLength="147" x="58.5" y="1555.2998">laisse une note et un avis</text><polygon fill="#181818" points="632.5,1586.5078,642.5,1590.5078,632.5,1594.5078,636.5,1590.5078" style="stroke:#181818;stroke-width:1.0;"/><line style="stroke:#181818;stroke-width:1.0;" x1="341.5" x2="638.5" y1="1590.5078" y2="1590.5078"/><text fill="#000000" font-family="sans-serif" font-size="13" lengthAdjust="spacing" textLength="247" x="348.5" y="1585.6514">noterCommande(id_commande, note, avis)</text><polygon fill="#181818" points="1222.5,1633.2109,1232.5,1637.2109,1222.5,1641.2109,1226.5,1637.2109" style="stroke:#181818;stroke-width:1.0;"/><line style="stroke:#181818;stroke-width:1.0;" x1="644.5" x2="1228.5" y1="1637.2109" y2="1637.2109"/><text fill="#000000" font-family="sans-serif" font-size="13" lengthAdjust="spacing" textLength="333" x="651.5" y="1616.0029">UPDATE note_client_commande, avis_client_commande,</text><text fill="#000000" font-family="sans-serif" font-size="13" lengthAdjust="spacing" textLength="237" x="651.5" y="1632.3545">note_client_livraison, avis_client_livraison</text><!--SRC=[dLRRYXiv47tlhn03OMrmsATz2MHXRe61i3YpoJuDc8gwd16erHr9RSWd-Jr_u1_RKsghRxOdGy0qRgdgwDJjg4d7sgkhQ_tCaLj_fIWel1GD-MYqQSX5TVNW8lijQKxRNnwckxUrY_xmqyBzjgugScLdTnkzlMYv9iCLkzXRhekI8dsbmEhgHfubVhLpXps7P7HtKr17zaFTUcT2o7pbFUzzD3kVr_6_A12CUlitIAjtIZ_N9fYeMiUAdAkTvbLw-Tw2duc7_PFZg4BjL5MNYOBdw0ak2mjWChBrPxzO6iywBWk0umY9GWxnp7qY5gRSz2TzZtW8yEO8i2oI3tplRk2vE-ozsHhs00vDxSnNOuLKWTstmm4zsTxCSW-KIP3LhGLIXPJ3V1FhI7Qb_65VjZgQsgsUNDv3p1jz93m7-dROemGUI5g8KnkVKJLKDB9QV7gSHV3mpx_tZvzL1bCBTXkA4HwSBVjQP1iDJYZoIf4LmjIgvjWRq-BnTejajwmi3nP3vjSmQUW7Uqbv1fTq_s2tKgwjsDUotcGgwx5ddo_nH6iXGK4j_dgZ1YIyz3qmGXZ7dMcfHOWKswZUgta21fylwxlhp_VdVD30O731ViXjRozXZ-5b7k3WweXkqYJLNhYwtJ4IFFZ32sb__Ic8H0CuRD06gNiJxMLHfEE6ihhGMZG7vcX7rW32KWytdPHkVp8hsN3MLvTPTHYmByX6PV-Wev0fsic4TXCl5FhQ5KfbR0Z4F4_3c0_3jOIBcEOO6y-kH3w0JluRpz4dCIPRp_VkDjb-p7RJO0TAutOQk8ngxKtWZTGYuPsulgv-eqQUXYORaufXBBT8pdCQkq-FIGNcCPPSaVTIIBSrlkeI-L9ybqccywMQIerdFsY8w4iKTjmfv_L8dwP2aEIhmpdX8x90PpKEbj9NidviDQoyEXhT9OJJYUUzpjKObsrb73Cakekhwysf-BxFCITmje4xbiRzWkVen9VG6QFJJeZdOX1q4YPRJwt8I2tgPaHRX8ShYyJbuYJoxFQSLJgdJ7eG5uFcHiZ9i5La7Dg_naGzkGMrMYxkuvNPXG19yxb1blCEoS3-aO-WT-by_irE7TLMWfxSctAZb21lsI49_Z_s8ObbE9MuapjabutLOZjyv_pQs7OVFYk595FJMEGaITUbMxUZZnjWUijQaWFJHn5qCSbuwr124wRQBPjdbNkLjbR9vRoAo_v6MmFQ8o-nFrbzScFZldEdrlto_m00]--></g></svg>