<?plantuml 1.2026.1?><svg xmlns="http://www.w3.org/2000/svg" xmlns:xlink="http://www.w3.org/1999/xlink" contentStyleType="text/css" data-diagram-type="SEQUENCE" height="1550.625px" preserveAspectRatio="none" style="width:2107px;height:1550px;background:#FFFFFF;" version="1.1" viewBox="0 0 2107 1550" width="2107.5px" zoomAndPan="magnify"><title>Paiement, s&#233;questre et versements &#8212; vue simplifi&#233;e</title><defs/><g><text fill="#17324D" font-family="sans-serif" font-size="37.5" font-weight="bold" lengthAdjust="spacing" textLength="1115.5334" x="499.0869" y="62.9333">Paiement, s&#233;questre et versements &#8212; vue simplifi&#233;e</text><rect fill="#F4FAF6" height="263.9648" rx="11.25" ry="11.25" style="stroke:#9CB4C1;stroke-width:2.8125;" width="1265.0537" x="831.7786" y="1104.4336"/><g class="participant-lifeline" data-entity-uid="part1" data-qualified-name="ACH" id="part1-lifeline"><g><title>Acheteur</title><rect fill="#000000" fill-opacity="0.00000" height="1164.8145" width="15" x="67.0239" y="235.459"/><line style="stroke:#9CB4C1;stroke-width:0.9375;stroke-dasharray:9.375,9.375;" x1="73.125" x2="73.125" y1="235.459" y2="1400.2734"/></g></g><g class="participant-lifeline" data-entity-uid="part2" data-qualified-name="UI" id="part2-lifeline"><g><title>Interface web</title><rect fill="#000000" fill-opacity="0.00000" height="1164.8145" width="15" x="418.938" y="235.459"/><line style="stroke:#9CB4C1;stroke-width:0.9375;stroke-dasharray:9.375,9.375;" x1="426.3638" x2="426.3638" y1="235.459" y2="1400.2734"/></g></g><g class="participant-lifeline" data-entity-uid="part3" data-qualified-name="PAY" id="part3-lifeline"><g><title>Service paiement</title><rect fill="#000000" fill-opacity="0.00000" height="1164.8145" width="15" x="963.7537" y="235.459"/><line style="stroke:#9CB4C1;stroke-width:0.9375;stroke-dasharray:9.375,9.375;" x1="970.5286" x2="970.5286" y1="235.459" y2="1400.2734"/></g></g><g class="participant-lifeline" data-entity-uid="part4" data-qualified-name="GATE" id="part4-lifeline"><g><title>Passerelle de paiement</title><rect fill="#000000" fill-opacity="0.00000" height="1164.8145" width="15" x="1343.0713" y="235.459"/><line style="stroke:#9CB4C1;stroke-width:0.9375;stroke-dasharray:9.375,9.375;" x1="1348.7274" x2="1348.7274" y1="235.459" y2="1400.2734"/></g></g><g class="participant-lifeline" data-entity-uid="part5" data-qualified-name="DB" id="part5-lifeline"><g><title>Base de donn.es</title><rect fill="#000000" fill-opacity="0.00000" height="1164.8145" width="15" x="1646.987" y="235.459"/><line style="stroke:#9CB4C1;stroke-width:0.9375;stroke-dasharray:9.375,9.375;" x1="1654.2902" x2="1654.2902" y1="235.459" y2="1400.2734"/></g></g><g class="participant-lifeline" data-entity-uid="part6" data-qualified-name="FOUR" id="part6-lifeline"><g><title>Fournisseur</title><rect fill="#000000" fill-opacity="0.00000" height="1164.8145" width="15" x="1866.4087" y="235.459"/><line style="stroke:#9CB4C1;stroke-width:0.9375;stroke-dasharray:9.375,9.375;" x1="1872.1838" x2="1872.1838" y1="235.459" y2="1400.2734"/></g></g><g class="participant-lifeline" data-entity-uid="part7" data-qualified-name="LIV" id="part7-lifeline"><g><title>Livreur</title><rect fill="#000000" fill-opacity="0.00000" height="1164.8145" width="15" x="2019.0454" y="235.459"/><line style="stroke:#9CB4C1;stroke-width:0.9375;stroke-dasharray:9.375,9.375;" x1="2025.6335" x2="2025.6335" y1="235.459" y2="1400.2734"/></g></g><g class="participant participant-head" data-entity-uid="part1" data-qualified-name="ACH" id="part1-head"><text fill="#000000" font-family="sans-serif" font-size="26.25" lengthAdjust="spacing" textLength="119.0479" x="9.375" y="229.2682">Acheteur</text><ellipse cx="74.5239" cy="108.3398" fill="#FFFFFF" rx="15" ry="15" style="stroke:#2F7D5B;stroke-width:0.9375;"/><path d="M74.5239,123.3398 L74.5239,173.9648 M50.1489,138.3398 L98.8989,138.3398 M74.5239,173.9648 L50.1489,202.0898 M74.5239,173.9648 L98.8989,202.0898" fill="none" style="stroke:#2F7D5B;stroke-width:0.9375;"/></g><g class="participant participant-tail" data-entity-uid="part1" data-qualified-name="ACH" id="part1-tail"><text fill="#000000" font-family="sans-serif" font-size="26.25" lengthAdjust="spacing" textLength="119.0479" x="9.375" y="1422.7643">Acheteur</text><ellipse cx="74.5239" cy="1444.8926" fill="#FFFFFF" rx="15" ry="15" style="stroke:#2F7D5B;stroke-width:0.9375;"/><path d="M74.5239,1459.8926 L74.5239,1510.5176 M50.1489,1474.8926 L98.8989,1474.8926 M74.5239,1510.5176 L50.1489,1538.6426 M74.5239,1510.5176 L98.8989,1538.6426" fill="none" style="stroke:#2F7D5B;stroke-width:0.9375;"/></g><g class="participant participant-head" data-entity-uid="part2" data-qualified-name="UI" id="part2-head"><text fill="#000000" font-family="sans-serif" font-size="26.25" lengthAdjust="spacing" textLength="180.1483" x="330.7388" y="229.2682">Interface web</text><path d="M388.0005,152.4023 L388.0005,197.4023 M388.0005,174.9023 L419.8755,174.9023" fill="none" style="stroke:#181818;stroke-width:0.9375;"/><ellipse cx="442.3755" cy="174.9023" fill="#E2E2F0" rx="22.5" ry="22.5" style="stroke:#181818;stroke-width:0.9375;"/></g><g class="participant participant-tail" data-entity-uid="part2" data-qualified-name="UI" id="part2-tail"><text fill="#000000" font-family="sans-serif" font-size="26.25" lengthAdjust="spacing" textLength="180.1483" x="330.7388" y="1422.7643">Interface web</text><path d="M388.0005,1436.4551 L388.0005,1481.4551 M388.0005,1458.9551 L419.8755,1458.9551" fill="none" style="stroke:#181818;stroke-width:0.9375;"/><ellipse cx="442.3755" cy="1458.9551" fill="#E2E2F0" rx="22.5" ry="22.5" style="stroke:#181818;stroke-width:0.9375;"/></g><g class="participant participant-head" data-entity-uid="part3" data-qualified-name="PAY" id="part3-head"><text fill="#000000" font-family="sans-serif" font-size="26.25" lengthAdjust="spacing" textLength="230.2002" x="850.5286" y="229.2682">Service paiement</text><ellipse cx="971.2537" cy="174.9023" fill="#E2E2F0" rx="22.5" ry="22.5" style="stroke:#181818;stroke-width:0.9375;"/><polygon fill="#181818" points="963.7537,152.4023,975.0037,143.0273,971.2537,152.4023,975.0037,161.7773,963.7537,152.4023" style="stroke:#181818;stroke-width:1.875;"/></g><g class="participant participant-tail" data-entity-uid="part3" data-qualified-name="PAY" id="part3-tail"><text fill="#000000" font-family="sans-serif" font-size="26.25" lengthAdjust="spacing" textLength="230.2002" x="850.5286" y="1422.7643">Service paiement</text><ellipse cx="971.2537" cy="1458.9551" fill="#E2E2F0" rx="22.5" ry="22.5" style="stroke:#181818;stroke-width:0.9375;"/><polygon fill="#181818" points="963.7537,1436.4551,975.0037,1427.0801,971.2537,1436.4551,975.0037,1445.8301,963.7537,1436.4551" style="stroke:#181818;stroke-width:1.875;"/></g><g class="participant participant-head" data-entity-uid="part4" data-qualified-name="GATE" id="part4-head"><rect fill="#EAF4F8" height="56.8066" rx="11.25" ry="11.25" style="stroke:#3E7490;stroke-width:0.9375;" width="333.6877" x="1183.7274" y="176.7773"/><text fill="#000000" font-family="sans-serif" font-size="26.25" lengthAdjust="spacing" textLength="307.4377" x="1196.8524" y="214.2682">Passerelle de paiement</text></g><g class="participant participant-tail" data-entity-uid="part4" data-qualified-name="GATE" id="part4-tail"><rect fill="#EAF4F8" height="56.8066" rx="11.25" ry="11.25" style="stroke:#3E7490;stroke-width:0.9375;" width="333.6877" x="1183.7274" y="1398.3984"/><text fill="#000000" font-family="sans-serif" font-size="26.25" lengthAdjust="spacing" textLength="307.4377" x="1196.8524" y="1435.8893">Passerelle de paiement</text></g><g class="participant participant-head" data-entity-uid="part5" data-qualified-name="DB" id="part5-head"><text fill="#000000" font-family="sans-serif" font-size="26.25" lengthAdjust="spacing" textLength="225.3937" x="1536.1652" y="229.2682">Base de donn&#233;es</text><path d="M1620.737,137.4023 C1620.737,118.6523 1654.487,118.6523 1654.487,118.6523 C1654.487,118.6523 1688.237,118.6523 1688.237,137.4023 L1688.237,186.1523 C1688.237,204.9023 1654.487,204.9023 1654.487,204.9023 C1654.487,204.9023 1620.737,204.9023 1620.737,186.1523 L1620.737,137.4023" fill="#E2E2F0" style="stroke:#181818;stroke-width:0.9375;"/><path d="M1620.737,137.4023 C1620.737,156.1523 1654.487,156.1523 1654.487,156.1523 C1654.487,156.1523 1688.237,156.1523 1688.237,137.4023" fill="none" style="stroke:#181818;stroke-width:0.9375;"/></g><g class="participant participant-tail" data-entity-uid="part5" data-qualified-name="DB" id="part5-tail"><text fill="#000000" font-family="sans-serif" font-size="26.25" lengthAdjust="spacing" textLength="225.3937" x="1536.1652" y="1422.7643">Base de donn&#233;es</text><path d="M1620.737,1447.7051 C1620.737,1428.9551 1654.487,1428.9551 1654.487,1428.9551 C1654.487,1428.9551 1688.237,1428.9551 1688.237,1447.7051 L1688.237,1496.4551 C1688.237,1515.2051 1654.487,1515.2051 1654.487,1515.2051 C1654.487,1515.2051 1620.737,1515.2051 1620.737,1496.4551 L1620.737,1447.7051" fill="#E2E2F0" style="stroke:#181818;stroke-width:0.9375;"/><path d="M1620.737,1447.7051 C1620.737,1466.4551 1654.487,1466.4551 1654.487,1466.4551 C1654.487,1466.4551 1688.237,1466.4551 1688.237,1447.7051" fill="none" style="stroke:#181818;stroke-width:0.9375;"/></g><g class="participant participant-head" data-entity-uid="part6" data-qualified-name="FOUR" id="part6-head"><text fill="#000000" font-family="sans-serif" font-size="26.25" lengthAdjust="spacing" textLength="153.4497" x="1791.5588" y="229.2682">Fournisseur</text><ellipse cx="1873.9087" cy="108.3398" fill="#FFFFFF" rx="15" ry="15" style="stroke:#2F7D5B;stroke-width:0.9375;"/><path d="M1873.9087,123.3398 L1873.9087,173.9648 M1849.5337,138.3398 L1898.2837,138.3398 M1873.9087,173.9648 L1849.5337,202.0898 M1873.9087,173.9648 L1898.2837,202.0898" fill="none" style="stroke:#2F7D5B;stroke-width:0.9375;"/></g><g class="participant participant-tail" data-entity-uid="part6" data-qualified-name="FOUR" id="part6-tail"><text fill="#000000" font-family="sans-serif" font-size="26.25" lengthAdjust="spacing" textLength="153.4497" x="1791.5588" y="1422.7643">Fournisseur</text><ellipse cx="1873.9087" cy="1444.8926" fill="#FFFFFF" rx="15" ry="15" style="stroke:#2F7D5B;stroke-width:0.9375;"/><path d="M1873.9087,1459.8926 L1873.9087,1510.5176 M1849.5337,1474.8926 L1898.2837,1474.8926 M1873.9087,1510.5176 L1849.5337,1538.6426 M1873.9087,1510.5176 L1898.2837,1538.6426" fill="none" style="stroke:#2F7D5B;stroke-width:0.9375;"/></g><g class="participant participant-head" data-entity-uid="part7" data-qualified-name="LIV" id="part7-head"><text fill="#000000" font-family="sans-serif" font-size="26.25" lengthAdjust="spacing" textLength="91.8237" x="1975.0085" y="229.2682">Livreur</text><ellipse cx="2026.5454" cy="108.3398" fill="#FFFFFF" rx="15" ry="15" style="stroke:#2F7D5B;stroke-width:0.9375;"/><path d="M2026.5454,123.3398 L2026.5454,173.9648 M2002.1704,138.3398 L2050.9204,138.3398 M2026.5454,173.9648 L2002.1704,202.0898 M2026.5454,173.9648 L2050.9204,202.0898" fill="none" style="stroke:#2F7D5B;stroke-width:0.9375;"/></g><g class="participant participant-tail" data-entity-uid="part7" data-qualified-name="LIV" id="part7-tail"><text fill="#000000" font-family="sans-serif" font-size="26.25" lengthAdjust="spacing" textLength="91.8237" x="1975.0085" y="1422.7643">Livreur</text><ellipse cx="2026.5454" cy="1444.8926" fill="#FFFFFF" rx="15" ry="15" style="stroke:#2F7D5B;stroke-width:0.9375;"/><path d="M2026.5454,1459.8926 L2026.5454,1510.5176 M2002.1704,1474.8926 L2050.9204,1474.8926 M2026.5454,1510.5176 L2002.1704,1538.6426 M2026.5454,1510.5176 L2050.9204,1538.6426" fill="none" style="stroke:#2F7D5B;stroke-width:0.9375;"/></g><g class="message" data-entity-1="part1" data-entity-2="part2" id="msg1"><polygon fill="#456A7D" points="403.938,288.5156,422.688,296.0156,403.938,303.5156,411.438,296.0156" style="stroke:#456A7D;stroke-width:1.875;"/><line style="stroke:#456A7D;stroke-width:2.625;" x1="74.5239" x2="415.188" y1="296.0156" y2="296.0156"/><text fill="#29485B" font-family="sans-serif" font-size="26.25" font-weight="bold" lengthAdjust="spacing" textLength="18.2648" x="87.6489" y="286.0748">1</text><text fill="#29485B" font-family="sans-serif" font-size="26.25" lengthAdjust="spacing" textLength="281.1493" x="113.4137" y="286.0748">confirme le paiement</text></g><g class="message" data-entity-1="part2" data-entity-2="part3" id="msg2"><polygon fill="#456A7D" points="948.7537,345.3223,967.5037,352.8223,948.7537,360.3223,956.2537,352.8223" style="stroke:#456A7D;stroke-width:1.875;"/><line style="stroke:#456A7D;stroke-width:2.625;" x1="426.438" x2="960.0037" y1="352.8223" y2="352.8223"/><text fill="#29485B" font-family="sans-serif" font-size="26.25" font-weight="bold" lengthAdjust="spacing" textLength="18.2648" x="439.563" y="342.8815">2</text><text fill="#29485B" font-family="sans-serif" font-size="26.25" lengthAdjust="spacing" textLength="474.0509" x="465.3278" y="342.8815">initierPaiement(commande, moyen)</text></g><g class="message" data-entity-1="part3" data-entity-2="part4" id="msg3"><polygon fill="#456A7D" points="1328.0713,402.1289,1346.8213,409.6289,1328.0713,417.1289,1335.5713,409.6289" style="stroke:#456A7D;stroke-width:1.875;"/><line style="stroke:#456A7D;stroke-width:2.625;" x1="971.2537" x2="1339.3213" y1="409.6289" y2="409.6289"/><text fill="#29485B" font-family="sans-serif" font-size="26.25" font-weight="bold" lengthAdjust="spacing" textLength="18.2648" x="984.3787" y="399.6881">3</text><text fill="#29485B" font-family="sans-serif" font-size="26.25" lengthAdjust="spacing" textLength="194.1577" x="1010.1434" y="399.6881">d&#233;biter le total</text></g><g class="message" data-entity-1="part4" data-entity-2="part3" id="msg4"><polygon fill="#456A7D" points="991.8787,458.9355,973.1287,466.4355,991.8787,473.9355,984.3787,466.4355" style="stroke:#456A7D;stroke-width:1.875;"/><line style="stroke:#456A7D;stroke-width:2.625;stroke-dasharray:3.75,3.75;" x1="980.6287" x2="1348.6963" y1="466.4355" y2="466.4355"/><text fill="#29485B" font-family="sans-serif" font-size="26.25" font-weight="bold" lengthAdjust="spacing" textLength="18.2648" x="1003.1287" y="456.4948">4</text><text fill="#29485B" font-family="sans-serif" font-size="26.25" lengthAdjust="spacing" textLength="237.3907" x="1028.8934" y="456.4948">paiement accept&#233;</text></g><g class="message" data-entity-1="part3" data-entity-2="part5" id="msg5"><polygon fill="#456A7D" points="1631.987,515.7422,1650.737,523.2422,1631.987,530.7422,1639.487,523.2422" style="stroke:#456A7D;stroke-width:1.875;"/><line style="stroke:#456A7D;stroke-width:2.625;" x1="971.2537" x2="1643.237" y1="523.2422" y2="523.2422"/><text fill="#29485B" font-family="sans-serif" font-size="26.25" font-weight="bold" lengthAdjust="spacing" textLength="18.2648" x="984.3787" y="513.3014">5</text><text fill="#29485B" font-family="sans-serif" font-size="26.25" lengthAdjust="spacing" textLength="438.0981" x="1010.1434" y="513.3014">enregistre le paiement s&#233;questr&#233;</text></g><g class="message" data-entity-1="part3" data-entity-2="part6" id="msg6"><polygon fill="#456A7D" points="1851.4087,572.5488,1870.1587,580.0488,1851.4087,587.5488,1858.9087,580.0488" style="stroke:#456A7D;stroke-width:1.875;"/><line style="stroke:#456A7D;stroke-width:2.625;" x1="971.2537" x2="1862.6587" y1="580.0488" y2="580.0488"/><text fill="#29485B" font-family="sans-serif" font-size="26.25" font-weight="bold" lengthAdjust="spacing" textLength="18.2648" x="984.3787" y="570.108">6</text><text fill="#29485B" font-family="sans-serif" font-size="26.25" lengthAdjust="spacing" textLength="314.295" x="1010.1434" y="570.108">notifie le paiement re&#231;u</text></g><path d="M20.625,615.6738 L20.625,671.9238 A11.25,11.25 0 0 0 31.875,683.1738 L2068.125,683.1738 A11.25,11.25 0 0 0 2079.375,671.9238 L2079.375,623.1738 L2060.625,604.4238 L31.875,604.4238 A11.25,11.25 0 0 0 20.625,615.6738" fill="#FFF8E8" style="stroke:#E5AE45;stroke-width:0.9375;"/><path d="M2060.625,604.4238 L2060.625,617.5488 A5.625,5.625 0 0 0 2066.25,623.1738 L2079.375,623.1738 L2060.625,604.4238" fill="#FFF8E8" style="stroke:#E5AE45;stroke-width:0.9375;"/><text fill="#5B481E" font-family="sans-serif" font-size="26.25" lengthAdjust="spacing" textLength="603.6603" x="740.0235" y="638.1647">Le versement intervient apr&#232;s la confirmation</text><text fill="#5B481E" font-family="sans-serif" font-size="26.25" lengthAdjust="spacing" textLength="434.0863" x="740.0235" y="668.7213">de la r&#233;ception de la commande.</text><g class="message" data-entity-1="part1" data-entity-2="part2" id="msg7"><polygon fill="#456A7D" points="403.938,727.9688,422.688,735.4688,403.938,742.9688,411.438,735.4688" style="stroke:#456A7D;stroke-width:1.875;"/><line style="stroke:#456A7D;stroke-width:2.625;" x1="74.5239" x2="415.188" y1="735.4688" y2="735.4688"/><text fill="#29485B" font-family="sans-serif" font-size="26.25" font-weight="bold" lengthAdjust="spacing" textLength="18.2648" x="87.6489" y="725.528">7</text><text fill="#29485B" font-family="sans-serif" font-size="26.25" lengthAdjust="spacing" textLength="280.7135" x="113.4137" y="725.528">confirme la r&#233;ception</text></g><g class="message" data-entity-1="part2" data-entity-2="part3" id="msg8"><polygon fill="#456A7D" points="948.7537,784.7754,967.5037,792.2754,948.7537,799.7754,956.2537,792.2754" style="stroke:#456A7D;stroke-width:1.875;"/><line style="stroke:#456A7D;stroke-width:2.625;" x1="426.438" x2="960.0037" y1="792.2754" y2="792.2754"/><text fill="#29485B" font-family="sans-serif" font-size="26.25" font-weight="bold" lengthAdjust="spacing" textLength="18.2648" x="439.563" y="782.3346">8</text><text fill="#29485B" font-family="sans-serif" font-size="26.25" lengthAdjust="spacing" textLength="183.75" x="465.3278" y="782.3346">lib&#233;rerFonds()</text></g><g class="message" data-entity-1="part3" data-entity-2="part5" id="msg9"><polygon fill="#456A7D" points="1631.987,841.582,1650.737,849.082,1631.987,856.582,1639.487,849.082" style="stroke:#456A7D;stroke-width:1.875;"/><line style="stroke:#456A7D;stroke-width:2.625;" x1="971.2537" x2="1643.237" y1="849.082" y2="849.082"/><text fill="#29485B" font-family="sans-serif" font-size="26.25" font-weight="bold" lengthAdjust="spacing" textLength="18.2648" x="984.3787" y="839.1412">9</text><text fill="#29485B" font-family="sans-serif" font-size="26.25" lengthAdjust="spacing" textLength="303.4131" x="1010.1434" y="839.1412">confirme la commande</text></g><g class="message" data-entity-1="part3" data-entity-2="part4" id="msg10"><polygon fill="#456A7D" points="1328.0713,898.3887,1346.8213,905.8887,1328.0713,913.3887,1335.5713,905.8887" style="stroke:#456A7D;stroke-width:1.875;"/><line style="stroke:#456A7D;stroke-width:2.625;" x1="971.2537" x2="1339.3213" y1="905.8887" y2="905.8887"/><text fill="#29485B" font-family="sans-serif" font-size="26.25" font-weight="bold" lengthAdjust="spacing" textLength="36.5295" x="984.3787" y="895.9479">10</text><text fill="#29485B" font-family="sans-serif" font-size="26.25" lengthAdjust="spacing" textLength="290.2881" x="1028.4082" y="895.9479">cr&#233;diter le fournisseur</text></g><g class="message" data-entity-1="part4" data-entity-2="part3" id="msg11"><polygon fill="#456A7D" points="991.8787,955.1953,973.1287,962.6953,991.8787,970.1953,984.3787,962.6953" style="stroke:#456A7D;stroke-width:1.875;"/><line style="stroke:#456A7D;stroke-width:2.625;stroke-dasharray:3.75,3.75;" x1="980.6287" x2="1348.6963" y1="962.6953" y2="962.6953"/><text fill="#29485B" font-family="sans-serif" font-size="26.25" font-weight="bold" lengthAdjust="spacing" textLength="36.5295" x="1003.1287" y="952.7545">11</text><text fill="#29485B" font-family="sans-serif" font-size="26.25" lengthAdjust="spacing" textLength="227.5214" x="1047.1582" y="952.7545">versement r&#233;ussi</text></g><g class="message" data-entity-1="part3" data-entity-2="part5" id="msg12"><polygon fill="#456A7D" points="1631.987,1012.002,1650.737,1019.502,1631.987,1027.002,1639.487,1019.502" style="stroke:#456A7D;stroke-width:1.875;"/><line style="stroke:#456A7D;stroke-width:2.625;" x1="971.2537" x2="1643.237" y1="1019.502" y2="1019.502"/><text fill="#29485B" font-family="sans-serif" font-size="26.25" font-weight="bold" lengthAdjust="spacing" textLength="36.5295" x="984.3787" y="1009.5612">12</text><text fill="#29485B" font-family="sans-serif" font-size="26.25" lengthAdjust="spacing" textLength="471.6156" x="1028.4082" y="1009.5612">enregistre le versement fournisseur</text></g><g class="message" data-entity-1="part3" data-entity-2="part6" id="msg13"><polygon fill="#456A7D" points="1851.4087,1068.8086,1870.1587,1076.3086,1851.4087,1083.8086,1858.9087,1076.3086" style="stroke:#456A7D;stroke-width:1.875;"/><line style="stroke:#456A7D;stroke-width:2.625;" x1="971.2537" x2="1862.6587" y1="1076.3086" y2="1076.3086"/><text fill="#29485B" font-family="sans-serif" font-size="26.25" font-weight="bold" lengthAdjust="spacing" textLength="36.5295" x="984.3787" y="1066.3678">13</text><text fill="#29485B" font-family="sans-serif" font-size="26.25" lengthAdjust="spacing" textLength="264.0509" x="1028.4082" y="1066.3678">notifie le versement</text></g><path d="M843.0286,1104.4336 L965.5261,1104.4336 L965.5261,1119.9902 L946.7761,1138.7402 L831.7786,1138.7402 L831.7786,1115.6836 A11.25,11.25 0 0 1 843.0286,1104.4336" fill="#F7FBFD" style="stroke:#9CB4C1;stroke-width:2.8125;"/><rect fill="none" height="263.9648" rx="11.25" ry="11.25" style="stroke:#9CB4C1;stroke-width:2.8125;" width="1265.0537" x="831.7786" y="1104.4336"/><text fill="#000000" font-family="sans-serif" font-size="26.25" font-weight="bold" lengthAdjust="spacing" textLength="49.3726" x="859.9036" y="1130.6744">opt</text><text fill="#000000" font-family="sans-serif" font-size="26.25" font-weight="bold" lengthAdjust="spacing" textLength="449.5569" x="993.6511" y="1132.5494">[une livraison a &#233;t&#233; effectu&#233;e]</text><g class="message" data-entity-1="part3" data-entity-2="part4" id="msg14"><polygon fill="#456A7D" points="1328.0713,1175.4785,1346.8213,1182.9785,1328.0713,1190.4785,1335.5713,1182.9785" style="stroke:#456A7D;stroke-width:1.875;"/><line style="stroke:#456A7D;stroke-width:2.625;" x1="971.2537" x2="1339.3213" y1="1182.9785" y2="1182.9785"/><text fill="#29485B" font-family="sans-serif" font-size="26.25" font-weight="bold" lengthAdjust="spacing" textLength="36.5295" x="984.3787" y="1173.0377">14</text><text fill="#29485B" font-family="sans-serif" font-size="26.25" lengthAdjust="spacing" textLength="227.1881" x="1028.4082" y="1173.0377">cr&#233;diter le livreur</text></g><g class="message" data-entity-1="part4" data-entity-2="part3" id="msg15"><polygon fill="#456A7D" points="991.8787,1232.2852,973.1287,1239.7852,991.8787,1247.2852,984.3787,1239.7852" style="stroke:#456A7D;stroke-width:1.875;"/><line style="stroke:#456A7D;stroke-width:2.625;stroke-dasharray:3.75,3.75;" x1="980.6287" x2="1348.6963" y1="1239.7852" y2="1239.7852"/><text fill="#29485B" font-family="sans-serif" font-size="26.25" font-weight="bold" lengthAdjust="spacing" textLength="36.5295" x="1003.1287" y="1229.8444">15</text><text fill="#29485B" font-family="sans-serif" font-size="26.25" lengthAdjust="spacing" textLength="227.5214" x="1047.1582" y="1229.8444">versement r&#233;ussi</text></g><g class="message" data-entity-1="part3" data-entity-2="part5" id="msg16"><polygon fill="#456A7D" points="1631.987,1289.0918,1650.737,1296.5918,1631.987,1304.0918,1639.487,1296.5918" style="stroke:#456A7D;stroke-width:1.875;"/><line style="stroke:#456A7D;stroke-width:2.625;" x1="971.2537" x2="1643.237" y1="1296.5918" y2="1296.5918"/><text fill="#29485B" font-family="sans-serif" font-size="26.25" font-weight="bold" lengthAdjust="spacing" textLength="36.5295" x="984.3787" y="1286.651">16</text><text fill="#29485B" font-family="sans-serif" font-size="26.25" lengthAdjust="spacing" textLength="408.5156" x="1028.4082" y="1286.651">enregistre le versement livreur</text></g><g class="message" data-entity-1="part3" data-entity-2="part7" id="msg17"><polygon fill="#456A7D" points="2004.0454,1345.8984,2022.7954,1353.3984,2004.0454,1360.8984,2011.5454,1353.3984" style="stroke:#456A7D;stroke-width:1.875;"/><line style="stroke:#456A7D;stroke-width:2.625;" x1="971.2537" x2="2015.2954" y1="1353.3984" y2="1353.3984"/><text fill="#29485B" font-family="sans-serif" font-size="26.25" font-weight="bold" lengthAdjust="spacing" textLength="36.5295" x="984.3787" y="1343.4576">17</text><text fill="#29485B" font-family="sans-serif" font-size="26.25" lengthAdjust="spacing" textLength="264.0509" x="1028.4082" y="1343.4576">notifie le versement</text></g><?plantuml-src XL91ZXCn4Bpx5KrEkr9s7y01AM49H8f412mI9-Jnz2mjUUp1RWVbnYFu0ymxvYUyXFRiJ2Q9b73neQkwkwhQByWPcqg4alHJqFNNo7kBzvHggvHEx5sg2mnA6_O15kORCgO0EiBYzJjL-EHA7VOmMpl6K6c3y0EBMSOVryfuny5Rc7t4i2F16arOe-EUi5ryKOqEJ8OQxHXcMnqZ1hHMr9nntou-lL6bPbteY31RvZUBzivrBSQUyx0SLAvy2evarhFGrVl73mEoeLqOgflrPwMOM9PjXqrpY5txFM7aW80CEmon1oBy_VaBTWaXKjrOgaYMAYK9mDqhCGelGQnM56e4EobNWWWkFeL0ZfWmZBjkZAzhxKgSG-ttw6vLfWaxEnLwsRK5IQHv7dlMLlN0tM7Uk0IqCTXmruu37fQ2eWluHBsH8q6JlucUqv46vrbidR83Th-JKW8XU0aZdtpU1mUmmIaUySRvmBsQ9dH_8bWz9gAPl9C6kPOKPN5MAwMXCCPmhz2LMSN5N8-RJvArL7HjmB3ohemtjoSv7BUFgywIDZAs7AEkfgzp7lXaLnfIZ7Gby8bxFF1YuWUwKhvXI4wgybCrHSb9GzVAUG6h2Wsd_FC0hbYmptzSIFyrS9XprS8qS63B3xYaNuxu3m00?></g></svg>