<?xml version="1.0" encoding="us-ascii" standalone="no"?><svg xmlns="http://www.w3.org/2000/svg" xmlns:xlink="http://www.w3.org/1999/xlink" contentStyleType="text/css" height="953px" preserveAspectRatio="none" style="width:973px;height:953px;background:#FFFFFF;" version="1.1" viewBox="0 0 973 953" width="973px" zoomAndPan="magnify"><defs/><g><rect fill="none" height="155.5938" style="stroke:#000000;stroke-width:1.5;" width="887.5" x="10" y="463.8281"/><line style="stroke:#181818;stroke-width:0.5;stroke-dasharray:5.0,5.0;" x1="47" x2="47" y1="82.6094" y2="871.2344"/><line style="stroke:#181818;stroke-width:0.5;stroke-dasharray:5.0,5.0;" x1="280.5" x2="280.5" y1="82.6094" y2="871.2344"/><line style="stroke:#181818;stroke-width:0.5;stroke-dasharray:5.0,5.0;" x1="575" x2="575" y1="82.6094" y2="871.2344"/><line style="stroke:#181818;stroke-width:0.5;stroke-dasharray:5.0,5.0;" x1="828.5" x2="828.5" y1="82.6094" y2="871.2344"/><line style="stroke:#181818;stroke-width:0.5;stroke-dasharray:5.0,5.0;" x1="934.5" x2="934.5" y1="82.6094" y2="871.2344"/><text fill="#000000" font-family="sans-serif" font-size="14" lengthAdjust="spacing" textLength="48" x="20" y="79.5332">&#201;leveur</text><ellipse cx="47" cy="13.5" fill="#E2E2F0" rx="8" ry="8" style="stroke:#181818;stroke-width:0.5;"/><path d="M47,21.5 L47,48.5 M34,29.5 L60,29.5 M47,48.5 L34,63.5 M47,48.5 L60,63.5 " fill="none" style="stroke:#181818;stroke-width:0.5;"/><text fill="#000000" font-family="sans-serif" font-size="14" lengthAdjust="spacing" textLength="48" x="20" y="884.7676">&#201;leveur</text><ellipse cx="47" cy="896.3438" fill="#E2E2F0" rx="8" ry="8" style="stroke:#181818;stroke-width:0.5;"/><path d="M47,904.3438 L47,931.3438 M34,912.3438 L60,912.3438 M47,931.3438 L34,946.3438 M47,931.3438 L60,946.3438 " fill="none" style="stroke:#181818;stroke-width:0.5;"/><rect fill="#E2E2F0" height="31.6094" rx="2.5" ry="2.5" style="stroke:#181818;stroke-width:0.5;" width="69" x="246.5" y="50"/><text fill="#000000" font-family="sans-serif" font-size="14" lengthAdjust="spacing" textLength="55" x="253.5" y="71.5332">Interface</text><rect fill="#E2E2F0" height="31.6094" rx="2.5" ry="2.5" style="stroke:#181818;stroke-width:0.5;" width="69" x="246.5" y="870.2344"/><text fill="#000000" font-family="sans-serif" font-size="14" lengthAdjust="spacing" textLength="55" x="253.5" y="891.7676">Interface</text><rect fill="#E2E2F0" height="31.6094" rx="2.5" ry="2.5" style="stroke:#181818;stroke-width:0.5;" width="110" x="520" y="50"/><text fill="#000000" font-family="sans-serif" font-size="14" lengthAdjust="spacing" textLength="96" x="527" y="71.5332">Contr&#244;leurRDV</text><rect fill="#E2E2F0" height="31.6094" rx="2.5" ry="2.5" style="stroke:#181818;stroke-width:0.5;" width="110" x="520" y="870.2344"/><text fill="#000000" font-family="sans-serif" font-size="14" lengthAdjust="spacing" textLength="96" x="527" y="891.7676">Contr&#244;leurRDV</text><text fill="#000000" font-family="sans-serif" font-size="14" lengthAdjust="spacing" textLength="111" x="770.5" y="79.5332">Base de donn&#233;es</text><path d="M811,29 C811,19 829,19 829,19 C829,19 847,19 847,29 L847,55 C847,65 829,65 829,65 C829,65 811,65 811,55 L811,29 " fill="#E2E2F0" style="stroke:#181818;stroke-width:1.5;"/><path d="M811,29 C811,39 829,39 829,39 C829,39 847,39 847,29 " fill="none" style="stroke:#181818;stroke-width:1.5;"/><text fill="#000000" font-family="sans-serif" font-size="14" lengthAdjust="spacing" textLength="111" x="770.5" y="884.7676">Base de donn&#233;es</text><path d="M811,897.8438 C811,887.8438 829,887.8438 829,887.8438 C829,887.8438 847,887.8438 847,897.8438 L847,923.8438 C847,933.8438 829,933.8438 829,933.8438 C829,933.8438 811,933.8438 811,923.8438 L811,897.8438 " fill="#E2E2F0" style="stroke:#181818;stroke-width:1.5;"/><path d="M811,897.8438 C811,907.8438 829,907.8438 829,907.8438 C829,907.8438 847,907.8438 847,897.8438 " fill="none" style="stroke:#181818;stroke-width:1.5;"/><text fill="#000000" font-family="sans-serif" font-size="14" lengthAdjust="spacing" textLength="69" x="897.5" y="79.5332">V&#233;t&#233;rinaire</text><ellipse cx="935" cy="13.5" fill="#E2E2F0" rx="8" ry="8" style="stroke:#181818;stroke-width:0.5;"/><path d="M935,21.5 L935,48.5 M922,29.5 L948,29.5 M935,48.5 L922,63.5 M935,48.5 L948,63.5 " fill="none" style="stroke:#181818;stroke-width:0.5;"/><text fill="#000000" font-family="sans-serif" font-size="14" lengthAdjust="spacing" textLength="69" x="897.5" y="884.7676">V&#233;t&#233;rinaire</text><ellipse cx="935" cy="896.3438" fill="#E2E2F0" rx="8" ry="8" style="stroke:#181818;stroke-width:0.5;"/><path d="M935,904.3438 L935,931.3438 M922,912.3438 L948,912.3438 M935,931.3438 L922,946.3438 M935,931.3438 L948,946.3438 " fill="none" style="stroke:#181818;stroke-width:0.5;"/><polygon fill="#181818" points="269,110.9609,279,114.9609,269,118.9609,273,114.9609" style="stroke:#181818;stroke-width:1.0;"/><line style="stroke:#181818;stroke-width:1.0;" x1="47" x2="275" y1="114.9609" y2="114.9609"/><text fill="#000000" font-family="sans-serif" font-size="13" lengthAdjust="spacing" textLength="210" x="54" y="110.1045">consulte les services d'un v&#233;t&#233;rinaire</text><polygon fill="#181818" points="563,141.3125,573,145.3125,563,149.3125,567,145.3125" style="stroke:#181818;stroke-width:1.0;"/><line style="stroke:#181818;stroke-width:1.0;" x1="281" x2="569" y1="145.3125" y2="145.3125"/><text fill="#000000" font-family="sans-serif" font-size="13" lengthAdjust="spacing" textLength="160" x="288" y="140.4561">listerServices(id_veterinaire)</text><polygon fill="#181818" points="817,171.6641,827,175.6641,817,179.6641,821,175.6641" style="stroke:#181818;stroke-width:1.0;"/><line style="stroke:#181818;stroke-width:1.0;" x1="575" x2="823" y1="175.6641" y2="175.6641"/><text fill="#000000" font-family="sans-serif" font-size="13" lengthAdjust="spacing" textLength="173" x="582" y="170.8076">SELECT services_veterinaires</text><polygon fill="#181818" points="586,202.0156,576,206.0156,586,210.0156,582,206.0156" style="stroke:#181818;stroke-width:1.0;"/><line style="stroke:#181818;stroke-width:1.0;stroke-dasharray:2.0,2.0;" x1="580" x2="828" y1="206.0156" y2="206.0156"/><text fill="#000000" font-family="sans-serif" font-size="13" lengthAdjust="spacing" textLength="147" x="592" y="201.1592">liste des services et tarifs</text><polygon fill="#181818" points="292,232.3672,282,236.3672,292,240.3672,288,236.3672" style="stroke:#181818;stroke-width:1.0;"/><line style="stroke:#181818;stroke-width:1.0;stroke-dasharray:2.0,2.0;" x1="286" x2="574" y1="236.3672" y2="236.3672"/><text fill="#000000" font-family="sans-serif" font-size="13" lengthAdjust="spacing" textLength="207" x="298" y="231.5107">affiche services + &#233;toiles + certificat</text><polygon fill="#181818" points="269,262.7188,279,266.7188,269,270.7188,273,266.7188" style="stroke:#181818;stroke-width:1.0;"/><line style="stroke:#181818;stroke-width:1.0;" x1="47" x2="275" y1="266.7188" y2="266.7188"/><text fill="#000000" font-family="sans-serif" font-size="13" lengthAdjust="spacing" textLength="172" x="54" y="261.8623">s&#233;lectionne service + cr&#233;neau</text><polygon fill="#181818" points="563,293.0703,573,297.0703,563,301.0703,567,297.0703" style="stroke:#181818;stroke-width:1.0;"/><line style="stroke:#181818;stroke-width:1.0;" x1="281" x2="569" y1="297.0703" y2="297.0703"/><text fill="#000000" font-family="sans-serif" font-size="13" lengthAdjust="spacing" textLength="270" x="288" y="292.2139">demanderRendezVous(id_vet, id_service, date)</text><polygon fill="#181818" points="817,323.4219,827,327.4219,817,331.4219,821,327.4219" style="stroke:#181818;stroke-width:1.0;"/><line style="stroke:#181818;stroke-width:1.0;" x1="575" x2="823" y1="327.4219" y2="327.4219"/><text fill="#000000" font-family="sans-serif" font-size="13" lengthAdjust="spacing" textLength="195" x="582" y="322.5654">INSERT rendez_vous (en_attente)</text><polygon fill="#181818" points="586,353.7734,576,357.7734,586,361.7734,582,357.7734" style="stroke:#181818;stroke-width:1.0;"/><line style="stroke:#181818;stroke-width:1.0;stroke-dasharray:2.0,2.0;" x1="580" x2="828" y1="357.7734" y2="357.7734"/><text fill="#000000" font-family="sans-serif" font-size="13" lengthAdjust="spacing" textLength="115" x="592" y="352.917">confirmation (id_rdv)</text><polygon fill="#181818" points="923,384.125,933,388.125,923,392.125,927,388.125" style="stroke:#181818;stroke-width:1.0;"/><line style="stroke:#181818;stroke-width:1.0;" x1="575" x2="929" y1="388.125" y2="388.125"/><text fill="#000000" font-family="sans-serif" font-size="13" lengthAdjust="spacing" textLength="222" x="582" y="383.2686">notification(nouvelle demande de RDV)</text><polygon fill="#181818" points="292,414.4766,282,418.4766,292,422.4766,288,418.4766" style="stroke:#181818;stroke-width:1.0;"/><line style="stroke:#181818;stroke-width:1.0;" x1="286" x2="934" y1="418.4766" y2="418.4766"/><text fill="#000000" font-family="sans-serif" font-size="13" lengthAdjust="spacing" textLength="168" x="298" y="413.6201">consulte et traite la demande</text><polygon fill="#181818" points="563,444.8281,573,448.8281,563,452.8281,567,448.8281" style="stroke:#181818;stroke-width:1.0;"/><line style="stroke:#181818;stroke-width:1.0;" x1="281" x2="569" y1="448.8281" y2="448.8281"/><text fill="#000000" font-family="sans-serif" font-size="13" lengthAdjust="spacing" textLength="204" x="288" y="443.9717">traiterRendezVous(id_rdv, decision)</text><path d="M10,463.8281 L71,463.8281 L71,472.1797 L61,482.1797 L10,482.1797 L10,463.8281 " fill="#EEEEEE" style="stroke:#000000;stroke-width:1.5;"/><rect fill="none" height="155.5938" style="stroke:#000000;stroke-width:1.5;" width="887.5" x="10" y="463.8281"/><text fill="#000000" font-family="sans-serif" font-size="13" font-weight="bold" lengthAdjust="spacing" textLength="16" x="25" y="478.3232">alt</text><text fill="#000000" font-family="sans-serif" font-size="11" font-weight="bold" lengthAdjust="spacing" textLength="122" x="86" y="477.2471">[d&#233;cision = confirmer]</text><polygon fill="#181818" points="817,500.5313,827,504.5313,817,508.5313,821,504.5313" style="stroke:#181818;stroke-width:1.0;"/><line style="stroke:#181818;stroke-width:1.0;" x1="575" x2="823" y1="504.5313" y2="504.5313"/><text fill="#000000" font-family="sans-serif" font-size="13" lengthAdjust="spacing" textLength="154" x="582" y="499.6748">UPDATE statut = confirme</text><polygon fill="#181818" points="58,530.8828,48,534.8828,58,538.8828,54,534.8828" style="stroke:#181818;stroke-width:1.0;"/><line style="stroke:#181818;stroke-width:1.0;" x1="52" x2="574" y1="534.8828" y2="534.8828"/><text fill="#000000" font-family="sans-serif" font-size="13" lengthAdjust="spacing" textLength="150" x="64" y="530.0264">notification(RDV confirm&#233;)</text><line style="stroke:#000000;stroke-width:1.0;stroke-dasharray:2.0,2.0;" x1="10" x2="897.5" y1="543.8828" y2="543.8828"/><text fill="#000000" font-family="sans-serif" font-size="11" font-weight="bold" lengthAdjust="spacing" textLength="109" x="15" y="555.3018">[d&#233;cision = refuser]</text><polygon fill="#181818" points="817,577.0703,827,581.0703,817,585.0703,821,581.0703" style="stroke:#181818;stroke-width:1.0;"/><line style="stroke:#181818;stroke-width:1.0;" x1="575" x2="823" y1="581.0703" y2="581.0703"/><text fill="#000000" font-family="sans-serif" font-size="13" lengthAdjust="spacing" textLength="140" x="582" y="576.2139">UPDATE statut = refuse</text><polygon fill="#181818" points="58,607.4219,48,611.4219,58,615.4219,54,611.4219" style="stroke:#181818;stroke-width:1.0;"/><line style="stroke:#181818;stroke-width:1.0;" x1="52" x2="574" y1="611.4219" y2="611.4219"/><text fill="#000000" font-family="sans-serif" font-size="13" lengthAdjust="spacing" textLength="136" x="64" y="606.5654">notification(RDV refus&#233;)</text><path d="M17,631.4219 L17,673.4219 L964,673.4219 L964,641.4219 L954,631.4219 L17,631.4219 " fill="#FEFFDD" style="stroke:#181818;stroke-width:0.5;"/><path d="M954,631.4219 L954,641.4219 L964,641.4219 L954,631.4219 " fill="#FEFFDD" style="stroke:#181818;stroke-width:0.5;"/><text fill="#000000" font-family="sans-serif" font-size="13" lengthAdjust="spacing" textLength="244" x="353.25" y="649.917">Le paiement du service se fait directement</text><text fill="#000000" font-family="sans-serif" font-size="13" lengthAdjust="spacing" textLength="266" x="353.25" y="666.2686">entre l'&#233;leveur et le v&#233;t&#233;rinaire, hors plateforme</text><polygon fill="#181818" points="292,697.4766,282,701.4766,292,705.4766,288,701.4766" style="stroke:#181818;stroke-width:1.0;"/><line style="stroke:#181818;stroke-width:1.0;" x1="286" x2="934" y1="701.4766" y2="701.4766"/><text fill="#000000" font-family="sans-serif" font-size="13" lengthAdjust="spacing" textLength="219" x="298" y="696.6201">marque le rendez-vous comme r&#233;alis&#233;</text><polygon fill="#181818" points="563,727.8281,573,731.8281,563,735.8281,567,731.8281" style="stroke:#181818;stroke-width:1.0;"/><line style="stroke:#181818;stroke-width:1.0;" x1="281" x2="569" y1="731.8281" y2="731.8281"/><text fill="#000000" font-family="sans-serif" font-size="13" lengthAdjust="spacing" textLength="208" x="288" y="726.9717">cloturerRendezVous(id_rdv, medias)</text><polygon fill="#181818" points="817,758.1797,827,762.1797,817,766.1797,821,762.1797" style="stroke:#181818;stroke-width:1.0;"/><line style="stroke:#181818;stroke-width:1.0;" x1="575" x2="823" y1="762.1797" y2="762.1797"/><text fill="#000000" font-family="sans-serif" font-size="13" lengthAdjust="spacing" textLength="230" x="582" y="757.3232">UPDATE statut = realise, images, video</text><polygon fill="#181818" points="269,788.5313,279,792.5313,269,796.5313,273,792.5313" style="stroke:#181818;stroke-width:1.0;"/><line style="stroke:#181818;stroke-width:1.0;" x1="47" x2="275" y1="792.5313" y2="792.5313"/><text fill="#000000" font-family="sans-serif" font-size="13" lengthAdjust="spacing" textLength="147" x="54" y="787.6748">laisse une note et un avis</text><polygon fill="#181818" points="563,818.8828,573,822.8828,563,826.8828,567,822.8828" style="stroke:#181818;stroke-width:1.0;"/><line style="stroke:#181818;stroke-width:1.0;" x1="281" x2="569" y1="822.8828" y2="822.8828"/><text fill="#000000" font-family="sans-serif" font-size="13" lengthAdjust="spacing" textLength="207" x="288" y="818.0264">noterRendezVous(id_rdv, note, avis)</text><polygon fill="#181818" points="817,849.2344,827,853.2344,817,857.2344,821,853.2344" style="stroke:#181818;stroke-width:1.0;"/><line style="stroke:#181818;stroke-width:1.0;" x1="575" x2="823" y1="853.2344" y2="853.2344"/><text fill="#000000" font-family="sans-serif" font-size="13" lengthAdjust="spacing" textLength="187" x="582" y="848.3779">UPDATE note_client, avis_client</text><!--SRC=[XPHBRjim48RtFCN0cyIeSu42BT34NWG8YY8FRuqfEMe8KAHBKbhq1ZsAzhs1BjQVb9rOJe00XYnflk7yynBh728jnhzEUkdYWZZHnedQSynMsptxJ8jRdoKshAMQdsxdrflWSnp_ERZVhxSLkSdHASEPVt8IMboNgy4lU3yEaYgplbOy1T-EGnw7Q3tRE8NOIbOACkZgAyBHPzB1fyvb8IU9aiJUQjoOYyvJV-gjGCEdn8UNimd27mxufJMxNl1YGfUgKg3Nrs0VDdURcyUNiq_9f41SdHsBV4wKIARCqJRfSEXHDpUDrS_o2duYo0tMrLijA2C0FiisZOCJdItAzU9Qy3WENhYR9scaPMyatWkkVxQXEoQw8lmVl5U4RfodVFlzONF_IB4wxdfuqgNu7USili3phD62niQMYomg8QBfNmz4ny3uSCW7pAKFNI_EoL5XcG0Co5Af0h_fR2bXP5jwp4UNUQQJ-InHg41oecr2pALYbycCm_H8Nuwg9IgYMV9FFzRV7ZUKCkSkdu0dN6d9MKxGVoJ7OQd4bS4-2HUbwTB7mIRiur2Lgu6yKGfceT1BBFYgBWdHdT2UhRHe6PdkPLgWgq6ro61-TQvcmBX6rFUYp5TPzr9qH9wjq8gUGqoqTnYO9fIA87YH9lF6jHn_TsKX3mDqLGT8XxR5ct5WRCaup1keNSXTVBU3hHZBwMn0tvQjd0g5jkLVabRKMoDXjZgERKBk7HQdbWk2yOtWtgQvb69yJqTvlwhy-rgAVQUTHIKdxF3m7m00]--></g></svg>