<?xml version="1.0" encoding="us-ascii" standalone="no"?><svg xmlns="http://www.w3.org/2000/svg" xmlns:xlink="http://www.w3.org/1999/xlink" contentStyleType="text/css" height="1522px" preserveAspectRatio="none" style="width:1382px;height:1522px;background:#FFFFFF;" version="1.1" viewBox="0 0 1382 1522" width="1382px" zoomAndPan="magnify"><defs/><g><rect fill="none" height="479.2969" style="stroke:#000000;stroke-width:1.5;" width="1355" x="10" y="460.4766"/><rect fill="none" height="171.9453" style="stroke:#000000;stroke-width:1.5;" width="915" x="298" y="637.5859"/><rect fill="none" height="221.8438" style="stroke:#000000;stroke-width:1.5;" width="755.5" x="609.5" y="1201.6172"/><line style="stroke:#181818;stroke-width:0.5;stroke-dasharray:5.0,5.0;" x1="51" x2="51" y1="82.6094" y2="1440.4609"/><line style="stroke:#181818;stroke-width:0.5;stroke-dasharray:5.0,5.0;" x1="342" x2="342" y1="82.6094" y2="1440.4609"/><line style="stroke:#181818;stroke-width:0.5;stroke-dasharray:5.0,5.0;" x1="689.5" x2="689.5" y1="82.6094" y2="1440.4609"/><line style="stroke:#181818;stroke-width:0.5;stroke-dasharray:5.0,5.0;" x1="992.5" x2="992.5" y1="82.6094" y2="1440.4609"/><line style="stroke:#181818;stroke-width:0.5;stroke-dasharray:5.0,5.0;" x1="1144" x2="1144" y1="82.6094" y2="1440.4609"/><line style="stroke:#181818;stroke-width:0.5;stroke-dasharray:5.0,5.0;" x1="1254" x2="1254" y1="82.6094" y2="1440.4609"/><line style="stroke:#181818;stroke-width:0.5;stroke-dasharray:5.0,5.0;" x1="1330" x2="1330" y1="82.6094" y2="1440.4609"/><text fill="#000000" font-family="sans-serif" font-size="14" lengthAdjust="spacing" textLength="57" x="20" y="79.5332">Acheteur</text><ellipse cx="51.5" cy="13.5" fill="#E2E2F0" rx="8" ry="8" style="stroke:#181818;stroke-width:0.5;"/><path d="M51.5,21.5 L51.5,48.5 M38.5,29.5 L64.5,29.5 M51.5,48.5 L38.5,63.5 M51.5,48.5 L64.5,63.5 " fill="none" style="stroke:#181818;stroke-width:0.5;"/><text fill="#000000" font-family="sans-serif" font-size="14" lengthAdjust="spacing" textLength="57" x="20" y="1453.9941">Acheteur</text><ellipse cx="51.5" cy="1465.5703" fill="#E2E2F0" rx="8" ry="8" style="stroke:#181818;stroke-width:0.5;"/><path d="M51.5,1473.5703 L51.5,1500.5703 M38.5,1481.5703 L64.5,1481.5703 M51.5,1500.5703 L38.5,1515.5703 M51.5,1500.5703 L64.5,1515.5703 " fill="none" style="stroke:#181818;stroke-width:0.5;"/><rect fill="#E2E2F0" height="31.6094" rx="2.5" ry="2.5" style="stroke:#181818;stroke-width:0.5;" width="69" x="308" y="50"/><text fill="#000000" font-family="sans-serif" font-size="14" lengthAdjust="spacing" textLength="55" x="315" y="71.5332">Interface</text><rect fill="#E2E2F0" height="31.6094" rx="2.5" ry="2.5" style="stroke:#181818;stroke-width:0.5;" width="69" x="308" y="1439.4609"/><text fill="#000000" font-family="sans-serif" font-size="14" lengthAdjust="spacing" textLength="55" x="315" y="1460.9941">Interface</text><rect fill="#E2E2F0" height="31.6094" rx="2.5" ry="2.5" style="stroke:#181818;stroke-width:0.5;" width="140" x="619.5" y="50"/><text fill="#000000" font-family="sans-serif" font-size="14" lengthAdjust="spacing" textLength="126" x="626.5" y="71.5332">Contr&#244;leurPaiement</text><rect fill="#E2E2F0" height="31.6094" rx="2.5" ry="2.5" style="stroke:#181818;stroke-width:0.5;" width="140" x="619.5" y="1439.4609"/><text fill="#000000" font-family="sans-serif" font-size="14" lengthAdjust="spacing" textLength="126" x="626.5" y="1460.9941">Contr&#244;leurPaiement</text><rect fill="#E2E2F0" height="49.2188" rx="2.5" ry="2.5" style="stroke:#181818;stroke-width:0.5;" width="162" x="911.5" y="32.3906"/><text fill="#000000" font-family="sans-serif" font-size="14" lengthAdjust="spacing" textLength="148" x="918.5" y="53.9238">Passerelle de paiement</text><text fill="#000000" font-family="sans-serif" font-size="14" lengthAdjust="spacing" textLength="144" x="920.5" y="71.5332">(Mobile Money / Carte)</text><rect fill="#E2E2F0" height="49.2188" rx="2.5" ry="2.5" style="stroke:#181818;stroke-width:0.5;" width="162" x="911.5" y="1439.4609"/><text fill="#000000" font-family="sans-serif" font-size="14" lengthAdjust="spacing" textLength="148" x="918.5" y="1460.9941">Passerelle de paiement</text><text fill="#000000" font-family="sans-serif" font-size="14" lengthAdjust="spacing" textLength="144" x="920.5" y="1478.6035">(Mobile Money / Carte)</text><text fill="#000000" font-family="sans-serif" font-size="14" lengthAdjust="spacing" textLength="111" x="1086" y="79.5332">Base de donn&#233;es</text><path d="M1126.5,29 C1126.5,19 1144.5,19 1144.5,19 C1144.5,19 1162.5,19 1162.5,29 L1162.5,55 C1162.5,65 1144.5,65 1144.5,65 C1144.5,65 1126.5,65 1126.5,55 L1126.5,29 " fill="#E2E2F0" style="stroke:#181818;stroke-width:1.5;"/><path d="M1126.5,29 C1126.5,39 1144.5,39 1144.5,39 C1144.5,39 1162.5,39 1162.5,29 " fill="none" style="stroke:#181818;stroke-width:1.5;"/><text fill="#000000" font-family="sans-serif" font-size="14" lengthAdjust="spacing" textLength="111" x="1086" y="1453.9941">Base de donn&#233;es</text><path d="M1126.5,1467.0703 C1126.5,1457.0703 1144.5,1457.0703 1144.5,1457.0703 C1144.5,1457.0703 1162.5,1457.0703 1162.5,1467.0703 L1162.5,1493.0703 C1162.5,1503.0703 1144.5,1503.0703 1144.5,1503.0703 C1144.5,1503.0703 1126.5,1503.0703 1126.5,1493.0703 L1126.5,1467.0703 " fill="#E2E2F0" style="stroke:#181818;stroke-width:1.5;"/><path d="M1126.5,1467.0703 C1126.5,1477.0703 1144.5,1477.0703 1144.5,1477.0703 C1144.5,1477.0703 1162.5,1477.0703 1162.5,1467.0703 " fill="none" style="stroke:#181818;stroke-width:1.5;"/><text fill="#000000" font-family="sans-serif" font-size="14" lengthAdjust="spacing" textLength="76" x="1213" y="79.5332">Fournisseur</text><ellipse cx="1254" cy="13.5" fill="#E2E2F0" rx="8" ry="8" style="stroke:#181818;stroke-width:0.5;"/><path d="M1254,21.5 L1254,48.5 M1241,29.5 L1267,29.5 M1254,48.5 L1241,63.5 M1254,48.5 L1267,63.5 " fill="none" style="stroke:#181818;stroke-width:0.5;"/><text fill="#000000" font-family="sans-serif" font-size="14" lengthAdjust="spacing" textLength="76" x="1213" y="1453.9941">Fournisseur</text><ellipse cx="1254" cy="1465.5703" fill="#E2E2F0" rx="8" ry="8" style="stroke:#181818;stroke-width:0.5;"/><path d="M1254,1473.5703 L1254,1500.5703 M1241,1481.5703 L1267,1481.5703 M1254,1500.5703 L1241,1515.5703 M1254,1500.5703 L1267,1515.5703 " fill="none" style="stroke:#181818;stroke-width:0.5;"/><text fill="#000000" font-family="sans-serif" font-size="14" lengthAdjust="spacing" textLength="44" x="1305" y="79.5332">Livreur</text><ellipse cx="1330" cy="13.5" fill="#E2E2F0" rx="8" ry="8" style="stroke:#181818;stroke-width:0.5;"/><path d="M1330,21.5 L1330,48.5 M1317,29.5 L1343,29.5 M1330,48.5 L1317,63.5 M1330,48.5 L1343,63.5 " fill="none" style="stroke:#181818;stroke-width:0.5;"/><text fill="#000000" font-family="sans-serif" font-size="14" lengthAdjust="spacing" textLength="44" x="1305" y="1453.9941">Livreur</text><ellipse cx="1330" cy="1465.5703" fill="#E2E2F0" rx="8" ry="8" style="stroke:#181818;stroke-width:0.5;"/><path d="M1330,1473.5703 L1330,1500.5703 M1317,1481.5703 L1343,1481.5703 M1330,1500.5703 L1317,1515.5703 M1330,1500.5703 L1343,1515.5703 " fill="none" style="stroke:#181818;stroke-width:0.5;"/><rect fill="#EEEEEE" height="3" style="stroke:#EEEEEE;stroke-width:1.0;" width="1375" x="0" y="113.7852"/><line style="stroke:#000000;stroke-width:1.0;" x1="0" x2="1375" y1="113.7852" y2="113.7852"/><line style="stroke:#000000;stroke-width:1.0;" x1="0" x2="1375" y1="116.7852" y2="116.7852"/><rect fill="#EEEEEE" height="24.3516" style="stroke:#000000;stroke-width:2.0;" width="160" x="607.5" y="102.6094"/><text fill="#000000" font-family="sans-serif" font-size="13" font-weight="bold" lengthAdjust="spacing" textLength="142" x="613.5" y="120.1045">Paiement et s&#233;questre</text><polygon fill="#181818" points="330.5,155.3125,340.5,159.3125,330.5,163.3125,334.5,159.3125" style="stroke:#181818;stroke-width:1.0;"/><line style="stroke:#181818;stroke-width:1.0;" x1="51.5" x2="336.5" y1="159.3125" y2="159.3125"/><text fill="#000000" font-family="sans-serif" font-size="13" lengthAdjust="spacing" textLength="203" x="58.5" y="154.4561">valide le paiement de la commande</text><polygon fill="#181818" points="677.5,185.6641,687.5,189.6641,677.5,193.6641,681.5,189.6641" style="stroke:#181818;stroke-width:1.0;"/><line style="stroke:#181818;stroke-width:1.0;" x1="342.5" x2="683.5" y1="189.6641" y2="189.6641"/><text fill="#000000" font-family="sans-serif" font-size="13" lengthAdjust="spacing" textLength="323" x="349.5" y="184.8076">initierPaiement(id_commande, moyen, numero_compte)</text><polygon fill="#181818" points="980.5,216.0156,990.5,220.0156,980.5,224.0156,984.5,220.0156" style="stroke:#181818;stroke-width:1.0;"/><line style="stroke:#181818;stroke-width:1.0;" x1="689.5" x2="986.5" y1="220.0156" y2="220.0156"/><text fill="#000000" font-family="sans-serif" font-size="13" lengthAdjust="spacing" textLength="117" x="696.5" y="215.1592">d&#233;biter total_general</text><polygon fill="#181818" points="700.5,246.3672,690.5,250.3672,700.5,254.3672,696.5,250.3672" style="stroke:#181818;stroke-width:1.0;"/><line style="stroke:#181818;stroke-width:1.0;stroke-dasharray:2.0,2.0;" x1="694.5" x2="991.5" y1="250.3672" y2="250.3672"/><text fill="#000000" font-family="sans-serif" font-size="13" lengthAdjust="spacing" textLength="121" x="706.5" y="245.5107">transaction accept&#233;e</text><line style="stroke:#181818;stroke-width:1.0;" x1="689.5" x2="731.5" y1="297.0703" y2="297.0703"/><line style="stroke:#181818;stroke-width:1.0;" x1="731.5" x2="731.5" y1="297.0703" y2="310.0703"/><line style="stroke:#181818;stroke-width:1.0;" x1="690.5" x2="731.5" y1="310.0703" y2="310.0703"/><polygon fill="#181818" points="700.5,306.0703,690.5,310.0703,700.5,314.0703,696.5,310.0703" style="stroke:#181818;stroke-width:1.0;"/><text fill="#000000" font-family="sans-serif" font-size="13" lengthAdjust="spacing" textLength="250" x="696.5" y="275.8623">calculer commission_sur_commande (5%),</text><text fill="#000000" font-family="sans-serif" font-size="13" lengthAdjust="spacing" textLength="289" x="696.5" y="292.2139">commission_sur_livraison (5%), total_commission</text><polygon fill="#181818" points="1132.5,336.4219,1142.5,340.4219,1132.5,344.4219,1136.5,340.4219" style="stroke:#181818;stroke-width:1.0;"/><line style="stroke:#181818;stroke-width:1.0;" x1="689.5" x2="1138.5" y1="340.4219" y2="340.4219"/><text fill="#000000" font-family="sans-serif" font-size="13" lengthAdjust="spacing" textLength="259" x="696.5" y="335.5654">INSERT paiement (statut_paiement = reussi)</text><polygon fill="#181818" points="1132.5,366.7734,1142.5,370.7734,1132.5,374.7734,1136.5,370.7734" style="stroke:#181818;stroke-width:1.0;"/><line style="stroke:#181818;stroke-width:1.0;" x1="689.5" x2="1138.5" y1="370.7734" y2="370.7734"/><text fill="#000000" font-family="sans-serif" font-size="13" lengthAdjust="spacing" textLength="216" x="696.5" y="365.917">UPDATE commande (statut = payee)</text><polygon fill="#181818" points="1242,397.125,1252,401.125,1242,405.125,1246,401.125" style="stroke:#181818;stroke-width:1.0;"/><line style="stroke:#181818;stroke-width:1.0;" x1="689.5" x2="1248" y1="401.125" y2="401.125"/><text fill="#000000" font-family="sans-serif" font-size="13" lengthAdjust="spacing" textLength="259" x="696.5" y="396.2686">notification(paiement re&#231;u, fonds s&#233;questr&#233;s)</text><rect fill="#EEEEEE" height="3" style="stroke:#EEEEEE;stroke-width:1.0;" width="1375" x="0" y="430.3008"/><line style="stroke:#000000;stroke-width:1.0;" x1="0" x2="1375" y1="430.3008" y2="430.3008"/><line style="stroke:#000000;stroke-width:1.0;" x1="0" x2="1375" y1="433.3008" y2="433.3008"/><rect fill="#EEEEEE" height="24.3516" style="stroke:#000000;stroke-width:2.0;" width="491" x="442" y="419.125"/><text fill="#000000" font-family="sans-serif" font-size="13" font-weight="bold" lengthAdjust="spacing" textLength="473" x="448" y="436.6201">V&#233;rification &#224; la r&#233;ception (selon le mode de retrait choisi &#224; la commande)</text><path d="M10,460.4766 L71,460.4766 L71,468.8281 L61,478.8281 L10,478.8281 L10,460.4766 " fill="#EEEEEE" style="stroke:#000000;stroke-width:1.5;"/><rect fill="none" height="479.2969" style="stroke:#000000;stroke-width:1.5;" width="1355" x="10" y="460.4766"/><text fill="#000000" font-family="sans-serif" font-size="13" font-weight="bold" lengthAdjust="spacing" textLength="16" x="25" y="474.9717">alt</text><text fill="#000000" font-family="sans-serif" font-size="11" font-weight="bold" lengthAdjust="spacing" textLength="189" x="86" y="473.8955">[l'acheteur avait choisi la livraison]</text><polygon fill="#181818" points="353.5,497.1797,343.5,501.1797,353.5,505.1797,349.5,501.1797" style="stroke:#181818;stroke-width:1.0;"/><line style="stroke:#181818;stroke-width:1.0;" x1="347.5" x2="1329" y1="501.1797" y2="501.1797"/><text fill="#000000" font-family="sans-serif" font-size="13" lengthAdjust="spacing" textLength="250" x="359.5" y="496.3232">clique sur &#171; Livraison &#187; (affiche le QR code)</text><polygon fill="#181818" points="330.5,527.5313,340.5,531.5313,330.5,535.5313,334.5,531.5313" style="stroke:#181818;stroke-width:1.0;"/><line style="stroke:#181818;stroke-width:1.0;" x1="51.5" x2="336.5" y1="531.5313" y2="531.5313"/><text fill="#000000" font-family="sans-serif" font-size="13" lengthAdjust="spacing" textLength="267" x="58.5" y="526.6748">clique sur &#171; Confirmer &#187; et scanne le QR code</text><polygon fill="#181818" points="677.5,557.8828,687.5,561.8828,677.5,565.8828,681.5,561.8828" style="stroke:#181818;stroke-width:1.0;"/><line style="stroke:#181818;stroke-width:1.0;" x1="342.5" x2="683.5" y1="561.8828" y2="561.8828"/><text fill="#000000" font-family="sans-serif" font-size="13" lengthAdjust="spacing" textLength="259" x="349.5" y="557.0264">verifierQRCode(id_commande, code_scanne)</text><polygon fill="#181818" points="1132.5,588.2344,1142.5,592.2344,1132.5,596.2344,1136.5,592.2344" style="stroke:#181818;stroke-width:1.0;"/><line style="stroke:#181818;stroke-width:1.0;" x1="689.5" x2="1138.5" y1="592.2344" y2="592.2344"/><text fill="#000000" font-family="sans-serif" font-size="13" lengthAdjust="spacing" textLength="294" x="696.5" y="587.3779">SELECT code_authenticite WHERE id_commande</text><polygon fill="#181818" points="700.5,618.5859,690.5,622.5859,700.5,626.5859,696.5,622.5859" style="stroke:#181818;stroke-width:1.0;"/><line style="stroke:#181818;stroke-width:1.0;stroke-dasharray:2.0,2.0;" x1="694.5" x2="1143.5" y1="622.5859" y2="622.5859"/><text fill="#000000" font-family="sans-serif" font-size="13" lengthAdjust="spacing" textLength="149" x="706.5" y="617.7295">code_authenticite attendu</text><path d="M298,637.5859 L359,637.5859 L359,645.9375 L349,655.9375 L298,655.9375 L298,637.5859 " fill="#EEEEEE" style="stroke:#000000;stroke-width:1.5;"/><rect fill="none" height="171.9453" style="stroke:#000000;stroke-width:1.5;" width="915" x="298" y="637.5859"/><text fill="#000000" font-family="sans-serif" font-size="13" font-weight="bold" lengthAdjust="spacing" textLength="16" x="313" y="652.0811">alt</text><text fill="#000000" font-family="sans-serif" font-size="11" font-weight="bold" lengthAdjust="spacing" textLength="90" x="374" y="651.0049">[code identique]</text><polygon fill="#181818" points="1132.5,690.6406,1142.5,694.6406,1132.5,698.6406,1136.5,694.6406" style="stroke:#181818;stroke-width:1.0;"/><line style="stroke:#181818;stroke-width:1.0;" x1="689.5" x2="1138.5" y1="694.6406" y2="694.6406"/><text fill="#000000" font-family="sans-serif" font-size="13" lengthAdjust="spacing" textLength="303" x="696.5" y="673.4326">UPDATE livraison (verification_authenticite = verifiee,</text><text fill="#000000" font-family="sans-serif" font-size="13" lengthAdjust="spacing" textLength="103" x="696.5" y="689.7842">statut = terminee)</text><polygon fill="#181818" points="1132.5,720.9922,1142.5,724.9922,1132.5,728.9922,1136.5,724.9922" style="stroke:#181818;stroke-width:1.0;"/><line style="stroke:#181818;stroke-width:1.0;" x1="689.5" x2="1138.5" y1="724.9922" y2="724.9922"/><text fill="#000000" font-family="sans-serif" font-size="13" lengthAdjust="spacing" textLength="237" x="696.5" y="720.1357">UPDATE commande (statut = confirmee)</text><line style="stroke:#000000;stroke-width:1.0;stroke-dasharray:2.0,2.0;" x1="298" x2="1213" y1="733.9922" y2="733.9922"/><text fill="#000000" font-family="sans-serif" font-size="11" font-weight="bold" lengthAdjust="spacing" textLength="86" x="303" y="745.4111">[code diff&#233;rent]</text><polygon fill="#181818" points="1132.5,767.1797,1142.5,771.1797,1132.5,775.1797,1136.5,771.1797" style="stroke:#181818;stroke-width:1.0;"/><line style="stroke:#181818;stroke-width:1.0;" x1="689.5" x2="1138.5" y1="771.1797" y2="771.1797"/><text fill="#000000" font-family="sans-serif" font-size="13" lengthAdjust="spacing" textLength="306" x="696.5" y="766.3232">UPDATE livraison (verification_authenticite = echoue)</text><polygon fill="#181818" points="353.5,797.5313,343.5,801.5313,353.5,805.5313,349.5,801.5313" style="stroke:#181818;stroke-width:1.0;"/><line style="stroke:#181818;stroke-width:1.0;stroke-dasharray:2.0,2.0;" x1="347.5" x2="688.5" y1="801.5313" y2="801.5313"/><text fill="#000000" font-family="sans-serif" font-size="13" lengthAdjust="spacing" textLength="118" x="359.5" y="796.6748">alerte de falsification</text><line style="stroke:#000000;stroke-width:1.0;stroke-dasharray:2.0,2.0;" x1="10" x2="1365" y1="817.5313" y2="817.5313"/><text fill="#000000" font-family="sans-serif" font-size="11" font-weight="bold" lengthAdjust="spacing" textLength="212" x="15" y="828.9502">[l'acheteur avait choisi le retrait direct]</text><polygon fill="#181818" points="330.5,867.0703,340.5,871.0703,330.5,875.0703,334.5,871.0703" style="stroke:#181818;stroke-width:1.0;"/><line style="stroke:#181818;stroke-width:1.0;" x1="51.5" x2="336.5" y1="871.0703" y2="871.0703"/><text fill="#000000" font-family="sans-serif" font-size="13" lengthAdjust="spacing" textLength="210" x="58.5" y="849.8623">confirme la r&#233;ception en main propre</text><text fill="#000000" font-family="sans-serif" font-size="13" lengthAdjust="spacing" textLength="191" x="58.5" y="866.2139">(aucune v&#233;rification par QR code)</text><polygon fill="#181818" points="677.5,897.4219,687.5,901.4219,677.5,905.4219,681.5,901.4219" style="stroke:#181818;stroke-width:1.0;"/><line style="stroke:#181818;stroke-width:1.0;" x1="342.5" x2="683.5" y1="901.4219" y2="901.4219"/><text fill="#000000" font-family="sans-serif" font-size="13" lengthAdjust="spacing" textLength="241" x="349.5" y="896.5654">confirmerReceptionDirecte(id_commande)</text><polygon fill="#181818" points="1132.5,927.7734,1142.5,931.7734,1132.5,935.7734,1136.5,931.7734" style="stroke:#181818;stroke-width:1.0;"/><line style="stroke:#181818;stroke-width:1.0;" x1="689.5" x2="1138.5" y1="931.7734" y2="931.7734"/><text fill="#000000" font-family="sans-serif" font-size="13" lengthAdjust="spacing" textLength="237" x="696.5" y="926.917">UPDATE commande (statut = confirmee)</text><rect fill="#EEEEEE" height="3" style="stroke:#EEEEEE;stroke-width:1.0;" width="1375" x="0" y="967.9492"/><line style="stroke:#000000;stroke-width:1.0;" x1="0" x2="1375" y1="967.9492" y2="967.9492"/><line style="stroke:#000000;stroke-width:1.0;" x1="0" x2="1375" y1="970.9492" y2="970.9492"/><rect fill="#EEEEEE" height="24.3516" style="stroke:#000000;stroke-width:2.0;" width="92" x="641.5" y="956.7734"/><text fill="#000000" font-family="sans-serif" font-size="13" font-weight="bold" lengthAdjust="spacing" textLength="74" x="647.5" y="974.2686">Versements</text><polygon fill="#181818" points="1132.5,1030.8594,1142.5,1034.8594,1132.5,1038.8594,1136.5,1034.8594" style="stroke:#181818;stroke-width:1.0;"/><line style="stroke:#181818;stroke-width:1.0;" x1="689.5" x2="1138.5" y1="1034.8594" y2="1034.8594"/><text fill="#000000" font-family="sans-serif" font-size="13" lengthAdjust="spacing" textLength="193" x="696.5" y="1008.6201">montant_a_verser_au_fournisseur</text><text fill="#000000" font-family="sans-serif" font-size="17" font-weight="bold" lengthAdjust="spacing" textLength="431" x="696.5" y="1029.124">montant_net_commande - commission_sur_commande</text><polygon fill="#181818" points="1132.5,1061.2109,1142.5,1065.2109,1132.5,1069.2109,1136.5,1065.2109" style="stroke:#181818;stroke-width:1.0;"/><line style="stroke:#181818;stroke-width:1.0;" x1="689.5" x2="1138.5" y1="1065.2109" y2="1065.2109"/><text fill="#000000" font-family="sans-serif" font-size="13" lengthAdjust="spacing" textLength="297" x="696.5" y="1060.3545">INSERT versement (type_beneficiaire = fournisseur)</text><polygon fill="#181818" points="980.5,1091.5625,990.5,1095.5625,980.5,1099.5625,984.5,1095.5625" style="stroke:#181818;stroke-width:1.0;"/><line style="stroke:#181818;stroke-width:1.0;" x1="689.5" x2="986.5" y1="1095.5625" y2="1095.5625"/><text fill="#000000" font-family="sans-serif" font-size="13" lengthAdjust="spacing" textLength="124" x="696.5" y="1090.7061">cr&#233;diter le fournisseur</text><polygon fill="#181818" points="700.5,1121.9141,690.5,1125.9141,700.5,1129.9141,696.5,1125.9141" style="stroke:#181818;stroke-width:1.0;"/><line style="stroke:#181818;stroke-width:1.0;stroke-dasharray:2.0,2.0;" x1="694.5" x2="991.5" y1="1125.9141" y2="1125.9141"/><text fill="#000000" font-family="sans-serif" font-size="13" lengthAdjust="spacing" textLength="98" x="706.5" y="1121.0576">versement r&#233;ussi</text><polygon fill="#181818" points="1132.5,1152.2656,1142.5,1156.2656,1132.5,1160.2656,1136.5,1156.2656" style="stroke:#181818;stroke-width:1.0;"/><line style="stroke:#181818;stroke-width:1.0;" x1="689.5" x2="1138.5" y1="1156.2656" y2="1156.2656"/><text fill="#000000" font-family="sans-serif" font-size="13" lengthAdjust="spacing" textLength="277" x="696.5" y="1151.4092">UPDATE versement (statut_versement = reussi)</text><polygon fill="#181818" points="1242,1182.6172,1252,1186.6172,1242,1190.6172,1246,1186.6172" style="stroke:#181818;stroke-width:1.0;"/><line style="stroke:#181818;stroke-width:1.0;" x1="689.5" x2="1248" y1="1186.6172" y2="1186.6172"/><text fill="#000000" font-family="sans-serif" font-size="13" lengthAdjust="spacing" textLength="151" x="696.5" y="1181.7607">notification(montant vers&#233;)</text><path d="M609.5,1201.6172 L670.5,1201.6172 L670.5,1209.9688 L660.5,1219.9688 L609.5,1219.9688 L609.5,1201.6172 " fill="#EEEEEE" style="stroke:#000000;stroke-width:1.5;"/><rect fill="none" height="221.8438" style="stroke:#000000;stroke-width:1.5;" width="755.5" x="609.5" y="1201.6172"/><text fill="#000000" font-family="sans-serif" font-size="13" font-weight="bold" lengthAdjust="spacing" textLength="16" x="624.5" y="1216.1123">alt</text><text fill="#000000" font-family="sans-serif" font-size="11" font-weight="bold" lengthAdjust="spacing" textLength="138" x="685.5" y="1215.0361">[un livreur est intervenu]</text><polygon fill="#181818" points="1132.5,1259.7031,1142.5,1263.7031,1132.5,1267.7031,1136.5,1263.7031" style="stroke:#181818;stroke-width:1.0;"/><line style="stroke:#181818;stroke-width:1.0;" x1="689.5" x2="1138.5" y1="1263.7031" y2="1263.7031"/><text fill="#000000" font-family="sans-serif" font-size="13" lengthAdjust="spacing" textLength="163" x="696.5" y="1237.4639">montant_a_verser_au_livreur</text><text fill="#000000" font-family="sans-serif" font-size="17" font-weight="bold" lengthAdjust="spacing" textLength="393" x="696.5" y="1257.9678">montant_net_livraison - commission_sur_livraison</text><polygon fill="#181818" points="1132.5,1290.0547,1142.5,1294.0547,1132.5,1298.0547,1136.5,1294.0547" style="stroke:#181818;stroke-width:1.0;"/><line style="stroke:#181818;stroke-width:1.0;" x1="689.5" x2="1138.5" y1="1294.0547" y2="1294.0547"/><text fill="#000000" font-family="sans-serif" font-size="13" lengthAdjust="spacing" textLength="267" x="696.5" y="1289.1982">INSERT versement (type_beneficiaire = livreur)</text><polygon fill="#181818" points="980.5,1320.4063,990.5,1324.4063,980.5,1328.4063,984.5,1324.4063" style="stroke:#181818;stroke-width:1.0;"/><line style="stroke:#181818;stroke-width:1.0;" x1="689.5" x2="986.5" y1="1324.4063" y2="1324.4063"/><text fill="#000000" font-family="sans-serif" font-size="13" lengthAdjust="spacing" textLength="94" x="696.5" y="1319.5498">cr&#233;diter le livreur</text><polygon fill="#181818" points="700.5,1350.7578,690.5,1354.7578,700.5,1358.7578,696.5,1354.7578" style="stroke:#181818;stroke-width:1.0;"/><line style="stroke:#181818;stroke-width:1.0;stroke-dasharray:2.0,2.0;" x1="694.5" x2="991.5" y1="1354.7578" y2="1354.7578"/><text fill="#000000" font-family="sans-serif" font-size="13" lengthAdjust="spacing" textLength="98" x="706.5" y="1349.9014">versement r&#233;ussi</text><polygon fill="#181818" points="1132.5,1381.1094,1142.5,1385.1094,1132.5,1389.1094,1136.5,1385.1094" style="stroke:#181818;stroke-width:1.0;"/><line style="stroke:#181818;stroke-width:1.0;" x1="689.5" x2="1138.5" y1="1385.1094" y2="1385.1094"/><text fill="#000000" font-family="sans-serif" font-size="13" lengthAdjust="spacing" textLength="277" x="696.5" y="1380.2529">UPDATE versement (statut_versement = reussi)</text><polygon fill="#181818" points="1318,1411.4609,1328,1415.4609,1318,1419.4609,1322,1415.4609" style="stroke:#181818;stroke-width:1.0;"/><line style="stroke:#181818;stroke-width:1.0;" x1="689.5" x2="1324" y1="1415.4609" y2="1415.4609"/><text fill="#000000" font-family="sans-serif" font-size="13" lengthAdjust="spacing" textLength="208" x="696.5" y="1410.6045">notification(frais de transport vers&#233;s)</text><!--SRC=[fLNDQYD74BxFKnI680dapIcNW09hIKa4ky7hzNelXg4rKretpFIC-qU9Rdc8F41kYyWrjznstYHFib-tvbS_O18mjgUxlkgghxwg6j52YazQv3bJocIg_RDZbJ3bGZqxeInzJscrjq9cbBhwtbZDKs-U2TfMUoqtCX5M5YeQKJeIpZwniZAHjjfJAJIzkwEaW3bRW0njMHlEOM9eB1MSkSI3pIlxcvsIuSCNVArMgocj7ZpkOJMXVt__WrIXuCl1XGsk3J_7fJ26TPmKEOB6C-EjGp8ZLdXbdV7aLHI9n1QQhbudJspPwIiIXl0HmOKFjFI9NgsKPRqH2OVh3wlXxRnGLbT_Pu3V2XdY3tPpgxFReUbj28YpB71QrjQFQlosM4iSlYqKx-XRcWF4a-3b9s7vLx6BKc75MXYcgnl_6_2qKAhQimbcYvicbHyBfvN4EtKs_hkvUoEtkZd7_r4qcr4JioUpgoBDPX5ueEiVa2zAlHMPz7NjegxBt90RmGp68MdOIoMjv9QGiKpRCamfBtQifgHSphhmvoMoZGvG-AXJFWXiBS4zsSAABFx4YhN8eiRWklUWrK8P4HH28acuXCQuyzcO9I9BN0QFFXgm1FFOkBv6lljcCdrKHzSPY1FIm7Uuh-FfZBg75ZTuPVNB- -NTVKVLs5XXdOtRWncX3a1EZe0VRXUlxvVKHNC0mhuKE-wJvCiAW2fissJZrhtcwhERqgPGgUcAMktD99JyeT-QLFtfwuXRJve_61lEy0UrpdrpuaSpw9MMagT26baZcY0dNYiYivIDHDr69BOzSzYs_4NaXTVAAiaaOYDGJ5_-yZSror_-eR7O8CIdeBbwJao0xejoY4OVRgI6f3pQYpaHIlNXG0z5Yc416bY_kvlZUgXH3uWFBlopmpAzNxvPpkyFDhsfnlJnv-NTadgE00MYBzHJaB2MLUfWwbaC0n6zXbiaXyFZnskDz2HvoEDGpg7hMPCZGzEjbj1HkLGS4hlW_Om2avhV0ECCGoY4cihD1dh2a_yxLePWt32gfjG2FMk35ZSYCzrUGIGgZK8q5-NNwJUL6alaM4LrNaTTm0ghJYegTL5gnemMBd7Gqs2lzRVOv4HVZMTznxNNHGXW8BLJTRse13xjqClTpaGR3Xtbs4pOEx68msRLu3lUTElXKSrQ4yMscu7NbwRZ-J7NhcqQsrt9yHfZ6WH98VqUeTwBPuTy0jBJCELHgPxnsJ7VlGMKdw3d1sWlf7hqTYTdPk-vOLep4rnLUmnEtvnE1IrxZM6YOiiXx2qhTrB3SzJNo6FQk-OuuRq_DlyBzVMB0ubT8BusXUNBQByWsfSHtmFxRN34_CRdx5izxFIoq4qHJ93zLm00]--></g></svg>