<?xml version="1.0" encoding="us-ascii" standalone="no"?><svg xmlns="http://www.w3.org/2000/svg" xmlns:xlink="http://www.w3.org/1999/xlink" contentStyleType="text/css" height="727.5px" preserveAspectRatio="none" style="width:804px;height:727px;background:#FFFFFF;" version="1.1" viewBox="0 0 804 727" width="804.375px" zoomAndPan="magnify"><defs/><g><text fill="#17324D" font-family="sans-serif" font-size="37.5" font-weight="bold" lengthAdjust="spacing" textLength="485.625" x="146.7188" y="57.6782">Cycle de vie d'une annonce</text><ellipse cx="264.375" cy="116.543" fill="#181818" rx="18.75" ry="18.75" style="stroke:none;stroke-width:1.875;"/><g id="EnAttente"><rect fill="#EDF7F1" height="103.5352" rx="11.25" ry="11.25" style="stroke:#2F7D5B;stroke-width:0.9375;" width="208.125" x="160.3125" y="247.793"/><line style="stroke:#2F7D5B;stroke-width:0.9375;" x1="160.3125" x2="368.4375" y1="332.5781" y2="332.5781"/><text fill="#17324D" font-family="sans-serif" font-size="26.25" lengthAdjust="spacing" textLength="121.875" x="203.4375" y="284.4177">En attente</text><text fill="#17324D" font-family="sans-serif" font-size="26.25" lengthAdjust="spacing" textLength="170.625" x="179.0625" y="317.4353">de mod&#233;ration</text></g><g id="Visible"><rect fill="#EDF7F1" height="103.5352" rx="11.25" ry="11.25" style="stroke:#2F7D5B;stroke-width:0.9375;" width="247.5" x="13.125" y="463.418"/><line style="stroke:#2F7D5B;stroke-width:0.9375;" x1="13.125" x2="260.625" y1="548.2031" y2="548.2031"/><text fill="#17324D" font-family="sans-serif" font-size="26.25" lengthAdjust="spacing" textLength="76.875" x="98.4375" y="500.0427">Visible</text><text fill="#17324D" font-family="sans-serif" font-size="26.25" lengthAdjust="spacing" textLength="210" x="31.875" y="533.0603">dans le catalogue</text></g><g id="Rejetee"><rect fill="#EDF7F1" height="93.75" rx="11.25" ry="11.25" style="stroke:#2F7D5B;stroke-width:0.9375;" width="129.375" x="327.1875" y="468.1055"/><line style="stroke:#2F7D5B;stroke-width:0.9375;" x1="327.1875" x2="456.5625" y1="519.873" y2="519.873"/><text fill="#17324D" font-family="sans-serif" font-size="26.25" lengthAdjust="spacing" textLength="91.875" x="345.9375" y="504.7302">Rejet&#233;e</text></g><ellipse cx="264.375" cy="697.793" fill="none" rx="18.75" ry="18.75" style="stroke:#181818;stroke-width:1.875;"/><ellipse cx="265.3125" cy="698.7305" fill="#181818" rx="11.25" ry="11.25" style="stroke:none;stroke-width:1.875;"/><g id="elem_GMN12"><path d="M434.0625,268.418 L434.0625,292.793 L368.5313,300.293 L434.0625,307.793 L434.0625,330.7031 A11.25,11.25 0 0 0 445.3125,341.9531 L780.9375,341.9531 A11.25,11.25 0 0 0 792.1875,330.7031 L792.1875,275.918 L773.4375,257.168 L445.3125,257.168 A11.25,11.25 0 0 0 434.0625,268.418 " fill="#FFF8E8" style="stroke:#E5AE45;stroke-width:0.9375;"/><path d="M773.4375,257.168 L773.4375,270.293 A5.625,5.625 0 0 0 779.0625,275.918 L792.1875,275.918 L773.4375,257.168 " fill="#FFF8E8" style="stroke:#E5AE45;stroke-width:0.9375;"/><text fill="#5B481E" font-family="sans-serif" font-size="26.25" lengthAdjust="spacing" textLength="292.5" x="445.3125" y="293.7927">L'administrateur contr&#244;le</text><text fill="#5B481E" font-family="sans-serif" font-size="26.25" lengthAdjust="spacing" textLength="318.75" x="445.3125" y="326.8103">la conformit&#233; de l'annonce.</text></g><!--link *start* to EnAttente--><g id="link_*start*_EnAttente"><path d="M264.375,135.4242 C264.375,135.4242 264.375,238.3805 264.375,238.3805 " fill="none" id="*start*-to-EnAttente" style="stroke:#456A7D;stroke-width:2.625;"/><polygon fill="#456A7D" points="264.375,247.7555,271.875,230.8805,264.375,238.3805,256.875,230.8805,264.375,247.7555" style="stroke:#456A7D;stroke-width:2.625;"/><text fill="#29485B" font-family="sans-serif" font-size="26.25" lengthAdjust="spacing" textLength="131.25" x="131.25" y="180.4115">soumission</text></g><!--link EnAttente to Visible--><g id="link_EnAttente_Visible"><path d="M210.4688,351.0117 C210.4688,351.0117 210.4688,453.6305 210.4688,453.6305 " fill="none" id="EnAttente-to-Visible" style="stroke:#456A7D;stroke-width:2.625;"/><polygon fill="#456A7D" points="210.4688,463.0055,217.9688,446.1305,210.4688,453.6305,202.9688,446.1305,210.4688,463.0055" style="stroke:#456A7D;stroke-width:2.625;"/><text fill="#29485B" font-family="sans-serif" font-size="26.25" lengthAdjust="spacing" textLength="142.5" x="66.0938" y="395.8115">approbation</text></g><!--link EnAttente to Rejetee--><g id="link_EnAttente_Rejetee"><path d="M347.8125,351.0117 C347.8125,351.0117 347.8125,458.0555 347.8125,458.0555 " fill="none" id="EnAttente-to-Rejetee" style="stroke:#456A7D;stroke-width:2.625;"/><polygon fill="#456A7D" points="347.8125,467.4305,355.3125,450.5555,347.8125,458.0555,340.3125,450.5555,347.8125,467.4305" style="stroke:#456A7D;stroke-width:2.625;"/><text fill="#29485B" font-family="sans-serif" font-size="26.25" lengthAdjust="spacing" textLength="138.75" x="207.1875" y="433.6677">rejet + motif</text></g><!--link Visible to *end*--><g id="link_Visible_*end*"><path d="M253.125,566.8805 C253.125,566.8805 253.125,673.2117 253.125,673.2117 " fill="none" id="Visible-to-*end*" style="stroke:#456A7D;stroke-width:2.625;"/><polygon fill="#456A7D" points="253.125,682.5867,260.625,665.7117,253.125,673.2117,245.625,665.7117,253.125,682.5867" style="stroke:#456A7D;stroke-width:2.625;"/><text fill="#29485B" font-family="sans-serif" font-size="26.25" lengthAdjust="spacing" textLength="238.125" x="13.125" y="613.5552">publication termin&#233;e</text></g><!--link Rejetee to *end*--><g id="link_Rejetee_*end*"><path d="M326.9625,515.918 C298.6875,515.918 271.875,515.918 271.875,515.918 C271.875,515.918 271.875,670.9805 271.875,670.9805 " fill="none" id="Rejetee-to-*end*" style="stroke:#456A7D;stroke-width:2.625;"/><polygon fill="#456A7D" points="271.875,680.3555,279.375,663.4805,271.875,670.9805,264.375,663.4805,271.875,680.3555" style="stroke:#456A7D;stroke-width:2.625;"/></g><!--SRC=[ZPRDSjem4CVlVegTzC1CEs7uCC7aq1a3Tdh8P38bpQNjGTWBg94bLv99wQaFqGVeDVU-0M_I9wa4fb6muvGPmFR-TlU_Azdh5ipqXY4a8iiA3dz-_8IKagKaMOOA8eRhYU0S4-srO7Px0UUm438Z6jRccf0K6N3KiFq5MXGQGHFA6BRX-igo-2qNKiEAM5EwVLXGJZKLlEsfEyfpOjB0d2HtIoaAdau44n9UnRkFGwGvXMxGSQwe5Kd5FULBM12cqB7i0YL2SfJGxJa6HetEJOvW1As46nqNf60w5bnVaGnXHhYQeQIBUcP6loDqVSTuGpN3HlT_nCwvrwapbSLtX_sUFtM0K4fnNnhzmLauh1WTxzx83mRZO-1cHPCxZaf1j-qAln8QnpNT3wBWc18oHLaIqI2C_C4HuOWOZFsW6pdsQvE3B9y66ONZOJYiWIfw_3YCpwgWsxFOfEpN8_lTFHSiTRkIQBgcUbDDrec3k5z7kjfxyN3wjCibrRYE9JEb91CyhUjxVneqEBWAfi5eq8jhAtfMv8GHfSOltcnxhB7S7V8EYK4gyI8_xaVXCTpKc8ZhsgKu5bPoZShsJ5EscIOrcpwQniEuMy4QS-sGfbGV52P4rIGBpPuEQa0tNJyQ-gDE5Mgi3RyMo1Eyf0lpvKStt6JiJxfDz8ihSF2u9bBJXEQ4wvUBgtDgBFJW4Dhvyl-YzdZpYfNeXGcOLoCFut4yVHQlwQMdxSCR9fl4_AO8Qsh-MWL789mBumcUz_7rPpWzVMjsPgWrSZC6pq698gDAcJdeFLwsq2rLTCuiGl9SYZdHLUOzVa6Dbf7s2Dv09hIPDWTVozYavv0NSqQJNGpGA3FAjm_e7VnBplEKtSUEFgBW9E90zgUVk2ai4sPsorsaav8_fBDqUMnGC_l0lamGJPXO5dYW3qajlJisIauyZvl10P8kLnh4ub621t3P8gaHJ9KsQR6Gvls4QxdzpQoH4NjgtqEe2MGxprfbnziUyXHitBy0]--></g></svg>