<?xml version="1.0" encoding="us-ascii" standalone="no"?><svg xmlns="http://www.w3.org/2000/svg" xmlns:xlink="http://www.w3.org/1999/xlink" contentStyleType="text/css" height="650px" preserveAspectRatio="none" style="width:905px;height:650px;background:#FFFFFF;" version="1.1" viewBox="0 0 905 650" width="905px" zoomAndPan="magnify"><defs/><g><ellipse cx="333" cy="16" fill="#181818" rx="10" ry="10" style="stroke:none;stroke-width:1.0;"/><g id="en_attente"><rect fill="#F1F1F1" height="50" rx="12.5" ry="12.5" style="stroke:#181818;stroke-width:0.5;" width="84" x="291" y="104"/><line style="stroke:#181818;stroke-width:0.5;" x1="291" x2="375" y1="131.6094" y2="131.6094"/><text fill="#000000" font-family="sans-serif" font-size="14" lengthAdjust="spacing" textLength="64" x="301" y="123.5332">en attente</text></g><g id="visible"><rect fill="#F1F1F1" height="50" rx="12.5" ry="12.5" style="stroke:#181818;stroke-width:0.5;" width="59" x="99.5" y="252.5"/><line style="stroke:#181818;stroke-width:0.5;" x1="99.5" x2="158.5" y1="280.1094" y2="280.1094"/><text fill="#000000" font-family="sans-serif" font-size="14" lengthAdjust="spacing" textLength="39" x="109.5" y="272.0332">visible</text></g><g id="rejetee"><rect fill="#F1F1F1" height="50" rx="12.5" ry="12.5" style="stroke:#181818;stroke-width:0.5;" width="64" x="505" y="252.5"/><line style="stroke:#181818;stroke-width:0.5;" x1="505" x2="569" y1="280.1094" y2="280.1094"/><text fill="#000000" font-family="sans-serif" font-size="14" lengthAdjust="spacing" textLength="44" x="515" y="272.0332">rejetee</text></g><ellipse cx="449" cy="515" fill="none" rx="10" ry="10" style="stroke:#181818;stroke-width:1.0;"/><ellipse cx="449.5" cy="515.5" fill="#181818" rx="6" ry="6" style="stroke:none;stroke-width:1.0;"/><g id="elem_GMN12"><path d="M194,248 L194,273.5 L158.74,277.5 L194,281.5 L194,307.0547 A0,0 0 0 0 194,307.0547 L470,307.0547 A0,0 0 0 0 470,307.0547 L470,258 L460,248 L194,248 A0,0 0 0 0 194,248 " fill="#FEFFDD" style="stroke:#181818;stroke-width:0.5;"/><path d="M460,248 L460,258 L470,258 L460,248 " fill="#FEFFDD" style="stroke:#181818;stroke-width:0.5;"/><text fill="#000000" font-family="sans-serif" font-size="13" lengthAdjust="spacing" textLength="255" x="200" y="266.4951">Une notification est envoy&#233;e au fournisseur :</text><text fill="#000000" font-family="sans-serif" font-size="13" lengthAdjust="spacing" textLength="254" x="200" y="282.8467">&#171; votre annonce est approuv&#233;e et d&#233;sormais</text><text fill="#000000" font-family="sans-serif" font-size="13" lengthAdjust="spacing" textLength="144" x="200" y="299.1982">visible sur ElevConnect &#187;</text></g><g id="elem_GMN15"><path d="M604,256 L604,273.5 L569.18,277.5 L604,281.5 L604,298.7031 A0,0 0 0 0 604,298.7031 L898,298.7031 A0,0 0 0 0 898,298.7031 L898,266 L888,256 L604,256 A0,0 0 0 0 604,256 " fill="#FEFFDD" style="stroke:#181818;stroke-width:0.5;"/><path d="M888,256 L888,266 L898,266 L888,256 " fill="#FEFFDD" style="stroke:#181818;stroke-width:0.5;"/><text fill="#000000" font-family="sans-serif" font-size="13" lengthAdjust="spacing" textLength="255" x="610" y="274.4951">Une notification est envoy&#233;e au fournisseur :</text><text fill="#000000" font-family="sans-serif" font-size="13" lengthAdjust="spacing" textLength="273" x="610" y="290.8467">&#171; votre annonce a &#233;t&#233; rejet&#233;e pour faute de ... &#187;</text></g><path d="M19.5,385 L238.71,385 A12.5,12.5 0 0 1 251.21,397.5 L251.21,412.6094 L7,412.6094 L7,397.5 A12.5,12.5 0 0 1 19.5,385 " fill="#F1F1F1" style="stroke:#F1F1F1;stroke-width:1.0;"/><rect fill="none" height="259.6094" rx="12.5" ry="12.5" style="stroke:#181818;stroke-width:0.5;" width="244.21" x="7" y="385"/><line style="stroke:#181818;stroke-width:0.5;" x1="7" x2="251.21" y1="412.6094" y2="412.6094"/><text fill="#000000" font-family="sans-serif" font-size="14" lengthAdjust="spacing" textLength="197" x="30.605" y="404.5332">Disponibilit&#233; commerciale (etat)</text><ellipse cx="83.21" cy="433.6094" fill="#181818" rx="10" ry="10" style="stroke:none;stroke-width:1.0;"/><g id="ETAT.disponible"><rect fill="#F1F1F1" height="50" rx="12.5" ry="12.5" style="stroke:#181818;stroke-width:0.5;" width="84" x="41.21" y="480.6094"/><line style="stroke:#181818;stroke-width:0.5;" x1="41.21" x2="125.21" y1="508.2188" y2="508.2188"/><text fill="#000000" font-family="sans-serif" font-size="14" lengthAdjust="spacing" textLength="64" x="51.21" y="500.1426">disponible</text></g><g id="ETAT.stock_epuise"><rect fill="#F1F1F1" height="50" rx="12.5" ry="12.5" style="stroke:#181818;stroke-width:0.5;" width="99" x="33.71" y="584.6094"/><line style="stroke:#181818;stroke-width:0.5;" x1="33.71" x2="132.71" y1="612.2188" y2="612.2188"/><text fill="#000000" font-family="sans-serif" font-size="14" lengthAdjust="spacing" textLength="79" x="43.71" y="604.1426">stock &#233;puis&#233;</text></g><!--link *start*ETAT to disponible--><g id="link_*start*ETAT_disponible"><path d="M83.21,443.7594 C83.21,451.7994 83.21,463.9394 83.21,475.2594 " fill="none" id="*start*ETAT-to-disponible" style="stroke:#181818;stroke-width:1.0;"/><polygon fill="#181818" points="83.21,480.3894,87.21,471.3894,83.21,475.3894,79.21,471.3894,83.21,480.3894" style="stroke:#181818;stroke-width:1.0;"/></g><!--link disponible to stock_epuise--><g id="link_disponible_stock_epuise"><path d="M41.12,528.7594 C34.3,534.2894 28.18,540.8994 24.21,548.6094 C18,560.6394 24.01,571.8194 34.21,581.1894 " fill="none" id="disponible-to-stock_epuise" style="stroke:#181818;stroke-width:1.0;"/><polygon fill="#181818" points="38.14,584.5494,33.8906,575.6644,34.3367,581.3037,28.6974,581.7498,38.14,584.5494" style="stroke:#181818;stroke-width:1.0;"/><text fill="#000000" font-family="sans-serif" font-size="13" lengthAdjust="spacing" textLength="95" x="25.21" y="563.1045">quantit&#233; &#233;coul&#233;e</text></g><!--link stock_epuise to disponible--><g id="link_stock_epuise_disponible"><path d="M111.18,584.3794 C119.87,573.8894 126.04,561.1494 121.21,548.6094 C119.35,543.7894 116.66,539.1794 113.55,534.8994 " fill="none" id="stock_epuise-to-disponible" style="stroke:#181818;stroke-width:1.0;"/><polygon fill="#181818" points="110.32,530.7294,112.6952,540.2875,113.3927,534.6738,119.0064,535.3713,110.32,530.7294" style="stroke:#181818;stroke-width:1.0;"/><text fill="#000000" font-family="sans-serif" font-size="13" lengthAdjust="spacing" textLength="118" x="123.21" y="563.1045">r&#233;approvisionnement</text></g><!--link *start* to en_attente--><g id="link_*start*_en_attente"><path d="M333,26.08 C333,41.75 333,74.47 333,98.64 " fill="none" id="*start*-to-en_attente" style="stroke:#181818;stroke-width:1.0;"/><polygon fill="#181818" points="333,103.65,337,94.65,333,98.65,329,94.65,333,103.65" style="stroke:#181818;stroke-width:1.0;"/><text fill="#000000" font-family="sans-serif" font-size="13" lengthAdjust="spacing" textLength="173" x="334" y="70.4951">le fournisseur publie l'annonce</text></g><!--link en_attente to visible--><g id="link_en_attente_visible"><path d="M299.31,154.19 C261.69,181.21 201.11,224.72 163.25,251.9 " fill="none" id="en_attente-to-visible" style="stroke:#181818;stroke-width:1.0;"/><polygon fill="#181818" points="158.75,255.13,168.3933,253.1281,162.8109,252.213,163.7261,246.6307,158.75,255.13" style="stroke:#181818;stroke-width:1.0;"/><text fill="#000000" font-family="sans-serif" font-size="13" lengthAdjust="spacing" textLength="142" x="257" y="206.4951">l'administrateur approuve</text></g><!--link en_attente to rejetee--><g id="link_en_attente_rejetee"><path d="M366.69,154.19 C403.7,180.77 462.93,223.31 500.88,250.56 " fill="none" id="en_attente-to-rejetee" style="stroke:#181818;stroke-width:1.0;"/><polygon fill="#181818" points="504.95,253.48,499.9795,244.9774,500.891,250.5604,495.308,251.4719,504.95,253.48" style="stroke:#181818;stroke-width:1.0;"/><text fill="#000000" font-family="sans-serif" font-size="13" lengthAdjust="spacing" textLength="163" x="454" y="198.4951">l'administrateur d&#233;sapprouve</text><text fill="#000000" font-family="sans-serif" font-size="13" lengthAdjust="spacing" textLength="96" x="487.5" y="214.8467">(motif renseign&#233;)</text></g><!--link visible to *end*--><g id="link_visible_*end*"><path d="M158.6,298.36 C164.22,301.57 170.17,304.62 176,307 C230.09,329.09 254.41,306.09 304,337 C373.41,380.26 424.96,468.41 442.48,501.27 " fill="none" id="visible-to-*end*" style="stroke:#181818;stroke-width:1.0;"/><polygon fill="#181818" points="444.82,505.71,444.1719,495.8825,442.493,501.2845,437.091,499.6056,444.82,505.71" style="stroke:#181818;stroke-width:1.0;"/></g><!--link rejetee to *end*--><g id="link_rejetee_*end*"><path d="M527.91,302.82 C509.51,352.08 468.34,462.23 454.03,500.55 " fill="none" id="rejetee-to-*end*" style="stroke:#181818;stroke-width:1.0;"/><polygon fill="#181818" points="452.26,505.27,459.1654,498.2475,454.0156,500.5884,451.6748,495.4385,452.26,505.27" style="stroke:#181818;stroke-width:1.0;"/></g><!--link visible to ETAT--><g id="link_visible_ETAT"><path d="M129,302.82 C129,321.87 129,350.03 129,379.62 " fill="none" id="visible-to-ETAT" style="stroke:#181818;stroke-width:1.0;"/><polygon fill="#181818" points="129,384.77,133,375.77,129,379.77,125,375.77,129,384.77" style="stroke:#181818;stroke-width:1.0;"/><text fill="#000000" font-family="sans-serif" font-size="13" lengthAdjust="spacing" textLength="165" x="130" y="351.4951">d&#232;s que l'annonce est visible</text></g><!--SRC=[hLDBRjj03DtFAGXjb1Ir3-15WI3n8XjtawwQ8XXBj3Efn57d8oGe2lGGFKI57g6xw2OzIScn9h6CBhiJHRx7nqTE2LT6xvrkMuIw78UW0xIQlaHD0LPGFLKD9n1w8_b821URpVlDvLgLSDRQUXoS3iOIwBerP7pW4AE3Fzz_W24EOoLflmoFuIruJ15SNo-svqfzVFC95ejtW7IdGq0Ao2svtyv6nrnUYBguRRXtKseYInKgTLGjuDvuisqIiZmHeRlEsTZZASJX0mRy9uG7yXbsIpnXC3kk9uzcJ-F0edC_8U81L2RBiVBi8HxFf3qKo0uTmc8go3oIdRvpAbDAQlekb28hARE_3s1t6Qu0Fl1II7IQwh0Az87Rz_Pf79WZpknSCU3v5_GsECuTB4s0QMY1O4WsMDTguxa-A_MCNpVONreYNYGy_sPZQ-cD9-8cqVz5d0Q-od4uS0geOmJiT0pfC9VBvKp8P65nPNndoMnDOmHTMRvmLndDSvmXbvmNOk_wvk86ldBRV8hr14lElWOfvuEjFjzX5usNsqbl996FGsLZmzeOCokQCpB6ZKCoMYmL5rk-Y0GIpKULildNi7WfcR5BKVh10kJFE1Jgs-m-qtWhtkPFptAFNb5QmrJv5m00]--></g></svg>