<?xml version="1.0" encoding="us-ascii" standalone="no"?><svg xmlns="http://www.w3.org/2000/svg" xmlns:xlink="http://www.w3.org/1999/xlink" contentStyleType="text/css" height="1327.5px" preserveAspectRatio="none" style="width:892px;height:1327px;background:#FFFFFF;" version="1.1" viewBox="0 0 892 1327" width="892.5px" zoomAndPan="magnify"><defs/><g><text fill="#17324D" font-family="sans-serif" font-size="37.5" font-weight="bold" lengthAdjust="spacing" textLength="483.75" x="191.9531" y="57.6782">Cycle de vie d'une livraison</text><ellipse cx="545.625" cy="116.543" fill="#181818" rx="18.75" ry="18.75" style="stroke:none;stroke-width:1.875;"/><g id="EnAttente"><rect fill="#EDF7F1" height="93.75" rx="11.25" ry="11.25" style="stroke:#2F7D5B;stroke-width:0.9375;" width="159.375" x="465.9375" y="247.793"/><line style="stroke:#2F7D5B;stroke-width:0.9375;" x1="465.9375" x2="625.3125" y1="299.5605" y2="299.5605"/><text fill="#17324D" font-family="sans-serif" font-size="26.25" lengthAdjust="spacing" textLength="121.875" x="484.6875" y="284.4177">En attente</text></g><g id="PriseEnCharge"><rect fill="#EDF7F1" height="93.75" rx="11.25" ry="11.25" style="stroke:#2F7D5B;stroke-width:0.9375;" width="225" x="328.125" y="454.043"/><line style="stroke:#2F7D5B;stroke-width:0.9375;" x1="328.125" x2="553.125" y1="505.8105" y2="505.8105"/><text fill="#17324D" font-family="sans-serif" font-size="26.25" lengthAdjust="spacing" textLength="187.5" x="346.875" y="490.6677">Prise en charge</text></g><g id="NonAssignee"><rect fill="#EDF7F1" height="93.75" rx="11.25" ry="11.25" style="stroke:#2F7D5B;stroke-width:0.9375;" width="198.75" x="566.25" y="660.293"/><line style="stroke:#2F7D5B;stroke-width:0.9375;" x1="566.25" x2="765" y1="712.0605" y2="712.0605"/><text fill="#17324D" font-family="sans-serif" font-size="26.25" lengthAdjust="spacing" textLength="161.25" x="585" y="696.9177">Non assign&#233;e</text></g><g id="EnCours"><rect fill="#EDF7F1" height="93.75" rx="11.25" ry="11.25" style="stroke:#2F7D5B;stroke-width:0.9375;" width="142.5" x="358.125" y="660.293"/><line style="stroke:#2F7D5B;stroke-width:0.9375;" x1="358.125" x2="500.625" y1="712.0605" y2="712.0605"/><text fill="#17324D" font-family="sans-serif" font-size="26.25" lengthAdjust="spacing" textLength="105" x="376.875" y="696.9177">En cours</text></g><g id="AConfirmer"><rect fill="#EDF7F1" height="93.75" rx="11.25" ry="11.25" style="stroke:#2F7D5B;stroke-width:0.9375;" width="172.5" x="343.125" y="866.543"/><line style="stroke:#2F7D5B;stroke-width:0.9375;" x1="343.125" x2="515.625" y1="918.3105" y2="918.3105"/><text fill="#17324D" font-family="sans-serif" font-size="26.25" lengthAdjust="spacing" textLength="135" x="361.875" y="903.1677">&#192; confirmer</text></g><g id="Terminee"><rect fill="#EDF7F1" height="93.75" rx="11.25" ry="11.25" style="stroke:#2F7D5B;stroke-width:0.9375;" width="150" x="121.875" y="1072.793"/><line style="stroke:#2F7D5B;stroke-width:0.9375;" x1="121.875" x2="271.875" y1="1124.5605" y2="1124.5605"/><text fill="#17324D" font-family="sans-serif" font-size="26.25" lengthAdjust="spacing" textLength="112.5" x="140.625" y="1109.4177">Termin&#233;e</text></g><g id="Incident"><rect fill="#EDF7F1" height="93.75" rx="11.25" ry="11.25" style="stroke:#2F7D5B;stroke-width:0.9375;" width="228.75" x="337.5" y="1072.793"/><line style="stroke:#2F7D5B;stroke-width:0.9375;" x1="337.5" x2="566.25" y1="1124.5605" y2="1124.5605"/><text fill="#17324D" font-family="sans-serif" font-size="26.25" lengthAdjust="spacing" textLength="191.25" x="356.25" y="1109.4177">Incident &#224; traiter</text></g><ellipse cx="451.875" cy="1297.793" fill="none" rx="18.75" ry="18.75" style="stroke:#181818;stroke-width:1.875;"/><ellipse cx="452.8125" cy="1298.7305" fill="#181818" rx="11.25" ry="11.25" style="stroke:none;stroke-width:1.875;"/><!--link *start* to EnAttente--><g id="link_*start*_EnAttente"><path d="M545.625,135.6117 C545.625,135.6117 545.625,237.6867 545.625,237.6867 " fill="none" id="*start*-to-EnAttente" style="stroke:#456A7D;stroke-width:2.625;"/><polygon fill="#456A7D" points="545.625,247.0617,553.125,230.1867,545.625,237.6867,538.125,230.1867,545.625,247.0617" style="stroke:#456A7D;stroke-width:2.625;"/><text fill="#29485B" font-family="sans-serif" font-size="26.25" lengthAdjust="spacing" textLength="221.25" x="322.5" y="180.149">commande valid&#233;e</text></g><!--link EnAttente to PriseEnCharge--><g id="link_EnAttente_PriseEnCharge"><path d="M509.5313,341.993 C509.5313,341.993 509.5313,444.443 509.5313,444.443 " fill="none" id="EnAttente-to-PriseEnCharge" style="stroke:#456A7D;stroke-width:2.625;"/><polygon fill="#456A7D" points="509.5313,453.818,517.0313,436.943,509.5313,444.443,502.0313,436.943,509.5313,453.818" style="stroke:#456A7D;stroke-width:2.625;"/><text fill="#29485B" font-family="sans-serif" font-size="26.25" lengthAdjust="spacing" textLength="174.375" x="333.2813" y="386.7177">livreur accepte</text></g><!--link EnAttente to NonAssignee--><g id="link_EnAttente_NonAssignee"><path d="M595.7813,341.993 C595.7813,341.993 595.7813,650.393 595.7813,650.393 " fill="none" id="EnAttente-to-NonAssignee" style="stroke:#456A7D;stroke-width:2.625;"/><polygon fill="#456A7D" points="595.7813,659.768,603.2813,642.893,595.7813,650.393,588.2813,642.893,595.7813,659.768" style="stroke:#456A7D;stroke-width:2.625;"/><text fill="#29485B" font-family="sans-serif" font-size="26.25" lengthAdjust="spacing" textLength="281.25" x="597.6563" y="489.6927">aucun livreur disponible</text></g><!--link PriseEnCharge to EnCours--><g id="link_PriseEnCharge_EnCours"><path d="M429.375,548.243 C429.375,548.243 429.375,650.693 429.375,650.693 " fill="none" id="PriseEnCharge-to-EnCours" style="stroke:#456A7D;stroke-width:2.625;"/><polygon fill="#456A7D" points="429.375,660.068,436.875,643.193,429.375,650.693,421.875,643.193,429.375,660.068" style="stroke:#456A7D;stroke-width:2.625;"/><text fill="#29485B" font-family="sans-serif" font-size="26.25" lengthAdjust="spacing" textLength="195" x="232.5" y="592.9677">d&#233;part du livreur</text></g><!--link EnCours to AConfirmer--><g id="link_EnCours_AConfirmer"><path d="M429.375,754.493 C429.375,754.493 429.375,856.943 429.375,856.943 " fill="none" id="EnCours-to-AConfirmer" style="stroke:#456A7D;stroke-width:2.625;"/><polygon fill="#456A7D" points="429.375,866.318,436.875,849.443,429.375,856.943,421.875,849.443,429.375,866.318" style="stroke:#456A7D;stroke-width:2.625;"/><text fill="#29485B" font-family="sans-serif" font-size="26.25" lengthAdjust="spacing" textLength="215.625" x="211.875" y="799.2177">commande remise</text></g><!--link AConfirmer to Terminee--><g id="link_AConfirmer_Terminee"><path d="M342.8063,913.418 C276.6937,913.418 196.875,913.418 196.875,913.418 C196.875,913.418 196.875,1062.968 196.875,1062.968 " fill="none" id="AConfirmer-to-Terminee" style="stroke:#456A7D;stroke-width:2.625;"/><polygon fill="#456A7D" points="196.875,1072.343,204.375,1055.468,196.875,1062.968,189.375,1055.468,196.875,1072.343" style="stroke:#456A7D;stroke-width:2.625;"/><text fill="#29485B" font-family="sans-serif" font-size="26.25" lengthAdjust="spacing" textLength="181.875" x="13.125" y="908.7365">QR code valid&#233;</text></g><!--link AConfirmer to Incident--><g id="link_AConfirmer_Incident"><path d="M429.375,960.743 C429.375,960.743 429.375,1063.193 429.375,1063.193 " fill="none" id="AConfirmer-to-Incident" style="stroke:#456A7D;stroke-width:2.625;"/><polygon fill="#456A7D" points="429.375,1072.568,436.875,1055.693,429.375,1063.193,421.875,1055.693,429.375,1072.568" style="stroke:#456A7D;stroke-width:2.625;"/><text fill="#29485B" font-family="sans-serif" font-size="26.25" lengthAdjust="spacing" textLength="202.5" x="225" y="1005.4677">QR code invalide</text></g><!--link Terminee to *end*--><g id="link_Terminee_*end*"><path d="M196.875,1167.4055 C196.875,1220.168 196.875,1297.793 196.875,1297.793 C196.875,1297.793 423.3375,1297.793 423.3375,1297.793 " fill="none" id="Terminee-to-*end*" style="stroke:#456A7D;stroke-width:2.625;"/><polygon fill="#456A7D" points="432.7125,1297.793,415.8375,1290.293,423.3375,1297.793,415.8375,1305.293,432.7125,1297.793" style="stroke:#456A7D;stroke-width:2.625;"/></g><!--link NonAssignee to *end*--><g id="link_NonAssignee_*end*"><path d="M665.625,754.5117 C665.625,894.6492 665.625,1297.793 665.625,1297.793 C665.625,1297.793 480.225,1297.793 480.225,1297.793 " fill="none" id="NonAssignee-to-*end*" style="stroke:#456A7D;stroke-width:2.625;"/><polygon fill="#456A7D" points="470.85,1297.793,487.725,1305.293,480.225,1297.793,487.725,1290.293,470.85,1297.793" style="stroke:#456A7D;stroke-width:2.625;"/></g><!--link Incident to *end*--><g id="link_Incident_*end*"><path d="M451.875,1167.4055 C451.875,1167.4055 451.875,1268.8055 451.875,1268.8055 " fill="none" id="Incident-to-*end*" style="stroke:#456A7D;stroke-width:2.625;"/><polygon fill="#456A7D" points="451.875,1278.1805,459.375,1261.3055,451.875,1268.8055,444.375,1261.3055,451.875,1278.1805" style="stroke:#456A7D;stroke-width:2.625;"/></g><!--SRC=[ZPRTRjem5CVlynH7tKMbIQq8X2NqObA0f9iq8JQwtKoxS9C3M4riPZjqxAeFiGVOxPwZRx8dcPqFQY1DXmJ8v_yxdtOmvx1GkmmXuNbUCFZxy0jIIbQ2v3bAY3BSJZXZc2Zd71PVhk4AbbpaHC5MsxYWc0531O-_GV528IX2immlOJupBFxOSA5WJOoKFlvPKaOLvUpIaNUKROXE0xSakLi9Nh1qmZCku5LSlYmYtL1mWvvbaMkIydlALh0acKHBAGCbN30KuFOj8QEwpjq6GHUqvdPqN98YKp5dQaPoX0LXSe62BjkP1Vs9u7gMU4DLXftkUw9qxlVQfBfvrn_qlQa5X4Bm-rhqXcz2_qIqlFiZBnYEZu6RDKtk64e9xgLT-8mh7BTCFuY2OugB54LDHCCmyeP7X5N4SEm5RcJfSvs3h0w3ZCAn7_ejq4azNXp6Rqv1UsQnJZbeHwhJVSkpr9vAekYMgjrfibuSn8Csqgwz7_lJmodNLES-rioKafopj6tkWsdGuM1NC0r6mtxSsj6pHKuo8kNunOUjmZhRBP5tI3Ho4Y_oua4K7iDTWucOQjsAuy9ghhEoYkdAjb2avT17qzYFtHEiCrU9TANwB34XiYLPgCzqq0BQwGQHxurwfr1dR_YzG9RW1xhKRtRqm4t6tiJjeb_SWSPZJeIY2TqGfbvkhisfiz768JJto_yNLU7TErQZrphWvZIo7u_ZwRDuoomTPNwyOR9Bz6UAiANwwxnWg2-RhI1KSWQEy_NrDxYuUAlFPgWKCdqHNfMtBM76XMHKtuleFAc6dGigCMAJDH4hmvjuM0WWIO8RTKpFE0kbf2k6XYL5eY_onYEbSiCPlStGEGnQbJJXXP3QITUWcrQG5esdquW63FMVW2KLkRvKhU85vZgYOuc6lK6HqwgKZvyq_DJbCVcU9JJLNLWaPIMBpZwA0VK87Rl9nhOFq1WSQHvAQzH4mbd4W5JBire_d8HXIWiWWwIqdUq3LJEemoHcqMXMCqP-VD1oRMYGVHC6g1PwhnlLxiW0Ugs_ZS62zYqQOhymVxVq0LCwrJy0]--></g></svg>