<?plantuml 1.2026.1?><svg xmlns="http://www.w3.org/2000/svg" xmlns:xlink="http://www.w3.org/1999/xlink" contentStyleType="text/css" data-diagram-type="STATE" height="718.125px" preserveAspectRatio="none" style="width:988px;height:718px;background:#FFFFFF;" version="1.1" viewBox="0 0 988 718" width="988.125px" zoomAndPan="magnify"><title>Cycle de vie d'une annonce &#8212; vue simplifi&#233;e</title><defs/><g><g class="title" data-source-line="3"><text fill="#17324D" font-family="sans-serif" font-size="37.5" font-weight="bold" lengthAdjust="spacing" textLength="935.7605" x="18.75" y="53.5583">Cycle de vie d'une annonce &#8212; vue simplifi&#233;e</text></g><g><rect fill="#EDF7F1" height="98.6133" rx="11.25" ry="11.25" style="stroke:#2F7D5B;stroke-width:0.9375;" width="230.2606" x="236.6293" y="244.2773"/><line style="stroke:#2F7D5B;stroke-width:0.9375;" x1="236.6293" x2="466.8899" y1="324.1406" y2="324.1406"/><text fill="#17324D" font-family="sans-serif" font-size="26.25" lengthAdjust="spacing" textLength="137.4664" x="255.3793" y="278.0182">En attente</text><text fill="#17324D" font-family="sans-serif" font-size="26.25" lengthAdjust="spacing" textLength="192.7606" x="255.3793" y="308.5748">de mod&#233;ration</text></g><g><rect fill="#EDF7F1" height="98.6133" rx="11.25" ry="11.25" style="stroke:#2F7D5B;stroke-width:0.9375;" width="270.3918" x="81.5668" y="455.4023"/><line style="stroke:#2F7D5B;stroke-width:0.9375;" x1="81.5668" x2="351.9587" y1="535.2656" y2="535.2656"/><text fill="#17324D" font-family="sans-serif" font-size="26.25" lengthAdjust="spacing" textLength="86.3251" x="100.3168" y="489.1432">Visible</text><text fill="#17324D" font-family="sans-serif" font-size="26.25" lengthAdjust="spacing" textLength="232.8918" x="100.3168" y="519.6998">dans le catalogue</text></g><g><rect fill="#EDF7F1" height="93.75" rx="11.25" ry="11.25" style="stroke:#2F7D5B;stroke-width:0.9375;" width="137.9242" x="417.8106" y="457.8211"/><line style="stroke:#2F7D5B;stroke-width:0.9375;" x1="417.8106" x2="555.7348" y1="507.1277" y2="507.1277"/><text fill="#17324D" font-family="sans-serif" font-size="26.25" lengthAdjust="spacing" textLength="100.4242" x="436.5606" y="491.5619">Rejet&#233;e</text></g><ellipse cx="351.7731" cy="113.0273" fill="#222222" rx="18.75" ry="18.75" style="stroke:#222222;stroke-width:1.875;"/><ellipse cx="351.7731" cy="687.1336" fill="none" rx="20.625" ry="20.625" style="stroke:#222222;stroke-width:1.875;"/><ellipse cx="351.7731" cy="687.1336" fill="#222222" rx="11.25" ry="11.25" style="stroke:#222222;stroke-width:1.875;"/><g class="entity" data-qualified-name="GMN2" data-source-line="16" id="ent0003"><path d="M533.0856,264.9023 L533.0856,285.8836 L467.5168,293.3836 L533.0856,300.8836 L533.0856,322.2656 A11.25,11.25 0 0 0 544.3356,333.5156 L920.4562,333.5156 A11.25,11.25 0 0 0 931.7062,322.2656 L931.7062,272.4023 L912.9562,253.6523 L544.3356,253.6523 A11.25,11.25 0 0 0 533.0856,264.9023" fill="#FFF8E8" style="stroke:#E5AE45;stroke-width:0.9375;"/><path d="M912.9562,253.6523 L912.9562,266.7773 A5.625,5.625 0 0 0 918.5812,272.4023 L931.7062,272.4023 L912.9562,253.6523" fill="#FFF8E8" style="stroke:#E5AE45;stroke-width:0.9375;"/><text fill="#5B481E" font-family="sans-serif" font-size="26.25" lengthAdjust="spacing" textLength="332.1625" x="544.3356" y="287.3932">L'administrateur contr&#244;le</text><text fill="#5B481E" font-family="sans-serif" font-size="26.25" lengthAdjust="spacing" textLength="359.2456" x="544.3356" y="317.9498">la conformit&#233; de l'annonce.</text></g><!--link *start* to EnAttente--><g class="link" data-entity-1="ent0002" data-entity-2="ent0002" data-link-type="dependency" data-source-line="5" id="lnk3"><path d="M351.7731,132.3586 C351.7731,158.7398 351.7731,195.7148 351.7731,232.5586" fill="none" id="*start*-to-EnAttente" style="stroke:#456A7D;stroke-width:2.625;"/><polygon fill="#456A7D" points="351.7731,243.8086,359.2731,226.9336,351.7731,234.4336,344.2731,226.9336,351.7731,243.8086" style="stroke:#456A7D;stroke-width:2.625;"/><text fill="#29485B" font-family="sans-serif" font-size="26.25" lengthAdjust="spacing" textLength="146.5796" x="203.6481" y="180.5744">soumission</text></g><!--link EnAttente to Visible--><g class="link" data-entity-1="ent0002" data-entity-2="ent0003" data-link-type="dependency" data-source-line="6" id="lnk4"><path d="M294.3043,343.6148 C294.3043,377.2711 294.3043,410.1961 294.3043,443.7773" fill="none" id="EnAttente-to-Visible" style="stroke:#456A7D;stroke-width:2.625;"/><polygon fill="#456A7D" points="294.3043,455.0273,301.8043,438.1523,294.3043,445.6523,286.8043,438.1523,294.3043,455.0273" style="stroke:#456A7D;stroke-width:2.625;"/><text fill="#29485B" font-family="sans-serif" font-size="26.25" lengthAdjust="spacing" textLength="159.2944" x="134.9293" y="391.8119">approbation</text></g><!--link EnAttente to Rejetee--><g class="link" data-entity-1="ent0002" data-entity-2="ent0004" data-link-type="dependency" data-source-line="7" id="lnk5"><path d="M442.3543,343.6148 C442.3543,378.0023 442.3543,412.1273 442.3543,445.9523" fill="none" id="EnAttente-to-Rejetee" style="stroke:#456A7D;stroke-width:2.625;"/><polygon fill="#456A7D" points="442.3543,457.2023,449.8543,440.3273,442.3543,447.8273,434.8543,440.3273,442.3543,457.2023" style="stroke:#456A7D;stroke-width:2.625;"/><text fill="#29485B" font-family="sans-serif" font-size="26.25" lengthAdjust="spacing" textLength="167.818" x="273.6043" y="426.6494">rejet + motif</text></g><!--link Visible to *end*--><g class="link" data-entity-1="ent0003" data-entity-2="ent0006" data-link-type="dependency" data-source-line="8" id="lnk7"><path d="M341.5543,554.5523 C341.5543,592.1086 341.5543,630.2836 341.5543,656.9273" fill="none" id="Visible-to-*end*" style="stroke:#456A7D;stroke-width:2.625;"/><polygon fill="#456A7D" points="341.5543,668.1773,349.0543,651.3023,341.5543,658.8023,334.0543,651.3023,341.5543,668.1773" style="stroke:#456A7D;stroke-width:2.625;"/><text fill="#29485B" font-family="sans-serif" font-size="26.25" lengthAdjust="spacing" textLength="272.7283" x="67.8043" y="603.8557">publication termin&#233;e</text></g><!--link Rejetee to *end*--><g class="link" data-entity-1="ent0004" data-entity-2="ent0006" data-link-type="dependency" data-source-line="9" id="lnk8"><path d="M417.1918,505.2586 C388.6543,505.2586 362.1793,505.2586 362.1793,505.2586 C362.1793,505.2586 362.1793,610.6336 362.1793,657.0961" fill="none" id="Rejetee-to-*end*" style="stroke:#456A7D;stroke-width:2.625;"/><polygon fill="#456A7D" points="362.1793,668.3461,369.6793,651.4711,362.1793,658.9711,354.6793,651.4711,362.1793,668.3461" style="stroke:#456A7D;stroke-width:2.625;"/></g><?plantuml-src PP6nJWCn38RtF8MvfHAeVO0EI0XrOs9W0OHoTxvYb3YdnAdKZOVW9Rhp1lScF0bskLC7biInl_o_BLyHTw7s23tvVVRnhSWnu8Pg3Cu9IK2uFtPwAd8WlLQL4JnpuWxXv_CB3XMXK1m33JITqBddwrTOhszXntSYo8AmXP9gf58eiRka3NgYGcqmn8zZJgsN_ymZVg2WCTaYk86OX0Qt_3N6JBSmrZPGTzO0mHo9hQFb_ymvLyIhzCN45sXs3Fxl-S8wQqpzTCfdfMRc5pkZvrXHpmKqgQO-f7t5XLvCZJx7sadZ72UjPTg_2wJXqe83U5ZvNXkc8cgBDKENMFBq7QmOl3s7f2Efa2qZhEObR1no3wRx2m00?></g></svg>