<?xml version="1.0" encoding="us-ascii" standalone="no"?><svg xmlns="http://www.w3.org/2000/svg" xmlns:xlink="http://www.w3.org/1999/xlink" contentStyleType="text/css" height="1740px" preserveAspectRatio="none" style="width:796px;height:1740px;background:#FFFFFF;" version="1.1" viewBox="0 0 796 1740" width="796.875px" zoomAndPan="magnify"><defs/><g><text fill="#17324D" font-family="sans-serif" font-size="37.5" font-weight="bold" lengthAdjust="spacing" textLength="526.875" x="122.1094" y="57.6782">Cycle de vie d'une commande</text><ellipse cx="592.5" cy="116.543" fill="#181818" rx="18.75" ry="18.75" style="stroke:none;stroke-width:1.875;"/><g id="EnAttente"><rect fill="#EDF7F1" height="93.75" rx="11.25" ry="11.25" style="stroke:#2F7D5B;stroke-width:0.9375;" width="159.375" x="512.8125" y="247.793"/><line style="stroke:#2F7D5B;stroke-width:0.9375;" x1="512.8125" x2="672.1875" y1="299.5605" y2="299.5605"/><text fill="#17324D" font-family="sans-serif" font-size="26.25" lengthAdjust="spacing" textLength="121.875" x="531.5625" y="284.4177">En attente</text></g><g id="Payee"><rect fill="#EDF7F1" height="93.75" rx="11.25" ry="11.25" style="stroke:#2F7D5B;stroke-width:0.9375;" width="112.5" x="459.375" y="454.043"/><line style="stroke:#2F7D5B;stroke-width:0.9375;" x1="459.375" x2="571.875" y1="505.8105" y2="505.8105"/><text fill="#17324D" font-family="sans-serif" font-size="26.25" lengthAdjust="spacing" textLength="75" x="478.125" y="490.6677">Pay&#233;e</text></g><g id="Annulee"><rect fill="#EDF7F1" height="93.75" rx="11.25" ry="11.25" style="stroke:#2F7D5B;stroke-width:0.9375;" width="135" x="641.25" y="660.293"/><line style="stroke:#2F7D5B;stroke-width:0.9375;" x1="641.25" x2="776.25" y1="712.0605" y2="712.0605"/><text fill="#17324D" font-family="sans-serif" font-size="26.25" lengthAdjust="spacing" textLength="97.5" x="660" y="696.9177">Annul&#233;e</text></g><g id="Traitement"><rect fill="#EDF7F1" height="93.75" rx="11.25" ry="11.25" style="stroke:#2F7D5B;stroke-width:0.9375;" width="195" x="380.625" y="660.293"/><line style="stroke:#2F7D5B;stroke-width:0.9375;" x1="380.625" x2="575.625" y1="712.0605" y2="712.0605"/><text fill="#17324D" font-family="sans-serif" font-size="26.25" lengthAdjust="spacing" textLength="157.5" x="399.375" y="696.9177">En traitement</text></g><g id="Validee"><rect fill="#EDF7F1" height="93.75" rx="11.25" ry="11.25" style="stroke:#2F7D5B;stroke-width:0.9375;" width="125.625" x="308.4375" y="866.543"/><line style="stroke:#2F7D5B;stroke-width:0.9375;" x1="308.4375" x2="434.0625" y1="918.3105" y2="918.3105"/><text fill="#17324D" font-family="sans-serif" font-size="26.25" lengthAdjust="spacing" textLength="88.125" x="327.1875" y="903.1677">Valid&#233;e</text></g><g id="Refusee"><rect fill="#EDF7F1" height="93.75" rx="11.25" ry="11.25" style="stroke:#2F7D5B;stroke-width:0.9375;" width="136.875" x="471.5625" y="1072.793"/><line style="stroke:#2F7D5B;stroke-width:0.9375;" x1="471.5625" x2="608.4375" y1="1124.5605" y2="1124.5605"/><text fill="#17324D" font-family="sans-serif" font-size="26.25" lengthAdjust="spacing" textLength="99.375" x="490.3125" y="1109.4177">Refus&#233;e</text></g><g id="EnLivraison"><rect fill="#EDF7F1" height="93.75" rx="11.25" ry="11.25" style="stroke:#2F7D5B;stroke-width:0.9375;" width="174.375" x="96.5625" y="1072.793"/><line style="stroke:#2F7D5B;stroke-width:0.9375;" x1="96.5625" x2="270.9375" y1="1124.5605" y2="1124.5605"/><text fill="#17324D" font-family="sans-serif" font-size="26.25" lengthAdjust="spacing" textLength="136.875" x="115.3125" y="1109.4177">En livraison</text></g><g id="Confirmee"><rect fill="#EDF7F1" height="93.75" rx="11.25" ry="11.25" style="stroke:#2F7D5B;stroke-width:0.9375;" width="159.375" x="285.9375" y="1485.293"/><line style="stroke:#2F7D5B;stroke-width:0.9375;" x1="285.9375" x2="445.3125" y1="1537.0605" y2="1537.0605"/><text fill="#17324D" font-family="sans-serif" font-size="26.25" lengthAdjust="spacing" textLength="121.875" x="304.6875" y="1521.9177">Confirm&#233;e</text></g><g id="Livree"><rect fill="#EDF7F1" height="93.75" rx="11.25" ry="11.25" style="stroke:#2F7D5B;stroke-width:0.9375;" width="110.625" x="145.3125" y="1279.043"/><line style="stroke:#2F7D5B;stroke-width:0.9375;" x1="145.3125" x2="255.9375" y1="1330.8105" y2="1330.8105"/><text fill="#17324D" font-family="sans-serif" font-size="26.25" lengthAdjust="spacing" textLength="73.125" x="164.0625" y="1315.6677">Livr&#233;e</text></g><ellipse cx="545.625" cy="1710.293" fill="none" rx="18.75" ry="18.75" style="stroke:#181818;stroke-width:1.875;"/><ellipse cx="546.5625" cy="1711.2305" fill="#181818" rx="11.25" ry="11.25" style="stroke:none;stroke-width:1.875;"/><!--link *start* to EnAttente--><g id="link_*start*_EnAttente"><path d="M592.5,135.6117 C592.5,135.6117 592.5,237.6867 592.5,237.6867 " fill="none" id="*start*-to-EnAttente" style="stroke:#456A7D;stroke-width:2.625;"/><polygon fill="#456A7D" points="592.5,247.0617,600,230.1867,592.5,237.6867,585,230.1867,592.5,247.0617" style="stroke:#456A7D;stroke-width:2.625;"/><text fill="#29485B" font-family="sans-serif" font-size="26.25" lengthAdjust="spacing" textLength="95.625" x="495" y="180.149">cr&#233;ation</text></g><!--link EnAttente to Payee--><g id="link_EnAttente_Payee"><path d="M542.3438,341.993 C542.3438,341.993 542.3438,444.443 542.3438,444.443 " fill="none" id="EnAttente-to-Payee" style="stroke:#456A7D;stroke-width:2.625;"/><polygon fill="#456A7D" points="542.3438,453.818,549.8438,436.943,542.3438,444.443,534.8438,436.943,542.3438,453.818" style="stroke:#456A7D;stroke-width:2.625;"/><text fill="#29485B" font-family="sans-serif" font-size="26.25" lengthAdjust="spacing" textLength="210" x="330.4688" y="386.7177">paiement accept&#233;</text></g><!--link EnAttente to Annulee--><g id="link_EnAttente_Annulee"><path d="M656.7188,341.993 C656.7188,341.993 656.7188,650.393 656.7188,650.393 " fill="none" id="EnAttente-to-Annulee" style="stroke:#456A7D;stroke-width:2.625;"/><polygon fill="#456A7D" points="656.7188,659.768,664.2188,642.893,656.7188,650.393,649.2188,642.893,656.7188,659.768" style="stroke:#456A7D;stroke-width:2.625;"/><text fill="#29485B" font-family="sans-serif" font-size="26.25" lengthAdjust="spacing" textLength="123.75" x="658.5938" y="489.6927">annulation</text></g><!--link Payee to Traitement--><g id="link_Payee_Traitement"><path d="M515.625,548.243 C515.625,548.243 515.625,650.693 515.625,650.693 " fill="none" id="Payee-to-Traitement" style="stroke:#456A7D;stroke-width:2.625;"/><polygon fill="#456A7D" points="515.625,660.068,523.125,643.193,515.625,650.693,508.125,643.193,515.625,660.068" style="stroke:#456A7D;stroke-width:2.625;"/><text fill="#29485B" font-family="sans-serif" font-size="26.25" lengthAdjust="spacing" textLength="268.125" x="245.625" y="592.9677">notification fournisseur</text></g><!--link Traitement to Validee--><g id="link_Traitement_Validee"><path d="M407.3438,754.493 C407.3438,754.493 407.3438,856.943 407.3438,856.943 " fill="none" id="Traitement-to-Validee" style="stroke:#456A7D;stroke-width:2.625;"/><polygon fill="#456A7D" points="407.3438,866.318,414.8438,849.443,407.3438,856.943,399.8438,849.443,407.3438,866.318" style="stroke:#456A7D;stroke-width:2.625;"/><text fill="#29485B" font-family="sans-serif" font-size="26.25" lengthAdjust="spacing" textLength="245.625" x="159.8438" y="799.2177">commande accept&#233;e</text></g><!--link Traitement to Refusee--><g id="link_Traitement_Refusee"><path d="M523.5938,754.493 C523.5938,754.493 523.5938,1062.893 523.5938,1062.893 " fill="none" id="Traitement-to-Refusee" style="stroke:#456A7D;stroke-width:2.625;"/><polygon fill="#456A7D" points="523.5938,1072.268,531.0938,1055.393,523.5938,1062.893,516.0938,1055.393,523.5938,1072.268" style="stroke:#456A7D;stroke-width:2.625;"/><text fill="#29485B" font-family="sans-serif" font-size="26.25" lengthAdjust="spacing" textLength="226.875" x="525.4688" y="902.1927">commande refus&#233;e</text></g><!--link Validee to EnLivraison--><g id="link_Validee_EnLivraison"><path d="M350.3063,960.743 C350.3063,1021.6242 350.3063,1119.668 350.3063,1119.668 C350.3063,1119.668 280.8,1119.668 280.8,1119.668 " fill="none" id="Validee-to-EnLivraison" style="stroke:#456A7D;stroke-width:2.625;"/><polygon fill="#456A7D" points="271.425,1119.668,288.3,1127.168,280.8,1119.668,288.3,1112.168,271.425,1119.668" style="stroke:#456A7D;stroke-width:2.625;"/><text fill="#29485B" font-family="sans-serif" font-size="26.25" lengthAdjust="spacing" textLength="187.5" x="352.1813" y="1068.4677">livraison choisie</text></g><!--link Validee to Confirmee--><g id="link_Validee_Confirmee"><path d="M392.1937,960.4242 C392.1937,960.4242 392.1937,1475.843 392.1937,1475.843 " fill="none" id="Validee-to-Confirmee" style="stroke:#456A7D;stroke-width:2.625;"/><polygon fill="#456A7D" points="392.1937,1485.218,399.6937,1468.343,392.1937,1475.843,384.6937,1468.343,392.1937,1485.218" style="stroke:#456A7D;stroke-width:2.625;"/><text fill="#29485B" font-family="sans-serif" font-size="26.25" lengthAdjust="spacing" textLength="251.25" x="139.0688" y="1211.6427">retrait direct confirm&#233;</text></g><!--link EnLivraison to Livree--><g id="link_EnLivraison_Livree"><path d="M200.625,1166.993 C200.625,1166.993 200.625,1269.443 200.625,1269.443 " fill="none" id="EnLivraison-to-Livree" style="stroke:#456A7D;stroke-width:2.625;"/><polygon fill="#456A7D" points="200.625,1278.818,208.125,1261.943,200.625,1269.443,193.125,1261.943,200.625,1278.818" style="stroke:#456A7D;stroke-width:2.625;"/><text fill="#29485B" font-family="sans-serif" font-size="26.25" lengthAdjust="spacing" textLength="185.625" x="13.125" y="1247.3427">remise au client</text></g><!--link Livree to Confirmee--><g id="link_Livree_Confirmee"><path d="M256.2375,1325.918 C277.7063,1325.918 297.1875,1325.918 297.1875,1325.918 C297.1875,1325.918 297.1875,1475.468 297.1875,1475.468 " fill="none" id="Livree-to-Confirmee" style="stroke:#456A7D;stroke-width:2.625;"/><polygon fill="#456A7D" points="297.1875,1484.843,304.6875,1467.968,297.1875,1475.468,289.6875,1467.968,297.1875,1484.843" style="stroke:#456A7D;stroke-width:2.625;"/><text fill="#29485B" font-family="sans-serif" font-size="26.25" lengthAdjust="spacing" textLength="181.875" x="113.4375" y="1409.3427">QR code valid&#233;</text></g><!--link Confirmee to *end*--><g id="link_Confirmee_*end*"><path d="M445.3875,1532.168 C491.0625,1532.168 539.3813,1532.168 539.3813,1532.168 C539.3813,1532.168 539.3813,1683.1805 539.3813,1683.1805 " fill="none" id="Confirmee-to-*end*" style="stroke:#456A7D;stroke-width:2.625;"/><polygon fill="#456A7D" points="539.3813,1692.5555,546.8813,1675.6805,539.3813,1683.1805,531.8813,1675.6805,539.3813,1692.5555" style="stroke:#456A7D;stroke-width:2.625;"/><text fill="#29485B" font-family="sans-serif" font-size="26.25" lengthAdjust="spacing" textLength="136.875" x="541.2563" y="1554.1865">versements</text></g><!--link Annulee to *end*--><g id="link_Annulee_*end*"><path d="M708.75,754.2117 C708.75,952.5305 708.75,1710.293 708.75,1710.293 C708.75,1710.293 574.35,1710.293 574.35,1710.293 " fill="none" id="Annulee-to-*end*" style="stroke:#456A7D;stroke-width:2.625;"/><polygon fill="#456A7D" points="564.975,1710.293,581.85,1717.793,574.35,1710.293,581.85,1702.793,564.975,1710.293" style="stroke:#456A7D;stroke-width:2.625;"/></g><!--link Refusee to *end*--><g id="link_Refusee_*end*"><path d="M551.8688,1167.0117 C551.8688,1167.0117 551.8688,1682.7867 551.8688,1682.7867 " fill="none" id="Refusee-to-*end*" style="stroke:#456A7D;stroke-width:2.625;"/><polygon fill="#456A7D" points="551.8688,1692.1617,559.3688,1675.2867,551.8688,1682.7867,544.3688,1675.2867,551.8688,1692.1617" style="stroke:#456A7D;stroke-width:2.625;"/><text fill="#29485B" font-family="sans-serif" font-size="26.25" lengthAdjust="spacing" textLength="185.625" x="364.3688" y="1418.399">remboursement</text></g><!--SRC=[ZPPDRjiu5CVtEiL3PX6WG8FObcl5Ym5aM-eiYY2DqsoAMJ3IKqn48bsISiTTzH1pWDdc7Bd9d6GUzM4piggCWJWq_x_tmJzfK-UmDliS8P55KGhuz-VVa7Bsg5XHe8OenzrI2e69ySvXVVyHvf19LJ03EvgJYcCE0Wsy_0D6bWR1C9xdU04trvR5lxPI6TWmAwKlpnaNt70fBZpznCMMKHbuOCdJevAbI9Sobmf-YwkNGwHR3gFWqfdH6vRAxrmyGiPoZOvI9Kga4gXWD7Q4d5EV-oq2DRIHRdRCM9cRM0fppGg4DHDwZOfd_SoQ_q0O-OvunqsEW-47eWeUN_P9pU97iydONpb0g9JyteZ-z4CuEn6TwF6L7qmNNU1kmvCdWLh3wC9j_5eQNFIu7qH1bv8gHTKGqJIC_6c7S9gOBlnW53dw3TLWZw-JN8MBMJZhWKxwyUCm_d0Akfx5L7BIZzId-q7cgUjAOlYEc_rfiSiuY2TzfDlxE9wjNhlSK8Fxs30hpWefqZxV9wjW8C3jO1LSJSTnxuf-sUGoPreltloorTZWSYla3sI4dEIB_7WIXLruo9X8cDwjw3RMS8ETrSnGjRLXFOS-MiMpU7I23TQgaA5INpGcJFSK2-bC1psWMsuIpVohorDeS6tuhKIHu2UUqP_eVE6M2tyv6gBVt84sueOfmnE-PSAylRY-eC65jW6XlL_-VrCrFhnZ3VgH4cvFCy_YHRpw9TxZfMViZpSizmczfmWxJl_EIr7VfapGbETzVVSdl7__EntDq1WKT0_E8L4lpypUWzvnrZ8tR8zMtpAE1Sq2InBScfVd3XSAKUOLoUoeJbK7M_bECMxg17CGql2C9nL3TtUf1DSQI-Kvb0swPpbFgvo7vjlgs6LlCIlrQrRPAOksUUerV-8x2jLKUautS3jEDf9h_fgbnuoCgwBAgj3OWlGaekWfWufKKcN3CQ4Dif-QY89hwhY49EVKfjSetSoVRocRtIfRcH8UDKlQlPhJautIrLgrrnhTY5wxy2DCXH_8r3h0yxJzKN3sccauYmIm-kDPezTRPJKQaMdjl6Dp4sWECotJUcQ1-teLXtZNdYR1mVIMQOoniXqwqKSlhBXiJJ_ehHbMhSQErXfZjTlcA9pz1m00]--></g></svg>