<?plantuml 1.2026.1?><svg xmlns="http://www.w3.org/2000/svg" xmlns:xlink="http://www.w3.org/1999/xlink" contentStyleType="text/css" data-diagram-type="STATE" height="1327.5px" preserveAspectRatio="none" style="width:990px;height:1327px;background:#FFFFFF;" version="1.1" viewBox="0 0 990 1327" width="990px" zoomAndPan="magnify"><title>Cycle de vie d'une livraison &#8212; vue simplifi&#233;e</title><defs/><g><g class="title" data-source-line="51"><text fill="#17324D" font-family="sans-serif" font-size="37.5" font-weight="bold" lengthAdjust="spacing" textLength="938.5254" x="18.75" y="53.5583">Cycle de vie d'une livraison &#8212; vue simplifi&#233;e</text></g><g><rect fill="#EDF7F1" height="93.75" rx="11.25" ry="11.25" style="stroke:#2F7D5B;stroke-width:0.9375;" width="174.9664" x="515.4878" y="244.2773"/><line style="stroke:#2F7D5B;stroke-width:0.9375;" x1="515.4878" x2="690.4542" y1="293.584" y2="293.584"/><text fill="#17324D" font-family="sans-serif" font-size="26.25" lengthAdjust="spacing" textLength="137.4664" x="534.2378" y="278.0182">En attente</text></g><g><rect fill="#EDF7F1" height="93.75" rx="11.25" ry="11.25" style="stroke:#2F7D5B;stroke-width:0.9375;" width="241.4758" x="373.4941" y="450.5273"/><line style="stroke:#2F7D5B;stroke-width:0.9375;" x1="373.4941" x2="614.9699" y1="499.834" y2="499.834"/><text fill="#17324D" font-family="sans-serif" font-size="26.25" lengthAdjust="spacing" textLength="203.9758" x="392.2441" y="484.2682">Prise en charge</text></g><g><rect fill="#EDF7F1" height="93.75" rx="11.25" ry="11.25" style="stroke:#2F7D5B;stroke-width:0.9375;" width="150.6647" x="405.7628" y="656.7773"/><line style="stroke:#2F7D5B;stroke-width:0.9375;" x1="405.7628" x2="556.4275" y1="706.084" y2="706.084"/><text fill="#17324D" font-family="sans-serif" font-size="26.25" lengthAdjust="spacing" textLength="113.1647" x="424.5128" y="690.5182">En cours</text></g><g><rect fill="#EDF7F1" height="93.75" rx="11.25" ry="11.25" style="stroke:#2F7D5B;stroke-width:0.9375;" width="190.7703" x="385.7191" y="863.0273"/><line style="stroke:#2F7D5B;stroke-width:0.9375;" x1="385.7191" x2="576.4893" y1="912.334" y2="912.334"/><text fill="#17324D" font-family="sans-serif" font-size="26.25" lengthAdjust="spacing" textLength="153.2703" x="404.4691" y="896.7682">&#192; confirmer</text></g><g><rect fill="#EDF7F1" height="93.75" rx="11.25" ry="11.25" style="stroke:#2F7D5B;stroke-width:0.9375;" width="162.2772" x="143.0753" y="1069.2773"/><line style="stroke:#2F7D5B;stroke-width:0.9375;" x1="143.0753" x2="305.3525" y1="1118.584" y2="1118.584"/><text fill="#17324D" font-family="sans-serif" font-size="26.25" lengthAdjust="spacing" textLength="124.7772" x="161.8253" y="1103.0182">Termin&#233;e</text></g><g><rect fill="#EDF7F1" height="93.75" rx="11.25" ry="11.25" style="stroke:#2F7D5B;stroke-width:0.9375;" width="214.5081" x="621.3503" y="656.7773"/><line style="stroke:#2F7D5B;stroke-width:0.9375;" x1="621.3503" x2="835.8584" y1="706.084" y2="706.084"/><text fill="#17324D" font-family="sans-serif" font-size="26.25" lengthAdjust="spacing" textLength="177.0081" x="640.1003" y="690.5182">Non assign&#233;e</text></g><g><rect fill="#EDF7F1" height="93.75" rx="11.25" ry="11.25" style="stroke:#2F7D5B;stroke-width:0.9375;" width="257.818" x="370.9441" y="1069.2773"/><line style="stroke:#2F7D5B;stroke-width:0.9375;" x1="370.9441" x2="628.7621" y1="1118.584" y2="1118.584"/><text fill="#17324D" font-family="sans-serif" font-size="26.25" lengthAdjust="spacing" textLength="220.318" x="389.6941" y="1103.0182">Incident &#224; traiter</text></g><ellipse cx="602.9753" cy="113.0273" fill="#222222" rx="18.75" ry="18.75" style="stroke:#222222;stroke-width:1.875;"/><ellipse cx="499.8503" cy="1296.1523" fill="none" rx="20.625" ry="20.625" style="stroke:#222222;stroke-width:1.875;"/><ellipse cx="499.8503" cy="1296.1523" fill="#222222" rx="11.25" ry="11.25" style="stroke:#222222;stroke-width:1.875;"/><!--link *start* to EnAttente--><g class="link" data-entity-1="ent0002" data-entity-2="ent0002" data-link-type="dependency" data-source-line="53" id="lnk3"><path d="M602.9753,132.0961 C602.9753,158.4773 602.9753,195.7523 602.9753,232.2961" fill="none" id="*start*-to-EnAttente" style="stroke:#456A7D;stroke-width:2.625;"/><polygon fill="#456A7D" points="602.9753,243.5461,610.4753,226.6711,602.9753,234.1711,595.4753,226.6711,602.9753,243.5461" style="stroke:#456A7D;stroke-width:2.625;"/><text fill="#29485B" font-family="sans-serif" font-size="26.25" lengthAdjust="spacing" textLength="250.6824" x="351.7253" y="180.3119">commande valid&#233;e</text></g><!--link EnAttente to PriseEnCharge--><g class="link" data-entity-1="ent0002" data-entity-2="ent0003" data-link-type="dependency" data-source-line="54" id="lnk4"><path d="M565.2316,338.4773 C565.2316,371.7773 565.2316,404.9273 565.2316,438.3398" fill="none" id="EnAttente-to-PriseEnCharge" style="stroke:#456A7D;stroke-width:2.625;"/><polygon fill="#456A7D" points="565.2316,449.5898,572.7316,432.7148,565.2316,440.2148,557.7316,432.7148,565.2316,449.5898" style="stroke:#456A7D;stroke-width:2.625;"/><text fill="#29485B" font-family="sans-serif" font-size="26.25" lengthAdjust="spacing" textLength="197.0416" x="366.4816" y="386.5244">livreur accepte</text></g><!--link EnAttente to NonAssignee--><g class="link" data-entity-1="ent0002" data-entity-2="ent0007" data-link-type="dependency" data-source-line="55" id="lnk5"><path d="M655.9066,338.4773 C655.9066,417.8273 655.9066,565.5961 655.9066,645.0023" fill="none" id="EnAttente-to-NonAssignee" style="stroke:#456A7D;stroke-width:2.625;"/><polygon fill="#456A7D" points="655.9066,656.2523,663.4066,639.3773,655.9066,646.8773,648.4066,639.3773,655.9066,656.2523" style="stroke:#456A7D;stroke-width:2.625;"/><text fill="#29485B" font-family="sans-serif" font-size="26.25" lengthAdjust="spacing" textLength="315.9998" x="657.7816" y="489.8557">aucun livreur disponible</text></g><!--link PriseEnCharge to EnCours--><g class="link" data-entity-1="ent0003" data-entity-2="ent0004" data-link-type="dependency" data-source-line="56" id="lnk6"><path d="M481.1003,544.7273 C481.1003,578.0273 481.1003,611.1773 481.1003,644.5898" fill="none" id="PriseEnCharge-to-EnCours" style="stroke:#456A7D;stroke-width:2.625;"/><polygon fill="#456A7D" points="481.1003,655.8398,488.6003,638.9648,481.1003,646.4648,473.6003,638.9648,481.1003,655.8398" style="stroke:#456A7D;stroke-width:2.625;"/><text fill="#29485B" font-family="sans-serif" font-size="26.25" lengthAdjust="spacing" textLength="221.1255" x="259.8503" y="592.7744">d&#233;part du livreur</text></g><!--link EnCours to AConfirmer--><g class="link" data-entity-1="ent0004" data-entity-2="ent0005" data-link-type="dependency" data-source-line="57" id="lnk7"><path d="M481.1003,750.9773 C481.1003,784.2773 481.1003,817.4273 481.1003,850.8398" fill="none" id="EnCours-to-AConfirmer" style="stroke:#456A7D;stroke-width:2.625;"/><polygon fill="#456A7D" points="481.1003,862.0898,488.6003,845.2148,481.1003,852.7148,473.6003,845.2148,481.1003,862.0898" style="stroke:#456A7D;stroke-width:2.625;"/><text fill="#29485B" font-family="sans-serif" font-size="26.25" lengthAdjust="spacing" textLength="245.1453" x="235.4753" y="799.0244">commande remise</text></g><!--link AConfirmer to Terminee--><g class="link" data-entity-1="ent0005" data-entity-2="ent0006" data-link-type="dependency" data-source-line="58" id="lnk8"><path d="M385.4566,909.9023 C312.4066,909.9023 224.2253,909.9023 224.2253,909.9023 C224.2253,909.9023 224.2253,996.6961 224.2253,1057.5773" fill="none" id="AConfirmer-to-Terminee" style="stroke:#456A7D;stroke-width:2.625;"/><polygon fill="#456A7D" points="224.2253,1068.8273,231.7253,1051.9523,224.2253,1059.4523,216.7253,1051.9523,224.2253,1068.8273" style="stroke:#456A7D;stroke-width:2.625;"/><text fill="#29485B" font-family="sans-serif" font-size="26.25" lengthAdjust="spacing" textLength="197.9132" x="26.6191" y="902.3932">QR code valid&#233;</text></g><!--link AConfirmer to Incident--><g class="link" data-entity-1="ent0005" data-entity-2="ent0008" data-link-type="dependency" data-source-line="59" id="lnk9"><path d="M481.1003,957.2273 C481.1003,990.5273 481.1003,1023.6773 481.1003,1057.0898" fill="none" id="AConfirmer-to-Incident" style="stroke:#456A7D;stroke-width:2.625;"/><polygon fill="#456A7D" points="481.1003,1068.3398,488.6003,1051.4648,481.1003,1058.9648,473.6003,1051.4648,481.1003,1068.3398" style="stroke:#456A7D;stroke-width:2.625;"/><text fill="#29485B" font-family="sans-serif" font-size="26.25" lengthAdjust="spacing" textLength="221.8433" x="257.9753" y="1005.2744">QR code invalide</text></g><!--link Terminee to *end*--><g class="link" data-entity-1="ent0006" data-entity-2="ent0010" data-link-type="dependency" data-source-line="60" id="lnk11"><path d="M224.2253,1163.9086 C224.2253,1217.2336 224.2253,1296.1523 224.2253,1296.1523 C224.2253,1296.1523 403.7753,1296.1523 467.8816,1296.1523" fill="none" id="Terminee-to-*end*" style="stroke:#456A7D;stroke-width:2.625;"/><polygon fill="#456A7D" points="479.1316,1296.1523,462.2566,1288.6523,469.7566,1296.1523,462.2566,1303.6523,479.1316,1296.1523" style="stroke:#456A7D;stroke-width:2.625;"/></g><!--link NonAssignee to *end*--><g class="link" data-entity-1="ent0007" data-entity-2="ent0010" data-link-type="dependency" data-source-line="61" id="lnk12"><path d="M732.3128,751.1461 C732.3128,891.7336 732.3128,1296.1523 732.3128,1296.1523 C732.3128,1296.1523 590.0941,1296.1523 532.5503,1296.1523" fill="none" id="NonAssignee-to-*end*" style="stroke:#456A7D;stroke-width:2.625;"/><polygon fill="#456A7D" points="521.3003,1296.1523,538.1753,1303.6523,530.6753,1296.1523,538.1753,1288.6523,521.3003,1296.1523" style="stroke:#456A7D;stroke-width:2.625;"/></g><!--link Incident to *end*--><g class="link" data-entity-1="ent0008" data-entity-2="ent0010" data-link-type="dependency" data-source-line="62" id="lnk13"><path d="M499.8503,1163.9086 C499.8503,1199.9461 499.8503,1236.4148 499.8503,1263.5836" fill="none" id="Incident-to-*end*" style="stroke:#456A7D;stroke-width:2.625;"/><polygon fill="#456A7D" points="499.8503,1274.8336,507.3503,1257.9586,499.8503,1265.4586,492.3503,1257.9586,499.8503,1274.8336" style="stroke:#456A7D;stroke-width:2.625;"/></g><?plantuml-src ZPPBRjim48RtEiKWNGGea22svLh9ee1iIsc18aZhj9kY2qOQsuD8f4fIRjDL3j43T9jpv2OzIKaz7CPMb1gm3Sx_pPEKwKDOwDiC8H5vNdBuU_SRKc8hoV8S5KGPRcQ2SqoqTmYBB-Tm1aiXSwPXOsn24cR0KSF37z2Yr0YQKPRXCLnUM1P_5a9gM3ChfG_tI-AaIV1ZJzqGBvX90zSikLb9KV9q9Z8XuLLSlHmYBGW6mObZKMkMYX_4Lx1acK97gG8bGdAKC1WwGaQcpji2mHIq5cvqNB8oqx7W-eBb20l6rG8bBRkP1Vr26FYEU4KwmrxtBL4v3q-wfARvmMGqzESE44efVZIYFtuJJlP4ntjuwWVZwIvmjQRaXgDIC3Xs2xyG6gSTqm-YO9SICaNP4D4uZFpn3k4KCPxwmI1oz4kJWwsU1ZaDfvDmqW7jrUF7OVnc7tHd5fkKeswaFjtN8alTgIIQDgHlzvETn44ywYBTseVnPFvqoWtLkuyDCoUM2vvspNqq3teSt0hcmUbu67Tsz6oHiumfDNtnOQkntdOhv1qoW-p5Y_nu58MxSDzW8guxjsAti8RhhQnc-h8jDEiuzD4ydiI3FQmtLuNqfVgiC66g8rbepdJG0RhfHj74FptPXtfxm-ybyWG_qDAy-Su3Dvlwiq4V_U8Ej1wNJ6fAg61SlznSbrDlewr3QE-N_o-gnljth47FJS1YF_8adiRpP_6EMNhQ_dZ3x3Ondod2XipNOSdHN3ORoKY9-aBTb0YAyYAZ9JtSe-TzVVqDZexUckCQQetSt8rdrGNCk8t2CaejzgXQzbAImeZFraokB6zJO2c19GaMUfU-43nKYbOSBSlAnDpjhKTAgX2ShZFqdWQjIvg9KYhZP6emSz2GbgsdrueM3Ct_WYN9tDopJl4ISnFHSqJBNg7CgIxbuoS3FtQvIxxd2QMc2uSaNh7eRQDOq8pGSvjiRTi0hS5JzZbrHiqK74GSMBqyQFIdax1CPG7aa5IsWssWUWPDcCGkMirfnieFTqPk32soRS82zSBiTQkw7Ld0hCstDJZGjaLBR1Vs7vWvSzga-WS0?></g></svg>