<?xml version="1.0" encoding="us-ascii" standalone="no"?><svg xmlns="http://www.w3.org/2000/svg" xmlns:xlink="http://www.w3.org/1999/xlink" contentStyleType="text/css" height="1059px" preserveAspectRatio="none" style="width:828px;height:1059px;background:#FFFFFF;" version="1.1" viewBox="0 0 828 1059" width="828px" zoomAndPan="magnify"><defs/><g><ellipse cx="545.11" cy="16" fill="#181818" rx="10" ry="10" style="stroke:none;stroke-width:1.0;"/><g id="en_attente"><rect fill="#F1F1F1" height="50" rx="12.5" ry="12.5" style="stroke:#181818;stroke-width:0.5;" width="84" x="503.11" y="120"/><line style="stroke:#181818;stroke-width:0.5;" x1="503.11" x2="587.11" y1="147.6094" y2="147.6094"/><text fill="#000000" font-family="sans-serif" font-size="14" lengthAdjust="spacing" textLength="64" x="513.11" y="139.5332">en attente</text></g><g id="prise_en_charge"><rect fill="#F1F1F1" height="50" rx="12.5" ry="12.5" style="stroke:#181818;stroke-width:0.5;" width="119" x="398.61" y="264"/><line style="stroke:#181818;stroke-width:0.5;" x1="398.61" x2="517.61" y1="291.6094" y2="291.6094"/><text fill="#000000" font-family="sans-serif" font-size="14" lengthAdjust="spacing" textLength="99" x="408.61" y="283.5332">prise en charge</text></g><g id="rejetee"><rect fill="#F1F1F1" height="50" rx="12.5" ry="12.5" style="stroke:#181818;stroke-width:0.5;" width="64" x="622.11" y="344"/><line style="stroke:#181818;stroke-width:0.5;" x1="622.11" x2="686.11" y1="371.6094" y2="371.6094"/><text fill="#000000" font-family="sans-serif" font-size="14" lengthAdjust="spacing" textLength="44" x="632.11" y="363.5332">rejetee</text></g><g id="en_cours"><rect fill="#F1F1F1" height="50" rx="12.5" ry="12.5" style="stroke:#181818;stroke-width:0.5;" width="75" x="378.61" y="424"/><line style="stroke:#181818;stroke-width:0.5;" x1="378.61" x2="453.61" y1="451.6094" y2="451.6094"/><text fill="#000000" font-family="sans-serif" font-size="14" lengthAdjust="spacing" textLength="55" x="388.61" y="443.5332">en cours</text></g><g id="terminee"><rect fill="#F1F1F1" height="50" rx="12.5" ry="12.5" style="stroke:#181818;stroke-width:0.5;" width="75" x="378.61" y="922"/><line style="stroke:#181818;stroke-width:0.5;" x1="378.61" x2="453.61" y1="949.6094" y2="949.6094"/><text fill="#000000" font-family="sans-serif" font-size="14" lengthAdjust="spacing" textLength="55" x="388.61" y="941.5332">termin&#233;e</text></g><ellipse cx="540.11" cy="1043" fill="none" rx="10" ry="10" style="stroke:#181818;stroke-width:1.0;"/><ellipse cx="540.61" cy="1043.5" fill="#181818" rx="6" ry="6" style="stroke:none;stroke-width:1.0;"/><path d="M251.11,568 L581.11,568 A12.5,12.5 0 0 1 593.61,580.5 L593.61,595.6094 L238.61,595.6094 L238.61,580.5 A12.5,12.5 0 0 1 251.11,568 " fill="#F1F1F1" style="stroke:#F1F1F1;stroke-width:1.0;"/><rect fill="none" height="275.6094" rx="12.5" ry="12.5" style="stroke:#181818;stroke-width:0.5;" width="355" x="238.61" y="568"/><line style="stroke:#181818;stroke-width:0.5;" x1="238.61" x2="593.61" y1="595.6094" y2="595.6094"/><text fill="#000000" font-family="sans-serif" font-size="14" lengthAdjust="spacing" textLength="158" x="337.11" y="587.5332">V&#233;rification d'authenticit&#233;</text><ellipse cx="370.61" cy="616.6094" fill="#181818" rx="10" ry="10" style="stroke:none;stroke-width:1.0;"/><g id="VERIF.attente_scan"><rect fill="#F1F1F1" height="50" rx="12.5" ry="12.5" style="stroke:#181818;stroke-width:0.5;" width="84" x="328.61" y="663.6094"/><line style="stroke:#181818;stroke-width:0.5;" x1="328.61" x2="412.61" y1="691.2188" y2="691.2188"/><text fill="#000000" font-family="sans-serif" font-size="14" lengthAdjust="spacing" textLength="64" x="338.61" y="683.1426">en attente</text></g><g id="VERIF.verifiee"><rect fill="#F1F1F1" height="50" rx="12.5" ry="12.5" style="stroke:#181818;stroke-width:0.5;" width="66" x="250.61" y="783.6094"/><line style="stroke:#181818;stroke-width:0.5;" x1="250.61" x2="316.61" y1="811.2188" y2="811.2188"/><text fill="#000000" font-family="sans-serif" font-size="14" lengthAdjust="spacing" textLength="46" x="260.61" y="803.1426">v&#233;rifi&#233;e</text></g><g id="VERIF.echouee"><rect fill="#F1F1F1" height="50" rx="12.5" ry="12.5" style="stroke:#181818;stroke-width:0.5;" width="67" x="424.11" y="783.6094"/><line style="stroke:#181818;stroke-width:0.5;" x1="424.11" x2="491.11" y1="811.2188" y2="811.2188"/><text fill="#000000" font-family="sans-serif" font-size="14" lengthAdjust="spacing" textLength="47" x="434.11" y="803.1426">&#233;chou&#233;</text></g><!--link *start*VERIF to attente_scan--><g id="link_*start*VERIF_attente_scan"><path d="M370.61,626.7594 C370.61,634.7994 370.61,646.9394 370.61,658.2594 " fill="none" id="*start*VERIF-to-attente_scan" style="stroke:#181818;stroke-width:1.0;"/><polygon fill="#181818" points="370.61,663.3894,374.61,654.3894,370.61,658.3894,366.61,654.3894,370.61,663.3894" style="stroke:#181818;stroke-width:1.0;"/></g><!--link attente_scan to verifiee--><g id="link_attente_scan_verifiee"><path d="M328.6,699.7694 C311.96,706.0694 294.48,716.0294 284.61,731.6094 C275.92,745.3294 275.35,763.4294 277.11,778.5194 " fill="none" id="attente_scan-to-verifiee" style="stroke:#181818;stroke-width:1.0;"/><polygon fill="#181818" points="277.78,783.5094,280.5358,774.0539,277.1089,778.5546,272.6082,775.1277,277.78,783.5094" style="stroke:#181818;stroke-width:1.0;"/><text fill="#000000" font-family="sans-serif" font-size="13" lengthAdjust="spacing" textLength="149" x="285.61" y="746.1045">QR code identique &#224; celui</text><text fill="#000000" font-family="sans-serif" font-size="13" lengthAdjust="spacing" textLength="96" x="312.11" y="762.4561">de la commande</text></g><!--link attente_scan to echouee--><g id="link_attente_scan_echouee"><path d="M412.79,710.5494 C421.31,716.3894 429.52,723.4194 435.61,731.6094 C445.7,745.1794 451.17,763.2694 454.14,778.3894 " fill="none" id="attente_scan-to-echouee" style="stroke:#181818;stroke-width:1.0;"/><polygon fill="#181818" points="455.05,783.3994,457.3902,773.8326,454.1631,778.4787,449.5171,775.2516,455.05,783.3994" style="stroke:#181818;stroke-width:1.0;"/><text fill="#000000" font-family="sans-serif" font-size="13" lengthAdjust="spacing" textLength="132" x="451.61" y="754.1045">QR code non identique</text></g><!--link *start* to en_attente--><g id="link_*start*_en_attente"><path d="M545.11,26.13 C545.11,44.39 545.11,86.09 545.11,114.66 " fill="none" id="*start*-to-en_attente" style="stroke:#181818;stroke-width:1.0;"/><polygon fill="#181818" points="545.11,119.83,549.11,110.83,545.11,114.83,541.11,110.83,545.11,119.83" style="stroke:#181818;stroke-width:1.0;"/><text fill="#000000" font-family="sans-serif" font-size="13" lengthAdjust="spacing" textLength="143" x="546.11" y="70.4951">la commande est valid&#233;e</text><text fill="#000000" font-family="sans-serif" font-size="13" lengthAdjust="spacing" textLength="136" x="549.61" y="86.8467">et un livreur est sollicit&#233;</text></g><!--link en_attente to prise_en_charge--><g id="link_en_attente_prise_en_charge"><path d="M507.11,170.15 C496.66,178.46 486.26,188.58 479.11,200 C467.98,217.76 462.74,240.92 460.28,259.02 " fill="none" id="en_attente-to-prise_en_charge" style="stroke:#181818;stroke-width:1.0;"/><polygon fill="#181818" points="459.66,263.98,464.7364,255.5402,460.2749,259.018,456.7972,254.5564,459.66,263.98" style="stroke:#181818;stroke-width:1.0;"/><text fill="#000000" font-family="sans-serif" font-size="13" lengthAdjust="spacing" textLength="101" x="480.11" y="222.4951">un livreur accepte</text></g><!--link en_attente to rejetee--><g id="link_en_attente_rejetee"><path d="M565.53,170.05 C572.61,179.08 580.23,189.67 586.11,200 C612.42,246.28 633.65,304.76 645.03,339.11 " fill="none" id="en_attente-to-rejetee" style="stroke:#181818;stroke-width:1.0;"/><polygon fill="#181818" points="646.63,343.99,647.623,334.1913,645.0703,339.2395,640.0222,336.6868,646.63,343.99" style="stroke:#181818;stroke-width:1.0;"/><text fill="#000000" font-family="sans-serif" font-size="13" lengthAdjust="spacing" textLength="165" x="603.11" y="214.4951">le livreur n'est pas disponible</text><text fill="#000000" font-family="sans-serif" font-size="13" lengthAdjust="spacing" textLength="94" x="638.61" y="230.8467">(ou autre raison)</text></g><!--link prise_en_charge to en_cours--><g id="link_prise_en_charge_en_cours"><path d="M447.1,314.1 C443.21,323.31 439.07,334 436.11,344 C428.78,368.7 423.48,397.52 420.18,418.55 " fill="none" id="prise_en_charge-to-en_cours" style="stroke:#181818;stroke-width:1.0;"/><polygon fill="#181818" points="419.39,423.72,424.7066,415.4294,420.1471,418.7776,416.7988,414.2181,419.39,423.72" style="stroke:#181818;stroke-width:1.0;"/><text fill="#000000" font-family="sans-serif" font-size="13" lengthAdjust="spacing" textLength="167" x="437.11" y="374.4951">le livreur d&#233;marre le transport</text></g><!--link en_cours to terminee--><g id="link_en_cours_terminee"><path d="M378.34,450.16 C305.93,452.77 148.6,470.04 79.11,568 C8.13,668.05 6,745.5 79.11,844 C114.53,891.73 290.62,925.81 373.21,939.43 " fill="none" id="en_cours-to-terminee" style="stroke:#181818;stroke-width:1.0;"/><polygon fill="#181818" points="378.51,940.3,370.2647,934.9134,373.5742,939.5011,368.9865,942.8107,378.51,940.3" style="stroke:#181818;stroke-width:1.0;"/><text fill="#000000" font-family="sans-serif" font-size="13" lengthAdjust="spacing" textLength="107" x="96.61" y="703.4951">remise au client et</text><text fill="#000000" font-family="sans-serif" font-size="13" lengthAdjust="spacing" textLength="140" x="80.11" y="719.8467">scan du QR code r&#233;ussi</text></g><!--link terminee to *end*--><g id="link_terminee_*end*"><path d="M448.04,972.21 C474.23,992.07 509.88,1019.09 528.18,1032.96 " fill="none" id="terminee-to-*end*" style="stroke:#181818;stroke-width:1.0;"/><polygon fill="#181818" points="532.44,1036.19,527.6941,1027.56,528.4589,1033.1649,522.854,1033.9298,532.44,1036.19" style="stroke:#181818;stroke-width:1.0;"/></g><!--link rejetee to *end*--><g id="link_rejetee_*end*"><path d="M656.71,394.13 C659.67,423.74 664.11,475.5 664.11,520 C664.11,520 664.11,520 664.11,948 C664.11,1002.36 587.48,1029.34 554.7,1038.4 " fill="none" id="rejetee-to-*end*" style="stroke:#181818;stroke-width:1.0;"/><polygon fill="#181818" points="549.84,1039.7,559.5704,1041.2227,554.6681,1038.4001,557.4906,1033.4978,549.84,1039.7" style="stroke:#181818;stroke-width:1.0;"/><text fill="#000000" font-family="sans-serif" font-size="13" lengthAdjust="spacing" textLength="133" x="676.11" y="703.4951">la commande peut &#234;tre</text><text fill="#000000" font-family="sans-serif" font-size="13" lengthAdjust="spacing" textLength="155" x="665.11" y="719.8467">r&#233;affect&#233;e &#224; un autre livreur</text></g><!--link en_cours to VERIF--><g id="link_en_cours_VERIF"><path d="M416.11,474.45 C416.11,495.78 416.11,528.59 416.11,562.84 " fill="none" id="en_cours-to-VERIF" style="stroke:#181818;stroke-width:1.0;"/><polygon fill="#181818" points="416.11,567.9,420.11,558.9,416.11,562.9,412.11,558.9,416.11,567.9" style="stroke:#181818;stroke-width:1.0;"/><text fill="#000000" font-family="sans-serif" font-size="13" lengthAdjust="spacing" textLength="161" x="417.11" y="518.4951">le livreur affiche le QR code,</text><text fill="#000000" font-family="sans-serif" font-size="13" lengthAdjust="spacing" textLength="91" x="452.11" y="534.8467">le client scanne</text></g><!--link VERIF to terminee--><g id="link_VERIF_terminee"><path d="M416.11,844.3 C416.11,871.68 416.11,897.79 416.11,916.7 " fill="none" id="VERIF-to-terminee" style="stroke:#181818;stroke-width:1.0;"/><polygon fill="#181818" points="416.11,921.84,420.11,912.84,416.11,916.84,412.11,912.84,416.11,921.84" style="stroke:#181818;stroke-width:1.0;"/><text fill="#000000" font-family="sans-serif" font-size="13" lengthAdjust="spacing" textLength="39" x="417.11" y="888.4951">verifiee</text></g><!--SRC=[RLDBZjD04DttAKhUP40p78054X8WHK8WWfGDGL7JhamQsMLFVomGGk8G782jkOPlmacewdQRn6BbrE_LUwyh6tXXzRtJROjGRwOnw02jfeUeAS1JC5zDmmM4mQPFe-7rThzxldt_zetQm8sbW6v02hOZw7hv43Oo4g6nWyFeuC-Fds391nUDrFsJy2NSWiSKmVwHKXyUVuIxksU0TDGXC1hoQbvbkfQvy5hq0GRTs7eQyK0O8D82BpNVDOqrDaoZKXSWWjaxw_78INFMxbw0BsQrCTW7NCyu_8m14mbSUcaZcthjeRQ-xyX-QfZBJHT1n-0GdBQ-8rQptZWhCrrq_XgIvRJQyIpdWjF4i2ua1RbP9jdVrb8Yux1bP5u7fh5C5Z0So1jDulQx7Tl5LhbfZDvRfPP1GM67LL4rnokBUum1fj-iv42CeKydVY2s6wPVubZME1DNolETuELxiIqLSbiEgxbXROLqfHoFGivL_x2ow1af1QMuQ95Y3fXQgHPXKfn_LuLYjPz6Pq_Mw7HjzOQ5dELUqxLKChD_kTk-WcyAeDpXhE8etdBwCapr0GKolKcntTO2-X2JNmQRQ0-K_o_5uVy1eJbtyGg7cEI2nIDPnTNWskhIjB2IXY7BJYwLXh9DwjCe0JkWlb_VMtRZwapv5gmvfokTQTuUY8Fv2eKKeSg3gvCjdFu2]--></g></svg>