<?xml version="1.0" encoding="us-ascii" standalone="no"?><svg xmlns="http://www.w3.org/2000/svg" xmlns:xlink="http://www.w3.org/1999/xlink" contentStyleType="text/css" height="2182.5px" preserveAspectRatio="none" style="width:984px;height:2182px;background:#FFFFFF;" version="1.1" viewBox="0 0 984 2182" width="984.375px" zoomAndPan="magnify"><defs/><g><text fill="#17324D" font-family="sans-serif" font-size="37.5" font-weight="bold" lengthAdjust="spacing" textLength="549.375" x="204.375" y="57.6782">Cas d'utilisation d'ElevConnect</text><!--cluster Syst?me ElevConnect--><g id="cluster_Syst&#232;me ElevConnect"><rect fill="#F4FAF6" height="1779.375" rx="11.25" ry="11.25" style="stroke:#9CB4C1;stroke-width:1.875;" width="489.375" x="352.5" y="213.1055"/><text fill="#000000" font-family="sans-serif" font-size="26.25" font-weight="bold" lengthAdjust="spacing" textLength="286.875" x="453.75" y="244.1052">Syst&#232;me ElevConnect</text></g><g id="elem_UC_PROFILE"><ellipse cx="597.3957" cy="1173.5221" fill="#EAF4F8" rx="138.9582" ry="32.2916" style="stroke:#3E7490;stroke-width:0.9375;"/><text fill="#17324D" font-family="sans-serif" font-size="26.25" lengthAdjust="spacing" textLength="185.625" x="498.9582" y="1181.9907">G&#233;rer son profil</text></g><g id="elem_UC_CATALOG"><ellipse cx="597.5559" cy="462.9291" fill="#EAF4F8" rx="171.9309" ry="38.8862" style="stroke:#3E7490;stroke-width:0.9375;"/><text fill="#17324D" font-family="sans-serif" font-size="26.25" lengthAdjust="spacing" textLength="266.25" x="464.4309" y="469.9201">Consulter le catalogue</text></g><g id="elem_UC_LIST"><ellipse cx="597.124" cy="893.3428" fill="#EAF4F8" rx="163.0615" ry="37.1123" style="stroke:#3E7490;stroke-width:0.9375;"/><text fill="#17324D" font-family="sans-serif" font-size="26.25" lengthAdjust="spacing" textLength="245.625" x="474.3115" y="900.3337">Publier une annonce</text></g><g id="elem_UC_ORDER"><ellipse cx="597.1908" cy="606.8561" fill="#EAF4F8" rx="174.3783" ry="39.3757" style="stroke:#3E7490;stroke-width:0.9375;"/><text fill="#17324D" font-family="sans-serif" font-size="26.25" lengthAdjust="spacing" textLength="271.875" x="461.2533" y="613.8471">Passer une commande</text></g><g id="elem_UC_PAY"><ellipse cx="597.1235" cy="319.7802" fill="#EAF4F8" rx="168.686" ry="38.2372" style="stroke:#3E7490;stroke-width:0.9375;"/><text fill="#17324D" font-family="sans-serif" font-size="26.25" lengthAdjust="spacing" textLength="258.75" x="467.7485" y="326.7711">Payer une commande</text></g><g id="elem_UC_MANAGE"><ellipse cx="597.1235" cy="1036.0302" fill="#EAF4F8" rx="168.686" ry="38.2372" style="stroke:#3E7490;stroke-width:0.9375;"/><text fill="#17324D" font-family="sans-serif" font-size="26.25" lengthAdjust="spacing" textLength="258.75" x="467.7485" y="1043.0211">G&#233;rer une commande</text></g><g id="elem_UC_RECEIVE"><ellipse cx="596.8683" cy="751.3541" fill="#EAF4F8" rx="170.3058" ry="38.5612" style="stroke:#3E7490;stroke-width:0.9375;"/><text fill="#17324D" font-family="sans-serif" font-size="26.25" lengthAdjust="spacing" textLength="262.5" x="465.6183" y="758.3451">Confirmer la r&#233;ception</text></g><g id="elem_UC_DELIVER"><ellipse cx="596.8487" cy="1924.9127" fill="#EAF4F8" rx="164.6612" ry="37.4322" style="stroke:#3E7490;stroke-width:0.9375;"/><text fill="#17324D" font-family="sans-serif" font-size="26.25" lengthAdjust="spacing" textLength="249.375" x="472.1612" y="1931.9037">Assurer une livraison</text></g><g id="elem_UC_APPOINTMENT"><ellipse cx="596.8487" cy="1308.0377" fill="#EAF4F8" rx="164.6612" ry="37.4322" style="stroke:#3E7490;stroke-width:0.9375;"/><text fill="#17324D" font-family="sans-serif" font-size="26.25" lengthAdjust="spacing" textLength="249.375" x="472.1612" y="1315.0287">Prendre rendez-vous</text></g><g id="elem_UC_SERVICES"><ellipse cx="597.2889" cy="1459.6257" fill="#EAF4F8" rx="214.7889" ry="47.4578" style="stroke:#3E7490;stroke-width:0.9375;"/><text fill="#17324D" font-family="sans-serif" font-size="26.25" lengthAdjust="spacing" textLength="361.875" x="416.3514" y="1466.6167">G&#233;rer les services v&#233;t&#233;rinaires</text></g><g id="elem_UC_MODERATE"><ellipse cx="596.7427" cy="1612.1415" fill="#EAF4F8" rx="171.1177" ry="38.7235" style="stroke:#3E7490;stroke-width:0.9375;"/><text fill="#17324D" font-family="sans-serif" font-size="26.25" lengthAdjust="spacing" textLength="264.375" x="464.5552" y="1619.1325">Mod&#233;rer les annonces</text></g><g id="elem_UC_ADMIN"><ellipse cx="597.544" cy="1769.3212" fill="#EAF4F8" rx="203.794" ry="52.4657" style="stroke:#3E7490;stroke-width:0.9375;"/><text fill="#17324D" font-family="sans-serif" font-size="26.25" lengthAdjust="spacing" textLength="256.875" x="463.4815" y="1761.281">Superviser paiements</text><text fill="#17324D" font-family="sans-serif" font-size="26.25" lengthAdjust="spacing" textLength="157.5" x="513.169" y="1794.2986">et utilisateurs</text></g><!--entity USER--><g id="elem_USER"><ellipse cx="597.1875" cy="2044.043" fill="#FFFFFF" rx="15" ry="15" style="stroke:#2F7D5B;stroke-width:0.9375;"/><path d="M597.1875,2059.043 L597.1875,2109.668 M572.8125,2074.043 L621.5625,2074.043 M597.1875,2109.668 L572.8125,2137.793 M597.1875,2109.668 L621.5625,2137.793 " fill="none" style="stroke:#2F7D5B;stroke-width:0.9375;"/><text fill="#000000" font-family="sans-serif" font-size="26.25" lengthAdjust="spacing" textLength="116.25" x="539.0625" y="2167.8552">Utilisateur</text></g><!--entity BUYER--><g id="elem_BUYER"><ellipse cx="135.9375" cy="622.793" fill="#FFFFFF" rx="15" ry="15" style="stroke:#2F7D5B;stroke-width:0.9375;"/><path d="M135.9375,637.793 L135.9375,688.418 M111.5625,652.793 L160.3125,652.793 M135.9375,688.418 L111.5625,716.543 M135.9375,688.418 L160.3125,716.543 " fill="none" style="stroke:#2F7D5B;stroke-width:0.9375;"/><text fill="#000000" font-family="sans-serif" font-size="26.25" lengthAdjust="spacing" textLength="106.875" x="82.5" y="746.6052">Acheteur</text></g><!--entity SELLER--><g id="elem_SELLER"><ellipse cx="135.9375" cy="963.1055" fill="#FFFFFF" rx="15" ry="15" style="stroke:#2F7D5B;stroke-width:0.9375;"/><path d="M135.9375,978.1055 L135.9375,1028.7305 M111.5625,993.1055 L160.3125,993.1055 M135.9375,1028.7305 L111.5625,1056.8555 M135.9375,1028.7305 L160.3125,1056.8555 " fill="none" style="stroke:#2F7D5B;stroke-width:0.9375;"/><text fill="#000000" font-family="sans-serif" font-size="26.25" lengthAdjust="spacing" textLength="142.5" x="11.25" y="1086.9177">Fournisseur</text><text fill="#000000" font-family="sans-serif" font-size="26.25" lengthAdjust="spacing" textLength="249.375" x="11.25" y="1119.9353">(&#233;leveur ou vendeur)</text></g><!--entity VET--><g id="elem_VET"><ellipse cx="135.9375" cy="1402.793" fill="#FFFFFF" rx="15" ry="15" style="stroke:#2F7D5B;stroke-width:0.9375;"/><path d="M135.9375,1417.793 L135.9375,1468.418 M111.5625,1432.793 L160.3125,1432.793 M135.9375,1468.418 L111.5625,1496.543 M135.9375,1468.418 L160.3125,1496.543 " fill="none" style="stroke:#2F7D5B;stroke-width:0.9375;"/><text fill="#000000" font-family="sans-serif" font-size="26.25" lengthAdjust="spacing" textLength="129.375" x="71.25" y="1526.6052">V&#233;t&#233;rinaire</text></g><!--entity COURIER--><g id="elem_COURIER"><ellipse cx="135.9375" cy="1984.043" fill="#FFFFFF" rx="15" ry="15" style="stroke:#2F7D5B;stroke-width:0.9375;"/><path d="M135.9375,1999.043 L135.9375,2049.668 M111.5625,2014.043 L160.3125,2014.043 M135.9375,2049.668 L111.5625,2077.793 M135.9375,2049.668 L160.3125,2077.793 " fill="none" style="stroke:#2F7D5B;stroke-width:0.9375;"/><text fill="#000000" font-family="sans-serif" font-size="26.25" lengthAdjust="spacing" textLength="82.5" x="94.6875" y="2107.8552">Livreur</text></g><!--entity ADMIN--><g id="elem_ADMIN"><ellipse cx="135.9375" cy="1712.168" fill="#FFFFFF" rx="15" ry="15" style="stroke:#2F7D5B;stroke-width:0.9375;"/><path d="M135.9375,1727.168 L135.9375,1777.793 M111.5625,1742.168 L160.3125,1742.168 M135.9375,1777.793 L111.5625,1805.918 M135.9375,1777.793 L160.3125,1805.918 " fill="none" style="stroke:#2F7D5B;stroke-width:0.9375;"/><text fill="#000000" font-family="sans-serif" font-size="26.25" lengthAdjust="spacing" textLength="170.625" x="50.625" y="1835.9802">Administrateur</text></g><g id="elem_GMN39"><path d="M373.125,109.043 L373.125,171.3281 A11.25,11.25 0 0 0 384.375,182.5781 L810,182.5781 A11.25,11.25 0 0 0 821.25,171.3281 L821.25,116.543 L802.5,97.793 L384.375,97.793 A11.25,11.25 0 0 0 373.125,109.043 " fill="#FFF8E8" style="stroke:#E5AE45;stroke-width:0.9375;"/><path d="M802.5,97.793 L802.5,110.918 A5.625,5.625 0 0 0 808.125,116.543 L821.25,116.543 L802.5,97.793 " fill="#FFF8E8" style="stroke:#E5AE45;stroke-width:1.875;"/><text fill="#5B481E" font-family="sans-serif" font-size="26.25" lengthAdjust="spacing" textLength="408.75" x="384.375" y="134.4177">Le QR code est scann&#233; seulement</text><text fill="#5B481E" font-family="sans-serif" font-size="26.25" lengthAdjust="spacing" textLength="313.125" x="384.375" y="167.4353">lorsqu'un livreur intervient.</text></g><!--link BUYER to USER--><g id="link_BUYER_USER"><path d="M189.7313,743.018 C243.075,743.018 316.875,743.018 316.875,743.018 C316.875,743.018 316.875,2042.4867 316.875,2042.4867 C316.875,2042.4867 500.925,2042.4867 500.925,2042.4867 " fill="none" id="BUYER-to-USER" style="stroke:#456A7D;stroke-width:2.625;"/><polygon fill="none" points="500.925,2029.3617,538.425,2042.4867,500.925,2055.6117,500.925,2029.3617" style="stroke:#456A7D;stroke-width:2.625;"/></g><!--link SELLER to USER--><g id="link_SELLER_USER"><path d="M247.5,1125.9117 C247.5,1374.968 247.5,2056.8492 247.5,2056.8492 C247.5,2056.8492 501.15,2056.8492 501.15,2056.8492 " fill="none" id="SELLER-to-USER" style="stroke:#456A7D;stroke-width:2.625;"/><polygon fill="none" points="501.15,2043.7242,538.65,2056.8492,501.15,2069.9742,501.15,2043.7242" style="stroke:#456A7D;stroke-width:2.625;"/></g><!--link VET to USER--><g id="link_VET_USER"><path d="M201.0563,1520.4492 C219.3563,1520.4492 234.375,1520.4492 234.375,1520.4492 C234.375,1520.4492 234.375,2071.2305 234.375,2071.2305 C234.375,2071.2305 501.3938,2071.2305 501.3938,2071.2305 " fill="none" id="VET-to-USER" style="stroke:#456A7D;stroke-width:2.625;"/><polygon fill="none" points="501.3938,2058.1055,538.8938,2071.2305,501.3938,2084.3555,501.3938,2058.1055" style="stroke:#456A7D;stroke-width:2.625;"/></g><!--link COURIER to USER--><g id="link_COURIER_USER"><path d="M177.675,2099.9742 C177.675,2099.9742 501.2438,2099.9742 501.2438,2099.9742 " fill="none" id="COURIER-to-USER" style="stroke:#456A7D;stroke-width:2.625;"/><polygon fill="none" points="501.2438,2086.8492,538.7438,2099.9742,501.2438,2113.0992,501.2438,2086.8492" style="stroke:#456A7D;stroke-width:2.625;"/></g><!--link ADMIN to USER--><g id="link_ADMIN_USER"><path d="M200.625,1842.7055 C200.625,1936.1367 200.625,2085.6117 200.625,2085.6117 C200.625,2085.6117 501.1688,2085.6117 501.1688,2085.6117 " fill="none" id="ADMIN-to-USER" style="stroke:#456A7D;stroke-width:2.625;"/><polygon fill="none" points="501.1688,2072.4867,538.6688,2085.6117,501.1688,2098.7367,501.1688,2072.4867" style="stroke:#456A7D;stroke-width:2.625;"/></g><!--link USER to UC_PROFILE--><g id="link_USER_UC_PROFILE"><path d="M655.8187,2101.2305 C734.475,2101.2305 864.375,2101.2305 864.375,2101.2305 C864.375,2101.2305 864.375,1173.1055 864.375,1173.1055 C864.375,1173.1055 745.6313,1173.1055 745.6313,1173.1055 " fill="none" id="USER-to-UC_PROFILE" style="stroke:#456A7D;stroke-width:2.625;"/><polygon fill="#456A7D" points="736.2563,1173.1055,753.1313,1180.6055,745.6313,1173.1055,753.1313,1165.6055,736.2563,1173.1055" style="stroke:#456A7D;stroke-width:2.625;"/></g><!--link BUYER to UC_CATALOG--><g id="link_BUYER_UC_CATALOG"><path d="M136.875,606.3492 C136.875,543.2555 136.875,462.4805 136.875,462.4805 C136.875,462.4805 415.7625,462.4805 415.7625,462.4805 " fill="none" id="BUYER-to-UC_CATALOG" style="stroke:#456A7D;stroke-width:2.625;"/><polygon fill="#456A7D" points="425.1375,462.4805,408.2625,454.9805,415.7625,462.4805,408.2625,469.9805,425.1375,462.4805" style="stroke:#456A7D;stroke-width:2.625;"/></g><!--link BUYER to UC_ORDER--><g id="link_BUYER_UC_ORDER"><path d="M189.75,626.543 C189.75,626.543 436.8,626.543 436.8,626.543 " fill="none" id="BUYER-to-UC_ORDER" style="stroke:#456A7D;stroke-width:2.625;"/><polygon fill="#456A7D" points="446.175,626.543,429.3,619.043,436.8,626.543,429.3,634.043,446.175,626.543" style="stroke:#456A7D;stroke-width:2.625;"/></g><!--link BUYER to UC_RECEIVE--><g id="link_BUYER_UC_RECEIVE"><path d="M189.75,732.9492 C189.75,732.9492 437.2875,732.9492 437.2875,732.9492 " fill="none" id="BUYER-to-UC_RECEIVE" style="stroke:#456A7D;stroke-width:2.625;"/><polygon fill="#456A7D" points="446.6625,732.9492,429.809,725.401,437.2875,732.9224,429.7661,740.401,446.6625,732.9492" style="stroke:#456A7D;stroke-width:2.625;"/></g><!--link SELLER to UC_LIST--><g id="link_SELLER_UC_LIST"><path d="M225,946.793 C225,918.1617 225,893.7305 225,893.7305 C225,893.7305 424.575,893.7305 424.575,893.7305 " fill="none" id="SELLER-to-UC_LIST" style="stroke:#456A7D;stroke-width:2.625;"/><polygon fill="#456A7D" points="433.95,893.7305,417.0965,886.1823,424.575,893.7037,417.0536,901.1822,433.95,893.7305" style="stroke:#456A7D;stroke-width:2.625;"/></g><!--link SELLER to UC_MANAGE--><g id="link_SELLER_UC_MANAGE"><path d="M260.7562,1036.2305 C260.7562,1036.2305 418.725,1036.2305 418.725,1036.2305 " fill="none" id="SELLER-to-UC_MANAGE" style="stroke:#456A7D;stroke-width:2.625;"/><polygon fill="#456A7D" points="428.1,1036.2305,411.225,1028.7305,418.725,1036.2305,411.225,1043.7305,428.1,1036.2305" style="stroke:#456A7D;stroke-width:2.625;"/></g><!--link VET to UC_SERVICES--><g id="link_VET_UC_SERVICES"><path d="M201.0375,1459.9805 C201.0375,1459.9805 372.8813,1459.9805 372.8813,1459.9805 " fill="none" id="VET-to-UC_SERVICES" style="stroke:#456A7D;stroke-width:2.625;"/><polygon fill="#456A7D" points="382.2563,1459.9805,365.3813,1452.4805,372.8813,1459.9805,365.3813,1467.4805,382.2563,1459.9805" style="stroke:#456A7D;stroke-width:2.625;"/></g><!--link VET to UC_APPOINTMENT--><g id="link_VET_UC_APPOINTMENT"><path d="M136.875,1386.7055 C136.875,1347.8742 136.875,1308.1055 136.875,1308.1055 C136.875,1308.1055 422.2875,1308.1055 422.2875,1308.1055 " fill="none" id="VET-to-UC_APPOINTMENT" style="stroke:#456A7D;stroke-width:2.625;"/><polygon fill="#456A7D" points="431.6625,1308.1055,414.7875,1300.6055,422.2875,1308.1055,414.7875,1315.6055,431.6625,1308.1055" style="stroke:#456A7D;stroke-width:2.625;"/></g><!--link COURIER to UC_DELIVER--><g id="link_COURIER_UC_DELIVER"><path d="M136.875,1967.5992 C136.875,1944.5367 136.875,1924.9805 136.875,1924.9805 C136.875,1924.9805 422.2875,1924.9805 422.2875,1924.9805 " fill="none" id="COURIER-to-UC_DELIVER" style="stroke:#456A7D;stroke-width:2.625;"/><polygon fill="#456A7D" points="431.6625,1924.9805,414.7875,1917.4805,422.2875,1924.9805,414.7875,1932.4805,431.6625,1924.9805" style="stroke:#456A7D;stroke-width:2.625;"/></g><!--link ADMIN to UC_MODERATE--><g id="link_ADMIN_UC_MODERATE"><path d="M211.875,1696.1367 C211.875,1654.9992 211.875,1611.8555 211.875,1611.8555 C211.875,1611.8555 416.0063,1611.8555 416.0063,1611.8555 " fill="none" id="ADMIN-to-UC_MODERATE" style="stroke:#456A7D;stroke-width:2.625;"/><polygon fill="#456A7D" points="425.3813,1611.8555,408.5063,1604.3555,416.0063,1611.8555,408.5063,1619.3555,425.3813,1611.8555" style="stroke:#456A7D;stroke-width:2.625;"/></g><!--link ADMIN to UC_ADMIN--><g id="link_ADMIN_UC_ADMIN"><path d="M221.6063,1769.3555 C221.6063,1769.3555 384.3375,1769.3555 384.3375,1769.3555 " fill="none" id="ADMIN-to-UC_ADMIN" style="stroke:#456A7D;stroke-width:2.625;"/><polygon fill="#456A7D" points="393.7125,1769.3555,376.8375,1761.8555,384.3375,1769.3555,376.8375,1776.8555,393.7125,1769.3555" style="stroke:#456A7D;stroke-width:2.625;"/></g><!--link UC_ORDER to UC_PAY--><g id="link_UC_ORDER_UC_PAY"><path d="M445.725,587.168 C424.9688,587.168 410.625,587.168 410.625,587.168 C410.625,587.168 410.625,319.9805 410.625,319.9805 C410.625,319.9805 418.4625,319.9805 418.4625,319.9805 " fill="none" id="UC_ORDER-to-UC_PAY" style="stroke:#456A7D;stroke-width:2.625;stroke-dasharray:7.0,7.0;"/><polygon fill="#456A7D" points="427.8375,319.9805,410.9625,312.4805,418.4625,319.9805,410.9625,327.4805,427.8375,319.9805" style="stroke:#456A7D;stroke-width:2.625;"/><text fill="#29485B" font-family="sans-serif" font-size="26.25" lengthAdjust="spacing" textLength="114.375" x="294.375" y="496.3302">&#171;include&#187;</text></g><!--link UC_DELIVER to UC_RECEIVE--><g id="link_UC_DELIVER_UC_RECEIVE"><path d="M762.3375,1924.9805 C807.2438,1924.9805 843.75,1924.9805 843.75,1924.9805 C843.75,1924.9805 843.75,751.2305 843.75,751.2305 C843.75,751.2305 777.8063,751.2305 777.8063,751.2305 " fill="none" id="UC_DELIVER-to-UC_RECEIVE" style="stroke:#456A7D;stroke-width:2.625;stroke-dasharray:7.0,7.0;"/><polygon fill="#456A7D" points="768.4313,751.2305,785.3063,758.7305,777.8063,751.2305,785.3063,743.7305,768.4313,751.2305" style="stroke:#456A7D;stroke-width:2.625;"/><text fill="#29485B" font-family="sans-serif" font-size="26.25" lengthAdjust="spacing" textLength="108.75" x="853.125" y="1374.974">&#171;extend&#187;</text><text fill="#29485B" font-family="sans-serif" font-size="26.25" lengthAdjust="spacing" textLength="123.75" x="845.625" y="1407.9916">si livraison</text></g><!--link UC_RECEIVE to GMN39--><g id="link_UC_RECEIVE_GMN39"><path d="M481.6125,722.8805 C437.4375,722.8805 397.5,722.8805 397.5,722.8805 C397.5,722.8805 397.5,316.5117 397.5,182.3742 " fill="none" id="UC_RECEIVE-GMN39" style="stroke:#456A7D;stroke-width:2.625;stroke-dasharray:7.0,7.0;"/></g><!--SRC=[ZPVTRk96583l_HH7wKNQYqJXRo7Lof81EqKYG369j5AaQc8FC8gPOMV6x6QtbVeGVO1UbkVWJVeaFJOsZC5n6YcAFUSx_sSyaqlmzMj48H2hLSpXtp__Wf2HXIIh5LNWHdJJ4vpJG5kNu3_UmSym5t95D6nmJKX68-1Km-vlq2BM53HXKKIlOJ9AMFfrBQI69Kb4uMuxPvnf9lYrfLuONnDq0yyaU5b84VEm9o8XuGSl_J68SCsWrhanLjIIXE8BumkOaqXHGv8Q2eJaL4AjRWWYXd6-hYbWG4jXMgTp4aVQ4roFo8g2JxZogMJpSiPdtoZKcePmndH4AzKFHAfSloaJPSdNserwisy0ZfJYIoPijZuuxJEXeLs_RNPQtLDWjcJ12wTAGUtQ37maDEsMLB_ZTauf8KCgCy9jEMwpTK8OGRIwpKxDDUGJz44MHIEtJhVjj4kWitYQdkDzE0VDcddeib6ExAVxMKIXMPL0imtJh-VERhoEroWZpTZhNhjVh796LVOnO_gCh0GFo-hUw7Sg5Cm8-ftRLjqhpUZD87iHKQhxxcRROvNffiWlb21oPizjUWtNEOMh2kDoNTgAqy0ohZAoFLFbpTUaPEZTljVsQcTOfQyKgNBre6X0L8ap1sUwKmAQxXfkktbxSmvLvaO_nvG7TCZc-CjFDbols-pLgkXtEv1hJ8ZKB61hmlNxoPKfLIQQApZ9-VB_WzhZrHtBq3iqk3wttFQwNlzDlAIMLaJd6iyza6onr7XkIZmJyNIpTF9HXnvH45x6caLCaMGTtum35IoB9373nKE6q5XU02ez-Euqbpd1aXu4tOTFHuadOicPKYXyuZ_kjcWP7q74U3Jp41z_IdLyTpWyAZtkjdgtbOmJ33QLFxgpN3Xa6vcxweqVfWCZZ725HxVIyXYbqxyVZ2mhZGckhdwtzt7l_HaBwC1uo-mQAwaTuzrAgaZu0YjuuRyglVi7JrMZRXVmtGA8zzi1Bkum7Jph5PPtBSMSHViIzdwRJCVUOEYQB5fGU8mZdjnuY2QHMCGqL-WvCsSulZCL9l5pn12FEGN2kS1foEdXm9yLKFpCPMHoboBOWXmTJ_kOLu5zVGETE9zAaYiZxvsHStUQtPp9LP8T0RdR1dITJ5skC7Lxxk2neE4e5UVs8sm-OUh8zzqXuiMu9KwMf93yeT-kDY9MEUrC9kF1Q7RlZcOb2KHubyJgR5Y03njp1Wy6iFMFWvxhczht8ZpgP_K_ADoFiQhEh92G7wyJBqaZreJH5ULQFINtq_YunOuXfmFyXsKbOuS3Q9jJau-rRKv6ON7VrS9INkB37h0Far9Sofgttnfs8NrZpQpfST_OPdFopMCNAb9OpVPf7Z5SszcWuVtyuqV6WoWEgMrRHwiPacMJOlIhnfxRzXDNx3WgbiNnweUtAwt52iIyE6P32hzESMv32bHfK05sSBV5EOYZj3E8uDTKVOulyH-FQF_j0SPrqa4KNrle4H87_m40]--></g></svg>