<?xml version="1.0" encoding="us-ascii" standalone="no"?><svg xmlns="http://www.w3.org/2000/svg" xmlns:xlink="http://www.w3.org/1999/xlink" contentStyleType="text/css" height="1768px" preserveAspectRatio="none" style="width:1068px;height:1768px;background:#FFFFFF;" version="1.1" viewBox="0 0 1068 1768" width="1068px" zoomAndPan="magnify"><defs/><g><!--cluster Syst?me ElevConnect--><g id="cluster_Syst&#232;me ElevConnect"><rect fill="none" height="1755" rx="2.5" ry="2.5" style="stroke:#181818;stroke-width:1.0;" width="310" x="469" y="7"/><text fill="#000000" font-family="sans-serif" font-size="14" font-weight="bold" lengthAdjust="spacing" textLength="153" x="547.5" y="23.5332">Syst&#232;me ElevConnect</text></g><g id="elem_UC1"><ellipse cx="623.9889" cy="881.9034" fill="#F1F1F1" rx="81.4889" ry="27.9034" style="stroke:#181818;stroke-width:0.5;"/><text fill="#000000" font-family="sans-serif" font-size="14" lengthAdjust="spacing" textLength="91" x="578.4889" y="876.8272">S'authentifier /</text><text fill="#000000" font-family="sans-serif" font-size="14" lengthAdjust="spacing" textLength="99" x="574.4889" y="894.4366">G&#233;rer son profil</text></g><g id="elem_UC2"><ellipse cx="623.8841" cy="714.1768" fill="#F1F1F1" rx="138.8841" ry="30.1768" style="stroke:#181818;stroke-width:0.5;"/><text fill="#000000" font-family="sans-serif" font-size="14" lengthAdjust="spacing" textLength="131" x="558.3841" y="709.1007">Publier une annonce</text><text fill="#000000" font-family="sans-serif" font-size="14" lengthAdjust="spacing" textLength="195" x="526.3841" y="726.71">(animal, provende, accessoire)</text></g><g id="elem_UC2b"><ellipse cx="623.8941" cy="527.905" fill="#F1F1F1" rx="91.3941" ry="27.905" style="stroke:#181818;stroke-width:0.5;"/><text fill="#000000" font-family="sans-serif" font-size="14" lengthAdjust="spacing" textLength="113" x="566.6794" y="523.0302">D&#233;finir un bar&#232;me</text><text fill="#000000" font-family="sans-serif" font-size="14" lengthAdjust="spacing" textLength="79" x="583.6794" y="540.6396">de r&#233;duction</text></g><g id="elem_UC3"><ellipse cx="624.2412" cy="1396.9482" fill="#F1F1F1" rx="102.7412" ry="22.9482" style="stroke:#181818;stroke-width:0.5;"/><text fill="#000000" font-family="sans-serif" font-size="14" lengthAdjust="spacing" textLength="167" x="540.7412" y="1400.6768">Rechercher des annonces</text></g><g id="elem_UC4"><ellipse cx="624.0158" cy="83.8551" fill="#F1F1F1" rx="114.0158" ry="40.3551" style="stroke:#181818;stroke-width:0.5;"/><text fill="#000000" font-family="sans-serif" font-size="14" lengthAdjust="spacing" textLength="145" x="551.5158" y="69.9743">Passer une commande</text><text fill="#000000" font-family="sans-serif" font-size="14" lengthAdjust="spacing" textLength="122" x="563.0158" y="87.5836">(choisir livraison ou</text><text fill="#000000" font-family="sans-serif" font-size="14" lengthAdjust="spacing" textLength="81" x="583.5158" y="105.193">retrait direct)</text></g><g id="elem_UC4b"><ellipse cx="624.0213" cy="204.9719" fill="#F1F1F1" rx="106.5213" ry="27.9719" style="stroke:#181818;stroke-width:0.5;"/><text fill="#000000" font-family="sans-serif" font-size="14" lengthAdjust="spacing" textLength="134" x="554.0213" y="200.6838">Effectuer le paiement</text><text fill="#000000" font-family="sans-serif" font-size="14" lengthAdjust="spacing" textLength="73" x="584.5213" y="218.2931">(s&#233;questre)</text></g><g id="elem_UC5"><ellipse cx="624.0987" cy="620.0197" fill="#F1F1F1" rx="133.0987" ry="29.0197" style="stroke:#181818;stroke-width:0.5;"/><text fill="#000000" font-family="sans-serif" font-size="14" lengthAdjust="spacing" textLength="178" x="532.0987" y="615.7316">G&#233;rer une commande re&#231;ue</text><text fill="#000000" font-family="sans-serif" font-size="14" lengthAdjust="spacing" textLength="105" x="568.5987" y="633.341">(valider / rejeter)</text></g><g id="elem_UC5b"><ellipse cx="623.9802" cy="320.8068" fill="#F1F1F1" rx="110.4802" ry="52.8068" style="stroke:#181818;stroke-width:0.5;"/><text fill="#000000" font-family="sans-serif" font-size="14" lengthAdjust="spacing" textLength="140" x="553.9802" y="298.1213">Confirmer la r&#233;ception</text><text fill="#000000" font-family="sans-serif" font-size="14" lengthAdjust="spacing" textLength="131" x="558.4802" y="315.7307">(scanner le QR code</text><text fill="#000000" font-family="sans-serif" font-size="14" lengthAdjust="spacing" textLength="108" x="569.9802" y="333.34">si livraison, sinon</text><text fill="#000000" font-family="sans-serif" font-size="14" lengthAdjust="spacing" textLength="129" x="559.4802" y="350.9494">confirmation directe)</text></g><g id="elem_UC6"><ellipse cx="623.8461" cy="1310.9281" fill="#F1F1F1" rx="97.8461" ry="27.9281" style="stroke:#181818;stroke-width:0.5;"/><text fill="#000000" font-family="sans-serif" font-size="14" lengthAdjust="spacing" textLength="122" x="559.8636" y="1306.6358">G&#233;rer son planning</text><text fill="#000000" font-family="sans-serif" font-size="14" lengthAdjust="spacing" textLength="94" x="573.8636" y="1324.2452">de disponibilit&#233;</text></g><g id="elem_UC6b"><ellipse cx="623.8193" cy="1227.9639" fill="#F1F1F1" rx="87.8193" ry="19.9639" style="stroke:#181818;stroke-width:0.5;"/><text fill="#000000" font-family="sans-serif" font-size="14" lengthAdjust="spacing" textLength="133" x="557.3193" y="1231.6924">Assurer une livraison</text></g><g id="elem_UC7"><ellipse cx="623.7984" cy="436.9685" fill="#F1F1F1" rx="105.7984" ry="27.9685" style="stroke:#181818;stroke-width:0.5;"/><text fill="#000000" font-family="sans-serif" font-size="14" lengthAdjust="spacing" textLength="133" x="554.2984" y="432.6804">Prendre rendez-vous</text><text fill="#000000" font-family="sans-serif" font-size="14" lengthAdjust="spacing" textLength="67" x="587.2984" y="450.2898">v&#233;t&#233;rinaire</text></g><g id="elem_UC7b"><ellipse cx="624.1836" cy="1063.9176" fill="#F1F1F1" rx="95.6836" ry="27.9176" style="stroke:#181818;stroke-width:0.5;"/><text fill="#000000" font-family="sans-serif" font-size="14" lengthAdjust="spacing" textLength="119" x="562.4754" y="1059.4351">G&#233;rer ses services</text><text fill="#000000" font-family="sans-serif" font-size="14" lengthAdjust="spacing" textLength="47" x="598.4754" y="1077.0444">et tarifs</text></g><g id="elem_UC8"><ellipse cx="623.8975" cy="1150.1795" fill="#F1F1F1" rx="101.3975" ry="22.6795" style="stroke:#181818;stroke-width:0.5;"/><text fill="#000000" font-family="sans-serif" font-size="14" lengthAdjust="spacing" textLength="164" x="541.8975" y="1153.908">Confirmer un rendez-vous</text></g><g id="elem_UC9"><ellipse cx="624.0415" cy="973.0484" fill="#F1F1F1" rx="126.0415" ry="28.0484" style="stroke:#181818;stroke-width:0.5;"/><text fill="#000000" font-family="sans-serif" font-size="14" lengthAdjust="spacing" textLength="161" x="540.5415" y="968.7603">Souscrire &#224; l'abonnement</text><text fill="#000000" font-family="sans-serif" font-size="14" lengthAdjust="spacing" textLength="112" x="565.0415" y="986.3697">Premium (payant)</text></g><g id="elem_UC11"><ellipse cx="624.0397" cy="1478.8079" fill="#F1F1F1" rx="104.5397" ry="23.3079" style="stroke:#181818;stroke-width:0.5;"/><text fill="#000000" font-family="sans-serif" font-size="14" lengthAdjust="spacing" textLength="171" x="538.5397" y="1482.5365">Laisser une note et un avis</text></g><g id="elem_UC12"><ellipse cx="624.1163" cy="799.1233" fill="#F1F1F1" rx="86.1163" ry="19.6233" style="stroke:#181818;stroke-width:0.5;"/><text fill="#000000" font-family="sans-serif" font-size="14" lengthAdjust="spacing" textLength="129" x="559.6163" y="802.8518">Publier une actualit&#233;</text></g><g id="elem_UC13"><ellipse cx="623.7628" cy="1650.1526" fill="#F1F1F1" rx="91.2628" ry="20.6526" style="stroke:#181818;stroke-width:0.5;"/><text fill="#000000" font-family="sans-serif" font-size="14" lengthAdjust="spacing" textLength="141" x="553.2628" y="1653.8811">Mod&#233;rer les annonces</text></g><g id="elem_UC14"><ellipse cx="623.9661" cy="1725.7932" fill="#F1F1F1" rx="86.9661" ry="19.7932" style="stroke:#181818;stroke-width:0.5;"/><text fill="#000000" font-family="sans-serif" font-size="14" lengthAdjust="spacing" textLength="131" x="558.4661" y="1729.5217">G&#233;rer les utilisateurs</text></g><g id="elem_UC15"><ellipse cx="624.1901" cy="1565.9817" fill="#F1F1F1" rx="108.6901" ry="27.9817" style="stroke:#181818;stroke-width:0.5;"/><text fill="#000000" font-family="sans-serif" font-size="14" lengthAdjust="spacing" textLength="137" x="552.6901" y="1561.6936">Superviser paiements</text><text fill="#000000" font-family="sans-serif" font-size="14" lengthAdjust="spacing" textLength="89" x="576.6901" y="1579.303">et versements</text></g><!--entity Ele--><g id="elem_Ele"><ellipse cx="169.5" cy="393.5" fill="#F1F1F1" rx="8" ry="8" style="stroke:#181818;stroke-width:0.5;"/><path d="M169.5,401.5 L169.5,428.5 M156.5,409.5 L182.5,409.5 M169.5,428.5 L156.5,443.5 M169.5,428.5 L182.5,443.5 " fill="none" style="stroke:#181818;stroke-width:0.5;"/><text fill="#000000" font-family="sans-serif" font-size="14" lengthAdjust="spacing" textLength="48" x="145.5" y="459.5332">&#201;leveur</text></g><!--entity Ach--><g id="elem_Ach"><ellipse cx="34.5" cy="710.5" fill="#F1F1F1" rx="8" ry="8" style="stroke:#181818;stroke-width:0.5;"/><path d="M34.5,718.5 L34.5,745.5 M21.5,726.5 L47.5,726.5 M34.5,745.5 L21.5,760.5 M34.5,745.5 L47.5,760.5 " fill="none" style="stroke:#181818;stroke-width:0.5;"/><text fill="#000000" font-family="sans-serif" font-size="14" lengthAdjust="spacing" textLength="57" x="6" y="776.5332">Acheteur</text></g><!--entity VenP--><g id="elem_VenP"><ellipse cx="169.5" cy="572" fill="#F1F1F1" rx="8" ry="8" style="stroke:#181818;stroke-width:0.5;"/><path d="M169.5,580 L169.5,607 M156.5,588 L182.5,588 M169.5,607 L156.5,622 M169.5,607 L182.5,622 " fill="none" style="stroke:#181818;stroke-width:0.5;"/><text fill="#000000" font-family="sans-serif" font-size="14" lengthAdjust="spacing" textLength="74" x="132.5" y="638.0332">Vendeur de</text><text fill="#000000" font-family="sans-serif" font-size="14" lengthAdjust="spacing" textLength="60" x="132.5" y="655.6426">provende</text></g><!--entity VenA--><g id="elem_VenA"><ellipse cx="169.5" cy="702" fill="#F1F1F1" rx="8" ry="8" style="stroke:#181818;stroke-width:0.5;"/><path d="M169.5,710 L169.5,737 M156.5,718 L182.5,718 M169.5,737 L156.5,752 M169.5,737 L182.5,752 " fill="none" style="stroke:#181818;stroke-width:0.5;"/><text fill="#000000" font-family="sans-serif" font-size="14" lengthAdjust="spacing" textLength="54" x="126.5" y="768.0332">Vendeur</text><text fill="#000000" font-family="sans-serif" font-size="14" lengthAdjust="spacing" textLength="86" x="126.5" y="785.6426">d'accessoires</text></g><!--entity Vet--><g id="elem_Vet"><ellipse cx="169.5" cy="1167.5" fill="#F1F1F1" rx="8" ry="8" style="stroke:#181818;stroke-width:0.5;"/><path d="M169.5,1175.5 L169.5,1202.5 M156.5,1183.5 L182.5,1183.5 M169.5,1202.5 L156.5,1217.5 M169.5,1202.5 L182.5,1217.5 " fill="none" style="stroke:#181818;stroke-width:0.5;"/><text fill="#000000" font-family="sans-serif" font-size="14" lengthAdjust="spacing" textLength="69" x="135" y="1233.5332">V&#233;t&#233;rinaire</text></g><!--entity Liv--><g id="elem_Liv"><ellipse cx="169.5" cy="1280.5" fill="#F1F1F1" rx="8" ry="8" style="stroke:#181818;stroke-width:0.5;"/><path d="M169.5,1288.5 L169.5,1315.5 M156.5,1296.5 L182.5,1296.5 M169.5,1315.5 L156.5,1330.5 M169.5,1315.5 L182.5,1330.5 " fill="none" style="stroke:#181818;stroke-width:0.5;"/><text fill="#000000" font-family="sans-serif" font-size="14" lengthAdjust="spacing" textLength="44" x="147.5" y="1346.5332">Livreur</text></g><!--entity Adm--><g id="elem_Adm"><ellipse cx="169.5" cy="1600.5" fill="#F1F1F1" rx="8" ry="8" style="stroke:#181818;stroke-width:0.5;"/><path d="M169.5,1608.5 L169.5,1635.5 M156.5,1616.5 L182.5,1616.5 M169.5,1635.5 L156.5,1650.5 M169.5,1635.5 L182.5,1650.5 " fill="none" style="stroke:#181818;stroke-width:0.5;"/><text fill="#000000" font-family="sans-serif" font-size="14" lengthAdjust="spacing" textLength="91" x="124" y="1666.5332">Administrateur</text></g><g id="elem_GMN39"><path d="M826,927 L826,969 L750.03,973 L826,977 L826,1018.7578 A0,0 0 0 0 826,1018.7578 L1061,1018.7578 A0,0 0 0 0 1061,1018.7578 L1061,937 L1051,927 L826,927 A0,0 0 0 0 826,927 " fill="#FEFFDD" style="stroke:#181818;stroke-width:0.5;"/><path d="M1051,927 L1051,937 L1061,937 L1051,927 " fill="#FEFFDD" style="stroke:#181818;stroke-width:0.5;"/><text fill="#000000" font-family="sans-serif" font-size="13" lengthAdjust="spacing" textLength="155" x="832" y="945.4951">R&#233;serv&#233; au r&#244;le v&#233;t&#233;rinaire.</text><text fill="#000000" font-family="sans-serif" font-size="13" lengthAdjust="spacing" textLength="188" x="832" y="961.8467">La formule Basique (gratuite) est</text><text fill="#000000" font-family="sans-serif" font-size="13" lengthAdjust="spacing" textLength="214" x="832" y="978.1982">attribu&#233;e par d&#233;faut ; seul le passage</text><text fill="#000000" font-family="sans-serif" font-size="13" lengthAdjust="spacing" textLength="183" x="832" y="994.5498">&#224; la formule Premium n&#233;cessite</text><text fill="#000000" font-family="sans-serif" font-size="13" lengthAdjust="spacing" textLength="107" x="832" y="1010.9014">cette souscription.</text></g><!--reverse link Ach to Ele--><g id="link_Ach_Ele"><path d="M59.71,683.29 C86.5,619.43 128.94,518.29 152.1,463.1 " fill="none" id="Ach-backto-Ele" style="stroke:#181818;stroke-width:1.0;"/><polygon fill="none" points="66.13,686.08,51.94,701.81,53.22,680.66,66.13,686.08" style="stroke:#181818;stroke-width:1.0;"/></g><!--reverse link Ach to VenP--><g id="link_Ach_VenP"><path d="M77.42,700.02 C95.07,682.77 115.41,662.89 132.39,646.3 " fill="none" id="Ach-backto-VenP" style="stroke:#181818;stroke-width:1.0;"/><polygon fill="none" points="82.25,705.09,63.06,714.06,72.47,695.08,82.25,705.09" style="stroke:#181818;stroke-width:1.0;"/></g><!--reverse link Ach to VenA--><g id="link_Ach_VenA"><path d="M83.14,741 C97.24,741 112.57,741 126.3,741 " fill="none" id="Ach-backto-VenA" style="stroke:#181818;stroke-width:1.0;"/><polygon fill="none" points="83.06,748,63.06,741,83.06,734,83.06,748" style="stroke:#181818;stroke-width:1.0;"/></g><!--reverse link Ach to Vet--><g id="link_Ach_Vet"><path d="M39.22,800.54 C45.99,895.46 62.49,1076.06 93,1132 C102.84,1150.04 119.64,1165.47 134.91,1176.86 " fill="none" id="Ach-backto-Vet" style="stroke:#181818;stroke-width:1.0;"/><polygon fill="none" points="32.22,800.73,37.84,780.3,46.19,799.77,32.22,800.73" style="stroke:#181818;stroke-width:1.0;"/></g><!--reverse link Ach to Liv--><g id="link_Ach_Liv"><path d="M41.76,800.4 C50.54,878.7 68.24,1020.51 93,1140 C103.65,1191.41 100.49,1207.05 124,1254 C130.13,1266.24 139.1,1278.39 147.39,1288.3 " fill="none" id="Ach-backto-Liv" style="stroke:#181818;stroke-width:1.0;"/><polygon fill="none" points="34.75,800.72,39.52,780.07,48.67,799.19,34.75,800.72" style="stroke:#181818;stroke-width:1.0;"/></g><!--link Ele to UC1--><g id="link_Ele_UC1"><path d="M186.08,463.18 C195.2,486.91 206.54,517.94 215,546 C231.48,600.7 207.16,628.19 245,671 C310.38,744.98 393.1,670.51 453,749 C464.78,764.43 448.6,821.06 461,836 C479.98,858.86 509.42,870.82 538.02,876.93 " fill="none" id="Ele-to-UC1" style="stroke:#181818;stroke-width:1.0;"/><polygon fill="#181818" points="542.97,877.93,534.9356,872.2336,538.0682,876.9439,533.3579,880.0765,542.97,877.93" style="stroke:#181818;stroke-width:1.0;"/></g><!--link Ele to UC2--><g id="link_Ele_UC2"><path d="M193.72,420.25 C248.68,412.84 387.08,403.15 453,480 C466.47,495.7 448.27,649.69 461,666 C471.39,679.31 485.29,689.06 500.61,696.17 " fill="none" id="Ele-to-UC2" style="stroke:#181818;stroke-width:1.0;"/><polygon fill="#181818" points="505.4,698.3,498.796,690.9933,500.8298,696.272,495.5511,698.3057,505.4,698.3" style="stroke:#181818;stroke-width:1.0;"/></g><!--link Ele to UC2b--><g id="link_Ele_UC2b"><path d="M179.08,384.9 C188.8,351.06 208.31,304.18 245,282 C324.11,234.17 386.34,217.95 453,282 C469.04,297.41 447.24,464.53 461,482 C477.53,503 502.91,514.86 528.71,521.44 " fill="none" id="Ele-to-UC2b" style="stroke:#181818;stroke-width:1.0;"/><polygon fill="#181818" points="533.88,522.69,526.0687,516.6914,529.0194,521.5177,524.193,524.4684,533.88,522.69" style="stroke:#181818;stroke-width:1.0;"/></g><!--link Ele to UC5--><g id="link_Ele_UC5"><path d="M193.7,411.65 C247.43,384.92 381.24,329.45 453,398 C467.07,411.45 448.96,557.71 461,573 C471.84,586.76 486.45,596.66 502.49,603.74 " fill="none" id="Ele-to-UC5" style="stroke:#181818;stroke-width:1.0;"/><polygon fill="#181818" points="507.51,605.85,500.7675,598.6709,502.9018,603.9097,497.6631,606.044,507.51,605.85" style="stroke:#181818;stroke-width:1.0;"/></g><!--link Ele to UC7--><g id="link_Ele_UC7"><path d="M174.02,384.62 C180.25,341.11 197.47,272.97 245,241 C321.71,189.41 385.91,177.4 453,241 C465.11,252.48 450.59,377.96 461,391 C475.24,408.84 495.87,420.08 517.67,427.08 " fill="none" id="Ele-to-UC7" style="stroke:#181818;stroke-width:1.0;"/><polygon fill="#181818" points="522.63,428.6,515.1853,422.152,517.8468,427.1436,512.8551,429.8051,522.63,428.6" style="stroke:#181818;stroke-width:1.0;"/></g><!--link Ele to UC12--><g id="link_Ele_UC12"><path d="M193.59,455.63 C207.5,473.67 226.12,496.17 245,514 C328.44,592.79 396.9,566.89 453,667 C463.25,685.29 447.29,745.14 461,761 C478.96,781.78 505.93,792.37 532.73,797.47 " fill="none" id="Ele-to-UC12" style="stroke:#181818;stroke-width:1.0;"/><polygon fill="#181818" points="537.73,798.36,529.5822,792.8271,532.8093,797.4731,528.1632,800.7002,537.73,798.36" style="stroke:#181818;stroke-width:1.0;"/></g><!--link VenP to UC1--><g id="link_VenP_UC1"><path d="M206.69,658.14 C209.94,663.94 212.82,669.95 215,676 C239.68,744.44 191.25,952.97 245,1002 C279.15,1033.15 418.63,1032.9 453,1002 C465.46,990.79 450.16,939.79 461,927 C480.18,904.37 509.66,892.62 538.24,886.67 " fill="none" id="VenP-to-UC1" style="stroke:#181818;stroke-width:1.0;"/><polygon fill="#181818" points="543.19,885.69,533.5852,883.5112,538.2849,886.6596,535.1365,891.3594,543.19,885.69" style="stroke:#181818;stroke-width:1.0;"/></g><!--link VenP to UC2--><g id="link_VenP_UC2"><path d="M206.77,619.25 C274.51,634.68 422.47,668.36 522.45,691.11 " fill="none" id="VenP-to-UC2" style="stroke:#181818;stroke-width:1.0;"/><polygon fill="#181818" points="527.48,692.26,519.5985,686.3539,522.6059,691.1451,517.8147,694.1525,527.48,692.26" style="stroke:#181818;stroke-width:1.0;"/></g><!--link VenP to UC2b--><g id="link_VenP_UC2b"><path d="M187.63,563.36 C196.29,538.64 206.68,507.85 215,480 C230.24,428.98 202.89,396.6 245,364 C318.09,307.4 385.46,300.88 453,364 C472.2,381.94 444.46,461.58 461,482 C477.82,502.76 503.29,514.57 529.07,521.16 " fill="none" id="VenP-to-UC2b" style="stroke:#181818;stroke-width:1.0;"/><polygon fill="#181818" points="534.23,522.41,526.4354,516.3897,529.3726,521.2242,524.5381,524.1615,534.23,522.41" style="stroke:#181818;stroke-width:1.0;"/></g><!--link VenP to UC5--><g id="link_VenP_UC5"><path d="M185.7,563.4 C197.24,535.78 216.15,503.32 245,487 C325.46,441.48 384.67,424.73 453,487 C467.19,499.93 448.77,558.2 461,573 C472.34,586.72 487.43,596.58 503.84,603.63 " fill="none" id="VenP-to-UC5" style="stroke:#181818;stroke-width:1.0;"/><polygon fill="#181818" points="508.51,605.54,501.7109,598.4145,503.8866,603.6363,498.6649,605.812,508.51,605.54" style="stroke:#181818;stroke-width:1.0;"/></g><!--link VenP to UC12--><g id="link_VenP_UC12"><path d="M206.86,652.21 C218.22,663.33 231.38,674.59 245,683 C328.37,734.45 364.7,713.56 453,756 C456.78,757.82 457.13,759.39 461,761 C488.49,772.45 520.11,780.84 548.08,786.77 " fill="none" id="VenP-to-UC12" style="stroke:#181818;stroke-width:1.0;"/><polygon fill="#181818" points="553.25,787.85,545.2637,782.0864,548.3566,786.8228,543.6202,789.9158,553.25,787.85" style="stroke:#181818;stroke-width:1.0;"/></g><!--link VenA to UC1--><g id="link_VenA_UC1"><path d="M175.19,788.51 C183.88,865.47 205.3,1011.91 245,1043 C281.39,1071.5 419.21,1074.54 453,1043 C471.89,1025.37 444.67,947.02 461,927 C479.75,904.02 509.14,892.19 537.77,886.28 " fill="none" id="VenA-to-UC1" style="stroke:#181818;stroke-width:1.0;"/><polygon fill="#181818" points="542.73,885.32,533.1313,883.1144,537.8222,886.2759,534.6607,890.9668,542.73,885.32" style="stroke:#181818;stroke-width:1.0;"/></g><!--link VenA to UC2--><g id="link_VenA_UC2"><path d="M212.66,738.48 C274.2,734.81 391.46,727.82 484.92,722.24 " fill="none" id="VenA-to-UC2" style="stroke:#181818;stroke-width:1.0;"/><polygon fill="#181818" points="489.91,721.94,480.6866,718.4862,484.919,722.2395,481.1657,726.4718,489.91,721.94" style="stroke:#181818;stroke-width:1.0;"/></g><!--link VenA to UC2b--><g id="link_VenA_UC2b"><path d="M206.54,693.35 C209.77,687.7 212.69,681.85 215,676 C231.18,635.02 211.57,508.7 245,480 C315.14,419.78 361.43,467.32 453,480 C455.66,480.37 506.18,494.67 551.46,507.56 " fill="none" id="VenA-to-UC2b" style="stroke:#181818;stroke-width:1.0;"/><polygon fill="#181818" points="556.39,508.97,548.8352,502.6514,551.5824,507.5964,546.6374,510.3436,556.39,508.97" style="stroke:#181818;stroke-width:1.0;"/></g><!--link VenA to UC5--><g id="link_VenA_UC5"><path d="M212.73,718.53 C223.09,713.6 234.29,708.74 245,705 C332.47,674.49 435.23,652.2 511.51,638.12 " fill="none" id="VenA-to-UC5" style="stroke:#181818;stroke-width:1.0;"/><polygon fill="#181818" points="516.5,637.21,506.9202,634.9237,511.5843,638.1245,508.3835,642.7887,516.5,637.21" style="stroke:#181818;stroke-width:1.0;"/></g><!--link VenA to UC12--><g id="link_VenA_UC12"><path d="M212.53,781.29 C222.46,788.55 233.53,795.06 245,799 C347.49,834.19 475.03,823.98 552.66,812.3 " fill="none" id="VenA-to-UC12" style="stroke:#181818;stroke-width:1.0;"/><polygon fill="#181818" points="557.7,811.53,548.1981,808.9388,552.7576,812.2871,549.4094,816.8466,557.7,811.53" style="stroke:#181818;stroke-width:1.0;"/></g><!--link Vet to UC1--><g id="link_Vet_UC1"><path d="M204.13,1194.42 C275.46,1186.49 436.76,1166.67 453,1148 C469.13,1129.46 445.78,946.29 461,927 C479.46,903.6 508.96,891.71 537.76,885.87 " fill="none" id="Vet-to-UC1" style="stroke:#181818;stroke-width:1.0;"/><polygon fill="#181818" points="542.75,884.92,533.1563,882.6926,537.8401,885.8648,534.6679,890.5485,542.75,884.92" style="stroke:#181818;stroke-width:1.0;"/></g><!--link Vet to UC7b--><g id="link_Vet_UC7b"><path d="M204.4,1217.78 C263.31,1249.27 384.78,1301.05 453,1237 C473.61,1217.64 443.25,1132.01 461,1110 C477.09,1090.05 501.15,1078.37 525.84,1071.63 " fill="none" id="Vet-to-UC7b" style="stroke:#181818;stroke-width:1.0;"/><polygon fill="#181818" points="530.78,1070.35,521.0682,1068.7128,525.9369,1071.5929,523.0568,1076.4617,530.78,1070.35" style="stroke:#181818;stroke-width:1.0;"/></g><!--link Vet to UC8--><g id="link_Vet_UC8"><path d="M204.08,1236.48 C208.11,1242.14 211.89,1248.06 215,1254 C236.35,1294.72 208.08,1325.61 245,1353 C282.12,1380.54 419.52,1384.87 453,1353 C466.13,1340.5 449.47,1204 461,1190 C475.64,1172.22 496.8,1161.63 519.03,1155.47 " fill="none" id="Vet-to-UC8" style="stroke:#181818;stroke-width:1.0;"/><polygon fill="#181818" points="524.09,1154.15,514.3693,1152.5665,519.2539,1155.4197,516.4007,1160.3043,524.09,1154.15" style="stroke:#181818;stroke-width:1.0;"/></g><!--link Vet to UC9--><g id="link_Vet_UC9"><path d="M204.37,1209.7 C263.79,1227.84 386.76,1254.26 453,1189 C466.55,1175.65 449.14,1032.87 461,1018 C472.4,1003.71 487.91,993.72 504.84,986.78 " fill="none" id="Vet-to-UC9" style="stroke:#181818;stroke-width:1.0;"/><polygon fill="#181818" points="509.66,984.9,499.8219,984.4398,505.0011,986.715,502.7259,991.8941,509.66,984.9" style="stroke:#181818;stroke-width:1.0;"/></g><!--link Vet to UC12--><g id="link_Vet_UC12"><path d="M174.62,1158.97 C183.38,1083.66 206.25,922.3 245,884 C256.02,873.11 447.14,833.83 553.29,812.7 " fill="none" id="Vet-to-UC12" style="stroke:#181818;stroke-width:1.0;"/><polygon fill="#181818" points="558.28,811.7,548.6691,809.5481,553.3776,812.6833,550.2424,817.3919,558.28,811.7" style="stroke:#181818;stroke-width:1.0;"/></g><!--link Adm to UC1--><g id="link_Adm_UC1"><path d="M215.16,1592.52 C281.66,1531.98 404.13,1407.29 453,1271 C459.45,1253.01 449.26,942.08 461,927 C479.31,903.49 508.78,891.57 537.6,885.74 " fill="none" id="Adm-to-UC1" style="stroke:#181818;stroke-width:1.0;"/><polygon fill="#181818" points="542.59,884.79,532.9963,882.5626,537.6801,885.7348,534.5079,890.4185,542.59,884.79" style="stroke:#181818;stroke-width:1.0;"/></g><!--link Adm to UC12--><g id="link_Adm_UC12"><path d="M178.27,1591.8 C188.2,1540.39 205.25,1447.29 215,1367 C220.39,1322.65 215.59,999.63 245,966 C307.2,894.87 390.16,992.57 453,922 C465.76,907.67 448.35,850.44 461,836 C479.08,815.37 506.07,804.96 532.87,800.02 " fill="none" id="Adm-to-UC12" style="stroke:#181818;stroke-width:1.0;"/><polygon fill="#181818" points="537.87,799.16,528.3245,796.7343,532.9415,800.0028,529.6731,804.6199,537.87,799.16" style="stroke:#181818;stroke-width:1.0;"/></g><!--link Adm to UC13--><g id="link_Adm_UC13"><path d="M215.13,1632.87 C287.63,1635.92 432.56,1642 528.68,1646.04 " fill="none" id="Adm-to-UC13" style="stroke:#181818;stroke-width:1.0;"/><polygon fill="#181818" points="533.79,1646.25,524.9701,1641.8672,528.7946,1646.0353,524.6265,1649.8598,533.79,1646.25" style="stroke:#181818;stroke-width:1.0;"/></g><!--link Adm to UC14--><g id="link_Adm_UC14"><path d="M215.29,1643.54 C225.05,1646.13 235.35,1648.75 245,1651 C350.36,1675.57 473.43,1699.02 549.8,1712.97 " fill="none" id="Adm-to-UC14" style="stroke:#181818;stroke-width:1.0;"/><polygon fill="#181818" points="554.77,1713.87,546.635,1708.3183,549.8513,1712.9718,545.1979,1716.1882,554.77,1713.87" style="stroke:#181818;stroke-width:1.0;"/></g><!--link Adm to UC15--><g id="link_Adm_UC15"><path d="M215.24,1619.32 C225,1617.02 235.31,1614.77 245,1613 C335.85,1596.43 440.07,1583.95 516.03,1576.03 " fill="none" id="Adm-to-UC15" style="stroke:#181818;stroke-width:1.0;"/><polygon fill="#181818" points="521.45,1575.47,512.0862,1572.4173,516.4765,1575.9845,512.9094,1580.3749,521.45,1575.47" style="stroke:#181818;stroke-width:1.0;"/></g><!--link Ach to UC1--><g id="link_Ach_UC1"><path d="M46.44,780.28 C69.29,853.77 129.76,1010.35 245,1074 C325.92,1118.69 385.88,1137.57 453,1074 C464.88,1062.75 450.75,939.75 461,927 C479.67,903.77 509.22,891.92 537.99,886.05 " fill="none" id="Ach-to-UC1" style="stroke:#181818;stroke-width:1.0;"/><polygon fill="#181818" points="542.97,885.09,533.3713,882.8844,538.0622,886.0459,534.9007,890.7368,542.97,885.09" style="stroke:#181818;stroke-width:1.0;"/></g><!--link Ach to UC3--><g id="link_Ach_UC3"><path d="M37.54,780.17 C44.36,900.7 69.08,1264.12 124,1367 C158.09,1430.85 177.43,1450.05 245,1476 C331.3,1509.14 381.21,1534.25 453,1476 C466.4,1465.13 449.04,1450.45 461,1438 C476.88,1421.46 498.39,1411.23 520.55,1404.98 " fill="none" id="Ach-to-UC3" style="stroke:#181818;stroke-width:1.0;"/><polygon fill="#181818" points="525.58,1403.63,515.8496,1402.1073,520.7519,1404.9299,517.9294,1409.8322,525.58,1403.63" style="stroke:#181818;stroke-width:1.0;"/></g><!--link Ach to UC4--><g id="link_Ach_UC4"><path d="M36.34,701.65 C39.6,586.69 54.92,254.58 124,176 C219.2,67.7 396.68,60.28 512.29,69.01 " fill="none" id="Ach-to-UC4" style="stroke:#181818;stroke-width:1.0;"/><polygon fill="#181818" points="517.4,69.41,508.7353,64.7277,512.4149,69.0243,508.1183,72.7039,517.4,69.41" style="stroke:#181818;stroke-width:1.0;"/></g><!--link Ach to UC4b--><g id="link_Ach_UC4b"><path d="M38.15,701.69 C45.86,597.34 71.12,316.28 124,242 C211.46,119.15 303.51,139.13 453,159 C486.37,163.44 522.49,172.57 552.81,181.53 " fill="none" id="Ach-to-UC4b" style="stroke:#181818;stroke-width:1.0;"/><polygon fill="#181818" points="557.63,182.97,550.1677,176.5423,552.8428,181.5267,547.8585,184.2018,557.63,182.97" style="stroke:#181818;stroke-width:1.0;"/></g><!--link Ach to UC5b--><g id="link_Ach_UC5b"><path d="M35.14,701.9 C36.62,594.29 57.95,295.46 245,200 C327.34,157.98 382.66,140.02 453,200 C470.12,214.6 447.23,232.2 461,250 C476.32,269.81 498.32,284.21 521.19,294.63 " fill="none" id="Ach-to-UC5b" style="stroke:#181818;stroke-width:1.0;"/><polygon fill="#181818" points="525.78,296.66,519.176,289.3533,521.2098,294.632,515.9311,296.6657,525.78,296.66" style="stroke:#181818;stroke-width:1.0;"/></g><!--link Ach to UC11--><g id="link_Ach_UC11"><path d="M34.89,780.21 C33.58,916.2 36.1,1365.12 124,1472 C217.74,1585.99 306.31,1533.2 453,1517 C485.96,1513.36 521.88,1505.87 552.17,1498.49 " fill="none" id="Ach-to-UC11" style="stroke:#181818;stroke-width:1.0;"/><polygon fill="#181818" points="557.37,1497.21,547.6733,1495.4854,552.5159,1498.4092,549.5921,1503.2519,557.37,1497.21" style="stroke:#181818;stroke-width:1.0;"/></g><!--link Liv to UC1--><g id="link_Liv_UC1"><path d="M191.72,1299.68 C206.47,1292 226.69,1281.86 245,1274 C335.44,1235.16 395.41,1277.82 453,1198 C470.63,1173.57 442.42,950.71 461,927 C479.38,903.54 508.87,891.64 537.68,885.8 " fill="none" id="Liv-to-UC1" style="stroke:#181818;stroke-width:1.0;"/><polygon fill="#181818" points="542.67,884.85,533.0838,882.5906,537.7569,885.7783,534.5692,890.4515,542.67,884.85" style="stroke:#181818;stroke-width:1.0;"/></g><!--link Liv to UC6--><g id="link_Liv_UC6"><path d="M182.27,1350.01 C193.34,1379.15 213.09,1416.94 245,1435 C325.46,1480.52 384.42,1496.99 453,1435 C466.09,1423.17 449.63,1369.49 461,1356 C476.9,1337.14 499.94,1325.83 523.69,1319.14 " fill="none" id="Liv-to-UC6" style="stroke:#181818;stroke-width:1.0;"/><polygon fill="#181818" points="528.77,1317.78,519.0438,1316.2304,523.9384,1319.0665,521.1023,1323.9611,528.77,1317.78" style="stroke:#181818;stroke-width:1.0;"/></g><!--link Liv to UC6b--><g id="link_Liv_UC6b"><path d="M191.66,1340.93 C204.92,1356.99 223.54,1375.24 245,1384 C330.59,1418.94 385.48,1447.14 453,1384 C472.36,1365.9 443.79,1285.16 461,1265 C478.39,1244.64 504.46,1234.18 530.63,1229.11 " fill="none" id="Liv-to-UC6b" style="stroke:#181818;stroke-width:1.0;"/><polygon fill="#181818" points="535.87,1228.17,526.3044,1225.825,530.9488,1229.0544,527.7194,1233.6988,535.87,1228.17" style="stroke:#181818;stroke-width:1.0;"/></g><!--link Liv to UC12--><g id="link_Liv_UC12"><path d="M191.52,1290.13 C200.33,1280.07 209.73,1267.31 215,1254 C242.02,1185.74 196.23,979.87 245,925 C307.78,854.38 387.28,948.89 453,881 C467.13,866.4 446.99,850.71 461,836 C479.73,816.33 506.59,806.13 533.07,801.09 " fill="none" id="Liv-to-UC12" style="stroke:#181818;stroke-width:1.0;"/><polygon fill="#181818" points="538.01,800.2,528.4444,797.855,533.0888,801.0844,529.8594,805.7288,538.01,800.2" style="stroke:#181818;stroke-width:1.0;"/></g><!--link UC4 to UC4b--><g id="link_UC4_UC4b"><path d="M624,124.75 C624,140.03 624,157.19 624,171.71 " fill="none" id="UC4-to-UC4b" style="stroke:#181818;stroke-width:1.0;stroke-dasharray:7.0,7.0;"/><polygon fill="#181818" points="624,176.94,628,167.94,624,171.94,620,167.94,624,176.94" style="stroke:#181818;stroke-width:1.0;"/><text fill="#000000" font-family="sans-serif" font-size="13" lengthAdjust="spacing" textLength="55" x="584.5" y="156.2451">&#171;include&#187;</text></g><!--link UC4b to UC5--><g id="link_UC4b_UC5"><path d="M526.61,216.51 C502.97,223.2 479.28,233.67 461,250 C337.6,360.28 354.55,484.95 365.5,506 C393.07,559.01 452.94,587.39 508.12,602.57 " fill="none" id="UC4b-to-UC5" style="stroke:#181818;stroke-width:1.0;stroke-dasharray:7.0,7.0;"/><polygon fill="#181818" points="513.1,603.91,505.4494,597.7078,508.2719,602.6101,503.3696,605.4327,513.1,603.91" style="stroke:#181818;stroke-width:1.0;"/><text fill="#000000" font-family="sans-serif" font-size="13" lengthAdjust="spacing" textLength="55" x="321.5" y="502.4951">&#171;include&#187;</text></g><!--link UC5 to UC6b--><g id="link_UC5_UC6b"><path d="M516.98,637.32 C497.01,643.98 477.32,653.21 461,666 C312.68,782.21 263.87,933.17 290,1001 C330.72,1106.71 363.39,1132.52 461,1190 C484.69,1203.95 513.13,1212.78 539.58,1218.37 " fill="none" id="UC5-to-UC6b" style="stroke:#181818;stroke-width:1.0;stroke-dasharray:7.0,7.0;"/><polygon fill="#181818" points="544.49,1219.37,536.491,1213.6241,539.5944,1218.3537,534.8648,1221.4571,544.49,1219.37" style="stroke:#181818;stroke-width:1.0;"/><text fill="#000000" font-family="sans-serif" font-size="13" lengthAdjust="spacing" textLength="53" x="322.5" y="981.4951">&#171;extend&#187;</text><text fill="#000000" font-family="sans-serif" font-size="13" lengthAdjust="spacing" textLength="206" x="246" y="997.8467">si livraison choisie et livreur assign&#233;</text></g><!--link UC6b to UC5b--><g id="link_UC6b_UC5b"><path d="M536.5,1225.33 C509.12,1220.25 480.9,1209.96 461,1190 C321.85,1050.45 340.42,952.47 365.5,757 C386.9,590.25 351.39,518.47 461,391 C477.03,372.36 498.91,358.54 521.43,348.34 " fill="none" id="UC6b-to-UC5b" style="stroke:#181818;stroke-width:1.0;stroke-dasharray:7.0,7.0;"/><polygon fill="#181818" points="526.25,346.22,516.4012,346.1885,521.6745,348.2361,519.6269,353.5094,526.25,346.22" style="stroke:#181818;stroke-width:1.0;"/><text fill="#000000" font-family="sans-serif" font-size="13" lengthAdjust="spacing" textLength="55" x="321.5" y="771.4951">&#171;include&#187;</text></g><!--link UC2 to UC13--><g id="link_UC2_UC13"><path d="M509.47,731.29 C491.42,738.35 474.34,748.23 461,762 C343.73,883.06 386.9,961.82 365.5,1129 C337.78,1345.62 309.06,1454.14 461,1611 C478.84,1629.42 503.71,1639.78 528.66,1645.44 " fill="none" id="UC2-to-UC13" style="stroke:#181818;stroke-width:1.0;stroke-dasharray:7.0,7.0;"/><polygon fill="#181818" points="533.65,1646.52,525.6798,1640.7341,528.7595,1645.4792,524.0145,1648.5589,533.65,1646.52" style="stroke:#181818;stroke-width:1.0;"/><text fill="#000000" font-family="sans-serif" font-size="13" lengthAdjust="spacing" textLength="55" x="321.5" y="1143.4951">&#171;include&#187;</text></g><!--link UC7 to UC7b--><g id="link_UC7_UC7b"><path d="M525.76,447.6 C502.14,454.3 478.66,465 461,482 C360.92,578.38 387.75,642.69 366.5,780 C349.09,892.47 375.44,942.95 461,1018 C480.27,1034.91 505.32,1045.63 529.98,1052.43 " fill="none" id="UC7-to-UC7b" style="stroke:#181818;stroke-width:1.0;stroke-dasharray:7.0,7.0;"/><polygon fill="#181818" points="534.91,1053.73,527.2252,1047.5701,530.0748,1052.4568,525.1881,1055.3064,534.91,1053.73" style="stroke:#181818;stroke-width:1.0;"/><text fill="#000000" font-family="sans-serif" font-size="13" lengthAdjust="spacing" textLength="53" x="322.5" y="794.4951">&#171;extend&#187;</text></g><!--SRC=[TLNDRjms4BxhAGXVx0AsWzsrl4aJBA2wGIykuDf8JtkX96gNYKIg_17g_Zn0twAtPEzz0xrOFugYbiew1m4pd9blFiuFLRFA42E9uhkz8ILNh31SYaH_ugAbYZQafSKdkcDFvhbcn9cfsDKiIMXXf29d_JyrwvXLPuHgyXw6yJmhzio4SoZX_5ScIXoJacr5gsJdrC47XeUldBQYFAT5mRIM8AQ3MpQvzGVJ7nGN5ERHQeBnddSgv8SyyIeRBhWsYXxPbKsIW3gviktLNvk1hMFpbPxDTHEhI12hoLGdSlRqh4t_fM6kEDsT50AcC_9dGeZLhA3QkPnJQ_PC65vnfiYhhVW9ruAafI0eKiNhWUY7kqKSzc3pslbRmGWLGee2DRsWWZUqlYIXk9VaMCBlHfXb3FDZVwXG4eT3SgeSLnGUlUuFfHsc8KJbSTWZGuUL-z1B7GZeqNSr8qgr7daMicceSCs_AFQIQwIjqIZAtLMbtGh5q1eUHZ4GledXtbSLJ1Q8g6zBEMjGEW3g_l2RPMZjTC-R6UEng34D37J_sJes7QrvwOgFeu-ON1KmqXW2_QkuQbngwWfKiDOLo2KlK05FwPT7uBihQdwyt2NHN3ZFmaDG5pVUSkARliHt688Qw5piXiQKNBTIy9pN7EC_Xjx6aPdMDbnrOX0SPpaU56P4kJe0-O-hJbgz5Tt9NdsuMx_437r7OpkElcy5Di9GnQim0klyvSfXpA9ie_FhsJxWl538JVf_INrESxSrlidWst3Ra8kMFbCnpSUREFmUrmtp9gHX1CoGb7OyP5jyUuymM3IkwsAsAp_Bqb-zFXtvnUg54Za_Qz0fFRmta-zie9ziwwheE8TnzlNicD9U3N5fydUI39VoBxQinji_zWVNYlv0gCLa_eSvdBNn6Zxtb5HIDHQs7wZcM1PoiSD3Q3b6a61pu4EDKJot_S6j5bORZmCU9_8MZRQrNpYjyJ-0gslE4J5qHhYjq1gGS2cO0LNj-pciodM2tWzj6T_SgytmhXtbPIpdaP96yZeENYRZUprYHSfofkInbiw2F4OMOsGnHZR3o6ACR8PX8eWWh_D8UHt9R-80XEDND8L7yZ9MLh5o4oif08hz4M2ILv5y4yjvfAInWWtnFxKHwoZVnd8UEu4_8CcrHoRVatVlk2XgMxBD9XcE1bDwOaczuTR7iDyDHcIpcR-VnFykXcMk_QyTAw7v3lEM3B4U_3JlqbiMgnFBsblMyxp_0m00]--></g></svg>