<?xml version="1.0" encoding="us-ascii" standalone="no"?><svg xmlns="http://www.w3.org/2000/svg" xmlns:xlink="http://www.w3.org/1999/xlink" contentStyleType="text/css" height="1395px" preserveAspectRatio="none" style="width:2176px;height:1395px;background:#FFFFFF;" version="1.1" viewBox="0 0 2176 1395" width="2176.875px" zoomAndPan="magnify"><defs/><g><text fill="#17324D" font-family="sans-serif" font-size="41.25" font-weight="bold" lengthAdjust="spacing" textLength="391.875" x="889.6875" y="87.821">Publier une annonce</text><rect fill="none" height="52.7344" style="stroke:none;stroke-width:1.875;" width="2115" x="28.125" y="126.8848"/><ellipse cx="231.5625" cy="207.7441" fill="#222222" rx="18.75" ry="18.75" style="stroke:#222222;stroke-width:1.875;"/><rect fill="#F0F8F3" height="127.9688" rx="11.25" ry="11.25" style="stroke:#2F7D5B;stroke-width:0.9375;" width="384.375" x="39.375" y="263.9941"/><text fill="#17324D" font-family="sans-serif" font-size="30" lengthAdjust="spacing" textLength="230.625" x="65.625" y="321.3867">Remplir l'annonce</text><text fill="#17324D" font-family="sans-serif" font-size="30" lengthAdjust="spacing" textLength="331.875" x="65.625" y="359.1211">et le bar&#232;me de r&#233;duction</text><rect fill="#F0F8F3" height="90.2344" rx="11.25" ry="11.25" style="stroke:#2F7D5B;stroke-width:0.9375;" width="373.125" x="366.5625" y="651.3281"/><text fill="#17324D" font-family="sans-serif" font-size="30" lengthAdjust="spacing" textLength="320.625" x="392.8125" y="708.7207">Corriger les informations</text><ellipse cx="231.5625" cy="1352.2559" fill="none" rx="20.625" ry="20.625" style="stroke:#222222;stroke-width:1.875;"/><ellipse cx="231.5625" cy="1352.2559" fill="#222222" rx="11.25" ry="11.25" style="stroke:#111111;stroke-width:1.875;"/><line style="stroke:#000000;stroke-width:2.8125;" x1="28.125" x2="28.125" y1="126.8848" y2="1372.8809"/><rect fill="#F0F8F3" height="90.2344" rx="11.25" ry="11.25" style="stroke:#2F7D5B;stroke-width:0.9375;" width="384.375" x="1278.75" y="429.4629"/><text fill="#17324D" font-family="sans-serif" font-size="30" lengthAdjust="spacing" textLength="331.875" x="1305" y="486.8555">Contr&#244;ler les informations</text><polygon fill="#FFF3D8" points="1342.5,561.0938,1599.375,561.0938,1621.875,587.4609,1599.375,613.8281,1342.5,613.8281,1320,587.4609,1342.5,561.0938" style="stroke:#D8952F;stroke-width:0.9375;"/><text fill="#17324D" font-family="sans-serif" font-size="30" lengthAdjust="spacing" textLength="241.875" x="1350" y="599.7363">Donn&#233;es valides ?</text><text fill="#29485B" font-family="sans-serif" font-size="30" lengthAdjust="spacing" textLength="39.375" x="1273.125" y="573.3691">oui</text><text fill="#29485B" font-family="sans-serif" font-size="30" lengthAdjust="spacing" textLength="46.875" x="1629.375" y="573.3691">non</text><rect fill="#F0F8F3" height="127.9688" rx="11.25" ry="11.25" style="stroke:#2F7D5B;stroke-width:0.9375;" width="326.25" x="986.25" y="651.3281"/><text fill="#17324D" font-family="sans-serif" font-size="30" lengthAdjust="spacing" textLength="273.75" x="1012.5" y="708.7207">Enregistrer l'annonce</text><text fill="#17324D" font-family="sans-serif" font-size="30" lengthAdjust="spacing" textLength="176.25" x="1012.5" y="746.4551">&#171; en attente &#187;</text><rect fill="#F0F8F3" height="127.9688" rx="11.25" ry="11.25" style="stroke:#2F7D5B;stroke-width:0.9375;" width="367.5" x="758.4375" y="1038.6621"/><text fill="#17324D" font-family="sans-serif" font-size="30" lengthAdjust="spacing" textLength="315" x="784.6875" y="1096.0547">Rendre l'annonce visible</text><text fill="#17324D" font-family="sans-serif" font-size="30" lengthAdjust="spacing" textLength="300" x="784.6875" y="1133.7891">et notifier le fournisseur</text><rect fill="#F0F8F3" height="127.9688" rx="11.25" ry="11.25" style="stroke:#2F7D5B;stroke-width:0.9375;" width="386.25" x="1163.4375" y="1038.6621"/><text fill="#17324D" font-family="sans-serif" font-size="30" lengthAdjust="spacing" textLength="230.625" x="1189.6875" y="1096.0547">Rejeter l'annonce,</text><text fill="#17324D" font-family="sans-serif" font-size="30" lengthAdjust="spacing" textLength="333.75" x="1189.6875" y="1133.7891">indiquer le motif et notifier</text><polygon fill="#FFF3D8" points="1470.9375,1249.1309,1493.4375,1271.6309,1470.9375,1294.1309,1448.4375,1271.6309,1470.9375,1249.1309" style="stroke:#D8952F;stroke-width:0.9375;"/><line style="stroke:#000000;stroke-width:2.8125;" x1="747.1875" x2="747.1875" y1="126.8848" y2="1372.8809"/><rect fill="#F0F8F3" height="90.2344" rx="11.25" ry="11.25" style="stroke:#2F7D5B;stroke-width:0.9375;" width="305.625" x="1753.125" y="816.7969"/><text fill="#17324D" font-family="sans-serif" font-size="30" lengthAdjust="spacing" textLength="253.125" x="1779.375" y="874.1895">Examiner l'annonce</text><polygon fill="#FFF3D8" points="1764.375,948.4277,2047.5,948.4277,2070,974.7949,2047.5,1001.1621,1764.375,1001.1621,1741.875,974.7949,1764.375,948.4277" style="stroke:#D8952F;stroke-width:0.9375;"/><text fill="#17324D" font-family="sans-serif" font-size="30" lengthAdjust="spacing" textLength="268.125" x="1771.875" y="987.0703">Annonce conforme ?</text><text fill="#29485B" font-family="sans-serif" font-size="30" lengthAdjust="spacing" textLength="39.375" x="1695" y="960.7031">oui</text><text fill="#29485B" font-family="sans-serif" font-size="30" lengthAdjust="spacing" textLength="46.875" x="2077.5" y="960.7031">non</text><polygon fill="#FFF3D8" points="1905.9375,1185.3809,1928.4375,1207.8809,1905.9375,1230.3809,1883.4375,1207.8809,1905.9375,1185.3809" style="stroke:#D8952F;stroke-width:0.9375;"/><line style="stroke:#000000;stroke-width:2.8125;" x1="1685.625" x2="1685.625" y1="126.8848" y2="1372.8809"/><line style="stroke:#000000;stroke-width:2.8125;" x1="2133.75" x2="2133.75" y1="126.8848" y2="1372.8809"/><line style="stroke:#456A7D;stroke-width:2.625;" x1="231.5625" x2="231.5625" y1="226.4941" y2="263.9941"/><polygon fill="#456A7D" points="224.0625,245.2441,231.5625,263.9941,239.0625,245.2441,231.5625,252.7441" style="stroke:#456A7D;stroke-width:1.875;"/><line style="stroke:#456A7D;stroke-width:2.625;" x1="1320" x2="1149.375" y1="587.4609" y2="587.4609"/><line style="stroke:#456A7D;stroke-width:2.625;" x1="1149.375" x2="1149.375" y1="587.4609" y2="651.3281"/><polygon fill="#456A7D" points="1141.875,632.5781,1149.375,651.3281,1156.875,632.5781,1149.375,640.0781" style="stroke:#456A7D;stroke-width:1.875;"/><line style="stroke:#456A7D;stroke-width:2.625;" x1="1470.9375" x2="1470.9375" y1="519.6973" y2="561.0938"/><polygon fill="#456A7D" points="1463.4375,542.3438,1470.9375,561.0938,1478.4375,542.3438,1470.9375,549.8438" style="stroke:#456A7D;stroke-width:1.875;"/><line style="stroke:#456A7D;stroke-width:2.625;" x1="1905.9375" x2="1905.9375" y1="907.0313" y2="948.4277"/><polygon fill="#456A7D" points="1898.4375,929.6777,1905.9375,948.4277,1913.4375,929.6777,1905.9375,937.1777" style="stroke:#456A7D;stroke-width:1.875;"/><line style="stroke:#456A7D;stroke-width:2.625;" x1="231.5625" x2="231.5625" y1="391.9629" y2="401.3379"/><line style="stroke:#456A7D;stroke-width:2.625;" x1="231.5625" x2="1470.9375" y1="401.3379" y2="401.3379"/><line style="stroke:#456A7D;stroke-width:2.625;" x1="1470.9375" x2="1470.9375" y1="401.3379" y2="429.4629"/><polygon fill="#456A7D" points="1463.4375,410.7129,1470.9375,429.4629,1478.4375,410.7129,1470.9375,418.2129" style="stroke:#456A7D;stroke-width:1.875;"/><line style="stroke:#456A7D;stroke-width:2.625;" x1="1149.375" x2="1149.375" y1="779.2969" y2="788.6719"/><line style="stroke:#456A7D;stroke-width:2.625;" x1="1149.375" x2="1905.9375" y1="788.6719" y2="788.6719"/><line style="stroke:#456A7D;stroke-width:2.625;" x1="1905.9375" x2="1905.9375" y1="788.6719" y2="816.7969"/><polygon fill="#456A7D" points="1898.4375,798.0469,1905.9375,816.7969,1913.4375,798.0469,1905.9375,805.5469" style="stroke:#456A7D;stroke-width:1.875;"/><line style="stroke:#456A7D;stroke-width:2.625;" x1="1741.875" x2="942.1875" y1="974.7949" y2="974.7949"/><line style="stroke:#456A7D;stroke-width:2.625;" x1="942.1875" x2="942.1875" y1="974.7949" y2="1038.6621"/><polygon fill="#456A7D" points="934.6875,1019.9121,942.1875,1038.6621,949.6875,1019.9121,942.1875,1027.4121" style="stroke:#456A7D;stroke-width:1.875;"/><line style="stroke:#456A7D;stroke-width:2.625;" x1="2070" x2="2092.5" y1="974.7949" y2="974.7949"/><line style="stroke:#456A7D;stroke-width:2.625;" x1="2092.5" x2="2092.5" y1="974.7949" y2="1014.3457"/><line style="stroke:#456A7D;stroke-width:2.625;" x1="2092.5" x2="1356.5625" y1="1014.3457" y2="1014.3457"/><line style="stroke:#456A7D;stroke-width:2.625;" x1="1356.5625" x2="1356.5625" y1="1014.3457" y2="1038.6621"/><polygon fill="#456A7D" points="1349.0625,1019.9121,1356.5625,1038.6621,1364.0625,1019.9121,1356.5625,1027.4121" style="stroke:#456A7D;stroke-width:1.875;"/><line style="stroke:#456A7D;stroke-width:2.625;" x1="942.1875" x2="942.1875" y1="1166.6309" y2="1207.8809"/><line style="stroke:#456A7D;stroke-width:2.625;" x1="942.1875" x2="1883.4375" y1="1207.8809" y2="1207.8809"/><polygon fill="#456A7D" points="1864.6875,1200.3809,1883.4375,1207.8809,1864.6875,1215.3809,1872.1875,1207.8809" style="stroke:#456A7D;stroke-width:1.875;"/><line style="stroke:#456A7D;stroke-width:2.625;" x1="1356.5625" x2="1356.5625" y1="1166.6309" y2="1174.1309"/><line style="stroke:#456A7D;stroke-width:2.625;" x1="1356.5625" x2="1962.1875" y1="1174.1309" y2="1174.1309"/><line style="stroke:#456A7D;stroke-width:2.625;" x1="1962.1875" x2="1962.1875" y1="1174.1309" y2="1207.8809"/><line style="stroke:#456A7D;stroke-width:2.625;" x1="1962.1875" x2="1928.4375" y1="1207.8809" y2="1207.8809"/><polygon fill="#456A7D" points="1947.1875,1200.3809,1928.4375,1207.8809,1947.1875,1215.3809,1939.6875,1207.8809" style="stroke:#456A7D;stroke-width:1.875;"/><line style="stroke:#456A7D;stroke-width:2.625;" x1="1621.875" x2="1644.375" y1="587.4609" y2="587.4609"/><line style="stroke:#456A7D;stroke-width:2.625;" x1="1644.375" x2="1644.375" y1="587.4609" y2="627.0117"/><line style="stroke:#456A7D;stroke-width:2.625;" x1="1644.375" x2="553.125" y1="627.0117" y2="627.0117"/><line style="stroke:#456A7D;stroke-width:2.625;" x1="553.125" x2="553.125" y1="627.0117" y2="651.3281"/><polygon fill="#456A7D" points="545.625,632.5781,553.125,651.3281,560.625,632.5781,553.125,640.0781" style="stroke:#456A7D;stroke-width:1.875;"/><line style="stroke:#456A7D;stroke-width:2.625;" x1="1905.9375" x2="1905.9375" y1="1230.3809" y2="1237.8809"/><line style="stroke:#456A7D;stroke-width:2.625;" x1="1905.9375" x2="1414.6875" y1="1237.8809" y2="1237.8809"/><line style="stroke:#456A7D;stroke-width:2.625;" x1="1414.6875" x2="1414.6875" y1="1237.8809" y2="1271.6309"/><line style="stroke:#456A7D;stroke-width:2.625;" x1="1414.6875" x2="1448.4375" y1="1271.6309" y2="1271.6309"/><polygon fill="#456A7D" points="1429.6875,1264.1309,1448.4375,1271.6309,1429.6875,1279.1309,1437.1875,1271.6309" style="stroke:#456A7D;stroke-width:1.875;"/><line style="stroke:#456A7D;stroke-width:2.625;" x1="553.125" x2="553.125" y1="741.5625" y2="1237.8809"/><line style="stroke:#456A7D;stroke-width:2.625;" x1="553.125" x2="1527.1875" y1="1237.8809" y2="1237.8809"/><line style="stroke:#456A7D;stroke-width:2.625;" x1="1527.1875" x2="1527.1875" y1="1237.8809" y2="1271.6309"/><line style="stroke:#456A7D;stroke-width:2.625;" x1="1527.1875" x2="1493.4375" y1="1271.6309" y2="1271.6309"/><polygon fill="#456A7D" points="1512.1875,1264.1309,1493.4375,1271.6309,1512.1875,1279.1309,1504.6875,1271.6309" style="stroke:#456A7D;stroke-width:1.875;"/><line style="stroke:#456A7D;stroke-width:2.625;" x1="1470.9375" x2="1470.9375" y1="1294.1309" y2="1303.5059"/><line style="stroke:#456A7D;stroke-width:2.625;" x1="1470.9375" x2="231.5625" y1="1303.5059" y2="1303.5059"/><line style="stroke:#456A7D;stroke-width:2.625;" x1="231.5625" x2="231.5625" y1="1303.5059" y2="1331.6309"/><polygon fill="#456A7D" points="224.0625,1312.8809,231.5625,1331.6309,239.0625,1312.8809,231.5625,1320.3809" style="stroke:#456A7D;stroke-width:1.875;"/><text fill="#000000" font-family="sans-serif" font-size="30" lengthAdjust="spacing" textLength="153.75" x="310.7813" y="165.5273">Fournisseur</text><text fill="#000000" font-family="sans-serif" font-size="30" lengthAdjust="spacing" textLength="286.875" x="1072.9688" y="165.5273">Syst&#232;me ElevConnect</text><text fill="#000000" font-family="sans-serif" font-size="30" lengthAdjust="spacing" textLength="189.375" x="1815" y="165.5273">Administrateur</text><!--SRC=[ZPR1Rjj648RlV8e1Uh0358ObKHPj7m9A8jD3QmXHslkQ74eRBtVPtQLY1phq8Ve0ESR8jRVUeZVfatH8qSvAPEW8823iV3F_pEoIEoUmj0y28L5vNahuxw-_8ULifLcUeu58u6QcfCJ4UYUm_ECDN46cTCuiR6XDQOu295hOVGAhIejW6HS2ps1nKx5uNoXjOSqgKxfxpBZabYjvvfaxBWj6Cd3BahkLLgLCPqee3J_5zSyXqeB383XtLioQfUe3bol8c33eMEf0YT8IDGo6Za5molEXGA24rigDZXahXOsLj3SiHrWoQPQeUTRDBFb7XC65Otp7hS1UzsUYTXuEkqnDyOF9QEZF7I3KMdreZFxu8foqZ8xtyD8FnjDZuDsQ9tSIZO71cUyORvJ5QKVtWoWuffHEKJT4D0uZVtn4E4cCftumY1pxWZJOwZ38PJYTX9CEg9MF7uVnHHjqUnQJvAWRsP_kMoLIjok9vHjk7zfYvt4GZxf8D_TXF9aVThcXUlUnOUQSvKgcNNqVpOCU1pU3UN0v7iQT5NqtoPbWnanVVDdsM6-vDV8BCa9QyI8_7aNXCTpNc4ZQpgquJgpXUZFRCtrgIyiw3dqqZoVne8NrQjL8dzJl1XDcEiH2EjD11-ZAZQA9VtdUXdfhmpzBb0d-oZDwvD4BDvlwiq4V_U8EF7aicBOyuGMJzkNYkfnw2tro2AlxvSUJskFzEzQWRoXWqOuyYQVn_BjuRo-bIj5WSVXfrqpUrOj-nulw6zChBc5mtc5Ri3IjxhRWu9FstBudyz3rdQhxRhVzcdzySB_1dgsk85YKjuBJfLbA12QbeiB1yxQnAhNanc2fjvwnb8LtzHRpGd0DugG1FPe0ggyiqxlFT0Mc27htc9P9TTLVUzlbWx6rmHadjjuL_RDwzuyWKK6p1fVxoO9ypBN7CpYT4xfx9DE62KuDXjUlmAvHmgag-IiFu2gI6bVSM8rkDb-_047CMfGqTdpzzvhGRPZcD7mGIiLNjLJUzupMNDUAh9J3fW69gfF2bZ85xAwgCb63PAhnMrZOSCDlHTqdgIpFU5qpZLBFpQsKaKOPE2MF7r5uZzRD_6UFovJJWQq3vvK8E6frU08oxq3aS7ifxanfpLUTEx9tDrOL_mC0]--></g></svg>