<?xml version="1.0" encoding="us-ascii" standalone="no"?><svg xmlns="http://www.w3.org/2000/svg" xmlns:xlink="http://www.w3.org/1999/xlink" contentStyleType="text/css" height="1610.625px" preserveAspectRatio="none" style="width:2510px;height:1610px;background:#FFFFFF;" version="1.1" viewBox="0 0 2510 1610" width="2510.625px" zoomAndPan="magnify"><defs/><g><text fill="#17324D" font-family="sans-serif" font-size="41.25" font-weight="bold" lengthAdjust="spacing" textLength="673.125" x="915.9375" y="87.821">Prendre un rendez-vous v&#233;t&#233;rinaire</text><rect fill="none" height="52.7344" style="stroke:none;stroke-width:1.875;" width="2448.75" x="28.125" y="126.8848"/><ellipse cx="497.8125" cy="207.7441" fill="#222222" rx="18.75" ry="18.75" style="stroke:#222222;stroke-width:1.875;"/><rect fill="#F0F8F3" height="127.9688" rx="11.25" ry="11.25" style="stroke:#2F7D5B;stroke-width:0.9375;" width="365.625" x="315" y="263.9941"/><text fill="#17324D" font-family="sans-serif" font-size="30" lengthAdjust="spacing" textLength="283.125" x="341.25" y="321.3867">Choisir un v&#233;t&#233;rinaire,</text><text fill="#17324D" font-family="sans-serif" font-size="30" lengthAdjust="spacing" textLength="313.125" x="341.25" y="359.1211">un service et un cr&#233;neau</text><rect fill="#F0F8F3" height="127.9688" rx="11.25" ry="11.25" style="stroke:#2F7D5B;stroke-width:0.9375;" width="425.625" x="39.375" y="1062.6563"/><text fill="#17324D" font-family="sans-serif" font-size="30" lengthAdjust="spacing" textLength="373.125" x="65.625" y="1120.0488">Se pr&#233;senter au rendez-vous</text><text fill="#17324D" font-family="sans-serif" font-size="30" lengthAdjust="spacing" textLength="281.25" x="65.625" y="1157.7832">et r&#233;gler le v&#233;t&#233;rinaire</text><rect fill="#F0F8F3" height="90.2344" rx="11.25" ry="11.25" style="stroke:#2F7D5B;stroke-width:0.9375;" width="397.5" x="53.4375" y="1355.8594"/><text fill="#17324D" font-family="sans-serif" font-size="30" lengthAdjust="spacing" textLength="345" x="79.6875" y="1413.252">Laisser une note et un avis</text><rect fill="#F0F8F3" height="90.2344" rx="11.25" ry="11.25" style="stroke:#2F7D5B;stroke-width:0.9375;" width="315" x="585.9375" y="779.0625"/><text fill="#17324D" font-family="sans-serif" font-size="30" lengthAdjust="spacing" textLength="262.5" x="612.1875" y="836.4551">Refuser la demande</text><line style="stroke:#000000;stroke-width:2.8125;" x1="28.125" x2="28.125" y1="126.8848" y2="1588.5938"/><rect fill="#F0F8F3" height="90.2344" rx="11.25" ry="11.25" style="stroke:#2F7D5B;stroke-width:0.9375;" width="369.375" x="1110" y="429.4629"/><text fill="#17324D" font-family="sans-serif" font-size="30" lengthAdjust="spacing" textLength="316.875" x="1136.25" y="486.8555">Transmettre la demande</text><rect fill="#F0F8F3" height="90.2344" rx="11.25" ry="11.25" style="stroke:#2F7D5B;stroke-width:0.9375;" width="258.75" x="919.6875" y="906.7969"/><text fill="#17324D" font-family="sans-serif" font-size="30" lengthAdjust="spacing" textLength="206.25" x="945.9375" y="964.1895">Notifier l'&#233;leveur</text><rect fill="#F0F8F3" height="127.9688" rx="11.25" ry="11.25" style="stroke:#2F7D5B;stroke-width:0.9375;" width="481.875" x="1299.375" y="906.7969"/><text fill="#17324D" font-family="sans-serif" font-size="30" lengthAdjust="spacing" textLength="238.125" x="1325.625" y="964.1895">Notifier l'&#233;leveur et</text><text fill="#17324D" font-family="sans-serif" font-size="30" lengthAdjust="spacing" textLength="429.375" x="1325.625" y="1001.9238">l'inviter &#224; choisir un autre cr&#233;neau</text><ellipse cx="1294.6875" cy="1567.9688" fill="none" rx="20.625" ry="20.625" style="stroke:#222222;stroke-width:1.875;"/><ellipse cx="1294.6875" cy="1567.9688" fill="#222222" rx="11.25" ry="11.25" style="stroke:#111111;stroke-width:1.875;"/><line style="stroke:#000000;stroke-width:2.8125;" x1="908.4375" x2="908.4375" y1="126.8848" y2="1588.5938"/><rect fill="#F0F8F3" height="90.2344" rx="11.25" ry="11.25" style="stroke:#2F7D5B;stroke-width:0.9375;" width="352.5" x="2057.8125" y="557.1973"/><text fill="#17324D" font-family="sans-serif" font-size="30" lengthAdjust="spacing" textLength="300" x="2084.0625" y="614.5898">V&#233;rifier sa disponibilit&#233;</text><polygon fill="#FFF3D8" points="2086.875,688.8281,2381.25,688.8281,2403.75,715.1953,2381.25,741.5625,2086.875,741.5625,2064.375,715.1953,2086.875,688.8281" style="stroke:#D8952F;stroke-width:0.9375;"/><text fill="#17324D" font-family="sans-serif" font-size="30" lengthAdjust="spacing" textLength="279.375" x="2094.375" y="727.4707">Cr&#233;neau disponible ?</text><text fill="#29485B" font-family="sans-serif" font-size="30" lengthAdjust="spacing" textLength="39.375" x="2017.5" y="701.1035">oui</text><text fill="#29485B" font-family="sans-serif" font-size="30" lengthAdjust="spacing" textLength="46.875" x="2411.25" y="701.1035">non</text><rect fill="#F0F8F3" height="90.2344" rx="11.25" ry="11.25" style="stroke:#2F7D5B;stroke-width:0.9375;" width="376.875" x="1800" y="779.0625"/><text fill="#17324D" font-family="sans-serif" font-size="30" lengthAdjust="spacing" textLength="324.375" x="1826.25" y="836.4551">Confirmer le rendez-vous</text><rect fill="#F0F8F3" height="90.2344" rx="11.25" ry="11.25" style="stroke:#2F7D5B;stroke-width:0.9375;" width="350.625" x="1813.125" y="1228.125"/><text fill="#17324D" font-family="sans-serif" font-size="30" lengthAdjust="spacing" textLength="298.125" x="1839.375" y="1285.5176">Cl&#244;turer le rendez-vous</text><polygon fill="#FFF3D8" points="2234.0625,1464.8438,2256.5625,1487.3438,2234.0625,1509.8438,2211.5625,1487.3438,2234.0625,1464.8438" style="stroke:#D8952F;stroke-width:0.9375;"/><line style="stroke:#000000;stroke-width:2.8125;" x1="1788.75" x2="1788.75" y1="126.8848" y2="1588.5938"/><line style="stroke:#000000;stroke-width:2.8125;" x1="2467.5" x2="2467.5" y1="126.8848" y2="1588.5938"/><line style="stroke:#456A7D;stroke-width:2.625;" x1="497.8125" x2="497.8125" y1="226.4941" y2="263.9941"/><polygon fill="#456A7D" points="490.3125,245.2441,497.8125,263.9941,505.3125,245.2441,497.8125,252.7441" style="stroke:#456A7D;stroke-width:1.875;"/><line style="stroke:#456A7D;stroke-width:2.625;" x1="2064.375" x2="1988.4375" y1="715.1953" y2="715.1953"/><line style="stroke:#456A7D;stroke-width:2.625;" x1="1988.4375" x2="1988.4375" y1="715.1953" y2="779.0625"/><polygon fill="#456A7D" points="1980.9375,760.3125,1988.4375,779.0625,1995.9375,760.3125,1988.4375,767.8125" style="stroke:#456A7D;stroke-width:1.875;"/><line style="stroke:#456A7D;stroke-width:2.625;" x1="2234.0625" x2="2234.0625" y1="647.4316" y2="688.8281"/><polygon fill="#456A7D" points="2226.5625,670.0781,2234.0625,688.8281,2241.5625,670.0781,2234.0625,677.5781" style="stroke:#456A7D;stroke-width:1.875;"/><line style="stroke:#456A7D;stroke-width:2.625;" x1="497.8125" x2="497.8125" y1="391.9629" y2="401.3379"/><line style="stroke:#456A7D;stroke-width:2.625;" x1="497.8125" x2="1294.6875" y1="401.3379" y2="401.3379"/><line style="stroke:#456A7D;stroke-width:2.625;" x1="1294.6875" x2="1294.6875" y1="401.3379" y2="429.4629"/><polygon fill="#456A7D" points="1287.1875,410.7129,1294.6875,429.4629,1302.1875,410.7129,1294.6875,418.2129" style="stroke:#456A7D;stroke-width:1.875;"/><line style="stroke:#456A7D;stroke-width:2.625;" x1="1294.6875" x2="1294.6875" y1="519.6973" y2="529.0723"/><line style="stroke:#456A7D;stroke-width:2.625;" x1="1294.6875" x2="2234.0625" y1="529.0723" y2="529.0723"/><line style="stroke:#456A7D;stroke-width:2.625;" x1="2234.0625" x2="2234.0625" y1="529.0723" y2="557.1973"/><polygon fill="#456A7D" points="2226.5625,538.4473,2234.0625,557.1973,2241.5625,538.4473,2234.0625,545.9473" style="stroke:#456A7D;stroke-width:1.875;"/><line style="stroke:#456A7D;stroke-width:2.625;" x1="1988.4375" x2="1988.4375" y1="869.2969" y2="878.6719"/><line style="stroke:#456A7D;stroke-width:2.625;" x1="1988.4375" x2="1049.0625" y1="878.6719" y2="878.6719"/><line style="stroke:#456A7D;stroke-width:2.625;" x1="1049.0625" x2="1049.0625" y1="878.6719" y2="906.7969"/><polygon fill="#456A7D" points="1041.5625,888.0469,1049.0625,906.7969,1056.5625,888.0469,1049.0625,895.5469" style="stroke:#456A7D;stroke-width:1.875;"/><line style="stroke:#456A7D;stroke-width:2.625;" x1="1049.0625" x2="1049.0625" y1="997.0313" y2="1029.8438"/><line style="stroke:#456A7D;stroke-width:2.625;" x1="1049.0625" x2="252.1875" y1="1029.8438" y2="1029.8438"/><line style="stroke:#456A7D;stroke-width:2.625;" x1="252.1875" x2="252.1875" y1="1029.8438" y2="1062.6563"/><polygon fill="#456A7D" points="244.6875,1043.9063,252.1875,1062.6563,259.6875,1043.9063,252.1875,1051.4063" style="stroke:#456A7D;stroke-width:1.875;"/><line style="stroke:#456A7D;stroke-width:2.625;" x1="252.1875" x2="252.1875" y1="1190.625" y2="1200"/><line style="stroke:#456A7D;stroke-width:2.625;" x1="252.1875" x2="1988.4375" y1="1200" y2="1200"/><line style="stroke:#456A7D;stroke-width:2.625;" x1="1988.4375" x2="1988.4375" y1="1200" y2="1228.125"/><polygon fill="#456A7D" points="1980.9375,1209.375,1988.4375,1228.125,1995.9375,1209.375,1988.4375,1216.875" style="stroke:#456A7D;stroke-width:1.875;"/><line style="stroke:#456A7D;stroke-width:2.625;" x1="1988.4375" x2="1988.4375" y1="1318.3594" y2="1327.7344"/><line style="stroke:#456A7D;stroke-width:2.625;" x1="1988.4375" x2="252.1875" y1="1327.7344" y2="1327.7344"/><line style="stroke:#456A7D;stroke-width:2.625;" x1="252.1875" x2="252.1875" y1="1327.7344" y2="1355.8594"/><polygon fill="#456A7D" points="244.6875,1337.1094,252.1875,1355.8594,259.6875,1337.1094,252.1875,1344.6094" style="stroke:#456A7D;stroke-width:1.875;"/><line style="stroke:#456A7D;stroke-width:2.625;" x1="743.4375" x2="743.4375" y1="869.2969" y2="878.6719"/><line style="stroke:#456A7D;stroke-width:2.625;" x1="743.4375" x2="1540.3125" y1="878.6719" y2="878.6719"/><line style="stroke:#456A7D;stroke-width:2.625;" x1="1540.3125" x2="1540.3125" y1="878.6719" y2="906.7969"/><polygon fill="#456A7D" points="1532.8125,888.0469,1540.3125,906.7969,1547.8125,888.0469,1540.3125,895.5469" style="stroke:#456A7D;stroke-width:1.875;"/><line style="stroke:#456A7D;stroke-width:2.625;" x1="2403.75" x2="2426.25" y1="715.1953" y2="715.1953"/><line style="stroke:#456A7D;stroke-width:2.625;" x1="2426.25" x2="2426.25" y1="715.1953" y2="754.7461"/><line style="stroke:#456A7D;stroke-width:2.625;" x1="2426.25" x2="743.4375" y1="754.7461" y2="754.7461"/><line style="stroke:#456A7D;stroke-width:2.625;" x1="743.4375" x2="743.4375" y1="754.7461" y2="779.0625"/><polygon fill="#456A7D" points="735.9375,760.3125,743.4375,779.0625,750.9375,760.3125,743.4375,767.8125" style="stroke:#456A7D;stroke-width:1.875;"/><line style="stroke:#456A7D;stroke-width:2.625;" x1="252.1875" x2="252.1875" y1="1446.0938" y2="1487.3438"/><line style="stroke:#456A7D;stroke-width:2.625;" x1="252.1875" x2="2211.5625" y1="1487.3438" y2="1487.3438"/><polygon fill="#456A7D" points="2192.8125,1479.8438,2211.5625,1487.3438,2192.8125,1494.8438,2200.3125,1487.3438" style="stroke:#456A7D;stroke-width:1.875;"/><line style="stroke:#456A7D;stroke-width:2.625;" x1="1540.3125" x2="1540.3125" y1="1034.7656" y2="1453.5938"/><line style="stroke:#456A7D;stroke-width:2.625;" x1="1540.3125" x2="2290.3125" y1="1453.5938" y2="1453.5938"/><line style="stroke:#456A7D;stroke-width:2.625;" x1="2290.3125" x2="2290.3125" y1="1453.5938" y2="1487.3438"/><line style="stroke:#456A7D;stroke-width:2.625;" x1="2290.3125" x2="2256.5625" y1="1487.3438" y2="1487.3438"/><polygon fill="#456A7D" points="2275.3125,1479.8438,2256.5625,1487.3438,2275.3125,1494.8438,2267.8125,1487.3438" style="stroke:#456A7D;stroke-width:1.875;"/><line style="stroke:#456A7D;stroke-width:2.625;" x1="2234.0625" x2="2234.0625" y1="1509.8438" y2="1519.2188"/><line style="stroke:#456A7D;stroke-width:2.625;" x1="2234.0625" x2="1294.6875" y1="1519.2188" y2="1519.2188"/><line style="stroke:#456A7D;stroke-width:2.625;" x1="1294.6875" x2="1294.6875" y1="1519.2188" y2="1547.3438"/><polygon fill="#456A7D" points="1287.1875,1528.5938,1294.6875,1547.3438,1302.1875,1528.5938,1294.6875,1536.0938" style="stroke:#456A7D;stroke-width:1.875;"/><text fill="#000000" font-family="sans-serif" font-size="30" lengthAdjust="spacing" textLength="97.5" x="419.5313" y="165.5273">&#201;leveur</text><text fill="#000000" font-family="sans-serif" font-size="30" lengthAdjust="spacing" textLength="286.875" x="1205.1563" y="165.5273">Syst&#232;me ElevConnect</text><text fill="#000000" font-family="sans-serif" font-size="30" lengthAdjust="spacing" textLength="144.375" x="2055.9375" y="165.5273">V&#233;t&#233;rinaire</text><!--SRC=[bPR1RkCs48RlUWe2FIGBj45aox6I70hPbhQ7tS2eqzmPQMGFGf4gINatYnnwxRqFq6DzxnleJVea7SbEGjkAqXemO7E-cVbdI8bpmXRsKG1BLL5KaltpsnyiGxxKl2Z0i5Z0UggaXDHw9snnzv5TiLpfWbksfZMb4GIJO5dz9xEgii0iHo7WZCrl6XQ-bafRjkADAQitEKgqgEIPPnvGbfpIi7kUFYorgcGsLK9fzbtIVXmYAv7vuRcpObOyKrzGBbdEXG77qWPAbPQWcJzm3099vsC9Z0Ijb1iTSbu9coXfRtW1RC6bMO36l9jPu3TW_eLZl4KheDVzXMYT1uCkqwvuVpmS13C7YBHMNtR6O7GHZO-CZlVWCWX7aqFWTeNfWmHZc7yMECORPM7IqVqm3WyffJFGEo8UHN4mEY0S4QD94FgnOvzJ3hxS3t8PJSRHk0CwqXCaKN9n3BezIoZbi1lPdkvx9JAtAwd5DTh7usJdIPWCkqXN-o0Pp_QxlADwzt77p90NIcPTVH_EmXu7Ly4il1mDaiwAtXGv5ToOoRiFsnRhBRT5VW9Eo56yE4Y6SNG8zpKcbhPpAmw5xRXUPLkcBzl2yev37y-ISU8VORsvMgGlrIy6KcuwaaLqfiCEq4qtZCV1vVanr5iR_5g1JE4JvlIL1m_ST19C_JxwtHruzfXpRJ75aalxVd5TJhs5FZj4pVtotqLjyVuTsw4VAM1v77cSJ9BPctXlBwNAm42v_shNN3wqYq77W_gPwoLAvfztsEOyovgxBTnxfRsqxzayS7qdwcktstOjE3ouhx1dcok8pJN8J0EZ8Q3v1Tz-MAlAi7MziVL6e-H8Hizxgd-dcG0g_UGPIvgyg-bAeK7TEEx1ttkqOa2lCGL68mBzItMzaS2hQ-zfyMXi_HVTbyw8yUHTtLBJJ07MKZB1wTujE6aX_iuDJU1TyoT7kkKDOMXA9V4U1H9qxM7EJgUxN2z6gl773yokGB9JLU47Zx4hIfoZBYWAMPsohyduXaJoeljkcrgSr9jjDrg7rzOGj01MaWG3qX99Efpm7hM3R4knJRpNjZRIGRMDKb7_RIlThNGlyIUEXjfE_GOwb_QvztoD10DDI-nKAjcM_pFaLOEwdVwVXLDqJvoWf7DBwpG6fg_7WQO-siRNJIVLpLXaLVal]--></g></svg>