<?xml version="1.0" encoding="us-ascii" standalone="no"?><svg xmlns="http://www.w3.org/2000/svg" xmlns:xlink="http://www.w3.org/1999/xlink" contentStyleType="text/css" height="2321.25px" preserveAspectRatio="none" style="width:3731px;height:2321px;background:#FFFFFF;" version="1.1" viewBox="0 0 3731 2321" width="3731.25px" zoomAndPan="magnify"><defs/><g><text fill="#17324D" font-family="sans-serif" font-size="41.25" font-weight="bold" lengthAdjust="spacing" textLength="438.75" x="1644.2578" y="87.821">Passer une commande</text><rect fill="none" height="52.7344" style="stroke:none;stroke-width:1.875;" width="3671.0156" x="28.125" y="126.8848"/><ellipse cx="421.3477" cy="207.7441" fill="#222222" rx="18.75" ry="18.75" style="stroke:#222222;stroke-width:1.875;"/><rect fill="#F0F8F3" height="127.9688" rx="11.25" ry="11.25" style="stroke:#2F7D5B;stroke-width:0.9375;" width="478.125" x="182.2852" y="263.9941"/><text fill="#17324D" font-family="sans-serif" font-size="30" lengthAdjust="spacing" textLength="273.75" x="208.5352" y="321.3867">Choisir une annonce,</text><text fill="#17324D" font-family="sans-serif" font-size="30" lengthAdjust="spacing" textLength="425.625" x="208.5352" y="359.1211">une quantit&#233; et le mode de retrait</text><rect fill="#F0F8F3" height="90.2344" rx="11.25" ry="11.25" style="stroke:#2F7D5B;stroke-width:0.9375;" width="313.125" x="553.8281" y="948.6621"/><text fill="#17324D" font-family="sans-serif" font-size="30" lengthAdjust="spacing" textLength="260.625" x="580.0781" y="1006.0547">Payer la commande</text><rect fill="#F0F8F3" height="127.9688" rx="11.25" ry="11.25" style="stroke:#2F7D5B;stroke-width:0.9375;" width="346.875" x="39.375" y="1773.8086"/><text fill="#17324D" font-family="sans-serif" font-size="30" lengthAdjust="spacing" textLength="294.375" x="65.625" y="1831.2012">Scanner le QR code et</text><text fill="#17324D" font-family="sans-serif" font-size="30" lengthAdjust="spacing" textLength="281.25" x="65.625" y="1868.9355">confirmer la r&#233;ception</text><rect fill="#F0F8F3" height="127.9688" rx="11.25" ry="11.25" style="stroke:#2F7D5B;stroke-width:0.9375;" width="341.25" x="431.25" y="1426.2305"/><text fill="#17324D" font-family="sans-serif" font-size="30" lengthAdjust="spacing" textLength="288.75" x="457.5" y="1483.623">Confirmer la r&#233;ception</text><text fill="#17324D" font-family="sans-serif" font-size="30" lengthAdjust="spacing" textLength="240" x="457.5" y="1521.3574">chez le fournisseur</text><line style="stroke:#000000;stroke-width:2.8125;" x1="28.125" x2="28.125" y1="126.8848" y2="2299.7461"/><polygon fill="#FFF3D8" points="1395.1758,433.3594,1839.5508,433.3594,1862.0508,459.7266,1839.5508,486.0938,1395.1758,486.0938,1372.6758,459.7266,1395.1758,433.3594" style="stroke:#D8952F;stroke-width:0.9375;"/><text fill="#17324D" font-family="sans-serif" font-size="30" lengthAdjust="spacing" textLength="429.375" x="1402.6758" y="472.002">Client propri&#233;taire de l'annonce ?</text><text fill="#29485B" font-family="sans-serif" font-size="30" lengthAdjust="spacing" textLength="39.375" x="1325.8008" y="445.6348">oui</text><text fill="#29485B" font-family="sans-serif" font-size="30" lengthAdjust="spacing" textLength="46.875" x="1869.5508" y="445.6348">non</text><rect fill="#F0F8F3" height="127.9688" rx="11.25" ry="11.25" style="stroke:#2F7D5B;stroke-width:0.9375;" width="337.5" x="885.7031" y="523.5938"/><text fill="#17324D" font-family="sans-serif" font-size="30" lengthAdjust="spacing" textLength="285" x="911.9531" y="580.9863">Bloquer la commande</text><text fill="#17324D" font-family="sans-serif" font-size="30" lengthAdjust="spacing" textLength="243.75" x="911.9531" y="618.7207">et informer le client</text><ellipse cx="1054.4531" cy="713.584" fill="none" rx="20.625" ry="20.625" style="stroke:#222222;stroke-width:1.875;"/><ellipse cx="1054.4531" cy="713.584" fill="#222222" rx="11.25" ry="11.25" style="stroke:#111111;stroke-width:1.875;"/><rect fill="#F0F8F3" height="127.9688" rx="11.25" ry="11.25" style="stroke:#2F7D5B;stroke-width:0.9375;" width="292.5" x="2123.0859" y="523.5938"/><text fill="#17324D" font-family="sans-serif" font-size="30" lengthAdjust="spacing" textLength="234.375" x="2149.3359" y="580.9863">V&#233;rifier le stock et</text><text fill="#17324D" font-family="sans-serif" font-size="30" lengthAdjust="spacing" textLength="240" x="2149.3359" y="618.7207">calculer le montant</text><polygon fill="#FFF3D8" points="2140.8984,692.959,2397.7734,692.959,2420.2734,719.3262,2397.7734,745.6934,2140.8984,745.6934,2118.3984,719.3262,2140.8984,692.959" style="stroke:#D8952F;stroke-width:0.9375;"/><text fill="#17324D" font-family="sans-serif" font-size="30" lengthAdjust="spacing" textLength="241.875" x="2148.3984" y="731.6016">Stock disponible ?</text><text fill="#29485B" font-family="sans-serif" font-size="30" lengthAdjust="spacing" textLength="39.375" x="2071.5234" y="705.2344">oui</text><text fill="#29485B" font-family="sans-serif" font-size="30" lengthAdjust="spacing" textLength="46.875" x="2427.7734" y="705.2344">non</text><rect fill="#F0F8F3" height="127.9688" rx="11.25" ry="11.25" style="stroke:#2F7D5B;stroke-width:0.9375;" width="376.875" x="1717.9688" y="783.1934"/><text fill="#17324D" font-family="sans-serif" font-size="30" lengthAdjust="spacing" textLength="290.625" x="1744.2188" y="840.5859">Cr&#233;er la commande et</text><text fill="#17324D" font-family="sans-serif" font-size="30" lengthAdjust="spacing" textLength="324.375" x="1744.2188" y="878.3203">le code QR d'authenticit&#233;</text><polygon fill="#FFF3D8" points="1473.9844,1335.9961,1732.7344,1335.9961,1755.2344,1362.3633,1732.7344,1388.7305,1473.9844,1388.7305,1451.4844,1362.3633,1473.9844,1335.9961" style="stroke:#D8952F;stroke-width:0.9375;"/><text fill="#17324D" font-family="sans-serif" font-size="30" lengthAdjust="spacing" textLength="243.75" x="1481.4844" y="1374.6387">Livraison choisie ?</text><text fill="#29485B" font-family="sans-serif" font-size="30" lengthAdjust="spacing" textLength="39.375" x="1404.6094" y="1348.2715">oui</text><text fill="#29485B" font-family="sans-serif" font-size="30" lengthAdjust="spacing" textLength="155.625" x="1762.7344" y="1348.2715">retrait direct</text><rect fill="#F0F8F3" height="127.9688" rx="11.25" ry="11.25" style="stroke:#2F7D5B;stroke-width:0.9375;" width="333.75" x="1241.9531" y="1426.2305"/><text fill="#17324D" font-family="sans-serif" font-size="30" lengthAdjust="spacing" textLength="266.25" x="1268.2031" y="1483.623">Proposer la livraison</text><text fill="#17324D" font-family="sans-serif" font-size="30" lengthAdjust="spacing" textLength="281.25" x="1268.2031" y="1521.3574">&#224; un livreur disponible</text><polygon fill="#FFF3D8" points="1603.3594,1920.5273,1625.8594,1943.0273,1603.3594,1965.5273,1580.8594,1943.0273,1603.3594,1920.5273" style="stroke:#D8952F;stroke-width:0.9375;"/><rect fill="#F0F8F3" height="127.9688" rx="11.25" ry="11.25" style="stroke:#2F7D5B;stroke-width:0.9375;" width="397.5" x="1404.6094" y="2003.0273"/><text fill="#17324D" font-family="sans-serif" font-size="30" lengthAdjust="spacing" textLength="345" x="1430.8594" y="2060.4199">Confirmer la commande et</text><text fill="#17324D" font-family="sans-serif" font-size="30" lengthAdjust="spacing" textLength="301.875" x="1430.8594" y="2098.1543">verser les b&#233;n&#233;ficiaires</text><ellipse cx="1603.3594" cy="2189.1211" fill="none" rx="20.625" ry="20.625" style="stroke:#222222;stroke-width:1.875;"/><ellipse cx="1603.3594" cy="2189.1211" fill="#222222" rx="11.25" ry="11.25" style="stroke:#111111;stroke-width:1.875;"/><rect fill="#F0F8F3" height="127.9688" rx="11.25" ry="11.25" style="stroke:#2F7D5B;stroke-width:0.9375;" width="369.375" x="2024.7656" y="1335.9961"/><text fill="#17324D" font-family="sans-serif" font-size="30" lengthAdjust="spacing" textLength="316.875" x="2051.0156" y="1393.3887">Refuser la commande et</text><text fill="#17324D" font-family="sans-serif" font-size="30" lengthAdjust="spacing" textLength="255" x="2051.0156" y="1431.123">rembourser le client</text><ellipse cx="2209.4531" cy="1550.2148" fill="none" rx="20.625" ry="20.625" style="stroke:#222222;stroke-width:1.875;"/><ellipse cx="2209.4531" cy="1550.2148" fill="#222222" rx="11.25" ry="11.25" style="stroke:#111111;stroke-width:1.875;"/><rect fill="#F0F8F3" height="127.9688" rx="11.25" ry="11.25" style="stroke:#2F7D5B;stroke-width:0.9375;" width="363.75" x="2450.3906" y="783.1934"/><text fill="#17324D" font-family="sans-serif" font-size="30" lengthAdjust="spacing" textLength="266.25" x="2476.6406" y="840.5859">Informer le client que</text><text fill="#17324D" font-family="sans-serif" font-size="30" lengthAdjust="spacing" textLength="311.25" x="2476.6406" y="878.3203">le stock est indisponible</text><ellipse cx="2632.2656" cy="969.2871" fill="none" rx="20.625" ry="20.625" style="stroke:#222222;stroke-width:1.875;"/><ellipse cx="2632.2656" cy="969.2871" fill="#222222" rx="11.25" ry="11.25" style="stroke:#111111;stroke-width:1.875;"/><line style="stroke:#000000;stroke-width:2.8125;" x1="874.4531" x2="874.4531" y1="126.8848" y2="2299.7461"/><rect fill="#F0F8F3" height="127.9688" rx="11.25" ry="11.25" style="stroke:#2F7D5B;stroke-width:0.9375;" width="307.5" x="2907.8906" y="1076.3965"/><text fill="#17324D" font-family="sans-serif" font-size="30" lengthAdjust="spacing" textLength="255" x="2934.1406" y="1133.7891">Accepter ou refuser</text><text fill="#17324D" font-family="sans-serif" font-size="30" lengthAdjust="spacing" textLength="176.25" x="2934.1406" y="1171.5234">la commande</text><polygon fill="#FFF3D8" points="2900.3906,1245.7617,3222.8906,1245.7617,3245.3906,1272.1289,3222.8906,1298.4961,2900.3906,1298.4961,2877.8906,1272.1289,2900.3906,1245.7617" style="stroke:#D8952F;stroke-width:0.9375;"/><text fill="#17324D" font-family="sans-serif" font-size="30" lengthAdjust="spacing" textLength="307.5" x="2907.8906" y="1284.4043">Commande accept&#233;e ?</text><text fill="#29485B" font-family="sans-serif" font-size="30" lengthAdjust="spacing" textLength="39.375" x="2831.0156" y="1258.0371">oui</text><text fill="#29485B" font-family="sans-serif" font-size="30" lengthAdjust="spacing" textLength="46.875" x="3252.8906" y="1258.0371">non</text><line style="stroke:#000000;stroke-width:2.8125;" x1="2821.6406" x2="2821.6406" y1="126.8848" y2="2299.7461"/><rect fill="#F0F8F3" height="127.9688" rx="11.25" ry="11.25" style="stroke:#2F7D5B;stroke-width:0.9375;" width="361.875" x="3320.3906" y="1608.3398"/><text fill="#17324D" font-family="sans-serif" font-size="30" lengthAdjust="spacing" textLength="256.875" x="3346.6406" y="1665.7324">Livrer la commande</text><text fill="#17324D" font-family="sans-serif" font-size="30" lengthAdjust="spacing" textLength="309.375" x="3346.6406" y="1703.4668">et pr&#233;senter le QR code</text><line style="stroke:#000000;stroke-width:2.8125;" x1="3309.1406" x2="3309.1406" y1="126.8848" y2="2299.7461"/><line style="stroke:#000000;stroke-width:2.8125;" x1="3689.7656" x2="3689.7656" y1="126.8848" y2="2299.7461"/><line style="stroke:#456A7D;stroke-width:2.625;" x1="421.3477" x2="421.3477" y1="226.4941" y2="263.9941"/><polygon fill="#456A7D" points="413.8477,245.2441,421.3477,263.9941,428.8477,245.2441,421.3477,252.7441" style="stroke:#456A7D;stroke-width:1.875;"/><line style="stroke:#456A7D;stroke-width:2.625;" x1="1054.4531" x2="1054.4531" y1="651.5625" y2="692.959"/><polygon fill="#456A7D" points="1046.9531,674.209,1054.4531,692.959,1061.9531,674.209,1054.4531,681.709" style="stroke:#456A7D;stroke-width:1.875;"/><line style="stroke:#456A7D;stroke-width:2.625;" x1="1451.4844" x2="1408.8281" y1="1362.3633" y2="1362.3633"/><line style="stroke:#456A7D;stroke-width:2.625;" x1="1408.8281" x2="1408.8281" y1="1362.3633" y2="1426.2305"/><polygon fill="#456A7D" points="1401.3281,1407.4805,1408.8281,1426.2305,1416.3281,1407.4805,1408.8281,1414.9805" style="stroke:#456A7D;stroke-width:1.875;"/><line style="stroke:#456A7D;stroke-width:2.625;" x1="1603.3594" x2="1603.3594" y1="1965.5273" y2="2003.0273"/><polygon fill="#456A7D" points="1595.8594,1984.2773,1603.3594,2003.0273,1610.8594,1984.2773,1603.3594,1991.7773" style="stroke:#456A7D;stroke-width:1.875;"/><line style="stroke:#456A7D;stroke-width:2.625;" x1="1603.3594" x2="1603.3594" y1="2130.9961" y2="2168.4961"/><polygon fill="#456A7D" points="1595.8594,2149.7461,1603.3594,2168.4961,1610.8594,2149.7461,1603.3594,2157.2461" style="stroke:#456A7D;stroke-width:1.875;"/><line style="stroke:#456A7D;stroke-width:2.625;" x1="2209.4531" x2="2209.4531" y1="1463.9648" y2="1529.5898"/><polygon fill="#456A7D" points="2201.9531,1510.8398,2209.4531,1529.5898,2216.9531,1510.8398,2209.4531,1518.3398" style="stroke:#456A7D;stroke-width:1.875;"/><line style="stroke:#456A7D;stroke-width:2.625;" x1="2632.2656" x2="2632.2656" y1="911.1621" y2="948.6621"/><polygon fill="#456A7D" points="2624.7656,929.9121,2632.2656,948.6621,2639.7656,929.9121,2632.2656,937.4121" style="stroke:#456A7D;stroke-width:1.875;"/><line style="stroke:#456A7D;stroke-width:2.625;" x1="2118.3984" x2="1906.4063" y1="719.3262" y2="719.3262"/><line style="stroke:#456A7D;stroke-width:2.625;" x1="1906.4063" x2="1906.4063" y1="719.3262" y2="783.1934"/><polygon fill="#456A7D" points="1898.9063,764.4434,1906.4063,783.1934,1913.9063,764.4434,1906.4063,771.9434" style="stroke:#456A7D;stroke-width:1.875;"/><line style="stroke:#456A7D;stroke-width:2.625;" x1="2420.2734" x2="2632.2656" y1="719.3262" y2="719.3262"/><line style="stroke:#456A7D;stroke-width:2.625;" x1="2632.2656" x2="2632.2656" y1="719.3262" y2="783.1934"/><polygon fill="#456A7D" points="2624.7656,764.4434,2632.2656,783.1934,2639.7656,764.4434,2632.2656,771.9434" style="stroke:#456A7D;stroke-width:1.875;"/><line style="stroke:#456A7D;stroke-width:2.625;" x1="2269.3359" x2="2269.3359" y1="651.5625" y2="692.959"/><polygon fill="#456A7D" points="2261.8359,674.209,2269.3359,692.959,2276.8359,674.209,2269.3359,681.709" style="stroke:#456A7D;stroke-width:1.875;"/><line style="stroke:#456A7D;stroke-width:2.625;" x1="1372.6758" x2="1054.4531" y1="459.7266" y2="459.7266"/><line style="stroke:#456A7D;stroke-width:2.625;" x1="1054.4531" x2="1054.4531" y1="459.7266" y2="523.5938"/><polygon fill="#456A7D" points="1046.9531,504.8438,1054.4531,523.5938,1061.9531,504.8438,1054.4531,512.3438" style="stroke:#456A7D;stroke-width:1.875;"/><line style="stroke:#456A7D;stroke-width:2.625;" x1="1862.0508" x2="2269.3359" y1="459.7266" y2="459.7266"/><line style="stroke:#456A7D;stroke-width:2.625;" x1="2269.3359" x2="2269.3359" y1="459.7266" y2="523.5938"/><polygon fill="#456A7D" points="2261.8359,504.8438,2269.3359,523.5938,2276.8359,504.8438,2269.3359,512.3438" style="stroke:#456A7D;stroke-width:1.875;"/><line style="stroke:#456A7D;stroke-width:2.625;" x1="3061.6406" x2="3061.6406" y1="1204.3652" y2="1245.7617"/><polygon fill="#456A7D" points="3054.1406,1227.0117,3061.6406,1245.7617,3069.1406,1227.0117,3061.6406,1234.5117" style="stroke:#456A7D;stroke-width:1.875;"/><line style="stroke:#456A7D;stroke-width:2.625;" x1="1906.4063" x2="1906.4063" y1="911.1621" y2="920.5371"/><line style="stroke:#456A7D;stroke-width:2.625;" x1="1906.4063" x2="710.3906" y1="920.5371" y2="920.5371"/><line style="stroke:#456A7D;stroke-width:2.625;" x1="710.3906" x2="710.3906" y1="920.5371" y2="948.6621"/><polygon fill="#456A7D" points="702.8906,929.9121,710.3906,948.6621,717.8906,929.9121,710.3906,937.4121" style="stroke:#456A7D;stroke-width:1.875;"/><line style="stroke:#456A7D;stroke-width:2.625;" x1="710.3906" x2="710.3906" y1="1038.8965" y2="1048.2715"/><line style="stroke:#456A7D;stroke-width:2.625;" x1="710.3906" x2="3061.6406" y1="1048.2715" y2="1048.2715"/><line style="stroke:#456A7D;stroke-width:2.625;" x1="3061.6406" x2="3061.6406" y1="1048.2715" y2="1076.3965"/><polygon fill="#456A7D" points="3054.1406,1057.6465,3061.6406,1076.3965,3069.1406,1057.6465,3061.6406,1065.1465" style="stroke:#456A7D;stroke-width:1.875;"/><line style="stroke:#456A7D;stroke-width:2.625;" x1="1408.8281" x2="1408.8281" y1="1554.1992" y2="1580.2148"/><line style="stroke:#456A7D;stroke-width:2.625;" x1="1408.8281" x2="3501.3281" y1="1580.2148" y2="1580.2148"/><line style="stroke:#456A7D;stroke-width:2.625;" x1="3501.3281" x2="3501.3281" y1="1580.2148" y2="1608.3398"/><polygon fill="#456A7D" points="3493.8281,1589.5898,3501.3281,1608.3398,3508.8281,1589.5898,3501.3281,1597.0898" style="stroke:#456A7D;stroke-width:1.875;"/><line style="stroke:#456A7D;stroke-width:2.625;" x1="3501.3281" x2="3501.3281" y1="1736.3086" y2="1745.6836"/><line style="stroke:#456A7D;stroke-width:2.625;" x1="3501.3281" x2="212.8125" y1="1745.6836" y2="1745.6836"/><line style="stroke:#456A7D;stroke-width:2.625;" x1="212.8125" x2="212.8125" y1="1745.6836" y2="1773.8086"/><polygon fill="#456A7D" points="205.3125,1755.0586,212.8125,1773.8086,220.3125,1755.0586,212.8125,1762.5586" style="stroke:#456A7D;stroke-width:1.875;"/><line style="stroke:#456A7D;stroke-width:2.625;" x1="1755.2344" x2="1777.7344" y1="1362.3633" y2="1362.3633"/><line style="stroke:#456A7D;stroke-width:2.625;" x1="1777.7344" x2="1777.7344" y1="1362.3633" y2="1401.9141"/><line style="stroke:#456A7D;stroke-width:2.625;" x1="1777.7344" x2="601.875" y1="1401.9141" y2="1401.9141"/><line style="stroke:#456A7D;stroke-width:2.625;" x1="601.875" x2="601.875" y1="1401.9141" y2="1426.2305"/><polygon fill="#456A7D" points="594.375,1407.4805,601.875,1426.2305,609.375,1407.4805,601.875,1414.9805" style="stroke:#456A7D;stroke-width:1.875;"/><line style="stroke:#456A7D;stroke-width:2.625;" x1="212.8125" x2="212.8125" y1="1901.7773" y2="1943.0273"/><line style="stroke:#456A7D;stroke-width:2.625;" x1="212.8125" x2="1580.8594" y1="1943.0273" y2="1943.0273"/><polygon fill="#456A7D" points="1562.1094,1935.5273,1580.8594,1943.0273,1562.1094,1950.5273,1569.6094,1943.0273" style="stroke:#456A7D;stroke-width:1.875;"/><line style="stroke:#456A7D;stroke-width:2.625;" x1="601.875" x2="601.875" y1="1554.1992" y2="1909.2773"/><line style="stroke:#456A7D;stroke-width:2.625;" x1="601.875" x2="1659.6094" y1="1909.2773" y2="1909.2773"/><line style="stroke:#456A7D;stroke-width:2.625;" x1="1659.6094" x2="1659.6094" y1="1909.2773" y2="1943.0273"/><line style="stroke:#456A7D;stroke-width:2.625;" x1="1659.6094" x2="1625.8594" y1="1943.0273" y2="1943.0273"/><polygon fill="#456A7D" points="1644.6094,1935.5273,1625.8594,1943.0273,1644.6094,1950.5273,1637.1094,1943.0273" style="stroke:#456A7D;stroke-width:1.875;"/><line style="stroke:#456A7D;stroke-width:2.625;" x1="2877.8906" x2="1603.3594" y1="1272.1289" y2="1272.1289"/><line style="stroke:#456A7D;stroke-width:2.625;" x1="1603.3594" x2="1603.3594" y1="1272.1289" y2="1335.9961"/><polygon fill="#456A7D" points="1595.8594,1317.2461,1603.3594,1335.9961,1610.8594,1317.2461,1603.3594,1324.7461" style="stroke:#456A7D;stroke-width:1.875;"/><line style="stroke:#456A7D;stroke-width:2.625;" x1="3245.3906" x2="3267.8906" y1="1272.1289" y2="1272.1289"/><line style="stroke:#456A7D;stroke-width:2.625;" x1="3267.8906" x2="3267.8906" y1="1272.1289" y2="1311.6797"/><line style="stroke:#456A7D;stroke-width:2.625;" x1="3267.8906" x2="2209.4531" y1="1311.6797" y2="1311.6797"/><line style="stroke:#456A7D;stroke-width:2.625;" x1="2209.4531" x2="2209.4531" y1="1311.6797" y2="1335.9961"/><polygon fill="#456A7D" points="2201.9531,1317.2461,2209.4531,1335.9961,2216.9531,1317.2461,2209.4531,1324.7461" style="stroke:#456A7D;stroke-width:1.875;"/><line style="stroke:#456A7D;stroke-width:2.625;" x1="421.3477" x2="421.3477" y1="391.9629" y2="401.3379"/><line style="stroke:#456A7D;stroke-width:2.625;" x1="421.3477" x2="1617.3633" y1="401.3379" y2="401.3379"/><line style="stroke:#456A7D;stroke-width:2.625;" x1="1617.3633" x2="1617.3633" y1="401.3379" y2="433.3594"/><polygon fill="#456A7D" points="1609.8633,414.6094,1617.3633,433.3594,1624.8633,414.6094,1617.3633,422.1094" style="stroke:#456A7D;stroke-width:1.875;"/><text fill="#000000" font-family="sans-serif" font-size="30" lengthAdjust="spacing" textLength="75" x="413.7891" y="165.5273">Client</text><text fill="#000000" font-family="sans-serif" font-size="30" lengthAdjust="spacing" textLength="286.875" x="1704.6094" y="165.5273">Syst&#232;me ElevConnect</text><text fill="#000000" font-family="sans-serif" font-size="30" lengthAdjust="spacing" textLength="153.75" x="2988.5156" y="165.5273">Fournisseur</text><text fill="#000000" font-family="sans-serif" font-size="30" lengthAdjust="spacing" textLength="88.125" x="3455.3906" y="165.5273">Livreur</text><!--SRC=[ZLR1Rjiu4BthAmZi8Gcm269RZfNai91jgRj0Dd3hRk-qHDc4PL8bgRGkVDYFs0_OO_qT_fFzaXrIiarBhD802MBEcpSpRuRcNA6vskO49NopAHdwx-z_K4hnKk3DXaWKvUHrmXaZYVAkqFpJE_I8CYusMA5NEEE2aXmnej3XNwHugGXIcEOvkKMp5uqbNmik55fXRKeF-umogYXdjvvSKrPW28CME5al1IzPEk4v5-YNsFnOYBIWg1VSMIToXLF-XR8bod0kYMKnH0aNZ0ZKwrk6d4AUsu8WI6Z5RNQIuJ9NCMVg1My8ccCcvqJGp8sPqsy4zUujuqUgSjBfVa8OvtxVPQgBxuq6VNzg0K8X-9VQw0_lmr7BQ7dt7_nWE6u2FgveicP4IjIxzItZ2rTax50_Y88cYekKY1eH3SF87pOGLXB3iH_q8ii-WnXuUKdo48v7uSW1QkNZns5ytmRQciKGSk26LDEzu7bggv8e-ahLjXtiBWxYWGjfvzwFHzDBbMjKPnzhp9JY3MUfI_V1DEXmi3EO1W_3Vkoiw8T9Jd8ivVZDorR1EiiraDy91aYBB_BZGHGsmLt2H4mvMz5ChCPrPbPXkgBD5NOCVJIDHt6l1UkCPI1TeVwI9C7I4Io4cGuSG3lS81hv3tTjK6Tjv7D9M4AUQGQ_h77X9cD_qkj2lzc1eySC2qKJMc2ctYxEvTHPwD4XrE_BpoTLmRixLaFV0M7HPXx5utZwGtYdbeodH9BYygjTOBOsXxxZelw9nP8orBjps6OuJVNR5bnyfPtaEvhxjk-OVtMxLMT-St3FO4_f9mYGKiARMR9g5y0i9Pwtc-IKCBNpf8ButkDanQca5Gepna6TNptzuNE9zTKxx14i0y2s0K7WrKI2A86fUl9sywrKX-_mG5exnSwZ6RgkOg12y4BGmnus265yywiw1Fhj1gaLOUYQb_J6G-Xnd7FeZK0vFYSBWIdJoua-Xo8CwnEWfUA5Hs1DGDT0P_m_7VRmGjCA2VPa3Nbx2SwJCgyEuIjNuSfVvpWtc9JAWZEwoDif0Ub47FQNEMbIirl1l-y_eFGAzY1mqeq4gPwCsqbYmp73sqkA6XJpKZ0A7If5ZGoJX1GAmBm4bRCIckUr_8oynsImyO0S7Sb327U3AgFcUQQlq4h96KhC5BXfT0tGI2whClAZamSR8koN-ZFKO2dvT7BSFLV6tPdAdBJQN83G4ZIhEWN2Qe4j7bjHGpDFO98kqARTd6Mq6XUCW5Ah0xlfaQYQc7g08M41Ujnq19cuwRnaHRxfoDcvXQSGB8KzyIVqloItn-kL22CrBEkBmvxf5JkX-WR9On0p_kU2wYlmTiWFrL0r0mgoMK0biddBBaFLXJL2FlxHkg3mpK6yyoMK-X8tXwEchKZDt_y1]--></g></svg>