<?xml version="1.0" encoding="us-ascii" standalone="no"?><svg xmlns="http://www.w3.org/2000/svg" xmlns:xlink="http://www.w3.org/1999/xlink" contentStyleType="text/css" height="1599.375px" preserveAspectRatio="none" style="width:2445px;height:1599px;background:#FFFFFF;" version="1.1" viewBox="0 0 2445 1599" width="2445px" zoomAndPan="magnify"><defs/><g><text fill="#17324D" font-family="sans-serif" font-size="41.25" font-weight="bold" lengthAdjust="spacing" textLength="555" x="931.875" y="69.071">Mod&#232;le m&#233;tier d'ElevConnect</text><!--class Utilisateur--><g id="elem_Utilisateur"><rect codeLine="64" fill="#FFFFFF" height="297.4219" id="Utilisateur" rx="11.25" ry="11.25" style="stroke:#2F7D5B;stroke-width:0.9375;" width="204.375" x="234.375" y="785.0098"/><rect fill="#E4F3EA" height="71.4844" rx="11.25" ry="11.25" style="stroke:#E4F3EA;stroke-width:0.9375;" width="204.375" x="234.375" y="785.0098"/><rect fill="#E4F3EA" height="11.25" style="stroke:#E4F3EA;stroke-width:0.9375;" width="204.375" x="234.375" y="845.2441"/><rect codeLine="64" fill="none" height="297.4219" id="Utilisateur" rx="11.25" ry="11.25" style="stroke:#2F7D5B;stroke-width:0.9375;" width="204.375" x="234.375" y="785.0098"/><ellipse cx="262.5" cy="820.752" fill="#ADD1B2" rx="20.625" ry="20.625" style="stroke:#181818;stroke-width:1.875;"/><path d="M267.3047,813.1348 Q267.5977,812.7539 267.9199,812.5781 Q268.2422,812.373 268.623,812.373 Q269.2969,812.373 269.707,812.8418 Q270.1172,813.2813 270.1172,814.3652 L270.1172,816.9141 Q270.1172,817.998 269.707,818.4668 Q269.2969,818.9063 268.623,818.9063 Q268.0371,818.9063 267.6563,818.584 Q267.3047,818.2324 267.1289,817.3242 Q267.0117,816.709 266.7188,816.3574 Q266.1035,815.7129 265.0195,815.332 Q263.9648,814.9219 262.8809,814.9219 Q261.5332,814.9219 260.3906,815.5078 Q259.2773,816.0938 258.3984,817.4121 Q257.5488,818.7305 257.5488,820.5469 L257.5488,822.4805 Q257.5488,824.6484 259.1016,826.1133 Q260.6836,827.5488 263.4961,827.5488 Q265.166,827.5488 266.3086,827.1094 Q266.9824,826.8457 267.7441,826.0547 Q268.2129,825.5859 268.4766,825.4688 Q268.7402,825.3223 269.0918,825.3223 Q269.6777,825.3223 270.1172,825.791 Q270.5859,826.2305 270.5859,826.8457 Q270.5859,827.4609 269.9707,828.1641 Q269.0918,829.1895 267.6855,829.7754 Q265.7813,830.5664 263.4961,830.5664 Q260.8301,830.5664 258.6914,829.4531 Q256.9629,828.5742 255.7324,826.6992 Q254.5313,824.7949 254.5313,822.5391 L254.5313,820.5176 Q254.5313,818.1738 255.6152,816.1523 Q256.7285,814.1016 258.6621,813.0176 Q260.5957,811.9043 262.7637,811.9043 Q264.0527,811.9043 265.1953,812.2266 Q266.3379,812.5195 267.3047,813.1348 Z " fill="#000000"/><text fill="#17324D" font-family="sans-serif" font-size="30" lengthAdjust="spacing" textLength="129.375" x="296.25" y="833.0273">Utilisateur</text><line style="stroke:#2F7D5B;stroke-width:0.9375;" x1="236.25" x2="436.875" y1="856.4941" y2="856.4941"/><text fill="#000000" font-family="sans-serif" font-size="30" lengthAdjust="spacing" textLength="24.375" x="253.125" y="902.6367">id</text><text fill="#000000" font-family="sans-serif" font-size="30" lengthAdjust="spacing" textLength="56.25" x="253.125" y="955.3711">nom</text><text fill="#000000" font-family="sans-serif" font-size="30" lengthAdjust="spacing" textLength="71.25" x="253.125" y="1008.1055">email</text><text fill="#000000" font-family="sans-serif" font-size="30" lengthAdjust="spacing" textLength="48.75" x="253.125" y="1060.8398">role</text></g><!--class Annonce--><g id="elem_Annonce"><rect codeLine="70" fill="#FFFFFF" height="350.1563" id="Annonce" rx="11.25" ry="11.25" style="stroke:#2F7D5B;stroke-width:0.9375;" width="189.375" x="820.3125" y="342.5098"/><rect fill="#E4F3EA" height="71.4844" rx="11.25" ry="11.25" style="stroke:#E4F3EA;stroke-width:0.9375;" width="189.375" x="820.3125" y="342.5098"/><rect fill="#E4F3EA" height="11.25" style="stroke:#E4F3EA;stroke-width:0.9375;" width="189.375" x="820.3125" y="402.7441"/><rect codeLine="70" fill="none" height="350.1563" id="Annonce" rx="11.25" ry="11.25" style="stroke:#2F7D5B;stroke-width:0.9375;" width="189.375" x="820.3125" y="342.5098"/><ellipse cx="848.4375" cy="378.252" fill="#ADD1B2" rx="20.625" ry="20.625" style="stroke:#181818;stroke-width:1.875;"/><path d="M853.2422,370.6348 Q853.5352,370.2539 853.8574,370.0781 Q854.1797,369.873 854.5605,369.873 Q855.2344,369.873 855.6445,370.3418 Q856.0547,370.7813 856.0547,371.8652 L856.0547,374.4141 Q856.0547,375.498 855.6445,375.9668 Q855.2344,376.4063 854.5605,376.4063 Q853.9746,376.4063 853.5938,376.084 Q853.2422,375.7324 853.0664,374.8242 Q852.9492,374.209 852.6563,373.8574 Q852.041,373.2129 850.957,372.832 Q849.9023,372.4219 848.8184,372.4219 Q847.4707,372.4219 846.3281,373.0078 Q845.2148,373.5938 844.3359,374.9121 Q843.4863,376.2305 843.4863,378.0469 L843.4863,379.9805 Q843.4863,382.1484 845.0391,383.6133 Q846.6211,385.0488 849.4336,385.0488 Q851.1035,385.0488 852.2461,384.6094 Q852.9199,384.3457 853.6816,383.5547 Q854.1504,383.0859 854.4141,382.9688 Q854.6777,382.8223 855.0293,382.8223 Q855.6152,382.8223 856.0547,383.291 Q856.5234,383.7305 856.5234,384.3457 Q856.5234,384.9609 855.9082,385.6641 Q855.0293,386.6895 853.623,387.2754 Q851.7188,388.0664 849.4336,388.0664 Q846.7676,388.0664 844.6289,386.9531 Q842.9004,386.0742 841.6699,384.1992 Q840.4688,382.2949 840.4688,380.0391 L840.4688,378.0176 Q840.4688,375.6738 841.5527,373.6523 Q842.666,371.6016 844.5996,370.5176 Q846.5332,369.4043 848.7012,369.4043 Q849.9902,369.4043 851.1328,369.7266 Q852.2754,370.0195 853.2422,370.6348 Z " fill="#000000"/><text fill="#17324D" font-family="sans-serif" font-size="30" lengthAdjust="spacing" textLength="114.375" x="882.1875" y="390.5273">Annonce</text><line style="stroke:#2F7D5B;stroke-width:0.9375;" x1="822.1875" x2="1007.8125" y1="413.9941" y2="413.9941"/><text fill="#000000" font-family="sans-serif" font-size="30" lengthAdjust="spacing" textLength="24.375" x="839.0625" y="460.1367">id</text><text fill="#000000" font-family="sans-serif" font-size="30" lengthAdjust="spacing" textLength="54.375" x="839.0625" y="512.8711">type</text><text fill="#000000" font-family="sans-serif" font-size="30" lengthAdjust="spacing" textLength="148.125" x="839.0625" y="565.6055">prixUnitaire</text><text fill="#000000" font-family="sans-serif" font-size="30" lengthAdjust="spacing" textLength="103.125" x="839.0625" y="618.3398">quantite</text><text fill="#000000" font-family="sans-serif" font-size="30" lengthAdjust="spacing" textLength="69.375" x="839.0625" y="671.0742">statut</text></g><!--class ReductionAnnonce--><g id="elem_ReductionAnnonce"><rect codeLine="77" fill="#FFFFFF" height="191.9531" id="ReductionAnnonce" rx="11.25" ry="11.25" style="stroke:#2F7D5B;stroke-width:0.9375;" width="320.625" x="1168.125" y="356.5723"/><rect fill="#E4F3EA" height="71.4844" rx="11.25" ry="11.25" style="stroke:#E4F3EA;stroke-width:0.9375;" width="320.625" x="1168.125" y="356.5723"/><rect fill="#E4F3EA" height="11.25" style="stroke:#E4F3EA;stroke-width:0.9375;" width="320.625" x="1168.125" y="416.8066"/><rect codeLine="77" fill="none" height="191.9531" id="ReductionAnnonce" rx="11.25" ry="11.25" style="stroke:#2F7D5B;stroke-width:0.9375;" width="320.625" x="1168.125" y="356.5723"/><ellipse cx="1196.25" cy="392.3145" fill="#ADD1B2" rx="20.625" ry="20.625" style="stroke:#181818;stroke-width:1.875;"/><path d="M1201.0547,384.6973 Q1201.3477,384.3164 1201.6699,384.1406 Q1201.9922,383.9355 1202.373,383.9355 Q1203.0469,383.9355 1203.457,384.4043 Q1203.8672,384.8438 1203.8672,385.9277 L1203.8672,388.4766 Q1203.8672,389.5605 1203.457,390.0293 Q1203.0469,390.4688 1202.373,390.4688 Q1201.7871,390.4688 1201.4063,390.1465 Q1201.0547,389.7949 1200.8789,388.8867 Q1200.7617,388.2715 1200.4688,387.9199 Q1199.8535,387.2754 1198.7695,386.8945 Q1197.7148,386.4844 1196.6309,386.4844 Q1195.2832,386.4844 1194.1406,387.0703 Q1193.0273,387.6563 1192.1484,388.9746 Q1191.2988,390.293 1191.2988,392.1094 L1191.2988,394.043 Q1191.2988,396.2109 1192.8516,397.6758 Q1194.4336,399.1113 1197.2461,399.1113 Q1198.916,399.1113 1200.0586,398.6719 Q1200.7324,398.4082 1201.4941,397.6172 Q1201.9629,397.1484 1202.2266,397.0313 Q1202.4902,396.8848 1202.8418,396.8848 Q1203.4277,396.8848 1203.8672,397.3535 Q1204.3359,397.793 1204.3359,398.4082 Q1204.3359,399.0234 1203.7207,399.7266 Q1202.8418,400.752 1201.4355,401.3379 Q1199.5313,402.1289 1197.2461,402.1289 Q1194.5801,402.1289 1192.4414,401.0156 Q1190.7129,400.1367 1189.4824,398.2617 Q1188.2813,396.3574 1188.2813,394.1016 L1188.2813,392.0801 Q1188.2813,389.7363 1189.3652,387.7148 Q1190.4785,385.6641 1192.4121,384.5801 Q1194.3457,383.4668 1196.5137,383.4668 Q1197.8027,383.4668 1198.9453,383.7891 Q1200.0879,384.082 1201.0547,384.6973 Z " fill="#000000"/><text fill="#17324D" font-family="sans-serif" font-size="30" lengthAdjust="spacing" textLength="245.625" x="1230" y="404.5898">ReductionAnnonce</text><line style="stroke:#2F7D5B;stroke-width:0.9375;" x1="1170" x2="1486.875" y1="428.0566" y2="428.0566"/><text fill="#000000" font-family="sans-serif" font-size="30" lengthAdjust="spacing" textLength="150" x="1186.875" y="474.1992">quantiteMin</text><text fill="#000000" font-family="sans-serif" font-size="30" lengthAdjust="spacing" textLength="163.125" x="1186.875" y="526.9336">pourcentage</text></g><!--class Commande--><g id="elem_Commande"><rect codeLine="81" fill="#FFFFFF" height="350.1563" id="Commande" rx="11.25" ry="11.25" style="stroke:#2F7D5B;stroke-width:0.9375;" width="228.75" x="1214.0625" y="633.1348"/><rect fill="#E4F3EA" height="71.4844" rx="11.25" ry="11.25" style="stroke:#E4F3EA;stroke-width:0.9375;" width="228.75" x="1214.0625" y="633.1348"/><rect fill="#E4F3EA" height="11.25" style="stroke:#E4F3EA;stroke-width:0.9375;" width="228.75" x="1214.0625" y="693.3691"/><rect codeLine="81" fill="none" height="350.1563" id="Commande" rx="11.25" ry="11.25" style="stroke:#2F7D5B;stroke-width:0.9375;" width="228.75" x="1214.0625" y="633.1348"/><ellipse cx="1242.1875" cy="668.877" fill="#ADD1B2" rx="20.625" ry="20.625" style="stroke:#181818;stroke-width:1.875;"/><path d="M1246.9922,661.2598 Q1247.2852,660.8789 1247.6074,660.7031 Q1247.9297,660.498 1248.3105,660.498 Q1248.9844,660.498 1249.3945,660.9668 Q1249.8047,661.4063 1249.8047,662.4902 L1249.8047,665.0391 Q1249.8047,666.123 1249.3945,666.5918 Q1248.9844,667.0313 1248.3105,667.0313 Q1247.7246,667.0313 1247.3438,666.709 Q1246.9922,666.3574 1246.8164,665.4492 Q1246.6992,664.834 1246.4063,664.4824 Q1245.791,663.8379 1244.707,663.457 Q1243.6523,663.0469 1242.5684,663.0469 Q1241.2207,663.0469 1240.0781,663.6328 Q1238.9648,664.2188 1238.0859,665.5371 Q1237.2363,666.8555 1237.2363,668.6719 L1237.2363,670.6055 Q1237.2363,672.7734 1238.7891,674.2383 Q1240.3711,675.6738 1243.1836,675.6738 Q1244.8535,675.6738 1245.9961,675.2344 Q1246.6699,674.9707 1247.4316,674.1797 Q1247.9004,673.7109 1248.1641,673.5938 Q1248.4277,673.4473 1248.7793,673.4473 Q1249.3652,673.4473 1249.8047,673.916 Q1250.2734,674.3555 1250.2734,674.9707 Q1250.2734,675.5859 1249.6582,676.2891 Q1248.7793,677.3145 1247.373,677.9004 Q1245.4688,678.6914 1243.1836,678.6914 Q1240.5176,678.6914 1238.3789,677.5781 Q1236.6504,676.6992 1235.4199,674.8242 Q1234.2188,672.9199 1234.2188,670.6641 L1234.2188,668.6426 Q1234.2188,666.2988 1235.3027,664.2773 Q1236.416,662.2266 1238.3496,661.1426 Q1240.2832,660.0293 1242.4512,660.0293 Q1243.7402,660.0293 1244.8828,660.3516 Q1246.0254,660.6445 1246.9922,661.2598 Z " fill="#000000"/><text fill="#17324D" font-family="sans-serif" font-size="30" lengthAdjust="spacing" textLength="153.75" x="1275.9375" y="681.1523">Commande</text><line style="stroke:#2F7D5B;stroke-width:0.9375;" x1="1215.9375" x2="1440.9375" y1="704.6191" y2="704.6191"/><text fill="#000000" font-family="sans-serif" font-size="30" lengthAdjust="spacing" textLength="24.375" x="1232.8125" y="750.7617">id</text><text fill="#000000" font-family="sans-serif" font-size="30" lengthAdjust="spacing" textLength="103.125" x="1232.8125" y="803.4961">quantite</text><text fill="#000000" font-family="sans-serif" font-size="30" lengthAdjust="spacing" textLength="148.125" x="1232.8125" y="856.2305">montantNet</text><text fill="#000000" font-family="sans-serif" font-size="30" lengthAdjust="spacing" textLength="161.25" x="1232.8125" y="908.9648">modeRetrait</text><text fill="#000000" font-family="sans-serif" font-size="30" lengthAdjust="spacing" textLength="69.375" x="1232.8125" y="961.6992">statut</text></g><!--class Paiement--><g id="elem_Paiement"><rect codeLine="88" fill="#FFFFFF" height="244.6875" id="Paiement" rx="11.25" ry="11.25" style="stroke:#2F7D5B;stroke-width:0.9375;" width="200.625" x="1751.25" y="685.6348"/><rect fill="#E4F3EA" height="71.4844" rx="11.25" ry="11.25" style="stroke:#E4F3EA;stroke-width:0.9375;" width="200.625" x="1751.25" y="685.6348"/><rect fill="#E4F3EA" height="11.25" style="stroke:#E4F3EA;stroke-width:0.9375;" width="200.625" x="1751.25" y="745.8691"/><rect codeLine="88" fill="none" height="244.6875" id="Paiement" rx="11.25" ry="11.25" style="stroke:#2F7D5B;stroke-width:0.9375;" width="200.625" x="1751.25" y="685.6348"/><ellipse cx="1779.375" cy="721.377" fill="#ADD1B2" rx="20.625" ry="20.625" style="stroke:#181818;stroke-width:1.875;"/><path d="M1784.1797,713.7598 Q1784.4727,713.3789 1784.7949,713.2031 Q1785.1172,712.998 1785.498,712.998 Q1786.1719,712.998 1786.582,713.4668 Q1786.9922,713.9063 1786.9922,714.9902 L1786.9922,717.5391 Q1786.9922,718.623 1786.582,719.0918 Q1786.1719,719.5313 1785.498,719.5313 Q1784.9121,719.5313 1784.5313,719.209 Q1784.1797,718.8574 1784.0039,717.9492 Q1783.8867,717.334 1783.5938,716.9824 Q1782.9785,716.3379 1781.8945,715.957 Q1780.8398,715.5469 1779.7559,715.5469 Q1778.4082,715.5469 1777.2656,716.1328 Q1776.1523,716.7188 1775.2734,718.0371 Q1774.4238,719.3555 1774.4238,721.1719 L1774.4238,723.1055 Q1774.4238,725.2734 1775.9766,726.7383 Q1777.5586,728.1738 1780.3711,728.1738 Q1782.041,728.1738 1783.1836,727.7344 Q1783.8574,727.4707 1784.6191,726.6797 Q1785.0879,726.2109 1785.3516,726.0938 Q1785.6152,725.9473 1785.9668,725.9473 Q1786.5527,725.9473 1786.9922,726.416 Q1787.4609,726.8555 1787.4609,727.4707 Q1787.4609,728.0859 1786.8457,728.7891 Q1785.9668,729.8145 1784.5605,730.4004 Q1782.6563,731.1914 1780.3711,731.1914 Q1777.7051,731.1914 1775.5664,730.0781 Q1773.8379,729.1992 1772.6074,727.3242 Q1771.4063,725.4199 1771.4063,723.1641 L1771.4063,721.1426 Q1771.4063,718.7988 1772.4902,716.7773 Q1773.6035,714.7266 1775.5371,713.6426 Q1777.4707,712.5293 1779.6387,712.5293 Q1780.9277,712.5293 1782.0703,712.8516 Q1783.2129,713.1445 1784.1797,713.7598 Z " fill="#000000"/><text fill="#17324D" font-family="sans-serif" font-size="30" lengthAdjust="spacing" textLength="125.625" x="1813.125" y="733.6523">Paiement</text><line style="stroke:#2F7D5B;stroke-width:0.9375;" x1="1753.125" x2="1950" y1="757.1191" y2="757.1191"/><text fill="#000000" font-family="sans-serif" font-size="30" lengthAdjust="spacing" textLength="54.375" x="1770" y="803.2617">total</text><text fill="#000000" font-family="sans-serif" font-size="30" lengthAdjust="spacing" textLength="86.25" x="1770" y="855.9961">moyen</text><text fill="#000000" font-family="sans-serif" font-size="30" lengthAdjust="spacing" textLength="69.375" x="1770" y="908.7305">statut</text></g><!--class Livraison--><g id="elem_Livraison"><rect codeLine="93" fill="#FFFFFF" height="244.6875" id="Livraison" rx="11.25" ry="11.25" style="stroke:#2F7D5B;stroke-width:0.9375;" width="193.125" x="1755" y="119.3848"/><rect fill="#E4F3EA" height="71.4844" rx="11.25" ry="11.25" style="stroke:#E4F3EA;stroke-width:0.9375;" width="193.125" x="1755" y="119.3848"/><rect fill="#E4F3EA" height="11.25" style="stroke:#E4F3EA;stroke-width:0.9375;" width="193.125" x="1755" y="179.6191"/><rect codeLine="93" fill="none" height="244.6875" id="Livraison" rx="11.25" ry="11.25" style="stroke:#2F7D5B;stroke-width:0.9375;" width="193.125" x="1755" y="119.3848"/><ellipse cx="1783.125" cy="155.127" fill="#ADD1B2" rx="20.625" ry="20.625" style="stroke:#181818;stroke-width:1.875;"/><path d="M1787.9297,147.5098 Q1788.2227,147.1289 1788.5449,146.9531 Q1788.8672,146.748 1789.248,146.748 Q1789.9219,146.748 1790.332,147.2168 Q1790.7422,147.6563 1790.7422,148.7402 L1790.7422,151.2891 Q1790.7422,152.373 1790.332,152.8418 Q1789.9219,153.2813 1789.248,153.2813 Q1788.6621,153.2813 1788.2813,152.959 Q1787.9297,152.6074 1787.7539,151.6992 Q1787.6367,151.084 1787.3438,150.7324 Q1786.7285,150.0879 1785.6445,149.707 Q1784.5898,149.2969 1783.5059,149.2969 Q1782.1582,149.2969 1781.0156,149.8828 Q1779.9023,150.4688 1779.0234,151.7871 Q1778.1738,153.1055 1778.1738,154.9219 L1778.1738,156.8555 Q1778.1738,159.0234 1779.7266,160.4883 Q1781.3086,161.9238 1784.1211,161.9238 Q1785.791,161.9238 1786.9336,161.4844 Q1787.6074,161.2207 1788.3691,160.4297 Q1788.8379,159.9609 1789.1016,159.8438 Q1789.3652,159.6973 1789.7168,159.6973 Q1790.3027,159.6973 1790.7422,160.166 Q1791.2109,160.6055 1791.2109,161.2207 Q1791.2109,161.8359 1790.5957,162.5391 Q1789.7168,163.5645 1788.3105,164.1504 Q1786.4063,164.9414 1784.1211,164.9414 Q1781.4551,164.9414 1779.3164,163.8281 Q1777.5879,162.9492 1776.3574,161.0742 Q1775.1563,159.1699 1775.1563,156.9141 L1775.1563,154.8926 Q1775.1563,152.5488 1776.2402,150.5273 Q1777.3535,148.4766 1779.2871,147.3926 Q1781.2207,146.2793 1783.3887,146.2793 Q1784.6777,146.2793 1785.8203,146.6016 Q1786.9629,146.8945 1787.9297,147.5098 Z " fill="#000000"/><text fill="#17324D" font-family="sans-serif" font-size="30" lengthAdjust="spacing" textLength="118.125" x="1816.875" y="167.4023">Livraison</text><line style="stroke:#2F7D5B;stroke-width:0.9375;" x1="1756.875" x2="1946.25" y1="190.8691" y2="190.8691"/><text fill="#000000" font-family="sans-serif" font-size="30" lengthAdjust="spacing" textLength="69.375" x="1773.75" y="237.0117">statut</text><text fill="#000000" font-family="sans-serif" font-size="30" lengthAdjust="spacing" textLength="108.75" x="1773.75" y="289.7461">codeQR</text><text fill="#000000" font-family="sans-serif" font-size="30" lengthAdjust="spacing" textLength="140.625" x="1773.75" y="342.4805">verification</text></g><!--class Versement--><g id="elem_Versement"><rect codeLine="98" fill="#FFFFFF" height="244.6875" id="Versement" rx="11.25" ry="11.25" style="stroke:#2F7D5B;stroke-width:0.9375;" width="217.5" x="2214.375" y="685.6348"/><rect fill="#E4F3EA" height="71.4844" rx="11.25" ry="11.25" style="stroke:#E4F3EA;stroke-width:0.9375;" width="217.5" x="2214.375" y="685.6348"/><rect fill="#E4F3EA" height="11.25" style="stroke:#E4F3EA;stroke-width:0.9375;" width="217.5" x="2214.375" y="745.8691"/><rect codeLine="98" fill="none" height="244.6875" id="Versement" rx="11.25" ry="11.25" style="stroke:#2F7D5B;stroke-width:0.9375;" width="217.5" x="2214.375" y="685.6348"/><ellipse cx="2242.5" cy="721.377" fill="#ADD1B2" rx="20.625" ry="20.625" style="stroke:#181818;stroke-width:1.875;"/><path d="M2247.3047,713.7598 Q2247.5977,713.3789 2247.9199,713.2031 Q2248.2422,712.998 2248.623,712.998 Q2249.2969,712.998 2249.707,713.4668 Q2250.1172,713.9063 2250.1172,714.9902 L2250.1172,717.5391 Q2250.1172,718.623 2249.707,719.0918 Q2249.2969,719.5313 2248.623,719.5313 Q2248.0371,719.5313 2247.6563,719.209 Q2247.3047,718.8574 2247.1289,717.9492 Q2247.0117,717.334 2246.7188,716.9824 Q2246.1035,716.3379 2245.0195,715.957 Q2243.9648,715.5469 2242.8809,715.5469 Q2241.5332,715.5469 2240.3906,716.1328 Q2239.2773,716.7188 2238.3984,718.0371 Q2237.5488,719.3555 2237.5488,721.1719 L2237.5488,723.1055 Q2237.5488,725.2734 2239.1016,726.7383 Q2240.6836,728.1738 2243.4961,728.1738 Q2245.166,728.1738 2246.3086,727.7344 Q2246.9824,727.4707 2247.7441,726.6797 Q2248.2129,726.2109 2248.4766,726.0938 Q2248.7402,725.9473 2249.0918,725.9473 Q2249.6777,725.9473 2250.1172,726.416 Q2250.5859,726.8555 2250.5859,727.4707 Q2250.5859,728.0859 2249.9707,728.7891 Q2249.0918,729.8145 2247.6855,730.4004 Q2245.7813,731.1914 2243.4961,731.1914 Q2240.8301,731.1914 2238.6914,730.0781 Q2236.9629,729.1992 2235.7324,727.3242 Q2234.5313,725.4199 2234.5313,723.1641 L2234.5313,721.1426 Q2234.5313,718.7988 2235.6152,716.7773 Q2236.7285,714.7266 2238.6621,713.6426 Q2240.5957,712.5293 2242.7637,712.5293 Q2244.0527,712.5293 2245.1953,712.8516 Q2246.3379,713.1445 2247.3047,713.7598 Z " fill="#000000"/><text fill="#17324D" font-family="sans-serif" font-size="30" lengthAdjust="spacing" textLength="142.5" x="2276.25" y="733.6523">Versement</text><line style="stroke:#2F7D5B;stroke-width:0.9375;" x1="2216.25" x2="2430" y1="757.1191" y2="757.1191"/><text fill="#000000" font-family="sans-serif" font-size="30" lengthAdjust="spacing" textLength="103.125" x="2233.125" y="803.2617">montant</text><text fill="#000000" font-family="sans-serif" font-size="30" lengthAdjust="spacing" textLength="153.75" x="2233.125" y="855.9961">beneficiaire</text><text fill="#000000" font-family="sans-serif" font-size="30" lengthAdjust="spacing" textLength="69.375" x="2233.125" y="908.7305">statut</text></g><!--class ServiceVeterinaire--><g id="elem_ServiceVeterinaire"><rect codeLine="103" fill="#FFFFFF" height="191.9531" id="ServiceVeterinaire" rx="11.25" ry="11.25" style="stroke:#2F7D5B;stroke-width:0.9375;" width="318.75" x="755.625" y="949.0723"/><rect fill="#E4F3EA" height="71.4844" rx="11.25" ry="11.25" style="stroke:#E4F3EA;stroke-width:0.9375;" width="318.75" x="755.625" y="949.0723"/><rect fill="#E4F3EA" height="11.25" style="stroke:#E4F3EA;stroke-width:0.9375;" width="318.75" x="755.625" y="1009.3066"/><rect codeLine="103" fill="none" height="191.9531" id="ServiceVeterinaire" rx="11.25" ry="11.25" style="stroke:#2F7D5B;stroke-width:0.9375;" width="318.75" x="755.625" y="949.0723"/><ellipse cx="783.75" cy="984.8145" fill="#ADD1B2" rx="20.625" ry="20.625" style="stroke:#181818;stroke-width:1.875;"/><path d="M788.5547,977.1973 Q788.8477,976.8164 789.1699,976.6406 Q789.4922,976.4355 789.873,976.4355 Q790.5469,976.4355 790.957,976.9043 Q791.3672,977.3438 791.3672,978.4277 L791.3672,980.9766 Q791.3672,982.0605 790.957,982.5293 Q790.5469,982.9688 789.873,982.9688 Q789.2871,982.9688 788.9063,982.6465 Q788.5547,982.2949 788.3789,981.3867 Q788.2617,980.7715 787.9688,980.4199 Q787.3535,979.7754 786.2695,979.3945 Q785.2148,978.9844 784.1309,978.9844 Q782.7832,978.9844 781.6406,979.5703 Q780.5273,980.1563 779.6484,981.4746 Q778.7988,982.793 778.7988,984.6094 L778.7988,986.543 Q778.7988,988.7109 780.3516,990.1758 Q781.9336,991.6113 784.7461,991.6113 Q786.416,991.6113 787.5586,991.1719 Q788.2324,990.9082 788.9941,990.1172 Q789.4629,989.6484 789.7266,989.5313 Q789.9902,989.3848 790.3418,989.3848 Q790.9277,989.3848 791.3672,989.8535 Q791.8359,990.293 791.8359,990.9082 Q791.8359,991.5234 791.2207,992.2266 Q790.3418,993.252 788.9355,993.8379 Q787.0313,994.6289 784.7461,994.6289 Q782.0801,994.6289 779.9414,993.5156 Q778.2129,992.6367 776.9824,990.7617 Q775.7813,988.8574 775.7813,986.6016 L775.7813,984.5801 Q775.7813,982.2363 776.8652,980.2148 Q777.9785,978.1641 779.9121,977.0801 Q781.8457,975.9668 784.0137,975.9668 Q785.3027,975.9668 786.4453,976.2891 Q787.5879,976.582 788.5547,977.1973 Z " fill="#000000"/><text fill="#17324D" font-family="sans-serif" font-size="30" lengthAdjust="spacing" textLength="243.75" x="817.5" y="997.0898">ServiceVeterinaire</text><line style="stroke:#2F7D5B;stroke-width:0.9375;" x1="757.5" x2="1072.5" y1="1020.5566" y2="1020.5566"/><text fill="#000000" font-family="sans-serif" font-size="30" lengthAdjust="spacing" textLength="48.75" x="774.375" y="1066.6992">titre</text><text fill="#000000" font-family="sans-serif" font-size="30" lengthAdjust="spacing" textLength="46.875" x="774.375" y="1119.4336">prix</text></g><!--class RendezVous--><g id="elem_RendezVous"><rect codeLine="107" fill="#FFFFFF" height="191.9531" id="RendezVous" rx="11.25" ry="11.25" style="stroke:#2F7D5B;stroke-width:0.9375;" width="241.875" x="1207.5" y="1114.0723"/><rect fill="#E4F3EA" height="71.4844" rx="11.25" ry="11.25" style="stroke:#E4F3EA;stroke-width:0.9375;" width="241.875" x="1207.5" y="1114.0723"/><rect fill="#E4F3EA" height="11.25" style="stroke:#E4F3EA;stroke-width:0.9375;" width="241.875" x="1207.5" y="1174.3066"/><rect codeLine="107" fill="none" height="191.9531" id="RendezVous" rx="11.25" ry="11.25" style="stroke:#2F7D5B;stroke-width:0.9375;" width="241.875" x="1207.5" y="1114.0723"/><ellipse cx="1235.625" cy="1149.8145" fill="#ADD1B2" rx="20.625" ry="20.625" style="stroke:#181818;stroke-width:1.875;"/><path d="M1240.4297,1142.1973 Q1240.7227,1141.8164 1241.0449,1141.6406 Q1241.3672,1141.4355 1241.748,1141.4355 Q1242.4219,1141.4355 1242.832,1141.9043 Q1243.2422,1142.3438 1243.2422,1143.4277 L1243.2422,1145.9766 Q1243.2422,1147.0605 1242.832,1147.5293 Q1242.4219,1147.9688 1241.748,1147.9688 Q1241.1621,1147.9688 1240.7813,1147.6465 Q1240.4297,1147.2949 1240.2539,1146.3867 Q1240.1367,1145.7715 1239.8438,1145.4199 Q1239.2285,1144.7754 1238.1445,1144.3945 Q1237.0898,1143.9844 1236.0059,1143.9844 Q1234.6582,1143.9844 1233.5156,1144.5703 Q1232.4023,1145.1563 1231.5234,1146.4746 Q1230.6738,1147.793 1230.6738,1149.6094 L1230.6738,1151.543 Q1230.6738,1153.7109 1232.2266,1155.1758 Q1233.8086,1156.6113 1236.6211,1156.6113 Q1238.291,1156.6113 1239.4336,1156.1719 Q1240.1074,1155.9082 1240.8691,1155.1172 Q1241.3379,1154.6484 1241.6016,1154.5313 Q1241.8652,1154.3848 1242.2168,1154.3848 Q1242.8027,1154.3848 1243.2422,1154.8535 Q1243.7109,1155.293 1243.7109,1155.9082 Q1243.7109,1156.5234 1243.0957,1157.2266 Q1242.2168,1158.252 1240.8105,1158.8379 Q1238.9063,1159.6289 1236.6211,1159.6289 Q1233.9551,1159.6289 1231.8164,1158.5156 Q1230.0879,1157.6367 1228.8574,1155.7617 Q1227.6563,1153.8574 1227.6563,1151.6016 L1227.6563,1149.5801 Q1227.6563,1147.2363 1228.7402,1145.2148 Q1229.8535,1143.1641 1231.7871,1142.0801 Q1233.7207,1140.9668 1235.8887,1140.9668 Q1237.1777,1140.9668 1238.3203,1141.2891 Q1239.4629,1141.582 1240.4297,1142.1973 Z " fill="#000000"/><text fill="#17324D" font-family="sans-serif" font-size="30" lengthAdjust="spacing" textLength="166.875" x="1269.375" y="1162.0898">RendezVous</text><line style="stroke:#2F7D5B;stroke-width:0.9375;" x1="1209.375" x2="1447.5" y1="1185.5566" y2="1185.5566"/><text fill="#000000" font-family="sans-serif" font-size="30" lengthAdjust="spacing" textLength="150" x="1226.25" y="1231.6992">datePrevue</text><text fill="#000000" font-family="sans-serif" font-size="30" lengthAdjust="spacing" textLength="69.375" x="1226.25" y="1284.4336">statut</text></g><!--class Notification--><g id="elem_Notification"><rect codeLine="111" fill="#FFFFFF" height="191.9531" id="Notification" rx="11.25" ry="11.25" style="stroke:#2F7D5B;stroke-width:0.9375;" width="221.25" x="804.375" y="1395.3223"/><rect fill="#E4F3EA" height="71.4844" rx="11.25" ry="11.25" style="stroke:#E4F3EA;stroke-width:0.9375;" width="221.25" x="804.375" y="1395.3223"/><rect fill="#E4F3EA" height="11.25" style="stroke:#E4F3EA;stroke-width:0.9375;" width="221.25" x="804.375" y="1455.5566"/><rect codeLine="111" fill="none" height="191.9531" id="Notification" rx="11.25" ry="11.25" style="stroke:#2F7D5B;stroke-width:0.9375;" width="221.25" x="804.375" y="1395.3223"/><ellipse cx="832.5" cy="1431.0645" fill="#ADD1B2" rx="20.625" ry="20.625" style="stroke:#181818;stroke-width:1.875;"/><path d="M837.3047,1423.4473 Q837.5977,1423.0664 837.9199,1422.8906 Q838.2422,1422.6855 838.623,1422.6855 Q839.2969,1422.6855 839.707,1423.1543 Q840.1172,1423.5938 840.1172,1424.6777 L840.1172,1427.2266 Q840.1172,1428.3105 839.707,1428.7793 Q839.2969,1429.2188 838.623,1429.2188 Q838.0371,1429.2188 837.6563,1428.8965 Q837.3047,1428.5449 837.1289,1427.6367 Q837.0117,1427.0215 836.7188,1426.6699 Q836.1035,1426.0254 835.0195,1425.6445 Q833.9648,1425.2344 832.8809,1425.2344 Q831.5332,1425.2344 830.3906,1425.8203 Q829.2773,1426.4063 828.3984,1427.7246 Q827.5488,1429.043 827.5488,1430.8594 L827.5488,1432.793 Q827.5488,1434.9609 829.1016,1436.4258 Q830.6836,1437.8613 833.4961,1437.8613 Q835.166,1437.8613 836.3086,1437.4219 Q836.9824,1437.1582 837.7441,1436.3672 Q838.2129,1435.8984 838.4766,1435.7813 Q838.7402,1435.6348 839.0918,1435.6348 Q839.6777,1435.6348 840.1172,1436.1035 Q840.5859,1436.543 840.5859,1437.1582 Q840.5859,1437.7734 839.9707,1438.4766 Q839.0918,1439.502 837.6855,1440.0879 Q835.7813,1440.8789 833.4961,1440.8789 Q830.8301,1440.8789 828.6914,1439.7656 Q826.9629,1438.8867 825.7324,1437.0117 Q824.5313,1435.1074 824.5313,1432.8516 L824.5313,1430.8301 Q824.5313,1428.4863 825.6152,1426.4648 Q826.7285,1424.4141 828.6621,1423.3301 Q830.5957,1422.2168 832.7637,1422.2168 Q834.0527,1422.2168 835.1953,1422.5391 Q836.3379,1422.832 837.3047,1423.4473 Z " fill="#000000"/><text fill="#17324D" font-family="sans-serif" font-size="30" lengthAdjust="spacing" textLength="146.25" x="866.25" y="1443.3398">Notification</text><line style="stroke:#2F7D5B;stroke-width:0.9375;" x1="806.25" x2="1023.75" y1="1466.8066" y2="1466.8066"/><text fill="#000000" font-family="sans-serif" font-size="30" lengthAdjust="spacing" textLength="101.25" x="823.125" y="1512.9492">contenu</text><text fill="#000000" font-family="sans-serif" font-size="30" lengthAdjust="spacing" textLength="37.5" x="823.125" y="1565.6836">lue</text></g><g id="elem_GMN24"><path d="M11.25,1179.6973 L11.25,1266.416 A11.25,11.25 0 0 0 22.5,1277.666 L650.625,1277.666 A11.25,11.25 0 0 0 661.875,1266.416 L661.875,1187.1973 L643.125,1168.4473 L311.25,1168.4473 L303.75,1083.5285 L296.25,1168.4473 L22.5,1168.4473 A11.25,11.25 0 0 0 11.25,1179.6973 " fill="#FFF8E8" style="stroke:#E5AE45;stroke-width:0.9375;"/><path d="M643.125,1168.4473 L643.125,1181.5723 A5.625,5.625 0 0 0 648.75,1187.1973 L661.875,1187.1973 L643.125,1168.4473 " fill="#FFF8E8" style="stroke:#E5AE45;stroke-width:0.9375;"/><text fill="#5B481E" font-family="sans-serif" font-size="30" lengthAdjust="spacing" textLength="596.25" x="30" y="1216.4648">R&#244;les : acheteur, &#233;leveur, vendeur, v&#233;t&#233;rinaire,</text><text fill="#5B481E" font-family="sans-serif" font-size="30" lengthAdjust="spacing" textLength="316.875" x="30" y="1254.1992">livreur ou administrateur.</text></g><g id="elem_GMN27"><path d="M1582.5,461.5723 L1582.5,548.291 A11.25,11.25 0 0 0 1593.75,559.541 L2109.375,559.541 A11.25,11.25 0 0 0 2120.625,548.291 L2120.625,469.0723 L2101.875,450.3223 L1860,450.3223 L1852.5,365.7598 L1845,450.3223 L1593.75,450.3223 A11.25,11.25 0 0 0 1582.5,461.5723 " fill="#FFF8E8" style="stroke:#E5AE45;stroke-width:0.9375;"/><path d="M2101.875,450.3223 L2101.875,463.4473 A5.625,5.625 0 0 0 2107.5,469.0723 L2120.625,469.0723 L2101.875,450.3223 " fill="#FFF8E8" style="stroke:#E5AE45;stroke-width:0.9375;"/><text fill="#5B481E" font-family="sans-serif" font-size="30" lengthAdjust="spacing" textLength="450" x="1601.25" y="498.3398">Cr&#233;&#233;e seulement si le client choisit</text><text fill="#5B481E" font-family="sans-serif" font-size="30" lengthAdjust="spacing" textLength="483.75" x="1601.25" y="536.0742">une livraison plut&#244;t qu'un retrait direct.</text></g><!--link Utilisateur to Annonce--><g id="link_Utilisateur_Annonce"><path codeLine="116" d="M439.3125,839.7035 C605.5313,839.7035 915,839.7035 915,839.7035 C915,839.7035 915,702.7348 915,702.7348 " fill="none" id="Utilisateur-to-Annonce" style="stroke:#456A7D;stroke-width:2.625;"/><polygon fill="#456A7D" points="915,693.3598,907.5,710.2348,915,702.7348,922.5,710.2348,915,693.3598" style="stroke:#456A7D;stroke-width:2.625;"/><text fill="#29485B" font-family="sans-serif" font-size="30" lengthAdjust="spacing" textLength="78.75" x="618.1313" y="880.2211">publie</text><text fill="#29485B" font-family="sans-serif" font-size="30" lengthAdjust="spacing" textLength="157.5" x="578.7563" y="917.9555">[fournisseur]</text><text fill="#29485B" font-family="sans-serif" font-size="30" lengthAdjust="spacing" textLength="16.875" x="461.2775" y="870.1013">1</text><text fill="#29485B" font-family="sans-serif" font-size="30" lengthAdjust="spacing" textLength="43.125" x="862.3315" y="746.2152">0..*</text></g><!--reverse link Annonce to ReductionAnnonce--><g id="link_Annonce_ReductionAnnonce"><path codeLine="117" d="M1034.2313,452.1973 C1034.2313,452.1973 1167.5625,452.1973 1167.5625,452.1973 " fill="none" id="Annonce-backto-ReductionAnnonce" style="stroke:#456A7D;stroke-width:2.625;"/><polygon fill="#456A7D" points="1009.8563,452.1973,1021.1063,459.6973,1032.3563,452.1973,1021.1063,444.6973,1009.8563,452.1973" style="stroke:#456A7D;stroke-width:2.625;"/><text fill="#29485B" font-family="sans-serif" font-size="30" lengthAdjust="spacing" textLength="108.75" x="982.7625" y="436.4648">propose</text><text fill="#29485B" font-family="sans-serif" font-size="30" lengthAdjust="spacing" textLength="16.875" x="1032.2442" y="485.5961">1</text><text fill="#29485B" font-family="sans-serif" font-size="30" lengthAdjust="spacing" textLength="43.125" x="1102.3954" y="492.8317">0..*</text></g><!--link Utilisateur to Commande--><g id="link_Utilisateur_Commande"><path codeLine="118" d="M438.975,894.3785 C438.975,894.3785 1204.2937,894.3785 1204.2937,894.3785 " fill="none" id="Utilisateur-to-Commande" style="stroke:#456A7D;stroke-width:2.625;"/><polygon fill="#456A7D" points="1213.6687,894.3785,1196.7937,886.8785,1204.2937,894.3785,1196.7937,901.8785,1213.6687,894.3785" style="stroke:#456A7D;stroke-width:2.625;"/><text fill="#29485B" font-family="sans-serif" font-size="30" lengthAdjust="spacing" textLength="80.625" x="973.5188" y="841.1461">passe</text><text fill="#29485B" font-family="sans-serif" font-size="30" lengthAdjust="spacing" textLength="365.625" x="831.0188" y="878.8805">[&#8800; propri&#233;taire de l'annonce]</text><text fill="#29485B" font-family="sans-serif" font-size="30" lengthAdjust="spacing" textLength="16.875" x="460.8989" y="931.4398">1</text><text fill="#29485B" font-family="sans-serif" font-size="30" lengthAdjust="spacing" textLength="43.125" x="1148.2112" y="944.626">0..*</text></g><!--link Annonce to Commande--><g id="link_Annonce_Commande"><path codeLine="119" d="M1009.8563,663.1348 C1009.8563,663.1348 1204.0313,663.1348 1204.0313,663.1348 " fill="none" id="Annonce-to-Commande" style="stroke:#456A7D;stroke-width:2.625;"/><polygon fill="#456A7D" points="1213.4063,663.1348,1196.5313,655.6348,1204.0313,663.1348,1196.5313,670.6348,1213.4063,663.1348" style="stroke:#456A7D;stroke-width:2.625;"/><text fill="#29485B" font-family="sans-serif" font-size="30" lengthAdjust="spacing" textLength="120" x="1116.3188" y="647.4023">concerne</text><text fill="#29485B" font-family="sans-serif" font-size="30" lengthAdjust="spacing" textLength="16.875" x="1032.2442" y="724.8783">1</text><text fill="#29485B" font-family="sans-serif" font-size="30" lengthAdjust="spacing" textLength="43.125" x="1148.597" y="690.0917">0..*</text></g><!--reverse link Commande to Paiement--><g id="link_Commande_Paiement"><path codeLine="120" d="M1467.6188,808.4473 C1467.6188,808.4473 1751.1563,808.4473 1751.1563,808.4473 " fill="none" id="Commande-backto-Paiement" style="stroke:#456A7D;stroke-width:2.625;"/><polygon fill="#456A7D" points="1443.2438,808.4473,1454.4938,815.9473,1465.7438,808.4473,1454.4938,800.9473,1443.2438,808.4473" style="stroke:#456A7D;stroke-width:2.625;"/><text fill="#29485B" font-family="sans-serif" font-size="30" lengthAdjust="spacing" textLength="65.625" x="1534.3875" y="848.9648">r&#232;gle</text><text fill="#29485B" font-family="sans-serif" font-size="30" lengthAdjust="spacing" textLength="16.875" x="1465.0438" y="849.9994">1</text><text fill="#29485B" font-family="sans-serif" font-size="30" lengthAdjust="spacing" textLength="48.75" x="1679.6112" y="850.1927">0..1</text></g><!--reverse link Commande to Livraison--><g id="link_Commande_Livraison"><path codeLine="121" d="M1467.3188,659.3848 C1467.3188,659.3848 1535.625,659.3848 1535.625,659.3848 C1535.625,659.3848 1535.625,349.541 1535.625,349.541 C1535.625,349.541 1661.3625,349.541 1754.1938,349.541 " fill="none" id="Commande-backto-Livraison" style="stroke:#456A7D;stroke-width:2.625;"/><polygon fill="#456A7D" points="1442.9438,659.3848,1454.1938,666.8848,1465.4438,659.3848,1454.1938,651.8848,1442.9438,659.3848" style="stroke:#456A7D;stroke-width:2.625;"/><text fill="#29485B" font-family="sans-serif" font-size="30" lengthAdjust="spacing" textLength="52.5" x="1585.3125" y="376.1086">livre</text><text fill="#29485B" font-family="sans-serif" font-size="30" lengthAdjust="spacing" textLength="133.125" x="1545" y="413.843">[optionnel]</text><text fill="#29485B" font-family="sans-serif" font-size="30" lengthAdjust="spacing" textLength="16.875" x="1465.5263" y="683.8678">1</text><text fill="#29485B" font-family="sans-serif" font-size="30" lengthAdjust="spacing" textLength="48.75" x="1683.8077" y="402.8595">0..1</text></g><!--link Utilisateur to Livraison--><g id="link_Utilisateur_Livraison"><path codeLine="122" d="M337.5,784.9535 C337.5,578.5535 337.5,230.9473 337.5,230.9473 C337.5,230.9473 1745.175,230.9473 1745.175,230.9473 " fill="none" id="Utilisateur-to-Livraison" style="stroke:#456A7D;stroke-width:2.625;"/><polygon fill="#456A7D" points="1754.55,230.9473,1737.675,223.4473,1745.175,230.9473,1737.675,238.4473,1754.55,230.9473" style="stroke:#456A7D;stroke-width:2.625;"/><text fill="#29485B" font-family="sans-serif" font-size="30" lengthAdjust="spacing" textLength="88.125" x="664.95" y="271.4648">assure</text><text fill="#29485B" font-family="sans-serif" font-size="30" lengthAdjust="spacing" textLength="91.875" x="663.075" y="309.1992">[livreur]</text><text fill="#29485B" font-family="sans-serif" font-size="30" lengthAdjust="spacing" textLength="48.75" x="278.5913" y="756.0656">0..1</text><text fill="#29485B" font-family="sans-serif" font-size="30" lengthAdjust="spacing" textLength="43.125" x="1689.3476" y="271.392">0..*</text></g><!--link Paiement to Versement--><g id="link_Paiement_Versement"><path codeLine="123" d="M1952.1375,808.4473 C1952.1375,808.4473 2204.2687,808.4473 2204.2687,808.4473 " fill="none" id="Paiement-to-Versement" style="stroke:#456A7D;stroke-width:2.625;"/><polygon fill="#456A7D" points="2213.6437,808.4473,2196.7687,800.9473,2204.2687,808.4473,2196.7687,815.9473,2213.6437,808.4473" style="stroke:#456A7D;stroke-width:2.625;"/><text fill="#29485B" font-family="sans-serif" font-size="30" lengthAdjust="spacing" textLength="133.125" x="2087.5875" y="792.7148">d&#233;clenche</text><text fill="#29485B" font-family="sans-serif" font-size="30" lengthAdjust="spacing" textLength="16.875" x="1974.5657" y="850.5282">1</text><text fill="#29485B" font-family="sans-serif" font-size="30" lengthAdjust="spacing" textLength="43.125" x="2148.7314" y="849.8573">1..*</text></g><!--link Utilisateur to ServiceVeterinaire--><g id="link_Utilisateur_ServiceVeterinaire"><path codeLine="124" d="M439.3125,993.7535 C439.3125,993.7535 746.025,993.7535 746.025,993.7535 " fill="none" id="Utilisateur-to-ServiceVeterinaire" style="stroke:#456A7D;stroke-width:2.625;"/><polygon fill="#456A7D" points="755.4,993.7535,738.525,986.2535,746.025,993.7535,738.525,1001.2535,755.4,993.7535" style="stroke:#456A7D;stroke-width:2.625;"/><text fill="#29485B" font-family="sans-serif" font-size="30" lengthAdjust="spacing" textLength="108.75" x="452.9813" y="1034.2711">propose</text><text fill="#29485B" font-family="sans-serif" font-size="30" lengthAdjust="spacing" textLength="151.875" x="431.4188" y="1072.0055">[v&#233;t&#233;rinaire]</text><text fill="#29485B" font-family="sans-serif" font-size="30" lengthAdjust="spacing" textLength="16.875" x="461.2775" y="1042.9261">1</text><text fill="#29485B" font-family="sans-serif" font-size="30" lengthAdjust="spacing" textLength="43.125" x="689.741" y="1030.4096">0..*</text></g><!--link ServiceVeterinaire to RendezVous--><g id="link_ServiceVeterinaire_RendezVous"><path codeLine="125" d="M1074.8438,1127.1973 C1074.8438,1127.1973 1198.125,1127.1973 1198.125,1127.1973 " fill="none" id="ServiceVeterinaire-to-RendezVous" style="stroke:#456A7D;stroke-width:2.625;"/><polygon fill="#456A7D" points="1207.5,1127.1973,1190.625,1119.6973,1198.125,1127.1973,1190.625,1134.6973,1207.5,1127.1973" style="stroke:#456A7D;stroke-width:2.625;"/><text fill="#29485B" font-family="sans-serif" font-size="30" lengthAdjust="spacing" textLength="120" x="1007.1" y="1167.7148">concerne</text><text fill="#29485B" font-family="sans-serif" font-size="30" lengthAdjust="spacing" textLength="16.875" x="1096.9006" y="1174.8263">1</text><text fill="#29485B" font-family="sans-serif" font-size="30" lengthAdjust="spacing" textLength="43.125" x="1142.1094" y="1102.6117">0..*</text></g><!--link Utilisateur to RendezVous--><g id="link_Utilisateur_RendezVous"><path codeLine="126" d="M371.25,1083.4723 C371.25,1122.7535 371.25,1154.3848 371.25,1154.3848 C371.25,1154.3848 1197.825,1154.3848 1197.825,1154.3848 " fill="none" id="Utilisateur-to-RendezVous" style="stroke:#456A7D;stroke-width:2.625;"/><polygon fill="#456A7D" points="1207.2,1154.3848,1190.325,1146.8848,1197.825,1154.3848,1190.325,1161.8848,1207.2,1154.3848" style="stroke:#456A7D;stroke-width:2.625;"/><text fill="#29485B" font-family="sans-serif" font-size="30" lengthAdjust="spacing" textLength="123.75" x="758.4563" y="1194.9023">demande</text><text fill="#29485B" font-family="sans-serif" font-size="30" lengthAdjust="spacing" textLength="108.75" x="765.9563" y="1232.6367">[&#233;leveur]</text><text fill="#29485B" font-family="sans-serif" font-size="30" lengthAdjust="spacing" textLength="16.875" x="348.3691" y="1136.1493">1</text><text fill="#29485B" font-family="sans-serif" font-size="30" lengthAdjust="spacing" textLength="43.125" x="1141.7798" y="1190.1434">0..*</text></g><!--link Utilisateur to Notification--><g id="link_Utilisateur_Notification"><path codeLine="127" d="M438.75,1038.4535 C548.9437,1038.4535 708.75,1038.4535 708.75,1038.4535 C708.75,1038.4535 708.75,1490.9473 708.75,1490.9473 C708.75,1490.9473 794.6438,1490.9473 794.6438,1490.9473 " fill="none" id="Utilisateur-to-Notification" style="stroke:#456A7D;stroke-width:2.625;"/><polygon fill="#456A7D" points="804.0188,1490.9473,787.1438,1483.4473,794.6438,1490.9473,787.1438,1498.4473,804.0188,1490.9473" style="stroke:#456A7D;stroke-width:2.625;"/><text fill="#29485B" font-family="sans-serif" font-size="30" lengthAdjust="spacing" textLength="73.125" x="626.25" y="1156.9148">re&#231;oit</text><text fill="#29485B" font-family="sans-serif" font-size="30" lengthAdjust="spacing" textLength="16.875" x="452.1094" y="1134.4523">1</text><text fill="#29485B" font-family="sans-serif" font-size="30" lengthAdjust="spacing" textLength="43.125" x="738.9517" y="1532.2727">0..*</text></g><!--SRC=[ZLVBRkCs5DthAuXq4M0mCVoCdImA-ALfWKcGnfDisYnewTecGf4QYl8aCoZGRVVzWDbrl9y_q9_Cb_IIacNQLfG6YFMuvzmtoQjJCjFF74WWeoWLvCTV_v2GqQMYKGG9cN9OZwKG46ZlbCpktv5Bif0gefgiyPrK33WHe4dsbMYPQY2QCiwXGMwk3HQUOgaqML4Z2hFDWWcccHGDBtba8gPeXinfyBXKCXNXM7Afo4- -_NCGOSn8Qz1qtYGh6ifFJ2p9Wl8478bL54WbG95Msn5mXdu-nq3GePLqjSE2fbpxKkXh6W6PKP7CGB55DMR6FWDfdJl23qnpgAMN24jkjwj4HV2jVgVTdJY0eLBoKo7iziw7_IEXmsvVT0UzqI7Wmue5ZmAIXBGQNKTuBJMCAh8_c0uEKLA5e0h4j3USTdi72CU9tgWxQ4qT-GtQeCjz9HV3KN_Ohm0T-TFrX_xvCT3DcOycEzMGlBldaeTkLWBDram_7njh-WE_KuLqVM_x_Sb-bWjKRHqBp8JHI8gmAk-ToQ26u7em6LpqsdvbH2ywEUOqIKQlBhOSLXkkXVm25257-gPTlpCT7eBh4ZCLkh8KXuuLk5hFSaoTjPcc5Kq_dVXzltK4gxLb8NMcxX88Q59XR8WzFQW0kkOwqtxtedaCgeqDFgOW0dZF5lWl3XRSUDGTj-hGhrPWoxYXIhE0nLJeruEh8jK6kYKCpVdo_vtAuVKLAw3lK65yhBdlZ_p9Y_3QN0ePGW8nsTiM5HMFvcMlMR5GhwXQCa5QLR8R6eRcR1liRMbb-hRYjiiToQTgMlwkUzYuEx37OQ7nz2QABLSQJt-59pkUqTwAXK0WYlKpYI2QWqeS9O5PraEj5PlZsVvh88KzsvgUDWSQkP9XzWslKRRH38_YyDGP9OZdMJgvquop1Br95VdY4S92_14omb-8S930gv8Sl3yB_508YGNPOSs1ZfTOiQSxd2me-ewF7rDgzW5pcs2igIuLt4AOsk1SJLlu5HD6bqnL04BZ-L7InZWSKH4wXXqJk3bhVBW6RHz2k0MjADF7rcyeWmXLMpLQQiejund4CVOzMwEIH0eBBeG4nxGGVhl5cxKPCLX0RQMsf7kiqSv2uHZUpK40WbcHdmDJEAsiMG3te56dC9ZSGQRLDhbE0Z4Dd-zbcbXCQ3f9mJgjK8jJGUcX1MEFQ10ftl7KvDPpot_IEY5dPp-JasQZyUQahFGbYTCvP_27-7s1XH4iIH3zu6tbXlRcx6nBEwelyfMC9Ow8DSRAyY8QFJV6VlpzrJ8LmmQsAK4nFwMvsdtxrPe28ySnr2lVkRxYRTaDbqHbtvRyPUIk5ovnZ5qhuw2CJPW2-CD-P3d3SSabOt2fPLij9e-b4sKWBSlQTTAbcTi3ZXlXgZQ95LrK9XyjhZ6FsQQGF7WLw0DzJgSvoQnnO8yGWiqa6iuskF7OM6kuUxsAzO3iNuahs1CusUBmgBMCY5ou-nLsyMtsdOCnHZ4rvjrRiZNs5jSdchStRk1lJVFdkISo9JICy8CemUt2q1iUSeWnUMYth27InohRP1iWk0vuNg644VC1Xwi47uALP8dTV581rbPU_9YdElkkSUCwnSyybMzHnMQ_C_mV]--></g></svg>