<?xml version="1.0" encoding="us-ascii" standalone="no"?><svg xmlns="http://www.w3.org/2000/svg" xmlns:xlink="http://www.w3.org/1999/xlink" contentStyleType="text/css" height="2505px" preserveAspectRatio="none" style="width:2017px;height:2505px;background:#FFFFFF;" version="1.1" viewBox="0 0 2017 2505" width="2017.5px" zoomAndPan="magnify"><defs/><g><text fill="#17324D" font-family="sans-serif" font-size="41.25" font-weight="bold" lengthAdjust="spacing" textLength="590.625" x="700.3125" y="69.071">Mod&#232;le conceptuel de donn&#233;es</text><!--cluster Utilisateurs--><g id="cluster_Utilisateurs"><path d="M1194.375,117.5098 L1359.375,117.5098 A16.875,16.875 0 0 1 1370.625,128.7598 L1383.75,181.4941 L1494.375,181.4941 A11.25,11.25 0 0 1 1505.625,192.7441 L1505.625,537.5098 A11.25,11.25 0 0 1 1494.375,548.7598 L1194.375,548.7598 A11.25,11.25 0 0 1 1183.125,537.5098 L1183.125,128.7598 A11.25,11.25 0 0 1 1194.375,117.5098 " fill="#F4FAF6" style="stroke:#9CB4C1;stroke-width:2.8125;"/><line style="stroke:#9CB4C1;stroke-width:2.8125;" x1="1183.125" x2="1383.75" y1="181.4941" y2="181.4941"/><text fill="#000000" font-family="sans-serif" font-size="30" font-weight="bold" lengthAdjust="spacing" textLength="161.25" x="1198.125" y="159.9023">Utilisateurs</text></g><!--cluster Catalogue--><g id="cluster_Catalogue"><path d="M328.125,593.7598 L478.125,593.7598 A16.875,16.875 0 0 1 489.375,605.0098 L502.5,657.7441 L778.125,657.7441 A11.25,11.25 0 0 1 789.375,668.9941 L789.375,1537.8223 A11.25,11.25 0 0 1 778.125,1549.0723 L328.125,1549.0723 A11.25,11.25 0 0 1 316.875,1537.8223 L316.875,605.0098 A11.25,11.25 0 0 1 328.125,593.7598 " fill="#F4FAF6" style="stroke:#9CB4C1;stroke-width:2.8125;"/><line style="stroke:#9CB4C1;stroke-width:2.8125;" x1="316.875" x2="502.5" y1="657.7441" y2="657.7441"/><text fill="#000000" font-family="sans-serif" font-size="30" font-weight="bold" lengthAdjust="spacing" textLength="146.25" x="331.875" y="636.1523">Catalogue</text></g><!--cluster Vente & livraison--><g id="cluster_Vente &amp; livraison"><path d="M845.625,1118.7598 L1091.25,1118.7598 A16.875,16.875 0 0 1 1102.5,1130.0098 L1115.625,1182.7441 L1471.875,1182.7441 A11.25,11.25 0 0 1 1483.125,1193.9941 L1483.125,2481.8848 A11.25,11.25 0 0 1 1471.875,2493.1348 L845.625,2493.1348 A11.25,11.25 0 0 1 834.375,2481.8848 L834.375,1130.0098 A11.25,11.25 0 0 1 845.625,1118.7598 " fill="#F4FAF6" style="stroke:#9CB4C1;stroke-width:2.8125;"/><line style="stroke:#9CB4C1;stroke-width:2.8125;" x1="834.375" x2="1115.625" y1="1182.7441" y2="1182.7441"/><text fill="#000000" font-family="sans-serif" font-size="30" font-weight="bold" lengthAdjust="spacing" textLength="241.875" x="849.375" y="1161.1523">Vente &amp; livraison</text></g><!--cluster Services v?t?rinaires--><g id="cluster_Services v&#233;t&#233;rinaires"><path d="M1539.375,647.1973 L1841.25,647.1973 A16.875,16.875 0 0 1 1852.5,658.4473 L1865.625,711.1816 L1993.125,711.1816 A11.25,11.25 0 0 1 2004.375,722.4316 L2004.375,1537.8223 A11.25,11.25 0 0 1 1993.125,1549.0723 L1539.375,1549.0723 A11.25,11.25 0 0 1 1528.125,1537.8223 L1528.125,658.4473 A11.25,11.25 0 0 1 1539.375,647.1973 " fill="#F4FAF6" style="stroke:#9CB4C1;stroke-width:2.8125;"/><line style="stroke:#9CB4C1;stroke-width:2.8125;" x1="1528.125" x2="1865.625" y1="711.1816" y2="711.1816"/><text fill="#000000" font-family="sans-serif" font-size="30" font-weight="bold" lengthAdjust="spacing" textLength="298.125" x="1543.125" y="689.5898">Services v&#233;t&#233;rinaires</text></g><!--class UTILISATEUR--><g id="elem_UTILISATEUR"><rect codeLine="63" fill="#FFFFFF" height="312.4219" id="UTILISATEUR" rx="11.25" ry="11.25" style="stroke:#2F7D5B;stroke-width:0.9375;" width="260.625" x="1214.0625" y="205.6348"/><rect fill="#E4F3EA" height="71.4844" rx="11.25" ry="11.25" style="stroke:#E4F3EA;stroke-width:0.9375;" width="260.625" x="1214.0625" y="205.6348"/><rect fill="#E4F3EA" height="11.25" style="stroke:#E4F3EA;stroke-width:0.9375;" width="260.625" x="1214.0625" y="265.8691"/><rect codeLine="63" fill="none" height="312.4219" id="UTILISATEUR" rx="11.25" ry="11.25" style="stroke:#2F7D5B;stroke-width:0.9375;" width="260.625" x="1214.0625" y="205.6348"/><ellipse cx="1242.1875" cy="241.377" fill="#ADD1B2" rx="20.625" ry="20.625" style="stroke:#181818;stroke-width:1.875;"/><path d="M1240.6055,242.4023 L1240.6055,246.7969 L1248.2813,246.7969 L1248.2813,245.1855 Q1248.2813,244.1016 1248.6914,243.6328 Q1249.1016,243.1641 1249.7754,243.1641 Q1250.4492,243.1641 1250.8594,243.6328 Q1251.2695,244.1016 1251.2695,245.1855 L1251.2695,249.8145 L1237.1484,249.8145 Q1236.0645,249.8145 1235.5957,249.4043 Q1235.127,248.9648 1235.127,248.291 Q1235.127,247.6465 1235.5957,247.2363 Q1236.0645,246.7969 1237.1484,246.7969 L1237.6172,246.7969 L1237.6172,235.0488 L1237.1484,235.0488 Q1236.0645,235.0488 1235.5957,234.6387 Q1235.127,234.2285 1235.127,233.5547 Q1235.127,232.8809 1235.5957,232.4707 Q1236.0645,232.0313 1237.1484,232.0313 L1250.625,232.0605 L1250.625,236.6309 Q1250.625,237.6855 1250.2148,238.1543 Q1249.8047,238.623 1249.1309,238.623 Q1248.457,238.623 1248.0176,238.1836 Q1247.6074,237.7148 1247.6074,236.6309 L1247.6074,235.0488 L1240.6055,235.0488 L1240.6055,239.3848 L1243.2422,239.3848 Q1243.2422,238.2129 1243.4766,237.8906 Q1243.916,237.1582 1244.7656,237.1582 Q1245.4102,237.1582 1245.8203,237.627 Q1246.2598,238.0957 1246.2598,239.1797 L1246.2598,242.6367 Q1246.2598,243.6035 1246.0254,243.9551 Q1245.5566,244.6289 1244.7656,244.6289 Q1243.916,244.6289 1243.4766,243.9258 Q1243.2422,243.5742 1243.2422,242.4023 L1240.6055,242.4023 Z " fill="#000000"/><text fill="#17324D" font-family="sans-serif" font-size="30" lengthAdjust="spacing" textLength="185.625" x="1275.9375" y="253.6523">UTILISATEUR</text><line style="stroke:#2F7D5B;stroke-width:0.9375;" x1="1215.9375" x2="1472.8125" y1="277.1191" y2="277.1191"/><ellipse cx="1234.6875" cy="313.7988" fill="#000000" rx="5.625" ry="5.625" style="stroke:#000000;stroke-width:1.875;"/><text fill="#000000" font-family="sans-serif" font-size="30" lengthAdjust="spacing" textLength="165" x="1259.0625" y="323.2617">id_utilisateur</text><line style="stroke:#2F7D5B;stroke-width:1.875;" x1="1215.9375" x2="1472.8125" y1="344.8535" y2="344.8535"/><text fill="#000000" font-family="sans-serif" font-size="30" lengthAdjust="spacing" textLength="56.25" x="1232.8125" y="390.9961">nom</text><text fill="#000000" font-family="sans-serif" font-size="30" lengthAdjust="spacing" textLength="71.25" x="1232.8125" y="443.7305">email</text><text fill="#000000" font-family="sans-serif" font-size="30" lengthAdjust="spacing" textLength="48.75" x="1232.8125" y="496.4648">role</text></g><!--class ANNONCE--><g id="elem_ANNONCE"><rect codeLine="73" fill="#FFFFFF" height="365.1563" id="ANNONCE" rx="11.25" ry="11.25" style="stroke:#2F7D5B;stroke-width:0.9375;" width="223.125" x="535.3125" y="681.8848"/><rect fill="#E4F3EA" height="71.4844" rx="11.25" ry="11.25" style="stroke:#E4F3EA;stroke-width:0.9375;" width="223.125" x="535.3125" y="681.8848"/><rect fill="#E4F3EA" height="11.25" style="stroke:#E4F3EA;stroke-width:0.9375;" width="223.125" x="535.3125" y="742.1191"/><rect codeLine="73" fill="none" height="365.1563" id="ANNONCE" rx="11.25" ry="11.25" style="stroke:#2F7D5B;stroke-width:0.9375;" width="223.125" x="535.3125" y="681.8848"/><ellipse cx="563.4375" cy="717.627" fill="#ADD1B2" rx="20.625" ry="20.625" style="stroke:#181818;stroke-width:1.875;"/><path d="M561.8555,718.6523 L561.8555,723.0469 L569.5313,723.0469 L569.5313,721.4355 Q569.5313,720.3516 569.9414,719.8828 Q570.3516,719.4141 571.0254,719.4141 Q571.6992,719.4141 572.1094,719.8828 Q572.5195,720.3516 572.5195,721.4355 L572.5195,726.0645 L558.3984,726.0645 Q557.3145,726.0645 556.8457,725.6543 Q556.377,725.2148 556.377,724.541 Q556.377,723.8965 556.8457,723.4863 Q557.3145,723.0469 558.3984,723.0469 L558.8672,723.0469 L558.8672,711.2988 L558.3984,711.2988 Q557.3145,711.2988 556.8457,710.8887 Q556.377,710.4785 556.377,709.8047 Q556.377,709.1309 556.8457,708.7207 Q557.3145,708.2813 558.3984,708.2813 L571.875,708.3105 L571.875,712.8809 Q571.875,713.9355 571.4648,714.4043 Q571.0547,714.873 570.3809,714.873 Q569.707,714.873 569.2676,714.4336 Q568.8574,713.9648 568.8574,712.8809 L568.8574,711.2988 L561.8555,711.2988 L561.8555,715.6348 L564.4922,715.6348 Q564.4922,714.4629 564.7266,714.1406 Q565.166,713.4082 566.0156,713.4082 Q566.6602,713.4082 567.0703,713.877 Q567.5098,714.3457 567.5098,715.4297 L567.5098,718.8867 Q567.5098,719.8535 567.2754,720.2051 Q566.8066,720.8789 566.0156,720.8789 Q565.166,720.8789 564.7266,720.1758 Q564.4922,719.8242 564.4922,718.6523 L561.8555,718.6523 Z " fill="#000000"/><text fill="#17324D" font-family="sans-serif" font-size="30" lengthAdjust="spacing" textLength="148.125" x="597.1875" y="729.9023">ANNONCE</text><line style="stroke:#2F7D5B;stroke-width:0.9375;" x1="537.1875" x2="756.5625" y1="753.3691" y2="753.3691"/><ellipse cx="555.9375" cy="790.0488" fill="#000000" rx="5.625" ry="5.625" style="stroke:#000000;stroke-width:1.875;"/><text fill="#000000" font-family="sans-serif" font-size="30" lengthAdjust="spacing" textLength="151.875" x="580.3125" y="799.5117">id_annonce</text><line style="stroke:#2F7D5B;stroke-width:1.875;" x1="537.1875" x2="756.5625" y1="821.1035" y2="821.1035"/><text fill="#000000" font-family="sans-serif" font-size="30" lengthAdjust="spacing" textLength="54.375" x="554.0625" y="867.2461">type</text><text fill="#000000" font-family="sans-serif" font-size="30" lengthAdjust="spacing" textLength="46.875" x="554.0625" y="919.9805">prix</text><text fill="#000000" font-family="sans-serif" font-size="30" lengthAdjust="spacing" textLength="103.125" x="554.0625" y="972.7148">quantite</text><text fill="#000000" font-family="sans-serif" font-size="30" lengthAdjust="spacing" textLength="69.375" x="554.0625" y="1025.4492">statut</text></g><!--class REDUCTION_ANNONCE--><g id="elem_REDUCTION_ANNONCE"><rect codeLine="81" fill="#FFFFFF" height="259.6875" id="REDUCTION_ANNONCE" rx="11.25" ry="11.25" style="stroke:#2F7D5B;stroke-width:0.9375;" width="412.5" x="346.875" y="1260.3223"/><rect fill="#E4F3EA" height="71.4844" rx="11.25" ry="11.25" style="stroke:#E4F3EA;stroke-width:0.9375;" width="412.5" x="346.875" y="1260.3223"/><rect fill="#E4F3EA" height="11.25" style="stroke:#E4F3EA;stroke-width:0.9375;" width="412.5" x="346.875" y="1320.5566"/><rect codeLine="81" fill="none" height="259.6875" id="REDUCTION_ANNONCE" rx="11.25" ry="11.25" style="stroke:#2F7D5B;stroke-width:0.9375;" width="412.5" x="346.875" y="1260.3223"/><ellipse cx="375" cy="1296.0645" fill="#ADD1B2" rx="20.625" ry="20.625" style="stroke:#181818;stroke-width:1.875;"/><path d="M373.418,1297.0898 L373.418,1301.4844 L381.0938,1301.4844 L381.0938,1299.873 Q381.0938,1298.7891 381.5039,1298.3203 Q381.9141,1297.8516 382.5879,1297.8516 Q383.2617,1297.8516 383.6719,1298.3203 Q384.082,1298.7891 384.082,1299.873 L384.082,1304.502 L369.9609,1304.502 Q368.877,1304.502 368.4082,1304.0918 Q367.9395,1303.6523 367.9395,1302.9785 Q367.9395,1302.334 368.4082,1301.9238 Q368.877,1301.4844 369.9609,1301.4844 L370.4297,1301.4844 L370.4297,1289.7363 L369.9609,1289.7363 Q368.877,1289.7363 368.4082,1289.3262 Q367.9395,1288.916 367.9395,1288.2422 Q367.9395,1287.5684 368.4082,1287.1582 Q368.877,1286.7188 369.9609,1286.7188 L383.4375,1286.748 L383.4375,1291.3184 Q383.4375,1292.373 383.0273,1292.8418 Q382.6172,1293.3105 381.9434,1293.3105 Q381.2695,1293.3105 380.8301,1292.8711 Q380.4199,1292.4023 380.4199,1291.3184 L380.4199,1289.7363 L373.418,1289.7363 L373.418,1294.0723 L376.0547,1294.0723 Q376.0547,1292.9004 376.2891,1292.5781 Q376.7285,1291.8457 377.5781,1291.8457 Q378.2227,1291.8457 378.6328,1292.3145 Q379.0723,1292.7832 379.0723,1293.8672 L379.0723,1297.3242 Q379.0723,1298.291 378.8379,1298.6426 Q378.3691,1299.3164 377.5781,1299.3164 Q376.7285,1299.3164 376.2891,1298.6133 Q376.0547,1298.2617 376.0547,1297.0898 L373.418,1297.0898 Z " fill="#000000"/><text fill="#17324D" font-family="sans-serif" font-size="30" lengthAdjust="spacing" textLength="337.5" x="408.75" y="1308.3398">REDUCTION_ANNONCE</text><line style="stroke:#2F7D5B;stroke-width:0.9375;" x1="348.75" x2="757.5" y1="1331.8066" y2="1331.8066"/><ellipse cx="367.5" cy="1368.4863" fill="#000000" rx="5.625" ry="5.625" style="stroke:#000000;stroke-width:1.875;"/><text fill="#000000" font-family="sans-serif" font-size="30" lengthAdjust="spacing" textLength="161.25" x="391.875" y="1377.9492">id_reduction</text><line style="stroke:#2F7D5B;stroke-width:1.875;" x1="348.75" x2="757.5" y1="1399.541" y2="1399.541"/><text fill="#000000" font-family="sans-serif" font-size="30" lengthAdjust="spacing" textLength="180" x="365.625" y="1445.6836">seuil_quantite</text><text fill="#000000" font-family="sans-serif" font-size="30" lengthAdjust="spacing" textLength="163.125" x="365.625" y="1498.418">pourcentage</text></g><!--class COMMANDE--><g id="elem_COMMANDE"><rect codeLine="90" fill="#FFFFFF" height="365.1563" id="COMMANDE" rx="11.25" ry="11.25" style="stroke:#2F7D5B;stroke-width:0.9375;" width="253.125" x="891.5625" y="1206.8848"/><rect fill="#E4F3EA" height="71.4844" rx="11.25" ry="11.25" style="stroke:#E4F3EA;stroke-width:0.9375;" width="253.125" x="891.5625" y="1206.8848"/><rect fill="#E4F3EA" height="11.25" style="stroke:#E4F3EA;stroke-width:0.9375;" width="253.125" x="891.5625" y="1267.1191"/><rect codeLine="90" fill="none" height="365.1563" id="COMMANDE" rx="11.25" ry="11.25" style="stroke:#2F7D5B;stroke-width:0.9375;" width="253.125" x="891.5625" y="1206.8848"/><ellipse cx="919.6875" cy="1242.627" fill="#ADD1B2" rx="20.625" ry="20.625" style="stroke:#181818;stroke-width:1.875;"/><path d="M918.1055,1243.6523 L918.1055,1248.0469 L925.7813,1248.0469 L925.7813,1246.4355 Q925.7813,1245.3516 926.1914,1244.8828 Q926.6016,1244.4141 927.2754,1244.4141 Q927.9492,1244.4141 928.3594,1244.8828 Q928.7695,1245.3516 928.7695,1246.4355 L928.7695,1251.0645 L914.6484,1251.0645 Q913.5645,1251.0645 913.0957,1250.6543 Q912.627,1250.2148 912.627,1249.541 Q912.627,1248.8965 913.0957,1248.4863 Q913.5645,1248.0469 914.6484,1248.0469 L915.1172,1248.0469 L915.1172,1236.2988 L914.6484,1236.2988 Q913.5645,1236.2988 913.0957,1235.8887 Q912.627,1235.4785 912.627,1234.8047 Q912.627,1234.1309 913.0957,1233.7207 Q913.5645,1233.2813 914.6484,1233.2813 L928.125,1233.3105 L928.125,1237.8809 Q928.125,1238.9355 927.7148,1239.4043 Q927.3047,1239.873 926.6309,1239.873 Q925.957,1239.873 925.5176,1239.4336 Q925.1074,1238.9648 925.1074,1237.8809 L925.1074,1236.2988 L918.1055,1236.2988 L918.1055,1240.6348 L920.7422,1240.6348 Q920.7422,1239.4629 920.9766,1239.1406 Q921.416,1238.4082 922.2656,1238.4082 Q922.9102,1238.4082 923.3203,1238.877 Q923.7598,1239.3457 923.7598,1240.4297 L923.7598,1243.8867 Q923.7598,1244.8535 923.5254,1245.2051 Q923.0566,1245.8789 922.2656,1245.8789 Q921.416,1245.8789 920.9766,1245.1758 Q920.7422,1244.8242 920.7422,1243.6523 L918.1055,1243.6523 Z " fill="#000000"/><text fill="#17324D" font-family="sans-serif" font-size="30" lengthAdjust="spacing" textLength="178.125" x="953.4375" y="1254.9023">COMMANDE</text><line style="stroke:#2F7D5B;stroke-width:0.9375;" x1="893.4375" x2="1142.8125" y1="1278.3691" y2="1278.3691"/><ellipse cx="912.1875" cy="1315.0488" fill="#000000" rx="5.625" ry="5.625" style="stroke:#000000;stroke-width:1.875;"/><text fill="#000000" font-family="sans-serif" font-size="30" lengthAdjust="spacing" textLength="187.5" x="936.5625" y="1324.5117">id_commande</text><line style="stroke:#2F7D5B;stroke-width:1.875;" x1="893.4375" x2="1142.8125" y1="1346.1035" y2="1346.1035"/><text fill="#000000" font-family="sans-serif" font-size="30" lengthAdjust="spacing" textLength="103.125" x="910.3125" y="1392.2461">quantite</text><text fill="#000000" font-family="sans-serif" font-size="30" lengthAdjust="spacing" textLength="159.375" x="910.3125" y="1444.9805">montant_net</text><text fill="#000000" font-family="sans-serif" font-size="30" lengthAdjust="spacing" textLength="166.875" x="910.3125" y="1497.7148">mode_retrait</text><text fill="#000000" font-family="sans-serif" font-size="30" lengthAdjust="spacing" textLength="69.375" x="910.3125" y="1550.4492">statut</text></g><!--class PAIEMENT--><g id="elem_PAIEMENT"><rect codeLine="98" fill="#FFFFFF" height="312.4219" id="PAIEMENT" rx="11.25" ry="11.25" style="stroke:#2F7D5B;stroke-width:0.9375;" width="226.875" x="865.3125" y="1731.8848"/><rect fill="#E4F3EA" height="71.4844" rx="11.25" ry="11.25" style="stroke:#E4F3EA;stroke-width:0.9375;" width="226.875" x="865.3125" y="1731.8848"/><rect fill="#E4F3EA" height="11.25" style="stroke:#E4F3EA;stroke-width:0.9375;" width="226.875" x="865.3125" y="1792.1191"/><rect codeLine="98" fill="none" height="312.4219" id="PAIEMENT" rx="11.25" ry="11.25" style="stroke:#2F7D5B;stroke-width:0.9375;" width="226.875" x="865.3125" y="1731.8848"/><ellipse cx="894.2813" cy="1767.627" fill="#ADD1B2" rx="20.625" ry="20.625" style="stroke:#181818;stroke-width:1.875;"/><path d="M892.6992,1768.6523 L892.6992,1773.0469 L900.375,1773.0469 L900.375,1771.4355 Q900.375,1770.3516 900.7852,1769.8828 Q901.1953,1769.4141 901.8691,1769.4141 Q902.543,1769.4141 902.9531,1769.8828 Q903.3633,1770.3516 903.3633,1771.4355 L903.3633,1776.0645 L889.2422,1776.0645 Q888.1582,1776.0645 887.6895,1775.6543 Q887.2207,1775.2148 887.2207,1774.541 Q887.2207,1773.8965 887.6895,1773.4863 Q888.1582,1773.0469 889.2422,1773.0469 L889.7109,1773.0469 L889.7109,1761.2988 L889.2422,1761.2988 Q888.1582,1761.2988 887.6895,1760.8887 Q887.2207,1760.4785 887.2207,1759.8047 Q887.2207,1759.1309 887.6895,1758.7207 Q888.1582,1758.2813 889.2422,1758.2813 L902.7188,1758.3105 L902.7188,1762.8809 Q902.7188,1763.9355 902.3086,1764.4043 Q901.8984,1764.873 901.2246,1764.873 Q900.5508,1764.873 900.1113,1764.4336 Q899.7012,1763.9648 899.7012,1762.8809 L899.7012,1761.2988 L892.6992,1761.2988 L892.6992,1765.6348 L895.3359,1765.6348 Q895.3359,1764.4629 895.5703,1764.1406 Q896.0098,1763.4082 896.8594,1763.4082 Q897.5039,1763.4082 897.9141,1763.877 Q898.3535,1764.3457 898.3535,1765.4297 L898.3535,1768.8867 Q898.3535,1769.8535 898.1191,1770.2051 Q897.6504,1770.8789 896.8594,1770.8789 Q896.0098,1770.8789 895.5703,1770.1758 Q895.3359,1769.8242 895.3359,1768.6523 L892.6992,1768.6523 Z " fill="#000000"/><text fill="#17324D" font-family="sans-serif" font-size="30" lengthAdjust="spacing" textLength="150" x="928.2188" y="1779.9023">PAIEMENT</text><line style="stroke:#2F7D5B;stroke-width:0.9375;" x1="867.1875" x2="1090.3125" y1="1803.3691" y2="1803.3691"/><ellipse cx="885.9375" cy="1840.0488" fill="#000000" rx="5.625" ry="5.625" style="stroke:#000000;stroke-width:1.875;"/><text fill="#000000" font-family="sans-serif" font-size="30" lengthAdjust="spacing" textLength="163.125" x="910.3125" y="1849.5117">id_paiement</text><line style="stroke:#2F7D5B;stroke-width:1.875;" x1="867.1875" x2="1090.3125" y1="1871.1035" y2="1871.1035"/><text fill="#000000" font-family="sans-serif" font-size="30" lengthAdjust="spacing" textLength="54.375" x="884.0625" y="1917.2461">total</text><text fill="#000000" font-family="sans-serif" font-size="30" lengthAdjust="spacing" textLength="86.25" x="884.0625" y="1969.9805">moyen</text><text fill="#000000" font-family="sans-serif" font-size="30" lengthAdjust="spacing" textLength="69.375" x="884.0625" y="2022.7148">statut</text></g><!--class LIVRAISON--><g id="elem_LIVRAISON"><rect codeLine="105" fill="#FFFFFF" height="259.6875" id="LIVRAISON" rx="11.25" ry="11.25" style="stroke:#2F7D5B;stroke-width:0.9375;" width="228.75" x="1224.375" y="1759.0723"/><rect fill="#E4F3EA" height="71.4844" rx="11.25" ry="11.25" style="stroke:#E4F3EA;stroke-width:0.9375;" width="228.75" x="1224.375" y="1759.0723"/><rect fill="#E4F3EA" height="11.25" style="stroke:#E4F3EA;stroke-width:0.9375;" width="228.75" x="1224.375" y="1819.3066"/><rect codeLine="105" fill="none" height="259.6875" id="LIVRAISON" rx="11.25" ry="11.25" style="stroke:#2F7D5B;stroke-width:0.9375;" width="228.75" x="1224.375" y="1759.0723"/><ellipse cx="1252.5" cy="1794.8145" fill="#ADD1B2" rx="20.625" ry="20.625" style="stroke:#181818;stroke-width:1.875;"/><path d="M1250.918,1795.8398 L1250.918,1800.2344 L1258.5938,1800.2344 L1258.5938,1798.623 Q1258.5938,1797.5391 1259.0039,1797.0703 Q1259.4141,1796.6016 1260.0879,1796.6016 Q1260.7617,1796.6016 1261.1719,1797.0703 Q1261.582,1797.5391 1261.582,1798.623 L1261.582,1803.252 L1247.4609,1803.252 Q1246.377,1803.252 1245.9082,1802.8418 Q1245.4395,1802.4023 1245.4395,1801.7285 Q1245.4395,1801.084 1245.9082,1800.6738 Q1246.377,1800.2344 1247.4609,1800.2344 L1247.9297,1800.2344 L1247.9297,1788.4863 L1247.4609,1788.4863 Q1246.377,1788.4863 1245.9082,1788.0762 Q1245.4395,1787.666 1245.4395,1786.9922 Q1245.4395,1786.3184 1245.9082,1785.9082 Q1246.377,1785.4688 1247.4609,1785.4688 L1260.9375,1785.498 L1260.9375,1790.0684 Q1260.9375,1791.123 1260.5273,1791.5918 Q1260.1172,1792.0605 1259.4434,1792.0605 Q1258.7695,1792.0605 1258.3301,1791.6211 Q1257.9199,1791.1523 1257.9199,1790.0684 L1257.9199,1788.4863 L1250.918,1788.4863 L1250.918,1792.8223 L1253.5547,1792.8223 Q1253.5547,1791.6504 1253.7891,1791.3281 Q1254.2285,1790.5957 1255.0781,1790.5957 Q1255.7227,1790.5957 1256.1328,1791.0645 Q1256.5723,1791.5332 1256.5723,1792.6172 L1256.5723,1796.0742 Q1256.5723,1797.041 1256.3379,1797.3926 Q1255.8691,1798.0664 1255.0781,1798.0664 Q1254.2285,1798.0664 1253.7891,1797.3633 Q1253.5547,1797.0117 1253.5547,1795.8398 L1250.918,1795.8398 Z " fill="#000000"/><text fill="#17324D" font-family="sans-serif" font-size="30" lengthAdjust="spacing" textLength="153.75" x="1286.25" y="1807.0898">LIVRAISON</text><line style="stroke:#2F7D5B;stroke-width:0.9375;" x1="1226.25" x2="1451.25" y1="1830.5566" y2="1830.5566"/><ellipse cx="1245" cy="1867.2363" fill="#000000" rx="5.625" ry="5.625" style="stroke:#000000;stroke-width:1.875;"/><text fill="#000000" font-family="sans-serif" font-size="30" lengthAdjust="spacing" textLength="148.125" x="1269.375" y="1876.6992">id_livraison</text><line style="stroke:#2F7D5B;stroke-width:1.875;" x1="1226.25" x2="1451.25" y1="1898.291" y2="1898.291"/><text fill="#000000" font-family="sans-serif" font-size="30" lengthAdjust="spacing" textLength="69.375" x="1243.125" y="1944.4336">statut</text><text fill="#000000" font-family="sans-serif" font-size="30" lengthAdjust="spacing" textLength="183.75" x="1243.125" y="1997.168">verification_qr</text></g><!--class VERSEMENT--><g id="elem_VERSEMENT"><rect codeLine="111" fill="#FFFFFF" height="259.6875" id="VERSEMENT" rx="11.25" ry="11.25" style="stroke:#2F7D5B;stroke-width:0.9375;" width="260.625" x="1062.1875" y="2204.3848"/><rect fill="#E4F3EA" height="71.4844" rx="11.25" ry="11.25" style="stroke:#E4F3EA;stroke-width:0.9375;" width="260.625" x="1062.1875" y="2204.3848"/><rect fill="#E4F3EA" height="11.25" style="stroke:#E4F3EA;stroke-width:0.9375;" width="260.625" x="1062.1875" y="2264.6191"/><rect codeLine="111" fill="none" height="259.6875" id="VERSEMENT" rx="11.25" ry="11.25" style="stroke:#2F7D5B;stroke-width:0.9375;" width="260.625" x="1062.1875" y="2204.3848"/><ellipse cx="1090.3125" cy="2240.127" fill="#ADD1B2" rx="20.625" ry="20.625" style="stroke:#181818;stroke-width:1.875;"/><path d="M1088.7305,2241.1523 L1088.7305,2245.5469 L1096.4063,2245.5469 L1096.4063,2243.9355 Q1096.4063,2242.8516 1096.8164,2242.3828 Q1097.2266,2241.9141 1097.9004,2241.9141 Q1098.5742,2241.9141 1098.9844,2242.3828 Q1099.3945,2242.8516 1099.3945,2243.9355 L1099.3945,2248.5645 L1085.2734,2248.5645 Q1084.1895,2248.5645 1083.7207,2248.1543 Q1083.252,2247.7148 1083.252,2247.041 Q1083.252,2246.3965 1083.7207,2245.9863 Q1084.1895,2245.5469 1085.2734,2245.5469 L1085.7422,2245.5469 L1085.7422,2233.7988 L1085.2734,2233.7988 Q1084.1895,2233.7988 1083.7207,2233.3887 Q1083.252,2232.9785 1083.252,2232.3047 Q1083.252,2231.6309 1083.7207,2231.2207 Q1084.1895,2230.7813 1085.2734,2230.7813 L1098.75,2230.8105 L1098.75,2235.3809 Q1098.75,2236.4355 1098.3398,2236.9043 Q1097.9297,2237.373 1097.2559,2237.373 Q1096.582,2237.373 1096.1426,2236.9336 Q1095.7324,2236.4648 1095.7324,2235.3809 L1095.7324,2233.7988 L1088.7305,2233.7988 L1088.7305,2238.1348 L1091.3672,2238.1348 Q1091.3672,2236.9629 1091.6016,2236.6406 Q1092.041,2235.9082 1092.8906,2235.9082 Q1093.5352,2235.9082 1093.9453,2236.377 Q1094.3848,2236.8457 1094.3848,2237.9297 L1094.3848,2241.3867 Q1094.3848,2242.3535 1094.1504,2242.7051 Q1093.6816,2243.3789 1092.8906,2243.3789 Q1092.041,2243.3789 1091.6016,2242.6758 Q1091.3672,2242.3242 1091.3672,2241.1523 L1088.7305,2241.1523 Z " fill="#000000"/><text fill="#17324D" font-family="sans-serif" font-size="30" lengthAdjust="spacing" textLength="185.625" x="1124.0625" y="2252.4023">VERSEMENT</text><line style="stroke:#2F7D5B;stroke-width:0.9375;" x1="1064.0625" x2="1320.9375" y1="2275.8691" y2="2275.8691"/><ellipse cx="1082.8125" cy="2312.5488" fill="#000000" rx="5.625" ry="5.625" style="stroke:#000000;stroke-width:1.875;"/><text fill="#000000" font-family="sans-serif" font-size="30" lengthAdjust="spacing" textLength="176.25" x="1107.1875" y="2322.0117">id_versement</text><line style="stroke:#2F7D5B;stroke-width:1.875;" x1="1064.0625" x2="1320.9375" y1="2343.6035" y2="2343.6035"/><text fill="#000000" font-family="sans-serif" font-size="30" lengthAdjust="spacing" textLength="103.125" x="1080.9375" y="2389.7461">montant</text><text fill="#000000" font-family="sans-serif" font-size="30" lengthAdjust="spacing" textLength="69.375" x="1080.9375" y="2442.4805">statut</text></g><!--class SERVICE_VETERINAIRE--><g id="elem_SERVICE_VETERINAIRE"><rect codeLine="120" fill="#FFFFFF" height="259.6875" id="SERVICE_VETERINAIRE" rx="11.25" ry="11.25" style="stroke:#2F7D5B;stroke-width:0.9375;" width="416.25" x="1558.125" y="735.3223"/><rect fill="#E4F3EA" height="71.4844" rx="11.25" ry="11.25" style="stroke:#E4F3EA;stroke-width:0.9375;" width="416.25" x="1558.125" y="735.3223"/><rect fill="#E4F3EA" height="11.25" style="stroke:#E4F3EA;stroke-width:0.9375;" width="416.25" x="1558.125" y="795.5566"/><rect codeLine="120" fill="none" height="259.6875" id="SERVICE_VETERINAIRE" rx="11.25" ry="11.25" style="stroke:#2F7D5B;stroke-width:0.9375;" width="416.25" x="1558.125" y="735.3223"/><ellipse cx="1586.25" cy="771.0645" fill="#ADD1B2" rx="20.625" ry="20.625" style="stroke:#181818;stroke-width:1.875;"/><path d="M1584.668,772.0898 L1584.668,776.4844 L1592.3438,776.4844 L1592.3438,774.873 Q1592.3438,773.7891 1592.7539,773.3203 Q1593.1641,772.8516 1593.8379,772.8516 Q1594.5117,772.8516 1594.9219,773.3203 Q1595.332,773.7891 1595.332,774.873 L1595.332,779.502 L1581.2109,779.502 Q1580.127,779.502 1579.6582,779.0918 Q1579.1895,778.6523 1579.1895,777.9785 Q1579.1895,777.334 1579.6582,776.9238 Q1580.127,776.4844 1581.2109,776.4844 L1581.6797,776.4844 L1581.6797,764.7363 L1581.2109,764.7363 Q1580.127,764.7363 1579.6582,764.3262 Q1579.1895,763.916 1579.1895,763.2422 Q1579.1895,762.5684 1579.6582,762.1582 Q1580.127,761.7188 1581.2109,761.7188 L1594.6875,761.748 L1594.6875,766.3184 Q1594.6875,767.373 1594.2773,767.8418 Q1593.8672,768.3105 1593.1934,768.3105 Q1592.5195,768.3105 1592.0801,767.8711 Q1591.6699,767.4023 1591.6699,766.3184 L1591.6699,764.7363 L1584.668,764.7363 L1584.668,769.0723 L1587.3047,769.0723 Q1587.3047,767.9004 1587.5391,767.5781 Q1587.9785,766.8457 1588.8281,766.8457 Q1589.4727,766.8457 1589.8828,767.3145 Q1590.3223,767.7832 1590.3223,768.8672 L1590.3223,772.3242 Q1590.3223,773.291 1590.0879,773.6426 Q1589.6191,774.3164 1588.8281,774.3164 Q1587.9785,774.3164 1587.5391,773.6133 Q1587.3047,773.2617 1587.3047,772.0898 L1584.668,772.0898 Z " fill="#000000"/><text fill="#17324D" font-family="sans-serif" font-size="30" lengthAdjust="spacing" textLength="341.25" x="1620" y="783.3398">SERVICE_VETERINAIRE</text><line style="stroke:#2F7D5B;stroke-width:0.9375;" x1="1560" x2="1972.5" y1="806.8066" y2="806.8066"/><ellipse cx="1578.75" cy="843.4863" fill="#000000" rx="5.625" ry="5.625" style="stroke:#000000;stroke-width:1.875;"/><text fill="#000000" font-family="sans-serif" font-size="30" lengthAdjust="spacing" textLength="135" x="1603.125" y="852.9492">id_service</text><line style="stroke:#2F7D5B;stroke-width:1.875;" x1="1560" x2="1972.5" y1="874.541" y2="874.541"/><text fill="#000000" font-family="sans-serif" font-size="30" lengthAdjust="spacing" textLength="48.75" x="1576.875" y="920.6836">titre</text><text fill="#000000" font-family="sans-serif" font-size="30" lengthAdjust="spacing" textLength="46.875" x="1576.875" y="973.418">prix</text></g><!--class RENDEZ_VOUS--><g id="elem_RENDEZ_VOUS"><rect codeLine="126" fill="#FFFFFF" height="259.6875" id="RENDEZ_VOUS" rx="11.25" ry="11.25" style="stroke:#2F7D5B;stroke-width:0.9375;" width="298.125" x="1645.3125" y="1260.3223"/><rect fill="#E4F3EA" height="71.4844" rx="11.25" ry="11.25" style="stroke:#E4F3EA;stroke-width:0.9375;" width="298.125" x="1645.3125" y="1260.3223"/><rect fill="#E4F3EA" height="11.25" style="stroke:#E4F3EA;stroke-width:0.9375;" width="298.125" x="1645.3125" y="1320.5566"/><rect codeLine="126" fill="none" height="259.6875" id="RENDEZ_VOUS" rx="11.25" ry="11.25" style="stroke:#2F7D5B;stroke-width:0.9375;" width="298.125" x="1645.3125" y="1260.3223"/><ellipse cx="1673.4375" cy="1296.0645" fill="#ADD1B2" rx="20.625" ry="20.625" style="stroke:#181818;stroke-width:1.875;"/><path d="M1671.8555,1297.0898 L1671.8555,1301.4844 L1679.5313,1301.4844 L1679.5313,1299.873 Q1679.5313,1298.7891 1679.9414,1298.3203 Q1680.3516,1297.8516 1681.0254,1297.8516 Q1681.6992,1297.8516 1682.1094,1298.3203 Q1682.5195,1298.7891 1682.5195,1299.873 L1682.5195,1304.502 L1668.3984,1304.502 Q1667.3145,1304.502 1666.8457,1304.0918 Q1666.377,1303.6523 1666.377,1302.9785 Q1666.377,1302.334 1666.8457,1301.9238 Q1667.3145,1301.4844 1668.3984,1301.4844 L1668.8672,1301.4844 L1668.8672,1289.7363 L1668.3984,1289.7363 Q1667.3145,1289.7363 1666.8457,1289.3262 Q1666.377,1288.916 1666.377,1288.2422 Q1666.377,1287.5684 1666.8457,1287.1582 Q1667.3145,1286.7188 1668.3984,1286.7188 L1681.875,1286.748 L1681.875,1291.3184 Q1681.875,1292.373 1681.4648,1292.8418 Q1681.0547,1293.3105 1680.3809,1293.3105 Q1679.707,1293.3105 1679.2676,1292.8711 Q1678.8574,1292.4023 1678.8574,1291.3184 L1678.8574,1289.7363 L1671.8555,1289.7363 L1671.8555,1294.0723 L1674.4922,1294.0723 Q1674.4922,1292.9004 1674.7266,1292.5781 Q1675.166,1291.8457 1676.0156,1291.8457 Q1676.6602,1291.8457 1677.0703,1292.3145 Q1677.5098,1292.7832 1677.5098,1293.8672 L1677.5098,1297.3242 Q1677.5098,1298.291 1677.2754,1298.6426 Q1676.8066,1299.3164 1676.0156,1299.3164 Q1675.166,1299.3164 1674.7266,1298.6133 Q1674.4922,1298.2617 1674.4922,1297.0898 L1671.8555,1297.0898 Z " fill="#000000"/><text fill="#17324D" font-family="sans-serif" font-size="30" lengthAdjust="spacing" textLength="223.125" x="1707.1875" y="1308.3398">RENDEZ_VOUS</text><line style="stroke:#2F7D5B;stroke-width:0.9375;" x1="1647.1875" x2="1941.5625" y1="1331.8066" y2="1331.8066"/><ellipse cx="1665.9375" cy="1368.4863" fill="#000000" rx="5.625" ry="5.625" style="stroke:#000000;stroke-width:1.875;"/><text fill="#000000" font-family="sans-serif" font-size="30" lengthAdjust="spacing" textLength="80.625" x="1690.3125" y="1377.9492">id_rdv</text><line style="stroke:#2F7D5B;stroke-width:1.875;" x1="1647.1875" x2="1941.5625" y1="1399.541" y2="1399.541"/><text fill="#000000" font-family="sans-serif" font-size="30" lengthAdjust="spacing" textLength="163.125" x="1664.0625" y="1445.6836">date_prevue</text><text fill="#000000" font-family="sans-serif" font-size="30" lengthAdjust="spacing" textLength="69.375" x="1664.0625" y="1498.418">statut</text></g><!--class NOTIFICATION--><g id="elem_NOTIFICATION"><rect codeLine="134" fill="#FFFFFF" height="259.6875" id="NOTIFICATION" rx="11.25" ry="11.25" style="stroke:#2F7D5B;stroke-width:0.9375;" width="273.75" x="13.125" y="735.3223"/><rect fill="#E4F3EA" height="71.4844" rx="11.25" ry="11.25" style="stroke:#E4F3EA;stroke-width:0.9375;" width="273.75" x="13.125" y="735.3223"/><rect fill="#E4F3EA" height="11.25" style="stroke:#E4F3EA;stroke-width:0.9375;" width="273.75" x="13.125" y="795.5566"/><rect codeLine="134" fill="none" height="259.6875" id="NOTIFICATION" rx="11.25" ry="11.25" style="stroke:#2F7D5B;stroke-width:0.9375;" width="273.75" x="13.125" y="735.3223"/><ellipse cx="41.25" cy="771.0645" fill="#ADD1B2" rx="20.625" ry="20.625" style="stroke:#181818;stroke-width:1.875;"/><path d="M39.668,772.0898 L39.668,776.4844 L47.3438,776.4844 L47.3438,774.873 Q47.3438,773.7891 47.7539,773.3203 Q48.1641,772.8516 48.8379,772.8516 Q49.5117,772.8516 49.9219,773.3203 Q50.332,773.7891 50.332,774.873 L50.332,779.502 L36.2109,779.502 Q35.127,779.502 34.6582,779.0918 Q34.1895,778.6523 34.1895,777.9785 Q34.1895,777.334 34.6582,776.9238 Q35.127,776.4844 36.2109,776.4844 L36.6797,776.4844 L36.6797,764.7363 L36.2109,764.7363 Q35.127,764.7363 34.6582,764.3262 Q34.1895,763.916 34.1895,763.2422 Q34.1895,762.5684 34.6582,762.1582 Q35.127,761.7188 36.2109,761.7188 L49.6875,761.748 L49.6875,766.3184 Q49.6875,767.373 49.2773,767.8418 Q48.8672,768.3105 48.1934,768.3105 Q47.5195,768.3105 47.0801,767.8711 Q46.6699,767.4023 46.6699,766.3184 L46.6699,764.7363 L39.668,764.7363 L39.668,769.0723 L42.3047,769.0723 Q42.3047,767.9004 42.5391,767.5781 Q42.9785,766.8457 43.8281,766.8457 Q44.4727,766.8457 44.8828,767.3145 Q45.3223,767.7832 45.3223,768.8672 L45.3223,772.3242 Q45.3223,773.291 45.0879,773.6426 Q44.6191,774.3164 43.8281,774.3164 Q42.9785,774.3164 42.5391,773.6133 Q42.3047,773.2617 42.3047,772.0898 L39.668,772.0898 Z " fill="#000000"/><text fill="#17324D" font-family="sans-serif" font-size="30" lengthAdjust="spacing" textLength="198.75" x="75" y="783.3398">NOTIFICATION</text><line style="stroke:#2F7D5B;stroke-width:0.9375;" x1="15" x2="285" y1="806.8066" y2="806.8066"/><ellipse cx="33.75" cy="843.4863" fill="#000000" rx="5.625" ry="5.625" style="stroke:#000000;stroke-width:1.875;"/><text fill="#000000" font-family="sans-serif" font-size="30" lengthAdjust="spacing" textLength="181.875" x="58.125" y="852.9492">id_notification</text><line style="stroke:#2F7D5B;stroke-width:1.875;" x1="15" x2="285" y1="874.541" y2="874.541"/><text fill="#000000" font-family="sans-serif" font-size="30" lengthAdjust="spacing" textLength="101.25" x="31.875" y="920.6836">contenu</text><text fill="#000000" font-family="sans-serif" font-size="30" lengthAdjust="spacing" textLength="20.625" x="31.875" y="973.418">lu</text></g><g id="elem_GMN29"><path d="M332.8125,2290.6348 L332.8125,2377.3535 A11.25,11.25 0 0 0 344.0625,2388.6035 L792.1875,2388.6035 A11.25,11.25 0 0 0 803.4375,2377.3535 L803.4375,2298.1348 L784.6875,2279.3848 L344.0625,2279.3848 A11.25,11.25 0 0 0 332.8125,2290.6348 " fill="#FFF8E8" style="stroke:#E5AE45;stroke-width:0.9375;"/><path d="M784.6875,2279.3848 L784.6875,2292.5098 A5.625,5.625 0 0 0 790.3125,2298.1348 L803.4375,2298.1348 L784.6875,2279.3848 " fill="#FFF8E8" style="stroke:#E5AE45;stroke-width:1.875;"/><text fill="#5B481E" font-family="sans-serif" font-size="30" lengthAdjust="spacing" textLength="416.25" x="351.5625" y="2327.4023">Optionnelle : absente si le retrait</text><text fill="#5B481E" font-family="sans-serif" font-size="30" lengthAdjust="spacing" textLength="393.75" x="351.5625" y="2365.1367">direct a &#233;t&#233; choisi par le client.</text></g><!--link UTILISATEUR to ANNONCE--><g id="link_UTILISATEUR_ANNONCE"><path codeLine="141" d="M1270.125,518.7973 C1270.125,611.1223 1270.125,710.0098 1270.125,710.0098 C1270.125,710.0098 938.4563,710.0098 759.0188,710.0098 " fill="none" id="UTILISATEUR-ANNONCE" style="stroke:#456A7D;stroke-width:2.625;"/><text fill="#29485B" font-family="sans-serif" font-size="30" lengthAdjust="spacing" textLength="247.5" x="853.2937" y="694.2773">publie (fournisseur)</text><text fill="#29485B" font-family="sans-serif" font-size="30" lengthAdjust="spacing" textLength="41.25" x="1213.5369" y="571.4752">1,1</text><text fill="#29485B" font-family="sans-serif" font-size="30" lengthAdjust="spacing" textLength="39.375" x="780.8873" y="677.5294">0,n</text></g><!--link ANNONCE to REDUCTION_ANNONCE--><g id="link_ANNONCE_REDUCTION_ANNONCE"><path codeLine="142" d="M609.6938,1047.5848 C609.6938,1117.4098 609.6938,1195.5598 609.6938,1259.516 " fill="none" id="ANNONCE-REDUCTION_ANNONCE" style="stroke:#456A7D;stroke-width:2.625;"/><text fill="#29485B" font-family="sans-serif" font-size="30" lengthAdjust="spacing" textLength="78.75" x="619.0688" y="1137.8086">d&#233;finit</text><text fill="#29485B" font-family="sans-serif" font-size="30" lengthAdjust="spacing" textLength="41.25" x="556.3519" y="1100.957">1,1</text><text fill="#29485B" font-family="sans-serif" font-size="30" lengthAdjust="spacing" textLength="39.375" x="565.5273" y="1231.2052">0,n</text></g><!--link UTILISATEUR to COMMANDE--><g id="link_UTILISATEUR_COMMANDE"><path codeLine="143" d="M1315.875,519.2473 C1315.875,770.5348 1315.875,1235.0098 1315.875,1235.0098 C1315.875,1235.0098 1226.1938,1235.0098 1145.2688,1235.0098 " fill="none" id="UTILISATEUR-COMMANDE" style="stroke:#456A7D;stroke-width:2.625;"/><text fill="#29485B" font-family="sans-serif" font-size="30" lengthAdjust="spacing" textLength="405" x="901.5" y="946.7086">passe (tout r&#244;le, &#8800; propri&#233;taire)</text><text fill="#29485B" font-family="sans-serif" font-size="30" lengthAdjust="spacing" textLength="41.25" x="1323.3463" y="571.9596">1,1</text><text fill="#29485B" font-family="sans-serif" font-size="30" lengthAdjust="spacing" textLength="39.375" x="1166.9962" y="1204.5046">0,n</text></g><!--link ANNONCE to COMMANDE--><g id="link_ANNONCE_COMMANDE"><path codeLine="144" d="M684.0563,1047.6785 C684.0563,1140.9785 684.0563,1235.0098 684.0563,1235.0098 C684.0563,1235.0098 796.8563,1235.0098 891.3562,1235.0098 " fill="none" id="ANNONCE-COMMANDE" style="stroke:#456A7D;stroke-width:2.625;"/><text fill="#29485B" font-family="sans-serif" font-size="30" lengthAdjust="spacing" textLength="120" x="703.425" y="1219.2773">concerne</text><text fill="#29485B" font-family="sans-serif" font-size="30" lengthAdjust="spacing" textLength="41.25" x="695.944" y="1100.4024">1,1</text><text fill="#29485B" font-family="sans-serif" font-size="30" lengthAdjust="spacing" textLength="39.375" x="829.8073" y="1203.9402">0,n</text></g><!--link COMMANDE to PAIEMENT--><g id="link_COMMANDE_PAIEMENT"><path codeLine="145" d="M991.875,1572.5848 C991.875,1624.841 991.875,1681.316 991.875,1731.866 " fill="none" id="COMMANDE-PAIEMENT" style="stroke:#456A7D;stroke-width:2.625;"/><text fill="#29485B" font-family="sans-serif" font-size="30" lengthAdjust="spacing" textLength="65.625" x="1001.25" y="1636.4836">r&#232;gle</text><text fill="#29485B" font-family="sans-serif" font-size="30" lengthAdjust="spacing" textLength="41.25" x="939.3018" y="1625.957">1,1</text><text fill="#29485B" font-family="sans-serif" font-size="30" lengthAdjust="spacing" textLength="41.25" x="941.8828" y="1702.9067">0,1</text></g><!--link COMMANDE to LIVRAISON--><g id="link_COMMANDE_LIVRAISON"><path codeLine="146" d="M1145.0625,1546.2598 C1242.9,1546.2598 1361.625,1546.2598 1361.625,1546.2598 C1361.625,1546.2598 1361.625,1661.7973 1361.625,1758.5848 " fill="none" id="COMMANDE-LIVRAISON" style="stroke:#456A7D;stroke-width:2.625;"/><text fill="#29485B" font-family="sans-serif" font-size="30" lengthAdjust="spacing" textLength="91.875" x="1258.2563" y="1530.5273">g&#233;n&#232;re</text><text fill="#29485B" font-family="sans-serif" font-size="30" lengthAdjust="spacing" textLength="41.25" x="1167.3419" y="1544.8563">1,1</text><text fill="#29485B" font-family="sans-serif" font-size="30" lengthAdjust="spacing" textLength="41.25" x="1312.3746" y="1729.8144">0,1</text></g><!--link UTILISATEUR to LIVRAISON--><g id="link_UTILISATEUR_LIVRAISON"><path codeLine="147" d="M1407.375,519.0785 C1407.375,821.441 1407.375,1479.6973 1407.375,1758.9973 " fill="none" id="UTILISATEUR-LIVRAISON" style="stroke:#456A7D;stroke-width:2.625;"/><text fill="#29485B" font-family="sans-serif" font-size="30" lengthAdjust="spacing" textLength="191.25" x="1416.75" y="1123.2961">assure (livreur)</text><text fill="#29485B" font-family="sans-serif" font-size="30" lengthAdjust="spacing" textLength="41.25" x="1421.8518" y="571.778">0,1</text><text fill="#29485B" font-family="sans-serif" font-size="30" lengthAdjust="spacing" textLength="39.375" x="1424.3065" y="1729.7785">0,n</text></g><!--link PAIEMENT to VERSEMENT--><g id="link_PAIEMENT_VERSEMENT"><path codeLine="148" d="M1077.1875,2045.441 C1077.1875,2097.2848 1077.1875,2154.3223 1077.1875,2203.8973 " fill="none" id="PAIEMENT-VERSEMENT" style="stroke:#456A7D;stroke-width:2.625;"/><text fill="#29485B" font-family="sans-serif" font-size="30" lengthAdjust="spacing" textLength="91.875" x="1086.5625" y="2108.9461">g&#233;n&#232;re</text><text fill="#29485B" font-family="sans-serif" font-size="30" lengthAdjust="spacing" textLength="41.25" x="1033.8208" y="2098.1491">1,1</text><text fill="#29485B" font-family="sans-serif" font-size="30" lengthAdjust="spacing" textLength="39.375" x="1016.7305" y="2175.1269">1,n</text></g><!--link UTILISATEUR to VERSEMENT--><g id="link_UTILISATEUR_VERSEMENT"><path codeLine="149" d="M1213.5563,310.6348 C1193.5313,310.6348 1179.375,310.6348 1179.375,310.6348 C1179.375,310.6348 1179.375,1757.6098 1179.375,2204.1223 " fill="none" id="UTILISATEUR-VERSEMENT" style="stroke:#456A7D;stroke-width:2.625;"/><text fill="#29485B" font-family="sans-serif" font-size="30" lengthAdjust="spacing" textLength="120" x="1188.75" y="1280.7961">b&#233;n&#233;ficie</text><text fill="#29485B" font-family="sans-serif" font-size="30" lengthAdjust="spacing" textLength="41.25" x="1150.1536" y="289.6472">1,1</text><text fill="#29485B" font-family="sans-serif" font-size="30" lengthAdjust="spacing" textLength="39.375" x="1128.6577" y="2175.3733">0,n</text></g><!--link UTILISATEUR to SERVICE_VETERINAIRE--><g id="link_UTILISATEUR_SERVICE_VETERINAIRE"><path codeLine="150" d="M1467.5063,519.416 C1467.5063,667.1285 1467.5063,865.6348 1467.5063,865.6348 C1467.5063,865.6348 1507.35,865.6348 1557.9375,865.6348 " fill="none" id="UTILISATEUR-SERVICE_VETERINAIRE" style="stroke:#456A7D;stroke-width:2.625;"/><text fill="#29485B" font-family="sans-serif" font-size="30" lengthAdjust="spacing" textLength="271.875" x="1186.2563" y="722.0086">propose (v&#233;t&#233;rinaire)</text><text fill="#29485B" font-family="sans-serif" font-size="30" lengthAdjust="spacing" textLength="41.25" x="1486.1141" y="571.5665">1,1</text><text fill="#29485B" font-family="sans-serif" font-size="30" lengthAdjust="spacing" textLength="39.375" x="1495.9758" y="850.1332">0,n</text></g><!--link SERVICE_VETERINAIRE to RENDEZ_VOUS--><g id="link_SERVICE_VETERINAIRE_RENDEZ_VOUS"><path codeLine="151" d="M1794.375,994.466 C1794.375,1075.241 1794.375,1178.7598 1794.375,1259.591 " fill="none" id="SERVICE_VETERINAIRE-RENDEZ_VOUS" style="stroke:#456A7D;stroke-width:2.625;"/><text fill="#29485B" font-family="sans-serif" font-size="30" lengthAdjust="spacing" textLength="120" x="1665" y="1111.2961">concerne</text><text fill="#29485B" font-family="sans-serif" font-size="30" lengthAdjust="spacing" textLength="41.25" x="1745.625" y="1048.4321">1,1</text><text fill="#29485B" font-family="sans-serif" font-size="30" lengthAdjust="spacing" textLength="39.375" x="1744.9937" y="1231.2871">0,n</text></g><!--link UTILISATEUR to RENDEZ_VOUS--><g id="link_UTILISATEUR_RENDEZ_VOUS"><path codeLine="152" d="M1460.3063,518.9473 C1460.3063,806.8535 1460.3063,1390.6348 1460.3063,1390.6348 C1460.3063,1390.6348 1555.9875,1390.6348 1644.9375,1390.6348 " fill="none" id="UTILISATEUR-RENDEZ_VOUS" style="stroke:#456A7D;stroke-width:2.625;"/><text fill="#29485B" font-family="sans-serif" font-size="30" lengthAdjust="spacing" textLength="243.75" x="1207.1813" y="1031.3648">demande (&#233;leveur)</text><text fill="#29485B" font-family="sans-serif" font-size="30" lengthAdjust="spacing" textLength="41.25" x="1497.5179" y="532.1021">1,1</text><text fill="#29485B" font-family="sans-serif" font-size="30" lengthAdjust="spacing" textLength="39.375" x="1583.4357" y="1374.652">0,n</text></g><!--link UTILISATEUR to NOTIFICATION--><g id="link_UTILISATEUR_NOTIFICATION"><path codeLine="153" d="M1213.7063,415.6348 C903.8063,415.6348 150,415.6348 150,415.6348 C150,415.6348 150,602.1785 150,734.816 " fill="none" id="UTILISATEUR-NOTIFICATION" style="stroke:#456A7D;stroke-width:2.625;"/><text fill="#29485B" font-family="sans-serif" font-size="30" lengthAdjust="spacing" textLength="73.125" x="439.7625" y="399.9023">re&#231;oit</text><text fill="#29485B" font-family="sans-serif" font-size="30" lengthAdjust="spacing" textLength="41.25" x="1150.3175" y="404.3269">1,1</text><text fill="#29485B" font-family="sans-serif" font-size="30" lengthAdjust="spacing" textLength="39.375" x="100.5337" y="706.0438">0,n</text></g><!--link LIVRAISON to GMN29--><g id="link_LIVRAISON_GMN29"><path d="M1273.5938,2018.141 C1273.5938,2073.5098 1273.5938,2125.6348 1273.5938,2125.6348 C1273.5938,2125.6348 781.4063,2125.6348 781.4063,2125.6348 C781.4063,2125.6348 781.4063,2217.416 781.4063,2279.0848 " fill="none" id="LIVRAISON-GMN29" style="stroke:#456A7D;stroke-width:2.625;stroke-dasharray:7.0,7.0;"/></g><!--SRC=[ZLVBRkCs5DthAovIe3DJP08_OySxsPQc1X8vy6lHZS58j4D49XMAyYGj1kYs-tx0x1hl-mV-a_cINicoJLcoqW21PVBSU-uzF1Jf3p1Mhpu5LwnM4OSVV_uD7YDBILOh6eBbqtLFS4vTPNo0yUmBT60Xv8eeMEEOa8pwmAc2xNTG8b8K566-Jw_Wtecnz2KGKi4ZYQUyxMR1E5DCy2iZV68y84W33yHzMaeHSQydV27X9plvqn1UmA3QhcWZuIFnn5V6bx0WVaYrcIIHAoId4gerRS9dMEThG04BUXHwTheWaQzimPL3LXJ6X8TZAjcY63DclrEeNckJ4wPyMXf-G2J1jLhHLDfyjLMlDVeQm9HIV4qd6yrhivMRrA9hDursitiAc3mozudJC8JgLKERT8IYtGBrsrRx52MaHsMAi9gcrMYU8BGYcjr6ksffy_V8GPRP93TcjsMs2a2vUXgsQL_dWRfcDbBMYo4xTpy8tzDLSHLRC_MQ9wlORRjUXDHhhzcjVbRb55MwZYccpyXASAz8ztg_NHAWLz1ltpHhTc57Puli-IGCk-zkjXsijDq4yYib2CdbinfstJ9FmMN2M5mLBiLfOIckjB8Tfenjh4Y1wQs-tRAhELWfLm8fevg6r2LX0Pc9dcuN07MwkjLgt5JoeDBUw7D4kKjlsGB_-Sc6wtKRlMeP-jqLs4VS4wcOomB2rVlD5GMLDheFCEFpvVyNjOENhrWA_O89Wtpcbjsr-sVXfLfouT6G1j3I6v64FyM3xMR1HhqZSiauL2i5S_V4y-AphPrvfHtasq_NzDYkU2aEsuqrJerx11jA17XuupjIAO577PDuikCPRQZuQ88xuMtVaWi2IX6e20zy3yzol1HiDtX3C8nWzxA5YwbYFWinToJ32_Z30A39TeJfP70x69iJQpfAXW5-0URDeoC-6VpyEVdWOfLyqXLU9P8dANoA3z-CRnfRZoZYYsL4CrIcumoTdgNJ4CxZqdMA-1wGF0IIlIGFpn694-n6GnGeKWdZ8V78wazxay7GcHTGIEf5Eyqqaf16p9zd4WSYaYucn0Po_SnmdCBFU4zPIy92mJDzzOPtTwRJpx36LpR2lKnd6JeyDXH-dUF59_tkKQnLONvrjj5xSs3TMSv4Pme8eokSpsWeKFyqxIlbP_FT3cOZSp0UEdh2GvCPmVRHW9TBl40nbyIQpfzbDkFC6erp9M94cAin5U2qDbrslAgjcOj6NcytQhkHZ1FS05d_ZgtHRD2pvZDhOeq6ZZaOPTOXtAN8YCEKp3WiuoHSnz_ci-5qdF6GjzOpUBWlve6awuWMb9-cSeQJWJtecR4larn99YxKGJmZJOYxLr4UuPCVnGdqBNbHlQnU80mkAfVekhs_En143pwZy761jkKiH4FBJyP- -YGglpywXmj_6Tl1s4Y75mLaYtz7WDp-wzDB-F7NTrHGe8YuEl72dENNyYHlAlm1O1p6T2m-72pUGPwtfNyUUJHl1vRR3T- -uR9ckgbagj3ns4qaiP_Owubo1zeZIJKEElhv74csLHt_4EDHPPULXXGvk9CeAsB9Czx_P1IXSyjzDB6cU4a9sGYF9gyk-BZTu4_CH9wIs8pFST7ezX-1jZBGwNH_Red5KNsq-J28xSyf_XYDr-8XJ5wl8GFyVdm5xWux89080EwZO0Z1OpA6kMX-hgvmitaGC_q7]--></g></svg>