<?xml version="1.0" encoding="us-ascii" standalone="no"?><svg xmlns="http://www.w3.org/2000/svg" xmlns:xlink="http://www.w3.org/1999/xlink" contentStyleType="text/css" height="1548.75px" preserveAspectRatio="none" style="width:1728px;height:1548px;background:#FFFFFF;" version="1.1" viewBox="0 0 1728 1548" width="1728.75px" zoomAndPan="magnify"><defs/><g><text fill="#17324D" font-family="sans-serif" font-size="41.25" font-weight="bold" lengthAdjust="spacing" textLength="504.375" x="619.2188" y="78.446">Publication d'une annonce</text><rect fill="#F4FAF6" height="453.5156" rx="11.25" ry="11.25" style="stroke:#9CB4C1;stroke-width:2.8125;" width="1500.9375" x="18.75" y="890.0098"/><path d="M18.75,1129.0723 L1519.6875,1129.0723 L1519.6875,1332.2754 A11.25,11.25 0 0 1 1508.4375,1343.5254 L30,1343.5254 A11.25,11.25 0 0 1 18.75,1332.2754 L18.75,1129.0723 " fill="#F4FAF6" style="stroke:none;stroke-width:1.875;"/><line style="stroke:#9CB4C1;stroke-width:0.9375;stroke-dasharray:5.0,5.0;" x1="127.5" x2="127.5" y1="280.8691" y2="1375.4004"/><line style="stroke:#9CB4C1;stroke-width:0.9375;stroke-dasharray:5.0,5.0;" x1="425.625" x2="425.625" y1="280.8691" y2="1375.4004"/><line style="stroke:#9CB4C1;stroke-width:0.9375;stroke-dasharray:5.0,5.0;" x1="958.125" x2="958.125" y1="280.8691" y2="1375.4004"/><line style="stroke:#9CB4C1;stroke-width:0.9375;stroke-dasharray:5.0,5.0;" x1="1371.5625" x2="1371.5625" y1="280.8691" y2="1375.4004"/><line style="stroke:#9CB4C1;stroke-width:0.9375;stroke-dasharray:5.0,5.0;" x1="1626.5625" x2="1626.5625" y1="280.8691" y2="1375.4004"/><text fill="#000000" font-family="sans-serif" font-size="30" lengthAdjust="spacing" textLength="153.75" x="45" y="266.7773">Fournisseur</text><ellipse cx="127.5" cy="131.5723" fill="#FFFFFF" rx="15" ry="15" style="stroke:#2F7D5B;stroke-width:0.9375;"/><path d="M127.5,146.5723 L127.5,197.1973 M103.125,161.5723 L151.875,161.5723 M127.5,197.1973 L103.125,225.3223 M127.5,197.1973 L151.875,225.3223 " fill="none" style="stroke:#2F7D5B;stroke-width:0.9375;"/><text fill="#000000" font-family="sans-serif" font-size="30" lengthAdjust="spacing" textLength="153.75" x="45" y="1412.168">Fournisseur</text><ellipse cx="127.5" cy="1442.1973" fill="#FFFFFF" rx="15" ry="15" style="stroke:#2F7D5B;stroke-width:0.9375;"/><path d="M127.5,1457.1973 L127.5,1507.8223 M103.125,1472.1973 L151.875,1472.1973 M127.5,1507.8223 L103.125,1535.9473 M127.5,1507.8223 L151.875,1535.9473 " fill="none" style="stroke:#2F7D5B;stroke-width:0.9375;"/><text fill="#000000" font-family="sans-serif" font-size="30" lengthAdjust="spacing" textLength="172.5" x="333.75" y="266.7773">Interface web</text><path d="M387.1875,175.6348 L387.1875,220.6348 M387.1875,198.1348 L419.0625,198.1348 " fill="none" style="stroke:#181818;stroke-width:0.9375;"/><ellipse cx="441.5625" cy="198.1348" fill="#E2E2F0" rx="22.5" ry="22.5" style="stroke:#181818;stroke-width:0.9375;"/><text fill="#000000" font-family="sans-serif" font-size="30" lengthAdjust="spacing" textLength="172.5" x="333.75" y="1412.168">Interface web</text><path d="M387.1875,1433.7598 L387.1875,1478.7598 M387.1875,1456.2598 L419.0625,1456.2598 " fill="none" style="stroke:#181818;stroke-width:0.9375;"/><ellipse cx="441.5625" cy="1456.2598" fill="#E2E2F0" rx="22.5" ry="22.5" style="stroke:#181818;stroke-width:0.9375;"/><text fill="#000000" font-family="sans-serif" font-size="30" lengthAdjust="spacing" textLength="165" x="870" y="266.7773">ElevConnect</text><ellipse cx="958.125" cy="198.1348" fill="#E2E2F0" rx="22.5" ry="22.5" style="stroke:#181818;stroke-width:0.9375;"/><polygon fill="#181818" points="950.625,175.6348,961.875,166.2598,958.125,175.6348,961.875,185.0098,950.625,175.6348" style="stroke:#181818;stroke-width:1.875;"/><text fill="#000000" font-family="sans-serif" font-size="30" lengthAdjust="spacing" textLength="165" x="870" y="1412.168">ElevConnect</text><ellipse cx="958.125" cy="1456.2598" fill="#E2E2F0" rx="22.5" ry="22.5" style="stroke:#181818;stroke-width:0.9375;"/><polygon fill="#181818" points="950.625,1433.7598,961.875,1424.3848,958.125,1433.7598,961.875,1443.1348,950.625,1433.7598" style="stroke:#181818;stroke-width:1.875;"/><text fill="#000000" font-family="sans-serif" font-size="30" lengthAdjust="spacing" textLength="230.625" x="1251.5625" y="266.7773">Base de donn&#233;es</text><path d="M1338.75,160.6348 C1338.75,141.8848 1372.5,141.8848 1372.5,141.8848 C1372.5,141.8848 1406.25,141.8848 1406.25,160.6348 L1406.25,209.3848 C1406.25,228.1348 1372.5,228.1348 1372.5,228.1348 C1372.5,228.1348 1338.75,228.1348 1338.75,209.3848 L1338.75,160.6348 " fill="#E2E2F0" style="stroke:#181818;stroke-width:2.8125;"/><path d="M1338.75,160.6348 C1338.75,179.3848 1372.5,179.3848 1372.5,179.3848 C1372.5,179.3848 1406.25,179.3848 1406.25,160.6348 " fill="none" style="stroke:#181818;stroke-width:2.8125;"/><text fill="#000000" font-family="sans-serif" font-size="30" lengthAdjust="spacing" textLength="230.625" x="1251.5625" y="1412.168">Base de donn&#233;es</text><path d="M1338.75,1445.0098 C1338.75,1426.2598 1372.5,1426.2598 1372.5,1426.2598 C1372.5,1426.2598 1406.25,1426.2598 1406.25,1445.0098 L1406.25,1493.7598 C1406.25,1512.5098 1372.5,1512.5098 1372.5,1512.5098 C1372.5,1512.5098 1338.75,1512.5098 1338.75,1493.7598 L1338.75,1445.0098 " fill="#E2E2F0" style="stroke:#181818;stroke-width:2.8125;"/><path d="M1338.75,1445.0098 C1338.75,1463.7598 1372.5,1463.7598 1372.5,1463.7598 C1372.5,1463.7598 1406.25,1463.7598 1406.25,1445.0098 " fill="none" style="stroke:#181818;stroke-width:2.8125;"/><text fill="#000000" font-family="sans-serif" font-size="30" lengthAdjust="spacing" textLength="189.375" x="1527.1875" y="266.7773">Administrateur</text><ellipse cx="1627.5" cy="131.5723" fill="#FFFFFF" rx="15" ry="15" style="stroke:#2F7D5B;stroke-width:0.9375;"/><path d="M1627.5,146.5723 L1627.5,197.1973 M1603.125,161.5723 L1651.875,161.5723 M1627.5,197.1973 L1603.125,225.3223 M1627.5,197.1973 L1651.875,225.3223 " fill="none" style="stroke:#2F7D5B;stroke-width:0.9375;"/><text fill="#000000" font-family="sans-serif" font-size="30" lengthAdjust="spacing" textLength="189.375" x="1527.1875" y="1412.168">Administrateur</text><ellipse cx="1627.5" cy="1442.1973" fill="#FFFFFF" rx="15" ry="15" style="stroke:#2F7D5B;stroke-width:0.9375;"/><path d="M1627.5,1457.1973 L1627.5,1507.8223 M1603.125,1472.1973 L1651.875,1472.1973 M1627.5,1507.8223 L1603.125,1535.9473 M1627.5,1507.8223 L1651.875,1535.9473 " fill="none" style="stroke:#2F7D5B;stroke-width:0.9375;"/><polygon fill="#456A7D" points="403.125,356.1035,421.875,363.6035,403.125,371.1035,410.625,363.6035" style="stroke:#456A7D;stroke-width:1.875;"/><line style="stroke:#456A7D;stroke-width:2.625;" x1="127.5" x2="414.375" y1="363.6035" y2="363.6035"/><text fill="#29485B" font-family="sans-serif" font-size="30" font-weight="bold" lengthAdjust="spacing" textLength="16.875" x="148.125" y="345.7617">1</text><text fill="#29485B" font-family="sans-serif" font-size="30" lengthAdjust="spacing" textLength="198.75" x="187.5" y="345.7617">saisit l'annonce</text><polygon fill="#456A7D" points="935.625,435.0879,954.375,442.5879,935.625,450.0879,943.125,442.5879" style="stroke:#456A7D;stroke-width:1.875;"/><line style="stroke:#456A7D;stroke-width:2.625;" x1="425.625" x2="946.875" y1="442.5879" y2="442.5879"/><text fill="#29485B" font-family="sans-serif" font-size="30" font-weight="bold" lengthAdjust="spacing" textLength="16.875" x="446.25" y="424.7461">2</text><text fill="#29485B" font-family="sans-serif" font-size="30" lengthAdjust="spacing" textLength="375" x="485.625" y="424.7461">soumettreAnnonce(donn&#233;es)</text><line style="stroke:#456A7D;stroke-width:2.625;" x1="958.125" x2="1036.875" y1="521.5723" y2="521.5723"/><line style="stroke:#456A7D;stroke-width:2.625;" x1="1036.875" x2="1036.875" y1="521.5723" y2="545.9473"/><line style="stroke:#456A7D;stroke-width:2.625;" x1="960" x2="1036.875" y1="545.9473" y2="545.9473"/><polygon fill="#456A7D" points="978.75,538.4473,960,545.9473,978.75,553.4473,971.25,545.9473" style="stroke:#456A7D;stroke-width:1.875;"/><text fill="#29485B" font-family="sans-serif" font-size="30" font-weight="bold" lengthAdjust="spacing" textLength="16.875" x="978.75" y="503.7305">3</text><text fill="#29485B" font-family="sans-serif" font-size="30" lengthAdjust="spacing" textLength="288.75" x="1018.125" y="503.7305">valide les informations</text><polygon fill="#456A7D" points="1350,617.4316,1368.75,624.9316,1350,632.4316,1357.5,624.9316" style="stroke:#456A7D;stroke-width:1.875;"/><line style="stroke:#456A7D;stroke-width:2.625;" x1="958.125" x2="1361.25" y1="624.9316" y2="624.9316"/><text fill="#29485B" font-family="sans-serif" font-size="30" font-weight="bold" lengthAdjust="spacing" textLength="16.875" x="978.75" y="607.0898">4</text><text fill="#29485B" font-family="sans-serif" font-size="30" lengthAdjust="spacing" textLength="315" x="1018.125" y="607.0898">enregistre &#171; en attente &#187;</text><polygon fill="#456A7D" points="1605,696.416,1623.75,703.916,1605,711.416,1612.5,703.916" style="stroke:#456A7D;stroke-width:1.875;"/><line style="stroke:#456A7D;stroke-width:2.625;" x1="958.125" x2="1616.25" y1="703.916" y2="703.916"/><text fill="#29485B" font-family="sans-serif" font-size="30" font-weight="bold" lengthAdjust="spacing" textLength="16.875" x="978.75" y="686.0742">5</text><text fill="#29485B" font-family="sans-serif" font-size="30" lengthAdjust="spacing" textLength="264.375" x="1018.125" y="686.0742">notifie la mod&#233;ration</text><polygon fill="#456A7D" points="446.25,775.4004,427.5,782.9004,446.25,790.4004,438.75,782.9004" style="stroke:#456A7D;stroke-width:1.875;"/><line style="stroke:#456A7D;stroke-width:2.625;" x1="435" x2="1625.625" y1="782.9004" y2="782.9004"/><text fill="#29485B" font-family="sans-serif" font-size="30" font-weight="bold" lengthAdjust="spacing" textLength="16.875" x="465" y="765.0586">6</text><text fill="#29485B" font-family="sans-serif" font-size="30" lengthAdjust="spacing" textLength="249.375" x="504.375" y="765.0586">approuve ou rejette</text><polygon fill="#456A7D" points="935.625,854.3848,954.375,861.8848,935.625,869.3848,943.125,861.8848" style="stroke:#456A7D;stroke-width:1.875;"/><line style="stroke:#456A7D;stroke-width:2.625;" x1="425.625" x2="946.875" y1="861.8848" y2="861.8848"/><text fill="#29485B" font-family="sans-serif" font-size="30" font-weight="bold" lengthAdjust="spacing" textLength="16.875" x="446.25" y="844.043">7</text><text fill="#29485B" font-family="sans-serif" font-size="30" lengthAdjust="spacing" textLength="433.125" x="485.625" y="844.043">mod&#233;rerAnnonce(d&#233;cision, motif)</text><path d="M30,890.0098 L151.875,890.0098 L151.875,927.7441 L133.125,946.4941 L18.75,946.4941 L18.75,901.2598 A11.25,11.25 0 0 1 30,890.0098 " fill="#F7FBFD" style="stroke:#9CB4C1;stroke-width:2.8125;"/><rect fill="none" height="453.5156" rx="11.25" ry="11.25" style="stroke:#9CB4C1;stroke-width:2.8125;" width="1500.9375" x="18.75" y="890.0098"/><text fill="#000000" font-family="sans-serif" font-size="30" font-weight="bold" lengthAdjust="spacing" textLength="33.75" x="54.375" y="930.5273">alt</text><text fill="#000000" font-family="sans-serif" font-size="30" font-weight="bold" lengthAdjust="spacing" textLength="305.625" x="187.5" y="932.4023">[annonce approuv&#233;e]</text><polygon fill="#456A7D" points="1350,1027.5879,1368.75,1035.0879,1350,1042.5879,1357.5,1035.0879" style="stroke:#456A7D;stroke-width:1.875;"/><line style="stroke:#456A7D;stroke-width:2.625;" x1="958.125" x2="1361.25" y1="1035.0879" y2="1035.0879"/><text fill="#29485B" font-family="sans-serif" font-size="30" font-weight="bold" lengthAdjust="spacing" textLength="16.875" x="978.75" y="1017.2461">8</text><text fill="#29485B" font-family="sans-serif" font-size="30" lengthAdjust="spacing" textLength="277.5" x="1018.125" y="1017.2461">rend l'annonce visible</text><polygon fill="#456A7D" points="148.125,1106.5723,129.375,1114.0723,148.125,1121.5723,140.625,1114.0723" style="stroke:#456A7D;stroke-width:1.875;"/><line style="stroke:#456A7D;stroke-width:2.625;" x1="136.875" x2="956.25" y1="1114.0723" y2="1114.0723"/><text fill="#29485B" font-family="sans-serif" font-size="30" font-weight="bold" lengthAdjust="spacing" textLength="16.875" x="166.875" y="1096.2305">9</text><text fill="#29485B" font-family="sans-serif" font-size="30" lengthAdjust="spacing" textLength="256.875" x="206.25" y="1096.2305">notifie la publication</text><line style="stroke:#9CB4C1;stroke-width:1.875;stroke-dasharray:2.0,2.0;" x1="18.75" x2="1519.6875" y1="1130.9473" y2="1130.9473"/><text fill="#000000" font-family="sans-serif" font-size="30" font-weight="bold" lengthAdjust="spacing" textLength="247.5" x="35.625" y="1169.5898">[annonce rejet&#233;e]</text><polygon fill="#456A7D" points="1350,1242.041,1368.75,1249.541,1350,1257.041,1357.5,1249.541" style="stroke:#456A7D;stroke-width:1.875;"/><line style="stroke:#456A7D;stroke-width:2.625;" x1="958.125" x2="1361.25" y1="1249.541" y2="1249.541"/><text fill="#29485B" font-family="sans-serif" font-size="30" font-weight="bold" lengthAdjust="spacing" textLength="33.75" x="978.75" y="1231.6992">10</text><text fill="#29485B" font-family="sans-serif" font-size="30" lengthAdjust="spacing" textLength="232.5" x="1035" y="1231.6992">enregistre le motif</text><polygon fill="#456A7D" points="148.125,1321.0254,129.375,1328.5254,148.125,1336.0254,140.625,1328.5254" style="stroke:#456A7D;stroke-width:1.875;"/><line style="stroke:#456A7D;stroke-width:2.625;" x1="136.875" x2="956.25" y1="1328.5254" y2="1328.5254"/><text fill="#29485B" font-family="sans-serif" font-size="30" font-weight="bold" lengthAdjust="spacing" textLength="33.75" x="166.875" y="1310.6836">11</text><text fill="#29485B" font-family="sans-serif" font-size="30" lengthAdjust="spacing" textLength="172.5" x="223.125" y="1310.6836">notifie le rejet</text><!--SRC=[ZPR1RkCs48RlUef1UaWNQ8FObcDb3mKaIzekq6IDUhDtMXexR2XI9IbdqrCVeW-mrw2FqDlcJVP9TYJB3cqhIeF4GFX_C_DpI5bp2dFx810oLHILX6z__mCvPolDYW8D90BNKoKbPjOxXVcdT_0MbaeNpCAQrfJcA42YXQSlO5Lb4IpZGk0PpAvh5Z-NIbkuPRMKFpqkkUIMAtdccJikIqPbOC6okvLMbSodIYWDFwJDZqFa9OT1SEwic5kMgtikLx1amg2ZD8aofILg60mTGN3o-L0YaA5RvMR79Qk4JPMqrwn0c3DfvgZvifkPyxyG1XUE-95RWRtXEw897Wwxf7RpWybewCSE46gjxblH7r-4aoFHYHvU-i4uEWG-tlBiJg8nC3Zp7V5QMOmwkXyamI6bT8ww9P9ncFZZ0y8nCOxyO90u-engiDL-aiimceIJ3kZ8Zv-6wSKnwFOifPAZRcHpknTAv6vNCilNt3uS5pjFWtJKHRhUX-aatkzoI_MUOyl4d1LAvbrz7yL1Ju3h80uknyEqSqSlcfmAPapqwiEsmNgtso2_8YFaA5_YfwCaF8Jx6fD8staKXyPQhjVPXkchDhUiuz8dSJf91qTORwq6wIjrOp1ZfgDOI7Sww03TSgDaub-U7qEzUyC_AvGP_iQNz2SF7hXfv4y7VVIh9x2Dc35jUSPB9kthc-iAwjteDY2ito__tzG6xp-n5dr72SlZp9CqIkCNyTvUIfMZmNB_grqpUTSi-XqFwXNJAovXSDwXpLYUr- -sOEyhRTU-hJnqOoFrkJjii-OVNjndsAENiv9LiK3jiRg9aAfAIsuCLXgOWVJ3pU_UekuKqmzmybvQr4kM8TpZugG6Rjvx6LrBhGISE1D3euMpcPSponPqT-4agZzp-YNYwH5DWyHHMpVC2veFZDNaRrCwZAyypzQlI9XL2y4pLayFa9zM4e59gUXumFDgX_3pBsI4PWx3kE4Mn6chUxHA6XcfHLKLQAt6S2F-k7Nongk17RTcWfDFGJCGbvk9XmgRBHH7zN0ZDQvgkmXV_wN_W5cBr1pu-jykMNn5e5IMBpbbOr0ece9qayppQdNhcfKbNRCrZISLQFo3FEuRtmIYtlb-Uinedqh-H1AbV-CnONSjQRFHnZm0rxD6cJ-t1jQKOY4SgEdadkFokUyUqgorgz6uFAxWT8LEhV7sSlesYqUklWC0]--></g></svg>