<?xml version="1.0" encoding="us-ascii" standalone="no"?><svg xmlns="http://www.w3.org/2000/svg" xmlns:xlink="http://www.w3.org/1999/xlink" contentStyleType="text/css" height="2557.5px" preserveAspectRatio="none" style="width:2356px;height:2557px;background:#FFFFFF;" version="1.1" viewBox="0 0 2356 2557" width="2356.875px" zoomAndPan="magnify"><defs/><g><text fill="#17324D" font-family="sans-serif" font-size="41.25" font-weight="bold" lengthAdjust="spacing" textLength="455.625" x="952.9688" y="78.446">Commande et r&#233;ception</text><rect fill="#F4FAF6" height="848.4375" rx="11.25" ry="11.25" style="stroke:#9CB4C1;stroke-width:2.8125;" width="2119.6875" x="225" y="1347.2754"/><path d="M225,1902.2754 L2344.6875,1902.2754 L2344.6875,2184.4629 A11.25,11.25 0 0 1 2333.4375,2195.7129 L236.25,2195.7129 A11.25,11.25 0 0 1 225,2184.4629 L225,1902.2754 " fill="#F4FAF6" style="stroke:none;stroke-width:1.875;"/><line style="stroke:#9CB4C1;stroke-width:0.9375;stroke-dasharray:5.0,5.0;" x1="294.375" x2="294.375" y1="280.8691" y2="2385.5566"/><line style="stroke:#9CB4C1;stroke-width:0.9375;stroke-dasharray:5.0,5.0;" x1="751.875" x2="751.875" y1="280.8691" y2="2385.5566"/><line style="stroke:#9CB4C1;stroke-width:0.9375;stroke-dasharray:5.0,5.0;" x1="1410" x2="1410" y1="280.8691" y2="2385.5566"/><line style="stroke:#9CB4C1;stroke-width:0.9375;stroke-dasharray:5.0,5.0;" x1="1864.6875" x2="1864.6875" y1="280.8691" y2="2385.5566"/><line style="stroke:#9CB4C1;stroke-width:0.9375;stroke-dasharray:5.0,5.0;" x1="2102.8125" x2="2102.8125" y1="280.8691" y2="2385.5566"/><line style="stroke:#9CB4C1;stroke-width:0.9375;stroke-dasharray:5.0,5.0;" x1="2267.8125" x2="2267.8125" y1="280.8691" y2="2385.5566"/><text fill="#000000" font-family="sans-serif" font-size="30" lengthAdjust="spacing" textLength="75" x="251.25" y="266.7773">Client</text><ellipse cx="294.375" cy="131.5723" fill="#FFFFFF" rx="15" ry="15" style="stroke:#2F7D5B;stroke-width:0.9375;"/><path d="M294.375,146.5723 L294.375,197.1973 M270,161.5723 L318.75,161.5723 M294.375,197.1973 L270,225.3223 M294.375,197.1973 L318.75,225.3223 " fill="none" style="stroke:#2F7D5B;stroke-width:0.9375;"/><text fill="#000000" font-family="sans-serif" font-size="30" lengthAdjust="spacing" textLength="75" x="251.25" y="2422.3242">Client</text><ellipse cx="294.375" cy="2452.3535" fill="#FFFFFF" rx="15" ry="15" style="stroke:#2F7D5B;stroke-width:0.9375;"/><path d="M294.375,2467.3535 L294.375,2517.9785 M270,2482.3535 L318.75,2482.3535 M294.375,2517.9785 L270,2546.1035 M294.375,2517.9785 L318.75,2546.1035 " fill="none" style="stroke:#2F7D5B;stroke-width:0.9375;"/><text fill="#000000" font-family="sans-serif" font-size="30" lengthAdjust="spacing" textLength="172.5" x="660" y="266.7773">Interface web</text><path d="M713.4375,175.6348 L713.4375,220.6348 M713.4375,198.1348 L745.3125,198.1348 " fill="none" style="stroke:#181818;stroke-width:0.9375;"/><ellipse cx="767.8125" cy="198.1348" fill="#E2E2F0" rx="22.5" ry="22.5" style="stroke:#181818;stroke-width:0.9375;"/><text fill="#000000" font-family="sans-serif" font-size="30" lengthAdjust="spacing" textLength="172.5" x="660" y="2422.3242">Interface web</text><path d="M713.4375,2443.916 L713.4375,2488.916 M713.4375,2466.416 L745.3125,2466.416 " fill="none" style="stroke:#181818;stroke-width:0.9375;"/><ellipse cx="767.8125" cy="2466.416" fill="#E2E2F0" rx="22.5" ry="22.5" style="stroke:#181818;stroke-width:0.9375;"/><text fill="#000000" font-family="sans-serif" font-size="30" lengthAdjust="spacing" textLength="165" x="1321.875" y="266.7773">ElevConnect</text><ellipse cx="1410" cy="198.1348" fill="#E2E2F0" rx="22.5" ry="22.5" style="stroke:#181818;stroke-width:0.9375;"/><polygon fill="#181818" points="1402.5,175.6348,1413.75,166.2598,1410,175.6348,1413.75,185.0098,1402.5,175.6348" style="stroke:#181818;stroke-width:1.875;"/><text fill="#000000" font-family="sans-serif" font-size="30" lengthAdjust="spacing" textLength="165" x="1321.875" y="2422.3242">ElevConnect</text><ellipse cx="1410" cy="2466.416" fill="#E2E2F0" rx="22.5" ry="22.5" style="stroke:#181818;stroke-width:0.9375;"/><polygon fill="#181818" points="1402.5,2443.916,1413.75,2434.541,1410,2443.916,1413.75,2453.291,1402.5,2443.916" style="stroke:#181818;stroke-width:1.875;"/><text fill="#000000" font-family="sans-serif" font-size="30" lengthAdjust="spacing" textLength="230.625" x="1744.6875" y="266.7773">Base de donn&#233;es</text><path d="M1831.875,160.6348 C1831.875,141.8848 1865.625,141.8848 1865.625,141.8848 C1865.625,141.8848 1899.375,141.8848 1899.375,160.6348 L1899.375,209.3848 C1899.375,228.1348 1865.625,228.1348 1865.625,228.1348 C1865.625,228.1348 1831.875,228.1348 1831.875,209.3848 L1831.875,160.6348 " fill="#E2E2F0" style="stroke:#181818;stroke-width:2.8125;"/><path d="M1831.875,160.6348 C1831.875,179.3848 1865.625,179.3848 1865.625,179.3848 C1865.625,179.3848 1899.375,179.3848 1899.375,160.6348 " fill="none" style="stroke:#181818;stroke-width:2.8125;"/><text fill="#000000" font-family="sans-serif" font-size="30" lengthAdjust="spacing" textLength="230.625" x="1744.6875" y="2422.3242">Base de donn&#233;es</text><path d="M1831.875,2455.166 C1831.875,2436.416 1865.625,2436.416 1865.625,2436.416 C1865.625,2436.416 1899.375,2436.416 1899.375,2455.166 L1899.375,2503.916 C1899.375,2522.666 1865.625,2522.666 1865.625,2522.666 C1865.625,2522.666 1831.875,2522.666 1831.875,2503.916 L1831.875,2455.166 " fill="#E2E2F0" style="stroke:#181818;stroke-width:2.8125;"/><path d="M1831.875,2455.166 C1831.875,2473.916 1865.625,2473.916 1865.625,2473.916 C1865.625,2473.916 1899.375,2473.916 1899.375,2455.166 " fill="none" style="stroke:#181818;stroke-width:2.8125;"/><text fill="#000000" font-family="sans-serif" font-size="30" lengthAdjust="spacing" textLength="153.75" x="2020.3125" y="266.7773">Fournisseur</text><ellipse cx="2102.8125" cy="131.5723" fill="#FFFFFF" rx="15" ry="15" style="stroke:#2F7D5B;stroke-width:0.9375;"/><path d="M2102.8125,146.5723 L2102.8125,197.1973 M2078.4375,161.5723 L2127.1875,161.5723 M2102.8125,197.1973 L2078.4375,225.3223 M2102.8125,197.1973 L2127.1875,225.3223 " fill="none" style="stroke:#2F7D5B;stroke-width:0.9375;"/><text fill="#000000" font-family="sans-serif" font-size="30" lengthAdjust="spacing" textLength="153.75" x="2020.3125" y="2422.3242">Fournisseur</text><ellipse cx="2102.8125" cy="2452.3535" fill="#FFFFFF" rx="15" ry="15" style="stroke:#2F7D5B;stroke-width:0.9375;"/><path d="M2102.8125,2467.3535 L2102.8125,2517.9785 M2078.4375,2482.3535 L2127.1875,2482.3535 M2102.8125,2517.9785 L2078.4375,2546.1035 M2102.8125,2517.9785 L2127.1875,2546.1035 " fill="none" style="stroke:#2F7D5B;stroke-width:0.9375;"/><text fill="#000000" font-family="sans-serif" font-size="30" lengthAdjust="spacing" textLength="88.125" x="2219.0625" y="266.7773">Livreur</text><ellipse cx="2268.75" cy="131.5723" fill="#FFFFFF" rx="15" ry="15" style="stroke:#2F7D5B;stroke-width:0.9375;"/><path d="M2268.75,146.5723 L2268.75,197.1973 M2244.375,161.5723 L2293.125,161.5723 M2268.75,197.1973 L2244.375,225.3223 M2268.75,197.1973 L2293.125,225.3223 " fill="none" style="stroke:#2F7D5B;stroke-width:0.9375;"/><text fill="#000000" font-family="sans-serif" font-size="30" lengthAdjust="spacing" textLength="88.125" x="2219.0625" y="2422.3242">Livreur</text><ellipse cx="2268.75" cy="2452.3535" fill="#FFFFFF" rx="15" ry="15" style="stroke:#2F7D5B;stroke-width:0.9375;"/><path d="M2268.75,2467.3535 L2268.75,2517.9785 M2244.375,2482.3535 L2293.125,2482.3535 M2268.75,2517.9785 L2244.375,2546.1035 M2268.75,2517.9785 L2293.125,2546.1035 " fill="none" style="stroke:#2F7D5B;stroke-width:0.9375;"/><path d="M9.375,320.2441 L9.375,443.9941 A11.25,11.25 0 0 0 20.625,455.2441 L570,455.2441 A11.25,11.25 0 0 0 581.25,443.9941 L581.25,327.7441 L562.5,308.9941 L20.625,308.9941 A11.25,11.25 0 0 0 9.375,320.2441 " fill="#FFF8E8" style="stroke:#E5AE45;stroke-width:0.9375;"/><path d="M562.5,308.9941 L562.5,322.1191 A5.625,5.625 0 0 0 568.125,327.7441 L581.25,327.7441 L562.5,308.9941 " fill="#FFF8E8" style="stroke:#E5AE45;stroke-width:0.9375;"/><text fill="#5B481E" font-family="sans-serif" font-size="30" lengthAdjust="spacing" textLength="463.125" x="28.125" y="357.0117">&#171; Client &#187; d&#233;signe tout acteur inscrit</text><text fill="#5B481E" font-family="sans-serif" font-size="30" lengthAdjust="spacing" textLength="517.5" x="28.125" y="394.7461">(y compris Administrateur), &#224; l'exception</text><text fill="#5B481E" font-family="sans-serif" font-size="30" lengthAdjust="spacing" textLength="513.75" x="28.125" y="432.4805">du propri&#233;taire de l'annonce concern&#233;e.</text><polygon fill="#456A7D" points="729.375,521.8066,748.125,529.3066,729.375,536.8066,736.875,529.3066" style="stroke:#456A7D;stroke-width:1.875;"/><line style="stroke:#456A7D;stroke-width:2.625;" x1="294.375" x2="740.625" y1="529.3066" y2="529.3066"/><text fill="#29485B" font-family="sans-serif" font-size="30" font-weight="bold" lengthAdjust="spacing" textLength="16.875" x="315" y="511.4648">1</text><text fill="#29485B" font-family="sans-serif" font-size="30" lengthAdjust="spacing" textLength="358.125" x="354.375" y="511.4648">choisit l'annonce et le retrait</text><polygon fill="#456A7D" points="1387.5,600.791,1406.25,608.291,1387.5,615.791,1395,608.291" style="stroke:#456A7D;stroke-width:1.875;"/><line style="stroke:#456A7D;stroke-width:2.625;" x1="751.875" x2="1398.75" y1="608.291" y2="608.291"/><text fill="#29485B" font-family="sans-serif" font-size="30" font-weight="bold" lengthAdjust="spacing" textLength="16.875" x="772.5" y="590.4492">2</text><text fill="#29485B" font-family="sans-serif" font-size="30" lengthAdjust="spacing" textLength="558.75" x="811.875" y="590.4492">cr&#233;erCommande(annonce, quantit&#233;, mode)</text><polygon fill="#456A7D" points="1843.125,679.7754,1861.875,687.2754,1843.125,694.7754,1850.625,687.2754" style="stroke:#456A7D;stroke-width:1.875;"/><line style="stroke:#456A7D;stroke-width:2.625;" x1="1410" x2="1854.375" y1="687.2754" y2="687.2754"/><text fill="#29485B" font-family="sans-serif" font-size="30" font-weight="bold" lengthAdjust="spacing" textLength="16.875" x="1430.625" y="669.4336">3</text><text fill="#29485B" font-family="sans-serif" font-size="30" lengthAdjust="spacing" textLength="356.25" x="1470" y="669.4336">v&#233;rifie le stock et enregistre</text><polygon fill="#456A7D" points="772.5,758.7598,753.75,766.2598,772.5,773.7598,765,766.2598" style="stroke:#456A7D;stroke-width:1.875;"/><line style="stroke:#456A7D;stroke-width:2.625;stroke-dasharray:2.0,2.0;" x1="761.25" x2="1408.125" y1="766.2598" y2="766.2598"/><text fill="#29485B" font-family="sans-serif" font-size="30" font-weight="bold" lengthAdjust="spacing" textLength="16.875" x="791.25" y="748.418">4</text><text fill="#29485B" font-family="sans-serif" font-size="30" lengthAdjust="spacing" textLength="331.875" x="830.625" y="748.418">affiche le montant &#224; payer</text><polygon fill="#456A7D" points="729.375,837.7441,748.125,845.2441,729.375,852.7441,736.875,845.2441" style="stroke:#456A7D;stroke-width:1.875;"/><line style="stroke:#456A7D;stroke-width:2.625;" x1="294.375" x2="740.625" y1="845.2441" y2="845.2441"/><text fill="#29485B" font-family="sans-serif" font-size="30" font-weight="bold" lengthAdjust="spacing" textLength="16.875" x="315" y="827.4023">5</text><text fill="#29485B" font-family="sans-serif" font-size="30" lengthAdjust="spacing" textLength="241.875" x="354.375" y="827.4023">paie la commande</text><polygon fill="#456A7D" points="1387.5,916.7285,1406.25,924.2285,1387.5,931.7285,1395,924.2285" style="stroke:#456A7D;stroke-width:1.875;"/><line style="stroke:#456A7D;stroke-width:2.625;" x1="751.875" x2="1398.75" y1="924.2285" y2="924.2285"/><text fill="#29485B" font-family="sans-serif" font-size="30" font-weight="bold" lengthAdjust="spacing" textLength="16.875" x="772.5" y="906.3867">6</text><text fill="#29485B" font-family="sans-serif" font-size="30" lengthAdjust="spacing" textLength="266.25" x="811.875" y="906.3867">confirmerPaiement()</text><polygon fill="#456A7D" points="1843.125,995.7129,1861.875,1003.2129,1843.125,1010.7129,1850.625,1003.2129" style="stroke:#456A7D;stroke-width:1.875;"/><line style="stroke:#456A7D;stroke-width:2.625;" x1="1410" x2="1854.375" y1="1003.2129" y2="1003.2129"/><text fill="#29485B" font-family="sans-serif" font-size="30" font-weight="bold" lengthAdjust="spacing" textLength="16.875" x="1430.625" y="985.3711">7</text><text fill="#29485B" font-family="sans-serif" font-size="30" lengthAdjust="spacing" textLength="234.375" x="1470" y="985.3711">commande pay&#233;e</text><polygon fill="#456A7D" points="2080.3125,1074.6973,2099.0625,1082.1973,2080.3125,1089.6973,2087.8125,1082.1973" style="stroke:#456A7D;stroke-width:1.875;"/><line style="stroke:#456A7D;stroke-width:2.625;" x1="1410" x2="2091.5625" y1="1082.1973" y2="1082.1973"/><text fill="#29485B" font-family="sans-serif" font-size="30" font-weight="bold" lengthAdjust="spacing" textLength="16.875" x="1430.625" y="1064.3555">8</text><text fill="#29485B" font-family="sans-serif" font-size="30" lengthAdjust="spacing" textLength="262.5" x="1470" y="1064.3555">notifie la commande</text><polygon fill="#456A7D" points="772.5,1153.6816,753.75,1161.1816,772.5,1168.6816,765,1161.1816" style="stroke:#456A7D;stroke-width:1.875;"/><line style="stroke:#456A7D;stroke-width:2.625;" x1="761.25" x2="2100.9375" y1="1161.1816" y2="1161.1816"/><text fill="#29485B" font-family="sans-serif" font-size="30" font-weight="bold" lengthAdjust="spacing" textLength="16.875" x="791.25" y="1143.3398">9</text><text fill="#29485B" font-family="sans-serif" font-size="30" lengthAdjust="spacing" textLength="288.75" x="830.625" y="1143.3398">accepte la commande</text><polygon fill="#456A7D" points="1387.5,1232.666,1406.25,1240.166,1387.5,1247.666,1395,1240.166" style="stroke:#456A7D;stroke-width:1.875;"/><line style="stroke:#456A7D;stroke-width:2.625;" x1="751.875" x2="1398.75" y1="1240.166" y2="1240.166"/><text fill="#29485B" font-family="sans-serif" font-size="30" font-weight="bold" lengthAdjust="spacing" textLength="33.75" x="772.5" y="1222.3242">10</text><text fill="#29485B" font-family="sans-serif" font-size="30" lengthAdjust="spacing" textLength="258.75" x="828.75" y="1222.3242">validerCommande()</text><polygon fill="#456A7D" points="1843.125,1311.6504,1861.875,1319.1504,1843.125,1326.6504,1850.625,1319.1504" style="stroke:#456A7D;stroke-width:1.875;"/><line style="stroke:#456A7D;stroke-width:2.625;" x1="1410" x2="1854.375" y1="1319.1504" y2="1319.1504"/><text fill="#29485B" font-family="sans-serif" font-size="30" font-weight="bold" lengthAdjust="spacing" textLength="33.75" x="1430.625" y="1301.3086">11</text><text fill="#29485B" font-family="sans-serif" font-size="30" lengthAdjust="spacing" textLength="247.5" x="1486.875" y="1301.3086">commande valid&#233;e</text><path d="M236.25,1347.2754 L358.125,1347.2754 L358.125,1385.0098 L339.375,1403.7598 L225,1403.7598 L225,1358.5254 A11.25,11.25 0 0 1 236.25,1347.2754 " fill="#F7FBFD" style="stroke:#9CB4C1;stroke-width:2.8125;"/><rect fill="none" height="848.4375" rx="11.25" ry="11.25" style="stroke:#9CB4C1;stroke-width:2.8125;" width="2119.6875" x="225" y="1347.2754"/><text fill="#000000" font-family="sans-serif" font-size="30" font-weight="bold" lengthAdjust="spacing" textLength="33.75" x="260.625" y="1387.793">alt</text><text fill="#000000" font-family="sans-serif" font-size="30" font-weight="bold" lengthAdjust="spacing" textLength="251.25" x="393.75" y="1389.668">[livraison choisie]</text><polygon fill="#456A7D" points="2246.25,1484.8535,2265,1492.3535,2246.25,1499.8535,2253.75,1492.3535" style="stroke:#456A7D;stroke-width:1.875;"/><line style="stroke:#456A7D;stroke-width:2.625;" x1="1410" x2="2257.5" y1="1492.3535" y2="1492.3535"/><text fill="#29485B" font-family="sans-serif" font-size="30" font-weight="bold" lengthAdjust="spacing" textLength="33.75" x="1430.625" y="1474.5117">12</text><text fill="#29485B" font-family="sans-serif" font-size="30" lengthAdjust="spacing" textLength="253.125" x="1486.875" y="1474.5117">propose la livraison</text><polygon fill="#456A7D" points="772.5,1563.8379,753.75,1571.3379,772.5,1578.8379,765,1571.3379" style="stroke:#456A7D;stroke-width:1.875;"/><line style="stroke:#456A7D;stroke-width:2.625;" x1="761.25" x2="2266.875" y1="1571.3379" y2="1571.3379"/><text fill="#29485B" font-family="sans-serif" font-size="30" font-weight="bold" lengthAdjust="spacing" textLength="33.75" x="791.25" y="1553.4961">13</text><text fill="#29485B" font-family="sans-serif" font-size="30" lengthAdjust="spacing" textLength="303.75" x="847.5" y="1553.4961">prend en charge et livre</text><polygon fill="#456A7D" points="1387.5,1642.8223,1406.25,1650.3223,1387.5,1657.8223,1395,1650.3223" style="stroke:#456A7D;stroke-width:1.875;"/><line style="stroke:#456A7D;stroke-width:2.625;" x1="751.875" x2="1398.75" y1="1650.3223" y2="1650.3223"/><text fill="#29485B" font-family="sans-serif" font-size="30" font-weight="bold" lengthAdjust="spacing" textLength="33.75" x="772.5" y="1632.4805">14</text><text fill="#29485B" font-family="sans-serif" font-size="30" lengthAdjust="spacing" textLength="256.875" x="828.75" y="1632.4805">confirme la livraison</text><polygon fill="#456A7D" points="729.375,1721.8066,748.125,1729.3066,729.375,1736.8066,736.875,1729.3066" style="stroke:#456A7D;stroke-width:1.875;"/><line style="stroke:#456A7D;stroke-width:2.625;" x1="294.375" x2="740.625" y1="1729.3066" y2="1729.3066"/><text fill="#29485B" font-family="sans-serif" font-size="30" font-weight="bold" lengthAdjust="spacing" textLength="33.75" x="315" y="1711.4648">15</text><text fill="#29485B" font-family="sans-serif" font-size="30" lengthAdjust="spacing" textLength="247.5" x="371.25" y="1711.4648">scanne le QR code</text><polygon fill="#456A7D" points="1387.5,1800.791,1406.25,1808.291,1387.5,1815.791,1395,1808.291" style="stroke:#456A7D;stroke-width:1.875;"/><line style="stroke:#456A7D;stroke-width:2.625;" x1="751.875" x2="1398.75" y1="1808.291" y2="1808.291"/><text fill="#29485B" font-family="sans-serif" font-size="30" font-weight="bold" lengthAdjust="spacing" textLength="33.75" x="772.5" y="1790.4492">16</text><text fill="#29485B" font-family="sans-serif" font-size="30" lengthAdjust="spacing" textLength="339.375" x="828.75" y="1790.4492">confirmerR&#233;ception(code)</text><polygon fill="#456A7D" points="1843.125,1879.7754,1861.875,1887.2754,1843.125,1894.7754,1850.625,1887.2754" style="stroke:#456A7D;stroke-width:1.875;"/><line style="stroke:#456A7D;stroke-width:2.625;" x1="1410" x2="1854.375" y1="1887.2754" y2="1887.2754"/><text fill="#29485B" font-family="sans-serif" font-size="30" font-weight="bold" lengthAdjust="spacing" textLength="33.75" x="1430.625" y="1869.4336">17</text><text fill="#29485B" font-family="sans-serif" font-size="30" lengthAdjust="spacing" textLength="283.125" x="1486.875" y="1869.4336">commande confirm&#233;e</text><line style="stroke:#9CB4C1;stroke-width:1.875;stroke-dasharray:2.0,2.0;" x1="225" x2="2344.6875" y1="1904.1504" y2="1904.1504"/><text fill="#000000" font-family="sans-serif" font-size="30" font-weight="bold" lengthAdjust="spacing" textLength="189.375" x="241.875" y="1942.793">[retrait direct]</text><polygon fill="#456A7D" points="729.375,2015.2441,748.125,2022.7441,729.375,2030.2441,736.875,2022.7441" style="stroke:#456A7D;stroke-width:1.875;"/><line style="stroke:#456A7D;stroke-width:2.625;" x1="294.375" x2="740.625" y1="2022.7441" y2="2022.7441"/><text fill="#29485B" font-family="sans-serif" font-size="30" font-weight="bold" lengthAdjust="spacing" textLength="33.75" x="315" y="2004.9023">18</text><text fill="#29485B" font-family="sans-serif" font-size="30" lengthAdjust="spacing" textLength="271.875" x="371.25" y="2004.9023">confirme la r&#233;ception</text><polygon fill="#456A7D" points="1387.5,2094.2285,1406.25,2101.7285,1387.5,2109.2285,1395,2101.7285" style="stroke:#456A7D;stroke-width:1.875;"/><line style="stroke:#456A7D;stroke-width:2.625;" x1="751.875" x2="1398.75" y1="2101.7285" y2="2101.7285"/><text fill="#29485B" font-family="sans-serif" font-size="30" font-weight="bold" lengthAdjust="spacing" textLength="33.75" x="772.5" y="2083.8867">19</text><text fill="#29485B" font-family="sans-serif" font-size="30" lengthAdjust="spacing" textLength="273.75" x="828.75" y="2083.8867">confirmerR&#233;ception()</text><polygon fill="#456A7D" points="1843.125,2173.2129,1861.875,2180.7129,1843.125,2188.2129,1850.625,2180.7129" style="stroke:#456A7D;stroke-width:1.875;"/><line style="stroke:#456A7D;stroke-width:2.625;" x1="1410" x2="1854.375" y1="2180.7129" y2="2180.7129"/><text fill="#29485B" font-family="sans-serif" font-size="30" font-weight="bold" lengthAdjust="spacing" textLength="33.75" x="1430.625" y="2162.8711">20</text><text fill="#29485B" font-family="sans-serif" font-size="30" lengthAdjust="spacing" textLength="283.125" x="1486.875" y="2162.8711">commande confirm&#233;e</text><polygon fill="#456A7D" points="1843.125,2265.3223,1861.875,2272.8223,1843.125,2280.3223,1850.625,2272.8223" style="stroke:#456A7D;stroke-width:1.875;"/><line style="stroke:#456A7D;stroke-width:2.625;" x1="1410" x2="1854.375" y1="2272.8223" y2="2272.8223"/><text fill="#29485B" font-family="sans-serif" font-size="30" font-weight="bold" lengthAdjust="spacing" textLength="33.75" x="1430.625" y="2254.9805">21</text><text fill="#29485B" font-family="sans-serif" font-size="30" lengthAdjust="spacing" textLength="260.625" x="1486.875" y="2254.9805">cr&#233;e les versements</text><polygon fill="#456A7D" points="315,2344.3066,296.25,2351.8066,315,2359.3066,307.5,2351.8066" style="stroke:#456A7D;stroke-width:1.875;"/><line style="stroke:#456A7D;stroke-width:2.625;stroke-dasharray:2.0,2.0;" x1="303.75" x2="1408.125" y1="2351.8066" y2="2351.8066"/><text fill="#29485B" font-family="sans-serif" font-size="30" font-weight="bold" lengthAdjust="spacing" textLength="33.75" x="333.75" y="2333.9648">22</text><text fill="#29485B" font-family="sans-serif" font-size="30" lengthAdjust="spacing" textLength="296.25" x="390" y="2333.9648">confirme la commande</text><!--SRC=[ZPVDSk964CVlUeefvs1lbUCo80pE8LNYGxkkSXnYrdiVf0QcBCrePmPizfI7o0FaIkKHSblU94-IRY7O4GZPBfk3-jVT_-vfCUrpDhQh15YaqdGXsNz__iLYmMUQfoaODanWsLTIGcIzSpR-yf7zmgPAfzoo9JvJMa3295Ys-PjPjR30B1T90bTiz40il6PAMpRdP8etwwcGmWebhpppB6J6CGsRyEXvfjL2ndsLACr-2lCVXuWpmHhTQ-U9cVDOlGWvOrEU670iUQ18QGcQDPgE8H6eSvK1Gq5pvKQ7ALyaDbJIFl0Ks9XBCmOjfjNCM7m3rhXnZ9-5JQ3MVK_apircbQaelj5fDVs10mHQgvV2wBTlWiwHqV5ktlhTTkyG-3mNqRC4OrZZodUC3yf2hwBxtM7ta58w1bqGmtOmzDi7X2EYtVExZQ5Z7s4EFYi7kGrwdQ1J0HtfySCWl3a6tPw5cB9LZModUwAIsErAPCLIsDLnikkm6xQgI5TxC-mCobqkgDfpB9Y1uAcISLNVMuDkZOEhOD2zRJV3oefEYkmdt9ZUco_R5gijDqS-0KVaADxG3rl3u12kQynGsigZE1HMSBNAjanTjh7b5KC_78ITi764rURAaRfKJmOYRYgI1JZJtGhGJTSQTlpRwsEejZRukW0PmRsOufyyUE7wFR_VgAFVF86TnuXhAoAHSMdVBgxAgRRGdKD0zylxHMtn-XChq8yOC3kEt0bxuU0aNjjBgM8ma9M_sZMNp_b3l-95_OthcP2iSLrX6_4ufhkjM_fAsxTlPswwlZtrMkssVUOV3kuFsCFBMSb5EW7jSMeYlh82f6NSiA3_oPjGZxXUiRCxQK5FUGJi1IPdP7-wyo8SIAqITkRi2haj68syc5i-mQbbPptwZF4NYSqQJ8uCUaN6K2sq5CR0GjFpyFUdny9oBvQwU7f_zyNpBDsNh8_R2fSO3bSFlLb7aD5MmJnFubN4r18lVvBEsFT_TjLy_vSM42Dc4l9LXM5y2YoaYRImo5wiQ0lAj43jSOgRYh6Q4_FXalQRv1nUYqG8nmkMQONmPeqhZyvhIywvb0ed1kFWfwP2hpoGCIDPdeUIsC-_OjDmCuhcIXXX7Hyi1IlJW4bH3aA8OW-9nH9fzhOrNnGEb-phWjFttMPzoL8Sm0yUuUWrwA7JShF69KG01JLMHS-K0AI66TK5MtQdXa-d8fhdBDur5iDInHbVuKoKP6US8l9yNIGnPPrAJeLEGO-GIh7f5sL9EoSAZ1NjR7JQQCKURVKwqRtSjbSPKVzFvr_oHCHEeqvapp7Ax_44Uuu3neN1wTaU2U3X5cuuS5Go7hCoUTOzYmmPzrtHTCX08V2rtXubpIrYLVqv3EKss4HulFb1_F683l6f6FfnF_ONKNxuUzdbQWi7gXTmLTuD66xvchRwSdPNuO_twXqItfLUnbxvH6YkiLI3_qneaq-CsSyboIeBsiNy7m00]--></g></svg>