<?xml version="1.0" encoding="us-ascii" standalone="no"?><svg xmlns="http://www.w3.org/2000/svg" xmlns:xlink="http://www.w3.org/1999/xlink" contentStyleType="text/css" height="2070px" preserveAspectRatio="none" style="width:2238px;height:2070px;background:#FFFFFF;" version="1.1" viewBox="0 0 2238 2070" width="2238.75px" zoomAndPan="magnify"><defs/><g><text fill="#17324D" font-family="sans-serif" font-size="41.25" font-weight="bold" lengthAdjust="spacing" textLength="673.125" x="786.0938" y="78.446">Paiement, s&#233;questre et versements</text><rect fill="#F4FAF6" height="397.0313" rx="11.25" ry="11.25" style="stroke:#9CB4C1;stroke-width:2.8125;" width="1380.9375" x="847.5" y="1467.5098"/><line style="stroke:#9CB4C1;stroke-width:0.9375;stroke-dasharray:5.0,5.0;" x1="60" x2="60" y1="280.8691" y2="1896.416"/><line style="stroke:#9CB4C1;stroke-width:0.9375;stroke-dasharray:5.0,5.0;" x1="431.25" x2="431.25" y1="280.8691" y2="1896.416"/><line style="stroke:#9CB4C1;stroke-width:0.9375;stroke-dasharray:5.0,5.0;" x1="993.75" x2="993.75" y1="280.8691" y2="1896.416"/><line style="stroke:#9CB4C1;stroke-width:0.9375;stroke-dasharray:5.0,5.0;" x1="1388.4375" x2="1388.4375" y1="280.8691" y2="1896.416"/><line style="stroke:#9CB4C1;stroke-width:0.9375;stroke-dasharray:5.0,5.0;" x1="1748.4375" x2="1748.4375" y1="280.8691" y2="1896.416"/><line style="stroke:#9CB4C1;stroke-width:0.9375;stroke-dasharray:5.0,5.0;" x1="1986.5625" x2="1986.5625" y1="280.8691" y2="1896.416"/><line style="stroke:#9CB4C1;stroke-width:0.9375;stroke-dasharray:5.0,5.0;" x1="2151.5625" x2="2151.5625" y1="280.8691" y2="1896.416"/><text fill="#000000" font-family="sans-serif" font-size="30" lengthAdjust="spacing" textLength="75" x="16.875" y="266.7773">Client</text><ellipse cx="60" cy="131.5723" fill="#FFFFFF" rx="15" ry="15" style="stroke:#2F7D5B;stroke-width:0.9375;"/><path d="M60,146.5723 L60,197.1973 M35.625,161.5723 L84.375,161.5723 M60,197.1973 L35.625,225.3223 M60,197.1973 L84.375,225.3223 " fill="none" style="stroke:#2F7D5B;stroke-width:0.9375;"/><text fill="#000000" font-family="sans-serif" font-size="30" lengthAdjust="spacing" textLength="75" x="16.875" y="1933.1836">Client</text><ellipse cx="60" cy="1963.2129" fill="#FFFFFF" rx="15" ry="15" style="stroke:#2F7D5B;stroke-width:0.9375;"/><path d="M60,1978.2129 L60,2028.8379 M35.625,1993.2129 L84.375,1993.2129 M60,2028.8379 L35.625,2056.9629 M60,2028.8379 L84.375,2056.9629 " fill="none" style="stroke:#2F7D5B;stroke-width:0.9375;"/><text fill="#000000" font-family="sans-serif" font-size="30" lengthAdjust="spacing" textLength="172.5" x="339.375" y="266.7773">Interface web</text><path d="M392.8125,175.6348 L392.8125,220.6348 M392.8125,198.1348 L424.6875,198.1348 " fill="none" style="stroke:#181818;stroke-width:0.9375;"/><ellipse cx="447.1875" cy="198.1348" fill="#E2E2F0" rx="22.5" ry="22.5" style="stroke:#181818;stroke-width:0.9375;"/><text fill="#000000" font-family="sans-serif" font-size="30" lengthAdjust="spacing" textLength="172.5" x="339.375" y="1933.1836">Interface web</text><path d="M392.8125,1954.7754 L392.8125,1999.7754 M392.8125,1977.2754 L424.6875,1977.2754 " fill="none" style="stroke:#181818;stroke-width:0.9375;"/><ellipse cx="447.1875" cy="1977.2754" fill="#E2E2F0" rx="22.5" ry="22.5" style="stroke:#181818;stroke-width:0.9375;"/><text fill="#000000" font-family="sans-serif" font-size="30" lengthAdjust="spacing" textLength="228.75" x="873.75" y="266.7773">Service paiement</text><ellipse cx="993.75" cy="198.1348" fill="#E2E2F0" rx="22.5" ry="22.5" style="stroke:#181818;stroke-width:0.9375;"/><polygon fill="#181818" points="986.25,175.6348,997.5,166.2598,993.75,175.6348,997.5,185.0098,986.25,175.6348" style="stroke:#181818;stroke-width:1.875;"/><text fill="#000000" font-family="sans-serif" font-size="30" lengthAdjust="spacing" textLength="228.75" x="873.75" y="1933.1836">Service paiement</text><ellipse cx="993.75" cy="1977.2754" fill="#E2E2F0" rx="22.5" ry="22.5" style="stroke:#181818;stroke-width:0.9375;"/><polygon fill="#181818" points="986.25,1954.7754,997.5,1945.4004,993.75,1954.7754,997.5,1964.1504,986.25,1954.7754" style="stroke:#181818;stroke-width:1.875;"/><rect fill="#EAF4F8" height="78.9844" rx="11.25" ry="11.25" style="stroke:#3E7490;stroke-width:0.9375;" width="350.625" x="1214.0625" y="200.0098"/><text fill="#000000" font-family="sans-serif" font-size="30" lengthAdjust="spacing" textLength="309.375" x="1234.6875" y="251.7773">Passerelle de paiement</text><rect fill="#EAF4F8" height="78.9844" rx="11.25" ry="11.25" style="stroke:#3E7490;stroke-width:0.9375;" width="350.625" x="1214.0625" y="1894.541"/><text fill="#000000" font-family="sans-serif" font-size="30" lengthAdjust="spacing" textLength="309.375" x="1234.6875" y="1946.3086">Passerelle de paiement</text><text fill="#000000" font-family="sans-serif" font-size="30" lengthAdjust="spacing" textLength="230.625" x="1628.4375" y="266.7773">Base de donn&#233;es</text><path d="M1715.625,160.6348 C1715.625,141.8848 1749.375,141.8848 1749.375,141.8848 C1749.375,141.8848 1783.125,141.8848 1783.125,160.6348 L1783.125,209.3848 C1783.125,228.1348 1749.375,228.1348 1749.375,228.1348 C1749.375,228.1348 1715.625,228.1348 1715.625,209.3848 L1715.625,160.6348 " fill="#E2E2F0" style="stroke:#181818;stroke-width:2.8125;"/><path d="M1715.625,160.6348 C1715.625,179.3848 1749.375,179.3848 1749.375,179.3848 C1749.375,179.3848 1783.125,179.3848 1783.125,160.6348 " fill="none" style="stroke:#181818;stroke-width:2.8125;"/><text fill="#000000" font-family="sans-serif" font-size="30" lengthAdjust="spacing" textLength="230.625" x="1628.4375" y="1933.1836">Base de donn&#233;es</text><path d="M1715.625,1966.0254 C1715.625,1947.2754 1749.375,1947.2754 1749.375,1947.2754 C1749.375,1947.2754 1783.125,1947.2754 1783.125,1966.0254 L1783.125,2014.7754 C1783.125,2033.5254 1749.375,2033.5254 1749.375,2033.5254 C1749.375,2033.5254 1715.625,2033.5254 1715.625,2014.7754 L1715.625,1966.0254 " fill="#E2E2F0" style="stroke:#181818;stroke-width:2.8125;"/><path d="M1715.625,1966.0254 C1715.625,1984.7754 1749.375,1984.7754 1749.375,1984.7754 C1749.375,1984.7754 1783.125,1984.7754 1783.125,1966.0254 " fill="none" style="stroke:#181818;stroke-width:2.8125;"/><text fill="#000000" font-family="sans-serif" font-size="30" lengthAdjust="spacing" textLength="153.75" x="1904.0625" y="266.7773">Fournisseur</text><ellipse cx="1986.5625" cy="131.5723" fill="#FFFFFF" rx="15" ry="15" style="stroke:#2F7D5B;stroke-width:0.9375;"/><path d="M1986.5625,146.5723 L1986.5625,197.1973 M1962.1875,161.5723 L2010.9375,161.5723 M1986.5625,197.1973 L1962.1875,225.3223 M1986.5625,197.1973 L2010.9375,225.3223 " fill="none" style="stroke:#2F7D5B;stroke-width:0.9375;"/><text fill="#000000" font-family="sans-serif" font-size="30" lengthAdjust="spacing" textLength="153.75" x="1904.0625" y="1933.1836">Fournisseur</text><ellipse cx="1986.5625" cy="1963.2129" fill="#FFFFFF" rx="15" ry="15" style="stroke:#2F7D5B;stroke-width:0.9375;"/><path d="M1986.5625,1978.2129 L1986.5625,2028.8379 M1962.1875,1993.2129 L2010.9375,1993.2129 M1986.5625,2028.8379 L1962.1875,2056.9629 M1986.5625,2028.8379 L2010.9375,2056.9629 " fill="none" style="stroke:#2F7D5B;stroke-width:0.9375;"/><text fill="#000000" font-family="sans-serif" font-size="30" lengthAdjust="spacing" textLength="88.125" x="2102.8125" y="266.7773">Livreur</text><ellipse cx="2152.5" cy="131.5723" fill="#FFFFFF" rx="15" ry="15" style="stroke:#2F7D5B;stroke-width:0.9375;"/><path d="M2152.5,146.5723 L2152.5,197.1973 M2128.125,161.5723 L2176.875,161.5723 M2152.5,197.1973 L2128.125,225.3223 M2152.5,197.1973 L2176.875,225.3223 " fill="none" style="stroke:#2F7D5B;stroke-width:0.9375;"/><text fill="#000000" font-family="sans-serif" font-size="30" lengthAdjust="spacing" textLength="88.125" x="2102.8125" y="1933.1836">Livreur</text><ellipse cx="2152.5" cy="1963.2129" fill="#FFFFFF" rx="15" ry="15" style="stroke:#2F7D5B;stroke-width:0.9375;"/><path d="M2152.5,1978.2129 L2152.5,2028.8379 M2128.125,1993.2129 L2176.875,1993.2129 M2152.5,2028.8379 L2128.125,2056.9629 M2152.5,2028.8379 L2176.875,2056.9629 " fill="none" style="stroke:#2F7D5B;stroke-width:0.9375;"/><polygon fill="#456A7D" points="408.75,356.1035,427.5,363.6035,408.75,371.1035,416.25,363.6035" style="stroke:#456A7D;stroke-width:1.875;"/><line style="stroke:#456A7D;stroke-width:2.625;" x1="60" x2="420" y1="363.6035" y2="363.6035"/><text fill="#29485B" font-family="sans-serif" font-size="30" font-weight="bold" lengthAdjust="spacing" textLength="16.875" x="80.625" y="345.7617">1</text><text fill="#29485B" font-family="sans-serif" font-size="30" lengthAdjust="spacing" textLength="271.875" x="120" y="345.7617">confirme le paiement</text><polygon fill="#456A7D" points="971.25,435.0879,990,442.5879,971.25,450.0879,978.75,442.5879" style="stroke:#456A7D;stroke-width:1.875;"/><line style="stroke:#456A7D;stroke-width:2.625;" x1="431.25" x2="982.5" y1="442.5879" y2="442.5879"/><text fill="#29485B" font-family="sans-serif" font-size="30" font-weight="bold" lengthAdjust="spacing" textLength="16.875" x="451.875" y="424.7461">2</text><text fill="#29485B" font-family="sans-serif" font-size="30" lengthAdjust="spacing" textLength="463.125" x="491.25" y="424.7461">initierPaiement(commande, moyen)</text><polygon fill="#456A7D" points="1366.875,514.0723,1385.625,521.5723,1366.875,529.0723,1374.375,521.5723" style="stroke:#456A7D;stroke-width:1.875;"/><line style="stroke:#456A7D;stroke-width:2.625;" x1="993.75" x2="1378.125" y1="521.5723" y2="521.5723"/><text fill="#29485B" font-family="sans-serif" font-size="30" font-weight="bold" lengthAdjust="spacing" textLength="16.875" x="1014.375" y="503.7305">3</text><text fill="#29485B" font-family="sans-serif" font-size="30" lengthAdjust="spacing" textLength="183.75" x="1053.75" y="503.7305">d&#233;biter le total</text><polygon fill="#456A7D" points="1014.375,593.0566,995.625,600.5566,1014.375,608.0566,1006.875,600.5566" style="stroke:#456A7D;stroke-width:1.875;"/><line style="stroke:#456A7D;stroke-width:2.625;stroke-dasharray:2.0,2.0;" x1="1003.125" x2="1387.5" y1="600.5566" y2="600.5566"/><text fill="#29485B" font-family="sans-serif" font-size="30" font-weight="bold" lengthAdjust="spacing" textLength="16.875" x="1033.125" y="582.7148">4</text><text fill="#29485B" font-family="sans-serif" font-size="30" lengthAdjust="spacing" textLength="234.375" x="1072.5" y="582.7148">paiement accept&#233;</text><polygon fill="#456A7D" points="1726.875,672.041,1745.625,679.541,1726.875,687.041,1734.375,679.541" style="stroke:#456A7D;stroke-width:1.875;"/><line style="stroke:#456A7D;stroke-width:2.625;" x1="993.75" x2="1738.125" y1="679.541" y2="679.541"/><text fill="#29485B" font-family="sans-serif" font-size="30" font-weight="bold" lengthAdjust="spacing" textLength="16.875" x="1014.375" y="661.6992">5</text><text fill="#29485B" font-family="sans-serif" font-size="30" lengthAdjust="spacing" textLength="427.5" x="1053.75" y="661.6992">enregistre le paiement s&#233;questr&#233;</text><polygon fill="#456A7D" points="1964.0625,751.0254,1982.8125,758.5254,1964.0625,766.0254,1971.5625,758.5254" style="stroke:#456A7D;stroke-width:1.875;"/><line style="stroke:#456A7D;stroke-width:2.625;" x1="993.75" x2="1975.3125" y1="758.5254" y2="758.5254"/><text fill="#29485B" font-family="sans-serif" font-size="30" font-weight="bold" lengthAdjust="spacing" textLength="16.875" x="1014.375" y="740.6836">6</text><text fill="#29485B" font-family="sans-serif" font-size="30" lengthAdjust="spacing" textLength="301.875" x="1053.75" y="740.6836">notifie le paiement re&#231;u</text><path d="M9.375,794.1504 L9.375,880.4004 A11.25,11.25 0 0 0 20.625,891.6504 L2188.125,891.6504 A11.25,11.25 0 0 0 2199.375,880.4004 L2199.375,801.6504 L2180.625,782.9004 L20.625,782.9004 A11.25,11.25 0 0 0 9.375,794.1504 " fill="#FFF8E8" style="stroke:#E5AE45;stroke-width:0.9375;"/><path d="M2180.625,782.9004 L2180.625,796.0254 A5.625,5.625 0 0 0 2186.25,801.6504 L2199.375,801.6504 L2180.625,782.9004 " fill="#FFF8E8" style="stroke:#E5AE45;stroke-width:0.9375;"/><text fill="#5B481E" font-family="sans-serif" font-size="30" lengthAdjust="spacing" textLength="579.375" x="806.7188" y="830.918">Le versement intervient apr&#232;s la confirmation</text><text fill="#5B481E" font-family="sans-serif" font-size="30" lengthAdjust="spacing" textLength="425.625" x="806.7188" y="868.6523">de la r&#233;ception de la commande.</text><polygon fill="#456A7D" points="408.75,957.9785,427.5,965.4785,408.75,972.9785,416.25,965.4785" style="stroke:#456A7D;stroke-width:1.875;"/><line style="stroke:#456A7D;stroke-width:2.625;" x1="60" x2="420" y1="965.4785" y2="965.4785"/><text fill="#29485B" font-family="sans-serif" font-size="30" font-weight="bold" lengthAdjust="spacing" textLength="16.875" x="80.625" y="947.6367">7</text><text fill="#29485B" font-family="sans-serif" font-size="30" lengthAdjust="spacing" textLength="271.875" x="120" y="947.6367">confirme la r&#233;ception</text><polygon fill="#456A7D" points="971.25,1036.9629,990,1044.4629,971.25,1051.9629,978.75,1044.4629" style="stroke:#456A7D;stroke-width:1.875;"/><line style="stroke:#456A7D;stroke-width:2.625;" x1="431.25" x2="982.5" y1="1044.4629" y2="1044.4629"/><text fill="#29485B" font-family="sans-serif" font-size="30" font-weight="bold" lengthAdjust="spacing" textLength="16.875" x="451.875" y="1026.6211">8</text><text fill="#29485B" font-family="sans-serif" font-size="30" lengthAdjust="spacing" textLength="183.75" x="491.25" y="1026.6211">lib&#233;rerFonds()</text><polygon fill="#456A7D" points="1726.875,1115.9473,1745.625,1123.4473,1726.875,1130.9473,1734.375,1123.4473" style="stroke:#456A7D;stroke-width:1.875;"/><line style="stroke:#456A7D;stroke-width:2.625;" x1="993.75" x2="1738.125" y1="1123.4473" y2="1123.4473"/><text fill="#29485B" font-family="sans-serif" font-size="30" font-weight="bold" lengthAdjust="spacing" textLength="16.875" x="1014.375" y="1105.6055">9</text><text fill="#29485B" font-family="sans-serif" font-size="30" lengthAdjust="spacing" textLength="296.25" x="1053.75" y="1105.6055">confirme la commande</text><polygon fill="#456A7D" points="1366.875,1194.9316,1385.625,1202.4316,1366.875,1209.9316,1374.375,1202.4316" style="stroke:#456A7D;stroke-width:1.875;"/><line style="stroke:#456A7D;stroke-width:2.625;" x1="993.75" x2="1378.125" y1="1202.4316" y2="1202.4316"/><text fill="#29485B" font-family="sans-serif" font-size="30" font-weight="bold" lengthAdjust="spacing" textLength="33.75" x="1014.375" y="1184.5898">10</text><text fill="#29485B" font-family="sans-serif" font-size="30" lengthAdjust="spacing" textLength="279.375" x="1070.625" y="1184.5898">cr&#233;diter le fournisseur</text><polygon fill="#456A7D" points="1014.375,1273.916,995.625,1281.416,1014.375,1288.916,1006.875,1281.416" style="stroke:#456A7D;stroke-width:1.875;"/><line style="stroke:#456A7D;stroke-width:2.625;stroke-dasharray:2.0,2.0;" x1="1003.125" x2="1387.5" y1="1281.416" y2="1281.416"/><text fill="#29485B" font-family="sans-serif" font-size="30" font-weight="bold" lengthAdjust="spacing" textLength="33.75" x="1033.125" y="1263.5742">11</text><text fill="#29485B" font-family="sans-serif" font-size="30" lengthAdjust="spacing" textLength="221.25" x="1089.375" y="1263.5742">versement r&#233;ussi</text><polygon fill="#456A7D" points="1726.875,1352.9004,1745.625,1360.4004,1726.875,1367.9004,1734.375,1360.4004" style="stroke:#456A7D;stroke-width:1.875;"/><line style="stroke:#456A7D;stroke-width:2.625;" x1="993.75" x2="1738.125" y1="1360.4004" y2="1360.4004"/><text fill="#29485B" font-family="sans-serif" font-size="30" font-weight="bold" lengthAdjust="spacing" textLength="33.75" x="1014.375" y="1342.5586">12</text><text fill="#29485B" font-family="sans-serif" font-size="30" lengthAdjust="spacing" textLength="453.75" x="1070.625" y="1342.5586">enregistre le versement fournisseur</text><polygon fill="#456A7D" points="1964.0625,1431.8848,1982.8125,1439.3848,1964.0625,1446.8848,1971.5625,1439.3848" style="stroke:#456A7D;stroke-width:1.875;"/><line style="stroke:#456A7D;stroke-width:2.625;" x1="993.75" x2="1975.3125" y1="1439.3848" y2="1439.3848"/><text fill="#29485B" font-family="sans-serif" font-size="30" font-weight="bold" lengthAdjust="spacing" textLength="33.75" x="1014.375" y="1421.543">13</text><text fill="#29485B" font-family="sans-serif" font-size="30" lengthAdjust="spacing" textLength="251.25" x="1070.625" y="1421.543">notifie le versement</text><path d="M858.75,1467.5098 L993.75,1467.5098 L993.75,1505.2441 L975,1523.9941 L847.5,1523.9941 L847.5,1478.7598 A11.25,11.25 0 0 1 858.75,1467.5098 " fill="#F7FBFD" style="stroke:#9CB4C1;stroke-width:2.8125;"/><rect fill="none" height="397.0313" rx="11.25" ry="11.25" style="stroke:#9CB4C1;stroke-width:2.8125;" width="1380.9375" x="847.5" y="1467.5098"/><text fill="#000000" font-family="sans-serif" font-size="30" font-weight="bold" lengthAdjust="spacing" textLength="46.875" x="883.125" y="1508.0273">opt</text><text fill="#000000" font-family="sans-serif" font-size="30" font-weight="bold" lengthAdjust="spacing" textLength="416.25" x="1029.375" y="1509.9023">[une livraison a &#233;t&#233; effectu&#233;e]</text><polygon fill="#456A7D" points="1366.875,1605.0879,1385.625,1612.5879,1366.875,1620.0879,1374.375,1612.5879" style="stroke:#456A7D;stroke-width:1.875;"/><line style="stroke:#456A7D;stroke-width:2.625;" x1="993.75" x2="1378.125" y1="1612.5879" y2="1612.5879"/><text fill="#29485B" font-family="sans-serif" font-size="30" font-weight="bold" lengthAdjust="spacing" textLength="33.75" x="1014.375" y="1594.7461">14</text><text fill="#29485B" font-family="sans-serif" font-size="30" lengthAdjust="spacing" textLength="213.75" x="1070.625" y="1594.7461">cr&#233;diter le livreur</text><polygon fill="#456A7D" points="1014.375,1684.0723,995.625,1691.5723,1014.375,1699.0723,1006.875,1691.5723" style="stroke:#456A7D;stroke-width:1.875;"/><line style="stroke:#456A7D;stroke-width:2.625;stroke-dasharray:2.0,2.0;" x1="1003.125" x2="1387.5" y1="1691.5723" y2="1691.5723"/><text fill="#29485B" font-family="sans-serif" font-size="30" font-weight="bold" lengthAdjust="spacing" textLength="33.75" x="1033.125" y="1673.7305">15</text><text fill="#29485B" font-family="sans-serif" font-size="30" lengthAdjust="spacing" textLength="221.25" x="1089.375" y="1673.7305">versement r&#233;ussi</text><polygon fill="#456A7D" points="1726.875,1763.0566,1745.625,1770.5566,1726.875,1778.0566,1734.375,1770.5566" style="stroke:#456A7D;stroke-width:1.875;"/><line style="stroke:#456A7D;stroke-width:2.625;" x1="993.75" x2="1738.125" y1="1770.5566" y2="1770.5566"/><text fill="#29485B" font-family="sans-serif" font-size="30" font-weight="bold" lengthAdjust="spacing" textLength="33.75" x="1014.375" y="1752.7148">16</text><text fill="#29485B" font-family="sans-serif" font-size="30" lengthAdjust="spacing" textLength="388.125" x="1070.625" y="1752.7148">enregistre le versement livreur</text><polygon fill="#456A7D" points="2130,1842.041,2148.75,1849.541,2130,1857.041,2137.5,1849.541" style="stroke:#456A7D;stroke-width:1.875;"/><line style="stroke:#456A7D;stroke-width:2.625;" x1="993.75" x2="2141.25" y1="1849.541" y2="1849.541"/><text fill="#29485B" font-family="sans-serif" font-size="30" font-weight="bold" lengthAdjust="spacing" textLength="33.75" x="1014.375" y="1831.6992">17</text><text fill="#29485B" font-family="sans-serif" font-size="30" lengthAdjust="spacing" textLength="251.25" x="1070.625" y="1831.6992">notifie le versement</text><!--SRC=[ZPRDRkCs4CVlUef1UjXT81l4jXmxFHIGR2aR84sDEbcWHreQEKHaKYKfPxEdFaGVeBVMp-4twPDqACinRSjA0pW7pc- -_gJ8-G1JyveZ97AnA0Ny-yUVa78sLsonG0rHZikH508Juts0wTSR-14ogHRCm9BMfEAOWq03wx_0oD8W6CRp72zWSczP_5P8PU29MLEwNcLSSCEbkF3qCnS5epGmOydpNCbIf2EPImK_nDMVGwG5XyxmqbdHJooLBrpC8MEvHiTI1Kga4gYWqtKCEQSwNmi4AkX9kj4nOsLkOYdCFLiWJ9dGKrGyQsQc_3j2vyenFd2JOwlx6r4vTxjDfhhvpg3NzSSE42WbNsgZtxyA1aT6nxjxxG_xuI7myCIJPu5QG-V2Tuptqc3OeFum6XvIKgMeQYBg1v7VFo2S8lgXF-n4Zdr2ETXyFyXr40w2GGDqL8yV1_7LCUXg5bFANZEoETqpcQUkAedXIsvUZvDTniEurqIwjNVZmNXVvPfgtSUQ6NEsa29jqhqt7hOuk1MCXzVzRjpOqSaYHpdJEdptOzjWhUrMo1TaX1p5Y_ou5mM7S9imaJ2DMt5OMCsrLhPXsh9D3MiuzD4u7iIT8wmrLuMqfNhKc33Ta2oWCpri0DrqlMZWNryUGwszuUybYWJlU4O_SV31ZK9_r6cZtzs1hSU4ASCJNZ1Xtc-koQcrqQr3OD-N_r_K1c_ViHgzeO35SUH17CRZatYhbaAcgB7OlzeL4y_Lej_meVxCr9mBw5mss2OiJUtRDjoxqjxasvgxhcyelpMxRTRymuExWprwdAKe5pDK7hCYqYVBKHXW6eBH5szcDMBg5SvkXK6LiGJX1MTdrlvuwoLq89NCuOmUlIKdMy4uBiY_0YR1RrwnAntE9dGRe4AQ4UXHtMTlWeV8IvbXCphdS1RQ_yIaD7-iLwWhPXpMDSQoL89Jh5BPzVYNnrzhonrVgdhrxlQhvndxmf8GcqpdeDShsbTj50BQCKRfog31ywXT-FmJTKMZ2_MLSKKFUhuhqoCBsQaf0gfH1jKsy4SxGJ6HuZaiv2kAJvx5YBPj4KxJpuoJVZQUaORbNcNu_1PlcmHOac1XrgjjW75e9ocXSCwhgfs2TitiS2i5EGXfUCRtQONhlqlF8nEDGTIvtT_pIYM0EznfGRqPkvjLDOLQ_wCXPrj5c1tWo86sXXOfiQsMbkg5hGmN7ehKLe6dT7MTzvJD-MozKgZehalrnqzxEhZksrG7IYSKDjrAdUtEoQ7WktR9eTIQjmY-Ozs09nL_mprF5WPAGQjqB1dNf1E3zOgs5p3BQ8OkwMoJcYqjv9i3JT2x3Rp5QMrX5x2cwGISgfysyJy0]--></g></svg>