<?xml version="1.0" encoding="us-ascii" standalone="no"?><svg xmlns="http://www.w3.org/2000/svg" xmlns:xlink="http://www.w3.org/1999/xlink" contentStyleType="text/css" height="1753.125px" preserveAspectRatio="none" style="width:1841px;height:1753px;background:#FFFFFF;" version="1.1" viewBox="0 0 1841 1753" width="1841.25px" zoomAndPan="magnify"><defs/><g><text fill="#17324D" font-family="sans-serif" font-size="41.25" font-weight="bold" lengthAdjust="spacing" textLength="465" x="691.4063" y="78.446">Rendez-vous v&#233;t&#233;rinaire</text><rect fill="#F4FAF6" height="476.0156" rx="11.25" ry="11.25" style="stroke:#9CB4C1;stroke-width:2.8125;" width="1812.1875" x="18.75" y="944.6191"/><line style="stroke:#9CB4C1;stroke-width:0.9375;stroke-dasharray:5.0,5.0;" x1="99.375" x2="99.375" y1="280.8691" y2="1580.4785"/><line style="stroke:#9CB4C1;stroke-width:0.9375;stroke-dasharray:5.0,5.0;" x1="603.75" x2="603.75" y1="280.8691" y2="1580.4785"/><line style="stroke:#9CB4C1;stroke-width:0.9375;stroke-dasharray:5.0,5.0;" x1="1074.375" x2="1074.375" y1="280.8691" y2="1580.4785"/><line style="stroke:#9CB4C1;stroke-width:0.9375;stroke-dasharray:5.0,5.0;" x1="1493.4375" x2="1493.4375" y1="280.8691" y2="1580.4785"/><line style="stroke:#9CB4C1;stroke-width:0.9375;stroke-dasharray:5.0,5.0;" x1="1725.9375" x2="1725.9375" y1="280.8691" y2="1580.4785"/><text fill="#000000" font-family="sans-serif" font-size="30" lengthAdjust="spacing" textLength="97.5" x="45" y="266.7773">&#201;leveur</text><ellipse cx="99.375" cy="131.5723" fill="#FFFFFF" rx="15" ry="15" style="stroke:#2F7D5B;stroke-width:0.9375;"/><path d="M99.375,146.5723 L99.375,197.1973 M75,161.5723 L123.75,161.5723 M99.375,197.1973 L75,225.3223 M99.375,197.1973 L123.75,225.3223 " fill="none" style="stroke:#2F7D5B;stroke-width:0.9375;"/><text fill="#000000" font-family="sans-serif" font-size="30" lengthAdjust="spacing" textLength="97.5" x="45" y="1617.2461">&#201;leveur</text><ellipse cx="99.375" cy="1647.2754" fill="#FFFFFF" rx="15" ry="15" style="stroke:#2F7D5B;stroke-width:0.9375;"/><path d="M99.375,1662.2754 L99.375,1712.9004 M75,1677.2754 L123.75,1677.2754 M99.375,1712.9004 L75,1741.0254 M99.375,1712.9004 L123.75,1741.0254 " fill="none" style="stroke:#2F7D5B;stroke-width:0.9375;"/><text fill="#000000" font-family="sans-serif" font-size="30" lengthAdjust="spacing" textLength="172.5" x="511.875" y="266.7773">Interface web</text><path d="M565.3125,175.6348 L565.3125,220.6348 M565.3125,198.1348 L597.1875,198.1348 " fill="none" style="stroke:#181818;stroke-width:0.9375;"/><ellipse cx="619.6875" cy="198.1348" fill="#E2E2F0" rx="22.5" ry="22.5" style="stroke:#181818;stroke-width:0.9375;"/><text fill="#000000" font-family="sans-serif" font-size="30" lengthAdjust="spacing" textLength="172.5" x="511.875" y="1617.2461">Interface web</text><path d="M565.3125,1638.8379 L565.3125,1683.8379 M565.3125,1661.3379 L597.1875,1661.3379 " fill="none" style="stroke:#181818;stroke-width:0.9375;"/><ellipse cx="619.6875" cy="1661.3379" fill="#E2E2F0" rx="22.5" ry="22.5" style="stroke:#181818;stroke-width:0.9375;"/><text fill="#000000" font-family="sans-serif" font-size="30" lengthAdjust="spacing" textLength="165" x="986.25" y="266.7773">ElevConnect</text><ellipse cx="1074.375" cy="198.1348" fill="#E2E2F0" rx="22.5" ry="22.5" style="stroke:#181818;stroke-width:0.9375;"/><polygon fill="#181818" points="1066.875,175.6348,1078.125,166.2598,1074.375,175.6348,1078.125,185.0098,1066.875,175.6348" style="stroke:#181818;stroke-width:1.875;"/><text fill="#000000" font-family="sans-serif" font-size="30" lengthAdjust="spacing" textLength="165" x="986.25" y="1617.2461">ElevConnect</text><ellipse cx="1074.375" cy="1661.3379" fill="#E2E2F0" rx="22.5" ry="22.5" style="stroke:#181818;stroke-width:0.9375;"/><polygon fill="#181818" points="1066.875,1638.8379,1078.125,1629.4629,1074.375,1638.8379,1078.125,1648.2129,1066.875,1638.8379" style="stroke:#181818;stroke-width:1.875;"/><text fill="#000000" font-family="sans-serif" font-size="30" lengthAdjust="spacing" textLength="230.625" x="1373.4375" y="266.7773">Base de donn&#233;es</text><path d="M1460.625,160.6348 C1460.625,141.8848 1494.375,141.8848 1494.375,141.8848 C1494.375,141.8848 1528.125,141.8848 1528.125,160.6348 L1528.125,209.3848 C1528.125,228.1348 1494.375,228.1348 1494.375,228.1348 C1494.375,228.1348 1460.625,228.1348 1460.625,209.3848 L1460.625,160.6348 " fill="#E2E2F0" style="stroke:#181818;stroke-width:2.8125;"/><path d="M1460.625,160.6348 C1460.625,179.3848 1494.375,179.3848 1494.375,179.3848 C1494.375,179.3848 1528.125,179.3848 1528.125,160.6348 " fill="none" style="stroke:#181818;stroke-width:2.8125;"/><text fill="#000000" font-family="sans-serif" font-size="30" lengthAdjust="spacing" textLength="230.625" x="1373.4375" y="1617.2461">Base de donn&#233;es</text><path d="M1460.625,1650.0879 C1460.625,1631.3379 1494.375,1631.3379 1494.375,1631.3379 C1494.375,1631.3379 1528.125,1631.3379 1528.125,1650.0879 L1528.125,1698.8379 C1528.125,1717.5879 1494.375,1717.5879 1494.375,1717.5879 C1494.375,1717.5879 1460.625,1717.5879 1460.625,1698.8379 L1460.625,1650.0879 " fill="#E2E2F0" style="stroke:#181818;stroke-width:2.8125;"/><path d="M1460.625,1650.0879 C1460.625,1668.8379 1494.375,1668.8379 1494.375,1668.8379 C1494.375,1668.8379 1528.125,1668.8379 1528.125,1650.0879 " fill="none" style="stroke:#181818;stroke-width:2.8125;"/><text fill="#000000" font-family="sans-serif" font-size="30" lengthAdjust="spacing" textLength="144.375" x="1649.0625" y="266.7773">V&#233;t&#233;rinaire</text><ellipse cx="1726.875" cy="131.5723" fill="#FFFFFF" rx="15" ry="15" style="stroke:#2F7D5B;stroke-width:0.9375;"/><path d="M1726.875,146.5723 L1726.875,197.1973 M1702.5,161.5723 L1751.25,161.5723 M1726.875,197.1973 L1702.5,225.3223 M1726.875,197.1973 L1751.25,225.3223 " fill="none" style="stroke:#2F7D5B;stroke-width:0.9375;"/><text fill="#000000" font-family="sans-serif" font-size="30" lengthAdjust="spacing" textLength="144.375" x="1649.0625" y="1617.2461">V&#233;t&#233;rinaire</text><ellipse cx="1726.875" cy="1647.2754" fill="#FFFFFF" rx="15" ry="15" style="stroke:#2F7D5B;stroke-width:0.9375;"/><path d="M1726.875,1662.2754 L1726.875,1712.9004 M1702.5,1677.2754 L1751.25,1677.2754 M1726.875,1712.9004 L1702.5,1741.0254 M1726.875,1712.9004 L1751.25,1741.0254 " fill="none" style="stroke:#2F7D5B;stroke-width:0.9375;"/><polygon fill="#456A7D" points="581.25,356.1035,600,363.6035,581.25,371.1035,588.75,363.6035" style="stroke:#456A7D;stroke-width:1.875;"/><line style="stroke:#456A7D;stroke-width:2.625;" x1="99.375" x2="592.5" y1="363.6035" y2="363.6035"/><text fill="#29485B" font-family="sans-serif" font-size="30" font-weight="bold" lengthAdjust="spacing" textLength="16.875" x="120" y="345.7617">1</text><text fill="#29485B" font-family="sans-serif" font-size="30" lengthAdjust="spacing" textLength="405" x="159.375" y="345.7617">choisit un service et un cr&#233;neau</text><polygon fill="#456A7D" points="1051.875,435.0879,1070.625,442.5879,1051.875,450.0879,1059.375,442.5879" style="stroke:#456A7D;stroke-width:1.875;"/><line style="stroke:#456A7D;stroke-width:2.625;" x1="603.75" x2="1063.125" y1="442.5879" y2="442.5879"/><text fill="#29485B" font-family="sans-serif" font-size="30" font-weight="bold" lengthAdjust="spacing" textLength="16.875" x="624.375" y="424.7461">2</text><text fill="#29485B" font-family="sans-serif" font-size="30" lengthAdjust="spacing" textLength="318.75" x="663.75" y="424.7461">demanderRendezVous()</text><polygon fill="#456A7D" points="1471.875,514.0723,1490.625,521.5723,1471.875,529.0723,1479.375,521.5723" style="stroke:#456A7D;stroke-width:1.875;"/><line style="stroke:#456A7D;stroke-width:2.625;" x1="1074.375" x2="1483.125" y1="521.5723" y2="521.5723"/><text fill="#29485B" font-family="sans-serif" font-size="30" font-weight="bold" lengthAdjust="spacing" textLength="16.875" x="1095" y="503.7305">3</text><text fill="#29485B" font-family="sans-serif" font-size="30" lengthAdjust="spacing" textLength="292.5" x="1134.375" y="503.7305">enregistre la demande</text><polygon fill="#456A7D" points="1704.375,593.0566,1723.125,600.5566,1704.375,608.0566,1711.875,600.5566" style="stroke:#456A7D;stroke-width:1.875;"/><line style="stroke:#456A7D;stroke-width:2.625;" x1="1074.375" x2="1715.625" y1="600.5566" y2="600.5566"/><text fill="#29485B" font-family="sans-serif" font-size="30" font-weight="bold" lengthAdjust="spacing" textLength="16.875" x="1095" y="582.7148">4</text><text fill="#29485B" font-family="sans-serif" font-size="30" lengthAdjust="spacing" textLength="240" x="1134.375" y="582.7148">notifie la demande</text><polygon fill="#456A7D" points="624.375,672.041,605.625,679.541,624.375,687.041,616.875,679.541" style="stroke:#456A7D;stroke-width:1.875;"/><line style="stroke:#456A7D;stroke-width:2.625;" x1="613.125" x2="1725" y1="679.541" y2="679.541"/><text fill="#29485B" font-family="sans-serif" font-size="30" font-weight="bold" lengthAdjust="spacing" textLength="16.875" x="643.125" y="661.6992">5</text><text fill="#29485B" font-family="sans-serif" font-size="30" lengthAdjust="spacing" textLength="240" x="682.5" y="661.6992">confirme ou refuse</text><polygon fill="#456A7D" points="1051.875,751.0254,1070.625,758.5254,1051.875,766.0254,1059.375,758.5254" style="stroke:#456A7D;stroke-width:1.875;"/><line style="stroke:#456A7D;stroke-width:2.625;" x1="603.75" x2="1063.125" y1="758.5254" y2="758.5254"/><text fill="#29485B" font-family="sans-serif" font-size="30" font-weight="bold" lengthAdjust="spacing" textLength="16.875" x="624.375" y="740.6836">6</text><text fill="#29485B" font-family="sans-serif" font-size="30" lengthAdjust="spacing" textLength="371.25" x="663.75" y="740.6836">traiterRendezVous(d&#233;cision)</text><polygon fill="#456A7D" points="1471.875,830.0098,1490.625,837.5098,1471.875,845.0098,1479.375,837.5098" style="stroke:#456A7D;stroke-width:1.875;"/><line style="stroke:#456A7D;stroke-width:2.625;" x1="1074.375" x2="1483.125" y1="837.5098" y2="837.5098"/><text fill="#29485B" font-family="sans-serif" font-size="30" font-weight="bold" lengthAdjust="spacing" textLength="16.875" x="1095" y="819.668">7</text><text fill="#29485B" font-family="sans-serif" font-size="30" lengthAdjust="spacing" textLength="234.375" x="1134.375" y="819.668">met &#224; jour le statut</text><polygon fill="#456A7D" points="120,908.9941,101.25,916.4941,120,923.9941,112.5,916.4941" style="stroke:#456A7D;stroke-width:1.875;"/><line style="stroke:#456A7D;stroke-width:2.625;" x1="108.75" x2="1072.5" y1="916.4941" y2="916.4941"/><text fill="#29485B" font-family="sans-serif" font-size="30" font-weight="bold" lengthAdjust="spacing" textLength="16.875" x="138.75" y="898.6523">8</text><text fill="#29485B" font-family="sans-serif" font-size="30" lengthAdjust="spacing" textLength="226.875" x="178.125" y="898.6523">notifie la d&#233;cision</text><path d="M30,944.6191 L165,944.6191 L165,982.3535 L146.25,1001.1035 L18.75,1001.1035 L18.75,955.8691 A11.25,11.25 0 0 1 30,944.6191 " fill="#F7FBFD" style="stroke:#9CB4C1;stroke-width:2.8125;"/><rect fill="none" height="476.0156" rx="11.25" ry="11.25" style="stroke:#9CB4C1;stroke-width:2.8125;" width="1812.1875" x="18.75" y="944.6191"/><text fill="#000000" font-family="sans-serif" font-size="30" font-weight="bold" lengthAdjust="spacing" textLength="46.875" x="54.375" y="985.1367">opt</text><text fill="#000000" font-family="sans-serif" font-size="30" font-weight="bold" lengthAdjust="spacing" textLength="331.875" x="200.625" y="987.0117">[rendez-vous confirm&#233;]</text><polygon fill="#456A7D" points="624.375,1082.1973,605.625,1089.6973,624.375,1097.1973,616.875,1089.6973" style="stroke:#456A7D;stroke-width:1.875;"/><line style="stroke:#456A7D;stroke-width:2.625;" x1="613.125" x2="1725" y1="1089.6973" y2="1089.6973"/><text fill="#29485B" font-family="sans-serif" font-size="30" font-weight="bold" lengthAdjust="spacing" textLength="16.875" x="643.125" y="1071.8555">9</text><text fill="#29485B" font-family="sans-serif" font-size="30" lengthAdjust="spacing" textLength="281.25" x="682.5" y="1071.8555">cl&#244;ture le rendez-vous</text><polygon fill="#456A7D" points="1051.875,1161.1816,1070.625,1168.6816,1051.875,1176.1816,1059.375,1168.6816" style="stroke:#456A7D;stroke-width:1.875;"/><line style="stroke:#456A7D;stroke-width:2.625;" x1="603.75" x2="1063.125" y1="1168.6816" y2="1168.6816"/><text fill="#29485B" font-family="sans-serif" font-size="30" font-weight="bold" lengthAdjust="spacing" textLength="33.75" x="624.375" y="1150.8398">10</text><text fill="#29485B" font-family="sans-serif" font-size="30" lengthAdjust="spacing" textLength="226.875" x="680.625" y="1150.8398">marquerR&#233;alis&#233;()</text><polygon fill="#456A7D" points="1471.875,1240.166,1490.625,1247.666,1471.875,1255.166,1479.375,1247.666" style="stroke:#456A7D;stroke-width:1.875;"/><line style="stroke:#456A7D;stroke-width:2.625;" x1="1074.375" x2="1483.125" y1="1247.666" y2="1247.666"/><text fill="#29485B" font-family="sans-serif" font-size="30" font-weight="bold" lengthAdjust="spacing" textLength="33.75" x="1095" y="1229.8242">11</text><text fill="#29485B" font-family="sans-serif" font-size="30" lengthAdjust="spacing" textLength="303.75" x="1151.25" y="1229.8242">enregistre la r&#233;alisation</text><polygon fill="#456A7D" points="581.25,1319.1504,600,1326.6504,581.25,1334.1504,588.75,1326.6504" style="stroke:#456A7D;stroke-width:1.875;"/><line style="stroke:#456A7D;stroke-width:2.625;" x1="99.375" x2="592.5" y1="1326.6504" y2="1326.6504"/><text fill="#29485B" font-family="sans-serif" font-size="30" font-weight="bold" lengthAdjust="spacing" textLength="33.75" x="120" y="1308.8086">12</text><text fill="#29485B" font-family="sans-serif" font-size="30" lengthAdjust="spacing" textLength="174.375" x="176.25" y="1308.8086">laisse un avis</text><polygon fill="#456A7D" points="1051.875,1398.1348,1070.625,1405.6348,1051.875,1413.1348,1059.375,1405.6348" style="stroke:#456A7D;stroke-width:1.875;"/><line style="stroke:#456A7D;stroke-width:2.625;" x1="603.75" x2="1063.125" y1="1405.6348" y2="1405.6348"/><text fill="#29485B" font-family="sans-serif" font-size="30" font-weight="bold" lengthAdjust="spacing" textLength="33.75" x="624.375" y="1387.793">13</text><text fill="#29485B" font-family="sans-serif" font-size="30" lengthAdjust="spacing" textLength="215.625" x="680.625" y="1387.793">enregistrerAvis()</text><path d="M30,1454.3848 L30,1540.6348 A11.25,11.25 0 0 0 41.25,1551.8848 L1783.125,1551.8848 A11.25,11.25 0 0 0 1794.375,1540.6348 L1794.375,1461.8848 L1775.625,1443.1348 L41.25,1443.1348 A11.25,11.25 0 0 0 30,1454.3848 " fill="#FFF8E8" style="stroke:#E5AE45;stroke-width:0.9375;"/><path d="M1775.625,1443.1348 L1775.625,1456.2598 A5.625,5.625 0 0 0 1781.25,1461.8848 L1794.375,1461.8848 L1775.625,1443.1348 " fill="#FFF8E8" style="stroke:#E5AE45;stroke-width:0.9375;"/><text fill="#5B481E" font-family="sans-serif" font-size="30" lengthAdjust="spacing" textLength="418.125" x="695.1563" y="1491.1523">Le r&#232;glement se fait directement</text><text fill="#5B481E" font-family="sans-serif" font-size="30" lengthAdjust="spacing" textLength="391.875" x="695.1563" y="1528.8867">entre l'&#233;leveur et le v&#233;t&#233;rinaire.</text><!--SRC=[ZPR1RkCs48RlUef1UaWBT8FObcEbXmAIBMqNI0DZdSsTbaOs6ubqIShPx6cllUy3xB6-zmtq9dsIZcGveMn5gM4RCEVZp3_3aJddi31F6K8iyxmGyE_NRv1mjb8ipr53cE5sAeN0s3ZdiBX_3xz0AbNE36nfJIgE6GWqK7u78mk3O1ZFCho0-Mt5ukUDL0RMh38bvIxbWXiknOMZ7xZOC0e3InO_h9GiH3ALcLJmGrI_B2BPS1XubzQANhD4FdAnWfHb6YrBxIYMIg22mT0oP9nqFcqGID1QsjunPKLc8YdCBSiH5ape1IgUTZCB_WLXS6KPxxZ9i7VxCr5l7WwxJ4toWybewCuim5TAFZP6TtpbJqwCrkxXjUkDWsFWRitZ1u5Qm-32jOotqc3GKNqlz8ufgH9K3H6E_T0T7n6MY77WUeFGiiyf1bkrdLpxmSIVT40dUjp8ZwvEGRjc4OKSTIFxxbxABB6h4Xk-vURfDDXbv4MZBjBMFemcitQL6wht71jcnbakHT9Lzz7CwzbWAvXvr-DXr9dHgoAd6TCwUFDXssEzwTR8RyW8EV4Nkj4ez8_XliA4mdGUnR6mXkjLjcVweYqCwsZwS1PDei49rXkhHlf2VT8OCzqHpAUUzZf0EzmedBZNbwTGRsxuPu4YnXkUqaSSFN3Jm9qE-kWtJ-2mOywKuJ7VC67UJgvhKs-YXmr-TR_yVr5xlF_46lGzEToSUfv4GJHx5U-jfP09Qjoq_zeL4m_rejlneFxEr8eB65nssEOiIQgxpMlzfJsNxs0Usdi3-RbxstxDFMxS5zYXorcA8b-YSbXLH2Z_eciV2mMC9e2Rq5bMLMBg2Su-28CgPJ728oxFAlkd3qvCBQba1cVMj53R_FdSIPXXI-fRE0kgxuJUH9Gxr3Ko2vgOz-NEb3l51UCAAyjzUESufheTuIEA1B-ysyf2mxR5EGxfWtU_aWoQDkArv9eRe3b6ezfoaedrhrYLEu6iS0WZc7GHdM3EoA_QUxydvp_-v5Gc8cP1DRm8XIkk3SN9s04_42IF424DJtdBxbIMPqLIf5pHL20BK9WMDAhO4enYtBGKq8mKKmvIjANa-n7h3qc7GWNHT8A5EH1L2TfI3auSHsuC1NufNoEet3a0BQ5P-OyfgapHvecozUPCqIEXFfOxbd5TxgXW0A-NJEqvLary1Df7bJ6kgHteRDYM7uTvyQ9yib8KKkGub24LSak37NdwkMuGW1lIM_wzoZ17OUZOQI2a3aYeEM9Jhn53tvMWytBNz3LLa_9ijT955QCg8lu7]--></g></svg>