<?xml version="1.0" encoding="us-ascii" standalone="no"?><svg xmlns="http://www.w3.org/2000/svg" xmlns:xlink="http://www.w3.org/1999/xlink" contentStyleType="text/css" height="2240.625px" preserveAspectRatio="none" style="width:1089px;height:2240px;background:#FFFFFF;" version="1.1" viewBox="0 0 1089 2240" width="1089.375px" zoomAndPan="magnify"><defs/><g><text fill="#17324D" font-family="sans-serif" font-size="41.25" font-weight="bold" lengthAdjust="spacing" textLength="592.5" x="235.3125" y="69.071">Cas d'utilisation d'ElevConnect</text><!--cluster Syst?me ElevConnect--><g id="cluster_Syst&#232;me ElevConnect"><rect fill="#F4FAF6" height="1786.875" rx="11.25" ry="11.25" style="stroke:#9CB4C1;stroke-width:1.875;" width="577.5" x="500.625" y="443.7598"/><text fill="#000000" font-family="sans-serif" font-size="30" font-weight="bold" lengthAdjust="spacing" textLength="315" x="631.875" y="486.1523">Syst&#232;me ElevConnect</text></g><g id="elem_UC_PROFILE"><ellipse cx="789.0048" cy="1546.0486" fill="#EAF4F8" rx="174.0048" ry="42.9138" style="stroke:#3E7490;stroke-width:0.9375;"/><text fill="#17324D" font-family="sans-serif" font-size="30" lengthAdjust="spacing" textLength="200.625" x="688.6923" y="1554.574">G&#233;rer son profil</text></g><g id="elem_UC_CATALOG"><ellipse cx="789.1141" cy="1679.1451" fill="#EAF4F8" rx="215.3641" ry="47.5728" style="stroke:#3E7490;stroke-width:0.9375;"/><text fill="#17324D" font-family="sans-serif" font-size="30" lengthAdjust="spacing" textLength="288.75" x="644.7391" y="1687.6705">Consulter le catalogue</text></g><g id="elem_UC_LIST"><ellipse cx="789.1567" cy="578.5286" fill="#EAF4F8" rx="206.0317" ry="45.7063" style="stroke:#3E7490;stroke-width:0.9375;"/><text fill="#17324D" font-family="sans-serif" font-size="30" lengthAdjust="spacing" textLength="264.375" x="656.9692" y="587.054">Publier une annonce</text></g><g id="elem_UC_ORDER"><ellipse cx="789.5702" cy="1274.2363" fill="#EAF4F8" rx="220.5077" ry="48.6015" style="stroke:#3E7490;stroke-width:0.9375;"/><text fill="#17324D" font-family="sans-serif" font-size="30" lengthAdjust="spacing" textLength="301.875" x="638.6327" y="1282.7617">Passer une commande</text></g><g id="elem_UC_PAY"><ellipse cx="789.5341" cy="1137.9166" fill="#EAF4F8" rx="213.9091" ry="47.2818" style="stroke:#3E7490;stroke-width:0.9375;"/><text fill="#17324D" font-family="sans-serif" font-size="30" lengthAdjust="spacing" textLength="285" x="647.0341" y="1146.442">Payer une commande</text></g><g id="elem_UC_MANAGE"><ellipse cx="789.7467" cy="714.0216" fill="#EAF4F8" rx="213.1842" ry="47.1368" style="stroke:#3E7490;stroke-width:0.9375;"/><text fill="#17324D" font-family="sans-serif" font-size="30" lengthAdjust="spacing" textLength="283.125" x="648.1842" y="722.547">G&#233;rer une commande</text></g><g id="elem_UC_RECEIVE"><ellipse cx="789.1141" cy="1412.8951" fill="#EAF4F8" rx="215.3641" ry="47.5728" style="stroke:#3E7490;stroke-width:0.9375;"/><text fill="#17324D" font-family="sans-serif" font-size="30" lengthAdjust="spacing" textLength="288.75" x="644.7391" y="1421.4205">Confirmer la r&#233;ception</text></g><g id="elem_UC_DELIVER"><ellipse cx="789.4084" cy="1814.5789" fill="#EAF4F8" rx="208.1584" ry="46.1317" style="stroke:#3E7490;stroke-width:0.9375;"/><text fill="#17324D" font-family="sans-serif" font-size="30" lengthAdjust="spacing" textLength="270" x="654.4084" y="1823.1043">Assurer une livraison</text></g><g id="elem_UC_APPOINTMENT"><ellipse cx="789.4084" cy="848.9539" fill="#EAF4F8" rx="208.1584" ry="46.1317" style="stroke:#3E7490;stroke-width:0.9375;"/><text fill="#17324D" font-family="sans-serif" font-size="30" lengthAdjust="spacing" textLength="270" x="654.4084" y="857.4793">Prendre rendez-vous</text></g><g id="elem_UC_SERVICES"><ellipse cx="789.7851" cy="993.2168" fill="#EAF4F8" rx="259.1601" ry="56.332" style="stroke:#3E7490;stroke-width:0.9375;"/><text fill="#17324D" font-family="sans-serif" font-size="30" lengthAdjust="spacing" textLength="395.625" x="591.9726" y="1001.7422">G&#233;rer les services v&#233;t&#233;rinaires</text></g><g id="elem_UC_MODERATE"><ellipse cx="789.1141" cy="1949.1451" fill="#EAF4F8" rx="215.3641" ry="47.5728" style="stroke:#3E7490;stroke-width:0.9375;"/><text fill="#17324D" font-family="sans-serif" font-size="30" lengthAdjust="spacing" textLength="288.75" x="644.7391" y="1957.6705">Mod&#233;rer les annonces</text></g><g id="elem_UC_ADMIN"><ellipse cx="789.6044" cy="2119.5874" fill="#EAF4F8" rx="233.6669" ry="80.2027" style="stroke:#3E7490;stroke-width:0.9375;"/><text fill="#17324D" font-family="sans-serif" font-size="30" lengthAdjust="spacing" textLength="285" x="647.1044" y="2101.7456">Superviser paiements</text><text fill="#17324D" font-family="sans-serif" font-size="30" lengthAdjust="spacing" textLength="170.625" x="704.2919" y="2154.48">et utilisateurs</text></g><!--entity USER--><g id="elem_USER"><ellipse cx="398.4375" cy="1408.4473" fill="#FFFFFF" rx="15" ry="15" style="stroke:#2F7D5B;stroke-width:0.9375;"/><path d="M398.4375,1423.4473 L398.4375,1474.0723 M374.0625,1438.4473 L422.8125,1438.4473 M398.4375,1474.0723 L374.0625,1502.1973 M398.4375,1474.0723 L422.8125,1502.1973 " fill="none" style="stroke:#2F7D5B;stroke-width:0.9375;"/><text fill="#000000" font-family="sans-serif" font-size="30" lengthAdjust="spacing" textLength="129.375" x="333.75" y="1543.6523">Utilisateur</text></g><!--entity BUYER--><g id="elem_BUYER"><ellipse cx="142.5" cy="1408.4473" fill="#FFFFFF" rx="15" ry="15" style="stroke:#2F7D5B;stroke-width:0.9375;"/><path d="M142.5,1423.4473 L142.5,1474.0723 M118.125,1438.4473 L166.875,1438.4473 M142.5,1474.0723 L118.125,1502.1973 M142.5,1474.0723 L166.875,1502.1973 " fill="none" style="stroke:#2F7D5B;stroke-width:0.9375;"/><text fill="#000000" font-family="sans-serif" font-size="30" lengthAdjust="spacing" textLength="116.25" x="84.375" y="1543.6523">Acheteur</text></g><!--entity SELLER--><g id="elem_SELLER"><ellipse cx="142.5" cy="628.4473" fill="#FFFFFF" rx="15" ry="15" style="stroke:#2F7D5B;stroke-width:0.9375;"/><path d="M142.5,643.4473 L142.5,694.0723 M118.125,658.4473 L166.875,658.4473 M142.5,694.0723 L118.125,722.1973 M142.5,694.0723 L166.875,722.1973 " fill="none" style="stroke:#2F7D5B;stroke-width:0.9375;"/><text fill="#000000" font-family="sans-serif" font-size="30" lengthAdjust="spacing" textLength="153.75" x="11.25" y="763.6523">Fournisseur</text><text fill="#000000" font-family="sans-serif" font-size="30" lengthAdjust="spacing" textLength="262.5" x="11.25" y="801.3867">(&#233;leveur ou vendeur)</text></g><!--entity VET--><g id="elem_VET"><ellipse cx="142.5" cy="926.5723" fill="#FFFFFF" rx="15" ry="15" style="stroke:#2F7D5B;stroke-width:0.9375;"/><path d="M142.5,941.5723 L142.5,992.1973 M118.125,956.5723 L166.875,956.5723 M142.5,992.1973 L118.125,1020.3223 M142.5,992.1973 L166.875,1020.3223 " fill="none" style="stroke:#2F7D5B;stroke-width:0.9375;"/><text fill="#000000" font-family="sans-serif" font-size="30" lengthAdjust="spacing" textLength="144.375" x="70.3125" y="1061.7773">V&#233;t&#233;rinaire</text></g><!--entity COURIER--><g id="elem_COURIER"><ellipse cx="142.5" cy="1644.6973" fill="#FFFFFF" rx="15" ry="15" style="stroke:#2F7D5B;stroke-width:0.9375;"/><path d="M142.5,1659.6973 L142.5,1710.3223 M118.125,1674.6973 L166.875,1674.6973 M142.5,1710.3223 L118.125,1738.4473 M142.5,1710.3223 L166.875,1738.4473 " fill="none" style="stroke:#2F7D5B;stroke-width:0.9375;"/><text fill="#000000" font-family="sans-serif" font-size="30" lengthAdjust="spacing" textLength="88.125" x="98.4375" y="1779.9023">Livreur</text></g><!--entity ADMIN--><g id="elem_ADMIN"><ellipse cx="142.5" cy="1882.8223" fill="#FFFFFF" rx="15" ry="15" style="stroke:#2F7D5B;stroke-width:0.9375;"/><path d="M142.5,1897.8223 L142.5,1948.4473 M118.125,1912.8223 L166.875,1912.8223 M142.5,1948.4473 L118.125,1976.5723 M142.5,1948.4473 L166.875,1976.5723 " fill="none" style="stroke:#2F7D5B;stroke-width:0.9375;"/><text fill="#000000" font-family="sans-serif" font-size="30" lengthAdjust="spacing" textLength="189.375" x="47.8125" y="2018.0273">Administrateur</text></g><g id="elem_GMN39"><path d="M539.0625,316.2598 L539.0625,402.9785 A11.25,11.25 0 0 0 550.3125,414.2285 L1028.4375,414.2285 A11.25,11.25 0 0 0 1039.6875,402.9785 L1039.6875,323.7598 L1020.9375,305.0098 L550.3125,305.0098 A11.25,11.25 0 0 0 539.0625,316.2598 " fill="#FFF8E8" style="stroke:#E5AE45;stroke-width:0.9375;"/><path d="M1020.9375,305.0098 L1020.9375,318.1348 A5.625,5.625 0 0 0 1026.5625,323.7598 L1039.6875,323.7598 L1020.9375,305.0098 " fill="#FFF8E8" style="stroke:#E5AE45;stroke-width:1.875;"/><text fill="#5B481E" font-family="sans-serif" font-size="30" lengthAdjust="spacing" textLength="446.25" x="557.8125" y="353.0273">Le QR code est scann&#233; seulement</text><text fill="#5B481E" font-family="sans-serif" font-size="30" lengthAdjust="spacing" textLength="330" x="557.8125" y="390.7617">lorsqu'un livreur intervient.</text></g><g id="elem_GMN42"><path d="M530.625,128.7598 L530.625,253.2129 A11.25,11.25 0 0 0 541.875,264.4629 L1036.875,264.4629 A11.25,11.25 0 0 0 1048.125,253.2129 L1048.125,136.2598 L1029.375,117.5098 L541.875,117.5098 A11.25,11.25 0 0 0 530.625,128.7598 " fill="#FFF8E8" style="stroke:#E5AE45;stroke-width:0.9375;"/><path d="M1029.375,117.5098 L1029.375,130.6348 A5.625,5.625 0 0 0 1035,136.2598 L1048.125,136.2598 L1029.375,117.5098 " fill="#FFF8E8" style="stroke:#E5AE45;stroke-width:1.875;"/><text fill="#5B481E" font-family="sans-serif" font-size="30" lengthAdjust="spacing" textLength="463.125" x="549.375" y="165.5273">Tout acteur inscrit peut commander,</text><text fill="#5B481E" font-family="sans-serif" font-size="30" lengthAdjust="spacing" textLength="450" x="549.375" y="203.2617">y compris l'Administrateur, sauf sur</text><text fill="#5B481E" font-family="sans-serif" font-size="30" lengthAdjust="spacing" textLength="251.25" x="549.375" y="240.9961">sa propre annonce.</text></g><!--link BUYER to USER--><g id="link_BUYER_USER"><path d="M208.4063,1502.516 C208.4063,1502.516 288.0375,1502.516 288.0375,1502.516 " fill="none" id="BUYER-to-USER" style="stroke:#456A7D;stroke-width:2.625;"/><polygon fill="none" points="288.0375,1489.391,325.5375,1502.516,288.0375,1515.641,288.0375,1489.391" style="stroke:#456A7D;stroke-width:2.625;"/></g><!--link SELLER to USER--><g id="link_SELLER_USER"><path d="M264.375,815.0098 C264.375,1016.3098 264.375,1447.5035 264.375,1447.5035 C264.375,1447.5035 288.4125,1447.5035 288.4125,1447.5035 " fill="none" id="SELLER-to-USER" style="stroke:#456A7D;stroke-width:2.625;"/><polygon fill="none" points="288.4125,1434.3785,325.9125,1447.5035,288.4125,1460.6285,288.4125,1434.3785" style="stroke:#456A7D;stroke-width:2.625;"/></g><!--link VET to USER--><g id="link_VET_USER"><path d="M222.5063,1062.5098 C289.7625,1062.5098 375,1062.5098 375,1062.5098 C375,1062.5098 375,1354.5223 375,1354.5223 " fill="none" id="VET-to-USER" style="stroke:#456A7D;stroke-width:2.625;"/><polygon fill="none" points="388.125,1354.5223,375,1392.0223,361.875,1354.5223,388.125,1354.5223" style="stroke:#456A7D;stroke-width:2.625;"/></g><!--link COURIER to USER--><g id="link_COURIER_USER"><path d="M194.1,1679.3848 C262.5938,1679.3848 375,1679.3848 375,1679.3848 C375,1679.3848 375,1595.0473 375,1595.0473 " fill="none" id="COURIER-to-USER" style="stroke:#456A7D;stroke-width:2.625;"/><polygon fill="none" points="361.875,1595.0473,375,1557.5473,388.125,1595.0473,361.875,1595.0473" style="stroke:#456A7D;stroke-width:2.625;"/></g><!--link ADMIN to USER--><g id="link_ADMIN_USER"><path d="M244.8375,1884.2285 C325.2563,1884.2285 423.75,1884.2285 423.75,1884.2285 C423.75,1884.2285 423.75,1595.3285 423.75,1595.3285 " fill="none" id="ADMIN-to-USER" style="stroke:#456A7D;stroke-width:2.625;"/><polygon fill="none" points="410.625,1595.3285,423.75,1557.8285,436.875,1595.3285,410.625,1595.3285" style="stroke:#456A7D;stroke-width:2.625;"/></g><!--link USER to UC_PROFILE--><g id="link_USER_UC_PROFILE"><path d="M471.0563,1521.266 C471.0563,1521.266 637.2937,1521.266 637.2937,1521.266 " fill="none" id="USER-to-UC_PROFILE" style="stroke:#456A7D;stroke-width:2.625;"/><polygon fill="#456A7D" points="646.6687,1521.266,629.7937,1513.766,637.2937,1521.266,629.7937,1528.766,646.6687,1521.266" style="stroke:#456A7D;stroke-width:2.625;"/></g><!--link USER to UC_CATALOG--><g id="link_USER_UC_CATALOG"><path d="M470.85,1539.3785 C526.65,1539.3785 594.375,1539.3785 594.375,1539.3785 C594.375,1539.3785 594.375,1649.3473 594.375,1649.3473 " fill="none" id="USER-to-UC_CATALOG" style="stroke:#456A7D;stroke-width:2.625;"/><polygon fill="#456A7D" points="594.375,1658.7223,601.875,1641.8473,594.375,1649.3473,586.875,1641.8473,594.375,1658.7223" style="stroke:#456A7D;stroke-width:2.625;"/></g><!--link USER to UC_ORDER--><g id="link_USER_UC_ORDER"><path d="M423.75,1391.9848 C423.75,1343.0473 423.75,1290.641 423.75,1290.641 C423.75,1290.641 572.0813,1290.641 572.0813,1290.641 " fill="none" id="USER-to-UC_ORDER" style="stroke:#456A7D;stroke-width:2.625;"/><polygon fill="#456A7D" points="581.4563,1290.641,564.5813,1283.141,572.0813,1290.641,564.5813,1298.141,581.4563,1290.641" style="stroke:#456A7D;stroke-width:2.625;"/></g><!--link USER to UC_RECEIVE--><g id="link_USER_UC_RECEIVE"><path d="M471.0563,1415.3285 C471.0563,1415.3285 564.0563,1415.3285 564.0563,1415.3285 " fill="none" id="USER-to-UC_RECEIVE" style="stroke:#456A7D;stroke-width:2.625;"/><polygon fill="#456A7D" points="573.4313,1415.3285,556.5563,1407.8285,564.0563,1415.3285,556.5563,1422.8285,573.4313,1415.3285" style="stroke:#456A7D;stroke-width:2.625;"/></g><!--link SELLER to UC_LIST--><g id="link_SELLER_UC_LIST"><path d="M142.5,611.966 C142.5,589.7285 142.5,572.666 142.5,572.666 C142.5,572.666 575.325,572.666 575.325,572.666 " fill="none" id="SELLER-to-UC_LIST" style="stroke:#456A7D;stroke-width:2.625;"/><polygon fill="#456A7D" points="584.7,572.666,567.825,565.166,575.325,572.666,567.825,580.166,584.7,572.666" style="stroke:#456A7D;stroke-width:2.625;"/></g><!--link SELLER to UC_MANAGE--><g id="link_SELLER_UC_MANAGE"><path d="M281.2687,713.7598 C281.2687,713.7598 566.9812,713.7598 566.9812,713.7598 " fill="none" id="SELLER-to-UC_MANAGE" style="stroke:#456A7D;stroke-width:2.625;"/><polygon fill="#456A7D" points="576.3562,713.7598,559.4812,706.2598,566.9812,713.7598,559.4812,721.2598,576.3562,713.7598" style="stroke:#456A7D;stroke-width:2.625;"/></g><!--link VET to UC_SERVICES--><g id="link_VET_UC_SERVICES"><path d="M222.4688,993.1348 C222.4688,993.1348 520.65,993.1348 520.65,993.1348 " fill="none" id="VET-to-UC_SERVICES" style="stroke:#456A7D;stroke-width:2.625;"/><polygon fill="#456A7D" points="530.025,993.1348,513.15,985.6348,520.65,993.1348,513.15,1000.6348,530.025,993.1348" style="stroke:#456A7D;stroke-width:2.625;"/></g><!--link VET to UC_APPOINTMENT--><g id="link_VET_UC_APPOINTMENT"><path d="M142.5,910.2973 C142.5,880.8598 142.5,854.8535 142.5,854.8535 C142.5,854.8535 573.5437,854.8535 573.5437,854.8535 " fill="none" id="VET-to-UC_APPOINTMENT" style="stroke:#456A7D;stroke-width:2.625;"/><polygon fill="#456A7D" points="582.9187,854.8535,566.0437,847.3535,573.5437,854.8535,566.0437,862.3535,582.9187,854.8535" style="stroke:#456A7D;stroke-width:2.625;"/></g><!--link COURIER to UC_DELIVER--><g id="link_COURIER_UC_DELIVER"><path d="M194.3438,1785.3223 C194.3438,1785.3223 618.6188,1785.3223 618.6188,1785.3223 " fill="none" id="COURIER-to-UC_DELIVER" style="stroke:#456A7D;stroke-width:2.625;"/><polygon fill="#456A7D" points="627.9938,1785.3223,611.1188,1777.8223,618.6188,1785.3223,611.1188,1792.8223,627.9938,1785.3223" style="stroke:#456A7D;stroke-width:2.625;"/></g><!--link ADMIN to UC_MODERATE--><g id="link_ADMIN_UC_MODERATE"><path d="M245.0062,1949.3848 C245.0062,1949.3848 564.1875,1949.3848 564.1875,1949.3848 " fill="none" id="ADMIN-to-UC_MODERATE" style="stroke:#456A7D;stroke-width:2.625;"/><polygon fill="#456A7D" points="573.5625,1949.3848,556.6875,1941.8848,564.1875,1949.3848,556.6875,1956.8848,573.5625,1949.3848" style="stroke:#456A7D;stroke-width:2.625;"/></g><!--link ADMIN to UC_ADMIN--><g id="link_ADMIN_UC_ADMIN"><path d="M244.7813,2014.541 C368.5687,2014.541 560.625,2014.541 560.625,2014.541 C560.625,2014.541 560.625,2094.1535 560.625,2094.1535 " fill="none" id="ADMIN-to-UC_ADMIN" style="stroke:#456A7D;stroke-width:2.625;"/><polygon fill="#456A7D" points="560.625,2103.5285,568.125,2086.6535,560.625,2094.1535,553.125,2086.6535,560.625,2103.5285" style="stroke:#456A7D;stroke-width:2.625;"/></g><!--link UC_ORDER to UC_PAY--><g id="link_UC_ORDER_UC_PAY"><path d="M789.375,1224.9785 C789.375,1224.9785 789.375,1193.9473 789.375,1193.9473 " fill="none" id="UC_ORDER-to-UC_PAY" style="stroke:#456A7D;stroke-width:2.625;stroke-dasharray:7.0,7.0;"/><polygon fill="#456A7D" points="789.375,1184.5723,781.875,1201.4473,789.375,1193.9473,796.875,1201.4473,789.375,1184.5723" style="stroke:#456A7D;stroke-width:2.625;"/><text fill="#29485B" font-family="sans-serif" font-size="30" lengthAdjust="spacing" textLength="125.625" x="798.75" y="1221.8461">&#171;include&#187;</text></g><!--link UC_DELIVER to UC_RECEIVE--><g id="link_UC_DELIVER_UC_RECEIVE"><path d="M668.6625,1776.8848 C616.1062,1776.8848 566.25,1776.8848 566.25,1776.8848 C566.25,1776.8848 566.25,1438.1285 566.25,1438.1285 C566.25,1438.1285 595.7438,1438.1285 595.7438,1438.1285 " fill="none" id="UC_DELIVER-to-UC_RECEIVE" style="stroke:#456A7D;stroke-width:2.625;stroke-dasharray:7.0,7.0;"/><polygon fill="#456A7D" points="605.1188,1438.1285,588.2438,1430.6285,595.7438,1438.1285,588.2438,1445.6285,605.1188,1438.1285" style="stroke:#456A7D;stroke-width:2.625;"/><text fill="#29485B" font-family="sans-serif" font-size="30" lengthAdjust="spacing" textLength="120" x="428.4375" y="1684.4836">&#171;extend&#187;</text><text fill="#29485B" font-family="sans-serif" font-size="30" lengthAdjust="spacing" textLength="136.875" x="420" y="1722.218">si livraison</text></g><!--link UC_RECEIVE to GMN39--><g id="link_UC_RECEIVE_GMN39"><path d="M638.4375,1378.916 C573.3563,1378.916 511.875,1378.916 511.875,1378.916 C511.875,1378.916 511.875,359.3848 511.875,359.3848 C511.875,359.3848 522.2438,359.3848 538.9875,359.3848 " fill="none" id="UC_RECEIVE-GMN39" style="stroke:#456A7D;stroke-width:2.625;stroke-dasharray:7.0,7.0;"/></g><!--link UC_ORDER to GMN42--><g id="link_UC_ORDER_GMN42"><path d="M581.5125,1258.1285 C531.0188,1258.1285 491.25,1258.1285 491.25,1258.1285 C491.25,1258.1285 491.25,190.6348 491.25,190.6348 C491.25,190.6348 506.55,190.6348 530.2313,190.6348 " fill="none" id="UC_ORDER-GMN42" style="stroke:#456A7D;stroke-width:2.625;stroke-dasharray:7.0,7.0;"/></g><!--SRC=[ZLVlRk964F_kfnYb7z9AboWG2AGw8HcmKoGWD9189qMgDlP2LZ6xljqr5-vQgG_H1-Z7vZbuapv9n__m6XnV8w7OCx_vFxCxFeMvtWOKFB5UHnp-_VCly1bPIR9UKmLEG3S3mJdrj7KAyuSR-1cMGgw9XWtIX6Gq04urxFu6BI9DGHCM1FGSPjCOIrz38JKyavZbxzwMZ3FD13-tr0lZ8K4py4IybvKK4VS78X0IVd2JFmFXXmmQtGk3efw9Bxumle8b2HGrE8aYJqXE9JIQ1YDWwESsf80EFGjJErsIAD2ku7fArXJcXAivbMnPZPcphnGQLmPpmNH0QyNtY4IusQnYPS4tEfVDrj00s5AABncprRwoEqTCGxfvtUgs-uU0nJFpNZXL2XhdBOCv5PhsAxBVTRg7A25zAZE4qxQTLli0OJZHxhUw3SVWpz06MPMLNDlzZjsf01tvqt9jz-eOQERCHPENrP2qkvz4u9jPyJJRCBqzDdRXTjtBAgJfUzFj3CjPpb2rTSmmGqRMWljLURySTci4J0-6tUjsqwsCw5qd1m5Hgl_TOKjXjU4ca5yeGSYHFgVbNZhs8RWkCGxNbQKuT2p3rNgMOkgipJMfQ7fdw7RSnX6irbO2gJDrhwX7L8Kn6tkwMm4qpLqwdTRrnJ6eDZRwEQBSesEsn1y_6BX1lpLerA6_Mu5SOaQaPXuB2TVV3wvAg3RGNC2ExvV_xrGAhwzO1hr1XU6nvexRTuVlmcjpoOLF5GtBHxia_2KXjYe6TKBaYd5eN5JmPiJtuxkjMphIzkdBsKrJjYzUgyLIMkkmSGkm5T2bnjiR95izQxpz9TxiU4TREhwQO40K-AUHPW5J9ARZcx4MW6MHEFDmSfz1Q2HF08NkvyvTphEzPxfdzEy_5HnNH98pfP3vo7_SlQ5cV0GHuOB1VNpyAP6PE-Dn8VImUzExDyauGMSJ_eEpo9bZjf6vgS7j_Tt8SCDVumAYj2oyj8UJqTIo4f_WxEptNkftQiyWe07ZBTDhK18znhiLPv7m5MRmPBvLUlSFxWP6taxWcmKGfKCD9pSO3cui2jCRIh5aGPh2mM-pkrjtD7PCB6fGk8mWFDxRY2Q1M4Kq5nZO2tjyUsCApAAdW24yuXG8vm9xEaUFH_D52Og7TOQCDqA29SYXjtT3ZAk4tRu3dTcVAeAhGaxigNrp6DsIoNKS7G6vU_De67TTBd3d39pHGqd2LYhAzGTOVC9KWHywOuIN_PROMP92_8z-FTk8IELeUpQx7KqN4sUwg0WWm8qOixDX7Zvip1xSAy3IFum6pjoKdWY_aC_olnUOt69MxKKfe7aKnbRYGeI4qJNbMZt6MtPKZ5ZXSjB0VrXMt7ROW3spQqnQtXWcBQsfISdpkn-0thvDogIiSkbSz4gn6pGpeSNGzCpAv9FJAwMZHCs6D7SOpdjPb-4dniUFZ7j1vDDUpogqPf0icWH6NpKMlDTxv8eLVM9P7BTNN12r5ciGotAFZIdyUeTDwrEWIeFoi7oxDso2A4ZAWX2y4DJdw1I_dOBqu076TLm-P9zRQ15Y0rLcye5Qu8SJu0cLoYfFCWqXHLe-BF83ehRnQoYPWk2qV8vz04MY9U0G84oH-009vNxI2n_-0m00]--></g></svg>