<?xml version="1.0" encoding="us-ascii" standalone="no"?><svg xmlns="http://www.w3.org/2000/svg" xmlns:xlink="http://www.w3.org/1999/xlink" contentStyleType="text/css" height="1893.75px" preserveAspectRatio="none" style="width:2323px;height:1893px;background:#FFFFFF;" version="1.1" viewBox="0 0 2323 1893" width="2323.125px" zoomAndPan="magnify"><defs/><g><text fill="#17324D" font-family="sans-serif" font-size="52.5" font-weight="bold" lengthAdjust="spacing" textLength="607.5" x="860.625" y="86.3745">Rendez-vous v&#233;t&#233;rinaire</text><rect fill="#F4FAF6" height="522.5684" rx="11.25" ry="11.25" style="stroke:#9CB4C1;stroke-width:2.8125;" width="2293.125" x="18.75" y="1011.123"/><line style="stroke:#9CB4C1;stroke-width:0.9375;stroke-dasharray:5.0,5.0;" x1="114.375" x2="114.375" y1="294.1699" y2="1714.3359"/><line style="stroke:#9CB4C1;stroke-width:0.9375;stroke-dasharray:5.0,5.0;" x1="764.0625" x2="764.0625" y1="294.1699" y2="1714.3359"/><line style="stroke:#9CB4C1;stroke-width:0.9375;stroke-dasharray:5.0,5.0;" x1="1366.875" x2="1366.875" y1="294.1699" y2="1714.3359"/><line style="stroke:#9CB4C1;stroke-width:0.9375;stroke-dasharray:5.0,5.0;" x1="1893.75" x2="1893.75" y1="294.1699" y2="1714.3359"/><line style="stroke:#9CB4C1;stroke-width:0.9375;stroke-dasharray:5.0,5.0;" x1="2186.25" x2="2186.25" y1="294.1699" y2="1714.3359"/><text fill="#000000" font-family="sans-serif" font-size="41.25" lengthAdjust="spacing" textLength="135" x="41.25" y="281.3562">&#201;leveur</text><ellipse cx="114.375" cy="138.2227" fill="#FFFFFF" rx="15" ry="15" style="stroke:#2F7D5B;stroke-width:0.9375;"/><path d="M114.375,153.2227 L114.375,203.8477 M90,168.2227 L138.75,168.2227 M114.375,203.8477 L90,231.9727 M114.375,203.8477 L138.75,231.9727 " fill="none" style="stroke:#2F7D5B;stroke-width:0.9375;"/><text fill="#000000" font-family="sans-serif" font-size="41.25" lengthAdjust="spacing" textLength="135" x="41.25" y="1759.032">&#201;leveur</text><ellipse cx="114.375" cy="1787.7832" fill="#FFFFFF" rx="15" ry="15" style="stroke:#2F7D5B;stroke-width:0.9375;"/><path d="M114.375,1802.7832 L114.375,1853.4082 M90,1817.7832 L138.75,1817.7832 M114.375,1853.4082 L90,1881.5332 M114.375,1853.4082 L138.75,1881.5332 " fill="none" style="stroke:#2F7D5B;stroke-width:0.9375;"/><text fill="#000000" font-family="sans-serif" font-size="41.25" lengthAdjust="spacing" textLength="241.875" x="638.4375" y="281.3562">Interface web</text><path d="M726.5625,182.2852 L726.5625,227.2852 M726.5625,204.7852 L758.4375,204.7852 " fill="none" style="stroke:#181818;stroke-width:0.9375;"/><ellipse cx="780.9375" cy="204.7852" fill="#E2E2F0" rx="22.5" ry="22.5" style="stroke:#181818;stroke-width:0.9375;"/><text fill="#000000" font-family="sans-serif" font-size="41.25" lengthAdjust="spacing" textLength="241.875" x="638.4375" y="1759.032">Interface web</text><path d="M726.5625,1779.3457 L726.5625,1824.3457 M726.5625,1801.8457 L758.4375,1801.8457 " fill="none" style="stroke:#181818;stroke-width:0.9375;"/><ellipse cx="780.9375" cy="1801.8457" fill="#E2E2F0" rx="22.5" ry="22.5" style="stroke:#181818;stroke-width:0.9375;"/><text fill="#000000" font-family="sans-serif" font-size="41.25" lengthAdjust="spacing" textLength="228.75" x="1246.875" y="281.3562">ElevConnect</text><ellipse cx="1366.875" cy="204.7852" fill="#E2E2F0" rx="22.5" ry="22.5" style="stroke:#181818;stroke-width:0.9375;"/><polygon fill="#181818" points="1359.375,182.2852,1370.625,172.9102,1366.875,182.2852,1370.625,191.6602,1359.375,182.2852" style="stroke:#181818;stroke-width:1.875;"/><text fill="#000000" font-family="sans-serif" font-size="41.25" lengthAdjust="spacing" textLength="228.75" x="1246.875" y="1759.032">ElevConnect</text><ellipse cx="1366.875" cy="1801.8457" fill="#E2E2F0" rx="22.5" ry="22.5" style="stroke:#181818;stroke-width:0.9375;"/><polygon fill="#181818" points="1359.375,1779.3457,1370.625,1769.9707,1366.875,1779.3457,1370.625,1788.7207,1359.375,1779.3457" style="stroke:#181818;stroke-width:1.875;"/><text fill="#000000" font-family="sans-serif" font-size="41.25" lengthAdjust="spacing" textLength="315" x="1730.625" y="281.3562">Base de donn&#233;es</text><path d="M1860,167.2852 C1860,148.5352 1893.75,148.5352 1893.75,148.5352 C1893.75,148.5352 1927.5,148.5352 1927.5,167.2852 L1927.5,216.0352 C1927.5,234.7852 1893.75,234.7852 1893.75,234.7852 C1893.75,234.7852 1860,234.7852 1860,216.0352 L1860,167.2852 " fill="#E2E2F0" style="stroke:#181818;stroke-width:2.8125;"/><path d="M1860,167.2852 C1860,186.0352 1893.75,186.0352 1893.75,186.0352 C1893.75,186.0352 1927.5,186.0352 1927.5,167.2852 " fill="none" style="stroke:#181818;stroke-width:2.8125;"/><text fill="#000000" font-family="sans-serif" font-size="41.25" lengthAdjust="spacing" textLength="315" x="1730.625" y="1759.032">Base de donn&#233;es</text><path d="M1860,1790.5957 C1860,1771.8457 1893.75,1771.8457 1893.75,1771.8457 C1893.75,1771.8457 1927.5,1771.8457 1927.5,1790.5957 L1927.5,1839.3457 C1927.5,1858.0957 1893.75,1858.0957 1893.75,1858.0957 C1893.75,1858.0957 1860,1858.0957 1860,1839.3457 L1860,1790.5957 " fill="#E2E2F0" style="stroke:#181818;stroke-width:2.8125;"/><path d="M1860,1790.5957 C1860,1809.3457 1893.75,1809.3457 1893.75,1809.3457 C1893.75,1809.3457 1927.5,1809.3457 1927.5,1790.5957 " fill="none" style="stroke:#181818;stroke-width:2.8125;"/><text fill="#000000" font-family="sans-serif" font-size="41.25" lengthAdjust="spacing" textLength="195" x="2083.125" y="281.3562">V&#233;t&#233;rinaire</text><ellipse cx="2186.25" cy="138.2227" fill="#FFFFFF" rx="15" ry="15" style="stroke:#2F7D5B;stroke-width:0.9375;"/><path d="M2186.25,153.2227 L2186.25,203.8477 M2161.875,168.2227 L2210.625,168.2227 M2186.25,203.8477 L2161.875,231.9727 M2186.25,203.8477 L2210.625,231.9727 " fill="none" style="stroke:#2F7D5B;stroke-width:0.9375;"/><text fill="#000000" font-family="sans-serif" font-size="41.25" lengthAdjust="spacing" textLength="195" x="2083.125" y="1759.032">V&#233;t&#233;rinaire</text><ellipse cx="2186.25" cy="1787.7832" fill="#FFFFFF" rx="15" ry="15" style="stroke:#2F7D5B;stroke-width:0.9375;"/><path d="M2186.25,1802.7832 L2186.25,1853.4082 M2161.875,1817.7832 L2210.625,1817.7832 M2186.25,1853.4082 L2161.875,1881.5332 M2186.25,1853.4082 L2210.625,1881.5332 " fill="none" style="stroke:#2F7D5B;stroke-width:0.9375;"/><polygon fill="#456A7D" points="742.5,376.0547,761.25,383.5547,742.5,391.0547,750,383.5547" style="stroke:#456A7D;stroke-width:1.875;"/><line style="stroke:#456A7D;stroke-width:2.625;" x1="114.375" x2="753.75" y1="383.5547" y2="383.5547"/><text fill="#29485B" font-family="sans-serif" font-size="41.25" font-weight="bold" lengthAdjust="spacing" textLength="22.5" x="131.25" y="366.991">1</text><text fill="#29485B" font-family="sans-serif" font-size="41.25" lengthAdjust="spacing" textLength="560.625" x="168.75" y="366.991">choisit un service et un cr&#233;neau</text><polygon fill="#456A7D" points="1344.375,461.6895,1363.125,469.1895,1344.375,476.6895,1351.875,469.1895" style="stroke:#456A7D;stroke-width:1.875;"/><line style="stroke:#456A7D;stroke-width:2.625;" x1="765" x2="1355.625" y1="469.1895" y2="469.1895"/><text fill="#29485B" font-family="sans-serif" font-size="41.25" font-weight="bold" lengthAdjust="spacing" textLength="22.5" x="781.875" y="452.6257">2</text><text fill="#29485B" font-family="sans-serif" font-size="41.25" lengthAdjust="spacing" textLength="438.75" x="819.375" y="452.6257">demanderRendezVous()</text><polygon fill="#456A7D" points="1871.25,547.3242,1890,554.8242,1871.25,562.3242,1878.75,554.8242" style="stroke:#456A7D;stroke-width:1.875;"/><line style="stroke:#456A7D;stroke-width:2.625;" x1="1366.875" x2="1882.5" y1="554.8242" y2="554.8242"/><text fill="#29485B" font-family="sans-serif" font-size="41.25" font-weight="bold" lengthAdjust="spacing" textLength="22.5" x="1383.75" y="538.2605">3</text><text fill="#29485B" font-family="sans-serif" font-size="41.25" lengthAdjust="spacing" textLength="397.5" x="1421.25" y="538.2605">enregistre la demande</text><polygon fill="#456A7D" points="2163.75,632.959,2182.5,640.459,2163.75,647.959,2171.25,640.459" style="stroke:#456A7D;stroke-width:1.875;"/><line style="stroke:#456A7D;stroke-width:2.625;" x1="1366.875" x2="2175" y1="640.459" y2="640.459"/><text fill="#29485B" font-family="sans-serif" font-size="41.25" font-weight="bold" lengthAdjust="spacing" textLength="22.5" x="1383.75" y="623.8953">4</text><text fill="#29485B" font-family="sans-serif" font-size="41.25" lengthAdjust="spacing" textLength="330" x="1421.25" y="623.8953">notifie la demande</text><polygon fill="#456A7D" points="785.625,718.5938,766.875,726.0938,785.625,733.5938,778.125,726.0938" style="stroke:#456A7D;stroke-width:1.875;"/><line style="stroke:#456A7D;stroke-width:2.625;" x1="774.375" x2="2184.375" y1="726.0938" y2="726.0938"/><text fill="#29485B" font-family="sans-serif" font-size="41.25" font-weight="bold" lengthAdjust="spacing" textLength="22.5" x="800.625" y="709.53">5</text><text fill="#29485B" font-family="sans-serif" font-size="41.25" lengthAdjust="spacing" textLength="337.5" x="838.125" y="709.53">confirme ou refuse</text><polygon fill="#456A7D" points="1344.375,804.2285,1363.125,811.7285,1344.375,819.2285,1351.875,811.7285" style="stroke:#456A7D;stroke-width:1.875;"/><line style="stroke:#456A7D;stroke-width:2.625;" x1="765" x2="1355.625" y1="811.7285" y2="811.7285"/><text fill="#29485B" font-family="sans-serif" font-size="41.25" font-weight="bold" lengthAdjust="spacing" textLength="22.5" x="781.875" y="795.1648">6</text><text fill="#29485B" font-family="sans-serif" font-size="41.25" lengthAdjust="spacing" textLength="511.875" x="819.375" y="795.1648">traiterRendezVous(d&#233;cision)</text><polygon fill="#456A7D" points="1871.25,889.8633,1890,897.3633,1871.25,904.8633,1878.75,897.3633" style="stroke:#456A7D;stroke-width:1.875;"/><line style="stroke:#456A7D;stroke-width:2.625;" x1="1366.875" x2="1882.5" y1="897.3633" y2="897.3633"/><text fill="#29485B" font-family="sans-serif" font-size="41.25" font-weight="bold" lengthAdjust="spacing" textLength="22.5" x="1383.75" y="880.7996">7</text><text fill="#29485B" font-family="sans-serif" font-size="41.25" lengthAdjust="spacing" textLength="328.125" x="1421.25" y="880.7996">met &#224; jour le statut</text><polygon fill="#456A7D" points="135,975.498,116.25,982.998,135,990.498,127.5,982.998" style="stroke:#456A7D;stroke-width:1.875;"/><line style="stroke:#456A7D;stroke-width:2.625;" x1="123.75" x2="1365" y1="982.998" y2="982.998"/><text fill="#29485B" font-family="sans-serif" font-size="41.25" font-weight="bold" lengthAdjust="spacing" textLength="22.5" x="150" y="966.4343">8</text><text fill="#29485B" font-family="sans-serif" font-size="41.25" lengthAdjust="spacing" textLength="313.125" x="187.5" y="966.4343">notifie la d&#233;cision</text><path d="M30,1011.123 L172.5,1011.123 L172.5,1055.5078 L153.75,1074.2578 L18.75,1074.2578 L18.75,1022.373 A11.25,11.25 0 0 1 30,1011.123 " fill="#F7FBFD" style="stroke:#9CB4C1;stroke-width:2.8125;"/><rect fill="none" height="522.5684" rx="11.25" ry="11.25" style="stroke:#9CB4C1;stroke-width:2.8125;" width="2293.125" x="18.75" y="1011.123"/><text fill="#000000" font-family="sans-serif" font-size="41.25" font-weight="bold" lengthAdjust="spacing" textLength="61.875" x="50.625" y="1059.5691">opt</text><text fill="#000000" font-family="sans-serif" font-size="41.25" font-weight="bold" lengthAdjust="spacing" textLength="442.5" x="204.375" y="1061.4441">[rendez-vous confirm&#233;]</text><polygon fill="#456A7D" points="785.625,1168.6523,766.875,1176.1523,785.625,1183.6523,778.125,1176.1523" style="stroke:#456A7D;stroke-width:1.875;"/><line style="stroke:#456A7D;stroke-width:2.625;" x1="774.375" x2="2184.375" y1="1176.1523" y2="1176.1523"/><text fill="#29485B" font-family="sans-serif" font-size="41.25" font-weight="bold" lengthAdjust="spacing" textLength="22.5" x="800.625" y="1159.5886">9</text><text fill="#29485B" font-family="sans-serif" font-size="41.25" lengthAdjust="spacing" textLength="393.75" x="838.125" y="1159.5886">cl&#244;ture le rendez-vous</text><polygon fill="#456A7D" points="1344.375,1254.2871,1363.125,1261.7871,1344.375,1269.2871,1351.875,1261.7871" style="stroke:#456A7D;stroke-width:1.875;"/><line style="stroke:#456A7D;stroke-width:2.625;" x1="765" x2="1355.625" y1="1261.7871" y2="1261.7871"/><text fill="#29485B" font-family="sans-serif" font-size="41.25" font-weight="bold" lengthAdjust="spacing" textLength="45" x="781.875" y="1245.2234">10</text><text fill="#29485B" font-family="sans-serif" font-size="41.25" lengthAdjust="spacing" textLength="309.375" x="841.875" y="1245.2234">marquerR&#233;alis&#233;()</text><polygon fill="#456A7D" points="1871.25,1339.9219,1890,1347.4219,1871.25,1354.9219,1878.75,1347.4219" style="stroke:#456A7D;stroke-width:1.875;"/><line style="stroke:#456A7D;stroke-width:2.625;" x1="1366.875" x2="1882.5" y1="1347.4219" y2="1347.4219"/><text fill="#29485B" font-family="sans-serif" font-size="41.25" font-weight="bold" lengthAdjust="spacing" textLength="45" x="1383.75" y="1330.8582">11</text><text fill="#29485B" font-family="sans-serif" font-size="41.25" lengthAdjust="spacing" textLength="414.375" x="1443.75" y="1330.8582">enregistre la r&#233;alisation</text><polygon fill="#456A7D" points="742.5,1425.5566,761.25,1433.0566,742.5,1440.5566,750,1433.0566" style="stroke:#456A7D;stroke-width:1.875;"/><line style="stroke:#456A7D;stroke-width:2.625;" x1="114.375" x2="753.75" y1="1433.0566" y2="1433.0566"/><text fill="#29485B" font-family="sans-serif" font-size="41.25" font-weight="bold" lengthAdjust="spacing" textLength="45" x="131.25" y="1416.4929">12</text><text fill="#29485B" font-family="sans-serif" font-size="41.25" lengthAdjust="spacing" textLength="240" x="191.25" y="1416.4929">laisse un avis</text><polygon fill="#456A7D" points="1344.375,1511.1914,1363.125,1518.6914,1344.375,1526.1914,1351.875,1518.6914" style="stroke:#456A7D;stroke-width:1.875;"/><line style="stroke:#456A7D;stroke-width:2.625;" x1="765" x2="1355.625" y1="1518.6914" y2="1518.6914"/><text fill="#29485B" font-family="sans-serif" font-size="41.25" font-weight="bold" lengthAdjust="spacing" textLength="45" x="781.875" y="1502.1277">13</text><text fill="#29485B" font-family="sans-serif" font-size="41.25" lengthAdjust="spacing" textLength="296.25" x="841.875" y="1502.1277">enregistrerAvis()</text><path d="M26.25,1567.4414 L26.25,1674.3164 A11.25,11.25 0 0 0 37.5,1685.5664 L2261.25,1685.5664 A11.25,11.25 0 0 0 2272.5,1674.3164 L2272.5,1574.9414 L2253.75,1556.1914 L37.5,1556.1914 A11.25,11.25 0 0 0 26.25,1567.4414 " fill="#FFF8E8" style="stroke:#E5AE45;stroke-width:0.9375;"/><path d="M2253.75,1556.1914 L2253.75,1569.3164 A5.625,5.625 0 0 0 2259.375,1574.9414 L2272.5,1574.9414 L2253.75,1556.1914 " fill="#FFF8E8" style="stroke:#E5AE45;stroke-width:0.9375;"/><text fill="#5B481E" font-family="sans-serif" font-size="41.25" lengthAdjust="spacing" textLength="575.625" x="853.125" y="1612.1375">Le r&#232;glement se fait directement</text><text fill="#5B481E" font-family="sans-serif" font-size="41.25" lengthAdjust="spacing" textLength="541.875" x="853.125" y="1664.0222">entre l'&#233;leveur et le v&#233;t&#233;rinaire.</text><!--SRC=[ZPR1RkCs48RlV8f1UjWMw2vYMruhFHIGRAbT85qOwspkj3Hss4YaIrBEPa-zzju7wB6wzmtq9dsIZcGveMn5QP0OYERZp3y_HoRVmCe-PWY9olD2mh-__mcfu5lDynmDH1dkvqfAJ2mpzqBkE0LWpPFxhLQ5JESgKng-YPiVXqXt0aR-fVF4tF5KFGYvXGtF33gH9b6Yj4GDex4Jo8H4-xX3KDhUAJSxRdYHsLX9-v7d22ikpGgrsFGpA_4LOUnclX4smy7bJyHXiTyNQfiVpIPZR-40WTRgeGrwq_V1x2peh1vVUVuqF0LkxaHoBz4O6BtpdE17PJ7iST-F_5DAwHHrIqJJ8FAc9uGZOXfw_YXouakgmRVT95T1E0jcFT2P7YyEulVdeEjPJ2Kd_SXX7jSgIrrN4YlsmZwU5xkC_NZIHxhQn_5iqNMvfGRtiMKMWkTAfds-JnR-m09NmSA_cexZtevU53dFk37Xgo_R0Hjijq5-Hax8MRx8YoTHS0eF6HD9sxiLfy9QRb3PWHcgjhAyP-YZHJoBHsVOOAq66IhrsM32JK-nW6RQxm7TSfDevbrTdaE3lU5l1Se4hyM6_kJ92pSFlVbeY7vr1uuhbbnRaOWTb_RrvleM3JPwN40ZhVJ_5tN0XtUiHN-YXBlppBCuZ1SlueDUIfMYmLttnD5StZSFfpqlwYzSRuM4lj2Ifsbzj7cTRxGdzuxXaMjQgBxqBpiy6v_ExJFCU66LBF8rQiPh3w7wWyvfB3HmEhAl8xQkJUBw4Iu-I8jwmnE41rnVrF7F7rX24wbL1XVEyTx4WkMIfTpoDOqjN8JrPqg_H5GbcWPPX6tDswgqLQc5v49Z7RcDRXYpzU48dr2c-FNjNXK6zXsECT87Rtya6V0397TA6661BXu6zLwGJ6p-ItHLIkG58unWqaLqYZcdlFgG_PQIV_iTgqD4B482K6hS2cEfJiQF-94WUOH8PSL6TEAiZZmfKd8ZD5qAL04QDmNTL5m9LdDXEmhIgaoe1oMxKdBge_eBVbMqAMI8eHqix96eBUXAEIPXJEqi5NwshnLKbGoW8pIh_h55tIcwF56ktfnhUYFqfwhacJ1LIOO1l6oPFd3Srb80tAtAk30q3hGtV2zEopndqG55gGefOemw92FtTA-ZJDyt0m9mJNghlxSPvYWjRJlT1sa2KXgEn3RFYA7FMj2RgcpdcjoaFZkZzAwkKPk8_m40]--></g></svg>