<?plantuml 1.2026.1?><svg xmlns="http://www.w3.org/2000/svg" xmlns:xlink="http://www.w3.org/1999/xlink" contentStyleType="text/css" data-diagram-type="ACTIVITY" height="1363.125px" preserveAspectRatio="none" style="width:2476px;height:1363px;background:#FFFFFF;" version="1.1" viewBox="0 0 2476 1363" width="2476.875px" zoomAndPan="magnify"><title>Prendre un rendez-vous v&#233;t&#233;rinaire &#8212; vue simplifi&#233;e</title><defs/><g><g class="title" data-source-line="51"><text fill="#17324D" font-family="sans-serif" font-size="37.5" font-weight="bold" lengthAdjust="spacing" textLength="1114.3982" x="678.5852" y="72.3083">Prendre un rendez-vous v&#233;t&#233;rinaire &#8212; vue simplifi&#233;e</text></g><rect fill="none" height="30.5566" style="stroke:none;stroke-width:1.875;" width="2415.3186" x="28.125" y="105.1556"/><ellipse cx="493.342" cy="163.8373" fill="#222222" rx="18.75" ry="18.75" style="stroke:#222222;stroke-width:1.875;"/><rect fill="#F0F8F3" height="98.6133" rx="11.25" ry="11.25" style="stroke:#2F7D5B;stroke-width:0.9375;" width="364.7791" x="310.9525" y="220.0873"/><text fill="#17324D" font-family="sans-serif" font-size="26.25" lengthAdjust="spacing" textLength="291.557" x="329.7025" y="263.2031">Choisir un v&#233;t&#233;rinaire,</text><text fill="#17324D" font-family="sans-serif" font-size="26.25" lengthAdjust="spacing" textLength="327.2791" x="329.7025" y="293.7598">un service et un cr&#233;neau</text><rect fill="#F0F8F3" height="98.6133" rx="11.25" ry="11.25" style="stroke:#2F7D5B;stroke-width:0.9375;" width="416.9202" x="39.375" y="889.0521"/><text fill="#17324D" font-family="sans-serif" font-size="26.25" lengthAdjust="spacing" textLength="379.4202" x="58.125" y="932.168">Se pr&#233;senter au rendez-vous</text><text fill="#17324D" font-family="sans-serif" font-size="26.25" lengthAdjust="spacing" textLength="295.9277" x="58.125" y="962.7246">et r&#233;gler le v&#233;t&#233;rinaire</text><rect fill="#F0F8F3" height="68.0566" rx="11.25" ry="11.25" style="stroke:#2F7D5B;stroke-width:0.9375;" width="392.3877" x="51.6412" y="1130.722"/><text fill="#17324D" font-family="sans-serif" font-size="26.25" lengthAdjust="spacing" textLength="354.8877" x="70.3912" y="1173.8379">Laisser une note et un avis</text><rect fill="#F0F8F3" height="68.0566" rx="11.25" ry="11.25" style="stroke:#2F7D5B;stroke-width:0.9375;" width="302.3712" x="587.6633" y="649.8138"/><text fill="#17324D" font-family="sans-serif" font-size="26.25" lengthAdjust="spacing" textLength="264.8712" x="606.4133" y="692.9297">Refuser la demande</text><line style="stroke:#000000;stroke-width:2.8125;" x1="28.125" x2="28.125" y1="105.1556" y2="1341.2787"/><rect fill="#F0F8F3" height="68.0566" rx="11.25" ry="11.25" style="stroke:#2F7D5B;stroke-width:0.9375;" width="363.9587" x="1100.2213" y="356.2006"/><text fill="#17324D" font-family="sans-serif" font-size="26.25" lengthAdjust="spacing" textLength="326.4587" x="1118.9713" y="399.3164">Transmettre la demande</text><rect fill="#F0F8F3" height="68.0566" rx="11.25" ry="11.25" style="stroke:#2F7D5B;stroke-width:0.9375;" width="255.8185" x="908.7845" y="755.3705"/><text fill="#17324D" font-family="sans-serif" font-size="26.25" lengthAdjust="spacing" textLength="218.3185" x="927.5345" y="798.4863">Notifier l'&#233;leveur</text><rect fill="#F0F8F3" height="98.6133" rx="11.25" ry="11.25" style="stroke:#2F7D5B;stroke-width:0.9375;" width="490.1074" x="1282.6538" y="755.3705"/><text fill="#17324D" font-family="sans-serif" font-size="26.25" lengthAdjust="spacing" textLength="253.1049" x="1301.4038" y="798.4863">Notifier l'&#233;leveur et</text><text fill="#17324D" font-family="sans-serif" font-size="26.25" lengthAdjust="spacing" textLength="452.6074" x="1301.4038" y="829.043">l'inviter &#224; choisir un autre cr&#233;neau</text><ellipse cx="1282.2006" cy="1320.6537" fill="none" rx="20.625" ry="20.625" style="stroke:#222222;stroke-width:1.875;"/><ellipse cx="1282.2006" cy="1320.6537" fill="#222222" rx="11.25" ry="11.25" style="stroke:#222222;stroke-width:1.875;"/><line style="stroke:#000000;stroke-width:2.8125;" x1="897.5345" x2="897.5345" y1="105.1556" y2="1341.2787"/><rect fill="#F0F8F3" height="68.0566" rx="11.25" ry="11.25" style="stroke:#2F7D5B;stroke-width:0.9375;" width="338.8879" x="2052.5977" y="461.7572"/><text fill="#17324D" font-family="sans-serif" font-size="26.25" lengthAdjust="spacing" textLength="301.3879" x="2071.3477" y="504.873">V&#233;rifier sa disponibilit&#233;</text><polygon fill="#FFF3D8" points="2084.1458,567.3138,2359.9374,567.3138,2382.4374,589.8138,2359.9374,612.3138,2084.1458,612.3138,2061.6458,589.8138,2084.1458,567.3138" style="stroke:#D8952F;stroke-width:0.9375;"/><text fill="#17324D" font-family="sans-serif" font-size="26.25" lengthAdjust="spacing" textLength="275.7916" x="2084.1458" y="598.9014">Cr&#233;neau disponible ?</text><text fill="#29485B" font-family="sans-serif" font-size="26.25" lengthAdjust="spacing" textLength="39.9902" x="2021.6556" y="583.623">oui</text><text fill="#29485B" font-family="sans-serif" font-size="26.25" lengthAdjust="spacing" textLength="49.3341" x="2382.4374" y="583.623">non</text><rect fill="#F0F8F3" height="68.0566" rx="11.25" ry="11.25" style="stroke:#2F7D5B;stroke-width:0.9375;" width="370.047" x="1791.5112" y="649.8138"/><text fill="#17324D" font-family="sans-serif" font-size="26.25" lengthAdjust="spacing" textLength="332.547" x="1810.2612" y="692.9297">Confirmer le rendez-vous</text><rect fill="#F0F8F3" height="68.0566" rx="11.25" ry="11.25" style="stroke:#2F7D5B;stroke-width:0.9375;" width="345.5273" x="1803.7711" y="1025.1654"/><text fill="#17324D" font-family="sans-serif" font-size="26.25" lengthAdjust="spacing" textLength="308.0273" x="1822.5211" y="1068.2813">Cl&#244;turer le rendez-vous</text><polygon fill="#FFF3D8" points="2222.0416,1217.5287,2244.5416,1240.0287,2222.0416,1262.5287,2199.5416,1240.0287,2222.0416,1217.5287" style="stroke:#D8952F;stroke-width:0.9375;"/><line style="stroke:#000000;stroke-width:2.8125;" x1="1780.2612" x2="1780.2612" y1="105.1556" y2="1341.2787"/><line style="stroke:#000000;stroke-width:2.8125;" x1="2441.1465" x2="2441.1465" y1="105.1556" y2="1341.2787"/><line style="stroke:#456A7D;stroke-width:2.625;" x1="493.342" x2="493.342" y1="182.5873" y2="220.0873"/><polygon fill="#456A7D" points="485.842,201.3373,493.342,220.0873,500.842,201.3373,493.342,208.8373" style="stroke:#456A7D;stroke-width:1.875;"/><line style="stroke:#456A7D;stroke-width:2.625;" x1="2061.6458" x2="1976.5347" y1="589.8138" y2="589.8138"/><line style="stroke:#456A7D;stroke-width:2.625;" x1="1976.5347" x2="1976.5347" y1="589.8138" y2="649.8138"/><polygon fill="#456A7D" points="1969.0347,631.0638,1976.5347,649.8138,1984.0347,631.0638,1976.5347,638.5638" style="stroke:#456A7D;stroke-width:1.875;"/><line style="stroke:#456A7D;stroke-width:2.625;" x1="2222.0416" x2="2222.0416" y1="529.8138" y2="567.3138"/><polygon fill="#456A7D" points="2214.5416,548.5638,2222.0416,567.3138,2229.5416,548.5638,2222.0416,556.0638" style="stroke:#456A7D;stroke-width:1.875;"/><line style="stroke:#456A7D;stroke-width:2.625;" x1="493.342" x2="493.342" y1="318.7006" y2="328.0756"/><line style="stroke:#456A7D;stroke-width:2.625;" x1="493.342" x2="1282.2006" y1="328.0756" y2="328.0756"/><line style="stroke:#456A7D;stroke-width:2.625;" x1="1282.2006" x2="1282.2006" y1="328.0756" y2="356.2006"/><polygon fill="#456A7D" points="1274.7006,337.4506,1282.2006,356.2006,1289.7006,337.4506,1282.2006,344.9506" style="stroke:#456A7D;stroke-width:1.875;"/><line style="stroke:#456A7D;stroke-width:2.625;" x1="1282.2006" x2="1282.2006" y1="424.2572" y2="433.6322"/><line style="stroke:#456A7D;stroke-width:2.625;" x1="1282.2006" x2="2222.0416" y1="433.6322" y2="433.6322"/><line style="stroke:#456A7D;stroke-width:2.625;" x1="2222.0416" x2="2222.0416" y1="433.6322" y2="461.7572"/><polygon fill="#456A7D" points="2214.5416,443.0072,2222.0416,461.7572,2229.5416,443.0072,2222.0416,450.5072" style="stroke:#456A7D;stroke-width:1.875;"/><line style="stroke:#456A7D;stroke-width:2.625;" x1="1976.5347" x2="1976.5347" y1="717.8705" y2="727.2455"/><line style="stroke:#456A7D;stroke-width:2.625;" x1="1976.5347" x2="1036.6937" y1="727.2455" y2="727.2455"/><line style="stroke:#456A7D;stroke-width:2.625;" x1="1036.6937" x2="1036.6937" y1="727.2455" y2="755.3705"/><polygon fill="#456A7D" points="1029.1937,736.6205,1036.6937,755.3705,1044.1937,736.6205,1036.6937,744.1205" style="stroke:#456A7D;stroke-width:1.875;"/><line style="stroke:#456A7D;stroke-width:2.625;" x1="1036.6937" x2="1036.6937" y1="823.4271" y2="856.2396"/><line style="stroke:#456A7D;stroke-width:2.625;" x1="1036.6937" x2="247.8351" y1="856.2396" y2="856.2396"/><line style="stroke:#456A7D;stroke-width:2.625;" x1="247.8351" x2="247.8351" y1="856.2396" y2="889.0521"/><polygon fill="#456A7D" points="240.3351,870.3021,247.8351,889.0521,255.3351,870.3021,247.8351,877.8021" style="stroke:#456A7D;stroke-width:1.875;"/><line style="stroke:#456A7D;stroke-width:2.625;" x1="247.8351" x2="247.8351" y1="987.6654" y2="997.0404"/><line style="stroke:#456A7D;stroke-width:2.625;" x1="247.8351" x2="1976.5347" y1="997.0404" y2="997.0404"/><line style="stroke:#456A7D;stroke-width:2.625;" x1="1976.5347" x2="1976.5347" y1="997.0404" y2="1025.1654"/><polygon fill="#456A7D" points="1969.0347,1006.4154,1976.5347,1025.1654,1984.0347,1006.4154,1976.5347,1013.9154" style="stroke:#456A7D;stroke-width:1.875;"/><line style="stroke:#456A7D;stroke-width:2.625;" x1="1976.5347" x2="1976.5347" y1="1093.222" y2="1102.597"/><line style="stroke:#456A7D;stroke-width:2.625;" x1="1976.5347" x2="247.8351" y1="1102.597" y2="1102.597"/><line style="stroke:#456A7D;stroke-width:2.625;" x1="247.8351" x2="247.8351" y1="1102.597" y2="1130.722"/><polygon fill="#456A7D" points="240.3351,1111.972,247.8351,1130.722,255.3351,1111.972,247.8351,1119.472" style="stroke:#456A7D;stroke-width:1.875;"/><line style="stroke:#456A7D;stroke-width:2.625;" x1="738.8489" x2="738.8489" y1="717.8705" y2="727.2455"/><line style="stroke:#456A7D;stroke-width:2.625;" x1="738.8489" x2="1527.7075" y1="727.2455" y2="727.2455"/><line style="stroke:#456A7D;stroke-width:2.625;" x1="1527.7075" x2="1527.7075" y1="727.2455" y2="755.3705"/><polygon fill="#456A7D" points="1520.2075,736.6205,1527.7075,755.3705,1535.2075,736.6205,1527.7075,744.1205" style="stroke:#456A7D;stroke-width:1.875;"/><line style="stroke:#456A7D;stroke-width:2.625;" x1="2382.4374" x2="2404.9374" y1="589.8138" y2="589.8138"/><line style="stroke:#456A7D;stroke-width:2.625;" x1="2404.9374" x2="2404.9374" y1="589.8138" y2="623.5638"/><line style="stroke:#456A7D;stroke-width:2.625;" x1="2404.9374" x2="738.8489" y1="623.5638" y2="623.5638"/><line style="stroke:#456A7D;stroke-width:2.625;" x1="738.8489" x2="738.8489" y1="623.5638" y2="649.8138"/><polygon fill="#456A7D" points="731.3489,631.0638,738.8489,649.8138,746.3489,631.0638,738.8489,638.5638" style="stroke:#456A7D;stroke-width:1.875;"/><line style="stroke:#456A7D;stroke-width:2.625;" x1="247.8351" x2="247.8351" y1="1198.7787" y2="1240.0287"/><line style="stroke:#456A7D;stroke-width:2.625;" x1="247.8351" x2="2199.5416" y1="1240.0287" y2="1240.0287"/><polygon fill="#456A7D" points="2180.7916,1232.5287,2199.5416,1240.0287,2180.7916,1247.5287,2188.2916,1240.0287" style="stroke:#456A7D;stroke-width:1.875;"/><line style="stroke:#456A7D;stroke-width:2.625;" x1="1527.7075" x2="1527.7075" y1="853.9838" y2="1206.2787"/><line style="stroke:#456A7D;stroke-width:2.625;" x1="1527.7075" x2="2278.2916" y1="1206.2787" y2="1206.2787"/><line style="stroke:#456A7D;stroke-width:2.625;" x1="2278.2916" x2="2278.2916" y1="1206.2787" y2="1240.0287"/><line style="stroke:#456A7D;stroke-width:2.625;" x1="2278.2916" x2="2244.5416" y1="1240.0287" y2="1240.0287"/><polygon fill="#456A7D" points="2263.2916,1232.5287,2244.5416,1240.0287,2263.2916,1247.5287,2255.7916,1240.0287" style="stroke:#456A7D;stroke-width:1.875;"/><line style="stroke:#456A7D;stroke-width:2.625;" x1="2222.0416" x2="2222.0416" y1="1262.5287" y2="1271.9037"/><line style="stroke:#456A7D;stroke-width:2.625;" x1="2222.0416" x2="1282.2006" y1="1271.9037" y2="1271.9037"/><line style="stroke:#456A7D;stroke-width:2.625;" x1="1282.2006" x2="1282.2006" y1="1271.9037" y2="1300.0287"/><polygon fill="#456A7D" points="1274.7006,1281.2787,1282.2006,1300.0287,1289.7006,1281.2787,1282.2006,1288.7787" style="stroke:#456A7D;stroke-width:1.875;"/><text fill="#000000" font-family="sans-serif" font-size="26.25" lengthAdjust="spacing" textLength="99.1425" x="413.2585" y="129.5215">&#201;leveur</text><text fill="#000000" font-family="sans-serif" font-size="26.25" lengthAdjust="spacing" textLength="286.4813" x="1195.6572" y="129.5215">Syst&#232;me ElevConnect</text><text fill="#000000" font-family="sans-serif" font-size="26.25" lengthAdjust="spacing" textLength="145.5927" x="2037.9076" y="129.5215">V&#233;t&#233;rinaire</text><?plantuml-src bPR1Rjj648RlV8e1Uh03j8ObKP5i7m9A8jD3O1YLw_kQ6ae3BtUPtQLI1pxasdiVeCVgtZVWc_H9EfIOU2NHT290WCJvPkQVVoaDJs3k7YL2glEyLF3VbxzWGM9fH9wZXLZYUggLmjG59p2_Um-Na6cJ2mThlgODeGI53gg_mUdI8JX1Kk8Pt5pNBFvHQEDW9UhGejfafCYHLcU1VI1L26u3zo9zM1fTgiLKIstWfsJxyeX5GT0RdtjNx4eiz2TIIyY4jEX5jeLIRHGQwFMzW2JM-LWWiA2LzgjZ9ahf4gtSjSWHvaBPEHhAsfavVKReXLxmbfp4plHln3QvVzuMQeRlZGRzSEO1aJ7wKnCCXs-ZqL7Go-vVXEFXv12uNL7weD1Qw9tvmg-rmqcB--DuV4Xfiq3J4F4mYiFX0U6964x2SI_suZVSGoptYrn4ar4qQe6Ez8H9bBmz1dtF4cuvQ4TsT_UzbWlVbTJHcjpZSRFpP9mCsaXVUpyPpVPTRgZESsoO6ObSgqMRxuFPk2F1Lp0RNmpxIUj4BugSIc7jvDKVsmxh77UB_8g2aQDwSPWCukWGxZ8cLgxrA0w5DLodiXtJrMtkHCjD7y-IKT8xmZfxRP6kLhzRJ8LjQHRnFJrk0VrsWtWKNfmVGvspuSSILOeVAEEtElZ1JIVXjDT5lte2NpDkX76KKY6KUtsujgJEGRycHFL--NvHExpxn1hqFHSiZYkFaaaoUn5lyJ9mzPytt1XK2uF0wxF-X9z_MUlImhhQk6fZI0dYOBrOroM2fRoGb56rmI1uglxa1OkbUGgiOt-2o-bAaoLJrzhB_pdWAnRDcb84thVyBJNLHg4ehuAd-QDrrJ-yVBnz_HHStXhUHJawn_sbu2MM2vR7_9rVci6x-aj6l38jOsGBhUYU935q5L06fzEcrxSWZ_tk3RWLAZZL9Rq902wvSKOcvoeSzPouuk0B4ZcBbyUkjJofDZitjWdFrZ0qHoXOWaNbc6GTNlc0xU3OKkuQxzcshNGmRQrKLl-wqhGhtMlyGP1bszbl1CLhhl5Uh8bXv4SFE5LQRSV_3REoHdsdVt1mhXx84rByJyxN-PagVRuT-16AZ_7vq5br_OpXTF4_?></g></svg>