<?plantuml 1.2026.1?><svg xmlns="http://www.w3.org/2000/svg" xmlns:xlink="http://www.w3.org/1999/xlink" contentStyleType="text/css" data-diagram-type="ACTIVITY" height="1873.125px" preserveAspectRatio="none" style="width:3682px;height:1873px;background:#FFFFFF;" version="1.1" viewBox="0 0 3682 1873" width="3682.5px" zoomAndPan="magnify"><title>Passer une commande &#8212; vue simplifi&#233;e</title><defs/><g><g class="title" data-source-line="51"><text fill="#17324D" font-family="sans-serif" font-size="37.5" font-weight="bold" lengthAdjust="spacing" textLength="836.792" x="1420.6719" y="72.3083">Passer une commande &#8212; vue simplifi&#233;e</text></g><rect fill="none" height="30.5566" style="stroke:none;stroke-width:1.875;" width="3621.8858" x="28.125" y="105.1556"/><ellipse cx="1016.4799" cy="163.8373" fill="#222222" rx="18.75" ry="18.75" style="stroke:#222222;stroke-width:1.875;"/><rect fill="#F0F8F3" height="98.6133" rx="11.25" ry="11.25" style="stroke:#2F7D5B;stroke-width:0.9375;" width="485.8777" x="773.5411" y="220.0873"/><text fill="#17324D" font-family="sans-serif" font-size="26.25" lengthAdjust="spacing" textLength="277.1759" x="792.2911" y="263.2031">Choisir une annonce,</text><text fill="#17324D" font-family="sans-serif" font-size="26.25" lengthAdjust="spacing" textLength="448.3777" x="792.2911" y="293.7598">une quantit&#233; et le mode de retrait</text><rect fill="#F0F8F3" height="68.0566" rx="11.25" ry="11.25" style="stroke:#2F7D5B;stroke-width:0.9375;" width="299.1284" x="512.0574" y="710.9271"/><text fill="#17324D" font-family="sans-serif" font-size="26.25" lengthAdjust="spacing" textLength="261.6284" x="530.8074" y="754.043">Payer la commande</text><rect fill="#F0F8F3" height="98.6133" rx="11.25" ry="11.25" style="stroke:#2F7D5B;stroke-width:0.9375;" width="330.3644" x="39.375" y="1414.1986"/><text fill="#17324D" font-family="sans-serif" font-size="26.25" lengthAdjust="spacing" textLength="292.8644" x="58.125" y="1457.3145">Scanner le QR code et</text><text fill="#17324D" font-family="sans-serif" font-size="26.25" lengthAdjust="spacing" textLength="291.5057" x="58.125" y="1487.8711">confirmer la r&#233;ception</text><rect fill="#F0F8F3" height="98.6133" rx="11.25" ry="11.25" style="stroke:#2F7D5B;stroke-width:0.9375;" width="332.9022" x="388.4894" y="1117.597"/><text fill="#17324D" font-family="sans-serif" font-size="26.25" lengthAdjust="spacing" textLength="295.4022" x="407.2394" y="1160.7129">Confirmer la r&#233;ception</text><text fill="#17324D" font-family="sans-serif" font-size="26.25" lengthAdjust="spacing" textLength="248.7213" x="407.2394" y="1191.2695">chez le fournisseur</text><line style="stroke:#000000;stroke-width:2.8125;" x1="28.125" x2="28.125" y1="105.1556" y2="1851.4252"/><rect fill="#F0F8F3" height="98.6133" rx="11.25" ry="11.25" style="stroke:#2F7D5B;stroke-width:0.9375;" width="292.3224" x="2138.0202" y="356.2006"/><text fill="#17324D" font-family="sans-serif" font-size="26.25" lengthAdjust="spacing" textLength="240.249" x="2156.7702" y="399.3164">V&#233;rifier le stock et</text><text fill="#17324D" font-family="sans-serif" font-size="26.25" lengthAdjust="spacing" textLength="254.8224" x="2156.7702" y="429.873">calculer le montant</text><polygon fill="#FFF3D8" points="2165.3515,492.3138,2403.0114,492.3138,2425.5114,514.8138,2403.0114,537.3138,2165.3515,537.3138,2142.8515,514.8138,2165.3515,492.3138" style="stroke:#D8952F;stroke-width:0.9375;"/><text fill="#17324D" font-family="sans-serif" font-size="26.25" lengthAdjust="spacing" textLength="237.6599" x="2165.3515" y="523.9014">Stock disponible ?</text><text fill="#29485B" font-family="sans-serif" font-size="26.25" lengthAdjust="spacing" textLength="39.9902" x="2102.8613" y="508.623">oui</text><text fill="#29485B" font-family="sans-serif" font-size="26.25" lengthAdjust="spacing" textLength="49.3341" x="2425.5114" y="508.623">non</text><rect fill="#F0F8F3" height="98.6133" rx="11.25" ry="11.25" style="stroke:#2F7D5B;stroke-width:0.9375;" width="370.2521" x="1744.1971" y="574.8138"/><text fill="#17324D" font-family="sans-serif" font-size="26.25" lengthAdjust="spacing" textLength="294.2358" x="1762.9471" y="617.9297">Cr&#233;er la commande et</text><text fill="#17324D" font-family="sans-serif" font-size="26.25" lengthAdjust="spacing" textLength="332.7521" x="1762.9471" y="648.4863">le code QR d'authenticit&#233;</text><polygon fill="#FFF3D8" points="1513.0194,1035.097,1753.1787,1035.097,1775.6787,1057.597,1753.1787,1080.097,1513.0194,1080.097,1490.5194,1057.597,1513.0194,1035.097" style="stroke:#D8952F;stroke-width:0.9375;"/><text fill="#17324D" font-family="sans-serif" font-size="26.25" lengthAdjust="spacing" textLength="240.1593" x="1513.0194" y="1066.6846">Livraison choisie ?</text><text fill="#29485B" font-family="sans-serif" font-size="26.25" lengthAdjust="spacing" textLength="39.9902" x="1450.5291" y="1051.4063">oui</text><text fill="#29485B" font-family="sans-serif" font-size="26.25" lengthAdjust="spacing" textLength="165.6647" x="1775.6787" y="1051.4063">retrait direct</text><rect fill="#F0F8F3" height="98.6133" rx="11.25" ry="11.25" style="stroke:#2F7D5B;stroke-width:0.9375;" width="330.7745" x="1278.1688" y="1117.597"/><text fill="#17324D" font-family="sans-serif" font-size="26.25" lengthAdjust="spacing" textLength="266.7554" x="1296.9188" y="1160.7129">Proposer la livraison</text><text fill="#17324D" font-family="sans-serif" font-size="26.25" lengthAdjust="spacing" textLength="293.2745" x="1296.9188" y="1191.2695">&#224; un livreur disponible</text><polygon fill="#FFF3D8" points="1633.099,1531.5619,1655.599,1554.0619,1633.099,1576.5619,1610.599,1554.0619,1633.099,1531.5619" style="stroke:#D8952F;stroke-width:0.9375;"/><rect fill="#F0F8F3" height="98.6133" rx="11.25" ry="11.25" style="stroke:#2F7D5B;stroke-width:0.9375;" width="390.3882" x="1437.9049" y="1614.0619"/><text fill="#17324D" font-family="sans-serif" font-size="26.25" lengthAdjust="spacing" textLength="352.8882" x="1456.6549" y="1657.1777">Confirmer la commande et</text><text fill="#17324D" font-family="sans-serif" font-size="26.25" lengthAdjust="spacing" textLength="304.7589" x="1456.6549" y="1687.7344">verser les b&#233;n&#233;ficiaires</text><ellipse cx="1633.099" cy="1770.8002" fill="none" rx="20.625" ry="20.625" style="stroke:#222222;stroke-width:1.875;"/><ellipse cx="1633.099" cy="1770.8002" fill="#222222" rx="11.25" ry="11.25" style="stroke:#222222;stroke-width:1.875;"/><rect fill="#F0F8F3" height="98.6133" rx="11.25" ry="11.25" style="stroke:#2F7D5B;stroke-width:0.9375;" width="360.4083" x="2045.3431" y="1035.097"/><text fill="#17324D" font-family="sans-serif" font-size="26.25" lengthAdjust="spacing" textLength="322.9083" x="2064.0931" y="1078.2129">Refuser la commande et</text><text fill="#17324D" font-family="sans-serif" font-size="26.25" lengthAdjust="spacing" textLength="293.313" x="2064.0931" y="1108.7695">rembourser l'acheteur</text><ellipse cx="2225.5473" cy="1219.9603" fill="none" rx="20.625" ry="20.625" style="stroke:#222222;stroke-width:1.875;"/><ellipse cx="2225.5473" cy="1219.9603" fill="#222222" rx="11.25" ry="11.25" style="stroke:#222222;stroke-width:1.875;"/><rect fill="#F0F8F3" height="98.6133" rx="11.25" ry="11.25" style="stroke:#2F7D5B;stroke-width:0.9375;" width="354.0765" x="2462.0015" y="574.8138"/><text fill="#17324D" font-family="sans-serif" font-size="26.25" lengthAdjust="spacing" textLength="310.8087" x="2480.7515" y="617.9297">Informer l'acheteur que</text><text fill="#17324D" font-family="sans-serif" font-size="26.25" lengthAdjust="spacing" textLength="316.5765" x="2480.7515" y="648.4863">le stock est indisponible</text><ellipse cx="2639.0397" cy="731.5521" fill="none" rx="20.625" ry="20.625" style="stroke:#222222;stroke-width:1.875;"/><ellipse cx="2639.0397" cy="731.5521" fill="#222222" rx="11.25" ry="11.25" style="stroke:#222222;stroke-width:1.875;"/><line style="stroke:#000000;stroke-width:2.8125;" x1="1266.9188" x2="1266.9188" y1="105.1556" y2="1851.4252"/><rect fill="#F0F8F3" height="98.6133" rx="11.25" ry="11.25" style="stroke:#2F7D5B;stroke-width:0.9375;" width="297.193" x="2897.8675" y="816.4838"/><text fill="#17324D" font-family="sans-serif" font-size="26.25" lengthAdjust="spacing" textLength="259.693" x="2916.6175" y="859.5996">Accepter ou refuser</text><text fill="#17324D" font-family="sans-serif" font-size="26.25" lengthAdjust="spacing" textLength="178.8922" x="2916.6175" y="890.1563">la commande</text><polygon fill="#FFF3D8" points="2895.4432,952.597,3197.4849,952.597,3219.9849,975.097,3197.4849,997.597,2895.4432,997.597,2872.9432,975.097,2895.4432,952.597" style="stroke:#D8952F;stroke-width:0.9375;"/><text fill="#17324D" font-family="sans-serif" font-size="26.25" lengthAdjust="spacing" textLength="302.0416" x="2895.4432" y="984.1846">Commande accept&#233;e ?</text><text fill="#29485B" font-family="sans-serif" font-size="26.25" lengthAdjust="spacing" textLength="39.9902" x="2832.953" y="968.9063">oui</text><text fill="#29485B" font-family="sans-serif" font-size="26.25" lengthAdjust="spacing" textLength="49.3341" x="3219.9849" y="968.9063">non</text><line style="stroke:#000000;stroke-width:2.8125;" x1="2823.578" x2="2823.578" y1="105.1556" y2="1851.4252"/><rect fill="#F0F8F3" height="98.6133" rx="11.25" ry="11.25" style="stroke:#2F7D5B;stroke-width:0.9375;" width="350.2698" x="3289.944" y="1278.0853"/><text fill="#17324D" font-family="sans-serif" font-size="26.25" lengthAdjust="spacing" textLength="262.4231" x="3308.694" y="1321.2012">Livrer la commande</text><text fill="#17324D" font-family="sans-serif" font-size="26.25" lengthAdjust="spacing" textLength="312.7698" x="3308.694" y="1351.7578">et pr&#233;senter le QR code</text><line style="stroke:#000000;stroke-width:2.8125;" x1="3278.694" x2="3278.694" y1="105.1556" y2="1851.4252"/><line style="stroke:#000000;stroke-width:2.8125;" x1="3647.7137" x2="3647.7137" y1="105.1556" y2="1851.4252"/><line style="stroke:#456A7D;stroke-width:2.625;" x1="1016.4799" x2="1016.4799" y1="182.5873" y2="220.0873"/><polygon fill="#456A7D" points="1008.9799,201.3373,1016.4799,220.0873,1023.9799,201.3373,1016.4799,208.8373" style="stroke:#456A7D;stroke-width:1.875;"/><line style="stroke:#456A7D;stroke-width:2.625;" x1="1490.5194" x2="1443.556" y1="1057.597" y2="1057.597"/><line style="stroke:#456A7D;stroke-width:2.625;" x1="1443.556" x2="1443.556" y1="1057.597" y2="1117.597"/><polygon fill="#456A7D" points="1436.056,1098.847,1443.556,1117.597,1451.056,1098.847,1443.556,1106.347" style="stroke:#456A7D;stroke-width:1.875;"/><line style="stroke:#456A7D;stroke-width:2.625;" x1="1633.099" x2="1633.099" y1="1576.5619" y2="1614.0619"/><polygon fill="#456A7D" points="1625.599,1595.3119,1633.099,1614.0619,1640.599,1595.3119,1633.099,1602.8119" style="stroke:#456A7D;stroke-width:1.875;"/><line style="stroke:#456A7D;stroke-width:2.625;" x1="1633.099" x2="1633.099" y1="1712.6752" y2="1750.1752"/><polygon fill="#456A7D" points="1625.599,1731.4252,1633.099,1750.1752,1640.599,1731.4252,1633.099,1738.9252" style="stroke:#456A7D;stroke-width:1.875;"/><line style="stroke:#456A7D;stroke-width:2.625;" x1="2225.5473" x2="2225.5473" y1="1133.7103" y2="1199.3353"/><polygon fill="#456A7D" points="2218.0473,1180.5853,2225.5473,1199.3353,2233.0473,1180.5853,2225.5473,1188.0853" style="stroke:#456A7D;stroke-width:1.875;"/><line style="stroke:#456A7D;stroke-width:2.625;" x1="2639.0397" x2="2639.0397" y1="673.4271" y2="710.9271"/><polygon fill="#456A7D" points="2631.5397,692.1771,2639.0397,710.9271,2646.5397,692.1771,2639.0397,699.6771" style="stroke:#456A7D;stroke-width:1.875;"/><line style="stroke:#456A7D;stroke-width:2.625;" x1="2142.8515" x2="1929.3232" y1="514.8138" y2="514.8138"/><line style="stroke:#456A7D;stroke-width:2.625;" x1="1929.3232" x2="1929.3232" y1="514.8138" y2="574.8138"/><polygon fill="#456A7D" points="1921.8232,556.0638,1929.3232,574.8138,1936.8232,556.0638,1929.3232,563.5638" style="stroke:#456A7D;stroke-width:1.875;"/><line style="stroke:#456A7D;stroke-width:2.625;" x1="2425.5114" x2="2639.0397" y1="514.8138" y2="514.8138"/><line style="stroke:#456A7D;stroke-width:2.625;" x1="2639.0397" x2="2639.0397" y1="514.8138" y2="574.8138"/><polygon fill="#456A7D" points="2631.5397,556.0638,2639.0397,574.8138,2646.5397,556.0638,2639.0397,563.5638" style="stroke:#456A7D;stroke-width:1.875;"/><line style="stroke:#456A7D;stroke-width:2.625;" x1="2284.1814" x2="2284.1814" y1="454.8138" y2="492.3138"/><polygon fill="#456A7D" points="2276.6814,473.5638,2284.1814,492.3138,2291.6814,473.5638,2284.1814,481.0638" style="stroke:#456A7D;stroke-width:1.875;"/><line style="stroke:#456A7D;stroke-width:2.625;" x1="3046.464" x2="3046.464" y1="915.097" y2="952.597"/><polygon fill="#456A7D" points="3038.964,933.847,3046.464,952.597,3053.964,933.847,3046.464,941.347" style="stroke:#456A7D;stroke-width:1.875;"/><line style="stroke:#456A7D;stroke-width:2.625;" x1="1016.4799" x2="1016.4799" y1="318.7006" y2="328.0756"/><line style="stroke:#456A7D;stroke-width:2.625;" x1="1016.4799" x2="2284.1814" y1="328.0756" y2="328.0756"/><line style="stroke:#456A7D;stroke-width:2.625;" x1="2284.1814" x2="2284.1814" y1="328.0756" y2="356.2006"/><polygon fill="#456A7D" points="2276.6814,337.4506,2284.1814,356.2006,2291.6814,337.4506,2284.1814,344.9506" style="stroke:#456A7D;stroke-width:1.875;"/><line style="stroke:#456A7D;stroke-width:2.625;" x1="1929.3232" x2="1929.3232" y1="673.4271" y2="682.8021"/><line style="stroke:#456A7D;stroke-width:2.625;" x1="1929.3232" x2="661.6216" y1="682.8021" y2="682.8021"/><line style="stroke:#456A7D;stroke-width:2.625;" x1="661.6216" x2="661.6216" y1="682.8021" y2="710.9271"/><polygon fill="#456A7D" points="654.1216,692.1771,661.6216,710.9271,669.1216,692.1771,661.6216,699.6771" style="stroke:#456A7D;stroke-width:1.875;"/><line style="stroke:#456A7D;stroke-width:2.625;" x1="661.6216" x2="661.6216" y1="778.9838" y2="788.3588"/><line style="stroke:#456A7D;stroke-width:2.625;" x1="661.6216" x2="3046.464" y1="788.3588" y2="788.3588"/><line style="stroke:#456A7D;stroke-width:2.625;" x1="3046.464" x2="3046.464" y1="788.3588" y2="816.4838"/><polygon fill="#456A7D" points="3038.964,797.7338,3046.464,816.4838,3053.964,797.7338,3046.464,805.2338" style="stroke:#456A7D;stroke-width:1.875;"/><line style="stroke:#456A7D;stroke-width:2.625;" x1="1443.556" x2="1443.556" y1="1216.2103" y2="1249.0228"/><line style="stroke:#456A7D;stroke-width:2.625;" x1="1443.556" x2="3465.0788" y1="1249.0228" y2="1249.0228"/><line style="stroke:#456A7D;stroke-width:2.625;" x1="3465.0788" x2="3465.0788" y1="1249.0228" y2="1278.0853"/><polygon fill="#456A7D" points="3457.5788,1259.3353,3465.0788,1278.0853,3472.5788,1259.3353,3465.0788,1266.8353" style="stroke:#456A7D;stroke-width:1.875;"/><line style="stroke:#456A7D;stroke-width:2.625;" x1="3465.0788" x2="3465.0788" y1="1376.6986" y2="1386.0736"/><line style="stroke:#456A7D;stroke-width:2.625;" x1="3465.0788" x2="204.5572" y1="1386.0736" y2="1386.0736"/><line style="stroke:#456A7D;stroke-width:2.625;" x1="204.5572" x2="204.5572" y1="1386.0736" y2="1414.1986"/><polygon fill="#456A7D" points="197.0572,1395.4486,204.5572,1414.1986,212.0572,1395.4486,204.5572,1402.9486" style="stroke:#456A7D;stroke-width:1.875;"/><line style="stroke:#456A7D;stroke-width:2.625;" x1="1775.6787" x2="1798.1787" y1="1057.597" y2="1057.597"/><line style="stroke:#456A7D;stroke-width:2.625;" x1="1798.1787" x2="1798.1787" y1="1057.597" y2="1091.347"/><line style="stroke:#456A7D;stroke-width:2.625;" x1="1798.1787" x2="554.9405" y1="1091.347" y2="1091.347"/><line style="stroke:#456A7D;stroke-width:2.625;" x1="554.9405" x2="554.9405" y1="1091.347" y2="1117.597"/><polygon fill="#456A7D" points="547.4405,1098.847,554.9405,1117.597,562.4405,1098.847,554.9405,1106.347" style="stroke:#456A7D;stroke-width:1.875;"/><line style="stroke:#456A7D;stroke-width:2.625;" x1="204.5572" x2="204.5572" y1="1512.8119" y2="1554.0619"/><line style="stroke:#456A7D;stroke-width:2.625;" x1="204.5572" x2="1610.599" y1="1554.0619" y2="1554.0619"/><polygon fill="#456A7D" points="1591.849,1546.5619,1610.599,1554.0619,1591.849,1561.5619,1599.349,1554.0619" style="stroke:#456A7D;stroke-width:1.875;"/><line style="stroke:#456A7D;stroke-width:2.625;" x1="554.9405" x2="554.9405" y1="1216.2103" y2="1520.3119"/><line style="stroke:#456A7D;stroke-width:2.625;" x1="554.9405" x2="1689.349" y1="1520.3119" y2="1520.3119"/><line style="stroke:#456A7D;stroke-width:2.625;" x1="1689.349" x2="1689.349" y1="1520.3119" y2="1554.0619"/><line style="stroke:#456A7D;stroke-width:2.625;" x1="1689.349" x2="1655.599" y1="1554.0619" y2="1554.0619"/><polygon fill="#456A7D" points="1674.349,1546.5619,1655.599,1554.0619,1674.349,1561.5619,1666.849,1554.0619" style="stroke:#456A7D;stroke-width:1.875;"/><line style="stroke:#456A7D;stroke-width:2.625;" x1="2872.9432" x2="1633.099" y1="975.097" y2="975.097"/><line style="stroke:#456A7D;stroke-width:2.625;" x1="1633.099" x2="1633.099" y1="975.097" y2="1035.097"/><polygon fill="#456A7D" points="1625.599,1016.347,1633.099,1035.097,1640.599,1016.347,1633.099,1023.847" style="stroke:#456A7D;stroke-width:1.875;"/><line style="stroke:#456A7D;stroke-width:2.625;" x1="3219.9849" x2="3242.4849" y1="975.097" y2="975.097"/><line style="stroke:#456A7D;stroke-width:2.625;" x1="3242.4849" x2="3242.4849" y1="975.097" y2="1008.847"/><line style="stroke:#456A7D;stroke-width:2.625;" x1="3242.4849" x2="2225.5473" y1="1008.847" y2="1008.847"/><line style="stroke:#456A7D;stroke-width:2.625;" x1="2225.5473" x2="2225.5473" y1="1008.847" y2="1035.097"/><polygon fill="#456A7D" points="2218.0473,1016.347,2225.5473,1035.097,2233.0473,1016.347,2225.5473,1023.847" style="stroke:#456A7D;stroke-width:1.875;"/><text fill="#000000" font-family="sans-serif" font-size="26.25" lengthAdjust="spacing" textLength="119.0479" x="587.998" y="129.5215">Acheteur</text><text fill="#000000" font-family="sans-serif" font-size="26.25" lengthAdjust="spacing" textLength="286.4813" x="1902.0077" y="129.5215">Syst&#232;me ElevConnect</text><text fill="#000000" font-family="sans-serif" font-size="26.25" lengthAdjust="spacing" textLength="153.4497" x="2974.4111" y="129.5215">Fournisseur</text><text fill="#000000" font-family="sans-serif" font-size="26.25" lengthAdjust="spacing" textLength="91.8237" x="3417.292" y="129.5215">Livreur</text><?plantuml-src ZLR1Rjiu4BtpAmZqa0GeWjYMQySvB6HRwXO8WcpTxPsMHZ4HYLH9ogqB7_eH-m5xN7-7_wHVqX4bDvIjo1iaGAHvy-RD6rBa1LsOJGeqabbM2Fhpnpyqvkn9iIm3JOCKrZCf14I6ND35v_TqGXEfCcRe6jz9nI6b0WpT_qkDB0nGmtYQmZLzV2Yny2sNoj0LAqFnVfTmmGsNufhePovoXcNeaaNFJqeM8fx9L2hw9hG_3YBEEUsDRvmtUiLY-PMB9vgmL8CJiKIHL08KxVMTGCfHvoO7Ye9MqcM7X1Mf2QKm3om3kc12Bq3nf1spuD-1zZmd-8cR53hJVoDiSl-cBLGttniD-jxS0VXAoQzrq1k-yqSdGIUxV-kDXzDZmASLZvu5Q4rxrwxm1sbWskB-E1WVewIAGTM8OEW7tl08uOWOJhrnBt3YZrY3FJL9Rltfo1-rW4xqUA4VlZi5kfw5M7BG3gbMzrAciUjAPFYQcyrfiPjm70xQaAxsVZYQDrskKPrph35ppZ8fuZRV1_DnHuAhO3w-7VR3revU5JbBcTRJivkjWdMsQo5_0aF82L_WXOF0FmPt6HC8qpgAOs4rhbDPXUcgjZ2iPT47yt0KzavWdRKifAlKtneYfbkA-RYcnor0jzmW67ctDwUWpjxWIm4YWdkUu9yusd2pgJVhTQ7FJk2GySYKuH7FcJ3dcsjBwcpqaE2Nvyl_5rN1koTMGzyZONxAF0gduVnLU8kNn9GVR_pQQ8sdJI6gKvI96EmvkYw0QfxbAK_uVWU4RFre1GOAjINQe1raCbj9hdcLouIGMEqjAH--5AnSoliTnSCLQsGIIV5NWL6CcpkoNMoqsV-71uvpHc_9vFD-XsSFHpsOfOsCdf61H2oDYhHwYHyJW-HtX2VqSc4HCTUv57o9qJ-kg5c1e9Uou5U4qibCeNPCP2_D8Q6zCU2_VtsayGMUxfXIJXS5ts6IqoWoFB9Day12GbaemT6v6kL74UG6WRB0BfC2BIL7EQNWsK44itZKTY8PoTlDAKCbnprVeubQ2XfP_zieIjrAvb9NqjD32i6R3jwJocTKxZXtLwTjxwlGza1Zdnlz4vnfZhPgDAsQ2TfOslcRm_NFaYmYN1uDh1sh50bNMSMEXAKZUBkgQ00lHlIoNZ0eLA47LwyMcBLJ4SHzBwicB-EgwKMCTvmpRZTftGMq1cMjnKlcShyJvTKmuWn5weeUbsvE3atWnZWxsCd7Qj4S5rAGBL6xZLomkkrc3Tj9ezBaWoYlkOqSt9D0NZQLDfIBvlWjdsNx1G00?></g></svg>