<?plantuml 1.2026.1?><svg xmlns="http://www.w3.org/2000/svg" xmlns:xlink="http://www.w3.org/1999/xlink" contentStyleType="text/css" data-diagram-type="ACTIVITY" height="1194.375px" preserveAspectRatio="none" style="width:2115px;height:1194px;background:#FFFFFF;" version="1.1" viewBox="0 0 2115 1194" width="2115px" zoomAndPan="magnify"><title>Publier une annonce &#8212; vue simplifi&#233;e</title><defs/><g><g class="title" data-source-line="51"><text fill="#17324D" font-family="sans-serif" font-size="37.5" font-weight="bold" lengthAdjust="spacing" textLength="794.4946" x="658.1726" y="72.3083">Publier une annonce &#8212; vue simplifi&#233;e</text></g><rect fill="none" height="30.5566" style="stroke:none;stroke-width:1.875;" width="2054.5898" x="28.125" y="105.1556"/><ellipse cx="229.346" cy="163.8373" fill="#222222" rx="18.75" ry="18.75" style="stroke:#222222;stroke-width:1.875;"/><rect fill="#F0F8F3" height="98.6133" rx="11.25" ry="11.25" style="stroke:#2F7D5B;stroke-width:0.9375;" width="379.942" x="39.375" y="220.0873"/><text fill="#17324D" font-family="sans-serif" font-size="26.25" lengthAdjust="spacing" textLength="237.4933" x="58.125" y="263.2031">Remplir l'annonce</text><text fill="#17324D" font-family="sans-serif" font-size="26.25" lengthAdjust="spacing" textLength="342.442" x="58.125" y="293.7598">et le bar&#232;me de r&#233;duction</text><rect fill="#F0F8F3" height="68.0566" rx="11.25" ry="11.25" style="stroke:#2F7D5B;stroke-width:0.9375;" width="363.8177" x="367.5401" y="544.2572"/><text fill="#17324D" font-family="sans-serif" font-size="26.25" lengthAdjust="spacing" textLength="326.3177" x="386.2901" y="587.373">Corriger les informations</text><ellipse cx="229.346" cy="1152.6654" fill="none" rx="20.625" ry="20.625" style="stroke:#222222;stroke-width:1.875;"/><ellipse cx="229.346" cy="1152.6654" fill="#222222" rx="11.25" ry="11.25" style="stroke:#222222;stroke-width:1.875;"/><line style="stroke:#000000;stroke-width:2.8125;" x1="28.125" x2="28.125" y1="105.1556" y2="1173.2904"/><rect fill="#F0F8F3" height="68.0566" rx="11.25" ry="11.25" style="stroke:#2F7D5B;stroke-width:0.9375;" width="379.3524" x="1266.9635" y="356.2006"/><text fill="#17324D" font-family="sans-serif" font-size="26.25" lengthAdjust="spacing" textLength="341.8524" x="1285.7135" y="399.3164">Contr&#244;ler les informations</text><polygon fill="#FFF3D8" points="1337.2202,461.7572,1576.0593,461.7572,1598.5593,484.2572,1576.0593,506.7572,1337.2202,506.7572,1314.7202,484.2572,1337.2202,461.7572" style="stroke:#D8952F;stroke-width:0.9375;"/><text fill="#17324D" font-family="sans-serif" font-size="26.25" lengthAdjust="spacing" textLength="238.8391" x="1337.2202" y="493.3447">Donn&#233;es valides ?</text><text fill="#29485B" font-family="sans-serif" font-size="26.25" lengthAdjust="spacing" textLength="39.9902" x="1274.7299" y="478.0664">oui</text><text fill="#29485B" font-family="sans-serif" font-size="26.25" lengthAdjust="spacing" textLength="49.3341" x="1598.5593" y="478.0664">non</text><rect fill="#F0F8F3" height="98.6133" rx="11.25" ry="11.25" style="stroke:#2F7D5B;stroke-width:0.9375;" width="318.8159" x="977.1288" y="544.2572"/><text fill="#17324D" font-family="sans-serif" font-size="26.25" lengthAdjust="spacing" textLength="281.3159" x="995.8788" y="587.373">Enregistrer l'annonce</text><text fill="#17324D" font-family="sans-serif" font-size="26.25" lengthAdjust="spacing" textLength="185.8392" x="995.8788" y="617.9297">&#171; en attente &#187;</text><rect fill="#F0F8F3" height="98.6133" rx="11.25" ry="11.25" style="stroke:#2F7D5B;stroke-width:0.9375;" width="359.87" x="750.1078" y="868.4271"/><text fill="#17324D" font-family="sans-serif" font-size="26.25" lengthAdjust="spacing" textLength="322.37" x="768.8578" y="911.543">Rendre l'annonce visible</text><text fill="#17324D" font-family="sans-serif" font-size="26.25" lengthAdjust="spacing" textLength="316.2689" x="768.8578" y="942.0996">et notifier le fournisseur</text><rect fill="#F0F8F3" height="98.6133" rx="11.25" ry="11.25" style="stroke:#2F7D5B;stroke-width:0.9375;" width="391.106" x="1147.4778" y="868.4271"/><text fill="#17324D" font-family="sans-serif" font-size="26.25" lengthAdjust="spacing" textLength="238.9032" x="1166.2278" y="911.543">Rejeter l'annonce,</text><text fill="#17324D" font-family="sans-serif" font-size="26.25" lengthAdjust="spacing" textLength="353.606" x="1166.2278" y="942.0996">indiquer le motif et notifier</text><polygon fill="#FFF3D8" points="1456.6397,1049.5404,1479.1397,1072.0404,1456.6397,1094.5404,1434.1397,1072.0404,1456.6397,1049.5404" style="stroke:#D8952F;stroke-width:0.9375;"/><line style="stroke:#000000;stroke-width:2.8125;" x1="738.8578" x2="738.8578" y1="105.1556" y2="1173.2904"/><rect fill="#F0F8F3" height="68.0566" rx="11.25" ry="11.25" style="stroke:#2F7D5B;stroke-width:0.9375;" width="297.6416" x="1715.3503" y="680.3705"/><text fill="#17324D" font-family="sans-serif" font-size="26.25" lengthAdjust="spacing" textLength="260.1416" x="1734.1003" y="723.4863">Examiner l'annonce</text><polygon fill="#FFF3D8" points="1729.1336,785.9271,1999.2087,785.9271,2021.7087,808.4271,1999.2087,830.9271,1729.1336,830.9271,1706.6336,808.4271,1729.1336,785.9271" style="stroke:#D8952F;stroke-width:0.9375;"/><text fill="#17324D" font-family="sans-serif" font-size="26.25" lengthAdjust="spacing" textLength="270.0751" x="1729.1336" y="817.5146">Annonce conforme ?</text><text fill="#29485B" font-family="sans-serif" font-size="26.25" lengthAdjust="spacing" textLength="39.9902" x="1666.6434" y="802.2363">oui</text><text fill="#29485B" font-family="sans-serif" font-size="26.25" lengthAdjust="spacing" textLength="49.3341" x="2021.7087" y="802.2363">non</text><polygon fill="#FFF3D8" points="1864.1711,985.7904,1886.6711,1008.2904,1864.1711,1030.7904,1841.6711,1008.2904,1864.1711,985.7904" style="stroke:#D8952F;stroke-width:0.9375;"/><line style="stroke:#000000;stroke-width:2.8125;" x1="1657.2684" x2="1657.2684" y1="105.1556" y2="1173.2904"/><line style="stroke:#000000;stroke-width:2.8125;" x1="2080.4178" x2="2080.4178" y1="105.1556" y2="1173.2904"/><line style="stroke:#456A7D;stroke-width:2.625;" x1="229.346" x2="229.346" y1="182.5873" y2="220.0873"/><polygon fill="#456A7D" points="221.846,201.3373,229.346,220.0873,236.846,201.3373,229.346,208.8373" style="stroke:#456A7D;stroke-width:1.875;"/><line style="stroke:#456A7D;stroke-width:2.625;" x1="1314.7202" x2="1136.5368" y1="484.2572" y2="484.2572"/><line style="stroke:#456A7D;stroke-width:2.625;" x1="1136.5368" x2="1136.5368" y1="484.2572" y2="544.2572"/><polygon fill="#456A7D" points="1129.0368,525.5072,1136.5368,544.2572,1144.0368,525.5072,1136.5368,533.0072" style="stroke:#456A7D;stroke-width:1.875;"/><line style="stroke:#456A7D;stroke-width:2.625;" x1="1456.6397" x2="1456.6397" y1="424.2572" y2="461.7572"/><polygon fill="#456A7D" points="1449.1397,443.0072,1456.6397,461.7572,1464.1397,443.0072,1456.6397,450.5072" style="stroke:#456A7D;stroke-width:1.875;"/><line style="stroke:#456A7D;stroke-width:2.625;" x1="1864.1711" x2="1864.1711" y1="748.4271" y2="785.9271"/><polygon fill="#456A7D" points="1856.6711,767.1771,1864.1711,785.9271,1871.6711,767.1771,1864.1711,774.6771" style="stroke:#456A7D;stroke-width:1.875;"/><line style="stroke:#456A7D;stroke-width:2.625;" x1="229.346" x2="229.346" y1="318.7006" y2="328.0756"/><line style="stroke:#456A7D;stroke-width:2.625;" x1="229.346" x2="1456.6397" y1="328.0756" y2="328.0756"/><line style="stroke:#456A7D;stroke-width:2.625;" x1="1456.6397" x2="1456.6397" y1="328.0756" y2="356.2006"/><polygon fill="#456A7D" points="1449.1397,337.4506,1456.6397,356.2006,1464.1397,337.4506,1456.6397,344.9506" style="stroke:#456A7D;stroke-width:1.875;"/><line style="stroke:#456A7D;stroke-width:2.625;" x1="1136.5368" x2="1136.5368" y1="642.8705" y2="652.2455"/><line style="stroke:#456A7D;stroke-width:2.625;" x1="1136.5368" x2="1864.1711" y1="652.2455" y2="652.2455"/><line style="stroke:#456A7D;stroke-width:2.625;" x1="1864.1711" x2="1864.1711" y1="652.2455" y2="680.3705"/><polygon fill="#456A7D" points="1856.6711,661.6205,1864.1711,680.3705,1871.6711,661.6205,1864.1711,669.1205" style="stroke:#456A7D;stroke-width:1.875;"/><line style="stroke:#456A7D;stroke-width:2.625;" x1="1706.6336" x2="930.0428" y1="808.4271" y2="808.4271"/><line style="stroke:#456A7D;stroke-width:2.625;" x1="930.0428" x2="930.0428" y1="808.4271" y2="868.4271"/><polygon fill="#456A7D" points="922.5428,849.6771,930.0428,868.4271,937.5428,849.6771,930.0428,857.1771" style="stroke:#456A7D;stroke-width:1.875;"/><line style="stroke:#456A7D;stroke-width:2.625;" x1="2021.7087" x2="2044.2087" y1="808.4271" y2="808.4271"/><line style="stroke:#456A7D;stroke-width:2.625;" x1="2044.2087" x2="2044.2087" y1="808.4271" y2="842.1771"/><line style="stroke:#456A7D;stroke-width:2.625;" x1="2044.2087" x2="1343.0308" y1="842.1771" y2="842.1771"/><line style="stroke:#456A7D;stroke-width:2.625;" x1="1343.0308" x2="1343.0308" y1="842.1771" y2="868.4271"/><polygon fill="#456A7D" points="1335.5308,849.6771,1343.0308,868.4271,1350.5308,849.6771,1343.0308,857.1771" style="stroke:#456A7D;stroke-width:1.875;"/><line style="stroke:#456A7D;stroke-width:2.625;" x1="930.0428" x2="930.0428" y1="967.0404" y2="1008.2904"/><line style="stroke:#456A7D;stroke-width:2.625;" x1="930.0428" x2="1841.6711" y1="1008.2904" y2="1008.2904"/><polygon fill="#456A7D" points="1822.9211,1000.7904,1841.6711,1008.2904,1822.9211,1015.7904,1830.4211,1008.2904" style="stroke:#456A7D;stroke-width:1.875;"/><line style="stroke:#456A7D;stroke-width:2.625;" x1="1343.0308" x2="1343.0308" y1="967.0404" y2="974.5404"/><line style="stroke:#456A7D;stroke-width:2.625;" x1="1343.0308" x2="1920.4211" y1="974.5404" y2="974.5404"/><line style="stroke:#456A7D;stroke-width:2.625;" x1="1920.4211" x2="1920.4211" y1="974.5404" y2="1008.2904"/><line style="stroke:#456A7D;stroke-width:2.625;" x1="1920.4211" x2="1886.6711" y1="1008.2904" y2="1008.2904"/><polygon fill="#456A7D" points="1905.4211,1000.7904,1886.6711,1008.2904,1905.4211,1015.7904,1897.9211,1008.2904" style="stroke:#456A7D;stroke-width:1.875;"/><line style="stroke:#456A7D;stroke-width:2.625;" x1="1598.5593" x2="1621.0593" y1="484.2572" y2="484.2572"/><line style="stroke:#456A7D;stroke-width:2.625;" x1="1621.0593" x2="1621.0593" y1="484.2572" y2="518.0072"/><line style="stroke:#456A7D;stroke-width:2.625;" x1="1621.0593" x2="549.4489" y1="518.0072" y2="518.0072"/><line style="stroke:#456A7D;stroke-width:2.625;" x1="549.4489" x2="549.4489" y1="518.0072" y2="544.2572"/><polygon fill="#456A7D" points="541.9489,525.5072,549.4489,544.2572,556.9489,525.5072,549.4489,533.0072" style="stroke:#456A7D;stroke-width:1.875;"/><line style="stroke:#456A7D;stroke-width:2.625;" x1="1864.1711" x2="1864.1711" y1="1030.7904" y2="1038.2904"/><line style="stroke:#456A7D;stroke-width:2.625;" x1="1864.1711" x2="1400.3897" y1="1038.2904" y2="1038.2904"/><line style="stroke:#456A7D;stroke-width:2.625;" x1="1400.3897" x2="1400.3897" y1="1038.2904" y2="1072.0404"/><line style="stroke:#456A7D;stroke-width:2.625;" x1="1400.3897" x2="1434.1397" y1="1072.0404" y2="1072.0404"/><polygon fill="#456A7D" points="1415.3897,1064.5404,1434.1397,1072.0404,1415.3897,1079.5404,1422.8897,1072.0404" style="stroke:#456A7D;stroke-width:1.875;"/><line style="stroke:#456A7D;stroke-width:2.625;" x1="549.4489" x2="549.4489" y1="612.3138" y2="1038.2904"/><line style="stroke:#456A7D;stroke-width:2.625;" x1="549.4489" x2="1512.8897" y1="1038.2904" y2="1038.2904"/><line style="stroke:#456A7D;stroke-width:2.625;" x1="1512.8897" x2="1512.8897" y1="1038.2904" y2="1072.0404"/><line style="stroke:#456A7D;stroke-width:2.625;" x1="1512.8897" x2="1479.1397" y1="1072.0404" y2="1072.0404"/><polygon fill="#456A7D" points="1497.8897,1064.5404,1479.1397,1072.0404,1497.8897,1079.5404,1490.3897,1072.0404" style="stroke:#456A7D;stroke-width:1.875;"/><line style="stroke:#456A7D;stroke-width:2.625;" x1="1456.6397" x2="1456.6397" y1="1094.5404" y2="1103.9154"/><line style="stroke:#456A7D;stroke-width:2.625;" x1="1456.6397" x2="229.346" y1="1103.9154" y2="1103.9154"/><line style="stroke:#456A7D;stroke-width:2.625;" x1="229.346" x2="229.346" y1="1103.9154" y2="1132.0404"/><polygon fill="#456A7D" points="221.846,1113.2904,229.346,1132.0404,236.846,1113.2904,229.346,1120.7904" style="stroke:#456A7D;stroke-width:1.875;"/><text fill="#000000" font-family="sans-serif" font-size="26.25" lengthAdjust="spacing" textLength="153.4497" x="306.7665" y="129.5215">Fournisseur</text><text fill="#000000" font-family="sans-serif" font-size="26.25" lengthAdjust="spacing" textLength="286.4813" x="1054.8224" y="129.5215">Syst&#232;me ElevConnect</text><text fill="#000000" font-family="sans-serif" font-size="26.25" lengthAdjust="spacing" textLength="196.1316" x="1770.7773" y="129.5215">Administrateur</text><?plantuml-src ZPR1Rjj648RlV8e1Uh0358ObKH5j7mfA8jD3OHXLslkQ74fJBtVLtQKI5pha8Ve0FTRejRVUeZVfatH8CUbQPEW842Hmlfd_drbIepDOkKU9aEcoh1Jy--5to4ciZIXBj918t2sqKfYvu0nMFx-1QoYqAOM37L_JXb22GWU7Fy3foY4uGLBY1TpTrYo-tshZO2FgK7vuAaYH8wqk0lj0QYjO1kv5zh0skbBvGajju9kqUNb4lYKOHPVU5RiHkNv7QWs5a1QzI5CeqqQXWT7O2qXYduzR13QqqNvrB4GbNQgLknKbmaeekq93HJ-pejyGHg4NV4jEuc3wPw997b_sXThcHxF9E5nwG6oCVjS6m-dhUDO9UjdZgp2Qpa-1jnlA7XHQ2wCBt_YjTZZlcNwKHAUKDZcQbaYcSH9EJmZFn7GUHgF4Yz-nXbW_Bt8LpsVnh0Vg-0dJE7tT1VsPfImvwKUET_Uzbha_bSpHZjnZL-moZT997-bx7wUpvVCfjzJWERRCaaIfLTutzyao6aZm7IoZg-auxUteYoONKbWxV_5XEsA3xJR8zoWOwTHBmdIInAVmq60IvNgFujHOomqwEp93QYidUcxwP9dEqb476zHga26fdoncmlQ8nNnFHpsWBpT9Pk7LPHSQx0r_hL1b-0CL_5Od3znY7Yv6G_IB9_0fuquOHnbjXN8lDzUNDDZefuIutYzVR-g83vzOYxxXWjjkvLawJvTVn7jc6RZwnnlkgdj9l6ugXI2KqfpIxD5TXM2ft4egwF24GR1FTMKKMOkLsGVMyKI2wn-n9Wp8ipOtu7LQ_sG9S_YJzqcEO0vFUPNLU_CcsAyUhMi2tcxU1zVypPd3tv9zI5xSf8vhcdFiJK05d2yPPHSMTa9Ipf_VlGAtGGNdkg9N0S1reWokoJg3lfkFVm53mZbKlCC__dF3w3xEIzxaZF8ZKFTIPxyNVCrFhSbQEMvdakd657QKkM1_LtM81wHoW_-NXHrPkfVDd9HsFDocP_vVydcujJBo_m8uvuolKVW5dU_ysu1KJdpwJU6o5W5FhIdFG14y4tb-l5nteOsXTU-97DEjqzl_0000?></g></svg>