<?plantuml 1.2026.1?><svg xmlns="http://www.w3.org/2000/svg" xmlns:xlink="http://www.w3.org/1999/xlink" contentStyleType="text/css" data-diagram-type="CLASS" height="1631.25px" preserveAspectRatio="none" style="width:1678px;height:1631px;background:#FFFFFF;" version="1.1" viewBox="0 0 1678 1631" width="1678.125px" zoomAndPan="magnify"><title>Mod&#232;le conceptuel de donn&#233;es &#8212; vue simplifi&#233;e</title><defs/><g><g class="title" data-source-line="52"><text fill="#17324D" font-family="sans-serif" font-size="37.5" font-weight="bold" lengthAdjust="spacing" textLength="1016.4551" x="318.2067" y="53.5583">Mod&#232;le conceptuel de donn&#233;es &#8212; vue simplifi&#233;e</text></g><!--class UTILISATEUR--><g class="entity" data-qualified-name="UTILISATEUR" data-source-line="54" id="ent0002"><rect fill="#FFFFFF" height="208.4766" rx="11.25" ry="11.25" style="stroke:#2F7D5B;stroke-width:0.9375;" width="226.2982" x="654.8438" y="96.1523"/><rect fill="#E4F3EA" height="56.25" rx="11.25" ry="11.25" style="stroke:#E4F3EA;stroke-width:0.9375;" width="226.2982" x="654.8438" y="96.1523"/><rect fill="#E4F3EA" height="11.25" style="stroke:#E4F3EA;stroke-width:0.9375;" width="226.2982" x="654.8438" y="141.1523"/><rect fill="none" height="208.4766" rx="11.25" ry="11.25" style="stroke:#2F7D5B;stroke-width:0.9375;" width="226.2982" x="654.8438" y="96.1523"/><ellipse cx="681.0938" cy="124.2773" fill="#ADD1B2" rx="18.75" ry="18.75" style="stroke:#181818;stroke-width:1.875;"/><path d="M686.7188,133.6523 L674.8242,133.6523 L674.8242,114.5215 L686.7188,114.5215 L686.7188,117.8613 L678.6035,117.8613 L678.6035,121.9629 L685.957,121.9629 L685.957,125.3027 L678.6035,125.3027 L678.6035,130.3125 L686.7188,130.3125 L686.7188,133.6523 Z " fill="#000000"/><text fill="#17324D" font-family="sans-serif" font-size="26.25" lengthAdjust="spacing" textLength="170.0482" x="705.4688" y="133.3649">UTILISATEUR</text><line style="stroke:#2F7D5B;stroke-width:0.9375;" x1="656.7188" x2="879.267" y1="152.4023" y2="152.4023"/><g data-visibility-modifier="IE_MANDATORY"><ellipse cx="675.4688" cy="177.9932" fill="#000000" rx="5.625" ry="5.625" style="stroke:#000000;stroke-width:1.875;"/></g><text fill="#000000" font-family="sans-serif" font-size="26.25" lengthAdjust="spacing" textLength="169.5227" x="690.4688" y="184.2682">id_utilisateur</text><line style="stroke:#2F7D5B;stroke-width:1.875;" x1="656.7188" x2="879.267" y1="197.959" y2="197.959"/><text fill="#000000" font-family="sans-serif" font-size="26.25" lengthAdjust="spacing" textLength="58.2678" x="666.0938" y="229.8248">nom</text><text fill="#000000" font-family="sans-serif" font-size="26.25" lengthAdjust="spacing" textLength="72.3926" x="666.0938" y="260.3815">email</text><text fill="#000000" font-family="sans-serif" font-size="26.25" lengthAdjust="spacing" textLength="50.2954" x="666.0938" y="290.9381">role</text></g><!--class ANNONCE--><g class="entity" data-qualified-name="ANNONCE" data-source-line="61" id="ent0003"><rect fill="#FFFFFF" height="239.0332" rx="11.25" ry="11.25" style="stroke:#2F7D5B;stroke-width:0.9375;" width="196.5948" x="339.6937" y="417.1148"/><rect fill="#E4F3EA" height="56.25" rx="11.25" ry="11.25" style="stroke:#E4F3EA;stroke-width:0.9375;" width="196.5948" x="339.6937" y="417.1148"/><rect fill="#E4F3EA" height="11.25" style="stroke:#E4F3EA;stroke-width:0.9375;" width="196.5948" x="339.6937" y="462.1148"/><rect fill="none" height="239.0332" rx="11.25" ry="11.25" style="stroke:#2F7D5B;stroke-width:0.9375;" width="196.5948" x="339.6937" y="417.1148"/><ellipse cx="369.5" cy="445.2398" fill="#ADD1B2" rx="18.75" ry="18.75" style="stroke:#181818;stroke-width:1.875;"/><path d="M375.125,454.6148 L363.2305,454.6148 L363.2305,435.484 L375.125,435.484 L375.125,438.8238 L367.0098,438.8238 L367.0098,442.9254 L374.3633,442.9254 L374.3633,446.2652 L367.0098,446.2652 L367.0098,451.275 L375.125,451.275 L375.125,454.6148 Z " fill="#000000"/><text fill="#17324D" font-family="sans-serif" font-size="26.25" lengthAdjust="spacing" textLength="132.442" x="394.6653" y="454.3274">ANNONCE</text><line style="stroke:#2F7D5B;stroke-width:0.9375;" x1="341.5687" x2="534.4136" y1="473.3648" y2="473.3648"/><g data-visibility-modifier="IE_MANDATORY"><ellipse cx="360.3187" cy="498.9557" fill="#000000" rx="5.625" ry="5.625" style="stroke:#000000;stroke-width:1.875;"/></g><text fill="#000000" font-family="sans-serif" font-size="26.25" lengthAdjust="spacing" textLength="149.7198" x="375.3187" y="505.2307">id_annonce</text><line style="stroke:#2F7D5B;stroke-width:1.875;" x1="341.5687" x2="534.4136" y1="518.9215" y2="518.9215"/><text fill="#000000" font-family="sans-serif" font-size="26.25" lengthAdjust="spacing" textLength="58.6395" x="350.9437" y="550.7873">type</text><text fill="#000000" font-family="sans-serif" font-size="26.25" lengthAdjust="spacing" textLength="50.2826" x="350.9437" y="581.344">prix</text><text fill="#000000" font-family="sans-serif" font-size="26.25" lengthAdjust="spacing" textLength="110.05" x="350.9437" y="611.9006">quantite</text><text fill="#000000" font-family="sans-serif" font-size="26.25" lengthAdjust="spacing" textLength="77.276" x="350.9437" y="642.4573">statut</text></g><!--class REDUCTION_ANNONCE--><g class="entity" data-qualified-name="REDUCTION_ANNONCE" data-source-line="69" id="ent0004"><rect fill="#FFFFFF" height="177.9199" rx="11.25" ry="11.25" style="stroke:#2F7D5B;stroke-width:0.9375;" width="358.4711" x="13.125" y="799.2023"/><rect fill="#E4F3EA" height="56.25" rx="11.25" ry="11.25" style="stroke:#E4F3EA;stroke-width:0.9375;" width="358.4711" x="13.125" y="799.2023"/><rect fill="#E4F3EA" height="11.25" style="stroke:#E4F3EA;stroke-width:0.9375;" width="358.4711" x="13.125" y="844.2023"/><rect fill="none" height="177.9199" rx="11.25" ry="11.25" style="stroke:#2F7D5B;stroke-width:0.9375;" width="358.4711" x="13.125" y="799.2023"/><ellipse cx="39.375" cy="827.3273" fill="#ADD1B2" rx="18.75" ry="18.75" style="stroke:#181818;stroke-width:1.875;"/><path d="M45,836.7023 L33.1055,836.7023 L33.1055,817.5715 L45,817.5715 L45,820.9113 L36.8848,820.9113 L36.8848,825.0129 L44.2383,825.0129 L44.2383,828.3527 L36.8848,828.3527 L36.8848,833.3625 L45,833.3625 L45,836.7023 Z " fill="#000000"/><text fill="#17324D" font-family="sans-serif" font-size="26.25" lengthAdjust="spacing" textLength="302.2211" x="63.75" y="836.4149">REDUCTION_ANNONCE</text><line style="stroke:#2F7D5B;stroke-width:0.9375;" x1="15" x2="369.7211" y1="855.4523" y2="855.4523"/><g data-visibility-modifier="IE_MANDATORY"><ellipse cx="33.75" cy="881.0432" fill="#000000" rx="5.625" ry="5.625" style="stroke:#000000;stroke-width:1.875;"/></g><text fill="#000000" font-family="sans-serif" font-size="26.25" lengthAdjust="spacing" textLength="162.0374" x="48.75" y="887.3182">id_reduction</text><line style="stroke:#2F7D5B;stroke-width:1.875;" x1="15" x2="369.7211" y1="901.009" y2="901.009"/><text fill="#000000" font-family="sans-serif" font-size="26.25" lengthAdjust="spacing" textLength="184.2242" x="24.375" y="932.8748">seuil_quantite</text><text fill="#000000" font-family="sans-serif" font-size="26.25" lengthAdjust="spacing" textLength="166.5619" x="24.375" y="963.4315">pourcentage</text></g><!--class COMMANDE--><g class="entity" data-qualified-name="COMMANDE" data-source-line="75" id="ent0005"><rect fill="#FFFFFF" height="239.0332" rx="11.25" ry="11.25" style="stroke:#2F7D5B;stroke-width:0.9375;" width="231.1249" x="436.8" y="768.6586"/><rect fill="#E4F3EA" height="56.25" rx="11.25" ry="11.25" style="stroke:#E4F3EA;stroke-width:0.9375;" width="231.1249" x="436.8" y="768.6586"/><rect fill="#E4F3EA" height="11.25" style="stroke:#E4F3EA;stroke-width:0.9375;" width="231.1249" x="436.8" y="813.6586"/><rect fill="none" height="239.0332" rx="11.25" ry="11.25" style="stroke:#2F7D5B;stroke-width:0.9375;" width="231.1249" x="436.8" y="768.6586"/><ellipse cx="470.3381" cy="796.7836" fill="#ADD1B2" rx="18.75" ry="18.75" style="stroke:#181818;stroke-width:1.875;"/><path d="M475.9631,806.1586 L464.0685,806.1586 L464.0685,787.0277 L475.9631,787.0277 L475.9631,790.3676 L467.8478,790.3676 L467.8478,794.4691 L475.2013,794.4691 L475.2013,797.809 L467.8478,797.809 L467.8478,802.8188 L475.9631,802.8188 L475.9631,806.1586 Z " fill="#000000"/><text fill="#17324D" font-family="sans-serif" font-size="26.25" lengthAdjust="spacing" textLength="158.6792" x="496.3326" y="805.8711">COMMANDE</text><line style="stroke:#2F7D5B;stroke-width:0.9375;" x1="438.675" x2="666.0499" y1="824.9086" y2="824.9086"/><g data-visibility-modifier="IE_MANDATORY"><ellipse cx="457.425" cy="850.4994" fill="#000000" rx="5.625" ry="5.625" style="stroke:#000000;stroke-width:1.875;"/></g><text fill="#000000" font-family="sans-serif" font-size="26.25" lengthAdjust="spacing" textLength="184.2499" x="472.425" y="856.7744">id_commande</text><line style="stroke:#2F7D5B;stroke-width:1.875;" x1="438.675" x2="666.0499" y1="870.4652" y2="870.4652"/><text fill="#000000" font-family="sans-serif" font-size="26.25" lengthAdjust="spacing" textLength="110.05" x="448.05" y="902.3311">quantite</text><text fill="#000000" font-family="sans-serif" font-size="26.25" lengthAdjust="spacing" textLength="167.7795" x="448.05" y="932.8877">montant_net</text><text fill="#000000" font-family="sans-serif" font-size="26.25" lengthAdjust="spacing" textLength="169.2664" x="448.05" y="963.4444">mode_retrait</text><text fill="#000000" font-family="sans-serif" font-size="26.25" lengthAdjust="spacing" textLength="77.276" x="448.05" y="994.001">statut</text></g><!--class PAIEMENT--><g class="entity" data-qualified-name="PAIEMENT" data-source-line="83" id="ent0006"><rect fill="#FFFFFF" height="208.4766" rx="11.25" ry="11.25" style="stroke:#2F7D5B;stroke-width:0.9375;" width="208.797" x="200.4562" y="1120.1836"/><rect fill="#E4F3EA" height="56.25" rx="11.25" ry="11.25" style="stroke:#E4F3EA;stroke-width:0.9375;" width="208.797" x="200.4562" y="1120.1836"/><rect fill="#E4F3EA" height="11.25" style="stroke:#E4F3EA;stroke-width:0.9375;" width="208.797" x="200.4562" y="1165.1836"/><rect fill="none" height="208.4766" rx="11.25" ry="11.25" style="stroke:#2F7D5B;stroke-width:0.9375;" width="208.797" x="200.4562" y="1120.1836"/><ellipse cx="235.4939" cy="1148.3086" fill="#ADD1B2" rx="18.75" ry="18.75" style="stroke:#181818;stroke-width:1.875;"/><path d="M241.1189,1157.6836 L229.2244,1157.6836 L229.2244,1138.5527 L241.1189,1138.5527 L241.1189,1141.8926 L233.0037,1141.8926 L233.0037,1145.9941 L240.3572,1145.9941 L240.3572,1149.334 L233.0037,1149.334 L233.0037,1154.3438 L241.1189,1154.3438 L241.1189,1157.6836 Z " fill="#000000"/><text fill="#17324D" font-family="sans-serif" font-size="26.25" lengthAdjust="spacing" textLength="133.0188" x="261.8218" y="1157.3961">PAIEMENT</text><line style="stroke:#2F7D5B;stroke-width:0.9375;" x1="202.3312" x2="407.3782" y1="1176.4336" y2="1176.4336"/><g data-visibility-modifier="IE_MANDATORY"><ellipse cx="221.0812" cy="1202.0244" fill="#000000" rx="5.625" ry="5.625" style="stroke:#000000;stroke-width:1.875;"/></g><text fill="#000000" font-family="sans-serif" font-size="26.25" lengthAdjust="spacing" textLength="161.922" x="236.0812" y="1208.2994">id_paiement</text><line style="stroke:#2F7D5B;stroke-width:1.875;" x1="202.3312" x2="407.3782" y1="1221.9902" y2="1221.9902"/><text fill="#000000" font-family="sans-serif" font-size="26.25" lengthAdjust="spacing" textLength="60.0238" x="211.7062" y="1253.8561">total</text><text fill="#000000" font-family="sans-serif" font-size="26.25" lengthAdjust="spacing" textLength="89.9524" x="211.7062" y="1284.4127">moyen</text><text fill="#000000" font-family="sans-serif" font-size="26.25" lengthAdjust="spacing" textLength="77.276" x="211.7062" y="1314.9694">statut</text></g><!--class LIVRAISON--><g class="entity" data-qualified-name="LIVRAISON" data-source-line="90" id="ent0007"><rect fill="#FFFFFF" height="177.9199" rx="11.25" ry="11.25" style="stroke:#2F7D5B;stroke-width:0.9375;" width="210.1849" x="554.1375" y="1135.4648"/><rect fill="#E4F3EA" height="56.25" rx="11.25" ry="11.25" style="stroke:#E4F3EA;stroke-width:0.9375;" width="210.1849" x="554.1375" y="1135.4648"/><rect fill="#E4F3EA" height="11.25" style="stroke:#E4F3EA;stroke-width:0.9375;" width="210.1849" x="554.1375" y="1180.4648"/><rect fill="none" height="177.9199" rx="11.25" ry="11.25" style="stroke:#2F7D5B;stroke-width:0.9375;" width="210.1849" x="554.1375" y="1135.4648"/><ellipse cx="586.1084" cy="1163.5898" fill="#ADD1B2" rx="18.75" ry="18.75" style="stroke:#181818;stroke-width:1.875;"/><path d="M591.7334,1172.9648 L579.8388,1172.9648 L579.8388,1153.834 L591.7334,1153.834 L591.7334,1157.1738 L583.6181,1157.1738 L583.6181,1161.2754 L590.9716,1161.2754 L590.9716,1164.6152 L583.6181,1164.6152 L583.6181,1169.625 L591.7334,1169.625 L591.7334,1172.9648 Z " fill="#000000"/><text fill="#17324D" font-family="sans-serif" font-size="26.25" lengthAdjust="spacing" textLength="141.2219" x="611.7547" y="1172.6774">LIVRAISON</text><line style="stroke:#2F7D5B;stroke-width:0.9375;" x1="556.0125" x2="762.4474" y1="1191.7148" y2="1191.7148"/><g data-visibility-modifier="IE_MANDATORY"><ellipse cx="574.7625" cy="1217.3057" fill="#000000" rx="5.625" ry="5.625" style="stroke:#000000;stroke-width:1.875;"/></g><text fill="#000000" font-family="sans-serif" font-size="26.25" lengthAdjust="spacing" textLength="147.746" x="589.7625" y="1223.5807">id_livraison</text><line style="stroke:#2F7D5B;stroke-width:1.875;" x1="556.0125" x2="762.4474" y1="1237.2715" y2="1237.2715"/><text fill="#000000" font-family="sans-serif" font-size="26.25" lengthAdjust="spacing" textLength="77.276" x="565.3875" y="1269.1373">statut</text><text fill="#000000" font-family="sans-serif" font-size="26.25" lengthAdjust="spacing" textLength="187.6849" x="565.3875" y="1299.694">verification_qr</text></g><!--class VERSEMENT--><g class="entity" data-qualified-name="VERSEMENT" data-source-line="96" id="ent0008"><rect fill="#FFFFFF" height="177.9199" rx="11.25" ry="11.25" style="stroke:#2F7D5B;stroke-width:0.9375;" width="224.9084" x="19.9125" y="1441.1648"/><rect fill="#E4F3EA" height="56.25" rx="11.25" ry="11.25" style="stroke:#E4F3EA;stroke-width:0.9375;" width="224.9084" x="19.9125" y="1441.1648"/><rect fill="#E4F3EA" height="11.25" style="stroke:#E4F3EA;stroke-width:0.9375;" width="224.9084" x="19.9125" y="1486.1648"/><rect fill="none" height="177.9199" rx="11.25" ry="11.25" style="stroke:#2F7D5B;stroke-width:0.9375;" width="224.9084" x="19.9125" y="1441.1648"/><ellipse cx="49.638" cy="1469.2898" fill="#ADD1B2" rx="18.75" ry="18.75" style="stroke:#181818;stroke-width:1.875;"/><path d="M55.263,1478.6648 L43.3685,1478.6648 L43.3685,1459.534 L55.263,1459.534 L55.263,1462.8738 L47.1478,1462.8738 L47.1478,1466.9754 L54.5013,1466.9754 L54.5013,1470.3152 L47.1478,1470.3152 L47.1478,1475.325 L55.263,1475.325 L55.263,1478.6648 Z " fill="#000000"/><text fill="#17324D" font-family="sans-serif" font-size="26.25" lengthAdjust="spacing" textLength="160.9351" x="74.7854" y="1478.3774">VERSEMENT</text><line style="stroke:#2F7D5B;stroke-width:0.9375;" x1="21.7875" x2="242.9459" y1="1497.4148" y2="1497.4148"/><g data-visibility-modifier="IE_MANDATORY"><ellipse cx="40.5375" cy="1523.0057" fill="#000000" rx="5.625" ry="5.625" style="stroke:#000000;stroke-width:1.875;"/></g><text fill="#000000" font-family="sans-serif" font-size="26.25" lengthAdjust="spacing" textLength="178.0334" x="55.5375" y="1529.2807">id_versement</text><line style="stroke:#2F7D5B;stroke-width:1.875;" x1="21.7875" x2="242.9459" y1="1542.9715" y2="1542.9715"/><text fill="#000000" font-family="sans-serif" font-size="26.25" lengthAdjust="spacing" textLength="111.5753" x="31.1625" y="1574.8373">montant</text><text fill="#000000" font-family="sans-serif" font-size="26.25" lengthAdjust="spacing" textLength="77.276" x="31.1625" y="1605.394">statut</text></g><!--class SERVICE_VETERINAIRE--><g class="entity" data-qualified-name="SERVICE_VETERINAIRE" data-source-line="102" id="ent0009"><rect fill="#FFFFFF" height="177.9199" rx="11.25" ry="11.25" style="stroke:#2F7D5B;stroke-width:0.9375;" width="354.7797" x="868.0875" y="447.6773"/><rect fill="#E4F3EA" height="56.25" rx="11.25" ry="11.25" style="stroke:#E4F3EA;stroke-width:0.9375;" width="354.7797" x="868.0875" y="447.6773"/><rect fill="#E4F3EA" height="11.25" style="stroke:#E4F3EA;stroke-width:0.9375;" width="354.7797" x="868.0875" y="492.6773"/><rect fill="none" height="177.9199" rx="11.25" ry="11.25" style="stroke:#2F7D5B;stroke-width:0.9375;" width="354.7797" x="868.0875" y="447.6773"/><ellipse cx="894.3375" cy="475.8023" fill="#ADD1B2" rx="18.75" ry="18.75" style="stroke:#181818;stroke-width:1.875;"/><path d="M899.9625,485.1773 L888.068,485.1773 L888.068,466.0465 L899.9625,466.0465 L899.9625,469.3863 L891.8473,469.3863 L891.8473,473.4879 L899.2008,473.4879 L899.2008,476.8277 L891.8473,476.8277 L891.8473,481.8375 L899.9625,481.8375 L899.9625,485.1773 Z " fill="#000000"/><text fill="#17324D" font-family="sans-serif" font-size="26.25" lengthAdjust="spacing" textLength="298.5297" x="918.7125" y="484.8899">SERVICE_VETERINAIRE</text><line style="stroke:#2F7D5B;stroke-width:0.9375;" x1="869.9625" x2="1220.9922" y1="503.9273" y2="503.9273"/><g data-visibility-modifier="IE_MANDATORY"><ellipse cx="888.7125" cy="529.5182" fill="#000000" rx="5.625" ry="5.625" style="stroke:#000000;stroke-width:1.875;"/></g><text fill="#000000" font-family="sans-serif" font-size="26.25" lengthAdjust="spacing" textLength="131.109" x="903.7125" y="535.7932">id_service</text><line style="stroke:#2F7D5B;stroke-width:1.875;" x1="869.9625" x2="1220.9922" y1="549.484" y2="549.484"/><text fill="#000000" font-family="sans-serif" font-size="26.25" lengthAdjust="spacing" textLength="54.8199" x="879.3375" y="581.3498">titre</text><text fill="#000000" font-family="sans-serif" font-size="26.25" lengthAdjust="spacing" textLength="50.2826" x="879.3375" y="611.9065">prix</text></g><!--class RENDEZ_VOUS--><g class="entity" data-qualified-name="RENDEZ_VOUS" data-source-line="108" id="ent0010"><rect fill="#FFFFFF" height="177.9199" rx="11.25" ry="11.25" style="stroke:#2F7D5B;stroke-width:0.9375;" width="253.1122" x="1057.6875" y="799.2023"/><rect fill="#E4F3EA" height="56.25" rx="11.25" ry="11.25" style="stroke:#E4F3EA;stroke-width:0.9375;" width="253.1122" x="1057.6875" y="799.2023"/><rect fill="#E4F3EA" height="11.25" style="stroke:#E4F3EA;stroke-width:0.9375;" width="253.1122" x="1057.6875" y="844.2023"/><rect fill="none" height="177.9199" rx="11.25" ry="11.25" style="stroke:#2F7D5B;stroke-width:0.9375;" width="253.1122" x="1057.6875" y="799.2023"/><ellipse cx="1083.9375" cy="827.3273" fill="#ADD1B2" rx="18.75" ry="18.75" style="stroke:#181818;stroke-width:1.875;"/><path d="M1089.5625,836.7023 L1077.668,836.7023 L1077.668,817.5715 L1089.5625,817.5715 L1089.5625,820.9113 L1081.4473,820.9113 L1081.4473,825.0129 L1088.8008,825.0129 L1088.8008,828.3527 L1081.4473,828.3527 L1081.4473,833.3625 L1089.5625,833.3625 L1089.5625,836.7023 Z " fill="#000000"/><text fill="#17324D" font-family="sans-serif" font-size="26.25" lengthAdjust="spacing" textLength="196.8622" x="1108.3125" y="836.4149">RENDEZ_VOUS</text><line style="stroke:#2F7D5B;stroke-width:0.9375;" x1="1059.5625" x2="1308.9247" y1="855.4523" y2="855.4523"/><g data-visibility-modifier="IE_MANDATORY"><ellipse cx="1078.3125" cy="881.0432" fill="#000000" rx="5.625" ry="5.625" style="stroke:#000000;stroke-width:1.875;"/></g><text fill="#000000" font-family="sans-serif" font-size="26.25" lengthAdjust="spacing" textLength="80.0702" x="1093.3125" y="887.3182">id_rdv</text><line style="stroke:#2F7D5B;stroke-width:1.875;" x1="1059.5625" x2="1308.9247" y1="901.009" y2="901.009"/><text fill="#000000" font-family="sans-serif" font-size="26.25" lengthAdjust="spacing" textLength="164.2419" x="1068.9375" y="932.8748">date_prevue</text><text fill="#000000" font-family="sans-serif" font-size="26.25" lengthAdjust="spacing" textLength="77.276" x="1068.9375" y="963.4315">statut</text></g><!--class NOTIFICATION--><g class="entity" data-qualified-name="NOTIFICATION" data-source-line="114" id="ent0011"><rect fill="#FFFFFF" height="177.9199" rx="11.25" ry="11.25" style="stroke:#2F7D5B;stroke-width:0.9375;" width="243.5248" x="1422.4688" y="447.6773"/><rect fill="#E4F3EA" height="56.25" rx="11.25" ry="11.25" style="stroke:#E4F3EA;stroke-width:0.9375;" width="243.5248" x="1422.4688" y="447.6773"/><rect fill="#E4F3EA" height="11.25" style="stroke:#E4F3EA;stroke-width:0.9375;" width="243.5248" x="1422.4688" y="492.6773"/><rect fill="none" height="177.9199" rx="11.25" ry="11.25" style="stroke:#2F7D5B;stroke-width:0.9375;" width="243.5248" x="1422.4688" y="447.6773"/><ellipse cx="1448.7188" cy="475.8023" fill="#ADD1B2" rx="18.75" ry="18.75" style="stroke:#181818;stroke-width:1.875;"/><path d="M1454.3438,485.1773 L1442.4492,485.1773 L1442.4492,466.0465 L1454.3438,466.0465 L1454.3438,469.3863 L1446.2285,469.3863 L1446.2285,473.4879 L1453.582,473.4879 L1453.582,476.8277 L1446.2285,476.8277 L1446.2285,481.8375 L1454.3438,481.8375 L1454.3438,485.1773 Z " fill="#000000"/><text fill="#17324D" font-family="sans-serif" font-size="26.25" lengthAdjust="spacing" textLength="187.2748" x="1473.0938" y="484.8899">NOTIFICATION</text><line style="stroke:#2F7D5B;stroke-width:0.9375;" x1="1424.3438" x2="1664.1185" y1="503.9273" y2="503.9273"/><g data-visibility-modifier="IE_MANDATORY"><ellipse cx="1443.0938" cy="529.5182" fill="#000000" rx="5.625" ry="5.625" style="stroke:#000000;stroke-width:1.875;"/></g><text fill="#000000" font-family="sans-serif" font-size="26.25" lengthAdjust="spacing" textLength="184.6985" x="1458.0938" y="535.7932">id_notification</text><line style="stroke:#2F7D5B;stroke-width:1.875;" x1="1424.3438" x2="1664.1185" y1="549.484" y2="549.484"/><text fill="#000000" font-family="sans-serif" font-size="26.25" lengthAdjust="spacing" textLength="106.8457" x="1433.7188" y="581.3498">contenu</text><text fill="#000000" font-family="sans-serif" font-size="26.25" lengthAdjust="spacing" textLength="23.9301" x="1433.7188" y="611.9065">lu</text></g><g class="entity" data-qualified-name="GMN25" data-source-line="136" id="ent0026"><path d="M422.0625,1501.4461 L422.0625,1558.8094 A11.25,11.25 0 0 0 433.3125,1570.0594 L885.171,1570.0594 A11.25,11.25 0 0 0 896.421,1558.8094 L896.421,1508.9461 L877.671,1490.1961 L666.7312,1490.1961 L659.2312,1313.6648 L651.7312,1490.1961 L433.3125,1490.1961 A11.25,11.25 0 0 0 422.0625,1501.4461" fill="#FFF8E8" style="stroke:#E5AE45;stroke-width:0.9375;"/><path d="M877.671,1490.1961 L877.671,1503.3211 A5.625,5.625 0 0 0 883.296,1508.9461 L896.421,1508.9461 L877.671,1490.1961" fill="#FFF8E8" style="stroke:#E5AE45;stroke-width:0.9375;"/><text fill="#5B481E" font-family="sans-serif" font-size="26.25" lengthAdjust="spacing" textLength="433.4583" x="433.3125" y="1523.9369">Optionnelle : absente si le retrait</text><text fill="#5B481E" font-family="sans-serif" font-size="26.25" lengthAdjust="spacing" textLength="434.9835" x="433.3125" y="1554.4936">direct a &#233;t&#233; choisi par l'acheteur.</text></g><!--link UTILISATEUR to ANNONCE--><g class="link" data-entity-1="ent0002" data-entity-2="ent0003" data-link-type="association" data-source-line="121" id="lnk12"><path codeLine="121" d="M692.025,305.4398 C692.025,366.7898 692.025,432.2086 692.025,432.2086 C692.025,432.2086 608.2688,432.2086 536.925,432.2086" fill="none" id="UTILISATEUR-ANNONCE" style="stroke:#456A7D;stroke-width:2.625;"/><text fill="#29485B" font-family="sans-serif" font-size="26.25" lengthAdjust="spacing" textLength="257.1167" x="679.7438" y="424.6994">publie (fournisseur)</text><text fill="#29485B" font-family="sans-serif" font-size="26.25" lengthAdjust="spacing" textLength="41.7462" x="639.6351" y="343.7186">1,1</text><text fill="#29485B" font-family="sans-serif" font-size="26.25" lengthAdjust="spacing" textLength="41.6821" x="551.5226" y="412.0537">0,n</text></g><!--link ANNONCE to REDUCTION_ANNONCE--><g class="link" data-entity-1="ent0003" data-entity-2="ent0004" data-link-type="association" data-source-line="122" id="lnk13"><path codeLine="122" d="M355.65,656.6273 C355.65,703.1836 355.65,755.5336 355.65,798.6773" fill="none" id="ANNONCE-REDUCTION_ANNONCE" style="stroke:#456A7D;stroke-width:2.625;"/><text fill="#29485B" font-family="sans-serif" font-size="26.25" lengthAdjust="spacing" textLength="83.5693" x="271.275" y="720.1432">d&#233;finit</text><text fill="#29485B" font-family="sans-serif" font-size="26.25" lengthAdjust="spacing" textLength="41.7462" x="303.1652" y="695.7888">1,1</text><text fill="#29485B" font-family="sans-serif" font-size="26.25" lengthAdjust="spacing" textLength="41.6821" x="335.3856" y="777.7378">0,n</text></g><!--link UTILISATEUR to COMMANDE--><g class="link" data-entity-1="ent0002" data-entity-2="ent0005" data-link-type="association" data-source-line="123" id="lnk14"><path codeLine="123" d="M716.1188,305.5148 C716.1188,473.7586 716.1188,784.7086 716.1188,784.7086 C716.1188,784.7086 695.4375,784.7086 668.7563,784.7086" fill="none" id="UTILISATEUR-COMMANDE" style="stroke:#456A7D;stroke-width:2.625;"/><text fill="#29485B" font-family="sans-serif" font-size="26.25" lengthAdjust="spacing" textLength="222.2534" x="605.4938" y="595.0432">passe (acheteur)</text><text fill="#29485B" font-family="sans-serif" font-size="26.25" lengthAdjust="spacing" textLength="41.7462" x="712.5343" y="343.8022">1,1</text><text fill="#29485B" font-family="sans-serif" font-size="26.25" lengthAdjust="spacing" textLength="41.6821" x="682.9086" y="766.8863">0,n</text></g><!--link ANNONCE to COMMANDE--><g class="link" data-entity-1="ent0003" data-entity-2="ent0005" data-link-type="association" data-source-line="124" id="lnk15"><path codeLine="124" d="M486.5438,656.6273 C486.5438,692.6273 486.5438,732.1148 486.5438,768.1148" fill="none" id="ANNONCE-COMMANDE" style="stroke:#456A7D;stroke-width:2.625;"/><text fill="#29485B" font-family="sans-serif" font-size="26.25" lengthAdjust="spacing" textLength="121.2909" x="364.6688" y="738.6119">concerne</text><text fill="#29485B" font-family="sans-serif" font-size="26.25" lengthAdjust="spacing" textLength="41.7462" x="448.3755" y="695.7888">1,1</text><text fill="#29485B" font-family="sans-serif" font-size="26.25" lengthAdjust="spacing" textLength="41.6821" x="435.8626" y="747.7389">0,n</text></g><!--link COMMANDE to PAIEMENT--><g class="link" data-entity-1="ent0005" data-entity-2="ent0006" data-link-type="association" data-source-line="125" id="lnk16"><path codeLine="125" d="M436.4063,992.8336 C410.4375,992.8336 390.4313,992.8336 390.4313,992.8336 C390.4313,992.8336 390.4313,1058.1961 390.4313,1119.4711" fill="none" id="COMMANDE-PAIEMENT" style="stroke:#456A7D;stroke-width:2.625;"/><text fill="#29485B" font-family="sans-serif" font-size="26.25" lengthAdjust="spacing" textLength="67.0477" x="322.9313" y="1025.6557">r&#232;gle</text><text fill="#29485B" font-family="sans-serif" font-size="26.25" lengthAdjust="spacing" textLength="41.7462" x="380.2448" y="997.0363">1,1</text><text fill="#29485B" font-family="sans-serif" font-size="26.25" lengthAdjust="spacing" textLength="41.7462" x="357.1275" y="1099.2519">0,1</text></g><!--link COMMANDE to LIVRAISON--><g class="link" data-entity-1="ent0005" data-entity-2="ent0007" data-link-type="association" data-source-line="126" id="lnk17"><path codeLine="126" d="M611.025,1008.6211 C611.025,1050.2648 611.025,1096.1648 611.025,1134.8836" fill="none" id="COMMANDE-LIVRAISON" style="stroke:#456A7D;stroke-width:2.625;"/><text fill="#29485B" font-family="sans-serif" font-size="26.25" lengthAdjust="spacing" textLength="92.5415" x="517.275" y="1064.2432">g&#233;n&#232;re</text><text fill="#29485B" font-family="sans-serif" font-size="26.25" lengthAdjust="spacing" textLength="41.7462" x="573.7232" y="1046.9835">1,1</text><text fill="#29485B" font-family="sans-serif" font-size="26.25" lengthAdjust="spacing" textLength="41.7462" x="560.1307" y="1114.5875">0,1</text></g><!--link UTILISATEUR to LIVRAISON--><g class="link" data-entity-1="ent0002" data-entity-2="ent0007" data-link-type="association" data-source-line="127" id="lnk18"><path codeLine="127" d="M740.2313,305.1586 C740.2313,506.7773 740.2313,945.4336 740.2313,1134.6211" fill="none" id="UTILISATEUR-LIVRAISON" style="stroke:#456A7D;stroke-width:2.625;"/><text fill="#29485B" font-family="sans-serif" font-size="26.25" lengthAdjust="spacing" textLength="200.3357" x="539.6063" y="712.3807">assure (livreur)</text><text fill="#29485B" font-family="sans-serif" font-size="26.25" lengthAdjust="spacing" textLength="41.7462" x="739.3917" y="344.1551">0,1</text><text fill="#29485B" font-family="sans-serif" font-size="26.25" lengthAdjust="spacing" textLength="41.6821" x="707.502" y="1114.2881">0,n</text></g><!--link PAIEMENT to VERSEMENT--><g class="link" data-entity-1="ent0006" data-entity-2="ent0008" data-link-type="association" data-source-line="128" id="lnk19"><path codeLine="128" d="M222.6375,1328.7773 C222.6375,1365.0961 222.6375,1405.5023 222.6375,1440.5086" fill="none" id="PAIEMENT-VERSEMENT" style="stroke:#456A7D;stroke-width:2.625;"/><text fill="#29485B" font-family="sans-serif" font-size="26.25" lengthAdjust="spacing" textLength="92.5415" x="224.5125" y="1377.1432">g&#233;n&#232;re</text><text fill="#29485B" font-family="sans-serif" font-size="26.25" lengthAdjust="spacing" textLength="41.7462" x="168.8838" y="1367.7236">1,1</text><text fill="#29485B" font-family="sans-serif" font-size="26.25" lengthAdjust="spacing" textLength="41.6821" x="191.2118" y="1420.2019">1,n</text></g><!--link UTILISATEUR to VERSEMENT--><g class="link" data-entity-1="ent0002" data-entity-2="ent0008" data-link-type="association" data-source-line="129" id="lnk20"><path codeLine="129" d="M790.275,305.5148 C790.275,609.0586 790.275,1465.3336 790.275,1465.3336 C790.275,1465.3336 433.5563,1465.3336 245.4562,1465.3336" fill="none" id="UTILISATEUR-VERSEMENT" style="stroke:#456A7D;stroke-width:2.625;"/><text fill="#29485B" font-family="sans-serif" font-size="26.25" lengthAdjust="spacing" textLength="120.0092" x="792.15" y="1150.3244">b&#233;n&#233;ficie</text><text fill="#29485B" font-family="sans-serif" font-size="26.25" lengthAdjust="spacing" textLength="41.7462" x="795.2648" y="343.8022">1,1</text><text fill="#29485B" font-family="sans-serif" font-size="26.25" lengthAdjust="spacing" textLength="41.6821" x="260.1049" y="1451.0027">0,n</text></g><!--link UTILISATEUR to SERVICE_VETERINAIRE--><g class="link" data-entity-1="ent0002" data-entity-2="ent0009" data-link-type="association" data-source-line="130" id="lnk21"><path codeLine="130" d="M842.1563,305.1023 C842.1563,403.9898 842.1563,537.2086 842.1563,537.2086 C842.1563,537.2086 852.225,537.2086 867.9,537.2086" fill="none" id="UTILISATEUR-SERVICE_VETERINAIRE" style="stroke:#456A7D;stroke-width:2.625;"/><text fill="#29485B" font-family="sans-serif" font-size="26.25" lengthAdjust="spacing" textLength="278.0603" x="562.7813" y="460.2682">propose (v&#233;t&#233;rinaire)</text><text fill="#29485B" font-family="sans-serif" font-size="26.25" lengthAdjust="spacing" textLength="41.7462" x="853.7388" y="344.092">1,1</text><text fill="#29485B" font-family="sans-serif" font-size="26.25" lengthAdjust="spacing" textLength="41.6821" x="811.4917" y="530.491">0,n</text></g><!--link SERVICE_VETERINAIRE to RENDEZ_VOUS--><g class="link" data-entity-1="ent0009" data-entity-2="ent0010" data-link-type="association" data-source-line="131" id="lnk22"><path codeLine="131" d="M1140.2813,626.2523 C1140.2813,679.1461 1140.2813,745.8586 1140.2813,798.7148" fill="none" id="SERVICE_VETERINAIRE-RENDEZ_VOUS" style="stroke:#456A7D;stroke-width:2.625;"/><text fill="#29485B" font-family="sans-serif" font-size="26.25" lengthAdjust="spacing" textLength="121.2909" x="1142.1563" y="704.9744">concerne</text><text fill="#29485B" font-family="sans-serif" font-size="26.25" lengthAdjust="spacing" textLength="41.7462" x="1109.0324" y="664.7132">1,1</text><text fill="#29485B" font-family="sans-serif" font-size="26.25" lengthAdjust="spacing" textLength="41.6821" x="1089.5767" y="777.7808">0,n</text></g><!--link UTILISATEUR to RENDEZ_VOUS--><g class="link" data-entity-1="ent0002" data-entity-2="ent0010" data-link-type="association" data-source-line="132" id="lnk23"><path codeLine="132" d="M816.2063,305.5336 C816.2063,498.1148 816.2063,887.8336 816.2063,887.8336 C816.2063,887.8336 950.7,887.8336 1057.0688,887.8336" fill="none" id="UTILISATEUR-RENDEZ_VOUS" style="stroke:#456A7D;stroke-width:2.625;"/><text fill="#29485B" font-family="sans-serif" font-size="26.25" lengthAdjust="spacing" textLength="251.4514" x="818.0813" y="709.6057">demande (&#233;leveur)</text><text fill="#29485B" font-family="sans-serif" font-size="26.25" lengthAdjust="spacing" textLength="41.7462" x="824.1944" y="343.8232">1,1</text><text fill="#29485B" font-family="sans-serif" font-size="26.25" lengthAdjust="spacing" textLength="41.6821" x="1000.5992" y="880.6474">0,n</text></g><!--link UTILISATEUR to NOTIFICATION--><g class="link" data-entity-1="ent0002" data-entity-2="ent0011" data-link-type="association" data-source-line="133" id="lnk24"><path codeLine="133" d="M881.6813,199.7086 C1097.3063,199.7086 1544.2313,199.7086 1544.2313,199.7086 C1544.2313,199.7086 1544.2313,347.4211 1544.2313,447.2273" fill="none" id="UTILISATEUR-NOTIFICATION" style="stroke:#456A7D;stroke-width:2.625;"/><text fill="#29485B" font-family="sans-serif" font-size="26.25" lengthAdjust="spacing" textLength="75.0201" x="1259.85" y="192.1994">re&#231;oit</text><text fill="#29485B" font-family="sans-serif" font-size="26.25" lengthAdjust="spacing" textLength="41.7462" x="896.3989" y="192.3897">1,1</text><text fill="#29485B" font-family="sans-serif" font-size="26.25" lengthAdjust="spacing" textLength="41.6821" x="1499.9837" y="426.2989">0,n</text></g><?plantuml-src ZLVDSk8u4BxxALJPGsQsPbAOdu7aPi2UfIenAKmux8LIR06go98ZoynajxPg7s8VO6uJdiDlia-oRGEsm8wpgGh6qjVTNtT_LfjBvAaNHf0lmZ3XwD-__q41nMk9mv34o6PaEnAS4ryPbyXRV4KtQ2LaY1NQmfgGb334YKBf3wH4eWXIc396hj2zcs79zqX8XJOusmhItOfoggZWLqRyH7c48GnwnFxJMeg41oF1X4I_EFcVXWWYYin1Irk9DpWGtoXVenLcCT5sSaU-a9n8PBQr3KQ1vqj4413Q2DqxMU64AKTmvUAG80_ps2EIhken7ls38BEhRSwfOgJHl43ankrMtTOXURFVQNV76i2IKdmxR7PxNwn-PLEpRbzt1xtXEM2-eVuJ9t6Cp2kTk2iK6TPKVs0Fpb521aGU47RFihkzCuH6eZVi3anRsx-767XzwkJQ6lQjVWsemgVhMCwNAb2lcGCXE_MGlReV1GlqglYARgbwgGPhEGEdKuVKkRUT_lYqoWTKOnyFc375eU11NTqxuq63WSvWFBZkjPtQZDuaEM8uZeVlFcnxM6EwEUGtWW5IyMTtdOvjdOER2cDpLTkASs87N2EpFQOfcgTmZUZjiTDtp0giCLOEQGhr41CVnpN1BD3qe0QeX-lO_Uvrgmfgp8qy9uJxv9Qku9-VFN2ZONTaDg7VxS3HuXvBHNqQOQxUJwxEg37Heu6LpPV_JseFR-xO0VeL74PLptrdw8pVXDVKqb0YWh47fujI0eO4bJ0JORePAZlKqPq8qjTyj8AJI2KmAWEOWZ1EqntCrcpKRXE2OXf6ZAueB1e6oGMC7kQJsubdpUs76VhJGEXNH8DbeYYZCOWkaR3q-JDyS1729mbXwC9L2aQCluu-BDUTkYExjCUSPqoEjjamX4iawNUuF2SuCyjMOX1seaf7CtlyC9fFfkwoubAI8DcdV70QauIofUOi4edqmH4SnwN7qVJkpdB7cgFizGFpe22dUO33Jy7D4iPtVXSG2Aiafgg6wxqriUziTrvwZZ0b8UmMQGk5MUxeXV0Q3xUJnSoQU5EtTC7e5iB5MfPx6mGlGJ3egO-p4YoVPUbbOS-yCoA0ZK-O71AhuU3PiyLaP2yNzjoUJLnhCjDA5HEvfLeRgP957xMUGNb_Nowc3vxMhM1xj0f0Hij84X1WJNntEfyuav6LDRqqvq8LoHxzWBOLuGbyOmdO6xfmBynFvWN0q4Nh4xyez7Y3ekIHKO8-h40RdCQW6VdHE6wVMLN5TrEyI3P5AoG6uM00GJJiRuXg2gMPv8yil4CQnPgEXI-5pcwGJ5_Nx6ragQSRj4vtF7s5TfqGRvsmqF50F950FHDWphm8MmOnCwDIRcy5EKrLnpzcU2YeJnjDwZG9jPKY4bbrj-bEfJj9EOPJyADHXwvqjfIeLl462gSM0SbF3FGXtS6lbBmy3ROdaeQcaVId00KP86foFC35ggm-A7eQPKhd17xFPBruZE7fo8vh1FVb2RG_zH56UG6Gln4K83114BiyIkuA7gm0PQ7-0m00?></g></svg>