<?plantuml 1.2026.1?><svg xmlns="http://www.w3.org/2000/svg" xmlns:xlink="http://www.w3.org/1999/xlink" contentStyleType="text/css" data-diagram-type="SEQUENCE" height="1170px" preserveAspectRatio="none" style="width:1650px;height:1170px;background:#FFFFFF;" version="1.1" viewBox="0 0 1650 1170" width="1650px" zoomAndPan="magnify"><title>Publication d'une annonce &#8212; vue simplifi&#233;e</title><defs/><g><text fill="#17324D" font-family="sans-serif" font-size="37.5" font-weight="bold" lengthAdjust="spacing" textLength="919.6655" x="368.7703" y="62.9333">Publication d'une annonce &#8212; vue simplifi&#233;e</text><rect fill="#F4FAF6" height="298.2715" rx="11.25" ry="11.25" style="stroke:#9CB4C1;stroke-width:2.8125;" width="1423.5745" x="18.75" y="689.3555"/><path d="M18.75,839.707 L1442.3245,839.707 L1442.3245,976.377 A11.25,11.25 0 0 1 1431.0745,987.627 L30,987.627 A11.25,11.25 0 0 1 18.75,976.377 L18.75,839.707" fill="#F4FAF6" style="stroke:none;stroke-width:1.875;"/><g class="participant-lifeline" data-entity-uid="part1" data-qualified-name="FOUR" id="part1-lifeline"><g><title>Fournisseur</title><rect fill="#000000" fill-opacity="0.00000" height="784.043" width="15" x="112.3499" y="235.459"/><line style="stroke:#9CB4C1;stroke-width:0.9375;stroke-dasharray:9.375,9.375;" x1="118.125" x2="118.125" y1="235.459" y2="1019.502"/></g></g><g class="participant-lifeline" data-entity-uid="part2" data-qualified-name="UI" id="part2-lifeline"><g><title>Interface web</title><rect fill="#000000" fill-opacity="0.00000" height="784.043" width="15" x="386.9238" y="235.459"/><line style="stroke:#9CB4C1;stroke-width:0.9375;stroke-dasharray:9.375,9.375;" x1="394.3497" x2="394.3497" y1="235.459" y2="1019.502"/></g></g><g class="participant-lifeline" data-entity-uid="part3" data-qualified-name="APP" id="part3-lifeline"><g><title>ElevConnect</title><rect fill="#000000" fill-opacity="0.00000" height="784.043" width="15" x="898.2092" y="235.459"/><line style="stroke:#9CB4C1;stroke-width:0.9375;stroke-dasharray:9.375,9.375;" x1="904.2838" x2="904.2838" y1="235.459" y2="1019.502"/></g></g><g class="participant-lifeline" data-entity-uid="part4" data-qualified-name="DB" id="part4-lifeline"><g><title>Base de donn.es</title><rect fill="#000000" fill-opacity="0.00000" height="784.043" width="15" x="1297.7527" y="235.459"/><line style="stroke:#9CB4C1;stroke-width:0.9375;stroke-dasharray:9.375,9.375;" x1="1305.0558" x2="1305.0558" y1="235.459" y2="1019.502"/></g></g><g class="participant-lifeline" data-entity-uid="part5" data-qualified-name="ADM" id="part5-lifeline"><g><title>Administrateur</title><rect fill="#000000" fill-opacity="0.00000" height="784.043" width="15" x="1538.5153" y="235.459"/><line style="stroke:#9CB4C1;stroke-width:0.9375;stroke-dasharray:9.375,9.375;" x1="1545.4495" x2="1545.4495" y1="235.459" y2="1019.502"/></g></g><g class="participant participant-head" data-entity-uid="part1" data-qualified-name="FOUR" id="part1-head"><text fill="#000000" font-family="sans-serif" font-size="26.25" lengthAdjust="spacing" textLength="153.4497" x="37.5" y="229.2682">Fournisseur</text><ellipse cx="119.8499" cy="108.3398" fill="#FFFFFF" rx="15" ry="15" style="stroke:#2F7D5B;stroke-width:0.9375;"/><path d="M119.8499,123.3398 L119.8499,173.9648 M95.4749,138.3398 L144.2249,138.3398 M119.8499,173.9648 L95.4749,202.0898 M119.8499,173.9648 L144.2249,202.0898" fill="none" style="stroke:#2F7D5B;stroke-width:0.9375;"/></g><g class="participant participant-tail" data-entity-uid="part1" data-qualified-name="FOUR" id="part1-tail"><text fill="#000000" font-family="sans-serif" font-size="26.25" lengthAdjust="spacing" textLength="153.4497" x="37.5" y="1041.9928">Fournisseur</text><ellipse cx="119.8499" cy="1064.1211" fill="#FFFFFF" rx="15" ry="15" style="stroke:#2F7D5B;stroke-width:0.9375;"/><path d="M119.8499,1079.1211 L119.8499,1129.7461 M95.4749,1094.1211 L144.2249,1094.1211 M119.8499,1129.7461 L95.4749,1157.8711 M119.8499,1129.7461 L144.2249,1157.8711" fill="none" style="stroke:#2F7D5B;stroke-width:0.9375;"/></g><g class="participant participant-head" data-entity-uid="part2" data-qualified-name="UI" id="part2-head"><text fill="#000000" font-family="sans-serif" font-size="26.25" lengthAdjust="spacing" textLength="180.1483" x="298.7247" y="229.2682">Interface web</text><path d="M355.9863,152.4023 L355.9863,197.4023 M355.9863,174.9023 L387.8613,174.9023" fill="none" style="stroke:#181818;stroke-width:0.9375;"/><ellipse cx="410.3613" cy="174.9023" fill="#E2E2F0" rx="22.5" ry="22.5" style="stroke:#181818;stroke-width:0.9375;"/></g><g class="participant participant-tail" data-entity-uid="part2" data-qualified-name="UI" id="part2-tail"><text fill="#000000" font-family="sans-serif" font-size="26.25" lengthAdjust="spacing" textLength="180.1483" x="298.7247" y="1041.9928">Interface web</text><path d="M355.9863,1055.6836 L355.9863,1100.6836 M355.9863,1078.1836 L387.8613,1078.1836" fill="none" style="stroke:#181818;stroke-width:0.9375;"/><ellipse cx="410.3613" cy="1078.1836" fill="#E2E2F0" rx="22.5" ry="22.5" style="stroke:#181818;stroke-width:0.9375;"/></g><g class="participant participant-head" data-entity-uid="part3" data-qualified-name="APP" id="part3-head"><text fill="#000000" font-family="sans-serif" font-size="26.25" lengthAdjust="spacing" textLength="164.101" x="818.0338" y="229.2682">ElevConnect</text><ellipse cx="905.7092" cy="174.9023" fill="#E2E2F0" rx="22.5" ry="22.5" style="stroke:#181818;stroke-width:0.9375;"/><polygon fill="#181818" points="898.2092,152.4023,909.4592,143.0273,905.7092,152.4023,909.4592,161.7773,898.2092,152.4023" style="stroke:#181818;stroke-width:1.875;"/></g><g class="participant participant-tail" data-entity-uid="part3" data-qualified-name="APP" id="part3-tail"><text fill="#000000" font-family="sans-serif" font-size="26.25" lengthAdjust="spacing" textLength="164.101" x="818.0338" y="1041.9928">ElevConnect</text><ellipse cx="905.7092" cy="1078.1836" fill="#E2E2F0" rx="22.5" ry="22.5" style="stroke:#181818;stroke-width:0.9375;"/><polygon fill="#181818" points="898.2092,1055.6836,909.4592,1046.3086,905.7092,1055.6836,909.4592,1065.0586,898.2092,1055.6836" style="stroke:#181818;stroke-width:1.875;"/></g><g class="participant participant-head" data-entity-uid="part4" data-qualified-name="DB" id="part4-head"><text fill="#000000" font-family="sans-serif" font-size="26.25" lengthAdjust="spacing" textLength="225.3937" x="1186.9308" y="229.2682">Base de donn&#233;es</text><path d="M1271.5027,137.4023 C1271.5027,118.6523 1305.2527,118.6523 1305.2527,118.6523 C1305.2527,118.6523 1339.0027,118.6523 1339.0027,137.4023 L1339.0027,186.1523 C1339.0027,204.9023 1305.2527,204.9023 1305.2527,204.9023 C1305.2527,204.9023 1271.5027,204.9023 1271.5027,186.1523 L1271.5027,137.4023" fill="#E2E2F0" style="stroke:#181818;stroke-width:0.9375;"/><path d="M1271.5027,137.4023 C1271.5027,156.1523 1305.2527,156.1523 1305.2527,156.1523 C1305.2527,156.1523 1339.0027,156.1523 1339.0027,137.4023" fill="none" style="stroke:#181818;stroke-width:0.9375;"/></g><g class="participant participant-tail" data-entity-uid="part4" data-qualified-name="DB" id="part4-tail"><text fill="#000000" font-family="sans-serif" font-size="26.25" lengthAdjust="spacing" textLength="225.3937" x="1186.9308" y="1041.9928">Base de donn&#233;es</text><path d="M1271.5027,1066.9336 C1271.5027,1048.1836 1305.2527,1048.1836 1305.2527,1048.1836 C1305.2527,1048.1836 1339.0027,1048.1836 1339.0027,1066.9336 L1339.0027,1115.6836 C1339.0027,1134.4336 1305.2527,1134.4336 1305.2527,1134.4336 C1305.2527,1134.4336 1271.5027,1134.4336 1271.5027,1115.6836 L1271.5027,1066.9336" fill="#E2E2F0" style="stroke:#181818;stroke-width:0.9375;"/><path d="M1271.5027,1066.9336 C1271.5027,1085.6836 1305.2527,1085.6836 1305.2527,1085.6836 C1305.2527,1085.6836 1339.0027,1085.6836 1339.0027,1066.9336" fill="none" style="stroke:#181818;stroke-width:0.9375;"/></g><g class="participant participant-head" data-entity-uid="part5" data-qualified-name="ADM" id="part5-head"><text fill="#000000" font-family="sans-serif" font-size="26.25" lengthAdjust="spacing" textLength="196.1316" x="1442.3245" y="229.2682">Administrateur</text><ellipse cx="1546.0153" cy="108.3398" fill="#FFFFFF" rx="15" ry="15" style="stroke:#2F7D5B;stroke-width:0.9375;"/><path d="M1546.0153,123.3398 L1546.0153,173.9648 M1521.6403,138.3398 L1570.3903,138.3398 M1546.0153,173.9648 L1521.6403,202.0898 M1546.0153,173.9648 L1570.3903,202.0898" fill="none" style="stroke:#2F7D5B;stroke-width:0.9375;"/></g><g class="participant participant-tail" data-entity-uid="part5" data-qualified-name="ADM" id="part5-tail"><text fill="#000000" font-family="sans-serif" font-size="26.25" lengthAdjust="spacing" textLength="196.1316" x="1442.3245" y="1041.9928">Administrateur</text><ellipse cx="1546.0153" cy="1064.1211" fill="#FFFFFF" rx="15" ry="15" style="stroke:#2F7D5B;stroke-width:0.9375;"/><path d="M1546.0153,1079.1211 L1546.0153,1129.7461 M1521.6403,1094.1211 L1570.3903,1094.1211 M1546.0153,1129.7461 L1521.6403,1157.8711 M1546.0153,1129.7461 L1570.3903,1157.8711" fill="none" style="stroke:#2F7D5B;stroke-width:0.9375;"/></g><g class="message" data-entity-1="part1" data-entity-2="part2" id="msg1"><polygon fill="#456A7D" points="371.9238,288.5156,390.6738,296.0156,371.9238,303.5156,379.4238,296.0156" style="stroke:#456A7D;stroke-width:1.875;"/><line style="stroke:#456A7D;stroke-width:2.625;" x1="119.8499" x2="383.1738" y1="296.0156" y2="296.0156"/><text fill="#29485B" font-family="sans-serif" font-size="26.25" font-weight="bold" lengthAdjust="spacing" textLength="18.2648" x="132.9749" y="286.0748">1</text><text fill="#29485B" font-family="sans-serif" font-size="26.25" lengthAdjust="spacing" textLength="203.8092" x="158.7396" y="286.0748">saisit l'annonce</text></g><g class="message" data-entity-1="part2" data-entity-2="part3" id="msg2"><polygon fill="#456A7D" points="883.2092,345.3223,901.9592,352.8223,883.2092,360.3223,890.7092,352.8223" style="stroke:#456A7D;stroke-width:1.875;"/><line style="stroke:#456A7D;stroke-width:2.625;" x1="394.4238" x2="894.4592" y1="352.8223" y2="352.8223"/><text fill="#29485B" font-family="sans-serif" font-size="26.25" font-weight="bold" lengthAdjust="spacing" textLength="18.2648" x="407.5488" y="342.8815">2</text><text fill="#29485B" font-family="sans-serif" font-size="26.25" lengthAdjust="spacing" textLength="382.5861" x="433.3136" y="342.8815">soumettreAnnonce(donn&#233;es)</text></g><g class="message" data-entity-1="part3" data-entity-2="part3" id="msg3"><line style="stroke:#456A7D;stroke-width:2.625;" x1="905.7092" x2="984.4592" y1="409.6289" y2="409.6289"/><line style="stroke:#456A7D;stroke-width:2.625;" x1="984.4592" x2="984.4592" y1="409.6289" y2="434.0039"/><line style="stroke:#456A7D;stroke-width:2.625;" x1="907.5842" x2="984.4592" y1="434.0039" y2="434.0039"/><polygon fill="#456A7D" points="926.3342,426.5039,907.5842,434.0039,926.3342,441.5039,918.8342,434.0039" style="stroke:#456A7D;stroke-width:1.875;"/><text fill="#29485B" font-family="sans-serif" font-size="26.25" font-weight="bold" lengthAdjust="spacing" textLength="18.2648" x="918.8342" y="399.6881">3</text><text fill="#29485B" font-family="sans-serif" font-size="26.25" lengthAdjust="spacing" textLength="298.4656" x="944.599" y="399.6881">valide les informations</text></g><g class="message" data-entity-1="part3" data-entity-2="part4" id="msg4"><polygon fill="#456A7D" points="1282.7527,483.3105,1301.5027,490.8105,1282.7527,498.3105,1290.2527,490.8105" style="stroke:#456A7D;stroke-width:1.875;"/><line style="stroke:#456A7D;stroke-width:2.625;" x1="905.7092" x2="1294.0027" y1="490.8105" y2="490.8105"/><text fill="#29485B" font-family="sans-serif" font-size="26.25" font-weight="bold" lengthAdjust="spacing" textLength="18.2648" x="918.8342" y="480.8698">4</text><text fill="#29485B" font-family="sans-serif" font-size="26.25" lengthAdjust="spacing" textLength="328.7787" x="944.599" y="480.8698">enregistre &#171; en attente &#187;</text></g><g class="message" data-entity-1="part3" data-entity-2="part5" id="msg5"><polygon fill="#456A7D" points="1523.5153,540.1172,1542.2653,547.6172,1523.5153,555.1172,1531.0153,547.6172" style="stroke:#456A7D;stroke-width:1.875;"/><line style="stroke:#456A7D;stroke-width:2.625;" x1="905.7092" x2="1534.7653" y1="547.6172" y2="547.6172"/><text fill="#29485B" font-family="sans-serif" font-size="26.25" font-weight="bold" lengthAdjust="spacing" textLength="18.2648" x="918.8342" y="537.6764">5</text><text fill="#29485B" font-family="sans-serif" font-size="26.25" lengthAdjust="spacing" textLength="274.6381" x="944.599" y="537.6764">notifie la mod&#233;ration</text></g><g class="message" data-entity-1="part5" data-entity-2="part2" id="msg6"><polygon fill="#456A7D" points="415.0488,596.9238,396.2988,604.4238,415.0488,611.9238,407.5488,604.4238" style="stroke:#456A7D;stroke-width:1.875;"/><line style="stroke:#456A7D;stroke-width:2.625;" x1="403.7988" x2="1544.1403" y1="604.4238" y2="604.4238"/><text fill="#29485B" font-family="sans-serif" font-size="26.25" font-weight="bold" lengthAdjust="spacing" textLength="18.2648" x="426.2988" y="594.483">6</text><text fill="#29485B" font-family="sans-serif" font-size="26.25" lengthAdjust="spacing" textLength="261.0901" x="452.0636" y="594.483">approuve ou rejette</text></g><g class="message" data-entity-1="part2" data-entity-2="part3" id="msg7"><polygon fill="#456A7D" points="883.2092,653.7305,901.9592,661.2305,883.2092,668.7305,890.7092,661.2305" style="stroke:#456A7D;stroke-width:1.875;"/><line style="stroke:#456A7D;stroke-width:2.625;" x1="394.4238" x2="894.4592" y1="661.2305" y2="661.2305"/><text fill="#29485B" font-family="sans-serif" font-size="26.25" font-weight="bold" lengthAdjust="spacing" textLength="18.2648" x="407.5488" y="651.2897">7</text><text fill="#29485B" font-family="sans-serif" font-size="26.25" lengthAdjust="spacing" textLength="440.5206" x="433.3136" y="651.2897">mod&#233;rerAnnonce(d&#233;cision, motif)</text></g><path d="M30,689.3555 L142.3846,689.3555 L142.3846,704.9121 L123.6346,723.6621 L18.75,723.6621 L18.75,700.6055 A11.25,11.25 0 0 1 30,689.3555" fill="#F7FBFD" style="stroke:#9CB4C1;stroke-width:2.8125;"/><rect fill="none" height="298.2715" rx="11.25" ry="11.25" style="stroke:#9CB4C1;stroke-width:2.8125;" width="1423.5745" x="18.75" y="689.3555"/><text fill="#000000" font-family="sans-serif" font-size="26.25" font-weight="bold" lengthAdjust="spacing" textLength="39.2596" x="46.875" y="715.5963">alt</text><text fill="#000000" font-family="sans-serif" font-size="26.25" font-weight="bold" lengthAdjust="spacing" textLength="315.9869" x="170.5096" y="717.4713">[annonce approuv&#233;e]</text><g class="message" data-entity-1="part3" data-entity-2="part4" id="msg8"><polygon fill="#456A7D" points="1282.7527,760.4004,1301.5027,767.9004,1282.7527,775.4004,1290.2527,767.9004" style="stroke:#456A7D;stroke-width:1.875;"/><line style="stroke:#456A7D;stroke-width:2.625;" x1="905.7092" x2="1294.0027" y1="767.9004" y2="767.9004"/><text fill="#29485B" font-family="sans-serif" font-size="26.25" font-weight="bold" lengthAdjust="spacing" textLength="18.2648" x="918.8342" y="757.9596">8</text><text fill="#29485B" font-family="sans-serif" font-size="26.25" lengthAdjust="spacing" textLength="287.981" x="944.599" y="757.9596">rend l'annonce visible</text></g><g class="message" data-entity-1="part3" data-entity-2="part1" id="msg9"><polygon fill="#456A7D" points="140.4749,817.207,121.7249,824.707,140.4749,832.207,132.9749,824.707" style="stroke:#456A7D;stroke-width:1.875;"/><line style="stroke:#456A7D;stroke-width:2.625;" x1="129.2249" x2="903.8342" y1="824.707" y2="824.707"/><text fill="#29485B" font-family="sans-serif" font-size="26.25" font-weight="bold" lengthAdjust="spacing" textLength="18.2648" x="151.7249" y="814.7662">9</text><text fill="#29485B" font-family="sans-serif" font-size="26.25" lengthAdjust="spacing" textLength="268.3832" x="177.4896" y="814.7662">notifie la publication</text></g><line style="stroke:#9CB4C1;stroke-width:1.875;stroke-dasharray:3.75,3.75;" x1="18.75" x2="1442.3245" y1="841.582" y2="841.582"/><text fill="#000000" font-family="sans-serif" font-size="26.25" font-weight="bold" lengthAdjust="spacing" textLength="264.0125" x="28.125" y="865.9479">[annonce rejet&#233;e]</text><g class="message" data-entity-1="part3" data-entity-2="part4" id="msg10"><polygon fill="#456A7D" points="1282.7527,908.3203,1301.5027,915.8203,1282.7527,923.3203,1290.2527,915.8203" style="stroke:#456A7D;stroke-width:1.875;"/><line style="stroke:#456A7D;stroke-width:2.625;" x1="905.7092" x2="1294.0027" y1="915.8203" y2="915.8203"/><text fill="#29485B" font-family="sans-serif" font-size="26.25" font-weight="bold" lengthAdjust="spacing" textLength="36.5295" x="918.8342" y="905.8795">10</text><text fill="#29485B" font-family="sans-serif" font-size="26.25" lengthAdjust="spacing" textLength="243.1842" x="962.8638" y="905.8795">enregistre le motif</text></g><g class="message" data-entity-1="part3" data-entity-2="part1" id="msg11"><polygon fill="#456A7D" points="140.4749,965.127,121.7249,972.627,140.4749,980.127,132.9749,972.627" style="stroke:#456A7D;stroke-width:1.875;"/><line style="stroke:#456A7D;stroke-width:2.625;" x1="129.2249" x2="903.8342" y1="972.627" y2="972.627"/><text fill="#29485B" font-family="sans-serif" font-size="26.25" font-weight="bold" lengthAdjust="spacing" textLength="36.5295" x="151.7249" y="962.6862">11</text><text fill="#29485B" font-family="sans-serif" font-size="26.25" lengthAdjust="spacing" textLength="183.7756" x="195.7544" y="962.6862">notifie le rejet</text></g><?plantuml-src ZPR1RkCs48RlV8f1UaWNQ8FObjTA3mKaIzekq4sDUjCxBOqTDXIfafIpwQaFqGVeDUWZzBPvapv9HxBiPMn5gM4RiEQRcNzcQ0pFOUaU94Akox9MyEyVVq8X-CRmiaGBgSJjN2k5kMFdiFpb7Nm7QsrAxc1BpxGHA46XWwU_mEdQ8JWkfCGBM5mtB7wgj75monjJyVIu5aeueTK5itT2LPpIm8hdTnkZQrNCjTG6lihQbqSKbO1HUEaziRUyqFT2RM3DfKNFqWRAjL5eO3Js35AGpeSAWGJTQZywhdajNQQLk-Obmf8hkqGZrltCKloEC0eyuqVX90ww7uZMUNpPP-gA7yqcuo3nWCWOVTyPW-dRQ7PYzBp7Lq4uZO-1ZxSYlrDeBOmkVE7Nsc7Sq_qm3OyfRGeq7P5EepIO7X6UY6aSXAFKioye1zyy3t8LnRDerWETw0coA7jx2lezooZbf1_PdUwLbeNVbTo9hN0Ffyakip2Rz96-zd4sIvvtkQC6vzWnYU2bLaLVtoT9EE3WAqZ2g-auwwteHP5poQsDN_spxR31Sbla1-I4dCHBWsoIHiVmK6DIvNf7SIoiumQLxPYXR4l7UmvzccIpR7I23UPgaQ5KDnPpRdkIHNIcmnxGJpT9Py7LvIaqM1l-LgFAyKUnfeyw-iFDus0-6g9VdS3UOy6D4xcek7Al5zVdD5ZetY5gzil_5xN3XoVMeUyeO7KQUPR5MV8YtjDBHcjDgxfSeM6yIG-PheqIrc9jW5l8VhhvcQsQ7DmymDbxvT2iUOvmZwkp1hXvpt8QgD4IphnTszgYnO8LtF4LJHtEukQxe3SHJuzeMoI9kxnHKT9cjSxGaTobZf8FZBbckS2YNacHysRlGd5UAmIkbAR2scs_hH6iA2ifre82CzQ8Xc-_9ssqm2qNLZYGvvqBewTa8ssDKTSbEcSmsXc_tejxmnhWm6sv52HTqeL2gDtrWRJOFPJ4pKr16Tmq5I1y_fj-0NSEgL_m-Pz3iEG3WKexKahHE9IQhXIc3SPOOzshvbL5CzlIhg_1uA-ayRdmdIEQW-wdnvpgrEeRCb7uDunBT-XI5wrf3e2lsQ0glhG6jXHY9JsexUGpnTMNKJ2aYyiXHwloD8FN5Hfag-tby5qKHgh-0m00?></g></svg>