<?plantuml 1.2026.1?><svg xmlns="http://www.w3.org/2000/svg" xmlns:xlink="http://www.w3.org/1999/xlink" contentStyleType="text/css" data-diagram-type="SEQUENCE" height="1770px" preserveAspectRatio="none" style="width:2086px;height:1770px;background:#FFFFFF;" version="1.1" viewBox="0 0 2086 1770" width="2086.875px" zoomAndPan="magnify"><title>Commande et r&#233;ception &#8212; vue simplifi&#233;e</title><defs/><g><text fill="#17324D" font-family="sans-serif" font-size="37.5" font-weight="bold" lengthAdjust="spacing" textLength="866.9312" x="612.686" y="62.9333">Commande et r&#233;ception &#8212; vue simplifi&#233;e</text><rect fill="#F4FAF6" height="582.3047" rx="11.25" ry="11.25" style="stroke:#9CB4C1;stroke-width:2.8125;" width="2056.6782" x="18.75" y="892.207"/><path d="M18.75,1269.7852 L2075.4282,1269.7852 L2075.4282,1463.2617 A11.25,11.25 0 0 1 2064.1782,1474.5117 L30,1474.5117 A11.25,11.25 0 0 1 18.75,1463.2617 L18.75,1269.7852" fill="#F4FAF6" style="stroke:none;stroke-width:1.875;"/><g class="participant-lifeline" data-entity-uid="part1" data-qualified-name="ACH" id="part1-lifeline"><g><title>Acheteur</title><rect fill="#000000" fill-opacity="0.00000" height="1384.541" width="15" x="95.1489" y="235.459"/><line style="stroke:#9CB4C1;stroke-width:0.9375;stroke-dasharray:9.375,9.375;" x1="101.25" x2="101.25" y1="235.459" y2="1620"/></g></g><g class="participant-lifeline" data-entity-uid="part2" data-qualified-name="UI" id="part2-lifeline"><g><title>Interface web</title><rect fill="#000000" fill-opacity="0.00000" height="1384.541" width="15" x="543.7061" y="235.459"/><line style="stroke:#9CB4C1;stroke-width:0.9375;stroke-dasharray:9.375,9.375;" x1="551.1319" x2="551.1319" y1="235.459" y2="1620"/></g></g><g class="participant-lifeline" data-entity-uid="part3" data-qualified-name="APP" id="part3-lifeline"><g><title>ElevConnect</title><rect fill="#000000" fill-opacity="0.00000" height="1384.541" width="15" x="1184.8444" y="235.459"/><line style="stroke:#9CB4C1;stroke-width:0.9375;stroke-dasharray:9.375,9.375;" x1="1190.9189" x2="1190.9189" y1="235.459" y2="1620"/></g></g><g class="participant-lifeline" data-entity-uid="part4" data-qualified-name="DB" id="part4-lifeline"><g><title>Base de donn.es</title><rect fill="#000000" fill-opacity="0.00000" height="1384.541" width="15" x="1625.5829" y="235.459"/><line style="stroke:#9CB4C1;stroke-width:0.9375;stroke-dasharray:9.375,9.375;" x1="1632.886" x2="1632.886" y1="235.459" y2="1620"/></g></g><g class="participant-lifeline" data-entity-uid="part5" data-qualified-name="FOUR" id="part5-lifeline"><g><title>Fournisseur</title><rect fill="#000000" fill-opacity="0.00000" height="1384.541" width="15" x="1845.0046" y="235.459"/><line style="stroke:#9CB4C1;stroke-width:0.9375;stroke-dasharray:9.375,9.375;" x1="1850.7797" x2="1850.7797" y1="235.459" y2="1620"/></g></g><g class="participant-lifeline" data-entity-uid="part6" data-qualified-name="LIV" id="part6-lifeline"><g><title>Livreur</title><rect fill="#000000" fill-opacity="0.00000" height="1384.541" width="15" x="1997.6413" y="235.459"/><line style="stroke:#9CB4C1;stroke-width:0.9375;stroke-dasharray:9.375,9.375;" x1="2004.2294" x2="2004.2294" y1="235.459" y2="1620"/></g></g><g class="participant participant-head" data-entity-uid="part1" data-qualified-name="ACH" id="part1-head"><text fill="#000000" font-family="sans-serif" font-size="26.25" lengthAdjust="spacing" textLength="119.0479" x="37.5" y="229.2682">Acheteur</text><ellipse cx="102.6489" cy="108.3398" fill="#FFFFFF" rx="15" ry="15" style="stroke:#2F7D5B;stroke-width:0.9375;"/><path d="M102.6489,123.3398 L102.6489,173.9648 M78.2739,138.3398 L127.0239,138.3398 M102.6489,173.9648 L78.2739,202.0898 M102.6489,173.9648 L127.0239,202.0898" fill="none" style="stroke:#2F7D5B;stroke-width:0.9375;"/></g><g class="participant participant-tail" data-entity-uid="part1" data-qualified-name="ACH" id="part1-tail"><text fill="#000000" font-family="sans-serif" font-size="26.25" lengthAdjust="spacing" textLength="119.0479" x="37.5" y="1642.4908">Acheteur</text><ellipse cx="102.6489" cy="1664.6191" fill="#FFFFFF" rx="15" ry="15" style="stroke:#2F7D5B;stroke-width:0.9375;"/><path d="M102.6489,1679.6191 L102.6489,1730.2441 M78.2739,1694.6191 L127.0239,1694.6191 M102.6489,1730.2441 L78.2739,1758.3691 M102.6489,1730.2441 L127.0239,1758.3691" fill="none" style="stroke:#2F7D5B;stroke-width:0.9375;"/></g><g class="participant participant-head" data-entity-uid="part2" data-qualified-name="UI" id="part2-head"><text fill="#000000" font-family="sans-serif" font-size="26.25" lengthAdjust="spacing" textLength="180.1483" x="455.5069" y="229.2682">Interface web</text><path d="M512.7686,152.4023 L512.7686,197.4023 M512.7686,174.9023 L544.6436,174.9023" fill="none" style="stroke:#181818;stroke-width:0.9375;"/><ellipse cx="567.1436" cy="174.9023" fill="#E2E2F0" rx="22.5" ry="22.5" style="stroke:#181818;stroke-width:0.9375;"/></g><g class="participant participant-tail" data-entity-uid="part2" data-qualified-name="UI" id="part2-tail"><text fill="#000000" font-family="sans-serif" font-size="26.25" lengthAdjust="spacing" textLength="180.1483" x="455.5069" y="1642.4908">Interface web</text><path d="M512.7686,1656.1816 L512.7686,1701.1816 M512.7686,1678.6816 L544.6436,1678.6816" fill="none" style="stroke:#181818;stroke-width:0.9375;"/><ellipse cx="567.1436" cy="1678.6816" fill="#E2E2F0" rx="22.5" ry="22.5" style="stroke:#181818;stroke-width:0.9375;"/></g><g class="participant participant-head" data-entity-uid="part3" data-qualified-name="APP" id="part3-head"><text fill="#000000" font-family="sans-serif" font-size="26.25" lengthAdjust="spacing" textLength="164.101" x="1104.6689" y="229.2682">ElevConnect</text><ellipse cx="1192.3444" cy="174.9023" fill="#E2E2F0" rx="22.5" ry="22.5" style="stroke:#181818;stroke-width:0.9375;"/><polygon fill="#181818" points="1184.8444,152.4023,1196.0944,143.0273,1192.3444,152.4023,1196.0944,161.7773,1184.8444,152.4023" style="stroke:#181818;stroke-width:1.875;"/></g><g class="participant participant-tail" data-entity-uid="part3" data-qualified-name="APP" id="part3-tail"><text fill="#000000" font-family="sans-serif" font-size="26.25" lengthAdjust="spacing" textLength="164.101" x="1104.6689" y="1642.4908">ElevConnect</text><ellipse cx="1192.3444" cy="1678.6816" fill="#E2E2F0" rx="22.5" ry="22.5" style="stroke:#181818;stroke-width:0.9375;"/><polygon fill="#181818" points="1184.8444,1656.1816,1196.0944,1646.8066,1192.3444,1656.1816,1196.0944,1665.5566,1184.8444,1656.1816" style="stroke:#181818;stroke-width:1.875;"/></g><g class="participant participant-head" data-entity-uid="part4" data-qualified-name="DB" id="part4-head"><text fill="#000000" font-family="sans-serif" font-size="26.25" lengthAdjust="spacing" textLength="225.3937" x="1514.761" y="229.2682">Base de donn&#233;es</text><path d="M1599.3329,137.4023 C1599.3329,118.6523 1633.0829,118.6523 1633.0829,118.6523 C1633.0829,118.6523 1666.8329,118.6523 1666.8329,137.4023 L1666.8329,186.1523 C1666.8329,204.9023 1633.0829,204.9023 1633.0829,204.9023 C1633.0829,204.9023 1599.3329,204.9023 1599.3329,186.1523 L1599.3329,137.4023" fill="#E2E2F0" style="stroke:#181818;stroke-width:0.9375;"/><path d="M1599.3329,137.4023 C1599.3329,156.1523 1633.0829,156.1523 1633.0829,156.1523 C1633.0829,156.1523 1666.8329,156.1523 1666.8329,137.4023" fill="none" style="stroke:#181818;stroke-width:0.9375;"/></g><g class="participant participant-tail" data-entity-uid="part4" data-qualified-name="DB" id="part4-tail"><text fill="#000000" font-family="sans-serif" font-size="26.25" lengthAdjust="spacing" textLength="225.3937" x="1514.761" y="1642.4908">Base de donn&#233;es</text><path d="M1599.3329,1667.4316 C1599.3329,1648.6816 1633.0829,1648.6816 1633.0829,1648.6816 C1633.0829,1648.6816 1666.8329,1648.6816 1666.8329,1667.4316 L1666.8329,1716.1816 C1666.8329,1734.9316 1633.0829,1734.9316 1633.0829,1734.9316 C1633.0829,1734.9316 1599.3329,1734.9316 1599.3329,1716.1816 L1599.3329,1667.4316" fill="#E2E2F0" style="stroke:#181818;stroke-width:0.9375;"/><path d="M1599.3329,1667.4316 C1599.3329,1686.1816 1633.0829,1686.1816 1633.0829,1686.1816 C1633.0829,1686.1816 1666.8329,1686.1816 1666.8329,1667.4316" fill="none" style="stroke:#181818;stroke-width:0.9375;"/></g><g class="participant participant-head" data-entity-uid="part5" data-qualified-name="FOUR" id="part5-head"><text fill="#000000" font-family="sans-serif" font-size="26.25" lengthAdjust="spacing" textLength="153.4497" x="1770.1547" y="229.2682">Fournisseur</text><ellipse cx="1852.5046" cy="108.3398" fill="#FFFFFF" rx="15" ry="15" style="stroke:#2F7D5B;stroke-width:0.9375;"/><path d="M1852.5046,123.3398 L1852.5046,173.9648 M1828.1296,138.3398 L1876.8796,138.3398 M1852.5046,173.9648 L1828.1296,202.0898 M1852.5046,173.9648 L1876.8796,202.0898" fill="none" style="stroke:#2F7D5B;stroke-width:0.9375;"/></g><g class="participant participant-tail" data-entity-uid="part5" data-qualified-name="FOUR" id="part5-tail"><text fill="#000000" font-family="sans-serif" font-size="26.25" lengthAdjust="spacing" textLength="153.4497" x="1770.1547" y="1642.4908">Fournisseur</text><ellipse cx="1852.5046" cy="1664.6191" fill="#FFFFFF" rx="15" ry="15" style="stroke:#2F7D5B;stroke-width:0.9375;"/><path d="M1852.5046,1679.6191 L1852.5046,1730.2441 M1828.1296,1694.6191 L1876.8796,1694.6191 M1852.5046,1730.2441 L1828.1296,1758.3691 M1852.5046,1730.2441 L1876.8796,1758.3691" fill="none" style="stroke:#2F7D5B;stroke-width:0.9375;"/></g><g class="participant participant-head" data-entity-uid="part6" data-qualified-name="LIV" id="part6-head"><text fill="#000000" font-family="sans-serif" font-size="26.25" lengthAdjust="spacing" textLength="91.8237" x="1953.6044" y="229.2682">Livreur</text><ellipse cx="2005.1413" cy="108.3398" fill="#FFFFFF" rx="15" ry="15" style="stroke:#2F7D5B;stroke-width:0.9375;"/><path d="M2005.1413,123.3398 L2005.1413,173.9648 M1980.7663,138.3398 L2029.5163,138.3398 M2005.1413,173.9648 L1980.7663,202.0898 M2005.1413,173.9648 L2029.5163,202.0898" fill="none" style="stroke:#2F7D5B;stroke-width:0.9375;"/></g><g class="participant participant-tail" data-entity-uid="part6" data-qualified-name="LIV" id="part6-tail"><text fill="#000000" font-family="sans-serif" font-size="26.25" lengthAdjust="spacing" textLength="91.8237" x="1953.6044" y="1642.4908">Livreur</text><ellipse cx="2005.1413" cy="1664.6191" fill="#FFFFFF" rx="15" ry="15" style="stroke:#2F7D5B;stroke-width:0.9375;"/><path d="M2005.1413,1679.6191 L2005.1413,1730.2441 M1980.7663,1694.6191 L2029.5163,1694.6191 M2005.1413,1730.2441 L1980.7663,1758.3691 M2005.1413,1730.2441 L2029.5163,1758.3691" fill="none" style="stroke:#2F7D5B;stroke-width:0.9375;"/></g><g class="message" data-entity-1="part1" data-entity-2="part2" id="msg1"><polygon fill="#456A7D" points="528.7061,288.5156,547.4561,296.0156,528.7061,303.5156,536.2061,296.0156" style="stroke:#456A7D;stroke-width:1.875;"/><line style="stroke:#456A7D;stroke-width:2.625;" x1="102.6489" x2="539.9561" y1="296.0156" y2="296.0156"/><text fill="#29485B" font-family="sans-serif" font-size="26.25" font-weight="bold" lengthAdjust="spacing" textLength="18.2648" x="115.7739" y="286.0748">1</text><text fill="#29485B" font-family="sans-serif" font-size="26.25" lengthAdjust="spacing" textLength="377.7924" x="141.5387" y="286.0748">choisit l'annonce et le retrait</text></g><g class="message" data-entity-1="part2" data-entity-2="part3" id="msg2"><polygon fill="#456A7D" points="1169.8444,345.3223,1188.5944,352.8223,1169.8444,360.3223,1177.3444,352.8223" style="stroke:#456A7D;stroke-width:1.875;"/><line style="stroke:#456A7D;stroke-width:2.625;" x1="551.2061" x2="1181.0944" y1="352.8223" y2="352.8223"/><text fill="#29485B" font-family="sans-serif" font-size="26.25" font-weight="bold" lengthAdjust="spacing" textLength="18.2648" x="564.3311" y="342.8815">2</text><text fill="#29485B" font-family="sans-serif" font-size="26.25" lengthAdjust="spacing" textLength="570.3735" x="590.0958" y="342.8815">cr&#233;erCommande(annonce, quantit&#233;, mode)</text></g><g class="message" data-entity-1="part3" data-entity-2="part4" id="msg3"><polygon fill="#456A7D" points="1610.5829,402.1289,1629.3329,409.6289,1610.5829,417.1289,1618.0829,409.6289" style="stroke:#456A7D;stroke-width:1.875;"/><line style="stroke:#456A7D;stroke-width:2.625;" x1="1192.3444" x2="1621.8329" y1="409.6289" y2="409.6289"/><text fill="#29485B" font-family="sans-serif" font-size="26.25" font-weight="bold" lengthAdjust="spacing" textLength="18.2648" x="1205.4694" y="399.6881">3</text><text fill="#29485B" font-family="sans-serif" font-size="26.25" lengthAdjust="spacing" textLength="369.9738" x="1231.2341" y="399.6881">v&#233;rifie le stock et enregistre</text></g><g class="message" data-entity-1="part3" data-entity-2="part2" id="msg4"><polygon fill="#456A7D" points="571.8311,458.9355,553.0811,466.4355,571.8311,473.9355,564.3311,466.4355" style="stroke:#456A7D;stroke-width:1.875;"/><line style="stroke:#456A7D;stroke-width:2.625;stroke-dasharray:3.75,3.75;" x1="560.5811" x2="1190.4694" y1="466.4355" y2="466.4355"/><text fill="#29485B" font-family="sans-serif" font-size="26.25" font-weight="bold" lengthAdjust="spacing" textLength="18.2648" x="583.0811" y="456.4948">4</text><text fill="#29485B" font-family="sans-serif" font-size="26.25" lengthAdjust="spacing" textLength="348.7866" x="608.8458" y="456.4948">affiche le montant &#224; payer</text></g><g class="message" data-entity-1="part1" data-entity-2="part2" id="msg5"><polygon fill="#456A7D" points="528.7061,515.7422,547.4561,523.2422,528.7061,530.7422,536.2061,523.2422" style="stroke:#456A7D;stroke-width:1.875;"/><line style="stroke:#456A7D;stroke-width:2.625;" x1="102.6489" x2="539.9561" y1="523.2422" y2="523.2422"/><text fill="#29485B" font-family="sans-serif" font-size="26.25" font-weight="bold" lengthAdjust="spacing" textLength="18.2648" x="115.7739" y="513.3014">5</text><text fill="#29485B" font-family="sans-serif" font-size="26.25" lengthAdjust="spacing" textLength="243.4277" x="141.5387" y="513.3014">paie la commande</text></g><g class="message" data-entity-1="part2" data-entity-2="part3" id="msg6"><polygon fill="#456A7D" points="1169.8444,572.5488,1188.5944,580.0488,1169.8444,587.5488,1177.3444,580.0488" style="stroke:#456A7D;stroke-width:1.875;"/><line style="stroke:#456A7D;stroke-width:2.625;" x1="551.2061" x2="1181.0944" y1="580.0488" y2="580.0488"/><text fill="#29485B" font-family="sans-serif" font-size="26.25" font-weight="bold" lengthAdjust="spacing" textLength="18.2648" x="564.3311" y="570.108">6</text><text fill="#29485B" font-family="sans-serif" font-size="26.25" lengthAdjust="spacing" textLength="271.4594" x="590.0958" y="570.108">confirmerPaiement()</text></g><g class="message" data-entity-1="part3" data-entity-2="part4" id="msg7"><polygon fill="#456A7D" points="1610.5829,629.3555,1629.3329,636.8555,1610.5829,644.3555,1618.0829,636.8555" style="stroke:#456A7D;stroke-width:1.875;"/><line style="stroke:#456A7D;stroke-width:2.625;" x1="1192.3444" x2="1621.8329" y1="636.8555" y2="636.8555"/><text fill="#29485B" font-family="sans-serif" font-size="26.25" font-weight="bold" lengthAdjust="spacing" textLength="18.2648" x="1205.4694" y="626.9147">7</text><text fill="#29485B" font-family="sans-serif" font-size="26.25" lengthAdjust="spacing" textLength="236.0962" x="1231.2341" y="626.9147">commande pay&#233;e</text></g><g class="message" data-entity-1="part3" data-entity-2="part5" id="msg8"><polygon fill="#456A7D" points="1830.0046,686.1621,1848.7546,693.6621,1830.0046,701.1621,1837.5046,693.6621" style="stroke:#456A7D;stroke-width:1.875;"/><line style="stroke:#456A7D;stroke-width:2.625;" x1="1192.3444" x2="1841.2546" y1="693.6621" y2="693.6621"/><text fill="#29485B" font-family="sans-serif" font-size="26.25" font-weight="bold" lengthAdjust="spacing" textLength="18.2648" x="1205.4694" y="683.7213">8</text><text fill="#29485B" font-family="sans-serif" font-size="26.25" lengthAdjust="spacing" textLength="270.2032" x="1231.2341" y="683.7213">notifie la commande</text></g><g class="message" data-entity-1="part5" data-entity-2="part2" id="msg9"><polygon fill="#456A7D" points="571.8311,742.9688,553.0811,750.4688,571.8311,757.9688,564.3311,750.4688" style="stroke:#456A7D;stroke-width:1.875;"/><line style="stroke:#456A7D;stroke-width:2.625;" x1="560.5811" x2="1850.6296" y1="750.4688" y2="750.4688"/><text fill="#29485B" font-family="sans-serif" font-size="26.25" font-weight="bold" lengthAdjust="spacing" textLength="18.2648" x="583.0811" y="740.528">9</text><text fill="#29485B" font-family="sans-serif" font-size="26.25" lengthAdjust="spacing" textLength="291.4417" x="608.8458" y="740.528">accepte la commande</text></g><g class="message" data-entity-1="part2" data-entity-2="part3" id="msg10"><polygon fill="#456A7D" points="1169.8444,799.7754,1188.5944,807.2754,1169.8444,814.7754,1177.3444,807.2754" style="stroke:#456A7D;stroke-width:1.875;"/><line style="stroke:#456A7D;stroke-width:2.625;" x1="551.2061" x2="1181.0944" y1="807.2754" y2="807.2754"/><text fill="#29485B" font-family="sans-serif" font-size="26.25" font-weight="bold" lengthAdjust="spacing" textLength="36.5295" x="564.3311" y="797.3346">10</text><text fill="#29485B" font-family="sans-serif" font-size="26.25" lengthAdjust="spacing" textLength="261.3593" x="608.3606" y="797.3346">validerCommande()</text></g><g class="message" data-entity-1="part3" data-entity-2="part4" id="msg11"><polygon fill="#456A7D" points="1610.5829,856.582,1629.3329,864.082,1610.5829,871.582,1618.0829,864.082" style="stroke:#456A7D;stroke-width:1.875;"/><line style="stroke:#456A7D;stroke-width:2.625;" x1="1192.3444" x2="1621.8329" y1="864.082" y2="864.082"/><text fill="#29485B" font-family="sans-serif" font-size="26.25" font-weight="bold" lengthAdjust="spacing" textLength="36.5295" x="1205.4694" y="854.1412">11</text><text fill="#29485B" font-family="sans-serif" font-size="26.25" lengthAdjust="spacing" textLength="250.6824" x="1249.4989" y="854.1412">commande valid&#233;e</text></g><path d="M30,892.207 L142.3846,892.207 L142.3846,907.7637 L123.6346,926.5137 L18.75,926.5137 L18.75,903.457 A11.25,11.25 0 0 1 30,892.207" fill="#F7FBFD" style="stroke:#9CB4C1;stroke-width:2.8125;"/><rect fill="none" height="582.3047" rx="11.25" ry="11.25" style="stroke:#9CB4C1;stroke-width:2.8125;" width="2056.6782" x="18.75" y="892.207"/><text fill="#000000" font-family="sans-serif" font-size="26.25" font-weight="bold" lengthAdjust="spacing" textLength="39.2596" x="46.875" y="918.4479">alt</text><text fill="#000000" font-family="sans-serif" font-size="26.25" font-weight="bold" lengthAdjust="spacing" textLength="263.9484" x="170.5096" y="920.3229">[livraison choisie]</text><g class="message" data-entity-1="part3" data-entity-2="part6" id="msg12"><polygon fill="#456A7D" points="1982.6413,963.252,2001.3913,970.752,1982.6413,978.252,1990.1413,970.752" style="stroke:#456A7D;stroke-width:1.875;"/><line style="stroke:#456A7D;stroke-width:2.625;" x1="1192.3444" x2="1993.8913" y1="970.752" y2="970.752"/><text fill="#29485B" font-family="sans-serif" font-size="26.25" font-weight="bold" lengthAdjust="spacing" textLength="36.5295" x="1205.4694" y="960.8112">12</text><text fill="#29485B" font-family="sans-serif" font-size="26.25" lengthAdjust="spacing" textLength="256.7963" x="1249.4989" y="960.8112">propose la livraison</text></g><g class="message" data-entity-1="part6" data-entity-2="part2" id="msg13"><polygon fill="#456A7D" points="571.8311,1020.0586,553.0811,1027.5586,571.8311,1035.0586,564.3311,1027.5586" style="stroke:#456A7D;stroke-width:1.875;"/><line style="stroke:#456A7D;stroke-width:2.625;" x1="560.5811" x2="2003.2663" y1="1027.5586" y2="1027.5586"/><text fill="#29485B" font-family="sans-serif" font-size="26.25" font-weight="bold" lengthAdjust="spacing" textLength="36.5295" x="583.0811" y="1017.6178">13</text><text fill="#29485B" font-family="sans-serif" font-size="26.25" lengthAdjust="spacing" textLength="317.3328" x="627.1106" y="1017.6178">prend en charge et livre</text></g><g class="message" data-entity-1="part2" data-entity-2="part3" id="msg14"><polygon fill="#456A7D" points="1169.8444,1076.8652,1188.5944,1084.3652,1169.8444,1091.8652,1177.3444,1084.3652" style="stroke:#456A7D;stroke-width:1.875;"/><line style="stroke:#456A7D;stroke-width:2.625;" x1="551.2061" x2="1181.0944" y1="1084.3652" y2="1084.3652"/><text fill="#29485B" font-family="sans-serif" font-size="26.25" font-weight="bold" lengthAdjust="spacing" textLength="36.5295" x="564.3311" y="1074.4244">14</text><text fill="#29485B" font-family="sans-serif" font-size="26.25" lengthAdjust="spacing" textLength="266.9092" x="608.3606" y="1074.4244">confirme la livraison</text></g><g class="message" data-entity-1="part1" data-entity-2="part2" id="msg15"><polygon fill="#456A7D" points="528.7061,1133.6719,547.4561,1141.1719,528.7061,1148.6719,536.2061,1141.1719" style="stroke:#456A7D;stroke-width:1.875;"/><line style="stroke:#456A7D;stroke-width:2.625;" x1="102.6489" x2="539.9561" y1="1141.1719" y2="1141.1719"/><text fill="#29485B" font-family="sans-serif" font-size="26.25" font-weight="bold" lengthAdjust="spacing" textLength="36.5295" x="115.7739" y="1131.2311">15</text><text fill="#29485B" font-family="sans-serif" font-size="26.25" lengthAdjust="spacing" textLength="244.2993" x="159.8035" y="1131.2311">scanne le QR code</text></g><g class="message" data-entity-1="part2" data-entity-2="part3" id="msg16"><polygon fill="#456A7D" points="1169.8444,1190.4785,1188.5944,1197.9785,1169.8444,1205.4785,1177.3444,1197.9785" style="stroke:#456A7D;stroke-width:1.875;"/><line style="stroke:#456A7D;stroke-width:2.625;" x1="551.2061" x2="1181.0944" y1="1197.9785" y2="1197.9785"/><text fill="#29485B" font-family="sans-serif" font-size="26.25" font-weight="bold" lengthAdjust="spacing" textLength="36.5295" x="564.3311" y="1188.0377">16</text><text fill="#29485B" font-family="sans-serif" font-size="26.25" lengthAdjust="spacing" textLength="342.6727" x="608.3606" y="1188.0377">confirmerR&#233;ception(code)</text></g><g class="message" data-entity-1="part3" data-entity-2="part4" id="msg17"><polygon fill="#456A7D" points="1610.5829,1247.2852,1629.3329,1254.7852,1610.5829,1262.2852,1618.0829,1254.7852" style="stroke:#456A7D;stroke-width:1.875;"/><line style="stroke:#456A7D;stroke-width:2.625;" x1="1192.3444" x2="1621.8329" y1="1254.7852" y2="1254.7852"/><text fill="#29485B" font-family="sans-serif" font-size="26.25" font-weight="bold" lengthAdjust="spacing" textLength="36.5295" x="1205.4694" y="1244.8444">17</text><text fill="#29485B" font-family="sans-serif" font-size="26.25" lengthAdjust="spacing" textLength="287.84" x="1249.4989" y="1244.8444">commande confirm&#233;e</text></g><line style="stroke:#9CB4C1;stroke-width:1.875;stroke-dasharray:3.75,3.75;" x1="18.75" x2="2075.4282" y1="1271.6602" y2="1271.6602"/><text fill="#000000" font-family="sans-serif" font-size="26.25" font-weight="bold" lengthAdjust="spacing" textLength="215.2808" x="28.125" y="1296.026">[retrait direct]</text><g class="message" data-entity-1="part1" data-entity-2="part2" id="msg18"><polygon fill="#456A7D" points="528.7061,1338.3984,547.4561,1345.8984,528.7061,1353.3984,536.2061,1345.8984" style="stroke:#456A7D;stroke-width:1.875;"/><line style="stroke:#456A7D;stroke-width:2.625;" x1="102.6489" x2="539.9561" y1="1345.8984" y2="1345.8984"/><text fill="#29485B" font-family="sans-serif" font-size="26.25" font-weight="bold" lengthAdjust="spacing" textLength="36.5295" x="115.7739" y="1335.9576">18</text><text fill="#29485B" font-family="sans-serif" font-size="26.25" lengthAdjust="spacing" textLength="280.7135" x="159.8035" y="1335.9576">confirme la r&#233;ception</text></g><g class="message" data-entity-1="part2" data-entity-2="part3" id="msg19"><polygon fill="#456A7D" points="1169.8444,1395.2051,1188.5944,1402.7051,1169.8444,1410.2051,1177.3444,1402.7051" style="stroke:#456A7D;stroke-width:1.875;"/><line style="stroke:#456A7D;stroke-width:2.625;" x1="551.2061" x2="1181.0944" y1="1402.7051" y2="1402.7051"/><text fill="#29485B" font-family="sans-serif" font-size="26.25" font-weight="bold" lengthAdjust="spacing" textLength="36.5295" x="564.3311" y="1392.7643">19</text><text fill="#29485B" font-family="sans-serif" font-size="26.25" lengthAdjust="spacing" textLength="279.3677" x="608.3606" y="1392.7643">confirmerR&#233;ception()</text></g><g class="message" data-entity-1="part3" data-entity-2="part4" id="msg20"><polygon fill="#456A7D" points="1610.5829,1452.0117,1629.3329,1459.5117,1610.5829,1467.0117,1618.0829,1459.5117" style="stroke:#456A7D;stroke-width:1.875;"/><line style="stroke:#456A7D;stroke-width:2.625;" x1="1192.3444" x2="1621.8329" y1="1459.5117" y2="1459.5117"/><text fill="#29485B" font-family="sans-serif" font-size="26.25" font-weight="bold" lengthAdjust="spacing" textLength="36.5295" x="1205.4694" y="1449.5709">20</text><text fill="#29485B" font-family="sans-serif" font-size="26.25" lengthAdjust="spacing" textLength="287.84" x="1249.4989" y="1449.5709">commande confirm&#233;e</text></g><g class="message" data-entity-1="part3" data-entity-2="part4" id="msg21"><polygon fill="#456A7D" points="1610.5829,1521.9434,1629.3329,1529.4434,1610.5829,1536.9434,1618.0829,1529.4434" style="stroke:#456A7D;stroke-width:1.875;"/><line style="stroke:#456A7D;stroke-width:2.625;" x1="1192.3444" x2="1621.8329" y1="1529.4434" y2="1529.4434"/><text fill="#29485B" font-family="sans-serif" font-size="26.25" font-weight="bold" lengthAdjust="spacing" textLength="36.5295" x="1205.4694" y="1519.5026">21</text><text fill="#29485B" font-family="sans-serif" font-size="26.25" lengthAdjust="spacing" textLength="265.9607" x="1249.4989" y="1519.5026">cr&#233;e les versements</text></g><g class="message" data-entity-1="part3" data-entity-2="part1" id="msg22"><polygon fill="#456A7D" points="123.2739,1578.75,104.5239,1586.25,123.2739,1593.75,115.7739,1586.25" style="stroke:#456A7D;stroke-width:1.875;"/><line style="stroke:#456A7D;stroke-width:2.625;stroke-dasharray:3.75,3.75;" x1="112.0239" x2="1190.4694" y1="1586.25" y2="1586.25"/><text fill="#29485B" font-family="sans-serif" font-size="26.25" font-weight="bold" lengthAdjust="spacing" textLength="36.5295" x="134.5239" y="1576.3092">22</text><text fill="#29485B" font-family="sans-serif" font-size="26.25" lengthAdjust="spacing" textLength="303.4131" x="178.5535" y="1576.3092">confirme la commande</text></g><?plantuml-src ZPR1Sk9648RlUeefvs2dQkCo81QSGweaa7PTvV8Iizvx8xLWojACTcR0IqvvY3n0hZm7Rx9FaXuXo02oRChueFww--_k4JsNR6hMER945iLIi9z__yDI3dC5HO6QHJckHb88J8ntoQRVFh7VMIPL0OQjw9bK77CcqB3jlyp8fK5cWESvNhF9WsNnHocLOGkmfdIxoRZWXajnxUbdBagWD6m6oVDSoQL8HpANYlqILn-7I4lEEiCRvubUG2fVk9Yp37ADZgKAb4WbKB5Erp7ad7IkIsGaQ27Tw9Z1CZUn5EO12cHJ47gAYcVDp9J_XQpZEyQltEJOwduWAkVkJPEfBhupw7NziGC4IicNskZtFmQ3CwFZtRtrX_tm5FYwuCcpGArPvzeL_Y0DXWtT7qR3Kqgg55LDHFqWylidX2EY7_h3JkJO9vG3viT1ReDm40mQe3CzVXp47yz1jsSnfUmr8xlJFPDvwdObCNp5pVeysKqyZ7jDfAkz6m_6nrskgTOvrioOGo55sjJttdZOuk0g60zl-zsuiQ9NHOvoq3fyysNROQtbLiXd14BEuaL-t8k2KxYjCP4mZQCu5LPphSfsJ5ksgO66Gn-Duq7SESDQSrL8MwedZGdeXcG1dUbX0-YcwqK3__Rc76gj3RylKIHuppFwYfCNRXJwequR_UO4zXuJK8Odl0HXtYwkoQcrqBr3OFVB-qNjyFQ9rUWd2bYUHnx4OJn-5M_efKThJOfbCKFbWKrFh-423IuL0ys2qMTlPkE3MhEBEs5GPP0WUy7PXRK_tNa93LF9d5quUxQo1PE9buA16KsSNOJsVqf_H6mtg2ja7DOvOxbKWcjTfus_F3tMbdk-KlNJ-xjldcVihc4ZslGWA1ojRRNT95ZQZLnj_jKIcUP5cVECKoBFenhORt-GLDhboK9opGtBBq48INsn0IYUGgE06uyWGacvPIcmxTOkqrNjy85zNu9zGxUR3woGAVxgMPoynY4vhRORMfiSRL1jPF9i4w1GEEVQADonUpMGPPoQRLdwTJGKrjv1IbZJB8vabs0ZGdN1iMAETKgHSLMWcX1Le31NnvBsJZQmRKXjipqcgv1cfzU9xbMsWyh4jlVr_2l8UUeqwfNi5LOD17BgEOqLkAQPxKQ27cEr6utPbgnaANMLzS0IOus7hYWKAJMNGe2QxqPfJmjXJVqv3UKsM2SqtceGVpwIG_fQ3FLuE6nNIJNyW-pZQci7Mo_IvMv_mEXUgkmzz3Yxg_3_q_mE2UzABrBlU2BsN5Efcgw_IbSdHX_EfPLrB6WVypy0?></g></svg>