<?plantuml 1.2026.1?><svg xmlns="http://www.w3.org/2000/svg" xmlns:xlink="http://www.w3.org/1999/xlink" contentStyleType="text/css" data-diagram-type="STATE" height="1740px" preserveAspectRatio="none" style="width:1038px;height:1740px;background:#FFFFFF;" version="1.1" viewBox="0 0 1038 1740" width="1038.75px" zoomAndPan="magnify"><title>Cycle de vie d'une commande &#8212; vue simplifi&#233;e</title><defs/><g><g class="title" data-source-line="51"><text fill="#17324D" font-family="sans-serif" font-size="37.5" font-weight="bold" lengthAdjust="spacing" textLength="987.3596" x="18.75" y="53.5583">Cycle de vie d'une commande &#8212; vue simplifi&#233;e</text></g><g><rect fill="#EDF7F1" height="93.75" rx="11.25" ry="11.25" style="stroke:#2F7D5B;stroke-width:0.9375;" width="174.9664" x="634.4882" y="244.2773"/><line style="stroke:#2F7D5B;stroke-width:0.9375;" x1="634.4882" x2="809.4546" y1="293.584" y2="293.584"/><text fill="#17324D" font-family="sans-serif" font-size="26.25" lengthAdjust="spacing" textLength="137.4664" x="653.2382" y="278.0182">En attente</text></g><g><rect fill="#EDF7F1" height="93.75" rx="11.25" ry="11.25" style="stroke:#2F7D5B;stroke-width:0.9375;" width="117.2498" x="584.5945" y="450.5273"/><line style="stroke:#2F7D5B;stroke-width:0.9375;" x1="584.5945" x2="701.8442" y1="499.834" y2="499.834"/><text fill="#17324D" font-family="sans-serif" font-size="26.25" lengthAdjust="spacing" textLength="79.7498" x="603.3445" y="484.2682">Pay&#233;e</text></g><g><rect fill="#EDF7F1" height="93.75" rx="11.25" ry="11.25" style="stroke:#2F7D5B;stroke-width:0.9375;" width="218.6224" x="488.9132" y="656.7773"/><line style="stroke:#2F7D5B;stroke-width:0.9375;" x1="488.9132" x2="707.5356" y1="706.084" y2="706.084"/><text fill="#17324D" font-family="sans-serif" font-size="26.25" lengthAdjust="spacing" textLength="181.1224" x="507.6632" y="690.5182">En traitement</text></g><g><rect fill="#EDF7F1" height="93.75" rx="11.25" ry="11.25" style="stroke:#2F7D5B;stroke-width:0.9375;" width="135.0916" x="436.9382" y="863.0273"/><line style="stroke:#2F7D5B;stroke-width:0.9375;" x1="436.9382" x2="572.0298" y1="912.334" y2="912.334"/><text fill="#17324D" font-family="sans-serif" font-size="26.25" lengthAdjust="spacing" textLength="97.5916" x="455.6882" y="896.7682">Valid&#233;e</text></g><g><rect fill="#EDF7F1" height="93.75" rx="11.25" ry="11.25" style="stroke:#2F7D5B;stroke-width:0.9375;" width="189.7321" x="214.6007" y="1069.2773"/><line style="stroke:#2F7D5B;stroke-width:0.9375;" x1="214.6007" x2="404.3328" y1="1118.584" y2="1118.584"/><text fill="#17324D" font-family="sans-serif" font-size="26.25" lengthAdjust="spacing" textLength="152.2321" x="233.3507" y="1103.0182">En livraison</text></g><g><rect fill="#EDF7F1" height="93.75" rx="11.25" ry="11.25" style="stroke:#2F7D5B;stroke-width:0.9375;" width="118.0444" x="269.2007" y="1275.5273"/><line style="stroke:#2F7D5B;stroke-width:0.9375;" x1="269.2007" x2="387.2451" y1="1324.834" y2="1324.834"/><text fill="#17324D" font-family="sans-serif" font-size="26.25" lengthAdjust="spacing" textLength="80.5444" x="287.9507" y="1309.2682">Livr&#233;e</text></g><g><rect fill="#EDF7F1" height="93.75" rx="11.25" ry="11.25" style="stroke:#2F7D5B;stroke-width:0.9375;" width="173.7231" x="410.107" y="1481.7773"/><line style="stroke:#2F7D5B;stroke-width:0.9375;" x1="410.107" x2="583.8301" y1="1531.084" y2="1531.084"/><text fill="#17324D" font-family="sans-serif" font-size="26.25" lengthAdjust="spacing" textLength="136.2231" x="428.857" y="1515.5182">Confirm&#233;e</text></g><g><rect fill="#EDF7F1" height="93.75" rx="11.25" ry="11.25" style="stroke:#2F7D5B;stroke-width:0.9375;" width="144.9609" x="773.2382" y="656.7773"/><line style="stroke:#2F7D5B;stroke-width:0.9375;" x1="773.2382" x2="918.1991" y1="706.084" y2="706.084"/><text fill="#17324D" font-family="sans-serif" font-size="26.25" lengthAdjust="spacing" textLength="107.4609" x="791.9882" y="690.5182">Annul&#233;e</text></g><g><rect fill="#EDF7F1" height="93.75" rx="11.25" ry="11.25" style="stroke:#2F7D5B;stroke-width:0.9375;" width="143.7433" x="603.232" y="1069.2773"/><line style="stroke:#2F7D5B;stroke-width:0.9375;" x1="603.232" x2="746.9752" y1="1118.584" y2="1118.584"/><text fill="#17324D" font-family="sans-serif" font-size="26.25" lengthAdjust="spacing" textLength="106.2433" x="621.982" y="1103.0182">Refus&#233;e</text></g><ellipse cx="721.9757" cy="113.0273" fill="#222222" rx="18.75" ry="18.75" style="stroke:#222222;stroke-width:1.875;"/><ellipse cx="682.6007" cy="1708.6523" fill="none" rx="20.625" ry="20.625" style="stroke:#222222;stroke-width:1.875;"/><ellipse cx="682.6007" cy="1708.6523" fill="#222222" rx="11.25" ry="11.25" style="stroke:#222222;stroke-width:1.875;"/><!--link *start* to EnAttente--><g class="link" data-entity-1="ent0002" data-entity-2="ent0002" data-link-type="dependency" data-source-line="53" id="lnk3"><path d="M721.9757,132.0961 C721.9757,158.4773 721.9757,195.7523 721.9757,232.2961" fill="none" id="*start*-to-EnAttente" style="stroke:#456A7D;stroke-width:2.625;"/><polygon fill="#456A7D" points="721.9757,243.5461,729.4757,226.6711,721.9757,234.1711,714.4757,226.6711,721.9757,243.5461" style="stroke:#456A7D;stroke-width:2.625;"/><text fill="#29485B" font-family="sans-serif" font-size="26.25" lengthAdjust="spacing" textLength="107.7429" x="613.2257" y="180.3119">cr&#233;ation</text></g><!--link EnAttente to Payee--><g class="link" data-entity-1="ent0002" data-entity-2="ent0003" data-link-type="dependency" data-source-line="54" id="lnk4"><path d="M668.1632,338.4773 C668.1632,371.7773 668.1632,404.9273 668.1632,438.3398" fill="none" id="EnAttente-to-Payee" style="stroke:#456A7D;stroke-width:2.625;"/><polygon fill="#456A7D" points="668.1632,449.5898,675.6632,432.7148,668.1632,440.2148,660.6632,432.7148,668.1632,449.5898" style="stroke:#456A7D;stroke-width:2.625;"/><text fill="#29485B" font-family="sans-serif" font-size="26.25" lengthAdjust="spacing" textLength="237.3907" x="430.0382" y="386.5244">paiement accept&#233;</text></g><!--link EnAttente to Annulee--><g class="link" data-entity-1="ent0002" data-entity-2="ent0009" data-link-type="dependency" data-source-line="55" id="lnk5"><path d="M791.3507,338.4773 C791.3507,417.8273 791.3507,565.5961 791.3507,645.0023" fill="none" id="EnAttente-to-Annulee" style="stroke:#456A7D;stroke-width:2.625;"/><polygon fill="#456A7D" points="791.3507,656.2523,798.8507,639.3773,791.3507,646.8773,783.8507,639.3773,791.3507,656.2523" style="stroke:#456A7D;stroke-width:2.625;"/><text fill="#29485B" font-family="sans-serif" font-size="26.25" lengthAdjust="spacing" textLength="139.6582" x="793.2257" y="489.8557">annulation</text></g><!--link Payee to Traitement--><g class="link" data-entity-1="ent0003" data-entity-2="ent0004" data-link-type="dependency" data-source-line="56" id="lnk6"><path d="M643.2257,544.7273 C643.2257,578.0273 643.2257,611.1773 643.2257,644.5898" fill="none" id="Payee-to-Traitement" style="stroke:#456A7D;stroke-width:2.625;"/><polygon fill="#456A7D" points="643.2257,655.8398,650.7257,638.9648,643.2257,646.4648,635.7257,638.9648,643.2257,655.8398" style="stroke:#456A7D;stroke-width:2.625;"/><text fill="#29485B" font-family="sans-serif" font-size="26.25" lengthAdjust="spacing" textLength="303.5541" x="339.4757" y="592.7744">notification fournisseur</text></g><!--link Traitement to Validee--><g class="link" data-entity-1="ent0004" data-entity-2="ent0005" data-link-type="dependency" data-source-line="57" id="lnk7"><path d="M530.4632,750.9773 C530.4632,784.2773 530.4632,817.4273 530.4632,850.8398" fill="none" id="Traitement-to-Validee" style="stroke:#456A7D;stroke-width:2.625;"/><polygon fill="#456A7D" points="530.4632,862.0898,537.9632,845.2148,530.4632,852.7148,522.9632,845.2148,530.4632,862.0898" style="stroke:#456A7D;stroke-width:2.625;"/><text fill="#29485B" font-family="sans-serif" font-size="26.25" lengthAdjust="spacing" textLength="275.8685" x="252.9632" y="799.0244">commande accept&#233;e</text></g><!--link Traitement to Refusee--><g class="link" data-entity-1="ent0004" data-entity-2="ent0010" data-link-type="dependency" data-source-line="58" id="lnk8"><path d="M655.3757,750.9773 C655.3757,830.3273 655.3757,978.0961 655.3757,1057.5023" fill="none" id="Traitement-to-Refusee" style="stroke:#456A7D;stroke-width:2.625;"/><polygon fill="#456A7D" points="655.3757,1068.7523,662.8757,1051.8773,655.3757,1059.3773,647.8757,1051.8773,655.3757,1068.7523" style="stroke:#456A7D;stroke-width:2.625;"/><text fill="#29485B" font-family="sans-serif" font-size="26.25" lengthAdjust="spacing" textLength="254.3097" x="657.2507" y="902.3557">commande refus&#233;e</text></g><!--link Validee to EnLivraison--><g class="link" data-entity-1="ent0005" data-entity-2="ent0006" data-link-type="dependency" data-source-line="59" id="lnk9"><path d="M481.957,957.2273 C481.957,1018.1086 481.957,1116.1523 481.957,1116.1523 C481.957,1116.1523 455.932,1116.1523 416.0507,1116.1523" fill="none" id="Validee-to-EnLivraison" style="stroke:#456A7D;stroke-width:2.625;"/><polygon fill="#456A7D" points="404.8007,1116.1523,421.6757,1123.6523,414.1757,1116.1523,421.6757,1108.6523,404.8007,1116.1523" style="stroke:#456A7D;stroke-width:2.625;"/><text fill="#29485B" font-family="sans-serif" font-size="26.25" lengthAdjust="spacing" textLength="210.5511" x="483.832" y="1067.7494">livraison choisie</text></g><!--link Validee to Confirmee--><g class="link" data-entity-1="ent0005" data-entity-2="ent0008" data-link-type="dependency" data-source-line="60" id="lnk10"><path d="M526.9945,957.4336 C526.9945,1072.5961 526.9945,1354.3711 526.9945,1469.7211" fill="none" id="Validee-to-Confirmee" style="stroke:#456A7D;stroke-width:2.625;"/><polygon fill="#456A7D" points="526.9945,1480.9711,534.4945,1464.0961,526.9945,1471.5961,519.4945,1464.0961,526.9945,1480.9711" style="stroke:#456A7D;stroke-width:2.625;"/><text fill="#29485B" font-family="sans-serif" font-size="26.25" lengthAdjust="spacing" textLength="290.1855" x="236.3695" y="1245.4432">retrait direct confirm&#233;</text></g><!--link EnLivraison to Livree--><g class="link" data-entity-1="ent0006" data-entity-2="ent0007" data-link-type="dependency" data-source-line="61" id="lnk11"><path d="M328.2257,1163.4773 C328.2257,1196.7773 328.2257,1229.9273 328.2257,1263.3398" fill="none" id="EnLivraison-to-Livree" style="stroke:#456A7D;stroke-width:2.625;"/><polygon fill="#456A7D" points="328.2257,1274.5898,335.7257,1257.7148,328.2257,1265.2148,320.7257,1257.7148,328.2257,1274.5898" style="stroke:#456A7D;stroke-width:2.625;"/><text fill="#29485B" font-family="sans-serif" font-size="26.25" lengthAdjust="spacing" textLength="211.1407" x="116.3507" y="1211.5244">remise au client</text></g><!--link Livree to Confirmee--><g class="link" data-entity-1="ent0007" data-entity-2="ent0008" data-link-type="dependency" data-source-line="62" id="lnk12"><path d="M388.0382,1322.4023 C407.182,1322.4023 423.5132,1322.4023 423.5132,1322.4023 C423.5132,1322.4023 423.5132,1409.1961 423.5132,1470.0773" fill="none" id="Livree-to-Confirmee" style="stroke:#456A7D;stroke-width:2.625;"/><polygon fill="#456A7D" points="423.5132,1481.3273,431.0132,1464.4523,423.5132,1471.9523,416.0132,1464.4523,423.5132,1481.3273" style="stroke:#456A7D;stroke-width:2.625;"/><text fill="#29485B" font-family="sans-serif" font-size="26.25" lengthAdjust="spacing" textLength="197.9132" x="224.7632" y="1410.3682">QR code valid&#233;</text></g><!--link Confirmee to *end*--><g class="link" data-entity-1="ent0008" data-entity-2="ent0013" data-link-type="dependency" data-source-line="63" id="lnk14"><path d="M584.257,1528.6523 C629.632,1528.6523 675.7195,1528.6523 675.7195,1528.6523 C675.7195,1528.6523 675.7195,1630.5773 675.7195,1677.4523" fill="none" id="Confirmee-to-*end*" style="stroke:#456A7D;stroke-width:2.625;"/><polygon fill="#456A7D" points="675.7195,1688.7023,683.2195,1671.8273,675.7195,1679.3273,668.2195,1671.8273,675.7195,1688.7023" style="stroke:#456A7D;stroke-width:2.625;"/><text fill="#29485B" font-family="sans-serif" font-size="26.25" lengthAdjust="spacing" textLength="154.6289" x="677.5945" y="1555.4369">versements</text></g><!--link Annulee to *end*--><g class="link" data-entity-1="ent0009" data-entity-2="ent0013" data-link-type="dependency" data-source-line="64" id="lnk15"><path d="M845.7257,751.4461 C845.7257,951.1711 845.7257,1708.6523 845.7257,1708.6523 C845.7257,1708.6523 759.4007,1708.6523 715.1695,1708.6523" fill="none" id="Annulee-to-*end*" style="stroke:#456A7D;stroke-width:2.625;"/><polygon fill="#456A7D" points="703.9195,1708.6523,720.7945,1716.1523,713.2945,1708.6523,720.7945,1701.1523,703.9195,1708.6523" style="stroke:#456A7D;stroke-width:2.625;"/></g><!--link Refusee to *end*--><g class="link" data-entity-1="ent0010" data-entity-2="ent0013" data-link-type="dependency" data-source-line="65" id="lnk16"><path d="M689.482,1163.6461 C689.482,1285.2961 689.482,1593.1898 689.482,1677.0023" fill="none" id="Refusee-to-*end*" style="stroke:#456A7D;stroke-width:2.625;"/><polygon fill="#456A7D" points="689.482,1688.2523,696.982,1671.3773,689.482,1678.8773,681.982,1671.3773,689.482,1688.2523" style="stroke:#456A7D;stroke-width:2.625;"/><text fill="#29485B" font-family="sans-serif" font-size="26.25" lengthAdjust="spacing" textLength="211.1407" x="477.607" y="1418.4307">remboursement</text></g><?plantuml-src ZPPDRkCs5CVtEiL3kWXGO8BObiUA5mLaMvek1a4QPx8PTC58Jp4HYNH9obFFgeVe0RhDENoJdgIF-h0PMQFKG1oP_z_x-bCsTGbhiyyH4baKfO1___eRKiwU5IiAr13bk5jA8J0ntYMi7p_173Af2cPWHsjISSn1e873Fs1aQH0CutcELt1tQrdySokLWGspKdfupRZWXajnvUaNBhQCoi0JIrwUbIn5kfIvLF1JNBqS8jro60NNpehUi5H-u-8PCfPhT9GgKIALG0MZiIFadFhSRn6eeOrqisF6ojp4KfXRLY2icT1hL3phPzRyEyB8TyG7Rd8S33yILV3ukazgXX_D9cD_vG2XKl9R8_hJZ-7iJ7IYnpT-C5rqWOSDJru4QWsZAxVnMsbmqUD-40LTIgeKLKD4qp3ofnt2QMAwy8DHvEXtL8Czlqro4ovcuQm7Ekl7ZyFuupdeUXPJoKa_Kj_TJp9FNLSImtVSxC-BNST1FEaZtTx7yMprrkM66jp7XbbnLaYHzla-MGK30Mu7g-1cEevx9_fXaykSQRruzyjMOuFZLiYlo0WvonVvyIGAk_2GCP4mlLlHRQpX1ZkhcQ5gQyDwRlfe5S_YqHasMAj2XafzqPWmtLCif7iww07TSfDevjzSdqE3i-4V9Oe4F_EC_aJd2xTS-ClH4Ftk3hGHTqmPdl0j4-RzuVg21WTj0q9xllp_fcfyUCSQz1Cbt9vddiMBUFL3lCTBpzWVRrZk4tfF4NQS_bsMeZvDcQ0bUvxkIWJDYstECtvuHS_x-lFlyE73BtItXiQWeADn3eawl39xD7gdLSlSiJrQVSiu5hGAB4bmQmwl7IuKeimhajchEbKTREK7nRYf4yn1I4Ej91L3ntcf1DSQI-Kvb0rwP3bFgvp7UThgs6NlCIlrMrRP9OksUUgPF_CTXMegFQT3kRrEDf9h_fQb9u-CgwBAgj3OWlHmekZ1WufKKcN3AQ4Dif-QY89hwhY49EVKfjSetSo_tLCsktksCYKyQPQqUpMdXnsbgrcrrnhTY5ux-0ccmazaQXtWUTh-JZXxpJHSH09O_V6YqUkjiXfTaMdjkcDp4sYEAotJUcQ1ntgAOxnhJvFWQ7hBDCPOsLuwqISlhBXiJJ_ghHbMhQuThJN6QlVDhN3n7m00?></g></svg>