<?plantuml 1.2026.1?><svg xmlns="http://www.w3.org/2000/svg" xmlns:xlink="http://www.w3.org/1999/xlink" contentStyleType="text/css" data-diagram-type="DESCRIPTION" height="2141.25px" preserveAspectRatio="none" style="width:1065px;height:2141px;background:#FFFFFF;" version="1.1" viewBox="0 0 1065 2141" width="1065px" zoomAndPan="magnify"><title>Cas d'utilisation d'ElevConnect &#8212; vue simplifi&#233;e</title><defs/><g><g class="title" data-source-line="52"><text fill="#17324D" font-family="sans-serif" font-size="37.5" font-weight="bold" lengthAdjust="spacing" textLength="1012.6465" x="18.75" y="53.5583">Cas d'utilisation d'ElevConnect &#8212; vue simplifi&#233;e</text></g><!--cluster Syst?me ElevConnect--><g class="cluster" data-qualified-name="Syst.me ElevConnect" data-source-line="67" id="ent0013"><rect fill="#F4FAF6" height="1751.25" rx="11.25" ry="11.25" style="stroke:#9CB4C1;stroke-width:1.875;" width="500.3063" x="479.3795" y="203.5898"/><text fill="#000000" font-family="sans-serif" font-size="26.25" font-weight="bold" lengthAdjust="spacing" textLength="318.717" x="570.1741" y="231.7057">Syst&#232;me ElevConnect</text></g><!--entity UC_PROFILE--><g class="entity" data-qualified-name="Syst.me ElevConnect.UC_PROFILE" data-source-line="68" id="ent0014"><ellipse cx="729.5228" cy="1152.3398" fill="#EAF4F8" rx="133.3121" ry="31.1624" style="stroke:#3E7490;stroke-width:0.9375;"/><text fill="#17324D" font-family="sans-serif" font-size="26.25" lengthAdjust="spacing" textLength="204.6295" x="627.208" y="1161.0556">G&#233;rer son profil</text></g><!--entity UC_CATALOG--><g class="entity" data-qualified-name="Syst.me ElevConnect.UC_CATALOG" data-source-line="69" id="ent0015"><ellipse cx="729.516" cy="449.2171" fill="#EAF4F8" rx="172.0427" ry="38.9085" style="stroke:#3E7490;stroke-width:0.9375;"/><text fill="#17324D" font-family="sans-serif" font-size="26.25" lengthAdjust="spacing" textLength="295.697" x="581.6675" y="457.933">Consulter le catalogue</text></g><!--entity UC_LIST--><g class="entity" data-qualified-name="Syst.me ElevConnect.UC_LIST" data-source-line="70" id="ent0016"><ellipse cx="729.5247" cy="1019.2114" fill="#EAF4F8" rx="160.4827" ry="36.5965" style="stroke:#3E7490;stroke-width:0.9375;"/><text fill="#17324D" font-family="sans-serif" font-size="26.25" lengthAdjust="spacing" textLength="269.4086" x="594.8205" y="1027.9272">Publier une annonce</text></g><!--entity UC_ORDER--><g class="entity" data-qualified-name="Syst.me ElevConnect.UC_ORDER" data-source-line="71" id="ent0017"><ellipse cx="729.516" cy="736.0922" fill="#EAF4F8" rx="173.7303" ry="39.2461" style="stroke:#3E7490;stroke-width:0.9375;"/><text fill="#17324D" font-family="sans-serif" font-size="26.25" lengthAdjust="spacing" textLength="299.491" x="579.7705" y="744.808">Passer une commande</text></g><!--entity UC_PAY--><g class="entity" data-qualified-name="Syst.me ElevConnect.UC_PAY" data-source-line="72" id="ent0018"><ellipse cx="729.5247" cy="306.7189" fill="#EAF4F8" rx="168.4889" ry="38.1978" style="stroke:#3E7490;stroke-width:0.9375;"/><text fill="#17324D" font-family="sans-serif" font-size="26.25" lengthAdjust="spacing" textLength="287.6733" x="585.688" y="315.4347">Payer une commande</text></g><!--entity UC_MANAGE--><g class="entity" data-qualified-name="Syst.me ElevConnect.UC_MANAGE" data-source-line="73" id="ent0019"><ellipse cx="729.5261" cy="878.5979" fill="#EAF4F8" rx="168.4154" ry="38.1831" style="stroke:#3E7490;stroke-width:0.9375;"/><text fill="#17324D" font-family="sans-serif" font-size="26.25" lengthAdjust="spacing" textLength="287.5067" x="585.7728" y="887.3137">G&#233;rer une commande</text></g><!--entity UC_RECEIVE--><g class="entity" data-qualified-name="Syst.me ElevConnect.UC_RECEIVE" data-source-line="74" id="ent0020"><ellipse cx="729.5163" cy="591.7097" fill="#EAF4F8" rx="171.9118" ry="38.8824" style="stroke:#3E7490;stroke-width:0.9375;"/><text fill="#17324D" font-family="sans-serif" font-size="26.25" lengthAdjust="spacing" textLength="295.4022" x="581.8152" y="600.4255">Confirmer la r&#233;ception</text></g><!--entity UC_DELIVER--><g class="entity" data-qualified-name="Syst.me ElevConnect.UC_DELIVER" data-source-line="75" id="ent0021"><ellipse cx="729.5254" cy="1887.3328" fill="#EAF4F8" rx="163.5584" ry="37.2117" style="stroke:#3E7490;stroke-width:0.9375;"/><text fill="#17324D" font-family="sans-serif" font-size="26.25" lengthAdjust="spacing" textLength="276.4581" x="591.2963" y="1896.0486">Assurer une livraison</text></g><!--entity UC_APPOINTMENT--><g class="entity" data-qualified-name="Syst.me ElevConnect.UC_APPOINTMENT" data-source-line="76" id="ent0022"><ellipse cx="729.5302" cy="1285.4662" fill="#EAF4F8" rx="162.007" ry="36.9014" style="stroke:#3E7490;stroke-width:0.9375;"/><text fill="#17324D" font-family="sans-serif" font-size="26.25" lengthAdjust="spacing" textLength="272.9077" x="593.0764" y="1294.1821">Prendre rendez-vous</text></g><!--entity UC_SERVICES--><g class="entity" data-qualified-name="Syst.me ElevConnect.UC_SERVICES" data-source-line="77" id="ent0023"><ellipse cx="729.5306" cy="1437.3451" fill="#EAF4F8" rx="220.1511" ry="48.5302" style="stroke:#3E7490;stroke-width:0.9375;"/><text fill="#17324D" font-family="sans-serif" font-size="26.25" lengthAdjust="spacing" textLength="400.9277" x="529.0667" y="1446.0609">G&#233;rer les services v&#233;t&#233;rinaires</text></g><!--entity UC_MODERATE--><g class="entity" data-qualified-name="Syst.me ElevConnect.UC_MODERATE" data-source-line="78" id="ent0024"><ellipse cx="729.528" cy="1589.2195" fill="#EAF4F8" rx="169.2422" ry="38.3484" style="stroke:#3E7490;stroke-width:0.9375;"/><text fill="#17324D" font-family="sans-serif" font-size="26.25" lengthAdjust="spacing" textLength="289.3781" x="584.8389" y="1597.9354">Mod&#233;rer les annonces</text></g><!--entity UC_ADMIN--><g class="entity" data-qualified-name="Syst.me ElevConnect.UC_ADMIN" data-source-line="79" id="ent0025"><ellipse cx="729.5215" cy="1739.2149" fill="#EAF4F8" rx="194.0232" ry="45.7126" style="stroke:#3E7490;stroke-width:0.9375;"/><text fill="#17324D" font-family="sans-serif" font-size="26.25" lengthAdjust="spacing" textLength="287.2119" x="585.9155" y="1737.2609">Superviser paiements</text><text fill="#17324D" font-family="sans-serif" font-size="26.25" lengthAdjust="spacing" textLength="180.9045" x="639.0692" y="1767.8176">et utilisateurs</text></g><!--entity USER--><g class="entity" data-qualified-name="USER" data-source-line="54" id="ent0002"><ellipse cx="729.5324" cy="2006.1211" fill="#FFFFFF" rx="15" ry="15" style="stroke:#2F7D5B;stroke-width:0.9375;"/><path d="M729.5324,2021.1211 L729.5324,2071.7461 M705.1574,2036.1211 L753.9074,2036.1211 M729.5324,2071.7461 L705.1574,2099.8711 M729.5324,2071.7461 L753.9074,2099.8711" fill="none" style="stroke:#2F7D5B;stroke-width:0.9375;"/><text fill="#000000" font-family="sans-serif" font-size="26.25" lengthAdjust="spacing" textLength="135.0183" x="662.0232" y="2127.0494">Utilisateur</text></g><!--entity BUYER--><g class="entity" data-qualified-name="BUYER" data-source-line="55" id="ent0003"><ellipse cx="235.2847" cy="609.2461" fill="#FFFFFF" rx="15" ry="15" style="stroke:#2F7D5B;stroke-width:0.9375;"/><path d="M235.2847,624.2461 L235.2847,674.8711 M210.9097,639.2461 L259.6597,639.2461 M235.2847,674.8711 L210.9097,702.9961 M235.2847,674.8711 L259.6597,702.9961" fill="none" style="stroke:#2F7D5B;stroke-width:0.9375;"/><text fill="#000000" font-family="sans-serif" font-size="26.25" lengthAdjust="spacing" textLength="119.0479" x="175.7607" y="730.1744">Acheteur</text></g><!--entity SELLER--><g class="entity" data-qualified-name="SELLER" data-source-line="56" id="ent0004"><ellipse cx="235.2795" cy="948.3398" fill="#FFFFFF" rx="15" ry="15" style="stroke:#2F7D5B;stroke-width:0.9375;"/><path d="M235.2795,963.3398 L235.2795,1013.9648 M210.9045,978.3398 L259.6545,978.3398 M235.2795,1013.9648 L210.9045,1042.0898 M235.2795,1013.9648 L259.6545,1042.0898" fill="none" style="stroke:#2F7D5B;stroke-width:0.9375;"/><text fill="#000000" font-family="sans-serif" font-size="26.25" lengthAdjust="spacing" textLength="153.4497" x="96.7107" y="1069.2682">Fournisseur</text><text fill="#000000" font-family="sans-serif" font-size="26.25" lengthAdjust="spacing" textLength="277.1375" x="96.7107" y="1099.8248">(&#233;leveur ou vendeur)</text></g><!--entity VET--><g class="entity" data-qualified-name="VET" data-source-line="57" id="ent0005"><ellipse cx="235.2821" cy="1381.7461" fill="#FFFFFF" rx="15" ry="15" style="stroke:#2F7D5B;stroke-width:0.9375;"/><path d="M235.2821,1396.7461 L235.2821,1447.3711 M210.9071,1411.7461 L259.6571,1411.7461 M235.2821,1447.3711 L210.9071,1475.4961 M235.2821,1447.3711 L259.6571,1475.4961" fill="none" style="stroke:#2F7D5B;stroke-width:0.9375;"/><text fill="#000000" font-family="sans-serif" font-size="26.25" lengthAdjust="spacing" textLength="145.5927" x="162.4857" y="1502.6744">V&#233;t&#233;rinaire</text></g><!--entity COURIER--><g class="entity" data-qualified-name="COURIER" data-source-line="58" id="ent0006"><ellipse cx="235.2851" cy="1947.9961" fill="#FFFFFF" rx="15" ry="15" style="stroke:#2F7D5B;stroke-width:0.9375;"/><path d="M235.2851,1962.9961 L235.2851,2013.6211 M210.9101,1977.9961 L259.6601,1977.9961 M235.2851,2013.6211 L210.9101,2041.7461 M235.2851,2013.6211 L259.6601,2041.7461" fill="none" style="stroke:#2F7D5B;stroke-width:0.9375;"/><text fill="#000000" font-family="sans-serif" font-size="26.25" lengthAdjust="spacing" textLength="91.8237" x="189.3732" y="2068.9244">Livreur</text></g><!--entity ADMIN--><g class="entity" data-qualified-name="ADMIN" data-source-line="59" id="ent0007"><ellipse cx="235.2765" cy="1683.6211" fill="#FFFFFF" rx="15" ry="15" style="stroke:#2F7D5B;stroke-width:0.9375;"/><path d="M235.2765,1698.6211 L235.2765,1749.2461 M210.9015,1713.6211 L259.6515,1713.6211 M235.2765,1749.2461 L210.9015,1777.3711 M235.2765,1749.2461 L259.6515,1777.3711" fill="none" style="stroke:#2F7D5B;stroke-width:0.9375;"/><text fill="#000000" font-family="sans-serif" font-size="26.25" lengthAdjust="spacing" textLength="196.1316" x="137.2107" y="1804.5494">Administrateur</text></g><g class="entity" data-qualified-name="GMN39" data-source-line="98" id="ent0040"><path d="M486.3545,105.5273 L486.3545,162.8906 A11.25,11.25 0 0 0 497.6045,174.1406 L961.4729,174.1406 A11.25,11.25 0 0 0 972.7229,162.8906 L972.7229,113.0273 L953.9729,94.2773 L497.6045,94.2773 A11.25,11.25 0 0 0 486.3545,105.5273" fill="#FFF8E8" style="stroke:#E5AE45;stroke-width:0.9375;"/><path d="M953.9729,94.2773 L953.9729,107.4023 A5.625,5.625 0 0 0 959.5979,113.0273 L972.7229,113.0273 L953.9729,94.2773" fill="#FFF8E8" style="stroke:#E5AE45;stroke-width:1.875;"/><text fill="#5B481E" font-family="sans-serif" font-size="26.25" lengthAdjust="spacing" textLength="446.9934" x="497.6045" y="128.0182">Le QR code est scann&#233; seulement</text><text fill="#5B481E" font-family="sans-serif" font-size="26.25" lengthAdjust="spacing" textLength="358.2074" x="497.6045" y="158.5748">lorsqu'un livreur intervient.</text></g><!--link BUYER to USER--><g class="link" data-entity-1="ent0003" data-entity-2="ent0002" data-link-type="extension" data-source-line="61" id="lnk8"><path d="M295.3857,726.4898 C352.6857,726.4898 430.3107,726.4898 430.3107,726.4898 C430.3107,726.4898 430.3107,2014.4648 430.3107,2014.4648 C430.3107,2014.4648 539.6045,2014.4648 627.8795,2014.4648" fill="none" id="BUYER-to-USER" style="stroke:#456A7D;stroke-width:2.625;"/><polygon fill="none" points="661.6295,2014.4648,627.8795,2003.2148,627.8795,2025.7148,661.6295,2014.4648" style="stroke:#456A7D;stroke-width:2.625;"/></g><!--link SELLER to USER--><g class="link" data-entity-1="ent0004" data-entity-2="ent0002" data-link-type="extension" data-source-line="62" id="lnk9"><path d="M360.9357,1106.8523 C360.9357,1351.9336 360.9357,2026.5961 360.9357,2026.5961 C360.9357,2026.5961 521.7732,2026.5961 628.1795,2026.5961" fill="none" id="SELLER-to-USER" style="stroke:#456A7D;stroke-width:2.625;"/><polygon fill="none" points="661.9295,2026.5961,628.1795,2015.3461,628.1795,2037.8461,661.9295,2026.5961" style="stroke:#456A7D;stroke-width:2.625;"/></g><!--link VET to USER--><g class="link" data-entity-1="ent0005" data-entity-2="ent0002" data-link-type="extension" data-source-line="63" id="lnk10"><path d="M308.4732,1497.3773 C329.042,1497.3773 345.9357,1497.3773 345.9357,1497.3773 C345.9357,1497.3773 345.9357,2038.7273 345.9357,2038.7273 C345.9357,2038.7273 517.967,2038.7273 628.0857,2038.7273" fill="none" id="VET-to-USER" style="stroke:#456A7D;stroke-width:2.625;"/><polygon fill="none" points="661.8357,2038.7273,628.0857,2027.4773,628.0857,2049.9773,661.8357,2038.7273" style="stroke:#456A7D;stroke-width:2.625;"/></g><!--link COURIER to USER--><g class="link" data-entity-1="ent0006" data-entity-2="ent0002" data-link-type="extension" data-source-line="64" id="lnk11"><path d="M281.7732,2062.9898 C369.4857,2062.9898 525.9545,2062.9898 627.9357,2062.9898" fill="none" id="COURIER-to-USER" style="stroke:#456A7D;stroke-width:2.625;"/><polygon fill="none" points="661.6857,2062.9898,627.9357,2051.7398,627.9357,2074.2398,661.6857,2062.9898" style="stroke:#456A7D;stroke-width:2.625;"/></g><!--link ADMIN to USER--><g class="link" data-entity-1="ent0007" data-entity-2="ent0002" data-link-type="extension" data-source-line="65" id="lnk12"><path d="M306.5607,1811.4961 C306.5607,1903.5586 306.5607,2050.8586 306.5607,2050.8586 C306.5607,2050.8586 507.6357,2050.8586 627.3545,2050.8586" fill="none" id="ADMIN-to-USER" style="stroke:#456A7D;stroke-width:2.625;"/><polygon fill="none" points="661.1045,2050.8586,627.3545,2039.6086,627.3545,2062.1086,661.1045,2050.8586" style="stroke:#456A7D;stroke-width:2.625;"/></g><!--link USER to UC_PROFILE--><g class="link" data-entity-1="ent0002" data-entity-2="ent0014" data-link-type="dependency" data-source-line="82" id="lnk26"><path d="M661.142,2002.3148 C593.9795,2002.3148 501.5607,2002.3148 501.5607,2002.3148 C501.5607,2002.3148 501.5607,1152.3398 501.5607,1152.3398 C501.5607,1152.3398 534.7295,1152.3398 584.342,1152.3398" fill="none" id="USER-to-UC_PROFILE" style="stroke:#456A7D;stroke-width:2.625;"/><polygon fill="#456A7D" points="595.592,1152.3398,578.717,1144.8398,586.217,1152.3398,578.717,1159.8398,595.592,1152.3398" style="stroke:#456A7D;stroke-width:2.625;"/></g><!--link BUYER to UC_CATALOG--><g class="link" data-entity-1="ent0003" data-entity-2="ent0015" data-link-type="dependency" data-source-line="83" id="lnk27"><path d="M235.3107,592.4461 C235.3107,529.8023 235.3107,449.2148 235.3107,449.2148 C235.3107,449.2148 402.8982,449.2148 545.4357,449.2148" fill="none" id="BUYER-to-UC_CATALOG" style="stroke:#456A7D;stroke-width:2.625;"/><polygon fill="#456A7D" points="556.6857,449.2148,539.8107,441.7148,547.3107,449.2148,539.8107,456.7148,556.6857,449.2148" style="stroke:#456A7D;stroke-width:2.625;"/></g><!--link BUYER to UC_ORDER--><g class="link" data-entity-1="ent0003" data-entity-2="ent0017" data-link-type="dependency" data-source-line="84" id="lnk28"><path d="M295.3857,716.6086 C364.8545,716.6086 470.5295,716.6086 565.5545,716.6086" fill="none" id="BUYER-to-UC_ORDER" style="stroke:#456A7D;stroke-width:2.625;"/><polygon fill="#456A7D" points="576.8045,716.6086,559.9295,709.1086,567.4295,716.6086,559.9295,724.1086,576.8045,716.6086" style="stroke:#456A7D;stroke-width:2.625;"/></g><!--link BUYER to UC_RECEIVE--><g class="link" data-entity-1="ent0003" data-entity-2="ent0020" data-link-type="dependency" data-source-line="85" id="lnk29"><path d="M295.3857,605.7398 C362.6607,605.7398 463.217,605.7398 556.517,605.7398" fill="none" id="BUYER-to-UC_RECEIVE" style="stroke:#456A7D;stroke-width:2.625;"/><polygon fill="#456A7D" points="567.767,605.7398,550.892,598.2398,558.392,605.7398,550.892,613.2398,567.767,605.7398" style="stroke:#456A7D;stroke-width:2.625;"/></g><!--link SELLER to UC_LIST--><g class="link" data-entity-1="ent0004" data-entity-2="ent0016" data-link-type="dependency" data-source-line="86" id="lnk30"><path d="M374.267,1019.2148 C434.8107,1019.2148 494.867,1019.2148 557.6607,1019.2148" fill="none" id="SELLER-to-UC_LIST" style="stroke:#456A7D;stroke-width:2.625;"/><polygon fill="#456A7D" points="568.9107,1019.2148,552.0357,1011.7148,559.5357,1019.2148,552.0357,1026.7148,568.9107,1019.2148" style="stroke:#456A7D;stroke-width:2.625;"/></g><!--link SELLER to UC_MANAGE--><g class="link" data-entity-1="ent0004" data-entity-2="ent0019" data-link-type="dependency" data-source-line="87" id="lnk31"><path d="M334.6857,931.7648 C334.6857,903.1523 334.6857,878.5898 334.6857,878.5898 C334.6857,878.5898 441.9357,878.5898 549.1107,878.5898" fill="none" id="SELLER-to-UC_MANAGE" style="stroke:#456A7D;stroke-width:2.625;"/><polygon fill="#456A7D" points="560.3607,878.5898,543.4857,871.0898,550.9857,878.5898,543.4857,886.0898,560.3607,878.5898" style="stroke:#456A7D;stroke-width:2.625;"/></g><!--link VET to UC_SERVICES--><g class="link" data-entity-1="ent0005" data-entity-2="ent0023" data-link-type="dependency" data-source-line="88" id="lnk32"><path d="M308.7357,1437.3398 C361.9857,1437.3398 425.7357,1437.3398 497.6795,1437.3398" fill="none" id="VET-to-UC_SERVICES" style="stroke:#456A7D;stroke-width:2.625;"/><polygon fill="#456A7D" points="508.9295,1437.3398,492.0545,1429.8398,499.5545,1437.3398,492.0545,1444.8398,508.9295,1437.3398" style="stroke:#456A7D;stroke-width:2.625;"/></g><!--link VET to UC_APPOINTMENT--><g class="link" data-entity-1="ent0005" data-entity-2="ent0022" data-link-type="dependency" data-source-line="89" id="lnk33"><path d="M235.3107,1364.9648 C235.3107,1325.8523 235.3107,1285.4648 235.3107,1285.4648 C235.3107,1285.4648 411.7295,1285.4648 555.767,1285.4648" fill="none" id="VET-to-UC_APPOINTMENT" style="stroke:#456A7D;stroke-width:2.625;"/><polygon fill="#456A7D" points="567.017,1285.4648,550.142,1277.9648,557.642,1285.4648,550.142,1292.9648,567.017,1285.4648" style="stroke:#456A7D;stroke-width:2.625;"/></g><!--link COURIER to UC_DELIVER--><g class="link" data-entity-1="ent0006" data-entity-2="ent0021" data-link-type="dependency" data-source-line="90" id="lnk34"><path d="M281.717,1961.1211 C382.8732,1961.1211 614.0607,1961.1211 614.0607,1961.1211 C614.0607,1961.1211 614.0607,1946.3648 614.0607,1925.2336" fill="none" id="COURIER-to-UC_DELIVER" style="stroke:#456A7D;stroke-width:2.625;"/><polygon fill="#456A7D" points="614.0607,1913.9836,606.5607,1930.8586,614.0607,1923.3586,621.5607,1930.8586,614.0607,1913.9836" style="stroke:#456A7D;stroke-width:2.625;"/></g><!--link ADMIN to UC_MODERATE--><g class="link" data-entity-1="ent0007" data-entity-2="ent0024" data-link-type="dependency" data-source-line="91" id="lnk35"><path d="M321.5607,1666.8586 C321.5607,1628.4961 321.5607,1589.2148 321.5607,1589.2148 C321.5607,1589.2148 436.2732,1589.2148 548.2107,1589.2148" fill="none" id="ADMIN-to-UC_MODERATE" style="stroke:#456A7D;stroke-width:2.625;"/><polygon fill="#456A7D" points="559.4607,1589.2148,542.5857,1581.7148,550.0857,1589.2148,542.5857,1596.7148,559.4607,1589.2148" style="stroke:#456A7D;stroke-width:2.625;"/></g><!--link ADMIN to UC_ADMIN--><g class="link" data-entity-1="ent0007" data-entity-2="ent0025" data-link-type="dependency" data-source-line="92" id="lnk36"><path d="M334.1045,1739.2148 C391.5732,1739.2148 454.7795,1739.2148 523.5545,1739.2148" fill="none" id="ADMIN-to-UC_ADMIN" style="stroke:#456A7D;stroke-width:2.625;"/><polygon fill="#456A7D" points="534.8045,1739.2148,517.9295,1731.7148,525.4295,1739.2148,517.9295,1746.7148,534.8045,1739.2148" style="stroke:#456A7D;stroke-width:2.625;"/></g><!--link UC_ORDER to UC_PAY--><g class="link" data-entity-1="ent0017" data-entity-2="ent0018" data-link-type="dependency" data-source-line="94" id="lnk37"><path d="M610.6295,706.7273 C572.9607,706.7273 540.9357,706.7273 540.9357,706.7273 C540.9357,706.7273 540.9357,306.7148 540.9357,306.7148 C540.9357,306.7148 537.167,306.7148 549.1482,306.7148" fill="none" id="UC_ORDER-to-UC_PAY" style="stroke:#456A7D;stroke-width:2.625;stroke-dasharray:13.125,13.125;"/><polygon fill="#456A7D" points="560.3982,306.7148,543.5232,299.2148,551.0232,306.7148,543.5232,314.2148,560.3982,306.7148" style="stroke:#456A7D;stroke-width:2.625;"/><text fill="#29485B" font-family="sans-serif" font-size="26.25" lengthAdjust="spacing" textLength="127.2253" x="413.4357" y="558.0682">&#171;include&#187;</text></g><!--link UC_DELIVER to UC_RECEIVE--><g class="link" data-entity-1="ent0021" data-entity-2="ent0020" data-link-type="dependency" data-source-line="95" id="lnk38"><path d="M565.3482,1887.3398 C525.467,1887.3398 494.0607,1887.3398 494.0607,1887.3398 C494.0607,1887.3398 494.0607,618.1711 494.0607,618.1711 C494.0607,618.1711 534.542,618.1711 589.517,618.1711" fill="none" id="UC_DELIVER-to-UC_RECEIVE" style="stroke:#456A7D;stroke-width:2.625;stroke-dasharray:13.125,13.125;"/><polygon fill="#456A7D" points="600.767,618.1711,583.892,610.6711,591.392,618.1711,583.892,625.6711,600.767,618.1711" style="stroke:#456A7D;stroke-width:2.625;"/><text fill="#29485B" font-family="sans-serif" font-size="26.25" lengthAdjust="spacing" textLength="123.5468" x="361.6517" y="1261.2869">&#171;extend&#187;</text><text fill="#29485B" font-family="sans-serif" font-size="26.25" lengthAdjust="spacing" textLength="139.9786" x="353.4357" y="1291.8436">si livraison</text></g><!--link UC_RECEIVE to GMN39--><g class="link" data-entity-1="ent0020" data-entity-2="ent0040" data-link-type="association" data-source-line="98" id="lnk41"><path d="M576.9732,573.0773 C546.7107,573.0773 524.0607,573.0773 524.0607,573.0773 C524.0607,573.0773 524.0607,283.3523 524.0607,174.7148" fill="none" id="UC_RECEIVE-GMN39" style="stroke:#456A7D;stroke-width:2.625;stroke-dasharray:13.125,13.125;"/></g><?plantuml-src ZPTRRkCs543_jGeY_KZxaI1-ZPrY842sfTI0OxkM4s2000KZqJOHYlIGb6Soqm9TH1VGpteTtabNqgkNJTcAqW119DvptvSYSuby_Se82aGKnHpz--TVAAHu9N4K4OLSHhO3mJa9j7M9_CSxz3DQ2XbXZRQm9YGb376YqVvlf4Mi2TAOCaQkqMoIiEJhHaYDrZWHXVlTadAggU3NbdgXV8F13Nh6mSjAYfY70y64H3zuwOz1X1kA6hqROqMjSIY-KBv2IymKCIIfeK18JYHgD0q1en3dwuOW26WjJEjaYMEcFS7r14S4-PWhdqYwh6Py-esWHjiGBgXcf5RzGAJApPigKPvyezjgjeS6u4WflkJ2TkU3qpqJ6jhDstQlqpy55ciQl72Y56fScu5FX2RzYkhttDuf9MH8P4wu7STjTqu88uXElzrhk8Py1ZxmgcparkbtdMu5T1PFstEy3-UWMJCFNBQgaMowdmKBpQe4ccwfVZrtTkFrl5OLQSRUzBh3SfLpghQFEJEaE18yhAfxQzYhKJ0Z6FPkEqslCgCtWnmmh5J_tSsMORNffiWl10DoPizjUotNEONh2kDoNTcAqy1ohZQoZAdpvcjSCVJkqEjwZJEirbUArBbwK2J0giAP0pFTgm1DTostsxwzEOTgSoEVOy83CgPB-EKd6sxGRmyQTVIx7IWqPbXg6j0DvlhzvAgKQXCj59paVFd_GMLuVSToz0uCRiujTxs-DtmJhwYbnSXImxc795sjDPoR4iv4EDqidNpKqG0h55x6cZAgSB8ERyQ1cfwrsvWWHQCDeqkwtn7BmaaQwE8XroAnl41Wvy5tvuNC2TRa8EW_V3fAF15BJfK2uHF_SRy3P_28H0odDG_XyQTKntV7uwFIutwdzpj9EORuK_cZkoY4OxgLXQl1z64-Ci888pZDbPR7A9tX_MXYMMbCwEhgTpkBE_DdB803uostQwoaTentAoaivYieweN_glJ-7pXeZL9UeEyMGd6sGz357QG3nx-2Yc-aM5AMbN3mssm-zKPZrsJ1WeAJ7V3a4eGrPc8Laq9Xu2oSyVJEL9Z5pum27dE2CES21gIWnoD_KKBXovUJoVKAGmiAT3eVGbubzlKDTEPygaYkYhnt9ixTQNPBAgCaEupaVXUGJJA8XSBS7RYZnvA6erHSs6VGV4pLaH-wOy3BSKkOB4bGyeTykzgAM1MqCvjDHvF5lJjPL2J0u7e9rTdI01wsvWmU343h7qS3rpUrxqLurC_hVr2udq9LdKKf8J_U95wIHcmm9H7XMZqbLzRukCME8QS3_8Tb9MC70sYRKrECjMrEHcanwsffgIZnOG_OXqafB-NDoxQ6NKhVM3DhUjmtjjcSOlFOfOgKLlDzMaIChkryqE3A_l4ZvG6BGsBRrj5gZkJPf1Zvgg7djlt45JsEYcLnk0t2XKjh4I6nB8_PcA1Vvp2t8K54QQG2wE1-1tCGixGpWC07LdsEB-5_4PPzUn3bEkaWYAyjy8WI1_y1?></g></svg>