<?xml version="1.0" encoding="us-ascii" standalone="no"?><svg xmlns="http://www.w3.org/2000/svg" xmlns:xlink="http://www.w3.org/1999/xlink" contentStyleType="text/css" height="2778.75px" preserveAspectRatio="none" style="width:3022px;height:2778px;background:#FFFFFF;" version="1.1" viewBox="0 0 3022 2778" width="3022.5px" zoomAndPan="magnify"><defs/><g><text fill="#17324D" font-family="sans-serif" font-size="52.5" font-weight="bold" lengthAdjust="spacing" textLength="605.625" x="1210.3125" y="86.3745">Commande et r&#233;ception</text><rect fill="#F4FAF6" height="928.2422" rx="11.25" ry="11.25" style="stroke:#9CB4C1;stroke-width:2.8125;" width="2698.125" x="311.25" y="1468.6816"/><path d="M311.25,2076.8848 L3009.375,2076.8848 L3009.375,2385.6738 A11.25,11.25 0 0 1 2998.125,2396.9238 L322.5,2396.9238 A11.25,11.25 0 0 1 311.25,2385.6738 L311.25,2076.8848 " fill="#F4FAF6" style="stroke:none;stroke-width:1.875;"/><line style="stroke:#9CB4C1;stroke-width:0.9375;stroke-dasharray:5.0,5.0;" x1="390" x2="390" y1="294.1699" y2="2600.0684"/><line style="stroke:#9CB4C1;stroke-width:0.9375;stroke-dasharray:5.0,5.0;" x1="974.0625" x2="974.0625" y1="294.1699" y2="2600.0684"/><line style="stroke:#9CB4C1;stroke-width:0.9375;stroke-dasharray:5.0,5.0;" x1="1833.75" x2="1833.75" y1="294.1699" y2="2600.0684"/><line style="stroke:#9CB4C1;stroke-width:0.9375;stroke-dasharray:5.0,5.0;" x1="2416.875" x2="2416.875" y1="294.1699" y2="2600.0684"/><line style="stroke:#9CB4C1;stroke-width:0.9375;stroke-dasharray:5.0,5.0;" x1="2716.875" x2="2716.875" y1="294.1699" y2="2600.0684"/><line style="stroke:#9CB4C1;stroke-width:0.9375;stroke-dasharray:5.0,5.0;" x1="2919.375" x2="2919.375" y1="294.1699" y2="2600.0684"/><text fill="#000000" font-family="sans-serif" font-size="41.25" lengthAdjust="spacing" textLength="101.25" x="333.75" y="281.3562">Client</text><ellipse cx="390" cy="138.2227" fill="#FFFFFF" rx="15" ry="15" style="stroke:#2F7D5B;stroke-width:0.9375;"/><path d="M390,153.2227 L390,203.8477 M365.625,168.2227 L414.375,168.2227 M390,203.8477 L365.625,231.9727 M390,203.8477 L414.375,231.9727 " fill="none" style="stroke:#2F7D5B;stroke-width:0.9375;"/><text fill="#000000" font-family="sans-serif" font-size="41.25" lengthAdjust="spacing" textLength="101.25" x="333.75" y="2644.7644">Client</text><ellipse cx="390" cy="2673.5156" fill="#FFFFFF" rx="15" ry="15" style="stroke:#2F7D5B;stroke-width:0.9375;"/><path d="M390,2688.5156 L390,2739.1406 M365.625,2703.5156 L414.375,2703.5156 M390,2739.1406 L365.625,2767.2656 M390,2739.1406 L414.375,2767.2656 " fill="none" style="stroke:#2F7D5B;stroke-width:0.9375;"/><text fill="#000000" font-family="sans-serif" font-size="41.25" lengthAdjust="spacing" textLength="241.875" x="848.4375" y="281.3562">Interface web</text><path d="M936.5625,182.2852 L936.5625,227.2852 M936.5625,204.7852 L968.4375,204.7852 " fill="none" style="stroke:#181818;stroke-width:0.9375;"/><ellipse cx="990.9375" cy="204.7852" fill="#E2E2F0" rx="22.5" ry="22.5" style="stroke:#181818;stroke-width:0.9375;"/><text fill="#000000" font-family="sans-serif" font-size="41.25" lengthAdjust="spacing" textLength="241.875" x="848.4375" y="2644.7644">Interface web</text><path d="M936.5625,2665.0781 L936.5625,2710.0781 M936.5625,2687.5781 L968.4375,2687.5781 " fill="none" style="stroke:#181818;stroke-width:0.9375;"/><ellipse cx="990.9375" cy="2687.5781" fill="#E2E2F0" rx="22.5" ry="22.5" style="stroke:#181818;stroke-width:0.9375;"/><text fill="#000000" font-family="sans-serif" font-size="41.25" lengthAdjust="spacing" textLength="228.75" x="1713.75" y="281.3562">ElevConnect</text><ellipse cx="1833.75" cy="204.7852" fill="#E2E2F0" rx="22.5" ry="22.5" style="stroke:#181818;stroke-width:0.9375;"/><polygon fill="#181818" points="1826.25,182.2852,1837.5,172.9102,1833.75,182.2852,1837.5,191.6602,1826.25,182.2852" style="stroke:#181818;stroke-width:1.875;"/><text fill="#000000" font-family="sans-serif" font-size="41.25" lengthAdjust="spacing" textLength="228.75" x="1713.75" y="2644.7644">ElevConnect</text><ellipse cx="1833.75" cy="2687.5781" fill="#E2E2F0" rx="22.5" ry="22.5" style="stroke:#181818;stroke-width:0.9375;"/><polygon fill="#181818" points="1826.25,2665.0781,1837.5,2655.7031,1833.75,2665.0781,1837.5,2674.4531,1826.25,2665.0781" style="stroke:#181818;stroke-width:1.875;"/><text fill="#000000" font-family="sans-serif" font-size="41.25" lengthAdjust="spacing" textLength="315" x="2253.75" y="281.3562">Base de donn&#233;es</text><path d="M2383.125,167.2852 C2383.125,148.5352 2416.875,148.5352 2416.875,148.5352 C2416.875,148.5352 2450.625,148.5352 2450.625,167.2852 L2450.625,216.0352 C2450.625,234.7852 2416.875,234.7852 2416.875,234.7852 C2416.875,234.7852 2383.125,234.7852 2383.125,216.0352 L2383.125,167.2852 " fill="#E2E2F0" style="stroke:#181818;stroke-width:2.8125;"/><path d="M2383.125,167.2852 C2383.125,186.0352 2416.875,186.0352 2416.875,186.0352 C2416.875,186.0352 2450.625,186.0352 2450.625,167.2852 " fill="none" style="stroke:#181818;stroke-width:2.8125;"/><text fill="#000000" font-family="sans-serif" font-size="41.25" lengthAdjust="spacing" textLength="315" x="2253.75" y="2644.7644">Base de donn&#233;es</text><path d="M2383.125,2676.3281 C2383.125,2657.5781 2416.875,2657.5781 2416.875,2657.5781 C2416.875,2657.5781 2450.625,2657.5781 2450.625,2676.3281 L2450.625,2725.0781 C2450.625,2743.8281 2416.875,2743.8281 2416.875,2743.8281 C2416.875,2743.8281 2383.125,2743.8281 2383.125,2725.0781 L2383.125,2676.3281 " fill="#E2E2F0" style="stroke:#181818;stroke-width:2.8125;"/><path d="M2383.125,2676.3281 C2383.125,2695.0781 2416.875,2695.0781 2416.875,2695.0781 C2416.875,2695.0781 2450.625,2695.0781 2450.625,2676.3281 " fill="none" style="stroke:#181818;stroke-width:2.8125;"/><text fill="#000000" font-family="sans-serif" font-size="41.25" lengthAdjust="spacing" textLength="210" x="2606.25" y="281.3562">Fournisseur</text><ellipse cx="2716.875" cy="138.2227" fill="#FFFFFF" rx="15" ry="15" style="stroke:#2F7D5B;stroke-width:0.9375;"/><path d="M2716.875,153.2227 L2716.875,203.8477 M2692.5,168.2227 L2741.25,168.2227 M2716.875,203.8477 L2692.5,231.9727 M2716.875,203.8477 L2741.25,231.9727 " fill="none" style="stroke:#2F7D5B;stroke-width:0.9375;"/><text fill="#000000" font-family="sans-serif" font-size="41.25" lengthAdjust="spacing" textLength="210" x="2606.25" y="2644.7644">Fournisseur</text><ellipse cx="2716.875" cy="2673.5156" fill="#FFFFFF" rx="15" ry="15" style="stroke:#2F7D5B;stroke-width:0.9375;"/><path d="M2716.875,2688.5156 L2716.875,2739.1406 M2692.5,2703.5156 L2741.25,2703.5156 M2716.875,2739.1406 L2692.5,2767.2656 M2716.875,2739.1406 L2741.25,2767.2656 " fill="none" style="stroke:#2F7D5B;stroke-width:0.9375;"/><text fill="#000000" font-family="sans-serif" font-size="41.25" lengthAdjust="spacing" textLength="121.875" x="2853.75" y="281.3562">Livreur</text><ellipse cx="2920.3125" cy="138.2227" fill="#FFFFFF" rx="15" ry="15" style="stroke:#2F7D5B;stroke-width:0.9375;"/><path d="M2920.3125,153.2227 L2920.3125,203.8477 M2895.9375,168.2227 L2944.6875,168.2227 M2920.3125,203.8477 L2895.9375,231.9727 M2920.3125,203.8477 L2944.6875,231.9727 " fill="none" style="stroke:#2F7D5B;stroke-width:0.9375;"/><text fill="#000000" font-family="sans-serif" font-size="41.25" lengthAdjust="spacing" textLength="121.875" x="2853.75" y="2644.7644">Livreur</text><ellipse cx="2920.3125" cy="2673.5156" fill="#FFFFFF" rx="15" ry="15" style="stroke:#2F7D5B;stroke-width:0.9375;"/><path d="M2920.3125,2688.5156 L2920.3125,2739.1406 M2895.9375,2703.5156 L2944.6875,2703.5156 M2920.3125,2739.1406 L2895.9375,2767.2656 M2920.3125,2739.1406 L2944.6875,2767.2656 " fill="none" style="stroke:#2F7D5B;stroke-width:0.9375;"/><path d="M9.375,333.5449 L9.375,492.9199 A11.25,11.25 0 0 0 20.625,504.1699 L761.25,504.1699 A11.25,11.25 0 0 0 772.5,492.9199 L772.5,341.0449 L753.75,322.2949 L20.625,322.2949 A11.25,11.25 0 0 0 9.375,333.5449 " fill="#FFF8E8" style="stroke:#E5AE45;stroke-width:0.9375;"/><path d="M753.75,322.2949 L753.75,335.4199 A5.625,5.625 0 0 0 759.375,341.0449 L772.5,341.0449 L753.75,322.2949 " fill="#FFF8E8" style="stroke:#E5AE45;stroke-width:0.9375;"/><text fill="#5B481E" font-family="sans-serif" font-size="41.25" lengthAdjust="spacing" textLength="637.5" x="24.375" y="378.241">&#171; Client &#187; d&#233;signe tout acteur inscrit</text><text fill="#5B481E" font-family="sans-serif" font-size="41.25" lengthAdjust="spacing" textLength="716.25" x="24.375" y="430.1257">(y compris Administrateur), &#224; l'exception</text><text fill="#5B481E" font-family="sans-serif" font-size="41.25" lengthAdjust="spacing" textLength="705" x="24.375" y="482.0105">du propri&#233;taire de l'annonce concern&#233;e.</text><polygon fill="#456A7D" points="952.5,576.709,971.25,584.209,952.5,591.709,960,584.209" style="stroke:#456A7D;stroke-width:1.875;"/><line style="stroke:#456A7D;stroke-width:2.625;" x1="390" x2="963.75" y1="584.209" y2="584.209"/><text fill="#29485B" font-family="sans-serif" font-size="41.25" font-weight="bold" lengthAdjust="spacing" textLength="22.5" x="406.875" y="567.6453">1</text><text fill="#29485B" font-family="sans-serif" font-size="41.25" lengthAdjust="spacing" textLength="495" x="444.375" y="567.6453">choisit l'annonce et le retrait</text><polygon fill="#456A7D" points="1811.25,662.3438,1830,669.8438,1811.25,677.3438,1818.75,669.8438" style="stroke:#456A7D;stroke-width:1.875;"/><line style="stroke:#456A7D;stroke-width:2.625;" x1="975" x2="1822.5" y1="669.8438" y2="669.8438"/><text fill="#29485B" font-family="sans-serif" font-size="41.25" font-weight="bold" lengthAdjust="spacing" textLength="22.5" x="991.875" y="653.28">2</text><text fill="#29485B" font-family="sans-serif" font-size="41.25" lengthAdjust="spacing" textLength="768.75" x="1029.375" y="653.28">cr&#233;erCommande(annonce, quantit&#233;, mode)</text><polygon fill="#456A7D" points="2394.375,747.9785,2413.125,755.4785,2394.375,762.9785,2401.875,755.4785" style="stroke:#456A7D;stroke-width:1.875;"/><line style="stroke:#456A7D;stroke-width:2.625;" x1="1833.75" x2="2405.625" y1="755.4785" y2="755.4785"/><text fill="#29485B" font-family="sans-serif" font-size="41.25" font-weight="bold" lengthAdjust="spacing" textLength="22.5" x="1850.625" y="738.9148">3</text><text fill="#29485B" font-family="sans-serif" font-size="41.25" lengthAdjust="spacing" textLength="493.125" x="1888.125" y="738.9148">v&#233;rifie le stock et enregistre</text><polygon fill="#456A7D" points="995.625,833.6133,976.875,841.1133,995.625,848.6133,988.125,841.1133" style="stroke:#456A7D;stroke-width:1.875;"/><line style="stroke:#456A7D;stroke-width:2.625;stroke-dasharray:2.0,2.0;" x1="984.375" x2="1831.875" y1="841.1133" y2="841.1133"/><text fill="#29485B" font-family="sans-serif" font-size="41.25" font-weight="bold" lengthAdjust="spacing" textLength="22.5" x="1010.625" y="824.5496">4</text><text fill="#29485B" font-family="sans-serif" font-size="41.25" lengthAdjust="spacing" textLength="465" x="1048.125" y="824.5496">affiche le montant &#224; payer</text><polygon fill="#456A7D" points="952.5,919.248,971.25,926.748,952.5,934.248,960,926.748" style="stroke:#456A7D;stroke-width:1.875;"/><line style="stroke:#456A7D;stroke-width:2.625;" x1="390" x2="963.75" y1="926.748" y2="926.748"/><text fill="#29485B" font-family="sans-serif" font-size="41.25" font-weight="bold" lengthAdjust="spacing" textLength="22.5" x="406.875" y="910.1843">5</text><text fill="#29485B" font-family="sans-serif" font-size="41.25" lengthAdjust="spacing" textLength="330" x="444.375" y="910.1843">paie la commande</text><polygon fill="#456A7D" points="1811.25,1004.8828,1830,1012.3828,1811.25,1019.8828,1818.75,1012.3828" style="stroke:#456A7D;stroke-width:1.875;"/><line style="stroke:#456A7D;stroke-width:2.625;" x1="975" x2="1822.5" y1="1012.3828" y2="1012.3828"/><text fill="#29485B" font-family="sans-serif" font-size="41.25" font-weight="bold" lengthAdjust="spacing" textLength="22.5" x="991.875" y="995.8191">6</text><text fill="#29485B" font-family="sans-serif" font-size="41.25" lengthAdjust="spacing" textLength="367.5" x="1029.375" y="995.8191">confirmerPaiement()</text><polygon fill="#456A7D" points="2394.375,1090.5176,2413.125,1098.0176,2394.375,1105.5176,2401.875,1098.0176" style="stroke:#456A7D;stroke-width:1.875;"/><line style="stroke:#456A7D;stroke-width:2.625;" x1="1833.75" x2="2405.625" y1="1098.0176" y2="1098.0176"/><text fill="#29485B" font-family="sans-serif" font-size="41.25" font-weight="bold" lengthAdjust="spacing" textLength="22.5" x="1850.625" y="1081.4539">7</text><text fill="#29485B" font-family="sans-serif" font-size="41.25" lengthAdjust="spacing" textLength="322.5" x="1888.125" y="1081.4539">commande pay&#233;e</text><polygon fill="#456A7D" points="2694.375,1176.1523,2713.125,1183.6523,2694.375,1191.1523,2701.875,1183.6523" style="stroke:#456A7D;stroke-width:1.875;"/><line style="stroke:#456A7D;stroke-width:2.625;" x1="1833.75" x2="2705.625" y1="1183.6523" y2="1183.6523"/><text fill="#29485B" font-family="sans-serif" font-size="41.25" font-weight="bold" lengthAdjust="spacing" textLength="22.5" x="1850.625" y="1167.0886">8</text><text fill="#29485B" font-family="sans-serif" font-size="41.25" lengthAdjust="spacing" textLength="363.75" x="1888.125" y="1167.0886">notifie la commande</text><polygon fill="#456A7D" points="995.625,1261.7871,976.875,1269.2871,995.625,1276.7871,988.125,1269.2871" style="stroke:#456A7D;stroke-width:1.875;"/><line style="stroke:#456A7D;stroke-width:2.625;" x1="984.375" x2="2715" y1="1269.2871" y2="1269.2871"/><text fill="#29485B" font-family="sans-serif" font-size="41.25" font-weight="bold" lengthAdjust="spacing" textLength="22.5" x="1010.625" y="1252.7234">9</text><text fill="#29485B" font-family="sans-serif" font-size="41.25" lengthAdjust="spacing" textLength="395.625" x="1048.125" y="1252.7234">accepte la commande</text><polygon fill="#456A7D" points="1811.25,1347.4219,1830,1354.9219,1811.25,1362.4219,1818.75,1354.9219" style="stroke:#456A7D;stroke-width:1.875;"/><line style="stroke:#456A7D;stroke-width:2.625;" x1="975" x2="1822.5" y1="1354.9219" y2="1354.9219"/><text fill="#29485B" font-family="sans-serif" font-size="41.25" font-weight="bold" lengthAdjust="spacing" textLength="45" x="991.875" y="1338.3582">10</text><text fill="#29485B" font-family="sans-serif" font-size="41.25" lengthAdjust="spacing" textLength="354.375" x="1051.875" y="1338.3582">validerCommande()</text><polygon fill="#456A7D" points="2394.375,1433.0566,2413.125,1440.5566,2394.375,1448.0566,2401.875,1440.5566" style="stroke:#456A7D;stroke-width:1.875;"/><line style="stroke:#456A7D;stroke-width:2.625;" x1="1833.75" x2="2405.625" y1="1440.5566" y2="1440.5566"/><text fill="#29485B" font-family="sans-serif" font-size="41.25" font-weight="bold" lengthAdjust="spacing" textLength="45" x="1850.625" y="1423.9929">11</text><text fill="#29485B" font-family="sans-serif" font-size="41.25" lengthAdjust="spacing" textLength="339.375" x="1910.625" y="1423.9929">commande valid&#233;e</text><path d="M322.5,1468.6816 L448.125,1468.6816 L448.125,1513.0664 L429.375,1531.8164 L311.25,1531.8164 L311.25,1479.9316 A11.25,11.25 0 0 1 322.5,1468.6816 " fill="#F7FBFD" style="stroke:#9CB4C1;stroke-width:2.8125;"/><rect fill="none" height="928.2422" rx="11.25" ry="11.25" style="stroke:#9CB4C1;stroke-width:2.8125;" width="2698.125" x="311.25" y="1468.6816"/><text fill="#000000" font-family="sans-serif" font-size="41.25" font-weight="bold" lengthAdjust="spacing" textLength="45" x="343.125" y="1517.1277">alt</text><text fill="#000000" font-family="sans-serif" font-size="41.25" font-weight="bold" lengthAdjust="spacing" textLength="333.75" x="480" y="1519.0027">[livraison choisie]</text><polygon fill="#456A7D" points="2897.8125,1626.2109,2916.5625,1633.7109,2897.8125,1641.2109,2905.3125,1633.7109" style="stroke:#456A7D;stroke-width:1.875;"/><line style="stroke:#456A7D;stroke-width:2.625;" x1="1833.75" x2="2909.0625" y1="1633.7109" y2="1633.7109"/><text fill="#29485B" font-family="sans-serif" font-size="41.25" font-weight="bold" lengthAdjust="spacing" textLength="45" x="1850.625" y="1617.1472">12</text><text fill="#29485B" font-family="sans-serif" font-size="41.25" lengthAdjust="spacing" textLength="350.625" x="1910.625" y="1617.1472">propose la livraison</text><polygon fill="#456A7D" points="995.625,1711.8457,976.875,1719.3457,995.625,1726.8457,988.125,1719.3457" style="stroke:#456A7D;stroke-width:1.875;"/><line style="stroke:#456A7D;stroke-width:2.625;" x1="984.375" x2="2918.4375" y1="1719.3457" y2="1719.3457"/><text fill="#29485B" font-family="sans-serif" font-size="41.25" font-weight="bold" lengthAdjust="spacing" textLength="45" x="1010.625" y="1702.782">13</text><text fill="#29485B" font-family="sans-serif" font-size="41.25" lengthAdjust="spacing" textLength="418.125" x="1070.625" y="1702.782">prend en charge et livre</text><polygon fill="#456A7D" points="1811.25,1797.4805,1830,1804.9805,1811.25,1812.4805,1818.75,1804.9805" style="stroke:#456A7D;stroke-width:1.875;"/><line style="stroke:#456A7D;stroke-width:2.625;" x1="975" x2="1822.5" y1="1804.9805" y2="1804.9805"/><text fill="#29485B" font-family="sans-serif" font-size="41.25" font-weight="bold" lengthAdjust="spacing" textLength="45" x="991.875" y="1788.4167">14</text><text fill="#29485B" font-family="sans-serif" font-size="41.25" lengthAdjust="spacing" textLength="358.125" x="1051.875" y="1788.4167">confirme la livraison</text><polygon fill="#456A7D" points="952.5,1883.1152,971.25,1890.6152,952.5,1898.1152,960,1890.6152" style="stroke:#456A7D;stroke-width:1.875;"/><line style="stroke:#456A7D;stroke-width:2.625;" x1="390" x2="963.75" y1="1890.6152" y2="1890.6152"/><text fill="#29485B" font-family="sans-serif" font-size="41.25" font-weight="bold" lengthAdjust="spacing" textLength="45" x="406.875" y="1874.0515">15</text><text fill="#29485B" font-family="sans-serif" font-size="41.25" lengthAdjust="spacing" textLength="343.125" x="466.875" y="1874.0515">scanne le QR code</text><polygon fill="#456A7D" points="1811.25,1968.75,1830,1976.25,1811.25,1983.75,1818.75,1976.25" style="stroke:#456A7D;stroke-width:1.875;"/><line style="stroke:#456A7D;stroke-width:2.625;" x1="975" x2="1822.5" y1="1976.25" y2="1976.25"/><text fill="#29485B" font-family="sans-serif" font-size="41.25" font-weight="bold" lengthAdjust="spacing" textLength="45" x="991.875" y="1959.6863">16</text><text fill="#29485B" font-family="sans-serif" font-size="41.25" lengthAdjust="spacing" textLength="470.625" x="1051.875" y="1959.6863">confirmerR&#233;ception(code)</text><polygon fill="#456A7D" points="2394.375,2054.3848,2413.125,2061.8848,2394.375,2069.3848,2401.875,2061.8848" style="stroke:#456A7D;stroke-width:1.875;"/><line style="stroke:#456A7D;stroke-width:2.625;" x1="1833.75" x2="2405.625" y1="2061.8848" y2="2061.8848"/><text fill="#29485B" font-family="sans-serif" font-size="41.25" font-weight="bold" lengthAdjust="spacing" textLength="45" x="1850.625" y="2045.321">17</text><text fill="#29485B" font-family="sans-serif" font-size="41.25" lengthAdjust="spacing" textLength="391.875" x="1910.625" y="2045.321">commande confirm&#233;e</text><line style="stroke:#9CB4C1;stroke-width:1.875;stroke-dasharray:2.0,2.0;" x1="311.25" x2="3009.375" y1="2078.7598" y2="2078.7598"/><text fill="#000000" font-family="sans-serif" font-size="41.25" font-weight="bold" lengthAdjust="spacing" textLength="255" x="324.375" y="2125.3308">[retrait direct]</text><polygon fill="#456A7D" points="952.5,2203.1543,971.25,2210.6543,952.5,2218.1543,960,2210.6543" style="stroke:#456A7D;stroke-width:1.875;"/><line style="stroke:#456A7D;stroke-width:2.625;" x1="390" x2="963.75" y1="2210.6543" y2="2210.6543"/><text fill="#29485B" font-family="sans-serif" font-size="41.25" font-weight="bold" lengthAdjust="spacing" textLength="45" x="406.875" y="2194.0906">18</text><text fill="#29485B" font-family="sans-serif" font-size="41.25" lengthAdjust="spacing" textLength="376.875" x="466.875" y="2194.0906">confirme la r&#233;ception</text><polygon fill="#456A7D" points="1811.25,2288.7891,1830,2296.2891,1811.25,2303.7891,1818.75,2296.2891" style="stroke:#456A7D;stroke-width:1.875;"/><line style="stroke:#456A7D;stroke-width:2.625;" x1="975" x2="1822.5" y1="2296.2891" y2="2296.2891"/><text fill="#29485B" font-family="sans-serif" font-size="41.25" font-weight="bold" lengthAdjust="spacing" textLength="45" x="991.875" y="2279.7253">19</text><text fill="#29485B" font-family="sans-serif" font-size="41.25" lengthAdjust="spacing" textLength="380.625" x="1051.875" y="2279.7253">confirmerR&#233;ception()</text><polygon fill="#456A7D" points="2394.375,2374.4238,2413.125,2381.9238,2394.375,2389.4238,2401.875,2381.9238" style="stroke:#456A7D;stroke-width:1.875;"/><line style="stroke:#456A7D;stroke-width:2.625;" x1="1833.75" x2="2405.625" y1="2381.9238" y2="2381.9238"/><text fill="#29485B" font-family="sans-serif" font-size="41.25" font-weight="bold" lengthAdjust="spacing" textLength="45" x="1850.625" y="2365.3601">20</text><text fill="#29485B" font-family="sans-serif" font-size="41.25" lengthAdjust="spacing" textLength="391.875" x="1910.625" y="2365.3601">commande confirm&#233;e</text><polygon fill="#456A7D" points="2394.375,2473.1836,2413.125,2480.6836,2394.375,2488.1836,2401.875,2480.6836" style="stroke:#456A7D;stroke-width:1.875;"/><line style="stroke:#456A7D;stroke-width:2.625;" x1="1833.75" x2="2405.625" y1="2480.6836" y2="2480.6836"/><text fill="#29485B" font-family="sans-serif" font-size="41.25" font-weight="bold" lengthAdjust="spacing" textLength="45" x="1850.625" y="2464.1199">21</text><text fill="#29485B" font-family="sans-serif" font-size="41.25" lengthAdjust="spacing" textLength="360" x="1910.625" y="2464.1199">cr&#233;e les versements</text><polygon fill="#456A7D" points="410.625,2558.8184,391.875,2566.3184,410.625,2573.8184,403.125,2566.3184" style="stroke:#456A7D;stroke-width:1.875;"/><line style="stroke:#456A7D;stroke-width:2.625;stroke-dasharray:2.0,2.0;" x1="399.375" x2="1831.875" y1="2566.3184" y2="2566.3184"/><text fill="#29485B" font-family="sans-serif" font-size="41.25" font-weight="bold" lengthAdjust="spacing" textLength="45" x="425.625" y="2549.7546">22</text><text fill="#29485B" font-family="sans-serif" font-size="41.25" lengthAdjust="spacing" textLength="410.625" x="485.625" y="2549.7546">confirme la commande</text><!--SRC=[ZPRDSjis4CVlV0gCUx0pusOiYOhe7Zf3IcJZ6JTHhRXtY5n969C00u1ob5CVeW_GgoQFq5lq9dsIBaXA0IMAjaVMWVlRtVz-KC0bcUbD2YGMMLPmyjzVVvE4qQMaMGQAX2cinu9pYBMZdXZFAHh8dCPFIoaAden5AYJvAIh_B2B96UbvDzOJjQA9U6PyIHOqLM1Poa2na1mawVKjGyeuw4qEH4Yz4dPqMD0YrP7W-WFDWCmeLpEGRD7EpDXN87qxyYUcK-XqFn2LizTcgellZGPzTs81lfJYkJQwmtV-wCHeUVTlNMyO70EVLYn-ug0KwRrrBUC7eI5ewRuNUiUKa0d8cWY7VkWEZmXBn31mlLvesQUOWowRGMxzOEIFMg0JFMxaH-zEGRjd4QOSj2FLFiv5cjXTYJLRCxqvJNOJUT6WZRIrzwFHfDdbckgSOyrC6Cq4JzhwFfXu7GwsWebtE-n7hHMT5JbEgLB1YozRXNMMMoBlWI9o4Yzqeq7e7yDTZGcvRXt5iR2QwrHMCLtPPfgsB7quYKPHxmJhp5KYNQaU5SHKjIJpSQUz5j1EDmX7xktDATHP6tmkWCTmpnRupuzUk77WZdjTz8iJs7jCgTGiPZdb-kNYsfmw2zqxu4eB-NfH5TuziHhz3GFcfv57KH1DpkATlUGY0GLvyyIHb3-L3uSjB-hlL2uP9sscAKqISxIvZL-qG_VsvfxTj41yQNUhdlMFz_O7xD122rvaSv0EDJt4DvO1ruGgue_VEtFJ8YetvEAEQv0B6WDvXlc5iJ_UEJ7kenGfkR0EzzBcJwTEGZMTuzAIYy1y9_X1OhS5LIAJeCuOYK9ofXGKqZoFFZu-r9PxjfRrq_kxFnr7c-EIZF5wGJc60qtaRXj3hfdWn74udaH4hF7iDz89-VvjNyttVqcosogsv42qAB2yM9l0ZAjOCetirSPSMtB9K7kICTIZ9JNCcsko-uUab_2bJeHmKf1S2eHtMqsPB6jBBodd0XS6u-2tD8M-TO0dnCXo79H4VluLcqP-8V5ACCMqvOEbO6KIC2dAGGXHxA5XiKIpUbNDLxN3DVbSKFDpjzjUamptxurZSFIQ1EYqtctn3iB015LQn4yc0N09IrCNLEnU3LqiMBmgMJngD8Or5UTqWplHa9rJ4v6MzpiZfgbJy0MJ6SWfKXas_QefQUza0cD5UvkPDbgnHvLUAxfJsWugOzF_y_dND6M9rQWpsKlCv7TeYZt71QDCuVPK8m4SRks62sTAnZ4BLMOziCWOuw4hqWmPJ0XygwjHchr5hAq_nw7i1giOnriEuey7T4ZEnP0FXxM_YilX7sGtgwqTJBs0D-NzWk6rN9fhU3ExhV37U_KA2QzApnEdEH6prrYg8lZ2gd9Zr64lZQoce7tC_m40]--></g></svg>