<?xml version="1.0" encoding="us-ascii" standalone="no"?><svg xmlns="http://www.w3.org/2000/svg" xmlns:xlink="http://www.w3.org/1999/xlink" contentStyleType="text/css" height="1661.25px" preserveAspectRatio="none" style="width:2188px;height:1661px;background:#FFFFFF;" version="1.1" viewBox="0 0 2188 1661" width="2188.125px" zoomAndPan="magnify"><defs/><g><text fill="#17324D" font-family="sans-serif" font-size="52.5" font-weight="bold" lengthAdjust="spacing" textLength="669.375" x="764.0625" y="86.3745">Publication d'une annonce</text><rect fill="#F4FAF6" height="500.0684" rx="11.25" ry="11.25" style="stroke:#9CB4C1;stroke-width:2.8125;" width="1893.75" x="18.75" y="949.8633"/><path d="M18.75,1215.5273 L1912.5,1215.5273 L1912.5,1438.6816 A11.25,11.25 0 0 1 1901.25,1449.9316 L30,1449.9316 A11.25,11.25 0 0 1 18.75,1438.6816 L18.75,1215.5273 " fill="#F4FAF6" style="stroke:none;stroke-width:1.875;"/><line style="stroke:#9CB4C1;stroke-width:0.9375;stroke-dasharray:5.0,5.0;" x1="151.875" x2="151.875" y1="294.1699" y2="1481.8066"/><line style="stroke:#9CB4C1;stroke-width:0.9375;stroke-dasharray:5.0,5.0;" x1="512.8125" x2="512.8125" y1="294.1699" y2="1481.8066"/><line style="stroke:#9CB4C1;stroke-width:0.9375;stroke-dasharray:5.0,5.0;" x1="1203.75" x2="1203.75" y1="294.1699" y2="1481.8066"/><line style="stroke:#9CB4C1;stroke-width:0.9375;stroke-dasharray:5.0,5.0;" x1="1726.875" x2="1726.875" y1="294.1699" y2="1481.8066"/><line style="stroke:#9CB4C1;stroke-width:0.9375;stroke-dasharray:5.0,5.0;" x1="2051.25" x2="2051.25" y1="294.1699" y2="1481.8066"/><text fill="#000000" font-family="sans-serif" font-size="41.25" lengthAdjust="spacing" textLength="210" x="41.25" y="281.3562">Fournisseur</text><ellipse cx="151.875" cy="138.2227" fill="#FFFFFF" rx="15" ry="15" style="stroke:#2F7D5B;stroke-width:0.9375;"/><path d="M151.875,153.2227 L151.875,203.8477 M127.5,168.2227 L176.25,168.2227 M151.875,203.8477 L127.5,231.9727 M151.875,203.8477 L176.25,231.9727 " fill="none" style="stroke:#2F7D5B;stroke-width:0.9375;"/><text fill="#000000" font-family="sans-serif" font-size="41.25" lengthAdjust="spacing" textLength="210" x="41.25" y="1526.5027">Fournisseur</text><ellipse cx="151.875" cy="1555.2539" fill="#FFFFFF" rx="15" ry="15" style="stroke:#2F7D5B;stroke-width:0.9375;"/><path d="M151.875,1570.2539 L151.875,1620.8789 M127.5,1585.2539 L176.25,1585.2539 M151.875,1620.8789 L127.5,1649.0039 M151.875,1620.8789 L176.25,1649.0039 " fill="none" style="stroke:#2F7D5B;stroke-width:0.9375;"/><text fill="#000000" font-family="sans-serif" font-size="41.25" lengthAdjust="spacing" textLength="241.875" x="387.1875" y="281.3562">Interface web</text><path d="M475.3125,182.2852 L475.3125,227.2852 M475.3125,204.7852 L507.1875,204.7852 " fill="none" style="stroke:#181818;stroke-width:0.9375;"/><ellipse cx="529.6875" cy="204.7852" fill="#E2E2F0" rx="22.5" ry="22.5" style="stroke:#181818;stroke-width:0.9375;"/><text fill="#000000" font-family="sans-serif" font-size="41.25" lengthAdjust="spacing" textLength="241.875" x="387.1875" y="1526.5027">Interface web</text><path d="M475.3125,1546.8164 L475.3125,1591.8164 M475.3125,1569.3164 L507.1875,1569.3164 " fill="none" style="stroke:#181818;stroke-width:0.9375;"/><ellipse cx="529.6875" cy="1569.3164" fill="#E2E2F0" rx="22.5" ry="22.5" style="stroke:#181818;stroke-width:0.9375;"/><text fill="#000000" font-family="sans-serif" font-size="41.25" lengthAdjust="spacing" textLength="228.75" x="1083.75" y="281.3562">ElevConnect</text><ellipse cx="1203.75" cy="204.7852" fill="#E2E2F0" rx="22.5" ry="22.5" style="stroke:#181818;stroke-width:0.9375;"/><polygon fill="#181818" points="1196.25,182.2852,1207.5,172.9102,1203.75,182.2852,1207.5,191.6602,1196.25,182.2852" style="stroke:#181818;stroke-width:1.875;"/><text fill="#000000" font-family="sans-serif" font-size="41.25" lengthAdjust="spacing" textLength="228.75" x="1083.75" y="1526.5027">ElevConnect</text><ellipse cx="1203.75" cy="1569.3164" fill="#E2E2F0" rx="22.5" ry="22.5" style="stroke:#181818;stroke-width:0.9375;"/><polygon fill="#181818" points="1196.25,1546.8164,1207.5,1537.4414,1203.75,1546.8164,1207.5,1556.1914,1196.25,1546.8164" style="stroke:#181818;stroke-width:1.875;"/><text fill="#000000" font-family="sans-serif" font-size="41.25" lengthAdjust="spacing" textLength="315" x="1563.75" y="281.3562">Base de donn&#233;es</text><path d="M1693.125,167.2852 C1693.125,148.5352 1726.875,148.5352 1726.875,148.5352 C1726.875,148.5352 1760.625,148.5352 1760.625,167.2852 L1760.625,216.0352 C1760.625,234.7852 1726.875,234.7852 1726.875,234.7852 C1726.875,234.7852 1693.125,234.7852 1693.125,216.0352 L1693.125,167.2852 " fill="#E2E2F0" style="stroke:#181818;stroke-width:2.8125;"/><path d="M1693.125,167.2852 C1693.125,186.0352 1726.875,186.0352 1726.875,186.0352 C1726.875,186.0352 1760.625,186.0352 1760.625,167.2852 " fill="none" style="stroke:#181818;stroke-width:2.8125;"/><text fill="#000000" font-family="sans-serif" font-size="41.25" lengthAdjust="spacing" textLength="315" x="1563.75" y="1526.5027">Base de donn&#233;es</text><path d="M1693.125,1558.0664 C1693.125,1539.3164 1726.875,1539.3164 1726.875,1539.3164 C1726.875,1539.3164 1760.625,1539.3164 1760.625,1558.0664 L1760.625,1606.8164 C1760.625,1625.5664 1726.875,1625.5664 1726.875,1625.5664 C1726.875,1625.5664 1693.125,1625.5664 1693.125,1606.8164 L1693.125,1558.0664 " fill="#E2E2F0" style="stroke:#181818;stroke-width:2.8125;"/><path d="M1693.125,1558.0664 C1693.125,1576.8164 1726.875,1576.8164 1726.875,1576.8164 C1726.875,1576.8164 1760.625,1576.8164 1760.625,1558.0664 " fill="none" style="stroke:#181818;stroke-width:2.8125;"/><text fill="#000000" font-family="sans-serif" font-size="41.25" lengthAdjust="spacing" textLength="258.75" x="1916.25" y="281.3562">Administrateur</text><ellipse cx="2051.25" cy="138.2227" fill="#FFFFFF" rx="15" ry="15" style="stroke:#2F7D5B;stroke-width:0.9375;"/><path d="M2051.25,153.2227 L2051.25,203.8477 M2026.875,168.2227 L2075.625,168.2227 M2051.25,203.8477 L2026.875,231.9727 M2051.25,203.8477 L2075.625,231.9727 " fill="none" style="stroke:#2F7D5B;stroke-width:0.9375;"/><text fill="#000000" font-family="sans-serif" font-size="41.25" lengthAdjust="spacing" textLength="258.75" x="1916.25" y="1526.5027">Administrateur</text><ellipse cx="2051.25" cy="1555.2539" fill="#FFFFFF" rx="15" ry="15" style="stroke:#2F7D5B;stroke-width:0.9375;"/><path d="M2051.25,1570.2539 L2051.25,1620.8789 M2026.875,1585.2539 L2075.625,1585.2539 M2051.25,1620.8789 L2026.875,1649.0039 M2051.25,1620.8789 L2075.625,1649.0039 " fill="none" style="stroke:#2F7D5B;stroke-width:0.9375;"/><polygon fill="#456A7D" points="491.25,376.0547,510,383.5547,491.25,391.0547,498.75,383.5547" style="stroke:#456A7D;stroke-width:1.875;"/><line style="stroke:#456A7D;stroke-width:2.625;" x1="151.875" x2="502.5" y1="383.5547" y2="383.5547"/><text fill="#29485B" font-family="sans-serif" font-size="41.25" font-weight="bold" lengthAdjust="spacing" textLength="22.5" x="168.75" y="366.991">1</text><text fill="#29485B" font-family="sans-serif" font-size="41.25" lengthAdjust="spacing" textLength="271.875" x="206.25" y="366.991">saisit l'annonce</text><polygon fill="#456A7D" points="1181.25,461.6895,1200,469.1895,1181.25,476.6895,1188.75,469.1895" style="stroke:#456A7D;stroke-width:1.875;"/><line style="stroke:#456A7D;stroke-width:2.625;" x1="513.75" x2="1192.5" y1="469.1895" y2="469.1895"/><text fill="#29485B" font-family="sans-serif" font-size="41.25" font-weight="bold" lengthAdjust="spacing" textLength="22.5" x="530.625" y="452.6257">2</text><text fill="#29485B" font-family="sans-serif" font-size="41.25" lengthAdjust="spacing" textLength="517.5" x="568.125" y="452.6257">soumettreAnnonce(donn&#233;es)</text><line style="stroke:#456A7D;stroke-width:2.625;" x1="1203.75" x2="1282.5" y1="554.8242" y2="554.8242"/><line style="stroke:#456A7D;stroke-width:2.625;" x1="1282.5" x2="1282.5" y1="554.8242" y2="579.1992"/><line style="stroke:#456A7D;stroke-width:2.625;" x1="1205.625" x2="1282.5" y1="579.1992" y2="579.1992"/><polygon fill="#456A7D" points="1224.375,571.6992,1205.625,579.1992,1224.375,586.6992,1216.875,579.1992" style="stroke:#456A7D;stroke-width:1.875;"/><text fill="#29485B" font-family="sans-serif" font-size="41.25" font-weight="bold" lengthAdjust="spacing" textLength="22.5" x="1220.625" y="538.2605">3</text><text fill="#29485B" font-family="sans-serif" font-size="41.25" lengthAdjust="spacing" textLength="401.25" x="1258.125" y="538.2605">valide les informations</text><polygon fill="#456A7D" points="1704.375,657.334,1723.125,664.834,1704.375,672.334,1711.875,664.834" style="stroke:#456A7D;stroke-width:1.875;"/><line style="stroke:#456A7D;stroke-width:2.625;" x1="1203.75" x2="1715.625" y1="664.834" y2="664.834"/><text fill="#29485B" font-family="sans-serif" font-size="41.25" font-weight="bold" lengthAdjust="spacing" textLength="22.5" x="1220.625" y="648.2703">4</text><text fill="#29485B" font-family="sans-serif" font-size="41.25" lengthAdjust="spacing" textLength="433.125" x="1258.125" y="648.2703">enregistre &#171; en attente &#187;</text><polygon fill="#456A7D" points="2028.75,742.9688,2047.5,750.4688,2028.75,757.9688,2036.25,750.4688" style="stroke:#456A7D;stroke-width:1.875;"/><line style="stroke:#456A7D;stroke-width:2.625;" x1="1203.75" x2="2040" y1="750.4688" y2="750.4688"/><text fill="#29485B" font-family="sans-serif" font-size="41.25" font-weight="bold" lengthAdjust="spacing" textLength="22.5" x="1220.625" y="733.905">5</text><text fill="#29485B" font-family="sans-serif" font-size="41.25" lengthAdjust="spacing" textLength="367.5" x="1258.125" y="733.905">notifie la mod&#233;ration</text><polygon fill="#456A7D" points="534.375,828.6035,515.625,836.1035,534.375,843.6035,526.875,836.1035" style="stroke:#456A7D;stroke-width:1.875;"/><line style="stroke:#456A7D;stroke-width:2.625;" x1="523.125" x2="2049.375" y1="836.1035" y2="836.1035"/><text fill="#29485B" font-family="sans-serif" font-size="41.25" font-weight="bold" lengthAdjust="spacing" textLength="22.5" x="549.375" y="819.5398">6</text><text fill="#29485B" font-family="sans-serif" font-size="41.25" lengthAdjust="spacing" textLength="346.875" x="586.875" y="819.5398">approuve ou rejette</text><polygon fill="#456A7D" points="1181.25,914.2383,1200,921.7383,1181.25,929.2383,1188.75,921.7383" style="stroke:#456A7D;stroke-width:1.875;"/><line style="stroke:#456A7D;stroke-width:2.625;" x1="513.75" x2="1192.5" y1="921.7383" y2="921.7383"/><text fill="#29485B" font-family="sans-serif" font-size="41.25" font-weight="bold" lengthAdjust="spacing" textLength="22.5" x="530.625" y="905.1746">7</text><text fill="#29485B" font-family="sans-serif" font-size="41.25" lengthAdjust="spacing" textLength="600" x="568.125" y="905.1746">mod&#233;rerAnnonce(d&#233;cision, motif)</text><path d="M30,949.8633 L155.625,949.8633 L155.625,994.248 L136.875,1012.998 L18.75,1012.998 L18.75,961.1133 A11.25,11.25 0 0 1 30,949.8633 " fill="#F7FBFD" style="stroke:#9CB4C1;stroke-width:2.8125;"/><rect fill="none" height="500.0684" rx="11.25" ry="11.25" style="stroke:#9CB4C1;stroke-width:2.8125;" width="1893.75" x="18.75" y="949.8633"/><text fill="#000000" font-family="sans-serif" font-size="41.25" font-weight="bold" lengthAdjust="spacing" textLength="45" x="50.625" y="998.3093">alt</text><text fill="#000000" font-family="sans-serif" font-size="41.25" font-weight="bold" lengthAdjust="spacing" textLength="406.875" x="187.5" y="1000.1843">[annonce approuv&#233;e]</text><polygon fill="#456A7D" points="1704.375,1107.3926,1723.125,1114.8926,1704.375,1122.3926,1711.875,1114.8926" style="stroke:#456A7D;stroke-width:1.875;"/><line style="stroke:#456A7D;stroke-width:2.625;" x1="1203.75" x2="1715.625" y1="1114.8926" y2="1114.8926"/><text fill="#29485B" font-family="sans-serif" font-size="41.25" font-weight="bold" lengthAdjust="spacing" textLength="22.5" x="1220.625" y="1098.3289">8</text><text fill="#29485B" font-family="sans-serif" font-size="41.25" lengthAdjust="spacing" textLength="380.625" x="1258.125" y="1098.3289">rend l'annonce visible</text><polygon fill="#456A7D" points="172.5,1193.0273,153.75,1200.5273,172.5,1208.0273,165,1200.5273" style="stroke:#456A7D;stroke-width:1.875;"/><line style="stroke:#456A7D;stroke-width:2.625;" x1="161.25" x2="1201.875" y1="1200.5273" y2="1200.5273"/><text fill="#29485B" font-family="sans-serif" font-size="41.25" font-weight="bold" lengthAdjust="spacing" textLength="22.5" x="187.5" y="1183.9636">9</text><text fill="#29485B" font-family="sans-serif" font-size="41.25" lengthAdjust="spacing" textLength="354.375" x="225" y="1183.9636">notifie la publication</text><line style="stroke:#9CB4C1;stroke-width:1.875;stroke-dasharray:2.0,2.0;" x1="18.75" x2="1912.5" y1="1217.4023" y2="1217.4023"/><text fill="#000000" font-family="sans-serif" font-size="41.25" font-weight="bold" lengthAdjust="spacing" textLength="331.875" x="31.875" y="1263.9734">[annonce rejet&#233;e]</text><polygon fill="#456A7D" points="1704.375,1341.7969,1723.125,1349.2969,1704.375,1356.7969,1711.875,1349.2969" style="stroke:#456A7D;stroke-width:1.875;"/><line style="stroke:#456A7D;stroke-width:2.625;" x1="1203.75" x2="1715.625" y1="1349.2969" y2="1349.2969"/><text fill="#29485B" font-family="sans-serif" font-size="41.25" font-weight="bold" lengthAdjust="spacing" textLength="45" x="1220.625" y="1332.7332">10</text><text fill="#29485B" font-family="sans-serif" font-size="41.25" lengthAdjust="spacing" textLength="322.5" x="1280.625" y="1332.7332">enregistre le motif</text><polygon fill="#456A7D" points="172.5,1427.4316,153.75,1434.9316,172.5,1442.4316,165,1434.9316" style="stroke:#456A7D;stroke-width:1.875;"/><line style="stroke:#456A7D;stroke-width:2.625;" x1="161.25" x2="1201.875" y1="1434.9316" y2="1434.9316"/><text fill="#29485B" font-family="sans-serif" font-size="41.25" font-weight="bold" lengthAdjust="spacing" textLength="45" x="187.5" y="1418.3679">11</text><text fill="#29485B" font-family="sans-serif" font-size="41.25" lengthAdjust="spacing" textLength="240" x="247.5" y="1418.3679">notifie le rejet</text><!--SRC=[ZPPVRkCs4CRVUOf1-f0kq1QnBQ-LFXIGBAbTeDaQzUO0j3Hss4YaIbBEfayzH2yHz0Xzszoa9-deZntQKfG6JW3h-ytCnuzKf4jOsySS8LL5KKduzy-_81DyftbHe84un_rIIOcfPUPUo9AJ01kUtk-qgcIsLBdIy5NI_3X4LWgO-5VE5NF7C_KWv0wsF3VeA4sZL6c96YPJHyY5HFjO8YXjxvJR7RUyocsYfFt82uGrbsQDMco7cRNu0s7gTluaR8wZvKUYBVQ7f6xnayLiwaKE46Yj7ZhHcxyF5ZtHgPvUU_uyF0S-tOdqNg8nCFdESyIFoc8uaBuV- -UKqXdgZeZdGUpDpmZ7n3pq_4diw2kQmNUdJQw3S14i1g2U7oy9alTzqCqieP6pOQGzZnkLPsuggHLxOH_xmwuIFvaDaQxtQRA8JbFkgD5zx9X8y4B9R2ZtMUIF5BWE8lzwFaq6L_IgoMNEZGdVlDbQR7Iv3V8JSa9w_M8lcSN1EJmMJ2pju5QS6-kuKMSjCpPjRVd0eO-ZP95CUjZeh0OP6tLhCELcO5X0PzeV0DrnitZXNL_reT6ruUyLoXH_5blwbMStt3BqbfCn-iqTE5IikBOY5IMNzkt53HMDBlHGG4TQwVzlgiN7Twn3VwI6PR_p8WcJw5LyD4kfCZHOdZvnD9VtpSNvm8rwm_LEI1YILZpBwaURT_8VxPZUGPwueONgyt1PUsrwVcvVOCOhgsHLR50pNcS8YQgq5CPWfO4RI7wv_PLjwg2uVeIB3zAYtl8KuG4t5pLm-u6bT2grok72USGtMh1QiOnRlg6Z2nTX_JUZ3n7FJsWQ90gxkK5M29fhDVbhHmVH3MEsVaB2gjha8kLMA0dPPIKHk9IATWSOgnt2jp-G4VWU31T6MCWlEvtHLTB8I2sgga1hDGQj-FN1oJjM0qTkptD1FdDwQH5ogtJH33O7A0g9GQbnLzj5-F8tVGDkBL8uyEMVOxFeXa2fhDWAwiQXKDdpaswQCLQh1zUyBEcKxUdjf0ADlv77K-Dj8UgZx-UdbDQfv3SaKVjtZEVs64dNZHR605pF6cNs4WtigSKcTw0coHF7vKlk3EbLwpYZSTcVuAH2kzPuUxrzruMHg_y0]--></g></svg>