<?xml version="1.0" encoding="us-ascii" standalone="no"?><svg xmlns="http://www.w3.org/2000/svg" xmlns:xlink="http://www.w3.org/1999/xlink" contentStyleType="text/css" height="2236.875px" preserveAspectRatio="none" style="width:2797px;height:2236px;background:#FFFFFF;" version="1.1" viewBox="0 0 2797 2236" width="2797.5px" zoomAndPan="magnify"><defs/><g><text fill="#17324D" font-family="sans-serif" font-size="52.5" font-weight="bold" lengthAdjust="spacing" textLength="883.125" x="960" y="86.3745">Paiement, s&#233;questre et versements</text><rect fill="#F4FAF6" height="436.9336" rx="11.25" ry="11.25" style="stroke:#9CB4C1;stroke-width:2.8125;" width="1707.1875" x="1079.0625" y="1588.0664"/><line style="stroke:#9CB4C1;stroke-width:0.9375;stroke-dasharray:5.0,5.0;" x1="69.375" x2="69.375" y1="294.1699" y2="2056.875"/><line style="stroke:#9CB4C1;stroke-width:0.9375;stroke-dasharray:5.0,5.0;" x1="535.3125" x2="535.3125" y1="294.1699" y2="2056.875"/><line style="stroke:#9CB4C1;stroke-width:0.9375;stroke-dasharray:5.0,5.0;" x1="1262.8125" x2="1262.8125" y1="294.1699" y2="2056.875"/><line style="stroke:#9CB4C1;stroke-width:0.9375;stroke-dasharray:5.0,5.0;" x1="1762.5" x2="1762.5" y1="294.1699" y2="2056.875"/><line style="stroke:#9CB4C1;stroke-width:0.9375;stroke-dasharray:5.0,5.0;" x1="2193.75" x2="2193.75" y1="294.1699" y2="2056.875"/><line style="stroke:#9CB4C1;stroke-width:0.9375;stroke-dasharray:5.0,5.0;" x1="2493.75" x2="2493.75" y1="294.1699" y2="2056.875"/><line style="stroke:#9CB4C1;stroke-width:0.9375;stroke-dasharray:5.0,5.0;" x1="2696.25" x2="2696.25" y1="294.1699" y2="2056.875"/><text fill="#000000" font-family="sans-serif" font-size="41.25" lengthAdjust="spacing" textLength="101.25" x="13.125" y="281.3562">Client</text><ellipse cx="69.375" cy="138.2227" fill="#FFFFFF" rx="15" ry="15" style="stroke:#2F7D5B;stroke-width:0.9375;"/><path d="M69.375,153.2227 L69.375,203.8477 M45,168.2227 L93.75,168.2227 M69.375,203.8477 L45,231.9727 M69.375,203.8477 L93.75,231.9727 " fill="none" style="stroke:#2F7D5B;stroke-width:0.9375;"/><text fill="#000000" font-family="sans-serif" font-size="41.25" lengthAdjust="spacing" textLength="101.25" x="13.125" y="2101.571">Client</text><ellipse cx="69.375" cy="2130.3223" fill="#FFFFFF" rx="15" ry="15" style="stroke:#2F7D5B;stroke-width:0.9375;"/><path d="M69.375,2145.3223 L69.375,2195.9473 M45,2160.3223 L93.75,2160.3223 M69.375,2195.9473 L45,2224.0723 M69.375,2195.9473 L93.75,2224.0723 " fill="none" style="stroke:#2F7D5B;stroke-width:0.9375;"/><text fill="#000000" font-family="sans-serif" font-size="41.25" lengthAdjust="spacing" textLength="241.875" x="409.6875" y="281.3562">Interface web</text><path d="M497.8125,182.2852 L497.8125,227.2852 M497.8125,204.7852 L529.6875,204.7852 " fill="none" style="stroke:#181818;stroke-width:0.9375;"/><ellipse cx="552.1875" cy="204.7852" fill="#E2E2F0" rx="22.5" ry="22.5" style="stroke:#181818;stroke-width:0.9375;"/><text fill="#000000" font-family="sans-serif" font-size="41.25" lengthAdjust="spacing" textLength="241.875" x="409.6875" y="2101.571">Interface web</text><path d="M497.8125,2121.8848 L497.8125,2166.8848 M497.8125,2144.3848 L529.6875,2144.3848 " fill="none" style="stroke:#181818;stroke-width:0.9375;"/><ellipse cx="552.1875" cy="2144.3848" fill="#E2E2F0" rx="22.5" ry="22.5" style="stroke:#181818;stroke-width:0.9375;"/><text fill="#000000" font-family="sans-serif" font-size="41.25" lengthAdjust="spacing" textLength="313.125" x="1101.5625" y="281.3562">Service paiement</text><ellipse cx="1263.75" cy="204.7852" fill="#E2E2F0" rx="22.5" ry="22.5" style="stroke:#181818;stroke-width:0.9375;"/><polygon fill="#181818" points="1256.25,182.2852,1267.5,172.9102,1263.75,182.2852,1267.5,191.6602,1256.25,182.2852" style="stroke:#181818;stroke-width:1.875;"/><text fill="#000000" font-family="sans-serif" font-size="41.25" lengthAdjust="spacing" textLength="313.125" x="1101.5625" y="2101.571">Service paiement</text><ellipse cx="1263.75" cy="2144.3848" fill="#E2E2F0" rx="22.5" ry="22.5" style="stroke:#181818;stroke-width:0.9375;"/><polygon fill="#181818" points="1256.25,2121.8848,1267.5,2112.5098,1263.75,2121.8848,1267.5,2131.2598,1256.25,2121.8848" style="stroke:#181818;stroke-width:1.875;"/><rect fill="#EAF4F8" height="85.6348" rx="11.25" ry="11.25" style="stroke:#3E7490;stroke-width:0.9375;" width="453.75" x="1535.625" y="206.6602"/><text fill="#000000" font-family="sans-serif" font-size="41.25" lengthAdjust="spacing" textLength="420" x="1552.5" y="266.3562">Passerelle de paiement</text><rect fill="#EAF4F8" height="85.6348" rx="11.25" ry="11.25" style="stroke:#3E7490;stroke-width:0.9375;" width="453.75" x="1535.625" y="2055"/><text fill="#000000" font-family="sans-serif" font-size="41.25" lengthAdjust="spacing" textLength="420" x="1552.5" y="2114.696">Passerelle de paiement</text><text fill="#000000" font-family="sans-serif" font-size="41.25" lengthAdjust="spacing" textLength="315" x="2030.625" y="281.3562">Base de donn&#233;es</text><path d="M2160,167.2852 C2160,148.5352 2193.75,148.5352 2193.75,148.5352 C2193.75,148.5352 2227.5,148.5352 2227.5,167.2852 L2227.5,216.0352 C2227.5,234.7852 2193.75,234.7852 2193.75,234.7852 C2193.75,234.7852 2160,234.7852 2160,216.0352 L2160,167.2852 " fill="#E2E2F0" style="stroke:#181818;stroke-width:2.8125;"/><path d="M2160,167.2852 C2160,186.0352 2193.75,186.0352 2193.75,186.0352 C2193.75,186.0352 2227.5,186.0352 2227.5,167.2852 " fill="none" style="stroke:#181818;stroke-width:2.8125;"/><text fill="#000000" font-family="sans-serif" font-size="41.25" lengthAdjust="spacing" textLength="315" x="2030.625" y="2101.571">Base de donn&#233;es</text><path d="M2160,2133.1348 C2160,2114.3848 2193.75,2114.3848 2193.75,2114.3848 C2193.75,2114.3848 2227.5,2114.3848 2227.5,2133.1348 L2227.5,2181.8848 C2227.5,2200.6348 2193.75,2200.6348 2193.75,2200.6348 C2193.75,2200.6348 2160,2200.6348 2160,2181.8848 L2160,2133.1348 " fill="#E2E2F0" style="stroke:#181818;stroke-width:2.8125;"/><path d="M2160,2133.1348 C2160,2151.8848 2193.75,2151.8848 2193.75,2151.8848 C2193.75,2151.8848 2227.5,2151.8848 2227.5,2133.1348 " fill="none" style="stroke:#181818;stroke-width:2.8125;"/><text fill="#000000" font-family="sans-serif" font-size="41.25" lengthAdjust="spacing" textLength="210" x="2383.125" y="281.3562">Fournisseur</text><ellipse cx="2493.75" cy="138.2227" fill="#FFFFFF" rx="15" ry="15" style="stroke:#2F7D5B;stroke-width:0.9375;"/><path d="M2493.75,153.2227 L2493.75,203.8477 M2469.375,168.2227 L2518.125,168.2227 M2493.75,203.8477 L2469.375,231.9727 M2493.75,203.8477 L2518.125,231.9727 " fill="none" style="stroke:#2F7D5B;stroke-width:0.9375;"/><text fill="#000000" font-family="sans-serif" font-size="41.25" lengthAdjust="spacing" textLength="210" x="2383.125" y="2101.571">Fournisseur</text><ellipse cx="2493.75" cy="2130.3223" fill="#FFFFFF" rx="15" ry="15" style="stroke:#2F7D5B;stroke-width:0.9375;"/><path d="M2493.75,2145.3223 L2493.75,2195.9473 M2469.375,2160.3223 L2518.125,2160.3223 M2493.75,2195.9473 L2469.375,2224.0723 M2493.75,2195.9473 L2518.125,2224.0723 " fill="none" style="stroke:#2F7D5B;stroke-width:0.9375;"/><text fill="#000000" font-family="sans-serif" font-size="41.25" lengthAdjust="spacing" textLength="121.875" x="2630.625" y="281.3562">Livreur</text><ellipse cx="2697.1875" cy="138.2227" fill="#FFFFFF" rx="15" ry="15" style="stroke:#2F7D5B;stroke-width:0.9375;"/><path d="M2697.1875,153.2227 L2697.1875,203.8477 M2672.8125,168.2227 L2721.5625,168.2227 M2697.1875,203.8477 L2672.8125,231.9727 M2697.1875,203.8477 L2721.5625,231.9727 " fill="none" style="stroke:#2F7D5B;stroke-width:0.9375;"/><text fill="#000000" font-family="sans-serif" font-size="41.25" lengthAdjust="spacing" textLength="121.875" x="2630.625" y="2101.571">Livreur</text><ellipse cx="2697.1875" cy="2130.3223" fill="#FFFFFF" rx="15" ry="15" style="stroke:#2F7D5B;stroke-width:0.9375;"/><path d="M2697.1875,2145.3223 L2697.1875,2195.9473 M2672.8125,2160.3223 L2721.5625,2160.3223 M2697.1875,2195.9473 L2672.8125,2224.0723 M2697.1875,2195.9473 L2721.5625,2224.0723 " fill="none" style="stroke:#2F7D5B;stroke-width:0.9375;"/><polygon fill="#456A7D" points="513.75,376.0547,532.5,383.5547,513.75,391.0547,521.25,383.5547" style="stroke:#456A7D;stroke-width:1.875;"/><line style="stroke:#456A7D;stroke-width:2.625;" x1="69.375" x2="525" y1="383.5547" y2="383.5547"/><text fill="#29485B" font-family="sans-serif" font-size="41.25" font-weight="bold" lengthAdjust="spacing" textLength="22.5" x="86.25" y="366.991">1</text><text fill="#29485B" font-family="sans-serif" font-size="41.25" lengthAdjust="spacing" textLength="375" x="123.75" y="366.991">confirme le paiement</text><polygon fill="#456A7D" points="1241.25,461.6895,1260,469.1895,1241.25,476.6895,1248.75,469.1895" style="stroke:#456A7D;stroke-width:1.875;"/><line style="stroke:#456A7D;stroke-width:2.625;" x1="536.25" x2="1252.5" y1="469.1895" y2="469.1895"/><text fill="#29485B" font-family="sans-serif" font-size="41.25" font-weight="bold" lengthAdjust="spacing" textLength="22.5" x="553.125" y="452.6257">2</text><text fill="#29485B" font-family="sans-serif" font-size="41.25" lengthAdjust="spacing" textLength="637.5" x="590.625" y="452.6257">initierPaiement(commande, moyen)</text><polygon fill="#456A7D" points="1740,547.3242,1758.75,554.8242,1740,562.3242,1747.5,554.8242" style="stroke:#456A7D;stroke-width:1.875;"/><line style="stroke:#456A7D;stroke-width:2.625;" x1="1263.75" x2="1751.25" y1="554.8242" y2="554.8242"/><text fill="#29485B" font-family="sans-serif" font-size="41.25" font-weight="bold" lengthAdjust="spacing" textLength="22.5" x="1280.625" y="538.2605">3</text><text fill="#29485B" font-family="sans-serif" font-size="41.25" lengthAdjust="spacing" textLength="253.125" x="1318.125" y="538.2605">d&#233;biter le total</text><polygon fill="#456A7D" points="1284.375,632.959,1265.625,640.459,1284.375,647.959,1276.875,640.459" style="stroke:#456A7D;stroke-width:1.875;"/><line style="stroke:#456A7D;stroke-width:2.625;stroke-dasharray:2.0,2.0;" x1="1273.125" x2="1760.625" y1="640.459" y2="640.459"/><text fill="#29485B" font-family="sans-serif" font-size="41.25" font-weight="bold" lengthAdjust="spacing" textLength="22.5" x="1299.375" y="623.8953">4</text><text fill="#29485B" font-family="sans-serif" font-size="41.25" lengthAdjust="spacing" textLength="318.75" x="1336.875" y="623.8953">paiement accept&#233;</text><polygon fill="#456A7D" points="2171.25,718.5938,2190,726.0938,2171.25,733.5938,2178.75,726.0938" style="stroke:#456A7D;stroke-width:1.875;"/><line style="stroke:#456A7D;stroke-width:2.625;" x1="1263.75" x2="2182.5" y1="726.0938" y2="726.0938"/><text fill="#29485B" font-family="sans-serif" font-size="41.25" font-weight="bold" lengthAdjust="spacing" textLength="22.5" x="1280.625" y="709.53">5</text><text fill="#29485B" font-family="sans-serif" font-size="41.25" lengthAdjust="spacing" textLength="583.125" x="1318.125" y="709.53">enregistre le paiement s&#233;questr&#233;</text><polygon fill="#456A7D" points="2471.25,804.2285,2490,811.7285,2471.25,819.2285,2478.75,811.7285" style="stroke:#456A7D;stroke-width:1.875;"/><line style="stroke:#456A7D;stroke-width:2.625;" x1="1263.75" x2="2482.5" y1="811.7285" y2="811.7285"/><text fill="#29485B" font-family="sans-serif" font-size="41.25" font-weight="bold" lengthAdjust="spacing" textLength="22.5" x="1280.625" y="795.1648">6</text><text fill="#29485B" font-family="sans-serif" font-size="41.25" lengthAdjust="spacing" textLength="416.25" x="1318.125" y="795.1648">notifie le paiement re&#231;u</text><path d="M9.375,847.3535 L9.375,954.2285 A11.25,11.25 0 0 0 20.625,965.4785 L2746.875,965.4785 A11.25,11.25 0 0 0 2758.125,954.2285 L2758.125,854.8535 L2739.375,836.1035 L20.625,836.1035 A11.25,11.25 0 0 0 9.375,847.3535 " fill="#FFF8E8" style="stroke:#E5AE45;stroke-width:0.9375;"/><path d="M2739.375,836.1035 L2739.375,849.2285 A5.625,5.625 0 0 0 2745,854.8535 L2758.125,854.8535 L2739.375,836.1035 " fill="#FFF8E8" style="stroke:#E5AE45;stroke-width:0.9375;"/><text fill="#5B481E" font-family="sans-serif" font-size="41.25" lengthAdjust="spacing" textLength="804.375" x="973.125" y="892.0496">Le versement intervient apr&#232;s la confirmation</text><text fill="#5B481E" font-family="sans-serif" font-size="41.25" lengthAdjust="spacing" textLength="585" x="973.125" y="943.9343">de la r&#233;ception de la commande.</text><polygon fill="#456A7D" points="513.75,1038.6328,532.5,1046.1328,513.75,1053.6328,521.25,1046.1328" style="stroke:#456A7D;stroke-width:1.875;"/><line style="stroke:#456A7D;stroke-width:2.625;" x1="69.375" x2="525" y1="1046.1328" y2="1046.1328"/><text fill="#29485B" font-family="sans-serif" font-size="41.25" font-weight="bold" lengthAdjust="spacing" textLength="22.5" x="86.25" y="1029.5691">7</text><text fill="#29485B" font-family="sans-serif" font-size="41.25" lengthAdjust="spacing" textLength="376.875" x="123.75" y="1029.5691">confirme la r&#233;ception</text><polygon fill="#456A7D" points="1241.25,1124.2676,1260,1131.7676,1241.25,1139.2676,1248.75,1131.7676" style="stroke:#456A7D;stroke-width:1.875;"/><line style="stroke:#456A7D;stroke-width:2.625;" x1="536.25" x2="1252.5" y1="1131.7676" y2="1131.7676"/><text fill="#29485B" font-family="sans-serif" font-size="41.25" font-weight="bold" lengthAdjust="spacing" textLength="22.5" x="553.125" y="1115.2039">8</text><text fill="#29485B" font-family="sans-serif" font-size="41.25" lengthAdjust="spacing" textLength="249.375" x="590.625" y="1115.2039">lib&#233;rerFonds()</text><polygon fill="#456A7D" points="2171.25,1209.9023,2190,1217.4023,2171.25,1224.9023,2178.75,1217.4023" style="stroke:#456A7D;stroke-width:1.875;"/><line style="stroke:#456A7D;stroke-width:2.625;" x1="1263.75" x2="2182.5" y1="1217.4023" y2="1217.4023"/><text fill="#29485B" font-family="sans-serif" font-size="41.25" font-weight="bold" lengthAdjust="spacing" textLength="22.5" x="1280.625" y="1200.8386">9</text><text fill="#29485B" font-family="sans-serif" font-size="41.25" lengthAdjust="spacing" textLength="410.625" x="1318.125" y="1200.8386">confirme la commande</text><polygon fill="#456A7D" points="1740,1295.5371,1758.75,1303.0371,1740,1310.5371,1747.5,1303.0371" style="stroke:#456A7D;stroke-width:1.875;"/><line style="stroke:#456A7D;stroke-width:2.625;" x1="1263.75" x2="1751.25" y1="1303.0371" y2="1303.0371"/><text fill="#29485B" font-family="sans-serif" font-size="41.25" font-weight="bold" lengthAdjust="spacing" textLength="45" x="1280.625" y="1286.4734">10</text><text fill="#29485B" font-family="sans-serif" font-size="41.25" lengthAdjust="spacing" textLength="386.25" x="1340.625" y="1286.4734">cr&#233;diter le fournisseur</text><polygon fill="#456A7D" points="1284.375,1381.1719,1265.625,1388.6719,1284.375,1396.1719,1276.875,1388.6719" style="stroke:#456A7D;stroke-width:1.875;"/><line style="stroke:#456A7D;stroke-width:2.625;stroke-dasharray:2.0,2.0;" x1="1273.125" x2="1760.625" y1="1388.6719" y2="1388.6719"/><text fill="#29485B" font-family="sans-serif" font-size="41.25" font-weight="bold" lengthAdjust="spacing" textLength="45" x="1299.375" y="1372.1082">11</text><text fill="#29485B" font-family="sans-serif" font-size="41.25" lengthAdjust="spacing" textLength="305.625" x="1359.375" y="1372.1082">versement r&#233;ussi</text><polygon fill="#456A7D" points="2171.25,1466.8066,2190,1474.3066,2171.25,1481.8066,2178.75,1474.3066" style="stroke:#456A7D;stroke-width:1.875;"/><line style="stroke:#456A7D;stroke-width:2.625;" x1="1263.75" x2="2182.5" y1="1474.3066" y2="1474.3066"/><text fill="#29485B" font-family="sans-serif" font-size="41.25" font-weight="bold" lengthAdjust="spacing" textLength="45" x="1280.625" y="1457.7429">12</text><text fill="#29485B" font-family="sans-serif" font-size="41.25" lengthAdjust="spacing" textLength="628.125" x="1340.625" y="1457.7429">enregistre le versement fournisseur</text><polygon fill="#456A7D" points="2471.25,1552.4414,2490,1559.9414,2471.25,1567.4414,2478.75,1559.9414" style="stroke:#456A7D;stroke-width:1.875;"/><line style="stroke:#456A7D;stroke-width:2.625;" x1="1263.75" x2="2482.5" y1="1559.9414" y2="1559.9414"/><text fill="#29485B" font-family="sans-serif" font-size="41.25" font-weight="bold" lengthAdjust="spacing" textLength="45" x="1280.625" y="1543.3777">13</text><text fill="#29485B" font-family="sans-serif" font-size="41.25" lengthAdjust="spacing" textLength="350.625" x="1340.625" y="1543.3777">notifie le versement</text><path d="M1090.3125,1588.0664 L1232.8125,1588.0664 L1232.8125,1632.4512 L1214.0625,1651.2012 L1079.0625,1651.2012 L1079.0625,1599.3164 A11.25,11.25 0 0 1 1090.3125,1588.0664 " fill="#F7FBFD" style="stroke:#9CB4C1;stroke-width:2.8125;"/><rect fill="none" height="436.9336" rx="11.25" ry="11.25" style="stroke:#9CB4C1;stroke-width:2.8125;" width="1707.1875" x="1079.0625" y="1588.0664"/><text fill="#000000" font-family="sans-serif" font-size="41.25" font-weight="bold" lengthAdjust="spacing" textLength="61.875" x="1110.9375" y="1636.5125">opt</text><text fill="#000000" font-family="sans-serif" font-size="41.25" font-weight="bold" lengthAdjust="spacing" textLength="560.625" x="1264.6875" y="1638.3875">[une livraison a &#233;t&#233; effectu&#233;e]</text><polygon fill="#456A7D" points="1740,1745.5957,1758.75,1753.0957,1740,1760.5957,1747.5,1753.0957" style="stroke:#456A7D;stroke-width:1.875;"/><line style="stroke:#456A7D;stroke-width:2.625;" x1="1263.75" x2="1751.25" y1="1753.0957" y2="1753.0957"/><text fill="#29485B" font-family="sans-serif" font-size="41.25" font-weight="bold" lengthAdjust="spacing" textLength="45" x="1280.625" y="1736.532">14</text><text fill="#29485B" font-family="sans-serif" font-size="41.25" lengthAdjust="spacing" textLength="294.375" x="1340.625" y="1736.532">cr&#233;diter le livreur</text><polygon fill="#456A7D" points="1284.375,1831.2305,1265.625,1838.7305,1284.375,1846.2305,1276.875,1838.7305" style="stroke:#456A7D;stroke-width:1.875;"/><line style="stroke:#456A7D;stroke-width:2.625;stroke-dasharray:2.0,2.0;" x1="1273.125" x2="1760.625" y1="1838.7305" y2="1838.7305"/><text fill="#29485B" font-family="sans-serif" font-size="41.25" font-weight="bold" lengthAdjust="spacing" textLength="45" x="1299.375" y="1822.1667">15</text><text fill="#29485B" font-family="sans-serif" font-size="41.25" lengthAdjust="spacing" textLength="305.625" x="1359.375" y="1822.1667">versement r&#233;ussi</text><polygon fill="#456A7D" points="2171.25,1916.8652,2190,1924.3652,2171.25,1931.8652,2178.75,1924.3652" style="stroke:#456A7D;stroke-width:1.875;"/><line style="stroke:#456A7D;stroke-width:2.625;" x1="1263.75" x2="2182.5" y1="1924.3652" y2="1924.3652"/><text fill="#29485B" font-family="sans-serif" font-size="41.25" font-weight="bold" lengthAdjust="spacing" textLength="45" x="1280.625" y="1907.8015">16</text><text fill="#29485B" font-family="sans-serif" font-size="41.25" lengthAdjust="spacing" textLength="536.25" x="1340.625" y="1907.8015">enregistre le versement livreur</text><polygon fill="#456A7D" points="2674.6875,2002.5,2693.4375,2010,2674.6875,2017.5,2682.1875,2010" style="stroke:#456A7D;stroke-width:1.875;"/><line style="stroke:#456A7D;stroke-width:2.625;" x1="1263.75" x2="2685.9375" y1="2010" y2="2010"/><text fill="#29485B" font-family="sans-serif" font-size="41.25" font-weight="bold" lengthAdjust="spacing" textLength="45" x="1280.625" y="1993.4363">17</text><text fill="#29485B" font-family="sans-serif" font-size="41.25" lengthAdjust="spacing" textLength="350.625" x="1340.625" y="1993.4363">notifie le versement</text><!--SRC=[ZPRDRkCs4CVlV0h2FNGNo2vYMruhFHIGR6atGBerwgH0ZxGqSeZ8f4fIphgdFaJVeVLp-4tw91t9aaNBij80pe7pcw__Z4HzJvTcbmADv6QJ2_hldt_HcBErOfiDQ1gai9r98I0oHBzmaJ4qq1MBNjPAvYAUoLGg-brO_bb4d74wT6-j4_tCOldAnPecBDLWMSf0aLG251sEB4FA1PXT1bGgyopjw92mF3MX5EOhsm1TCg6Ne7ZIpIpv7q17TkH7RbBeTJyHHsUtorGrFvoEHyxS0Zobv6jbT2QVlEc5qV8UtJdkn6y3ZyyyUX6WDHr-T2pZLsd0xr3V3Tms9LKCgYA2YHSuanPX5J7n7NSOMFO5vc3hyo1tdZ_rfXtGHJrEw8MVBa5Rin1JZhkHupwkP1hRgaI6RxdPNIQx3Trmt4NQjO_2wVnSvOhgdMF5p3dRI15twJwUkpqETWLpzsuo2ZixkbhaB6LQ-sy-R4UijzqI-G8CaOjuWHEE0wyDzmaJ2DCvYdPX5TTRsP7foxOqh6FfWtau3OSNM6-k4kbBzQGXOheZcOSxxNQ0ThfnC7NkRY-XtjxWznn410yymPzeFN0ptvaD- -Wt9r1xB9WoFE8P4-RjvhgSUXkj7N2bfVh_HHtn_ebLw6SCc5r6deP-EB-AzsefP0mQilCRHp7nKXvEEXxKdvXQSq6xJ0iMnyNLvfozqKxgrUQXBPelltMx7Sz6xRrjOC9o8qM-MO4YhD0GdrWEmb2cgJVxGbQ5H4pjwE1U6509Yu2-mcfGs9_kIOJxg6HA1tZdRJdQCiPXW_ubiF1-8rbJEXqiy6K02b9y9ySjzhFt692O6RR2DQS3l_YFJ8mV38Szw9AP-rMDeSoLu1WhLyLv-FFJBvNbWMzLTVfm_oiXfhXWKOXZfXkg3tiSgpOAA1Yw1QLBWwQ4OBlqmu_O5Vq1ls14mXNUvsbJ9a4Bsh4f1BZWXeEg0xyhFdcOYE66RkGEn7jIO4WNRI4U7_OhZleLyOmqB2MbuSCfNfs4iYY2p1psTO2vZrOG2jQyhDegg6ccmGifq458mnD-JYiu_9qJWYRy2iBEY_dUb2fH-W2D5jYRAQPPLfEfmp-QfgnMX1ak1JhWQF0G4nVLub5rKClmaO28YohWcgwsyvcoALyTzWeKlkfY_UxzcGwsUvsgfNI4OUDQwgJPaxRWJRlea6lDUmHlM3lWLSLFE24oCpGNU8fhoRX6dHWzx76y5984FuHpt6rKiwU5zBZG2BtPm2bERmjDm8h63RXMFmxnFm00]--></g></svg>