<?xml version="1.0" encoding="us-ascii" standalone="no"?><svg xmlns="http://www.w3.org/2000/svg" xmlns:xlink="http://www.w3.org/1999/xlink" contentStyleType="text/css" height="918.75px" preserveAspectRatio="none" style="width:1072px;height:918px;background:#FFFFFF;" version="1.1" viewBox="0 0 1072 918" width="1072.5px" zoomAndPan="magnify"><defs/><g><text fill="#17324D" font-family="sans-serif" font-size="52.5" font-weight="bold" lengthAdjust="spacing" textLength="691.875" x="177.8906" y="76.9995">Cycle de vie d'une livraison</text><ellipse cx="544.6875" cy="158.5739" fill="#181818" rx="18.75" ry="18.75" style="stroke:none;stroke-width:1.875;"/><g id="EnAttente"><rect fill="#EDF7F1" height="104.3848" rx="11.25" ry="11.25" style="stroke:#2F7D5B;stroke-width:0.9375;" width="226.875" x="431.25" y="205.4489"/><line style="stroke:#2F7D5B;stroke-width:0.9375;" x1="431.25" x2="658.125" y1="283.5836" y2="283.5836"/><text fill="#17324D" font-family="sans-serif" font-size="41.25" lengthAdjust="spacing" textLength="181.875" x="453.75" y="261.3949">En attente</text></g><g id="PriseEnCharge"><rect fill="#EDF7F1" height="104.3848" rx="11.25" ry="11.25" style="stroke:#2F7D5B;stroke-width:0.9375;" width="326.25" x="282.1875" y="338.5739"/><line style="stroke:#2F7D5B;stroke-width:0.9375;" x1="282.1875" x2="608.4375" y1="416.7086" y2="416.7086"/><text fill="#17324D" font-family="sans-serif" font-size="41.25" lengthAdjust="spacing" textLength="281.25" x="304.6875" y="394.5199">Prise en charge</text></g><g id="NonAssignee"><rect fill="#EDF7F1" height="104.3848" rx="11.25" ry="11.25" style="stroke:#2F7D5B;stroke-width:0.9375;" width="292.5" x="535.3125" y="471.6989"/><line style="stroke:#2F7D5B;stroke-width:0.9375;" x1="535.3125" x2="827.8125" y1="549.8336" y2="549.8336"/><text fill="#17324D" font-family="sans-serif" font-size="41.25" lengthAdjust="spacing" textLength="247.5" x="557.8125" y="527.6449">Non assign&#233;e</text></g><g id="EnCours"><rect fill="#EDF7F1" height="104.3848" rx="11.25" ry="11.25" style="stroke:#2F7D5B;stroke-width:0.9375;" width="204.375" x="307.5" y="471.6989"/><line style="stroke:#2F7D5B;stroke-width:0.9375;" x1="307.5" x2="511.875" y1="549.8336" y2="549.8336"/><text fill="#17324D" font-family="sans-serif" font-size="41.25" lengthAdjust="spacing" textLength="159.375" x="330" y="527.6449">En cours</text></g><g id="AConfirmer"><rect fill="#EDF7F1" height="104.3848" rx="11.25" ry="11.25" style="stroke:#2F7D5B;stroke-width:0.9375;" width="255" x="282.1875" y="604.8239"/><line style="stroke:#2F7D5B;stroke-width:0.9375;" x1="282.1875" x2="537.1875" y1="682.9586" y2="682.9586"/><text fill="#17324D" font-family="sans-serif" font-size="41.25" lengthAdjust="spacing" textLength="210" x="304.6875" y="660.7699">&#192; confirmer</text></g><g id="Terminee"><rect fill="#EDF7F1" height="104.3848" rx="11.25" ry="11.25" style="stroke:#2F7D5B;stroke-width:0.9375;" width="215.625" x="75" y="737.9489"/><line style="stroke:#2F7D5B;stroke-width:0.9375;" x1="75" x2="290.625" y1="816.0836" y2="816.0836"/><text fill="#17324D" font-family="sans-serif" font-size="41.25" lengthAdjust="spacing" textLength="170.625" x="97.5" y="793.8949">Termin&#233;e</text></g><g id="Incident"><rect fill="#EDF7F1" height="104.3848" rx="11.25" ry="11.25" style="stroke:#2F7D5B;stroke-width:0.9375;" width="331.875" x="313.125" y="737.9489"/><line style="stroke:#2F7D5B;stroke-width:0.9375;" x1="313.125" x2="645" y1="816.0836" y2="816.0836"/><text fill="#17324D" font-family="sans-serif" font-size="41.25" lengthAdjust="spacing" textLength="286.875" x="335.625" y="793.8949">Incident &#224; traiter</text></g><ellipse cx="479.0625" cy="889.8239" fill="none" rx="18.75" ry="18.75" style="stroke:#181818;stroke-width:1.875;"/><ellipse cx="480" cy="890.7614" fill="#181818" rx="11.25" ry="11.25" style="stroke:none;stroke-width:1.875;"/><!--link *start* to EnAttente--><g id="link_*start*_EnAttente"><path d="M544.6875,177.7364 C544.6875,177.7364 544.6875,195.5676 544.6875,195.5676 " fill="none" id="*start*-to-EnAttente" style="stroke:#456A7D;stroke-width:2.625;"/><polygon fill="#456A7D" points="544.6875,204.9426,552.1875,188.0676,544.6875,195.5676,537.1875,188.0676,544.6875,204.9426" style="stroke:#456A7D;stroke-width:2.625;"/><text fill="#29485B" font-family="sans-serif" font-size="41.25" lengthAdjust="spacing" textLength="339.375" x="199.6875" y="173.2324">commande valid&#233;e</text></g><!--link EnAttente to PriseEnCharge--><g id="link_EnAttente_PriseEnCharge"><path d="M519.8438,310.5614 C519.8438,310.5614 519.8438,328.5989 519.8438,328.5989 " fill="none" id="EnAttente-to-PriseEnCharge" style="stroke:#456A7D;stroke-width:2.625;"/><polygon fill="#456A7D" points="519.8438,337.9739,527.3438,321.0989,519.8438,328.5989,512.3438,321.0989,519.8438,337.9739" style="stroke:#456A7D;stroke-width:2.625;"/><text fill="#29485B" font-family="sans-serif" font-size="41.25" lengthAdjust="spacing" textLength="260.625" x="525.4688" y="368.0262">livreur accepte</text></g><!--link EnAttente to NonAssignee--><g id="link_EnAttente_NonAssignee"><path d="M633.2813,310.5426 C633.2813,310.5426 633.2813,461.4239 633.2813,461.4239 " fill="none" id="EnAttente-to-NonAssignee" style="stroke:#456A7D;stroke-width:2.625;"/><polygon fill="#456A7D" points="633.2813,470.7989,640.7813,453.9239,633.2813,461.4239,625.7813,453.9239,633.2813,470.7989" style="stroke:#456A7D;stroke-width:2.625;"/><text fill="#29485B" font-family="sans-serif" font-size="41.25" lengthAdjust="spacing" textLength="416.25" x="638.9063" y="434.4387">aucun livreur disponible</text></g><!--link PriseEnCharge to EnCours--><g id="link_PriseEnCharge_EnCours"><path d="M409.6875,443.6864 C409.6875,443.6864 409.6875,461.7239 409.6875,461.7239 " fill="none" id="PriseEnCharge-to-EnCours" style="stroke:#456A7D;stroke-width:2.625;"/><polygon fill="#456A7D" points="409.6875,471.0989,417.1875,454.2239,409.6875,461.7239,402.1875,454.2239,409.6875,471.0989" style="stroke:#456A7D;stroke-width:2.625;"/><text fill="#29485B" font-family="sans-serif" font-size="41.25" lengthAdjust="spacing" textLength="286.875" x="117.1875" y="501.1512">d&#233;part du livreur</text></g><!--link EnCours to AConfirmer--><g id="link_EnCours_AConfirmer"><path d="M409.6875,576.8114 C409.6875,576.8114 409.6875,594.8489 409.6875,594.8489 " fill="none" id="EnCours-to-AConfirmer" style="stroke:#456A7D;stroke-width:2.625;"/><polygon fill="#456A7D" points="409.6875,604.2239,417.1875,587.3489,409.6875,594.8489,402.1875,587.3489,409.6875,604.2239" style="stroke:#456A7D;stroke-width:2.625;"/><text fill="#29485B" font-family="sans-serif" font-size="41.25" lengthAdjust="spacing" textLength="333.75" x="70.3125" y="572.4012">commande remise</text></g><!--link AConfirmer to Terminee--><g id="link_AConfirmer_Terminee"><path d="M301.875,709.9364 C301.875,747.1551 301.875,790.4489 301.875,790.4489 C301.875,790.4489 300.2625,790.4489 300.2625,790.4489 " fill="none" id="AConfirmer-to-Terminee" style="stroke:#456A7D;stroke-width:2.625;"/><polygon fill="#456A7D" points="290.8875,790.4489,307.7625,797.9489,300.2625,790.4489,307.7625,782.9489,290.8875,790.4489" style="stroke:#456A7D;stroke-width:2.625;"/><text fill="#29485B" font-family="sans-serif" font-size="41.25" lengthAdjust="spacing" textLength="279.375" x="16.875" y="737.5699">QR code valid&#233;</text></g><!--link AConfirmer to Incident--><g id="link_AConfirmer_Incident"><path d="M425.1563,709.9364 C425.1563,709.9364 425.1563,727.9739 425.1563,727.9739 " fill="none" id="AConfirmer-to-Incident" style="stroke:#456A7D;stroke-width:2.625;"/><polygon fill="#456A7D" points="425.1563,737.3489,432.6563,720.4739,425.1563,727.9739,417.6563,720.4739,425.1563,737.3489" style="stroke:#456A7D;stroke-width:2.625;"/><text fill="#29485B" font-family="sans-serif" font-size="41.25" lengthAdjust="spacing" textLength="309.375" x="430.7813" y="705.5262">QR code invalide</text></g><!--link Terminee to *end*--><g id="link_Terminee_*end*"><path d="M182.8125,843.0426 C182.8125,866.8739 182.8125,889.8239 182.8125,889.8239 C182.8125,889.8239 450.2438,889.8239 450.2438,889.8239 " fill="none" id="Terminee-to-*end*" style="stroke:#456A7D;stroke-width:2.625;"/><polygon fill="#456A7D" points="459.6188,889.8239,442.7438,882.3239,450.2438,889.8239,442.7438,897.3239,459.6188,889.8239" style="stroke:#456A7D;stroke-width:2.625;"/></g><!--link NonAssignee to *end*--><g id="link_NonAssignee_*end*"><path d="M736.4063,577.3551 C736.4063,678.7739 736.4063,889.8239 736.4063,889.8239 C736.4063,889.8239 507.7875,889.8239 507.7875,889.8239 " fill="none" id="NonAssignee-to-*end*" style="stroke:#456A7D;stroke-width:2.625;"/><polygon fill="#456A7D" points="498.4125,889.8239,515.2875,897.3239,507.7875,889.8239,515.2875,882.3239,498.4125,889.8239" style="stroke:#456A7D;stroke-width:2.625;"/></g><!--link Incident to *end*--><g id="link_Incident_*end*"><path d="M479.0625,843.0426 C479.0625,843.0426 479.0625,860.7989 479.0625,860.7989 " fill="none" id="Incident-to-*end*" style="stroke:#456A7D;stroke-width:2.625;"/><polygon fill="#456A7D" points="479.0625,870.1739,486.5625,853.2989,479.0625,860.7989,471.5625,853.2989,479.0625,870.1739" style="stroke:#456A7D;stroke-width:2.625;"/></g><!--SRC=[ZPRTRjCm5CVlynJMk9Y4DBIqwP9oWPIc2I31LEYuGbnuoMbhDR63xNIKgpq43y0jpx4tuKcmypKtoJ8ghPNF_tS-xSmvHsjvJ075BCiAYlxU_q89mLkEimm42bCu18nIYAKbzeJcM0de5iVxBMS5JGAMCevUHEN789AS8DkxD2nYXnDsH-WMRN0gm53AG37Z53Yo9uQG4Whoc0DYNEwO6Hqsk4XbnAYynXcWDQPY3PniXfar-GbeOaQ-8JA5KVUMg9oz8QbktdQd4sTf03xdxAuMdTcLx_P4mtioTxpPeWlSx4Yyfo04ibyvXdZD92m6fk-5NfTYF05U4-7C3vrPXp2Ac2qSpmuDVQLouErfaBc_S7rt0EhLuqH-TDK7pPb5AkLq6AdEuorB4tCgiIG78e_zP9UH5qs7IBFsIUGkJwTSKwFxM3DBWZD6aw6vJvVUY8DPmTARpoRHO4TF5XcaM8Z5imzRXOssMoBl02ka5ozqecdeT-6nmOHK3cv5jx2Q6wsiOiQohIKUEFJXCd8ZkuUDvYgHiLHV1CHO32JprPds1a0ptJHqdVbb7nhj3RuNG6FuG3RgZtOUk63X1FOO_UmED1uhp2M9IOwfVBwv8QVHHXi7TQGP__-YAdnynshqhGgOzoExqI9QFecFpfAo10JafpSEntHV6cS33-f7pBU4eY5fXPD4NstEoN-qTdgDR9j3Mx0VmswLRT8zju-m9VKDX89ZhBuJG0UYViuB2kh6F71C1AF8ihw-_8OkBjwe1yoN4gW4zBgyv37LBZWboSCVi1vLpQuu4H3IOATQrRoE1mL7E8uXbrtwcb5V2BAbe5bSnEhzeV58YCWP9RSfMAT1gv82Ld2Xd5GDgaM9agBnj1fHWxvwzzWGdgat0wDu3fcAQ1cYPc-0PwGgvTDd1JzssINVqvWagWk39BHamMgZQ52Dq3ARR6njWCPW2Rr3ngYnG6SXHRXQdjNwwIGqKreGK1INjhCsK3M3Eaoi5urcDAFbXtibruO6QPlGGBLGUzsePaSQK6lrgmq6rBQeYNRny1j9TS2aIlKF]--></g></svg>