<?xml version="1.0" encoding="us-ascii" standalone="no"?><svg xmlns="http://www.w3.org/2000/svg" xmlns:xlink="http://www.w3.org/1999/xlink" contentStyleType="text/css" height="1516.875px" preserveAspectRatio="none" style="width:2765px;height:1516px;background:#FFFFFF;" version="1.1" viewBox="0 0 2765 1516" width="2765.625px" zoomAndPan="magnify"><defs/><g><text fill="#17324D" font-family="sans-serif" font-size="52.5" font-weight="bold" lengthAdjust="spacing" textLength="519.375" x="1120.3125" y="95.7495">Publier une annonce</text><rect fill="none" height="59.3848" style="stroke:none;stroke-width:1.875;" width="2703.75" x="28.125" y="134.1614"/><ellipse cx="289.6875" cy="221.6711" fill="#222222" rx="18.75" ry="18.75" style="stroke:#222222;stroke-width:1.875;"/><rect fill="#F0F8F3" height="148.7695" rx="11.25" ry="11.25" style="stroke:#2F7D5B;stroke-width:0.9375;" width="500.625" x="39.375" y="277.9211"/><text fill="#17324D" font-family="sans-serif" font-size="41.25" lengthAdjust="spacing" textLength="316.875" x="61.875" y="343.2422">Remplir l'annonce</text><text fill="#17324D" font-family="sans-serif" font-size="41.25" lengthAdjust="spacing" textLength="455.625" x="61.875" y="395.127">et le bar&#232;me de r&#233;duction</text><rect fill="#F0F8F3" height="96.8848" rx="11.25" ry="11.25" style="stroke:#2F7D5B;stroke-width:0.9375;" width="489.375" x="455.8594" y="708.9038"/><text fill="#17324D" font-family="sans-serif" font-size="41.25" lengthAdjust="spacing" textLength="444.375" x="478.3594" y="774.2249">Corriger les informations</text><ellipse cx="289.6875" cy="1474.281" fill="none" rx="20.625" ry="20.625" style="stroke:#222222;stroke-width:1.875;"/><ellipse cx="289.6875" cy="1474.281" fill="#222222" rx="11.25" ry="11.25" style="stroke:#111111;stroke-width:1.875;"/><line style="stroke:#000000;stroke-width:2.8125;" x1="28.125" x2="28.125" y1="134.1614" y2="1494.906"/><rect fill="#F0F8F3" height="96.8848" rx="11.25" ry="11.25" style="stroke:#2F7D5B;stroke-width:0.9375;" width="508.125" x="1625.625" y="464.1907"/><text fill="#17324D" font-family="sans-serif" font-size="41.25" lengthAdjust="spacing" textLength="463.125" x="1648.125" y="529.5117">Contr&#244;ler les informations</text><polygon fill="#FFF3D8" points="1710,612.019,2049.375,612.019,2071.875,641.7114,2049.375,671.4038,1710,671.4038,1687.5,641.7114,1710,612.019" style="stroke:#D8952F;stroke-width:0.9375;"/><text fill="#17324D" font-family="sans-serif" font-size="41.25" lengthAdjust="spacing" textLength="331.875" x="1713.75" y="658.5901">Donn&#233;es valides ?</text><text fill="#29485B" font-family="sans-serif" font-size="41.25" lengthAdjust="spacing" textLength="54.375" x="1629.375" y="628.8977">oui</text><text fill="#29485B" font-family="sans-serif" font-size="41.25" lengthAdjust="spacing" textLength="65.625" x="2075.625" y="628.8977">non</text><rect fill="#F0F8F3" height="148.7695" rx="11.25" ry="11.25" style="stroke:#2F7D5B;stroke-width:0.9375;" width="420" x="1258.8281" y="708.9038"/><text fill="#17324D" font-family="sans-serif" font-size="41.25" lengthAdjust="spacing" textLength="375" x="1281.3281" y="774.2249">Enregistrer l'annonce</text><text fill="#17324D" font-family="sans-serif" font-size="41.25" lengthAdjust="spacing" textLength="243.75" x="1281.3281" y="826.1096">&#171; en attente &#187;</text><rect fill="#F0F8F3" height="148.7695" rx="11.25" ry="11.25" style="stroke:#2F7D5B;stroke-width:0.9375;" width="478.125" x="963.9844" y="1139.8865"/><text fill="#17324D" font-family="sans-serif" font-size="41.25" lengthAdjust="spacing" textLength="433.125" x="986.4844" y="1205.2075">Rendre l'annonce visible</text><text fill="#17324D" font-family="sans-serif" font-size="41.25" lengthAdjust="spacing" textLength="420" x="986.4844" y="1257.0923">et notifier le fournisseur</text><rect fill="#F0F8F3" height="148.7695" rx="11.25" ry="11.25" style="stroke:#2F7D5B;stroke-width:0.9375;" width="510" x="1479.6094" y="1139.8865"/><text fill="#17324D" font-family="sans-serif" font-size="41.25" lengthAdjust="spacing" textLength="318.75" x="1502.1094" y="1205.2075">Rejeter l'annonce,</text><text fill="#17324D" font-family="sans-serif" font-size="41.25" lengthAdjust="spacing" textLength="465" x="1502.1094" y="1257.0923">indiquer le motif et notifier</text><polygon fill="#FFF3D8" points="1879.6875,1371.156,1902.1875,1393.656,1879.6875,1416.156,1857.1875,1393.656,1879.6875,1371.156" style="stroke:#D8952F;stroke-width:0.9375;"/><line style="stroke:#000000;stroke-width:2.8125;" x1="952.7344" x2="952.7344" y1="134.1614" y2="1494.906"/><rect fill="#F0F8F3" height="96.8848" rx="11.25" ry="11.25" style="stroke:#2F7D5B;stroke-width:0.9375;" width="391.875" x="2235.9375" y="895.1733"/><text fill="#17324D" font-family="sans-serif" font-size="41.25" lengthAdjust="spacing" textLength="346.875" x="2258.4375" y="960.4944">Examiner l'annonce</text><polygon fill="#FFF3D8" points="2240.625,1043.0017,2623.125,1043.0017,2645.625,1072.6941,2623.125,1102.3865,2240.625,1102.3865,2218.125,1072.6941,2240.625,1043.0017" style="stroke:#D8952F;stroke-width:0.9375;"/><text fill="#17324D" font-family="sans-serif" font-size="41.25" lengthAdjust="spacing" textLength="375" x="2244.375" y="1089.5728">Annonce conforme ?</text><text fill="#29485B" font-family="sans-serif" font-size="41.25" lengthAdjust="spacing" textLength="54.375" x="2160" y="1059.8804">oui</text><text fill="#29485B" font-family="sans-serif" font-size="41.25" lengthAdjust="spacing" textLength="65.625" x="2649.375" y="1059.8804">non</text><polygon fill="#FFF3D8" points="2431.875,1307.406,2454.375,1329.906,2431.875,1352.406,2409.375,1329.906,2431.875,1307.406" style="stroke:#D8952F;stroke-width:0.9375;"/><line style="stroke:#000000;stroke-width:2.8125;" x1="2150.625" x2="2150.625" y1="134.1614" y2="1494.906"/><line style="stroke:#000000;stroke-width:2.8125;" x1="2724.375" x2="2724.375" y1="134.1614" y2="1494.906"/><line style="stroke:#456A7D;stroke-width:2.625;" x1="289.6875" x2="289.6875" y1="240.4211" y2="277.9211"/><polygon fill="#456A7D" points="282.1875,259.1711,289.6875,277.9211,297.1875,259.1711,289.6875,266.6711" style="stroke:#456A7D;stroke-width:1.875;"/><line style="stroke:#456A7D;stroke-width:2.625;" x1="1687.5" x2="1468.8281" y1="641.7114" y2="641.7114"/><line style="stroke:#456A7D;stroke-width:2.625;" x1="1468.8281" x2="1468.8281" y1="641.7114" y2="708.9038"/><polygon fill="#456A7D" points="1461.3281,690.1538,1468.8281,708.9038,1476.3281,690.1538,1468.8281,697.6538" style="stroke:#456A7D;stroke-width:1.875;"/><line style="stroke:#456A7D;stroke-width:2.625;" x1="1879.6875" x2="1879.6875" y1="561.0754" y2="612.019"/><polygon fill="#456A7D" points="1872.1875,593.269,1879.6875,612.019,1887.1875,593.269,1879.6875,600.769" style="stroke:#456A7D;stroke-width:1.875;"/><line style="stroke:#456A7D;stroke-width:2.625;" x1="2431.875" x2="2431.875" y1="992.0581" y2="1043.0017"/><polygon fill="#456A7D" points="2424.375,1024.2517,2431.875,1043.0017,2439.375,1024.2517,2431.875,1031.7517" style="stroke:#456A7D;stroke-width:1.875;"/><line style="stroke:#456A7D;stroke-width:2.625;" x1="289.6875" x2="289.6875" y1="426.6907" y2="436.0657"/><line style="stroke:#456A7D;stroke-width:2.625;" x1="289.6875" x2="1879.6875" y1="436.0657" y2="436.0657"/><line style="stroke:#456A7D;stroke-width:2.625;" x1="1879.6875" x2="1879.6875" y1="436.0657" y2="464.1907"/><polygon fill="#456A7D" points="1872.1875,445.4407,1879.6875,464.1907,1887.1875,445.4407,1879.6875,452.9407" style="stroke:#456A7D;stroke-width:1.875;"/><line style="stroke:#456A7D;stroke-width:2.625;" x1="1468.8281" x2="1468.8281" y1="857.6733" y2="867.0483"/><line style="stroke:#456A7D;stroke-width:2.625;" x1="1468.8281" x2="2431.875" y1="867.0483" y2="867.0483"/><line style="stroke:#456A7D;stroke-width:2.625;" x1="2431.875" x2="2431.875" y1="867.0483" y2="895.1733"/><polygon fill="#456A7D" points="2424.375,876.4233,2431.875,895.1733,2439.375,876.4233,2431.875,883.9233" style="stroke:#456A7D;stroke-width:1.875;"/><line style="stroke:#456A7D;stroke-width:2.625;" x1="2218.125" x2="1203.0469" y1="1072.6941" y2="1072.6941"/><line style="stroke:#456A7D;stroke-width:2.625;" x1="1203.0469" x2="1203.0469" y1="1072.6941" y2="1139.8865"/><polygon fill="#456A7D" points="1195.5469,1121.1365,1203.0469,1139.8865,1210.5469,1121.1365,1203.0469,1128.6365" style="stroke:#456A7D;stroke-width:1.875;"/><line style="stroke:#456A7D;stroke-width:2.625;" x1="2645.625" x2="2668.125" y1="1072.6941" y2="1072.6941"/><line style="stroke:#456A7D;stroke-width:2.625;" x1="2668.125" x2="2668.125" y1="1072.6941" y2="1117.2327"/><line style="stroke:#456A7D;stroke-width:2.625;" x1="2668.125" x2="1734.6094" y1="1117.2327" y2="1117.2327"/><line style="stroke:#456A7D;stroke-width:2.625;" x1="1734.6094" x2="1734.6094" y1="1117.2327" y2="1139.8865"/><polygon fill="#456A7D" points="1727.1094,1121.1365,1734.6094,1139.8865,1742.1094,1121.1365,1734.6094,1128.6365" style="stroke:#456A7D;stroke-width:1.875;"/><line style="stroke:#456A7D;stroke-width:2.625;" x1="1203.0469" x2="1203.0469" y1="1288.656" y2="1329.906"/><line style="stroke:#456A7D;stroke-width:2.625;" x1="1203.0469" x2="2409.375" y1="1329.906" y2="1329.906"/><polygon fill="#456A7D" points="2390.625,1322.406,2409.375,1329.906,2390.625,1337.406,2398.125,1329.906" style="stroke:#456A7D;stroke-width:1.875;"/><line style="stroke:#456A7D;stroke-width:2.625;" x1="1734.6094" x2="1734.6094" y1="1288.656" y2="1296.156"/><line style="stroke:#456A7D;stroke-width:2.625;" x1="1734.6094" x2="2488.125" y1="1296.156" y2="1296.156"/><line style="stroke:#456A7D;stroke-width:2.625;" x1="2488.125" x2="2488.125" y1="1296.156" y2="1329.906"/><line style="stroke:#456A7D;stroke-width:2.625;" x1="2488.125" x2="2454.375" y1="1329.906" y2="1329.906"/><polygon fill="#456A7D" points="2473.125,1322.406,2454.375,1329.906,2473.125,1337.406,2465.625,1329.906" style="stroke:#456A7D;stroke-width:1.875;"/><line style="stroke:#456A7D;stroke-width:2.625;" x1="2071.875" x2="2094.375" y1="641.7114" y2="641.7114"/><line style="stroke:#456A7D;stroke-width:2.625;" x1="2094.375" x2="2094.375" y1="641.7114" y2="686.25"/><line style="stroke:#456A7D;stroke-width:2.625;" x1="2094.375" x2="700.5469" y1="686.25" y2="686.25"/><line style="stroke:#456A7D;stroke-width:2.625;" x1="700.5469" x2="700.5469" y1="686.25" y2="708.9038"/><polygon fill="#456A7D" points="693.0469,690.1538,700.5469,708.9038,708.0469,690.1538,700.5469,697.6538" style="stroke:#456A7D;stroke-width:1.875;"/><line style="stroke:#456A7D;stroke-width:2.625;" x1="2431.875" x2="2431.875" y1="1352.406" y2="1359.906"/><line style="stroke:#456A7D;stroke-width:2.625;" x1="2431.875" x2="1823.4375" y1="1359.906" y2="1359.906"/><line style="stroke:#456A7D;stroke-width:2.625;" x1="1823.4375" x2="1823.4375" y1="1359.906" y2="1393.656"/><line style="stroke:#456A7D;stroke-width:2.625;" x1="1823.4375" x2="1857.1875" y1="1393.656" y2="1393.656"/><polygon fill="#456A7D" points="1838.4375,1386.156,1857.1875,1393.656,1838.4375,1401.156,1845.9375,1393.656" style="stroke:#456A7D;stroke-width:1.875;"/><line style="stroke:#456A7D;stroke-width:2.625;" x1="700.5469" x2="700.5469" y1="805.7886" y2="1359.906"/><line style="stroke:#456A7D;stroke-width:2.625;" x1="700.5469" x2="1935.9375" y1="1359.906" y2="1359.906"/><line style="stroke:#456A7D;stroke-width:2.625;" x1="1935.9375" x2="1935.9375" y1="1359.906" y2="1393.656"/><line style="stroke:#456A7D;stroke-width:2.625;" x1="1935.9375" x2="1902.1875" y1="1393.656" y2="1393.656"/><polygon fill="#456A7D" points="1920.9375,1386.156,1902.1875,1393.656,1920.9375,1401.156,1913.4375,1393.656" style="stroke:#456A7D;stroke-width:1.875;"/><line style="stroke:#456A7D;stroke-width:2.625;" x1="1879.6875" x2="1879.6875" y1="1416.156" y2="1425.531"/><line style="stroke:#456A7D;stroke-width:2.625;" x1="1879.6875" x2="289.6875" y1="1425.531" y2="1425.531"/><line style="stroke:#456A7D;stroke-width:2.625;" x1="289.6875" x2="289.6875" y1="1425.531" y2="1453.656"/><polygon fill="#456A7D" points="282.1875,1434.906,289.6875,1453.656,297.1875,1434.906,289.6875,1442.406" style="stroke:#456A7D;stroke-width:1.875;"/><text fill="#000000" font-family="sans-serif" font-size="41.25" lengthAdjust="spacing" textLength="210" x="385.4297" y="180.7324">Fournisseur</text><text fill="#000000" font-family="sans-serif" font-size="41.25" lengthAdjust="spacing" textLength="399.375" x="1351.9922" y="180.7324">Syst&#232;me ElevConnect</text><text fill="#000000" font-family="sans-serif" font-size="41.25" lengthAdjust="spacing" textLength="258.75" x="2308.125" y="180.7324">Administrateur</text><!--SRC=[ZPR1Rjf048RlVegHUaWYLLKCffZaK1cmsqCReP8-m6AFOOkzItVN9Aauz27w48rwxQsty2PzagwDaonuumG92UryC__ClsilHp1LDnb2pFEyOF3lnqz8A9aBakSe8SnmFUACOQmSkQHiHNG0PYHUpWKlM3BY6HVmAge-1f6iABZ-gR4Y5oJXLvJD8IMPH2DI5OgvO2Z0xHY1Z39KDoi4BjI2czKn9KMc8ixK1SaHfeJ9AGgQsfaf_OxGCIjVKfLXQ_e3iKlsRQ5wUBVVxNXZ0mY4u5TrqEkz3VgDe97T6NX-RtW8N2vel6Ge9RXlF2DumHKEBUxxeNz8SP6Wg8cm5uHUxu0mckWDFTyDZVX4Qv3vVf51CEm7VGlKwCUBWkXj4pGzYxHaruxipkECPudfIgpecggRfjXfv4TT6sdstedwutsNQwfr7sjcJ4dEMMBplJlsMnBC3iR-eDU9h1CzsUGe8r8EdttOTbZhk1No0Ob66lL2B-g6mI7SPap8b7Kh3XkhkTRETaoRsbGHow4Fnr4_SXjOgrQ5j4bzaHWJQH4Bz9dsBQ0frmtxtk2q2RNEXjyAP35-fAd-ieC7RZJqHcuR_UmEt6TCY50qfYl2rFF3sP9Q1xrFq4UQYvStjSFRTwn6t-k2gsRbVZICna_YhLuodg34rVwD8mXRLeizouFwYOWvPM0BJKYIb5URj_T6Ut3lFkoQfWtvjJrjjzOvFBUFiAFA6mWcnIoZ-iui609XZEkvmN4s4Iy4er9Y8JQELBeBv-mpvgkC2iYEQj111ULBbeZjBtq39WXYUviKUXpEpftDz4QgAc3S_nldJFzIOlidqwAP_dD0MSf5JieSUUxG58x76jtUwj2QP5Jx2-zEG2sGmJ4lw8a3S1OoWNCgbK2pcxlVe26Y53A5SFVtNAER8CafAr4zV3bBcNrDz9gPMfAbSb0R4FEgAMmewuBsgSgGDeWb0X_BmffAEiigdnXNDANLp90-cbige_ud0ySwuoKANr6PdRzsA4keFgzLuRmK0KEjAg-1rDaJsTzUNNV4XQ1pwuxiqgNYg_y0]--></g></svg>