<?xml version="1.0" encoding="us-ascii" standalone="no"?><svg xmlns="http://www.w3.org/2000/svg" xmlns:xlink="http://www.w3.org/1999/xlink" contentStyleType="text/css" height="1721.25px" preserveAspectRatio="none" style="width:3225px;height:1721px;background:#FFFFFF;" version="1.1" viewBox="0 0 3225 1721" width="3225px" zoomAndPan="magnify"><defs/><g><text fill="#17324D" font-family="sans-serif" font-size="52.5" font-weight="bold" lengthAdjust="spacing" textLength="883.125" x="1168.5938" y="95.7495">Prendre un rendez-vous v&#233;t&#233;rinaire</text><rect fill="none" height="59.3848" style="stroke:none;stroke-width:1.875;" width="3164.0625" x="28.125" y="134.1614"/><ellipse cx="639.375" cy="221.6711" fill="#222222" rx="18.75" ry="18.75" style="stroke:#222222;stroke-width:1.875;"/><rect fill="#F0F8F3" height="148.7695" rx="11.25" ry="11.25" style="stroke:#2F7D5B;stroke-width:0.9375;" width="478.125" x="400.3125" y="277.9211"/><text fill="#17324D" font-family="sans-serif" font-size="41.25" lengthAdjust="spacing" textLength="390" x="422.8125" y="343.2422">Choisir un v&#233;t&#233;rinaire,</text><text fill="#17324D" font-family="sans-serif" font-size="41.25" lengthAdjust="spacing" textLength="433.125" x="422.8125" y="395.127">un service et un cr&#233;neau</text><rect fill="#F0F8F3" height="148.7695" rx="11.25" ry="11.25" style="stroke:#2F7D5B;stroke-width:0.9375;" width="562.5" x="39.375" y="1140.1831"/><text fill="#17324D" font-family="sans-serif" font-size="41.25" lengthAdjust="spacing" textLength="517.5" x="61.875" y="1205.5042">Se pr&#233;senter au rendez-vous</text><text fill="#17324D" font-family="sans-serif" font-size="41.25" lengthAdjust="spacing" textLength="386.25" x="61.875" y="1257.3889">et r&#233;gler le v&#233;t&#233;rinaire</text><rect fill="#F0F8F3" height="96.8848" rx="11.25" ry="11.25" style="stroke:#2F7D5B;stroke-width:0.9375;" width="523.125" x="59.0625" y="1460.8374"/><text fill="#17324D" font-family="sans-serif" font-size="41.25" lengthAdjust="spacing" textLength="478.125" x="81.5625" y="1526.1584">Laisser une note et un avis</text><rect fill="#F0F8F3" height="96.8848" rx="11.25" ry="11.25" style="stroke:#2F7D5B;stroke-width:0.9375;" width="406.875" x="754.6875" y="843.2886"/><text fill="#17324D" font-family="sans-serif" font-size="41.25" lengthAdjust="spacing" textLength="361.875" x="777.1875" y="908.6096">Refuser la demande</text><line style="stroke:#000000;stroke-width:2.8125;" x1="28.125" x2="28.125" y1="134.1614" y2="1700.2222"/><rect fill="#F0F8F3" height="96.8848" rx="11.25" ry="11.25" style="stroke:#2F7D5B;stroke-width:0.9375;" width="481.875" x="1425" y="464.1907"/><text fill="#17324D" font-family="sans-serif" font-size="41.25" lengthAdjust="spacing" textLength="436.875" x="1447.5" y="529.5117">Transmettre la demande</text><rect fill="#F0F8F3" height="96.8848" rx="11.25" ry="11.25" style="stroke:#2F7D5B;stroke-width:0.9375;" width="333.75" x="1180.3125" y="977.6733"/><text fill="#17324D" font-family="sans-serif" font-size="41.25" lengthAdjust="spacing" textLength="288.75" x="1202.8125" y="1042.9944">Notifier l'&#233;leveur</text><rect fill="#F0F8F3" height="148.7695" rx="11.25" ry="11.25" style="stroke:#2F7D5B;stroke-width:0.9375;" width="637.5" x="1665.9375" y="977.6733"/><text fill="#17324D" font-family="sans-serif" font-size="41.25" lengthAdjust="spacing" textLength="333.75" x="1688.4375" y="1042.9944">Notifier l'&#233;leveur et</text><text fill="#17324D" font-family="sans-serif" font-size="41.25" lengthAdjust="spacing" textLength="592.5" x="1688.4375" y="1094.8792">l'inviter &#224; choisir un autre cr&#233;neau</text><ellipse cx="1665.9375" cy="1679.5972" fill="none" rx="20.625" ry="20.625" style="stroke:#222222;stroke-width:1.875;"/><ellipse cx="1665.9375" cy="1679.5972" fill="#222222" rx="11.25" ry="11.25" style="stroke:#111111;stroke-width:1.875;"/><line style="stroke:#000000;stroke-width:2.8125;" x1="1169.0625" x2="1169.0625" y1="134.1614" y2="1700.2222"/><rect fill="#F0F8F3" height="96.8848" rx="11.25" ry="11.25" style="stroke:#2F7D5B;stroke-width:0.9375;" width="453.75" x="2663.4375" y="598.5754"/><text fill="#17324D" font-family="sans-serif" font-size="41.25" lengthAdjust="spacing" textLength="408.75" x="2685.9375" y="663.8965">V&#233;rifier sa disponibilit&#233;</text><polygon fill="#FFF3D8" points="2697.1875,746.4038,3083.4375,746.4038,3105.9375,776.0962,3083.4375,805.7886,2697.1875,805.7886,2674.6875,776.0962,2697.1875,746.4038" style="stroke:#D8952F;stroke-width:0.9375;"/><text fill="#17324D" font-family="sans-serif" font-size="41.25" lengthAdjust="spacing" textLength="378.75" x="2700.9375" y="792.9749">Cr&#233;neau disponible ?</text><text fill="#29485B" font-family="sans-serif" font-size="41.25" lengthAdjust="spacing" textLength="54.375" x="2616.5625" y="763.2825">oui</text><text fill="#29485B" font-family="sans-serif" font-size="41.25" lengthAdjust="spacing" textLength="65.625" x="3109.6875" y="763.2825">non</text><rect fill="#F0F8F3" height="96.8848" rx="11.25" ry="11.25" style="stroke:#2F7D5B;stroke-width:0.9375;" width="498.75" x="2322.1875" y="843.2886"/><text fill="#17324D" font-family="sans-serif" font-size="41.25" lengthAdjust="spacing" textLength="453.75" x="2344.6875" y="908.6096">Confirmer le rendez-vous</text><rect fill="#F0F8F3" height="96.8848" rx="11.25" ry="11.25" style="stroke:#2F7D5B;stroke-width:0.9375;" width="461.25" x="2340.9375" y="1326.4526"/><text fill="#17324D" font-family="sans-serif" font-size="41.25" lengthAdjust="spacing" textLength="416.25" x="2363.4375" y="1391.7737">Cl&#244;turer le rendez-vous</text><polygon fill="#FFF3D8" points="2890.3125,1576.4722,2912.8125,1598.9722,2890.3125,1621.4722,2867.8125,1598.9722,2890.3125,1576.4722" style="stroke:#D8952F;stroke-width:0.9375;"/><line style="stroke:#000000;stroke-width:2.8125;" x1="2310.9375" x2="2310.9375" y1="134.1614" y2="1700.2222"/><line style="stroke:#000000;stroke-width:2.8125;" x1="3184.6875" x2="3184.6875" y1="134.1614" y2="1700.2222"/><line style="stroke:#456A7D;stroke-width:2.625;" x1="639.375" x2="639.375" y1="240.4211" y2="277.9211"/><polygon fill="#456A7D" points="631.875,259.1711,639.375,277.9211,646.875,259.1711,639.375,266.6711" style="stroke:#456A7D;stroke-width:1.875;"/><line style="stroke:#456A7D;stroke-width:2.625;" x1="2674.6875" x2="2571.5625" y1="776.0962" y2="776.0962"/><line style="stroke:#456A7D;stroke-width:2.625;" x1="2571.5625" x2="2571.5625" y1="776.0962" y2="843.2886"/><polygon fill="#456A7D" points="2564.0625,824.5386,2571.5625,843.2886,2579.0625,824.5386,2571.5625,832.0386" style="stroke:#456A7D;stroke-width:1.875;"/><line style="stroke:#456A7D;stroke-width:2.625;" x1="2890.3125" x2="2890.3125" y1="695.4602" y2="746.4038"/><polygon fill="#456A7D" points="2882.8125,727.6538,2890.3125,746.4038,2897.8125,727.6538,2890.3125,735.1538" style="stroke:#456A7D;stroke-width:1.875;"/><line style="stroke:#456A7D;stroke-width:2.625;" x1="639.375" x2="639.375" y1="426.6907" y2="436.0657"/><line style="stroke:#456A7D;stroke-width:2.625;" x1="639.375" x2="1665.9375" y1="436.0657" y2="436.0657"/><line style="stroke:#456A7D;stroke-width:2.625;" x1="1665.9375" x2="1665.9375" y1="436.0657" y2="464.1907"/><polygon fill="#456A7D" points="1658.4375,445.4407,1665.9375,464.1907,1673.4375,445.4407,1665.9375,452.9407" style="stroke:#456A7D;stroke-width:1.875;"/><line style="stroke:#456A7D;stroke-width:2.625;" x1="1665.9375" x2="1665.9375" y1="561.0754" y2="570.4504"/><line style="stroke:#456A7D;stroke-width:2.625;" x1="1665.9375" x2="2890.3125" y1="570.4504" y2="570.4504"/><line style="stroke:#456A7D;stroke-width:2.625;" x1="2890.3125" x2="2890.3125" y1="570.4504" y2="598.5754"/><polygon fill="#456A7D" points="2882.8125,579.8254,2890.3125,598.5754,2897.8125,579.8254,2890.3125,587.3254" style="stroke:#456A7D;stroke-width:1.875;"/><line style="stroke:#456A7D;stroke-width:2.625;" x1="2571.5625" x2="2571.5625" y1="940.1733" y2="949.5483"/><line style="stroke:#456A7D;stroke-width:2.625;" x1="2571.5625" x2="1347.1875" y1="949.5483" y2="949.5483"/><line style="stroke:#456A7D;stroke-width:2.625;" x1="1347.1875" x2="1347.1875" y1="949.5483" y2="977.6733"/><polygon fill="#456A7D" points="1339.6875,958.9233,1347.1875,977.6733,1354.6875,958.9233,1347.1875,966.4233" style="stroke:#456A7D;stroke-width:1.875;"/><line style="stroke:#456A7D;stroke-width:2.625;" x1="1347.1875" x2="1347.1875" y1="1074.5581" y2="1107.3706"/><line style="stroke:#456A7D;stroke-width:2.625;" x1="1347.1875" x2="320.625" y1="1107.3706" y2="1107.3706"/><line style="stroke:#456A7D;stroke-width:2.625;" x1="320.625" x2="320.625" y1="1107.3706" y2="1140.1831"/><polygon fill="#456A7D" points="313.125,1121.4331,320.625,1140.1831,328.125,1121.4331,320.625,1128.9331" style="stroke:#456A7D;stroke-width:1.875;"/><line style="stroke:#456A7D;stroke-width:2.625;" x1="320.625" x2="320.625" y1="1288.9526" y2="1298.3276"/><line style="stroke:#456A7D;stroke-width:2.625;" x1="320.625" x2="2571.5625" y1="1298.3276" y2="1298.3276"/><line style="stroke:#456A7D;stroke-width:2.625;" x1="2571.5625" x2="2571.5625" y1="1298.3276" y2="1326.4526"/><polygon fill="#456A7D" points="2564.0625,1307.7026,2571.5625,1326.4526,2579.0625,1307.7026,2571.5625,1315.2026" style="stroke:#456A7D;stroke-width:1.875;"/><line style="stroke:#456A7D;stroke-width:2.625;" x1="2571.5625" x2="2571.5625" y1="1423.3374" y2="1432.7124"/><line style="stroke:#456A7D;stroke-width:2.625;" x1="2571.5625" x2="320.625" y1="1432.7124" y2="1432.7124"/><line style="stroke:#456A7D;stroke-width:2.625;" x1="320.625" x2="320.625" y1="1432.7124" y2="1460.8374"/><polygon fill="#456A7D" points="313.125,1442.0874,320.625,1460.8374,328.125,1442.0874,320.625,1449.5874" style="stroke:#456A7D;stroke-width:1.875;"/><line style="stroke:#456A7D;stroke-width:2.625;" x1="958.125" x2="958.125" y1="940.1733" y2="949.5483"/><line style="stroke:#456A7D;stroke-width:2.625;" x1="958.125" x2="1984.6875" y1="949.5483" y2="949.5483"/><line style="stroke:#456A7D;stroke-width:2.625;" x1="1984.6875" x2="1984.6875" y1="949.5483" y2="977.6733"/><polygon fill="#456A7D" points="1977.1875,958.9233,1984.6875,977.6733,1992.1875,958.9233,1984.6875,966.4233" style="stroke:#456A7D;stroke-width:1.875;"/><line style="stroke:#456A7D;stroke-width:2.625;" x1="3105.9375" x2="3128.4375" y1="776.0962" y2="776.0962"/><line style="stroke:#456A7D;stroke-width:2.625;" x1="3128.4375" x2="3128.4375" y1="776.0962" y2="820.6348"/><line style="stroke:#456A7D;stroke-width:2.625;" x1="3128.4375" x2="958.125" y1="820.6348" y2="820.6348"/><line style="stroke:#456A7D;stroke-width:2.625;" x1="958.125" x2="958.125" y1="820.6348" y2="843.2886"/><polygon fill="#456A7D" points="950.625,824.5386,958.125,843.2886,965.625,824.5386,958.125,832.0386" style="stroke:#456A7D;stroke-width:1.875;"/><line style="stroke:#456A7D;stroke-width:2.625;" x1="320.625" x2="320.625" y1="1557.7222" y2="1598.9722"/><line style="stroke:#456A7D;stroke-width:2.625;" x1="320.625" x2="2867.8125" y1="1598.9722" y2="1598.9722"/><polygon fill="#456A7D" points="2849.0625,1591.4722,2867.8125,1598.9722,2849.0625,1606.4722,2856.5625,1598.9722" style="stroke:#456A7D;stroke-width:1.875;"/><line style="stroke:#456A7D;stroke-width:2.625;" x1="1984.6875" x2="1984.6875" y1="1126.4429" y2="1565.2222"/><line style="stroke:#456A7D;stroke-width:2.625;" x1="1984.6875" x2="2946.5625" y1="1565.2222" y2="1565.2222"/><line style="stroke:#456A7D;stroke-width:2.625;" x1="2946.5625" x2="2946.5625" y1="1565.2222" y2="1598.9722"/><line style="stroke:#456A7D;stroke-width:2.625;" x1="2946.5625" x2="2912.8125" y1="1598.9722" y2="1598.9722"/><polygon fill="#456A7D" points="2931.5625,1591.4722,2912.8125,1598.9722,2931.5625,1606.4722,2924.0625,1598.9722" style="stroke:#456A7D;stroke-width:1.875;"/><line style="stroke:#456A7D;stroke-width:2.625;" x1="2890.3125" x2="2890.3125" y1="1621.4722" y2="1630.8472"/><line style="stroke:#456A7D;stroke-width:2.625;" x1="2890.3125" x2="1665.9375" y1="1630.8472" y2="1630.8472"/><line style="stroke:#456A7D;stroke-width:2.625;" x1="1665.9375" x2="1665.9375" y1="1630.8472" y2="1658.9722"/><polygon fill="#456A7D" points="1658.4375,1640.2222,1665.9375,1658.9722,1673.4375,1640.2222,1665.9375,1647.7222" style="stroke:#456A7D;stroke-width:1.875;"/><text fill="#000000" font-family="sans-serif" font-size="41.25" lengthAdjust="spacing" textLength="135" x="531.0938" y="180.7324">&#201;leveur</text><text fill="#000000" font-family="sans-serif" font-size="41.25" lengthAdjust="spacing" textLength="399.375" x="1540.3125" y="180.7324">Syst&#232;me ElevConnect</text><text fill="#000000" font-family="sans-serif" font-size="41.25" lengthAdjust="spacing" textLength="195" x="2650.3125" y="180.7324">V&#233;t&#233;rinaire</text><!--SRC=[bPRDRjf04CVlVegLUaWYjLK04qnogFYmsqCQePBclh47M67lkhjhKY8ElVRU1-YntFi6l4cVf6CCOR4tJeiKYUpyvkk_OyOdPAoNCP1G94d6oPzlFqZ4w5JI9055_1WM0y4vXDfHSyPJYWPoJyFvL8gCHmCH2qbU1TkFGKGf8mtlt3XHCng91yQdP49Z1OPb6oWKaeCaZQPXY1a7lKo12AbdmemE4vh5EX1Stz04o9XoDGR99dPcp1w1DCt8jqp7KEl-H1JEdisqQxxHQJNTeG7qf1GFEwFRlkXrAaR3kzbrlNQ_3DpEM3Zde1Hfl7KDuutGqBUex_bUcH8o0haZ_7RFTzibmYYYtNUzXc_OHvY3Je-3T7lzJgzZWIhrk44lkAY2fcO1fcpPaM8UxqKScQg4cYsONbQJdGTUqBAHPktDe3CyLdb7rTxZZXaocWWUsNHl3RqQ1xE2eTTjDmDhHyyMEOYfKlqN7xO2gsrtYtm0YaWbdky6BRzNXkk4yRcsNaMvi1rNMrd1r6KRQsePUdyOT8961QlDjKNgKdrM459bITR3cVOie9ckvNVSxdaLgkqDlcJ0GxXc4_pZfGTkq7S7ZJhwnHlOUuoer2naAUNwvUPiJhMDxXrmf8Nyzw8AlFx6TkXx39XM8tU2VZ1y5g_Laei85AJ76qTIFjyUjYqFwaSgfumJcsb4eoXVRUxHBzgJUdjpmnIjBxxQtOgpPdbk3x2Zymr4HX9u987Wriw_mUERXSWKMMpMUhEMZ5E6HiTPRRxZ4eTChXobiIRdSZ0JJ36PEnx1hnqyKI0NB0G2EhU7ShFcGBChPpLUAhtvXUlIU2TOEPUtg9bAG6jC5bDSkmd5Mf2_CqCZU9V_Cs6uv1LYJAM2itiMCuIk73OXfuDThYSZzlZkZEWPS78gCdRc47A9YITC9XW5hKRRLsXyfaJqmdLNf8vFDkj2ZQt3GHg4na1IB441rqXY7KPu1-L0spGk4X_9jerKwZQlDDxyrfcqLtgK-9eoXRAZte1ZgVVQqmL36F1bYPnomRVjVu99bgEcql_PE4PtuXF6SMxnVFEJX8Tne5b-ZOTBnwhpjo8jqhy0]--></g></svg>