<?xml version="1.0" encoding="us-ascii" standalone="no"?><svg xmlns="http://www.w3.org/2000/svg" xmlns:xlink="http://www.w3.org/1999/xlink" contentStyleType="text/css" height="804.375px" preserveAspectRatio="none" style="width:1708px;height:804px;background:#FFFFFF;" version="1.1" viewBox="0 0 1708 804" width="1708.125px" zoomAndPan="magnify"><defs/><g><text fill="#17324D" font-family="sans-serif" font-size="52.5" font-weight="bold" lengthAdjust="spacing" textLength="948.75" x="367.0313" y="76.9995">Architecture simplifi&#233;e d'ElevConnect</text><!--entity CLIENT--><g id="elem_CLIENT"><rect fill="#EAF4F8" height="200.6543" rx="11.25" ry="11.25" style="stroke:#181818;stroke-width:0.9375;" width="556.875" x="240.9375" y="126.0352"/><text fill="#000000" font-family="sans-serif" font-size="41.25" font-weight="bold" lengthAdjust="spacing" textLength="241.875" x="263.4375" y="191.3562">Pr&#233;sentation</text><text fill="#000000" font-family="sans-serif" font-size="41.25" lengthAdjust="spacing" textLength="279.375" x="263.4375" y="243.241">Navigateur web</text><text fill="#000000" font-family="sans-serif" font-size="41.25" lengthAdjust="spacing" textLength="511.875" x="263.4375" y="295.1257">Blade &#183; Tailwind &#183; JavaScript</text></g><!--entity APP--><g id="elem_APP"><rect fill="#EAF4EA" height="200.6543" rx="11.25" ry="11.25" style="stroke:#181818;stroke-width:0.9375;" width="798.75" x="120" y="360.4102"/><text fill="#000000" font-family="sans-serif" font-size="41.25" font-weight="bold" lengthAdjust="spacing" textLength="468.75" x="142.5" y="425.7312">Application ElevConnect</text><text fill="#000000" font-family="sans-serif" font-size="41.25" lengthAdjust="spacing" textLength="753.75" x="142.5" y="477.616">Laravel : routes, contr&#244;leurs, r&#232;gles m&#233;tier</text><text fill="#000000" font-family="sans-serif" font-size="41.25" lengthAdjust="spacing" textLength="646.875" x="142.5" y="529.5007">Notifications &#183; QR code &#183; paiements</text></g><!--entity DB--><g id="elem_DB"><path d="M188.4375,614.4727 C188.4375,595.7227 296.25,595.7227 296.25,595.7227 C296.25,595.7227 404.0625,595.7227 404.0625,614.4727 L404.0625,742.6172 C404.0625,761.3672 296.25,761.3672 296.25,761.3672 C296.25,761.3672 188.4375,761.3672 188.4375,742.6172 L188.4375,614.4727 " fill="#FFF8E8" style="stroke:#181818;stroke-width:0.9375;"/><path d="M188.4375,614.4727 C188.4375,633.2227 296.25,633.2227 296.25,633.2227 C296.25,633.2227 404.0625,633.2227 404.0625,614.4727 " fill="none" style="stroke:#181818;stroke-width:0.9375;"/><text fill="#000000" font-family="sans-serif" font-size="41.25" font-weight="bold" lengthAdjust="spacing" textLength="170.625" x="210.9375" y="687.2937">Donn&#233;es</text><text fill="#000000" font-family="sans-serif" font-size="41.25" lengthAdjust="spacing" textLength="138.75" x="210.9375" y="739.1785">MySQL</text></g><!--entity PAYMENT--><g id="elem_PAYMENT"><path d="M454.9448,614.1869 C463.4066,595.9307 480.5235,595.97 491.4558,611.5186 C506.2132,591.0171 520.3968,592.4467 531.5627,614.874 C543.8031,591.81 565.3968,587.6672 579.3552,613.1839 C591.2219,597.806 604.9341,593.3311 616.3411,613.6601 C629.3424,591.089 643.5318,586.3179 661.9965,608.027 C677.2036,587.607 689.449,591.9978 701.9596,610.7762 C714.8801,587.1421 737.216,588.6468 748.137,612.7118 C760.5602,592.3625 773.982,588.3537 791.1341,607.5731 C807.0608,588.9713 820.7087,592.0746 833.49,611.1127 C845.6033,591.1343 863.3682,589.7909 876.6294,609.8767 C888.8975,592.6873 904.9542,589.4134 916.7413,610.3824 C928.9095,591.4137 948.0534,593.3225 958.0277,612.7419 C972.2801,594.8412 986.9742,593.6931 999.4779,614.6092 C1011.3857,593.9961 1034.1747,593.8001 1045.2048,615.5566 C1077.3936,626.066 1089.7518,652.2798 1065.4003,680.3991 C1091.5647,707.4153 1083.4443,742.5035 1044.4266,749.8293 C1033.197,768.9543 1018.8136,776.2823 1002.0968,755.6752 C987.827,775.9611 973.2036,779.4527 956.0349,758.9488 C946.393,775.3548 929.2651,776.2957 918.255,760.557 C909.9555,784.3751 889.688,782.7382 876.5829,765.4259 C863.8902,790.2098 841.1794,788.5215 827.8887,766.042 C816.7242,785.1802 799.8929,786.329 785.4984,769.8907 C773.1448,788.0466 756.7447,791.5667 742.9265,771.5229 C728.6121,788.9526 713.5817,788.4764 700.9266,769.6032 C686.8159,787.7943 670.3789,787.7239 660.2719,765.5688 C646.872,784.5169 628.1098,786.056 618.0058,762.3062 C606.9592,778.737 590.9011,782.5532 580.1527,762.0009 C564.1803,784.1101 548.5323,780.324 535.8929,758.633 C520.0639,779.7595 501.4303,778.8188 489.4349,754.6969 C477.79,772.4654 460.4721,766.926 452.5569,750.6561 C418.7665,739.0258 413.5548,706.0669 441.9775,684.4893 C410.4571,659.4792 421.5233,627.2184 454.9448,614.1869 " fill="#F5EEF9" style="stroke:#181818;stroke-width:0.9375;"/><text fill="#000000" font-family="sans-serif" font-size="41.25" font-weight="bold" lengthAdjust="spacing" textLength="343.125" x="464.0625" y="669.4812">Services externes</text><text fill="#000000" font-family="sans-serif" font-size="41.25" lengthAdjust="spacing" textLength="556.875" x="464.0625" y="721.366">Mobile Money &#183; Carte bancaire</text></g><g id="elem_GMN9"><path d="M947.8125,407.2852 L947.8125,454.1602 L918.8625,461.6602 L947.8125,469.1602 L947.8125,514.8047 A11.25,11.25 0 0 0 959.0625,526.0547 L1684.6875,526.0547 A11.25,11.25 0 0 0 1695.9375,514.8047 L1695.9375,414.7852 L1677.1875,396.0352 L959.0625,396.0352 A11.25,11.25 0 0 0 947.8125,407.2852 " fill="#FFF8E8" style="stroke:#E5AE45;stroke-width:0.9375;"/><path d="M1677.1875,396.0352 L1677.1875,409.1602 A5.625,5.625 0 0 0 1682.8125,414.7852 L1695.9375,414.7852 L1677.1875,396.0352 " fill="#FFF8E8" style="stroke:#E5AE45;stroke-width:0.9375;"/><text fill="#5B481E" font-family="sans-serif" font-size="41.25" lengthAdjust="spacing" textLength="660" x="962.8125" y="451.9812">L'application orchestre les annonces,</text><text fill="#5B481E" font-family="sans-serif" font-size="41.25" lengthAdjust="spacing" textLength="701.25" x="962.8125" y="503.866">commandes, livraisons et rendez-vous.</text></g><!--link CLIENT to APP--><g id="link_CLIENT_APP"><path d="M519.375,327.1102 C519.375,327.1102 519.375,350.6789 519.375,350.6789 " fill="none" id="CLIENT-to-APP" style="stroke:#456A7D;stroke-width:2.625;"/><polygon fill="#456A7D" points="519.375,360.0539,526.875,343.1789,519.375,350.6789,511.875,343.1789,519.375,360.0539" style="stroke:#456A7D;stroke-width:2.625;"/><text fill="#29485B" font-family="sans-serif" font-size="41.25" lengthAdjust="spacing" textLength="138.75" x="375" y="387.3312">HTTPS</text></g><!--link APP to DB--><g id="link_APP_DB"><path d="M296.25,561.2039 C296.25,561.2039 296.25,585.7477 296.25,585.7477 " fill="none" id="APP-to-DB" style="stroke:#456A7D;stroke-width:2.625;"/><polygon fill="#456A7D" points="296.25,595.1227,303.75,578.2477,296.25,585.7477,288.75,578.2477,296.25,595.1227" style="stroke:#456A7D;stroke-width:2.625;"/><text fill="#29485B" font-family="sans-serif" font-size="41.25" lengthAdjust="spacing" textLength="273.75" x="16.875" y="621.9125">Eloquent / SQL</text></g><!--link APP to PAYMENT--><g id="link_APP_PAYMENT"><path d="M675.4688,561.2039 C675.4688,561.2039 675.4688,585.0914 675.4688,585.0914 " fill="none" id="APP-to-PAYMENT" style="stroke:#456A7D;stroke-width:2.625;"/><polygon fill="#456A7D" points="675.4688,594.4664,682.9688,577.5914,675.4688,585.0914,667.9688,577.5914,675.4688,594.4664" style="stroke:#456A7D;stroke-width:2.625;"/><text fill="#29485B" font-family="sans-serif" font-size="41.25" lengthAdjust="spacing" textLength="268.125" x="401.7188" y="621.5937">encaissements</text><text fill="#29485B" font-family="sans-serif" font-size="41.25" lengthAdjust="spacing" textLength="253.125" x="409.2188" y="673.4785">et versements</text></g><!--SRC=[ZLR1RkCs4BthAuZj8K2msKQsl9PpA21PKhU54tXhzr0W5reQsqGaKYLfPRsdVaG_ehaliFVwJ_eb7KgAozXQfG42o9mtysOUXnnUa8NUvq1IKHGxJlxvuq-ICRgHj2X0aJY7QYeuXrGxwe7nagA1h6Zwi95YnxEfo8KatoNrduN8IaPS_zfQKLkQYKV6DsHDSmMMfGwK2ib14dTW6NB6GUzB84BghR2ZmvhkSfq8hkze0MH1kLg0PEjkp89z1ZAm8o-Ppg7N_OXedFqkKrkyEnuElCW215AAnzReZTu7upEZvJsOUFueF0KijonzuA0KSTzvbl5EQ0WxrFTZ_nGbP0QoHSIZ8FP69mWhYL7e-MvisUV8GJSlWqo2S1oCEq1d-NX9aBm_1zgQ9KWvx8Oq_RWIUMQhacfMCRq_9xjE_6JOXRHp7oJZwANABQft7rjCn6WXUDQb-p3oUnpi329_CXeadHLzCybfJfKANpri3Qott1ho0IX2pkB5NZACWrDmdp0nrvrRSPfOY-lDhC7qiIqqxMZwE4h6YNi6w-Mg8NrKlof8gUeW2x2d_GwWJJUCnzxa-XpKMnlylWEUmeojyP-V7BXfw4tTFlIhE_3iCQTIivILbElNY-jowYtqsG5RMiZ_drG3xz-n5leZ1YpF8u-JC8c-2U_LaeiC59J4jQz5IVb3lTXrgc-ft31EHXscESqoCzgy5pVQKRrdiskB5efFtMxDsk2qR_y3ErgKH0ky8hKMEEcOnF7C17UqcKmuGD8jqxYqaq0KAygShTdX2KXsOOzpntXHla6FDvUNStbuKi2H20DTNjxpErgn3TBk97c4rJqFSxmyoDzVoPAo7ETuPhv_fXLTf9AL-WsXYandFyLtosD7lI08IimZhSFRhmf3DSCYAyZ9ZNaAQ51lyJ72jJnyoP4TVyd3NnX4aUBmf1b8p4reBAa9famU7tz1boQzaZ8ei11LPnJCvqqwUC5bLDCLdaUJJOJiA8aozBVxnSTPZOx2up1DSx7B318V1XLBaHq-QS0tIkCYLWpBkXKSzePqYdkD8ulobE9crB7cmM-tjHZ9A8wJYUEqubnT_L1dTKC-B9VpXME-pHfotw0mmZIm9jyJpEbeUuvrGy0mADLKU8_F8rA1R7yw3iUfJYJRR3KHQyFY43Axe9Ro0di3bCR6C89IpWMU5lKMSURzHtbcrCzP9P75Q8i44d3ryrKbTkgTWz_4iFmB]--></g></svg>