<?xml version="1.0" encoding="us-ascii" standalone="no"?><svg xmlns="http://www.w3.org/2000/svg" xmlns:xlink="http://www.w3.org/1999/xlink" contentStyleType="text/css" height="1185px" preserveAspectRatio="none" style="width:931px;height:1185px;background:#FFFFFF;" version="1.1" viewBox="0 0 931 1185" width="931.875px" zoomAndPan="magnify"><defs/><g><text fill="#17324D" font-family="sans-serif" font-size="52.5" font-weight="bold" lengthAdjust="spacing" textLength="759.375" x="73.8281" y="76.9995">Cycle de vie d'une commande</text><ellipse cx="581.25" cy="158.5739" fill="#181818" rx="18.75" ry="18.75" style="stroke:none;stroke-width:1.875;"/><g id="EnAttente"><rect fill="#EDF7F1" height="104.3848" rx="11.25" ry="11.25" style="stroke:#2F7D5B;stroke-width:0.9375;" width="226.875" x="467.8125" y="205.4489"/><line style="stroke:#2F7D5B;stroke-width:0.9375;" x1="467.8125" x2="694.6875" y1="283.5836" y2="283.5836"/><text fill="#17324D" font-family="sans-serif" font-size="41.25" lengthAdjust="spacing" textLength="181.875" x="490.3125" y="261.3949">En attente</text></g><g id="Payee"><rect fill="#EDF7F1" height="104.3848" rx="11.25" ry="11.25" style="stroke:#2F7D5B;stroke-width:0.9375;" width="161.25" x="442.5" y="338.5739"/><line style="stroke:#2F7D5B;stroke-width:0.9375;" x1="442.5" x2="603.75" y1="416.7086" y2="416.7086"/><text fill="#17324D" font-family="sans-serif" font-size="41.25" lengthAdjust="spacing" textLength="116.25" x="465" y="394.5199">Pay&#233;e</text></g><g id="Annulee"><rect fill="#EDF7F1" height="104.3848" rx="11.25" ry="11.25" style="stroke:#2F7D5B;stroke-width:0.9375;" width="187.5" x="616.875" y="471.6989"/><line style="stroke:#2F7D5B;stroke-width:0.9375;" x1="616.875" x2="804.375" y1="549.8336" y2="549.8336"/><text fill="#17324D" font-family="sans-serif" font-size="41.25" lengthAdjust="spacing" textLength="142.5" x="639.375" y="527.6449">Annul&#233;e</text></g><g id="Traitement"><rect fill="#EDF7F1" height="104.3848" rx="11.25" ry="11.25" style="stroke:#2F7D5B;stroke-width:0.9375;" width="283.125" x="310.3125" y="471.6989"/><line style="stroke:#2F7D5B;stroke-width:0.9375;" x1="310.3125" x2="593.4375" y1="549.8336" y2="549.8336"/><text fill="#17324D" font-family="sans-serif" font-size="41.25" lengthAdjust="spacing" textLength="238.125" x="332.8125" y="527.6449">En traitement</text></g><g id="Validee"><rect fill="#EDF7F1" height="104.3848" rx="11.25" ry="11.25" style="stroke:#2F7D5B;stroke-width:0.9375;" width="180" x="350.625" y="604.8239"/><line style="stroke:#2F7D5B;stroke-width:0.9375;" x1="350.625" x2="530.625" y1="682.9586" y2="682.9586"/><text fill="#17324D" font-family="sans-serif" font-size="41.25" lengthAdjust="spacing" textLength="135" x="373.125" y="660.7699">Valid&#233;e</text></g><g id="Refusee"><rect fill="#EDF7F1" height="104.3848" rx="11.25" ry="11.25" style="stroke:#2F7D5B;stroke-width:0.9375;" width="196.875" x="477.1875" y="737.9489"/><line style="stroke:#2F7D5B;stroke-width:0.9375;" x1="477.1875" x2="674.0625" y1="816.0836" y2="816.0836"/><text fill="#17324D" font-family="sans-serif" font-size="41.25" lengthAdjust="spacing" textLength="151.875" x="499.6875" y="793.8949">Refus&#233;e</text></g><g id="EnLivraison"><rect fill="#EDF7F1" height="104.3848" rx="11.25" ry="11.25" style="stroke:#2F7D5B;stroke-width:0.9375;" width="253.125" x="150.9375" y="737.9489"/><line style="stroke:#2F7D5B;stroke-width:0.9375;" x1="150.9375" x2="404.0625" y1="816.0836" y2="816.0836"/><text fill="#17324D" font-family="sans-serif" font-size="41.25" lengthAdjust="spacing" textLength="208.125" x="173.4375" y="793.8949">En livraison</text></g><g id="Confirmee"><rect fill="#EDF7F1" height="104.3848" rx="11.25" ry="11.25" style="stroke:#2F7D5B;stroke-width:0.9375;" width="234.375" x="314.0625" y="1004.1989"/><line style="stroke:#2F7D5B;stroke-width:0.9375;" x1="314.0625" x2="548.4375" y1="1082.3336" y2="1082.3336"/><text fill="#17324D" font-family="sans-serif" font-size="41.25" lengthAdjust="spacing" textLength="189.375" x="336.5625" y="1060.1449">Confirm&#233;e</text></g><g id="Livree"><rect fill="#EDF7F1" height="104.3848" rx="11.25" ry="11.25" style="stroke:#2F7D5B;stroke-width:0.9375;" width="155.625" x="224.0625" y="871.0739"/><line style="stroke:#2F7D5B;stroke-width:0.9375;" x1="224.0625" x2="379.6875" y1="949.2086" y2="949.2086"/><text fill="#17324D" font-family="sans-serif" font-size="41.25" lengthAdjust="spacing" textLength="110.625" x="246.5625" y="927.0199">Livr&#233;e</text></g><ellipse cx="585" cy="1156.0739" fill="none" rx="18.75" ry="18.75" style="stroke:#181818;stroke-width:1.875;"/><ellipse cx="585.9375" cy="1157.0114" fill="#181818" rx="11.25" ry="11.25" style="stroke:none;stroke-width:1.875;"/><!--link *start* to EnAttente--><g id="link_*start*_EnAttente"><path d="M581.25,177.7364 C581.25,177.7364 581.25,195.5676 581.25,195.5676 " fill="none" id="*start*-to-EnAttente" style="stroke:#456A7D;stroke-width:2.625;"/><polygon fill="#456A7D" points="581.25,204.9426,588.75,188.0676,581.25,195.5676,573.75,188.0676,581.25,204.9426" style="stroke:#456A7D;stroke-width:2.625;"/><text fill="#29485B" font-family="sans-serif" font-size="41.25" lengthAdjust="spacing" textLength="144.375" x="431.25" y="173.2324">cr&#233;ation</text></g><!--link EnAttente to Payee--><g id="link_EnAttente_Payee"><path d="M535.7813,310.5614 C535.7813,310.5614 535.7813,328.5989 535.7813,328.5989 " fill="none" id="EnAttente-to-Payee" style="stroke:#456A7D;stroke-width:2.625;"/><polygon fill="#456A7D" points="535.7813,337.9739,543.2813,321.0989,535.7813,328.5989,528.2813,321.0989,535.7813,337.9739" style="stroke:#456A7D;stroke-width:2.625;"/><text fill="#29485B" font-family="sans-serif" font-size="41.25" lengthAdjust="spacing" textLength="318.75" x="541.4063" y="368.0262">paiement accept&#233;</text></g><!--link EnAttente to Annulee--><g id="link_EnAttente_Annulee"><path d="M655.7813,310.5426 C655.7813,310.5426 655.7813,461.4239 655.7813,461.4239 " fill="none" id="EnAttente-to-Annulee" style="stroke:#456A7D;stroke-width:2.625;"/><polygon fill="#456A7D" points="655.7813,470.7989,663.2813,453.9239,655.7813,461.4239,648.2813,453.9239,655.7813,470.7989" style="stroke:#456A7D;stroke-width:2.625;"/><text fill="#29485B" font-family="sans-serif" font-size="41.25" lengthAdjust="spacing" textLength="180" x="661.4063" y="434.4387">annulation</text></g><!--link Payee to Traitement--><g id="link_Payee_Traitement"><path d="M517.9688,443.6864 C517.9688,443.6864 517.9688,461.7239 517.9688,461.7239 " fill="none" id="Payee-to-Traitement" style="stroke:#456A7D;stroke-width:2.625;"/><polygon fill="#456A7D" points="517.9688,471.0989,525.4688,454.2239,517.9688,461.7239,510.4688,454.2239,517.9688,471.0989" style="stroke:#456A7D;stroke-width:2.625;"/><text fill="#29485B" font-family="sans-serif" font-size="41.25" lengthAdjust="spacing" textLength="406.875" x="105.4688" y="439.2762">notification fournisseur</text></g><!--link Traitement to Validee--><g id="link_Traitement_Validee"><path d="M440.625,576.8114 C440.625,576.8114 440.625,594.8489 440.625,594.8489 " fill="none" id="Traitement-to-Validee" style="stroke:#456A7D;stroke-width:2.625;"/><polygon fill="#456A7D" points="440.625,604.2239,448.125,587.3489,440.625,594.8489,433.125,587.3489,440.625,604.2239" style="stroke:#456A7D;stroke-width:2.625;"/><text fill="#29485B" font-family="sans-serif" font-size="41.25" lengthAdjust="spacing" textLength="376.875" x="58.125" y="634.2762">commande accept&#233;e</text></g><!--link Traitement to Refusee--><g id="link_Traitement_Refusee"><path d="M562.0313,576.7926 C562.0313,576.7926 562.0313,727.6739 562.0313,727.6739 " fill="none" id="Traitement-to-Refusee" style="stroke:#456A7D;stroke-width:2.625;"/><polygon fill="#456A7D" points="562.0313,737.0489,569.5313,720.1739,562.0313,727.6739,554.5313,720.1739,562.0313,737.0489" style="stroke:#456A7D;stroke-width:2.625;"/><text fill="#29485B" font-family="sans-serif" font-size="41.25" lengthAdjust="spacing" textLength="346.875" x="567.6563" y="638.8137">commande refus&#233;e</text></g><!--link Validee to EnLivraison--><g id="link_Validee_EnLivraison"><path d="M377.3438,709.9364 C377.3438,709.9364 377.3438,727.9739 377.3438,727.9739 " fill="none" id="Validee-to-EnLivraison" style="stroke:#456A7D;stroke-width:2.625;"/><polygon fill="#456A7D" points="377.3438,737.3489,384.8438,720.4739,377.3438,727.9739,369.8438,720.4739,377.3438,737.3489" style="stroke:#456A7D;stroke-width:2.625;"/><text fill="#29485B" font-family="sans-serif" font-size="41.25" lengthAdjust="spacing" textLength="286.875" x="84.8438" y="705.5262">livraison choisie</text></g><!--link Validee to Confirmee--><g id="link_Validee_Confirmee"><path d="M440.625,710.3489 C440.625,710.3489 440.625,994.7114 440.625,994.7114 " fill="none" id="Validee-to-Confirmee" style="stroke:#456A7D;stroke-width:2.625;"/><polygon fill="#456A7D" points="440.625,1004.0864,448.125,987.2114,440.625,994.7114,433.125,987.2114,440.625,1004.0864" style="stroke:#456A7D;stroke-width:2.625;"/><text fill="#29485B" font-family="sans-serif" font-size="41.25" lengthAdjust="spacing" textLength="382.5" x="446.25" y="900.9762">retrait direct confirm&#233;</text></g><!--link EnLivraison to Livree--><g id="link_EnLivraison_Livree"><path d="M301.875,843.0614 C301.875,843.0614 301.875,861.0989 301.875,861.0989 " fill="none" id="EnLivraison-to-Livree" style="stroke:#456A7D;stroke-width:2.625;"/><polygon fill="#456A7D" points="301.875,870.4739,309.375,853.5989,301.875,861.0989,294.375,853.5989,301.875,870.4739" style="stroke:#456A7D;stroke-width:2.625;"/><text fill="#29485B" font-family="sans-serif" font-size="41.25" lengthAdjust="spacing" textLength="279.375" x="16.875" y="900.5262">remise au client</text></g><!--link Livree to Confirmee--><g id="link_Livree_Confirmee"><path d="M346.875,976.1864 C346.875,976.1864 346.875,994.2239 346.875,994.2239 " fill="none" id="Livree-to-Confirmee" style="stroke:#456A7D;stroke-width:2.625;"/><polygon fill="#456A7D" points="346.875,1003.5989,354.375,986.7239,346.875,994.2239,339.375,986.7239,346.875,1003.5989" style="stroke:#456A7D;stroke-width:2.625;"/><text fill="#29485B" font-family="sans-serif" font-size="41.25" lengthAdjust="spacing" textLength="279.375" x="61.875" y="1033.6512">QR code valid&#233;</text></g><!--link Confirmee to *end*--><g id="link_Confirmee_*end*"><path d="M548.9063,1056.6989 C566.4187,1056.6989 578.7563,1056.6989 578.7563,1056.6989 C578.7563,1056.6989 578.7563,1128.4739 578.7563,1128.4739 " fill="none" id="Confirmee-to-*end*" style="stroke:#456A7D;stroke-width:2.625;"/><polygon fill="#456A7D" points="578.7563,1137.8489,586.2563,1120.9739,578.7563,1128.4739,571.2563,1120.9739,578.7563,1137.8489" style="stroke:#456A7D;stroke-width:2.625;"/><text fill="#29485B" font-family="sans-serif" font-size="41.25" lengthAdjust="spacing" textLength="208.125" x="584.3813" y="1064.2324">versements</text></g><!--link Annulee to *end*--><g id="link_Annulee_*end*"><path d="M739.2188,576.9801 C739.2188,728.8551 739.2188,1156.0739 739.2188,1156.0739 C739.2188,1156.0739 613.2937,1156.0739 613.2937,1156.0739 " fill="none" id="Annulee-to-*end*" style="stroke:#456A7D;stroke-width:2.625;"/><polygon fill="#456A7D" points="603.9187,1156.0739,620.7937,1163.5739,613.2937,1156.0739,620.7937,1148.5739,603.9187,1156.0739" style="stroke:#456A7D;stroke-width:2.625;"/></g><!--link Refusee to *end*--><g id="link_Refusee_*end*"><path d="M591.2438,843.6051 C591.2438,843.6051 591.2438,1128.8676 591.2438,1128.8676 " fill="none" id="Refusee-to-*end*" style="stroke:#456A7D;stroke-width:2.625;"/><polygon fill="#456A7D" points="591.2438,1138.2426,598.7438,1121.3676,591.2438,1128.8676,583.7438,1121.3676,591.2438,1138.2426" style="stroke:#456A7D;stroke-width:2.625;"/><text fill="#29485B" font-family="sans-serif" font-size="41.25" lengthAdjust="spacing" textLength="281.25" x="596.8688" y="972.8074">remboursement</text></g><!--SRC=[ZPPDSfim68Rtd4AJBZBJcNI2ZGlseZDWGxj8CswSPjFfGe4FMnEGN4auTLSzH2-HS-GcFKabVcmP26bcac2zp_VtIXZEqKhkCq0no_E2eh-__w24u3N7UGu2XHdivenIYAKb7WZTOYMWUnm_h3ahQ39d6UFeJLJ-64Io9SZsBeqLiS49UoHqZLAS2J2KCb7CE0MEx94XP8I2t6y1CIutpCmEAIuo6J4ght4EQ8MfM04dQJ-p8hy0ZSpCjqHcC1X-8AfWhq-gXxVTySXP683FENkiHMVotdSxeX4zcZhU96W3jniIFr0G0jdl74EyPXA27lUzq6jJZ2V0QoAS-A4pQH564vF0yUpGq9Ug1bwV9fdwWUkxFL2d7oVoe_TTqFGiKYN7_KXr7kzPbfYkn9BiYDntYrr6NZJk8ytUHv6xE7MvfWRtiMOM1EUC9ds-ZnVUG83PmSARJaPHxqGlDZdFi131gpTRXGsEMoAV02kaaozqed7ej-4XOq8gUxUYtLZD3NPMCKFLLXBt7Ffm4RcHtS46QvN8KAcl0c8iUehvwanxFQ1PRXowplIo2mtE1ZyAe35SaLJzqjODDm-SkJr4lxe3JSGISqbYiiLKlZvSNz3We4s0EjAC_tzJ5JwyOpNwKINSTZExKH0jNiG7lQGi0G7RqoSEn_IXN9pqtAYVCLyJYlga9KuI_MXpJhxH3kuricsQ5h2V_M7LsgXzRe-m9VKJ2CttiVgR0DeHzU-yeDL375ErP5dVtdv75nSVrFtbImbK0fgXc3y_OKaOjOwhcbdYFMXzYmdaQXNXE8QjV7vgSJwbHLQIM5zLgQfWBTzoJ6ILOARybIGbSScWb1MS4Y6Wu9P1wQ0xd96ap7belgaERVO6qaASibmlQRJ9KyryHNOgLAZIC_KQqLp76qO4EMNLsqrAU5vcvI1rGVK2nDKBZofIIgKDnuGwI7-g8t8YLCS5YZEYshHgfPtvoutAfhTALrO9ZveczLxDq0wuA6SLLcDqBLhDu4TO5RvNfbO1bYNq2J7s6Wjq5bA4guzdjLvjbTRKbJAjMJTihWFbOQLX6iyqS5TDSOWtxQaJ74nlcDeOBUjB8_heXHRdZUa7lJ53g-MreJN6QEscFWfd_m00]--></g></svg>