<?xml version="1.0" encoding="us-ascii" standalone="no"?><svg xmlns="http://www.w3.org/2000/svg" xmlns:xlink="http://www.w3.org/1999/xlink" contentStyleType="text/css" height="2585.625px" preserveAspectRatio="none" style="width:3243px;height:2585px;background:#FFFFFF;" version="1.1" viewBox="0 0 3243 2585" width="3243.75px" zoomAndPan="magnify"><defs/><g><text fill="#17324D" font-family="sans-serif" font-size="41.25" font-weight="bold" lengthAdjust="spacing" textLength="438.75" x="1400.1563" y="87.821">Passer une commande</text><rect fill="none" height="52.7344" style="stroke:none;stroke-width:1.875;" width="3182.8125" x="28.125" y="126.8848"/><rect fill="#F0F8F3" height="127.9688" rx="11.25" ry="11.25" style="stroke:#2F7D5B;stroke-width:0.9375;" width="307.5" x="114.375" y="1189.5996"/><text fill="#17324D" font-family="sans-serif" font-size="30" lengthAdjust="spacing" textLength="255" x="140.625" y="1246.9922">Accepter ou refuser</text><text fill="#17324D" font-family="sans-serif" font-size="30" lengthAdjust="spacing" textLength="176.25" x="140.625" y="1284.7266">la commande</text><polygon fill="#FFF3D8" points="106.875,1358.9648,429.375,1358.9648,451.875,1385.332,429.375,1411.6992,106.875,1411.6992,84.375,1385.332,106.875,1358.9648" style="stroke:#D8952F;stroke-width:0.9375;"/><text fill="#17324D" font-family="sans-serif" font-size="30" lengthAdjust="spacing" textLength="307.5" x="114.375" y="1397.6074">Commande accept&#233;e ?</text><text fill="#29485B" font-family="sans-serif" font-size="30" lengthAdjust="spacing" textLength="39.375" x="37.5" y="1371.2402">oui</text><text fill="#29485B" font-family="sans-serif" font-size="30" lengthAdjust="spacing" textLength="46.875" x="459.375" y="1371.2402">non</text><line style="stroke:#000000;stroke-width:2.8125;" x1="28.125" x2="28.125" y1="126.8848" y2="2563.8867"/><ellipse cx="834.375" cy="207.7441" fill="#222222" rx="18.75" ry="18.75" style="stroke:#222222;stroke-width:1.875;"/><rect fill="#F0F8F3" height="165.7031" rx="11.25" ry="11.25" style="stroke:#2F7D5B;stroke-width:0.9375;" width="326.25" x="671.25" y="263.9941"/><text fill="#17324D" font-family="sans-serif" font-size="30" lengthAdjust="spacing" textLength="273.75" x="697.5" y="321.3867">Choisir une annonce,</text><text fill="#17324D" font-family="sans-serif" font-size="30" lengthAdjust="spacing" textLength="189.375" x="697.5" y="359.1211">une quantit&#233; et</text><text fill="#17324D" font-family="sans-serif" font-size="30" lengthAdjust="spacing" textLength="228.75" x="697.5" y="396.8555">le mode de retrait</text><rect fill="#F0F8F3" height="90.2344" rx="11.25" ry="11.25" style="stroke:#2F7D5B;stroke-width:0.9375;" width="313.125" x="937.5" y="1061.8652"/><text fill="#17324D" font-family="sans-serif" font-size="30" lengthAdjust="spacing" textLength="260.625" x="963.75" y="1119.2578">Payer la commande</text><rect fill="#F0F8F3" height="165.7031" rx="11.25" ry="11.25" style="stroke:#2F7D5B;stroke-width:0.9375;" width="279.375" x="526.875" y="1962.4805"/><text fill="#17324D" font-family="sans-serif" font-size="30" lengthAdjust="spacing" textLength="189.375" x="553.125" y="2019.873">Scanner le QR</text><text fill="#17324D" font-family="sans-serif" font-size="30" lengthAdjust="spacing" textLength="226.875" x="553.125" y="2057.6074">code et confirmer</text><text fill="#17324D" font-family="sans-serif" font-size="30" lengthAdjust="spacing" textLength="151.875" x="553.125" y="2095.3418">la r&#233;ception</text><rect fill="#F0F8F3" height="165.7031" rx="11.25" ry="11.25" style="stroke:#2F7D5B;stroke-width:0.9375;" width="241.875" x="886.875" y="1539.4336"/><text fill="#17324D" font-family="sans-serif" font-size="30" lengthAdjust="spacing" textLength="159.375" x="913.125" y="1596.8262">Confirmer la</text><text fill="#17324D" font-family="sans-serif" font-size="30" lengthAdjust="spacing" textLength="189.375" x="913.125" y="1634.5605">r&#233;ception chez</text><text fill="#17324D" font-family="sans-serif" font-size="30" lengthAdjust="spacing" textLength="172.5" x="913.125" y="1672.2949">le fournisseur</text><line style="stroke:#000000;stroke-width:2.8125;" x1="515.625" x2="515.625" y1="126.8848" y2="2563.8867"/><polygon fill="#FFF3D8" points="1634.0625,471.0938,2078.4375,471.0938,2100.9375,497.4609,2078.4375,523.8281,1634.0625,523.8281,1611.5625,497.4609,1634.0625,471.0938" style="stroke:#D8952F;stroke-width:0.9375;"/><text fill="#17324D" font-family="sans-serif" font-size="30" lengthAdjust="spacing" textLength="429.375" x="1641.5625" y="509.7363">Client propri&#233;taire de l'annonce ?</text><text fill="#29485B" font-family="sans-serif" font-size="30" lengthAdjust="spacing" textLength="39.375" x="1564.6875" y="483.3691">oui</text><text fill="#29485B" font-family="sans-serif" font-size="30" lengthAdjust="spacing" textLength="46.875" x="2108.4375" y="483.3691">non</text><rect fill="#F0F8F3" height="165.7031" rx="11.25" ry="11.25" style="stroke:#2F7D5B;stroke-width:0.9375;" width="264.375" x="1269.375" y="561.3281"/><text fill="#17324D" font-family="sans-serif" font-size="30" lengthAdjust="spacing" textLength="131.25" x="1295.625" y="618.7207">Bloquer la</text><text fill="#17324D" font-family="sans-serif" font-size="30" lengthAdjust="spacing" textLength="178.125" x="1295.625" y="656.4551">commande et</text><text fill="#17324D" font-family="sans-serif" font-size="30" lengthAdjust="spacing" textLength="211.875" x="1295.625" y="694.1895">informer le client</text><ellipse cx="1401.5625" cy="789.0527" fill="none" rx="20.625" ry="20.625" style="stroke:#222222;stroke-width:1.875;"/><ellipse cx="1401.5625" cy="789.0527" fill="#222222" rx="11.25" ry="11.25" style="stroke:#111111;stroke-width:1.875;"/><rect fill="#F0F8F3" height="165.7031" rx="11.25" ry="11.25" style="stroke:#2F7D5B;stroke-width:0.9375;" width="255" x="2287.5" y="561.3281"/><text fill="#17324D" font-family="sans-serif" font-size="30" lengthAdjust="spacing" textLength="202.5" x="2313.75" y="618.7207">V&#233;rifier le stock</text><text fill="#17324D" font-family="sans-serif" font-size="30" lengthAdjust="spacing" textLength="131.25" x="2313.75" y="656.4551">et calculer</text><text fill="#17324D" font-family="sans-serif" font-size="30" lengthAdjust="spacing" textLength="133.125" x="2313.75" y="694.1895">le montant</text><polygon fill="#FFF3D8" points="2286.5625,768.4277,2543.4375,768.4277,2565.9375,794.7949,2543.4375,821.1621,2286.5625,821.1621,2264.0625,794.7949,2286.5625,768.4277" style="stroke:#D8952F;stroke-width:0.9375;"/><text fill="#17324D" font-family="sans-serif" font-size="30" lengthAdjust="spacing" textLength="241.875" x="2294.0625" y="807.0703">Stock disponible ?</text><text fill="#29485B" font-family="sans-serif" font-size="30" lengthAdjust="spacing" textLength="39.375" x="2217.1875" y="780.7031">oui</text><text fill="#29485B" font-family="sans-serif" font-size="30" lengthAdjust="spacing" textLength="46.875" x="2573.4375" y="780.7031">non</text><rect fill="#F0F8F3" height="165.7031" rx="11.25" ry="11.25" style="stroke:#2F7D5B;stroke-width:0.9375;" width="311.25" x="1960.3125" y="858.6621"/><text fill="#17324D" font-family="sans-serif" font-size="30" lengthAdjust="spacing" textLength="258.75" x="1986.5625" y="916.0547">Cr&#233;er la commande</text><text fill="#17324D" font-family="sans-serif" font-size="30" lengthAdjust="spacing" textLength="178.125" x="1986.5625" y="953.7891">et le code QR</text><text fill="#17324D" font-family="sans-serif" font-size="30" lengthAdjust="spacing" textLength="170.625" x="1986.5625" y="991.5234">d'authenticit&#233;</text><polygon fill="#FFF3D8" points="1729.6875,1449.1992,1988.4375,1449.1992,2010.9375,1475.5664,1988.4375,1501.9336,1729.6875,1501.9336,1707.1875,1475.5664,1729.6875,1449.1992" style="stroke:#D8952F;stroke-width:0.9375;"/><text fill="#17324D" font-family="sans-serif" font-size="30" lengthAdjust="spacing" textLength="243.75" x="1737.1875" y="1487.8418">Livraison choisie ?</text><text fill="#29485B" font-family="sans-serif" font-size="30" lengthAdjust="spacing" textLength="39.375" x="1660.3125" y="1461.4746">oui</text><text fill="#29485B" font-family="sans-serif" font-size="30" lengthAdjust="spacing" textLength="155.625" x="2018.4375" y="1461.4746">retrait direct</text><rect fill="#F0F8F3" height="165.7031" rx="11.25" ry="11.25" style="stroke:#2F7D5B;stroke-width:0.9375;" width="271.875" x="1552.5" y="1539.4336"/><text fill="#17324D" font-family="sans-serif" font-size="30" lengthAdjust="spacing" textLength="151.875" x="1578.75" y="1596.8262">Proposer la</text><text fill="#17324D" font-family="sans-serif" font-size="30" lengthAdjust="spacing" textLength="168.75" x="1578.75" y="1634.5605">livraison &#224; un</text><text fill="#17324D" font-family="sans-serif" font-size="30" lengthAdjust="spacing" textLength="219.375" x="1578.75" y="1672.2949">livreur disponible</text><polygon fill="#FFF3D8" points="1859.0625,2146.9336,1881.5625,2169.4336,1859.0625,2191.9336,1836.5625,2169.4336,1859.0625,2146.9336" style="stroke:#D8952F;stroke-width:0.9375;"/><rect fill="#F0F8F3" height="165.7031" rx="11.25" ry="11.25" style="stroke:#2F7D5B;stroke-width:0.9375;" width="318.75" x="1699.6875" y="2229.4336"/><text fill="#17324D" font-family="sans-serif" font-size="30" lengthAdjust="spacing" textLength="159.375" x="1725.9375" y="2286.8262">Confirmer la</text><text fill="#17324D" font-family="sans-serif" font-size="30" lengthAdjust="spacing" textLength="266.25" x="1725.9375" y="2324.5605">commande et verser</text><text fill="#17324D" font-family="sans-serif" font-size="30" lengthAdjust="spacing" textLength="213.75" x="1725.9375" y="2362.2949">les b&#233;n&#233;ficiaires</text><ellipse cx="1859.0625" cy="2453.2617" fill="none" rx="20.625" ry="20.625" style="stroke:#222222;stroke-width:1.875;"/><ellipse cx="1859.0625" cy="2453.2617" fill="#222222" rx="11.25" ry="11.25" style="stroke:#111111;stroke-width:1.875;"/><rect fill="#F0F8F3" height="165.7031" rx="11.25" ry="11.25" style="stroke:#2F7D5B;stroke-width:0.9375;" width="307.5" x="2219.0625" y="1449.1992"/><text fill="#17324D" font-family="sans-serif" font-size="30" lengthAdjust="spacing" textLength="131.25" x="2245.3125" y="1506.5918">Refuser la</text><text fill="#17324D" font-family="sans-serif" font-size="30" lengthAdjust="spacing" textLength="178.125" x="2245.3125" y="1544.3262">commande et</text><text fill="#17324D" font-family="sans-serif" font-size="30" lengthAdjust="spacing" textLength="255" x="2245.3125" y="1582.0605">rembourser le client</text><ellipse cx="2372.8125" cy="1701.1523" fill="none" rx="20.625" ry="20.625" style="stroke:#222222;stroke-width:1.875;"/><ellipse cx="2372.8125" cy="1701.1523" fill="#222222" rx="11.25" ry="11.25" style="stroke:#111111;stroke-width:1.875;"/><rect fill="#F0F8F3" height="165.7031" rx="11.25" ry="11.25" style="stroke:#2F7D5B;stroke-width:0.9375;" width="262.5" x="2582.8125" y="858.6621"/><text fill="#17324D" font-family="sans-serif" font-size="30" lengthAdjust="spacing" textLength="210" x="2609.0625" y="916.0547">Informer le client</text><text fill="#17324D" font-family="sans-serif" font-size="30" lengthAdjust="spacing" textLength="202.5" x="2609.0625" y="953.7891">que le stock est</text><text fill="#17324D" font-family="sans-serif" font-size="30" lengthAdjust="spacing" textLength="157.5" x="2609.0625" y="991.5234">indisponible</text><ellipse cx="2714.0625" cy="1082.4902" fill="none" rx="20.625" ry="20.625" style="stroke:#222222;stroke-width:1.875;"/><ellipse cx="2714.0625" cy="1082.4902" fill="#222222" rx="11.25" ry="11.25" style="stroke:#111111;stroke-width:1.875;"/><line style="stroke:#000000;stroke-width:2.8125;" x1="1258.125" x2="1258.125" y1="126.8848" y2="2563.8867"/><rect fill="#F0F8F3" height="165.7031" rx="11.25" ry="11.25" style="stroke:#2F7D5B;stroke-width:0.9375;" width="330" x="2864.0625" y="1759.2773"/><text fill="#17324D" font-family="sans-serif" font-size="30" lengthAdjust="spacing" textLength="103.125" x="2890.3125" y="1816.6699">Livrer la</text><text fill="#17324D" font-family="sans-serif" font-size="30" lengthAdjust="spacing" textLength="178.125" x="2890.3125" y="1854.4043">commande et</text><text fill="#17324D" font-family="sans-serif" font-size="30" lengthAdjust="spacing" textLength="277.5" x="2890.3125" y="1892.1387">pr&#233;senter le QR code</text><line style="stroke:#000000;stroke-width:2.8125;" x1="2852.8125" x2="2852.8125" y1="126.8848" y2="2563.8867"/><line style="stroke:#000000;stroke-width:2.8125;" x1="3201.5625" x2="3201.5625" y1="126.8848" y2="2563.8867"/><line style="stroke:#456A7D;stroke-width:2.625;" x1="268.125" x2="268.125" y1="1317.5684" y2="1358.9648"/><polygon fill="#456A7D" points="260.625,1340.2148,268.125,1358.9648,275.625,1340.2148,268.125,1347.7148" style="stroke:#456A7D;stroke-width:1.875;"/><line style="stroke:#456A7D;stroke-width:2.625;" x1="834.375" x2="834.375" y1="226.4941" y2="263.9941"/><polygon fill="#456A7D" points="826.875,245.2441,834.375,263.9941,841.875,245.2441,834.375,252.7441" style="stroke:#456A7D;stroke-width:1.875;"/><line style="stroke:#456A7D;stroke-width:2.625;" x1="1401.5625" x2="1401.5625" y1="727.0313" y2="768.4277"/><polygon fill="#456A7D" points="1394.0625,749.6777,1401.5625,768.4277,1409.0625,749.6777,1401.5625,757.1777" style="stroke:#456A7D;stroke-width:1.875;"/><line style="stroke:#456A7D;stroke-width:2.625;" x1="1707.1875" x2="1688.4375" y1="1475.5664" y2="1475.5664"/><line style="stroke:#456A7D;stroke-width:2.625;" x1="1688.4375" x2="1688.4375" y1="1475.5664" y2="1539.4336"/><polygon fill="#456A7D" points="1680.9375,1520.6836,1688.4375,1539.4336,1695.9375,1520.6836,1688.4375,1528.1836" style="stroke:#456A7D;stroke-width:1.875;"/><line style="stroke:#456A7D;stroke-width:2.625;" x1="1859.0625" x2="1859.0625" y1="2191.9336" y2="2229.4336"/><polygon fill="#456A7D" points="1851.5625,2210.6836,1859.0625,2229.4336,1866.5625,2210.6836,1859.0625,2218.1836" style="stroke:#456A7D;stroke-width:1.875;"/><line style="stroke:#456A7D;stroke-width:2.625;" x1="1859.0625" x2="1859.0625" y1="2395.1367" y2="2432.6367"/><polygon fill="#456A7D" points="1851.5625,2413.8867,1859.0625,2432.6367,1866.5625,2413.8867,1859.0625,2421.3867" style="stroke:#456A7D;stroke-width:1.875;"/><line style="stroke:#456A7D;stroke-width:2.625;" x1="2372.8125" x2="2372.8125" y1="1614.9023" y2="1680.5273"/><polygon fill="#456A7D" points="2365.3125,1661.7773,2372.8125,1680.5273,2380.3125,1661.7773,2372.8125,1669.2773" style="stroke:#456A7D;stroke-width:1.875;"/><line style="stroke:#456A7D;stroke-width:2.625;" x1="2714.0625" x2="2714.0625" y1="1024.3652" y2="1061.8652"/><polygon fill="#456A7D" points="2706.5625,1043.1152,2714.0625,1061.8652,2721.5625,1043.1152,2714.0625,1050.6152" style="stroke:#456A7D;stroke-width:1.875;"/><line style="stroke:#456A7D;stroke-width:2.625;" x1="2264.0625" x2="2115.9375" y1="794.7949" y2="794.7949"/><line style="stroke:#456A7D;stroke-width:2.625;" x1="2115.9375" x2="2115.9375" y1="794.7949" y2="858.6621"/><polygon fill="#456A7D" points="2108.4375,839.9121,2115.9375,858.6621,2123.4375,839.9121,2115.9375,847.4121" style="stroke:#456A7D;stroke-width:1.875;"/><line style="stroke:#456A7D;stroke-width:2.625;" x1="2565.9375" x2="2714.0625" y1="794.7949" y2="794.7949"/><line style="stroke:#456A7D;stroke-width:2.625;" x1="2714.0625" x2="2714.0625" y1="794.7949" y2="858.6621"/><polygon fill="#456A7D" points="2706.5625,839.9121,2714.0625,858.6621,2721.5625,839.9121,2714.0625,847.4121" style="stroke:#456A7D;stroke-width:1.875;"/><line style="stroke:#456A7D;stroke-width:2.625;" x1="2415" x2="2415" y1="727.0313" y2="768.4277"/><polygon fill="#456A7D" points="2407.5,749.6777,2415,768.4277,2422.5,749.6777,2415,757.1777" style="stroke:#456A7D;stroke-width:1.875;"/><line style="stroke:#456A7D;stroke-width:2.625;" x1="1611.5625" x2="1401.5625" y1="497.4609" y2="497.4609"/><line style="stroke:#456A7D;stroke-width:2.625;" x1="1401.5625" x2="1401.5625" y1="497.4609" y2="561.3281"/><polygon fill="#456A7D" points="1394.0625,542.5781,1401.5625,561.3281,1409.0625,542.5781,1401.5625,550.0781" style="stroke:#456A7D;stroke-width:1.875;"/><line style="stroke:#456A7D;stroke-width:2.625;" x1="2100.9375" x2="2415" y1="497.4609" y2="497.4609"/><line style="stroke:#456A7D;stroke-width:2.625;" x1="2415" x2="2415" y1="497.4609" y2="561.3281"/><polygon fill="#456A7D" points="2407.5,542.5781,2415,561.3281,2422.5,542.5781,2415,550.0781" style="stroke:#456A7D;stroke-width:1.875;"/><line style="stroke:#456A7D;stroke-width:2.625;" x1="2115.9375" x2="2115.9375" y1="1024.3652" y2="1033.7402"/><line style="stroke:#456A7D;stroke-width:2.625;" x1="2115.9375" x2="1094.0625" y1="1033.7402" y2="1033.7402"/><line style="stroke:#456A7D;stroke-width:2.625;" x1="1094.0625" x2="1094.0625" y1="1033.7402" y2="1061.8652"/><polygon fill="#456A7D" points="1086.5625,1043.1152,1094.0625,1061.8652,1101.5625,1043.1152,1094.0625,1050.6152" style="stroke:#456A7D;stroke-width:1.875;"/><line style="stroke:#456A7D;stroke-width:2.625;" x1="1094.0625" x2="1094.0625" y1="1152.0996" y2="1161.4746"/><line style="stroke:#456A7D;stroke-width:2.625;" x1="1094.0625" x2="268.125" y1="1161.4746" y2="1161.4746"/><line style="stroke:#456A7D;stroke-width:2.625;" x1="268.125" x2="268.125" y1="1161.4746" y2="1189.5996"/><polygon fill="#456A7D" points="260.625,1170.8496,268.125,1189.5996,275.625,1170.8496,268.125,1178.3496" style="stroke:#456A7D;stroke-width:1.875;"/><line style="stroke:#456A7D;stroke-width:2.625;" x1="1688.4375" x2="1688.4375" y1="1705.1367" y2="1731.1523"/><line style="stroke:#456A7D;stroke-width:2.625;" x1="1688.4375" x2="3029.0625" y1="1731.1523" y2="1731.1523"/><line style="stroke:#456A7D;stroke-width:2.625;" x1="3029.0625" x2="3029.0625" y1="1731.1523" y2="1759.2773"/><polygon fill="#456A7D" points="3021.5625,1740.5273,3029.0625,1759.2773,3036.5625,1740.5273,3029.0625,1748.0273" style="stroke:#456A7D;stroke-width:1.875;"/><line style="stroke:#456A7D;stroke-width:2.625;" x1="3029.0625" x2="3029.0625" y1="1924.9805" y2="1934.3555"/><line style="stroke:#456A7D;stroke-width:2.625;" x1="3029.0625" x2="666.5625" y1="1934.3555" y2="1934.3555"/><line style="stroke:#456A7D;stroke-width:2.625;" x1="666.5625" x2="666.5625" y1="1934.3555" y2="1962.4805"/><polygon fill="#456A7D" points="659.0625,1943.7305,666.5625,1962.4805,674.0625,1943.7305,666.5625,1951.2305" style="stroke:#456A7D;stroke-width:1.875;"/><line style="stroke:#456A7D;stroke-width:2.625;" x1="2010.9375" x2="2033.4375" y1="1475.5664" y2="1475.5664"/><line style="stroke:#456A7D;stroke-width:2.625;" x1="2033.4375" x2="2033.4375" y1="1475.5664" y2="1515.1172"/><line style="stroke:#456A7D;stroke-width:2.625;" x1="2033.4375" x2="1007.8125" y1="1515.1172" y2="1515.1172"/><line style="stroke:#456A7D;stroke-width:2.625;" x1="1007.8125" x2="1007.8125" y1="1515.1172" y2="1539.4336"/><polygon fill="#456A7D" points="1000.3125,1520.6836,1007.8125,1539.4336,1015.3125,1520.6836,1007.8125,1528.1836" style="stroke:#456A7D;stroke-width:1.875;"/><line style="stroke:#456A7D;stroke-width:2.625;" x1="666.5625" x2="666.5625" y1="2128.1836" y2="2169.4336"/><line style="stroke:#456A7D;stroke-width:2.625;" x1="666.5625" x2="1836.5625" y1="2169.4336" y2="2169.4336"/><polygon fill="#456A7D" points="1817.8125,2161.9336,1836.5625,2169.4336,1817.8125,2176.9336,1825.3125,2169.4336" style="stroke:#456A7D;stroke-width:1.875;"/><line style="stroke:#456A7D;stroke-width:2.625;" x1="1007.8125" x2="1007.8125" y1="1705.1367" y2="2135.6836"/><line style="stroke:#456A7D;stroke-width:2.625;" x1="1007.8125" x2="1915.3125" y1="2135.6836" y2="2135.6836"/><line style="stroke:#456A7D;stroke-width:2.625;" x1="1915.3125" x2="1915.3125" y1="2135.6836" y2="2169.4336"/><line style="stroke:#456A7D;stroke-width:2.625;" x1="1915.3125" x2="1881.5625" y1="2169.4336" y2="2169.4336"/><polygon fill="#456A7D" points="1900.3125,2161.9336,1881.5625,2169.4336,1900.3125,2176.9336,1892.8125,2169.4336" style="stroke:#456A7D;stroke-width:1.875;"/><line style="stroke:#456A7D;stroke-width:2.625;" x1="84.375" x2="61.875" y1="1385.332" y2="1385.332"/><line style="stroke:#456A7D;stroke-width:2.625;" x1="61.875" x2="61.875" y1="1385.332" y2="1424.8828"/><line style="stroke:#456A7D;stroke-width:2.625;" x1="61.875" x2="1859.0625" y1="1424.8828" y2="1424.8828"/><line style="stroke:#456A7D;stroke-width:2.625;" x1="1859.0625" x2="1859.0625" y1="1424.8828" y2="1449.1992"/><polygon fill="#456A7D" points="1851.5625,1430.4492,1859.0625,1449.1992,1866.5625,1430.4492,1859.0625,1437.9492" style="stroke:#456A7D;stroke-width:1.875;"/><line style="stroke:#456A7D;stroke-width:2.625;" x1="451.875" x2="2372.8125" y1="1385.332" y2="1385.332"/><line style="stroke:#456A7D;stroke-width:2.625;" x1="2372.8125" x2="2372.8125" y1="1385.332" y2="1449.1992"/><polygon fill="#456A7D" points="2365.3125,1430.4492,2372.8125,1449.1992,2380.3125,1430.4492,2372.8125,1437.9492" style="stroke:#456A7D;stroke-width:1.875;"/><line style="stroke:#456A7D;stroke-width:2.625;" x1="834.375" x2="834.375" y1="429.6973" y2="439.0723"/><line style="stroke:#456A7D;stroke-width:2.625;" x1="834.375" x2="1856.25" y1="439.0723" y2="439.0723"/><line style="stroke:#456A7D;stroke-width:2.625;" x1="1856.25" x2="1856.25" y1="439.0723" y2="471.0938"/><polygon fill="#456A7D" points="1848.75,452.3438,1856.25,471.0938,1863.75,452.3438,1856.25,459.8438" style="stroke:#456A7D;stroke-width:1.875;"/><text fill="#000000" font-family="sans-serif" font-size="30" lengthAdjust="spacing" textLength="153.75" x="195" y="165.5273">Fournisseur</text><text fill="#000000" font-family="sans-serif" font-size="30" lengthAdjust="spacing" textLength="75" x="849.375" y="165.5273">Client</text><text fill="#000000" font-family="sans-serif" font-size="30" lengthAdjust="spacing" textLength="286.875" x="1912.0313" y="165.5273">Syst&#232;me ElevConnect</text><text fill="#000000" font-family="sans-serif" font-size="30" lengthAdjust="spacing" textLength="88.125" x="2983.125" y="165.5273">Livreur</text><!--SRC=[ZLR1Rjiu4BthAmZi8Gcm269RZfNai91jgRj06xXnjtTQecp2DAcIL5eNEUn7x0ViSVqT_fD-IOUKRDEIeZH0WfZpvitCcw4v5sYkjuoWH6ms1KS__laNfHGl9TviY48H8yyJmJb9j7U1vf_VeNkK2Rd16Zt3cP2KCCI9Hll_a1Q59aXZoXYvHhD7WoNVSY4rMc5ZIlUxZ7AggU3NdbfJdcC8WnOuMI-bA7Ww4Kn8z5jiVnn4cbFK2swS4xN2gVXA-H9bc2dYM2nH8YGd4lNwZe5Ho7ER4mG9hOJBJZ9SC1qBhX_nXg0vvcfE9CtQCNFwdQ3UhMFyH3KZdUv7X7NkzzjCLV6zqQ3lJnr0AANuMXdzuMquQXWTx_wT7mp7TS2d5KtMd2Y5UjU-OtmKcenRr0-Ye8uICYMoGaJ3CFA7DOIJn73i1xt8iSyW1bwUazo5ur4uQW4ryl7ZCBvj0btDOWWvQ8UKqxqGB7LLIJHzfdhR37OJ1_6W3Udctez7qtELArHd7olCbEADu6cRxeDfqE7WPZ0DxeRzkBMYLvESCApK-CtBLi8woxMGFma6I8ClykD15DR1NS94NBUsefvOXUlChCHqHPjht3BqqJGUnRq6h3EMXNI5-bkH1AkMO27CTD02TCCDef5_TzC4TTP6lXI49-GzpU2NroxSPEnFUbteDpjmy9XXgMb2SyprsyMrENKMUd08pVlowqcLyEwELT1tG9WtcKVnE9w-2k_KaekKA9AVVxLBpDVsq6-vg1-mN5AEUZSjjXbEK_Es1MTVQKVv3kQ-wpiMtzhToZE_FhWdiAVD4mH8fU3DB7Yv2s2U4izxYKKXEGLB8L-ybmcZX6luPxvLUly_l7REWW37x-cpF4Sg3NbxzvELe8gMx9Xp0Qh-xfaFNmfihkn-XuZs88iD20clBP94IqprmskXQ8OkonWeboANTB-3pKDQNtPHXK1_N26z8XnTYe9UUGZTZvc0dah4i7SeqWIct2mrvXoAjwmFW5PQv1w1zG9T0ftr_xpVmSjEIoJOaxK7oq-2ML8m8ii2kCQblybnRZ2mKQbSSBfWpPI0T2BtEvlJINWWjJiPfFVnoKilO7y29pC08DM3TJjAR3bcU7jEKO7E-cUHOPAGN0DO5A1oLYYJTztFodiG25iFoB4bUGZHtg3IQ7ZCK62g14U9dO9s6bC3D5AeiZliw0IRPS7jPwZ1KVBXw7WQkoELFMcqEGUX5MXMjk_ZanNOuN4LjJJp12RfWFPiEqox1S-e6HUZ6r0QTM2dFH2L4rCDC2GiGO-hZY2J0vr9zqG7Qf7lPgAoKmkF8NWA- -Klw7zExcW1wxkqdOSbVx7VSREQ9zJS87K8OiV_L51r1TuE-LGELLryIJOBg4JLRzbvgAgmMiZxlneNr8DxVBo4Y2XpYUl3KT6MfFRlJm00]--></g></svg>