<?xml version="1.0" encoding="us-ascii" standalone="no"?><svg xmlns="http://www.w3.org/2000/svg" xmlns:xlink="http://www.w3.org/1999/xlink" contentStyleType="text/css" height="1648.125px" preserveAspectRatio="none" style="width:2156px;height:1648px;background:#FFFFFF;" version="1.1" viewBox="0 0 2156 1648" width="2156.25px" zoomAndPan="magnify"><defs/><g><text fill="#17324D" font-family="sans-serif" font-size="41.25" font-weight="bold" lengthAdjust="spacing" textLength="673.125" x="739.2188" y="87.821">Prendre un rendez-vous v&#233;t&#233;rinaire</text><rect fill="none" height="52.7344" style="stroke:none;stroke-width:1.875;" width="2095.3125" x="28.125" y="126.8848"/><ellipse cx="435" cy="207.7441" fill="#222222" rx="18.75" ry="18.75" style="stroke:#222222;stroke-width:1.875;"/><rect fill="#F0F8F3" height="127.9688" rx="11.25" ry="11.25" style="stroke:#2F7D5B;stroke-width:0.9375;" width="365.625" x="252.1875" y="263.9941"/><text fill="#17324D" font-family="sans-serif" font-size="30" lengthAdjust="spacing" textLength="283.125" x="278.4375" y="321.3867">Choisir un v&#233;t&#233;rinaire,</text><text fill="#17324D" font-family="sans-serif" font-size="30" lengthAdjust="spacing" textLength="313.125" x="278.4375" y="359.1211">un service et un cr&#233;neau</text><rect fill="#F0F8F3" height="165.7031" rx="11.25" ry="11.25" style="stroke:#2F7D5B;stroke-width:0.9375;" width="301.875" x="87.1875" y="1062.6563"/><text fill="#17324D" font-family="sans-serif" font-size="30" lengthAdjust="spacing" textLength="168.75" x="113.4375" y="1120.0488">Se pr&#233;senter</text><text fill="#17324D" font-family="sans-serif" font-size="30" lengthAdjust="spacing" textLength="228.75" x="113.4375" y="1157.7832">au rendez-vous et</text><text fill="#17324D" font-family="sans-serif" font-size="30" lengthAdjust="spacing" textLength="249.375" x="113.4375" y="1195.5176">r&#233;gler le v&#233;t&#233;rinaire</text><rect fill="#F0F8F3" height="90.2344" rx="11.25" ry="11.25" style="stroke:#2F7D5B;stroke-width:0.9375;" width="397.5" x="39.375" y="1393.5938"/><text fill="#17324D" font-family="sans-serif" font-size="30" lengthAdjust="spacing" textLength="345" x="65.625" y="1450.9863">Laisser une note et un avis</text><rect fill="#F0F8F3" height="90.2344" rx="11.25" ry="11.25" style="stroke:#2F7D5B;stroke-width:0.9375;" width="315" x="474.375" y="779.0625"/><text fill="#17324D" font-family="sans-serif" font-size="30" lengthAdjust="spacing" textLength="262.5" x="500.625" y="836.4551">Refuser la demande</text><line style="stroke:#000000;stroke-width:2.8125;" x1="28.125" x2="28.125" y1="126.8848" y2="1626.3281"/><rect fill="#F0F8F3" height="90.2344" rx="11.25" ry="11.25" style="stroke:#2F7D5B;stroke-width:0.9375;" width="369.375" x="949.6875" y="429.4629"/><text fill="#17324D" font-family="sans-serif" font-size="30" lengthAdjust="spacing" textLength="316.875" x="975.9375" y="486.8555">Transmettre la demande</text><rect fill="#F0F8F3" height="90.2344" rx="11.25" ry="11.25" style="stroke:#2F7D5B;stroke-width:0.9375;" width="258.75" x="808.125" y="906.7969"/><text fill="#17324D" font-family="sans-serif" font-size="30" lengthAdjust="spacing" textLength="206.25" x="834.375" y="964.1895">Notifier l'&#233;leveur</text><rect fill="#F0F8F3" height="165.7031" rx="11.25" ry="11.25" style="stroke:#2F7D5B;stroke-width:0.9375;" width="290.625" x="1185.9375" y="906.7969"/><text fill="#17324D" font-family="sans-serif" font-size="30" lengthAdjust="spacing" textLength="206.25" x="1212.1875" y="964.1895">Notifier l'&#233;leveur</text><text fill="#17324D" font-family="sans-serif" font-size="30" lengthAdjust="spacing" textLength="238.125" x="1212.1875" y="1001.9238">et l'inviter &#224; choisir</text><text fill="#17324D" font-family="sans-serif" font-size="30" lengthAdjust="spacing" textLength="215.625" x="1212.1875" y="1039.6582">un autre cr&#233;neau</text><ellipse cx="1134.375" cy="1605.7031" fill="none" rx="20.625" ry="20.625" style="stroke:#222222;stroke-width:1.875;"/><ellipse cx="1134.375" cy="1605.7031" fill="#222222" rx="11.25" ry="11.25" style="stroke:#111111;stroke-width:1.875;"/><line style="stroke:#000000;stroke-width:2.8125;" x1="796.875" x2="796.875" y1="126.8848" y2="1626.3281"/><rect fill="#F0F8F3" height="90.2344" rx="11.25" ry="11.25" style="stroke:#2F7D5B;stroke-width:0.9375;" width="352.5" x="1704.375" y="557.1973"/><text fill="#17324D" font-family="sans-serif" font-size="30" lengthAdjust="spacing" textLength="300" x="1730.625" y="614.5898">V&#233;rifier sa disponibilit&#233;</text><polygon fill="#FFF3D8" points="1733.4375,688.8281,2027.8125,688.8281,2050.3125,715.1953,2027.8125,741.5625,1733.4375,741.5625,1710.9375,715.1953,1733.4375,688.8281" style="stroke:#D8952F;stroke-width:0.9375;"/><text fill="#17324D" font-family="sans-serif" font-size="30" lengthAdjust="spacing" textLength="279.375" x="1740.9375" y="727.4707">Cr&#233;neau disponible ?</text><text fill="#29485B" font-family="sans-serif" font-size="30" lengthAdjust="spacing" textLength="39.375" x="1664.0625" y="701.1035">oui</text><text fill="#29485B" font-family="sans-serif" font-size="30" lengthAdjust="spacing" textLength="46.875" x="2057.8125" y="701.1035">non</text><rect fill="#F0F8F3" height="90.2344" rx="11.25" ry="11.25" style="stroke:#2F7D5B;stroke-width:0.9375;" width="376.875" x="1495.3125" y="779.0625"/><text fill="#17324D" font-family="sans-serif" font-size="30" lengthAdjust="spacing" textLength="324.375" x="1521.5625" y="836.4551">Confirmer le rendez-vous</text><rect fill="#F0F8F3" height="90.2344" rx="11.25" ry="11.25" style="stroke:#2F7D5B;stroke-width:0.9375;" width="350.625" x="1508.4375" y="1265.8594"/><text fill="#17324D" font-family="sans-serif" font-size="30" lengthAdjust="spacing" textLength="298.125" x="1534.6875" y="1323.252">Cl&#244;turer le rendez-vous</text><polygon fill="#FFF3D8" points="1880.625,1502.5781,1903.125,1525.0781,1880.625,1547.5781,1858.125,1525.0781,1880.625,1502.5781" style="stroke:#D8952F;stroke-width:0.9375;"/><line style="stroke:#000000;stroke-width:2.8125;" x1="1484.0625" x2="1484.0625" y1="126.8848" y2="1626.3281"/><line style="stroke:#000000;stroke-width:2.8125;" x1="2114.0625" x2="2114.0625" y1="126.8848" y2="1626.3281"/><line style="stroke:#456A7D;stroke-width:2.625;" x1="435" x2="435" y1="226.4941" y2="263.9941"/><polygon fill="#456A7D" points="427.5,245.2441,435,263.9941,442.5,245.2441,435,252.7441" style="stroke:#456A7D;stroke-width:1.875;"/><line style="stroke:#456A7D;stroke-width:2.625;" x1="1710.9375" x2="1683.75" y1="715.1953" y2="715.1953"/><line style="stroke:#456A7D;stroke-width:2.625;" x1="1683.75" x2="1683.75" y1="715.1953" y2="779.0625"/><polygon fill="#456A7D" points="1676.25,760.3125,1683.75,779.0625,1691.25,760.3125,1683.75,767.8125" style="stroke:#456A7D;stroke-width:1.875;"/><line style="stroke:#456A7D;stroke-width:2.625;" x1="1880.625" x2="1880.625" y1="647.4316" y2="688.8281"/><polygon fill="#456A7D" points="1873.125,670.0781,1880.625,688.8281,1888.125,670.0781,1880.625,677.5781" style="stroke:#456A7D;stroke-width:1.875;"/><line style="stroke:#456A7D;stroke-width:2.625;" x1="435" x2="435" y1="391.9629" y2="401.3379"/><line style="stroke:#456A7D;stroke-width:2.625;" x1="435" x2="1134.375" y1="401.3379" y2="401.3379"/><line style="stroke:#456A7D;stroke-width:2.625;" x1="1134.375" x2="1134.375" y1="401.3379" y2="429.4629"/><polygon fill="#456A7D" points="1126.875,410.7129,1134.375,429.4629,1141.875,410.7129,1134.375,418.2129" style="stroke:#456A7D;stroke-width:1.875;"/><line style="stroke:#456A7D;stroke-width:2.625;" x1="1134.375" x2="1134.375" y1="519.6973" y2="529.0723"/><line style="stroke:#456A7D;stroke-width:2.625;" x1="1134.375" x2="1880.625" y1="529.0723" y2="529.0723"/><line style="stroke:#456A7D;stroke-width:2.625;" x1="1880.625" x2="1880.625" y1="529.0723" y2="557.1973"/><polygon fill="#456A7D" points="1873.125,538.4473,1880.625,557.1973,1888.125,538.4473,1880.625,545.9473" style="stroke:#456A7D;stroke-width:1.875;"/><line style="stroke:#456A7D;stroke-width:2.625;" x1="1683.75" x2="1683.75" y1="869.2969" y2="878.6719"/><line style="stroke:#456A7D;stroke-width:2.625;" x1="1683.75" x2="937.5" y1="878.6719" y2="878.6719"/><line style="stroke:#456A7D;stroke-width:2.625;" x1="937.5" x2="937.5" y1="878.6719" y2="906.7969"/><polygon fill="#456A7D" points="930,888.0469,937.5,906.7969,945,888.0469,937.5,895.5469" style="stroke:#456A7D;stroke-width:1.875;"/><line style="stroke:#456A7D;stroke-width:2.625;" x1="937.5" x2="937.5" y1="997.0313" y2="1029.8438"/><line style="stroke:#456A7D;stroke-width:2.625;" x1="937.5" x2="238.125" y1="1029.8438" y2="1029.8438"/><line style="stroke:#456A7D;stroke-width:2.625;" x1="238.125" x2="238.125" y1="1029.8438" y2="1062.6563"/><polygon fill="#456A7D" points="230.625,1043.9063,238.125,1062.6563,245.625,1043.9063,238.125,1051.4063" style="stroke:#456A7D;stroke-width:1.875;"/><line style="stroke:#456A7D;stroke-width:2.625;" x1="238.125" x2="238.125" y1="1228.3594" y2="1237.7344"/><line style="stroke:#456A7D;stroke-width:2.625;" x1="238.125" x2="1683.75" y1="1237.7344" y2="1237.7344"/><line style="stroke:#456A7D;stroke-width:2.625;" x1="1683.75" x2="1683.75" y1="1237.7344" y2="1265.8594"/><polygon fill="#456A7D" points="1676.25,1247.1094,1683.75,1265.8594,1691.25,1247.1094,1683.75,1254.6094" style="stroke:#456A7D;stroke-width:1.875;"/><line style="stroke:#456A7D;stroke-width:2.625;" x1="1683.75" x2="1683.75" y1="1356.0938" y2="1365.4688"/><line style="stroke:#456A7D;stroke-width:2.625;" x1="1683.75" x2="238.125" y1="1365.4688" y2="1365.4688"/><line style="stroke:#456A7D;stroke-width:2.625;" x1="238.125" x2="238.125" y1="1365.4688" y2="1393.5938"/><polygon fill="#456A7D" points="230.625,1374.8438,238.125,1393.5938,245.625,1374.8438,238.125,1382.3438" style="stroke:#456A7D;stroke-width:1.875;"/><line style="stroke:#456A7D;stroke-width:2.625;" x1="631.875" x2="631.875" y1="869.2969" y2="878.6719"/><line style="stroke:#456A7D;stroke-width:2.625;" x1="631.875" x2="1331.25" y1="878.6719" y2="878.6719"/><line style="stroke:#456A7D;stroke-width:2.625;" x1="1331.25" x2="1331.25" y1="878.6719" y2="906.7969"/><polygon fill="#456A7D" points="1323.75,888.0469,1331.25,906.7969,1338.75,888.0469,1331.25,895.5469" style="stroke:#456A7D;stroke-width:1.875;"/><line style="stroke:#456A7D;stroke-width:2.625;" x1="2050.3125" x2="2072.8125" y1="715.1953" y2="715.1953"/><line style="stroke:#456A7D;stroke-width:2.625;" x1="2072.8125" x2="2072.8125" y1="715.1953" y2="754.7461"/><line style="stroke:#456A7D;stroke-width:2.625;" x1="2072.8125" x2="631.875" y1="754.7461" y2="754.7461"/><line style="stroke:#456A7D;stroke-width:2.625;" x1="631.875" x2="631.875" y1="754.7461" y2="779.0625"/><polygon fill="#456A7D" points="624.375,760.3125,631.875,779.0625,639.375,760.3125,631.875,767.8125" style="stroke:#456A7D;stroke-width:1.875;"/><line style="stroke:#456A7D;stroke-width:2.625;" x1="238.125" x2="238.125" y1="1483.8281" y2="1525.0781"/><line style="stroke:#456A7D;stroke-width:2.625;" x1="238.125" x2="1858.125" y1="1525.0781" y2="1525.0781"/><polygon fill="#456A7D" points="1839.375,1517.5781,1858.125,1525.0781,1839.375,1532.5781,1846.875,1525.0781" style="stroke:#456A7D;stroke-width:1.875;"/><line style="stroke:#456A7D;stroke-width:2.625;" x1="1331.25" x2="1331.25" y1="1072.5" y2="1491.3281"/><line style="stroke:#456A7D;stroke-width:2.625;" x1="1331.25" x2="1936.875" y1="1491.3281" y2="1491.3281"/><line style="stroke:#456A7D;stroke-width:2.625;" x1="1936.875" x2="1936.875" y1="1491.3281" y2="1525.0781"/><line style="stroke:#456A7D;stroke-width:2.625;" x1="1936.875" x2="1903.125" y1="1525.0781" y2="1525.0781"/><polygon fill="#456A7D" points="1921.875,1517.5781,1903.125,1525.0781,1921.875,1532.5781,1914.375,1525.0781" style="stroke:#456A7D;stroke-width:1.875;"/><line style="stroke:#456A7D;stroke-width:2.625;" x1="1880.625" x2="1880.625" y1="1547.5781" y2="1556.9531"/><line style="stroke:#456A7D;stroke-width:2.625;" x1="1880.625" x2="1134.375" y1="1556.9531" y2="1556.9531"/><line style="stroke:#456A7D;stroke-width:2.625;" x1="1134.375" x2="1134.375" y1="1556.9531" y2="1585.0781"/><polygon fill="#456A7D" points="1126.875,1566.3281,1134.375,1585.0781,1141.875,1566.3281,1134.375,1573.8281" style="stroke:#456A7D;stroke-width:1.875;"/><text fill="#000000" font-family="sans-serif" font-size="30" lengthAdjust="spacing" textLength="97.5" x="363.75" y="165.5273">&#201;leveur</text><text fill="#000000" font-family="sans-serif" font-size="30" lengthAdjust="spacing" textLength="286.875" x="997.0313" y="165.5273">Syst&#232;me ElevConnect</text><text fill="#000000" font-family="sans-serif" font-size="30" lengthAdjust="spacing" textLength="144.375" x="1726.875" y="165.5273">V&#233;t&#233;rinaire</text><!--SRC=[bPR1RkCs48RlUWe2FIGBj45iox6I70hPbhQ7tS2eqzmPQMGFGf4gINatYnnwxRqFq6DzxnleJVea7KbEGjkAqXemO7E-cVbdI8bpmfRsKG1BL9wNaltpsnyiHRxIFC_1i4Z0PgQaXCHw9snvzv5TiKpfd5kseJMb4GIJO5dr9xEgjC0iHo7WZ2rkQXQ-5afRjkQrAQss6KgqgEIPPnvG5fpIi7kUFAoqAcKwKq9fzbtSV1mYBP0DWdDdnQnvghwWNB6C2mEEfGcKA2r1iy7GCGWadOy5C1AqLcvqo7WfRAoalU4vi2MNPWaQisvcYT-03IuSuorQ0RtkBqJZF1nscNR53oQZeJztW51hzMLdzCSNuUJ8w7WFB_rWF3q4RjUOF4WmXWtEVCTueonCExeVHC4XfNGAUaT4up3onmU48s8yzOD1vDWNb8ElzeDSXjD9EEc0ZlJuSHXV78Dkps9AEUf6sjDzhqJgTYMnk47xU9piF0xYKHVfQX_6a_b-btTKxpxkc3doNCcqg- -ZUT3Zu2gO1vVZOTnPqPiYPu8RCtttOMkntd8Rv2VWX1p5Y_nu58M7S5zZ8caxj-9Gs8xhLTOoVTcMbdSS-cWUJ-B14TQRgq7wKlrY8E6c8rb8Pphe0DrqesZYNvuVGxsrmQybo0G-OKPVUV30pQR-RD17lxi3pnuBhYqcM71fto-kowctq6U7iBvV_hke5k_ViHtwaG8Mnv4dyJIUludtzbAg50mK-wzspUL3i-XtFAYVkLwXP8Fp3jk2fsbzjmLxhxINzZsRXwxlL7tjTclN_CE3-mfxjhw2s4A3J3Km6WBgN_3jXuqg3TjKMrjjDKgEPFIyf-ftcWcWr4-UiQJ9kvgj5HhKjUCU_Br7AmRq1XDWD2BGlqHNMmcylFQUbe_6Ld_HVUcC64_UrIqrpUHWBIKJdExTd9CMuk_Sq0JUrNyof5lU48QcK1BlKI11rnvcx7Iso_LYf1f__C3i6YGxLIL-y1YxeiGPwfoYaDKf-vgCRqWaBxhlsjJYfDgstMWSNbj3q19OGH8CI0lQ8nrkLy5wP5k9Dl5Usvf81zNMIaNrjorrjzAzn9yu6cexzHleNDhdtlCD4WmqBR5JgMHJ_i-GbJNgTlf_5kvHT762aiujhTCOcBJ7eTvyclfe6rytdLJNOv5LnRy0]--></g></svg>