<?xml version="1.0" encoding="us-ascii" standalone="no"?><svg xmlns="http://www.w3.org/2000/svg" xmlns:xlink="http://www.w3.org/1999/xlink" contentStyleType="text/css" height="1432.5px" preserveAspectRatio="none" style="width:2030px;height:1432px;background:#FFFFFF;" version="1.1" viewBox="0 0 2030 1432" width="2030.625px" zoomAndPan="magnify"><defs/><g><text fill="#17324D" font-family="sans-serif" font-size="41.25" font-weight="bold" lengthAdjust="spacing" textLength="391.875" x="817.0313" y="87.821">Publier une annonce</text><rect fill="none" height="52.7344" style="stroke:none;stroke-width:1.875;" width="1969.6875" x="28.125" y="126.8848"/><ellipse cx="231.5625" cy="207.7441" fill="#222222" rx="18.75" ry="18.75" style="stroke:#222222;stroke-width:1.875;"/><rect fill="#F0F8F3" height="127.9688" rx="11.25" ry="11.25" style="stroke:#2F7D5B;stroke-width:0.9375;" width="384.375" x="39.375" y="263.9941"/><text fill="#17324D" font-family="sans-serif" font-size="30" lengthAdjust="spacing" textLength="230.625" x="65.625" y="321.3867">Remplir l'annonce</text><text fill="#17324D" font-family="sans-serif" font-size="30" lengthAdjust="spacing" textLength="331.875" x="65.625" y="359.1211">et le bar&#232;me de r&#233;duction</text><rect fill="#F0F8F3" height="90.2344" rx="11.25" ry="11.25" style="stroke:#2F7D5B;stroke-width:0.9375;" width="373.125" x="328.5938" y="651.3281"/><text fill="#17324D" font-family="sans-serif" font-size="30" lengthAdjust="spacing" textLength="320.625" x="354.8438" y="708.7207">Corriger les informations</text><ellipse cx="231.5625" cy="1389.9902" fill="none" rx="20.625" ry="20.625" style="stroke:#222222;stroke-width:1.875;"/><ellipse cx="231.5625" cy="1389.9902" fill="#222222" rx="11.25" ry="11.25" style="stroke:#111111;stroke-width:1.875;"/><line style="stroke:#000000;stroke-width:2.8125;" x1="28.125" x2="28.125" y1="126.8848" y2="1410.6152"/><rect fill="#F0F8F3" height="90.2344" rx="11.25" ry="11.25" style="stroke:#2F7D5B;stroke-width:0.9375;" width="384.375" x="1133.4375" y="429.4629"/><text fill="#17324D" font-family="sans-serif" font-size="30" lengthAdjust="spacing" textLength="331.875" x="1159.6875" y="486.8555">Contr&#244;ler les informations</text><polygon fill="#FFF3D8" points="1197.1875,561.0938,1454.0625,561.0938,1476.5625,587.4609,1454.0625,613.8281,1197.1875,613.8281,1174.6875,587.4609,1197.1875,561.0938" style="stroke:#D8952F;stroke-width:0.9375;"/><text fill="#17324D" font-family="sans-serif" font-size="30" lengthAdjust="spacing" textLength="241.875" x="1204.6875" y="599.7363">Donn&#233;es valides ?</text><text fill="#29485B" font-family="sans-serif" font-size="30" lengthAdjust="spacing" textLength="39.375" x="1127.8125" y="573.3691">oui</text><text fill="#29485B" font-family="sans-serif" font-size="30" lengthAdjust="spacing" textLength="46.875" x="1484.0625" y="573.3691">non</text><rect fill="#F0F8F3" height="127.9688" rx="11.25" ry="11.25" style="stroke:#2F7D5B;stroke-width:0.9375;" width="326.25" x="878.9063" y="651.3281"/><text fill="#17324D" font-family="sans-serif" font-size="30" lengthAdjust="spacing" textLength="273.75" x="905.1563" y="708.7207">Enregistrer l'annonce</text><text fill="#17324D" font-family="sans-serif" font-size="30" lengthAdjust="spacing" textLength="176.25" x="905.1563" y="746.4551">&#171; en attente &#187;</text><rect fill="#F0F8F3" height="165.7031" rx="11.25" ry="11.25" style="stroke:#2F7D5B;stroke-width:0.9375;" width="277.5" x="720.4688" y="1038.6621"/><text fill="#17324D" font-family="sans-serif" font-size="30" lengthAdjust="spacing" textLength="225" x="746.7188" y="1096.0547">Rendre l'annonce</text><text fill="#17324D" font-family="sans-serif" font-size="30" lengthAdjust="spacing" textLength="210" x="746.7188" y="1133.7891">visible et notifier</text><text fill="#17324D" font-family="sans-serif" font-size="30" lengthAdjust="spacing" textLength="172.5" x="746.7188" y="1171.5234">le fournisseur</text><rect fill="#F0F8F3" height="165.7031" rx="11.25" ry="11.25" style="stroke:#2F7D5B;stroke-width:0.9375;" width="283.125" x="1083.2813" y="1038.6621"/><text fill="#17324D" font-family="sans-serif" font-size="30" lengthAdjust="spacing" textLength="230.625" x="1109.5313" y="1096.0547">Rejeter l'annonce,</text><text fill="#17324D" font-family="sans-serif" font-size="30" lengthAdjust="spacing" textLength="206.25" x="1109.5313" y="1133.7891">indiquer le motif</text><text fill="#17324D" font-family="sans-serif" font-size="30" lengthAdjust="spacing" textLength="120" x="1109.5313" y="1171.5234">et notifier</text><polygon fill="#FFF3D8" points="1325.625,1286.8652,1348.125,1309.3652,1325.625,1331.8652,1303.125,1309.3652,1325.625,1286.8652" style="stroke:#D8952F;stroke-width:0.9375;"/><line style="stroke:#000000;stroke-width:2.8125;" x1="709.2188" x2="709.2188" y1="126.8848" y2="1410.6152"/><rect fill="#F0F8F3" height="90.2344" rx="11.25" ry="11.25" style="stroke:#2F7D5B;stroke-width:0.9375;" width="305.625" x="1607.8125" y="816.7969"/><text fill="#17324D" font-family="sans-serif" font-size="30" lengthAdjust="spacing" textLength="253.125" x="1634.0625" y="874.1895">Examiner l'annonce</text><polygon fill="#FFF3D8" points="1619.0625,948.4277,1902.1875,948.4277,1924.6875,974.7949,1902.1875,1001.1621,1619.0625,1001.1621,1596.5625,974.7949,1619.0625,948.4277" style="stroke:#D8952F;stroke-width:0.9375;"/><text fill="#17324D" font-family="sans-serif" font-size="30" lengthAdjust="spacing" textLength="268.125" x="1626.5625" y="987.0703">Annonce conforme ?</text><text fill="#29485B" font-family="sans-serif" font-size="30" lengthAdjust="spacing" textLength="39.375" x="1549.6875" y="960.7031">oui</text><text fill="#29485B" font-family="sans-serif" font-size="30" lengthAdjust="spacing" textLength="46.875" x="1932.1875" y="960.7031">non</text><polygon fill="#FFF3D8" points="1760.625,1223.1152,1783.125,1245.6152,1760.625,1268.1152,1738.125,1245.6152,1760.625,1223.1152" style="stroke:#D8952F;stroke-width:0.9375;"/><line style="stroke:#000000;stroke-width:2.8125;" x1="1540.3125" x2="1540.3125" y1="126.8848" y2="1410.6152"/><line style="stroke:#000000;stroke-width:2.8125;" x1="1988.4375" x2="1988.4375" y1="126.8848" y2="1410.6152"/><line style="stroke:#456A7D;stroke-width:2.625;" x1="231.5625" x2="231.5625" y1="226.4941" y2="263.9941"/><polygon fill="#456A7D" points="224.0625,245.2441,231.5625,263.9941,239.0625,245.2441,231.5625,252.7441" style="stroke:#456A7D;stroke-width:1.875;"/><line style="stroke:#456A7D;stroke-width:2.625;" x1="1174.6875" x2="1042.0313" y1="587.4609" y2="587.4609"/><line style="stroke:#456A7D;stroke-width:2.625;" x1="1042.0313" x2="1042.0313" y1="587.4609" y2="651.3281"/><polygon fill="#456A7D" points="1034.5313,632.5781,1042.0313,651.3281,1049.5313,632.5781,1042.0313,640.0781" style="stroke:#456A7D;stroke-width:1.875;"/><line style="stroke:#456A7D;stroke-width:2.625;" x1="1325.625" x2="1325.625" y1="519.6973" y2="561.0938"/><polygon fill="#456A7D" points="1318.125,542.3438,1325.625,561.0938,1333.125,542.3438,1325.625,549.8438" style="stroke:#456A7D;stroke-width:1.875;"/><line style="stroke:#456A7D;stroke-width:2.625;" x1="1760.625" x2="1760.625" y1="907.0313" y2="948.4277"/><polygon fill="#456A7D" points="1753.125,929.6777,1760.625,948.4277,1768.125,929.6777,1760.625,937.1777" style="stroke:#456A7D;stroke-width:1.875;"/><line style="stroke:#456A7D;stroke-width:2.625;" x1="231.5625" x2="231.5625" y1="391.9629" y2="401.3379"/><line style="stroke:#456A7D;stroke-width:2.625;" x1="231.5625" x2="1325.625" y1="401.3379" y2="401.3379"/><line style="stroke:#456A7D;stroke-width:2.625;" x1="1325.625" x2="1325.625" y1="401.3379" y2="429.4629"/><polygon fill="#456A7D" points="1318.125,410.7129,1325.625,429.4629,1333.125,410.7129,1325.625,418.2129" style="stroke:#456A7D;stroke-width:1.875;"/><line style="stroke:#456A7D;stroke-width:2.625;" x1="1042.0313" x2="1042.0313" y1="779.2969" y2="788.6719"/><line style="stroke:#456A7D;stroke-width:2.625;" x1="1042.0313" x2="1760.625" y1="788.6719" y2="788.6719"/><line style="stroke:#456A7D;stroke-width:2.625;" x1="1760.625" x2="1760.625" y1="788.6719" y2="816.7969"/><polygon fill="#456A7D" points="1753.125,798.0469,1760.625,816.7969,1768.125,798.0469,1760.625,805.5469" style="stroke:#456A7D;stroke-width:1.875;"/><line style="stroke:#456A7D;stroke-width:2.625;" x1="1596.5625" x2="859.2188" y1="974.7949" y2="974.7949"/><line style="stroke:#456A7D;stroke-width:2.625;" x1="859.2188" x2="859.2188" y1="974.7949" y2="1038.6621"/><polygon fill="#456A7D" points="851.7188,1019.9121,859.2188,1038.6621,866.7188,1019.9121,859.2188,1027.4121" style="stroke:#456A7D;stroke-width:1.875;"/><line style="stroke:#456A7D;stroke-width:2.625;" x1="1924.6875" x2="1947.1875" y1="974.7949" y2="974.7949"/><line style="stroke:#456A7D;stroke-width:2.625;" x1="1947.1875" x2="1947.1875" y1="974.7949" y2="1014.3457"/><line style="stroke:#456A7D;stroke-width:2.625;" x1="1947.1875" x2="1224.8438" y1="1014.3457" y2="1014.3457"/><line style="stroke:#456A7D;stroke-width:2.625;" x1="1224.8438" x2="1224.8438" y1="1014.3457" y2="1038.6621"/><polygon fill="#456A7D" points="1217.3438,1019.9121,1224.8438,1038.6621,1232.3438,1019.9121,1224.8438,1027.4121" style="stroke:#456A7D;stroke-width:1.875;"/><line style="stroke:#456A7D;stroke-width:2.625;" x1="859.2188" x2="859.2188" y1="1204.3652" y2="1245.6152"/><line style="stroke:#456A7D;stroke-width:2.625;" x1="859.2188" x2="1738.125" y1="1245.6152" y2="1245.6152"/><polygon fill="#456A7D" points="1719.375,1238.1152,1738.125,1245.6152,1719.375,1253.1152,1726.875,1245.6152" style="stroke:#456A7D;stroke-width:1.875;"/><line style="stroke:#456A7D;stroke-width:2.625;" x1="1224.8438" x2="1224.8438" y1="1204.3652" y2="1211.8652"/><line style="stroke:#456A7D;stroke-width:2.625;" x1="1224.8438" x2="1816.875" y1="1211.8652" y2="1211.8652"/><line style="stroke:#456A7D;stroke-width:2.625;" x1="1816.875" x2="1816.875" y1="1211.8652" y2="1245.6152"/><line style="stroke:#456A7D;stroke-width:2.625;" x1="1816.875" x2="1783.125" y1="1245.6152" y2="1245.6152"/><polygon fill="#456A7D" points="1801.875,1238.1152,1783.125,1245.6152,1801.875,1253.1152,1794.375,1245.6152" style="stroke:#456A7D;stroke-width:1.875;"/><line style="stroke:#456A7D;stroke-width:2.625;" x1="1476.5625" x2="1499.0625" y1="587.4609" y2="587.4609"/><line style="stroke:#456A7D;stroke-width:2.625;" x1="1499.0625" x2="1499.0625" y1="587.4609" y2="627.0117"/><line style="stroke:#456A7D;stroke-width:2.625;" x1="1499.0625" x2="515.1563" y1="627.0117" y2="627.0117"/><line style="stroke:#456A7D;stroke-width:2.625;" x1="515.1563" x2="515.1563" y1="627.0117" y2="651.3281"/><polygon fill="#456A7D" points="507.6563,632.5781,515.1563,651.3281,522.6563,632.5781,515.1563,640.0781" style="stroke:#456A7D;stroke-width:1.875;"/><line style="stroke:#456A7D;stroke-width:2.625;" x1="1760.625" x2="1760.625" y1="1268.1152" y2="1275.6152"/><line style="stroke:#456A7D;stroke-width:2.625;" x1="1760.625" x2="1269.375" y1="1275.6152" y2="1275.6152"/><line style="stroke:#456A7D;stroke-width:2.625;" x1="1269.375" x2="1269.375" y1="1275.6152" y2="1309.3652"/><line style="stroke:#456A7D;stroke-width:2.625;" x1="1269.375" x2="1303.125" y1="1309.3652" y2="1309.3652"/><polygon fill="#456A7D" points="1284.375,1301.8652,1303.125,1309.3652,1284.375,1316.8652,1291.875,1309.3652" style="stroke:#456A7D;stroke-width:1.875;"/><line style="stroke:#456A7D;stroke-width:2.625;" x1="515.1563" x2="515.1563" y1="741.5625" y2="1275.6152"/><line style="stroke:#456A7D;stroke-width:2.625;" x1="515.1563" x2="1381.875" y1="1275.6152" y2="1275.6152"/><line style="stroke:#456A7D;stroke-width:2.625;" x1="1381.875" x2="1381.875" y1="1275.6152" y2="1309.3652"/><line style="stroke:#456A7D;stroke-width:2.625;" x1="1381.875" x2="1348.125" y1="1309.3652" y2="1309.3652"/><polygon fill="#456A7D" points="1366.875,1301.8652,1348.125,1309.3652,1366.875,1316.8652,1359.375,1309.3652" style="stroke:#456A7D;stroke-width:1.875;"/><line style="stroke:#456A7D;stroke-width:2.625;" x1="1325.625" x2="1325.625" y1="1331.8652" y2="1341.2402"/><line style="stroke:#456A7D;stroke-width:2.625;" x1="1325.625" x2="231.5625" y1="1341.2402" y2="1341.2402"/><line style="stroke:#456A7D;stroke-width:2.625;" x1="231.5625" x2="231.5625" y1="1341.2402" y2="1369.3652"/><polygon fill="#456A7D" points="224.0625,1350.6152,231.5625,1369.3652,239.0625,1350.6152,231.5625,1358.1152" style="stroke:#456A7D;stroke-width:1.875;"/><text fill="#000000" font-family="sans-serif" font-size="30" lengthAdjust="spacing" textLength="153.75" x="291.7969" y="165.5273">Fournisseur</text><text fill="#000000" font-family="sans-serif" font-size="30" lengthAdjust="spacing" textLength="286.875" x="981.3281" y="165.5273">Syst&#232;me ElevConnect</text><text fill="#000000" font-family="sans-serif" font-size="30" lengthAdjust="spacing" textLength="189.375" x="1669.6875" y="165.5273">Administrateur</text><!--SRC=[ZPR1RkCs48RlUee1UaWMA8B8bcCbEHIoBMqFRM3KszuPQMIpeKYLfBp9meS-H1-WnmQzzjRR-atw91t9oYvjQPKrOC3cV3F_p90IvmnMzaaWfAeeAWd__Vu7P9ojDIiAD10BtCwLb9XQxmnMlxo56yYLBfY5BQqfpL60H0lxFy6goY9OneN02rZUrIm-bafRsB3QbEsVSowvvKfUUEQ1ovAH3Dopz66jLIMpkH9AmpT9yt68hEJWXvVEYjcmJBtdSWqv4mOTInCeLLgY1d_a60IdF9zA14feezpecBDAs4H9UySAX1MJPeMQv_tCYdz0yAySupjk1GwwVo8Qvz6epzGMxq_7es3X097Mwdrh32PNqRHZTBn7rq4ucPq2xpOyVP1e3FWNWMEyKnPdFTqFu_2KKZf3tHBn98g3oGdX936P1Q4VE_ObQR3rSP3hQ3QDfZrG9vyWYPAhBkZsB279SJzoEDttIcHkLrBBjzm-TSKkap0Pzv5kxgDakZZkSaiDxcFBB3WhbCpw-ZvUX0CERWQBy7eoIdeh-cAISy6CcRtwi1smmN8Rv7jaX7JYnK4oZgDJUAWniRIzMt6QMCiDPdPWXjHMblKS-dYHJ1E_WmrgDSYGrCy6KsPwn28wqs4FwCgDusbmVTc51cl3togKAVx0S_hAamTkFWlc_X3zwWwyU2oPjZpb9PFszUBwd0OBVN68wllbwvCwuCCxrg9lAM3PZJnDPidYY_XWBwNAq61v_6hNJ3uqYq7FW_eZqsikmR_iiIrPbjLtMtZqIllKlXVpoFMTgST-jyDQS7fmFyEUhQyWM5RtWjEbMKa49gMYmi7pTecgjEJ6OALtdh6KXNVp4nQbu1h4MGjwD07KRrcczt_H5PWXwFrpLgNrLN_hxLPFnZO6PvpOUJVqo-hzFu941SqQN1uc2_8njnxFuNn1wFwPJ5icE3KOldi3TeCIpbN5ttW0Dx7KkER6QdIp-VWt4CIiHKbZnyT_RmdTHLb1mmUXL7nTI-tzo6ZDTQt9MZbg6v2g9YdiA5F0_gfg4pL8PXgTZBRSy7lg4FL9AijpQhH7V_FFpQsLaKOPE2UFhr7u5QsR-RSUbncd0rit4ufQn7FKcl04qA8hShoz57UkjERhtXqvk1kholy1]--></g></svg>