<?xml version="1.0" encoding="us-ascii" standalone="no"?><svg xmlns="http://www.w3.org/2000/svg" xmlns:xlink="http://www.w3.org/1999/xlink" contentStyleType="text/css" height="716.25px" preserveAspectRatio="none" style="width:1318px;height:716px;background:#FFFFFF;" version="1.1" viewBox="0 0 1318 716" width="1318.125px" zoomAndPan="magnify"><defs/><g><text fill="#17324D" font-family="sans-serif" font-size="41.25" font-weight="bold" lengthAdjust="spacing" textLength="712.5" x="290.1563" y="69.071">Architecture simplifi&#233;e d'ElevConnect</text><!--entity CLIENT--><g id="elem_CLIENT"><rect fill="#EAF4F8" height="165.7031" rx="11.25" ry="11.25" style="stroke:#181818;stroke-width:0.9375;" width="423.75" x="198.75" y="119.3848"/><text fill="#000000" font-family="sans-serif" font-size="30" font-weight="bold" lengthAdjust="spacing" textLength="181.875" x="225" y="176.7773">Pr&#233;sentation</text><text fill="#000000" font-family="sans-serif" font-size="30" lengthAdjust="spacing" textLength="202.5" x="225" y="214.5117">Navigateur web</text><text fill="#000000" font-family="sans-serif" font-size="30" lengthAdjust="spacing" textLength="371.25" x="225" y="252.2461">Blade &#183; Tailwind &#183; JavaScript</text></g><!--entity APP--><g id="elem_APP"><rect fill="#EAF4EA" height="165.7031" rx="11.25" ry="11.25" style="stroke:#181818;stroke-width:0.9375;" width="594.375" x="113.4375" y="329.3848"/><text fill="#000000" font-family="sans-serif" font-size="30" font-weight="bold" lengthAdjust="spacing" textLength="352.5" x="139.6875" y="386.7773">Application ElevConnect</text><text fill="#000000" font-family="sans-serif" font-size="30" lengthAdjust="spacing" textLength="541.875" x="139.6875" y="424.5117">Laravel : routes, contr&#244;leurs, r&#232;gles m&#233;tier</text><text fill="#000000" font-family="sans-serif" font-size="30" lengthAdjust="spacing" textLength="463.125" x="139.6875" y="462.2461">Notifications &#183; QR code &#183; paiements</text></g><!--entity DB--><g id="elem_DB"><path d="M135.9375,559.0723 C135.9375,540.3223 226.875,540.3223 226.875,540.3223 C226.875,540.3223 317.8125,540.3223 317.8125,559.0723 L317.8125,666.416 C317.8125,685.166 226.875,685.166 226.875,685.166 C226.875,685.166 135.9375,685.166 135.9375,666.416 L135.9375,559.0723 " fill="#FFF8E8" style="stroke:#181818;stroke-width:0.9375;"/><path d="M135.9375,559.0723 C135.9375,577.8223 226.875,577.8223 226.875,577.8223 C226.875,577.8223 317.8125,577.8223 317.8125,559.0723 " fill="none" style="stroke:#181818;stroke-width:0.9375;"/><text fill="#000000" font-family="sans-serif" font-size="30" font-weight="bold" lengthAdjust="spacing" textLength="129.375" x="162.1875" y="623.9648">Donn&#233;es</text><text fill="#000000" font-family="sans-serif" font-size="30" lengthAdjust="spacing" textLength="97.5" x="162.1875" y="661.6992">MySQL</text></g><!--entity PAYMENT--><g id="elem_PAYMENT"><path d="M378.6753,557.7678 C389.4788,544.2155 400.6111,540.0602 411.5408,557.6346 C418.3567,542.6208 430.037,540.3626 441.2304,552.9209 C451.0022,536.8982 462.6054,536.2429 474.2711,550.8799 C483.9024,537.3636 494.2998,538.4873 504.1113,550.6706 C511.8101,537.5602 523.9002,533.8209 533.5447,548.6185 C542.5318,531.3656 556.1919,532.7617 567.3093,546.281 C575.2601,529.8347 589.9919,528.4775 600.737,543.2931 C609.4035,528.0439 624.5038,529.0421 633.0725,543.4 C643.3497,529.954 655.514,532.843 663.523,545.9965 C675.8289,536.0683 684.8425,536.8049 691.885,551.9503 C702.2099,535.327 717.1383,536.8845 727.6899,551.692 C738.7922,535.62 750.8345,539.2763 759.1068,554.5303 C769.9503,539.5527 783.3596,538.8161 791.6419,557.0401 C802.3327,542.6749 811.7355,542.1212 821.2701,558.1666 C836.2207,563.6684 843.551,573.3865 830.4704,587.6388 C846.2532,591.2407 848.1148,601.8794 838.5857,613.4421 C848.4527,626.1372 843.6957,638.786 828.0226,642.0512 C838.9902,656.4879 835.5937,670.2374 817.9557,676.2548 C808.0363,692.6141 797.8694,693.2408 787.2963,676.8672 C778.0208,691.6582 766.1113,692.3014 756.4906,677.2232 C745.6131,688.937 735.7454,688.482 728.0866,673.7643 C718.9341,690.0259 704.1299,691.5439 693.8611,674.9263 C688.6931,691.7833 673.8534,690.1268 664.7166,679.0701 C653.178,691.0286 640.4287,692.6735 632.1032,675.4761 C625.4978,692.9595 614.107,694.9963 601.7102,681.0822 C589.5191,694.9604 576.6207,694.6669 568.0801,677.1693 C558.2559,695.303 548.1943,693.7736 536.0988,679.404 C526.4545,697.2071 511.8202,696.9212 502.6624,678.9493 C492.8307,692.1228 478.8828,689.8405 474.553,673.6776 C466.1472,690.6868 449.4227,692.0075 438.854,676.0174 C429.7174,690.3775 419.9619,689.5288 409.6507,677.3079 C399.9627,692.6334 384.2642,693.3878 375.7507,676.0874 C357.8367,667.6836 354.2466,658.1017 369.9272,643.664 C356.7784,638.012 351.05,625.3341 365.15,615.1215 C354.1783,602.9825 358.1275,592.8552 372.5793,587.5721 C360.7179,574.8747 361.1952,564.4638 378.6753,557.7678 " fill="#F5EEF9" style="stroke:#181818;stroke-width:0.9375;"/><text fill="#000000" font-family="sans-serif" font-size="30" font-weight="bold" lengthAdjust="spacing" textLength="255" x="395.625" y="606.1523">Services externes</text><text fill="#000000" font-family="sans-serif" font-size="30" lengthAdjust="spacing" textLength="401.25" x="395.625" y="643.8867">Mobile Money &#183; Carte bancaire</text></g><g id="elem_GMN9"><path d="M749.0625,368.7598 L749.0625,404.3848 L708.225,411.8848 L749.0625,419.3848 L749.0625,455.4785 A11.25,11.25 0 0 0 760.3125,466.7285 L1294.6875,466.7285 A11.25,11.25 0 0 0 1305.9375,455.4785 L1305.9375,376.2598 L1287.1875,357.5098 L760.3125,357.5098 A11.25,11.25 0 0 0 749.0625,368.7598 " fill="#FFF8E8" style="stroke:#E5AE45;stroke-width:0.9375;"/><path d="M1287.1875,357.5098 L1287.1875,370.6348 A5.625,5.625 0 0 0 1292.8125,376.2598 L1305.9375,376.2598 L1287.1875,357.5098 " fill="#FFF8E8" style="stroke:#E5AE45;stroke-width:0.9375;"/><text fill="#5B481E" font-family="sans-serif" font-size="30" lengthAdjust="spacing" textLength="480" x="767.8125" y="405.5273">L'application orchestre les annonces,</text><text fill="#5B481E" font-family="sans-serif" font-size="30" lengthAdjust="spacing" textLength="502.5" x="767.8125" y="443.2617">commandes, livraisons et rendez-vous.</text></g><!--link CLIENT to APP--><g id="link_CLIENT_APP"><path d="M410.625,284.891 C410.625,284.891 410.625,319.4285 410.625,319.4285 " fill="none" id="CLIENT-to-APP" style="stroke:#456A7D;stroke-width:2.625;"/><polygon fill="#456A7D" points="410.625,328.8035,418.125,311.9285,410.625,319.4285,403.125,311.9285,410.625,328.8035" style="stroke:#456A7D;stroke-width:2.625;"/><text fill="#29485B" font-family="sans-serif" font-size="30" lengthAdjust="spacing" textLength="95.625" x="391.4063" y="342.6773">HTTPS</text></g><!--link APP to DB--><g id="link_APP_DB"><path d="M226.875,494.6473 C226.875,494.6473 226.875,530.816 226.875,530.816 " fill="none" id="APP-to-DB" style="stroke:#456A7D;stroke-width:2.625;"/><polygon fill="#456A7D" points="226.875,540.191,234.375,523.316,226.875,530.816,219.375,523.316,226.875,540.191" style="stroke:#456A7D;stroke-width:2.625;"/><text fill="#29485B" font-family="sans-serif" font-size="30" lengthAdjust="spacing" textLength="196.875" x="20.625" y="553.2586">Eloquent / SQL</text></g><!--link APP to PAYMENT--><g id="link_APP_PAYMENT"><path d="M533.9063,494.6473 C533.9063,494.6473 533.9063,529.5598 533.9063,529.5598 " fill="none" id="APP-to-PAYMENT" style="stroke:#456A7D;stroke-width:2.625;"/><polygon fill="#456A7D" points="533.9063,538.9348,541.4063,522.0598,533.9063,529.5598,526.4063,522.0598,533.9063,538.9348" style="stroke:#456A7D;stroke-width:2.625;"/><text fill="#29485B" font-family="sans-serif" font-size="30" lengthAdjust="spacing" textLength="196.875" x="327.6563" y="552.6211">encaissements</text><text fill="#29485B" font-family="sans-serif" font-size="30" lengthAdjust="spacing" textLength="181.875" x="335.1563" y="590.3555">et versements</text></g><!--SRC=[ZLRDRkCs4BxhAGRRGu1WayQs7Civ591iQRSBn_3MRe42kT0IRHEHI9Mab7XFVOW-G8_DlK3lzPlqIJgK79UsjKe3190vtyptpV1dvWBcUfjIY4MM5Hp- -VKtI1XPIv9bL46Oqd8aEAUnTYvW_jC7k8ELa1dHKEAQa8ocmAc6tU-WHQ4fQCBIb5x3R6gmz3aNKiE665EoUranpZGJ_DfHZupd16bWIUB7jHG5JqOY5HA-YQe_2v7a33hUZRMYDYGHJuolOKLIHIrB5IWMabC9dQvbI1dgtEOKKD16sD7fYXIfZWJNKv9Hc1EkvbIoLJDcphvGwDnQnWNJAMrrFo0gvswtoRHFlZFeTTsn1V2b54zxezk_zGTdHikxEtIzVd0AM6nO_CYfKj2vTYtZL6WQD5JV2xrJb909bNj4sFT3jt-2i4Jq0zVhX9PzXXnaVHnaw0S3Vz00EjFZHdvqUmwqQnOXPQyPKf_kfKWJkognPYNJstEocyYBUar8Mtit6eoFgxn7jUxZ7ZDc91CyQQfxR-orEDWAnjwmtuqQC_ggo55Ab0hUl6mrh3NT2lAH4eISnGlTg1Vwf-2smeHSDsx5gR0zhbLPZMbZcslISEZ3SJI8EcUmLguAqaRrew8nKGraFfvfhm5eq_N2WJkyEGUrvaP_AIYFwOIjy9-VNBXHu8uwRUWtT-3LOqQaPZ7B2TTl9zVar9heguDl-il_5rN3stTi3_s00VFpo8CeYCPVXRVMaek4AfeVF-sIyCTgqMsugFT4hXc7pas3RKQInFGsx-X9EvJlrTorVGFntEnMhxcd1_S_iAD5ZiqRtqYj1ROw9h6pOuzsj6bDs47Y3TEuL4WAYcLvobPizuBj_CAU3XpZHVWQFTvTNixaxaLHZaGOwFBoWKz9oTP8MqXueii77gJuUi3VVy42vmLiv8dv_aHACeybo_Kx80f6a-_3wU9mf8u8_1nrn5LuUqWnL1DCiiInvCxC0fggzpZRS2rtVwR8Zh_axWyCeY3RlMX69MeJ6bEgWocZu_CFw5BBomcZ6IQYAaN-R5RBmHSk8PeiyK8QDMDanv8eGt-_dN-ULEXnSEYcSIgAn21nCYXPZEpqMLCSKceNiMIOrhtWT6j8HxZNsBC8ZmbkHXLhvlzyNnKZweTXD7ISVN6khhwhLDt1nyLYDdVCjrb3xZiiZ30dMCEtW9eEjjTOE9uP1gNg31_C75TIkV_fE1pREaYstcWGAyFY04mkY5LvWMU3Aeq7mnIKS2xmkgZtY3FZ9E69gNxAIeaifhP882ckVhagHQ6k7Vm6m_8l]--></g></svg>