<?xml version="1.0" encoding="us-ascii" standalone="no"?><svg xmlns="http://www.w3.org/2000/svg" xmlns:xlink="http://www.w3.org/1999/xlink" contentStyleType="text/css" height="1996.875px" preserveAspectRatio="none" style="width:2446px;height:1996px;background:#FFFFFF;" version="1.1" viewBox="0 0 2446 1996" width="2446.875px" zoomAndPan="magnify"><defs/><g><text fill="#17324D" font-family="sans-serif" font-size="41.25" font-weight="bold" lengthAdjust="spacing" textLength="555" x="932.8125" y="69.071">Mod&#232;le m&#233;tier d'ElevConnect</text><!--class Utilisateur--><g id="elem_Utilisateur"><rect codeLine="64" fill="#FFFFFF" height="297.4219" id="Utilisateur" rx="11.25" ry="11.25" style="stroke:#2F7D5B;stroke-width:0.9375;" width="204.375" x="960" y="119.3848"/><rect fill="#E4F3EA" height="71.4844" rx="11.25" ry="11.25" style="stroke:#E4F3EA;stroke-width:0.9375;" width="204.375" x="960" y="119.3848"/><rect fill="#E4F3EA" height="11.25" style="stroke:#E4F3EA;stroke-width:0.9375;" width="204.375" x="960" y="179.6191"/><rect codeLine="64" fill="none" height="297.4219" id="Utilisateur" rx="11.25" ry="11.25" style="stroke:#2F7D5B;stroke-width:0.9375;" width="204.375" x="960" y="119.3848"/><ellipse cx="988.125" cy="155.127" fill="#ADD1B2" rx="20.625" ry="20.625" style="stroke:#181818;stroke-width:1.875;"/><path d="M992.9297,147.5098 Q993.2227,147.1289 993.5449,146.9531 Q993.8672,146.748 994.248,146.748 Q994.9219,146.748 995.332,147.2168 Q995.7422,147.6563 995.7422,148.7402 L995.7422,151.2891 Q995.7422,152.373 995.332,152.8418 Q994.9219,153.2813 994.248,153.2813 Q993.6621,153.2813 993.2813,152.959 Q992.9297,152.6074 992.7539,151.6992 Q992.6367,151.084 992.3438,150.7324 Q991.7285,150.0879 990.6445,149.707 Q989.5898,149.2969 988.5059,149.2969 Q987.1582,149.2969 986.0156,149.8828 Q984.9023,150.4688 984.0234,151.7871 Q983.1738,153.1055 983.1738,154.9219 L983.1738,156.8555 Q983.1738,159.0234 984.7266,160.4883 Q986.3086,161.9238 989.1211,161.9238 Q990.791,161.9238 991.9336,161.4844 Q992.6074,161.2207 993.3691,160.4297 Q993.8379,159.9609 994.1016,159.8438 Q994.3652,159.6973 994.7168,159.6973 Q995.3027,159.6973 995.7422,160.166 Q996.2109,160.6055 996.2109,161.2207 Q996.2109,161.8359 995.5957,162.5391 Q994.7168,163.5645 993.3105,164.1504 Q991.4063,164.9414 989.1211,164.9414 Q986.4551,164.9414 984.3164,163.8281 Q982.5879,162.9492 981.3574,161.0742 Q980.1563,159.1699 980.1563,156.9141 L980.1563,154.8926 Q980.1563,152.5488 981.2402,150.5273 Q982.3535,148.4766 984.2871,147.3926 Q986.2207,146.2793 988.3887,146.2793 Q989.6777,146.2793 990.8203,146.6016 Q991.9629,146.8945 992.9297,147.5098 Z " fill="#000000"/><text fill="#17324D" font-family="sans-serif" font-size="30" lengthAdjust="spacing" textLength="129.375" x="1021.875" y="167.4023">Utilisateur</text><line style="stroke:#2F7D5B;stroke-width:0.9375;" x1="961.875" x2="1162.5" y1="190.8691" y2="190.8691"/><text fill="#000000" font-family="sans-serif" font-size="30" lengthAdjust="spacing" textLength="24.375" x="978.75" y="237.0117">id</text><text fill="#000000" font-family="sans-serif" font-size="30" lengthAdjust="spacing" textLength="56.25" x="978.75" y="289.7461">nom</text><text fill="#000000" font-family="sans-serif" font-size="30" lengthAdjust="spacing" textLength="71.25" x="978.75" y="342.4805">email</text><text fill="#000000" font-family="sans-serif" font-size="30" lengthAdjust="spacing" textLength="48.75" x="978.75" y="395.2148">role</text></g><!--class Annonce--><g id="elem_Annonce"><rect codeLine="70" fill="#FFFFFF" height="350.1563" id="Annonce" rx="11.25" ry="11.25" style="stroke:#2F7D5B;stroke-width:0.9375;" width="189.375" x="286.875" y="511.2598"/><rect fill="#E4F3EA" height="71.4844" rx="11.25" ry="11.25" style="stroke:#E4F3EA;stroke-width:0.9375;" width="189.375" x="286.875" y="511.2598"/><rect fill="#E4F3EA" height="11.25" style="stroke:#E4F3EA;stroke-width:0.9375;" width="189.375" x="286.875" y="571.4941"/><rect codeLine="70" fill="none" height="350.1563" id="Annonce" rx="11.25" ry="11.25" style="stroke:#2F7D5B;stroke-width:0.9375;" width="189.375" x="286.875" y="511.2598"/><ellipse cx="315" cy="547.002" fill="#ADD1B2" rx="20.625" ry="20.625" style="stroke:#181818;stroke-width:1.875;"/><path d="M319.8047,539.3848 Q320.0977,539.0039 320.4199,538.8281 Q320.7422,538.623 321.123,538.623 Q321.7969,538.623 322.207,539.0918 Q322.6172,539.5313 322.6172,540.6152 L322.6172,543.1641 Q322.6172,544.248 322.207,544.7168 Q321.7969,545.1563 321.123,545.1563 Q320.5371,545.1563 320.1563,544.834 Q319.8047,544.4824 319.6289,543.5742 Q319.5117,542.959 319.2188,542.6074 Q318.6035,541.9629 317.5195,541.582 Q316.4648,541.1719 315.3809,541.1719 Q314.0332,541.1719 312.8906,541.7578 Q311.7773,542.3438 310.8984,543.6621 Q310.0488,544.9805 310.0488,546.7969 L310.0488,548.7305 Q310.0488,550.8984 311.6016,552.3633 Q313.1836,553.7988 315.9961,553.7988 Q317.666,553.7988 318.8086,553.3594 Q319.4824,553.0957 320.2441,552.3047 Q320.7129,551.8359 320.9766,551.7188 Q321.2402,551.5723 321.5918,551.5723 Q322.1777,551.5723 322.6172,552.041 Q323.0859,552.4805 323.0859,553.0957 Q323.0859,553.7109 322.4707,554.4141 Q321.5918,555.4395 320.1855,556.0254 Q318.2813,556.8164 315.9961,556.8164 Q313.3301,556.8164 311.1914,555.7031 Q309.4629,554.8242 308.2324,552.9492 Q307.0313,551.0449 307.0313,548.7891 L307.0313,546.7676 Q307.0313,544.4238 308.1152,542.4023 Q309.2285,540.3516 311.1621,539.2676 Q313.0957,538.1543 315.2637,538.1543 Q316.5527,538.1543 317.6953,538.4766 Q318.8379,538.7695 319.8047,539.3848 Z " fill="#000000"/><text fill="#17324D" font-family="sans-serif" font-size="30" lengthAdjust="spacing" textLength="114.375" x="348.75" y="559.2773">Annonce</text><line style="stroke:#2F7D5B;stroke-width:0.9375;" x1="288.75" x2="474.375" y1="582.7441" y2="582.7441"/><text fill="#000000" font-family="sans-serif" font-size="30" lengthAdjust="spacing" textLength="24.375" x="305.625" y="628.8867">id</text><text fill="#000000" font-family="sans-serif" font-size="30" lengthAdjust="spacing" textLength="54.375" x="305.625" y="681.6211">type</text><text fill="#000000" font-family="sans-serif" font-size="30" lengthAdjust="spacing" textLength="148.125" x="305.625" y="734.3555">prixUnitaire</text><text fill="#000000" font-family="sans-serif" font-size="30" lengthAdjust="spacing" textLength="103.125" x="305.625" y="787.0898">quantite</text><text fill="#000000" font-family="sans-serif" font-size="30" lengthAdjust="spacing" textLength="69.375" x="305.625" y="839.8242">statut</text></g><!--class ReductionAnnonce--><g id="elem_ReductionAnnonce"><rect codeLine="77" fill="#FFFFFF" height="191.9531" id="ReductionAnnonce" rx="11.25" ry="11.25" style="stroke:#2F7D5B;stroke-width:0.9375;" width="320.625" x="13.125" y="1035.3223"/><rect fill="#E4F3EA" height="71.4844" rx="11.25" ry="11.25" style="stroke:#E4F3EA;stroke-width:0.9375;" width="320.625" x="13.125" y="1035.3223"/><rect fill="#E4F3EA" height="11.25" style="stroke:#E4F3EA;stroke-width:0.9375;" width="320.625" x="13.125" y="1095.5566"/><rect codeLine="77" fill="none" height="191.9531" id="ReductionAnnonce" rx="11.25" ry="11.25" style="stroke:#2F7D5B;stroke-width:0.9375;" width="320.625" x="13.125" y="1035.3223"/><ellipse cx="41.25" cy="1071.0645" fill="#ADD1B2" rx="20.625" ry="20.625" style="stroke:#181818;stroke-width:1.875;"/><path d="M46.0547,1063.4473 Q46.3477,1063.0664 46.6699,1062.8906 Q46.9922,1062.6855 47.373,1062.6855 Q48.0469,1062.6855 48.457,1063.1543 Q48.8672,1063.5938 48.8672,1064.6777 L48.8672,1067.2266 Q48.8672,1068.3105 48.457,1068.7793 Q48.0469,1069.2188 47.373,1069.2188 Q46.7871,1069.2188 46.4063,1068.8965 Q46.0547,1068.5449 45.8789,1067.6367 Q45.7617,1067.0215 45.4688,1066.6699 Q44.8535,1066.0254 43.7695,1065.6445 Q42.7148,1065.2344 41.6309,1065.2344 Q40.2832,1065.2344 39.1406,1065.8203 Q38.0273,1066.4063 37.1484,1067.7246 Q36.2988,1069.043 36.2988,1070.8594 L36.2988,1072.793 Q36.2988,1074.9609 37.8516,1076.4258 Q39.4336,1077.8613 42.2461,1077.8613 Q43.916,1077.8613 45.0586,1077.4219 Q45.7324,1077.1582 46.4941,1076.3672 Q46.9629,1075.8984 47.2266,1075.7813 Q47.4902,1075.6348 47.8418,1075.6348 Q48.4277,1075.6348 48.8672,1076.1035 Q49.3359,1076.543 49.3359,1077.1582 Q49.3359,1077.7734 48.7207,1078.4766 Q47.8418,1079.502 46.4355,1080.0879 Q44.5313,1080.8789 42.2461,1080.8789 Q39.5801,1080.8789 37.4414,1079.7656 Q35.7129,1078.8867 34.4824,1077.0117 Q33.2813,1075.1074 33.2813,1072.8516 L33.2813,1070.8301 Q33.2813,1068.4863 34.3652,1066.4648 Q35.4785,1064.4141 37.4121,1063.3301 Q39.3457,1062.2168 41.5137,1062.2168 Q42.8027,1062.2168 43.9453,1062.5391 Q45.0879,1062.832 46.0547,1063.4473 Z " fill="#000000"/><text fill="#17324D" font-family="sans-serif" font-size="30" lengthAdjust="spacing" textLength="245.625" x="75" y="1083.3398">ReductionAnnonce</text><line style="stroke:#2F7D5B;stroke-width:0.9375;" x1="15" x2="331.875" y1="1106.8066" y2="1106.8066"/><text fill="#000000" font-family="sans-serif" font-size="30" lengthAdjust="spacing" textLength="150" x="31.875" y="1152.9492">quantiteMin</text><text fill="#000000" font-family="sans-serif" font-size="30" lengthAdjust="spacing" textLength="163.125" x="31.875" y="1205.6836">pourcentage</text></g><!--class Commande--><g id="elem_Commande"><rect codeLine="81" fill="#FFFFFF" height="350.1563" id="Commande" rx="11.25" ry="11.25" style="stroke:#2F7D5B;stroke-width:0.9375;" width="228.75" x="419.0625" y="955.6348"/><rect fill="#E4F3EA" height="71.4844" rx="11.25" ry="11.25" style="stroke:#E4F3EA;stroke-width:0.9375;" width="228.75" x="419.0625" y="955.6348"/><rect fill="#E4F3EA" height="11.25" style="stroke:#E4F3EA;stroke-width:0.9375;" width="228.75" x="419.0625" y="1015.8691"/><rect codeLine="81" fill="none" height="350.1563" id="Commande" rx="11.25" ry="11.25" style="stroke:#2F7D5B;stroke-width:0.9375;" width="228.75" x="419.0625" y="955.6348"/><ellipse cx="447.1875" cy="991.377" fill="#ADD1B2" rx="20.625" ry="20.625" style="stroke:#181818;stroke-width:1.875;"/><path d="M451.9922,983.7598 Q452.2852,983.3789 452.6074,983.2031 Q452.9297,982.998 453.3105,982.998 Q453.9844,982.998 454.3945,983.4668 Q454.8047,983.9063 454.8047,984.9902 L454.8047,987.5391 Q454.8047,988.623 454.3945,989.0918 Q453.9844,989.5313 453.3105,989.5313 Q452.7246,989.5313 452.3438,989.209 Q451.9922,988.8574 451.8164,987.9492 Q451.6992,987.334 451.4063,986.9824 Q450.791,986.3379 449.707,985.957 Q448.6523,985.5469 447.5684,985.5469 Q446.2207,985.5469 445.0781,986.1328 Q443.9648,986.7188 443.0859,988.0371 Q442.2363,989.3555 442.2363,991.1719 L442.2363,993.1055 Q442.2363,995.2734 443.7891,996.7383 Q445.3711,998.1738 448.1836,998.1738 Q449.8535,998.1738 450.9961,997.7344 Q451.6699,997.4707 452.4316,996.6797 Q452.9004,996.2109 453.1641,996.0938 Q453.4277,995.9473 453.7793,995.9473 Q454.3652,995.9473 454.8047,996.416 Q455.2734,996.8555 455.2734,997.4707 Q455.2734,998.0859 454.6582,998.7891 Q453.7793,999.8145 452.373,1000.4004 Q450.4688,1001.1914 448.1836,1001.1914 Q445.5176,1001.1914 443.3789,1000.0781 Q441.6504,999.1992 440.4199,997.3242 Q439.2188,995.4199 439.2188,993.1641 L439.2188,991.1426 Q439.2188,988.7988 440.3027,986.7773 Q441.416,984.7266 443.3496,983.6426 Q445.2832,982.5293 447.4512,982.5293 Q448.7402,982.5293 449.8828,982.8516 Q451.0254,983.1445 451.9922,983.7598 Z " fill="#000000"/><text fill="#17324D" font-family="sans-serif" font-size="30" lengthAdjust="spacing" textLength="153.75" x="480.9375" y="1003.6523">Commande</text><line style="stroke:#2F7D5B;stroke-width:0.9375;" x1="420.9375" x2="645.9375" y1="1027.1191" y2="1027.1191"/><text fill="#000000" font-family="sans-serif" font-size="30" lengthAdjust="spacing" textLength="24.375" x="437.8125" y="1073.2617">id</text><text fill="#000000" font-family="sans-serif" font-size="30" lengthAdjust="spacing" textLength="103.125" x="437.8125" y="1125.9961">quantite</text><text fill="#000000" font-family="sans-serif" font-size="30" lengthAdjust="spacing" textLength="148.125" x="437.8125" y="1178.7305">montantNet</text><text fill="#000000" font-family="sans-serif" font-size="30" lengthAdjust="spacing" textLength="161.25" x="437.8125" y="1231.4648">modeRetrait</text><text fill="#000000" font-family="sans-serif" font-size="30" lengthAdjust="spacing" textLength="69.375" x="437.8125" y="1284.1992">statut</text></g><!--class Paiement--><g id="elem_Paiement"><rect codeLine="88" fill="#FFFFFF" height="244.6875" id="Paiement" rx="11.25" ry="11.25" style="stroke:#2F7D5B;stroke-width:0.9375;" width="200.625" x="348.75" y="1400.0098"/><rect fill="#E4F3EA" height="71.4844" rx="11.25" ry="11.25" style="stroke:#E4F3EA;stroke-width:0.9375;" width="200.625" x="348.75" y="1400.0098"/><rect fill="#E4F3EA" height="11.25" style="stroke:#E4F3EA;stroke-width:0.9375;" width="200.625" x="348.75" y="1460.2441"/><rect codeLine="88" fill="none" height="244.6875" id="Paiement" rx="11.25" ry="11.25" style="stroke:#2F7D5B;stroke-width:0.9375;" width="200.625" x="348.75" y="1400.0098"/><ellipse cx="376.875" cy="1435.752" fill="#ADD1B2" rx="20.625" ry="20.625" style="stroke:#181818;stroke-width:1.875;"/><path d="M381.6797,1428.1348 Q381.9727,1427.7539 382.2949,1427.5781 Q382.6172,1427.373 382.998,1427.373 Q383.6719,1427.373 384.082,1427.8418 Q384.4922,1428.2813 384.4922,1429.3652 L384.4922,1431.9141 Q384.4922,1432.998 384.082,1433.4668 Q383.6719,1433.9063 382.998,1433.9063 Q382.4121,1433.9063 382.0313,1433.584 Q381.6797,1433.2324 381.5039,1432.3242 Q381.3867,1431.709 381.0938,1431.3574 Q380.4785,1430.7129 379.3945,1430.332 Q378.3398,1429.9219 377.2559,1429.9219 Q375.9082,1429.9219 374.7656,1430.5078 Q373.6523,1431.0938 372.7734,1432.4121 Q371.9238,1433.7305 371.9238,1435.5469 L371.9238,1437.4805 Q371.9238,1439.6484 373.4766,1441.1133 Q375.0586,1442.5488 377.8711,1442.5488 Q379.541,1442.5488 380.6836,1442.1094 Q381.3574,1441.8457 382.1191,1441.0547 Q382.5879,1440.5859 382.8516,1440.4688 Q383.1152,1440.3223 383.4668,1440.3223 Q384.0527,1440.3223 384.4922,1440.791 Q384.9609,1441.2305 384.9609,1441.8457 Q384.9609,1442.4609 384.3457,1443.1641 Q383.4668,1444.1895 382.0605,1444.7754 Q380.1563,1445.5664 377.8711,1445.5664 Q375.2051,1445.5664 373.0664,1444.4531 Q371.3379,1443.5742 370.1074,1441.6992 Q368.9063,1439.7949 368.9063,1437.5391 L368.9063,1435.5176 Q368.9063,1433.1738 369.9902,1431.1523 Q371.1035,1429.1016 373.0371,1428.0176 Q374.9707,1426.9043 377.1387,1426.9043 Q378.4277,1426.9043 379.5703,1427.2266 Q380.7129,1427.5195 381.6797,1428.1348 Z " fill="#000000"/><text fill="#17324D" font-family="sans-serif" font-size="30" lengthAdjust="spacing" textLength="125.625" x="410.625" y="1448.0273">Paiement</text><line style="stroke:#2F7D5B;stroke-width:0.9375;" x1="350.625" x2="547.5" y1="1471.4941" y2="1471.4941"/><text fill="#000000" font-family="sans-serif" font-size="30" lengthAdjust="spacing" textLength="54.375" x="367.5" y="1517.6367">total</text><text fill="#000000" font-family="sans-serif" font-size="30" lengthAdjust="spacing" textLength="86.25" x="367.5" y="1570.3711">moyen</text><text fill="#000000" font-family="sans-serif" font-size="30" lengthAdjust="spacing" textLength="69.375" x="367.5" y="1623.1055">statut</text></g><!--class Livraison--><g id="elem_Livraison"><rect codeLine="93" fill="#FFFFFF" height="244.6875" id="Livraison" rx="11.25" ry="11.25" style="stroke:#2F7D5B;stroke-width:0.9375;" width="193.125" x="678.75" y="1400.0098"/><rect fill="#E4F3EA" height="71.4844" rx="11.25" ry="11.25" style="stroke:#E4F3EA;stroke-width:0.9375;" width="193.125" x="678.75" y="1400.0098"/><rect fill="#E4F3EA" height="11.25" style="stroke:#E4F3EA;stroke-width:0.9375;" width="193.125" x="678.75" y="1460.2441"/><rect codeLine="93" fill="none" height="244.6875" id="Livraison" rx="11.25" ry="11.25" style="stroke:#2F7D5B;stroke-width:0.9375;" width="193.125" x="678.75" y="1400.0098"/><ellipse cx="706.875" cy="1435.752" fill="#ADD1B2" rx="20.625" ry="20.625" style="stroke:#181818;stroke-width:1.875;"/><path d="M711.6797,1428.1348 Q711.9727,1427.7539 712.2949,1427.5781 Q712.6172,1427.373 712.998,1427.373 Q713.6719,1427.373 714.082,1427.8418 Q714.4922,1428.2813 714.4922,1429.3652 L714.4922,1431.9141 Q714.4922,1432.998 714.082,1433.4668 Q713.6719,1433.9063 712.998,1433.9063 Q712.4121,1433.9063 712.0313,1433.584 Q711.6797,1433.2324 711.5039,1432.3242 Q711.3867,1431.709 711.0938,1431.3574 Q710.4785,1430.7129 709.3945,1430.332 Q708.3398,1429.9219 707.2559,1429.9219 Q705.9082,1429.9219 704.7656,1430.5078 Q703.6523,1431.0938 702.7734,1432.4121 Q701.9238,1433.7305 701.9238,1435.5469 L701.9238,1437.4805 Q701.9238,1439.6484 703.4766,1441.1133 Q705.0586,1442.5488 707.8711,1442.5488 Q709.541,1442.5488 710.6836,1442.1094 Q711.3574,1441.8457 712.1191,1441.0547 Q712.5879,1440.5859 712.8516,1440.4688 Q713.1152,1440.3223 713.4668,1440.3223 Q714.0527,1440.3223 714.4922,1440.791 Q714.9609,1441.2305 714.9609,1441.8457 Q714.9609,1442.4609 714.3457,1443.1641 Q713.4668,1444.1895 712.0605,1444.7754 Q710.1563,1445.5664 707.8711,1445.5664 Q705.2051,1445.5664 703.0664,1444.4531 Q701.3379,1443.5742 700.1074,1441.6992 Q698.9063,1439.7949 698.9063,1437.5391 L698.9063,1435.5176 Q698.9063,1433.1738 699.9902,1431.1523 Q701.1035,1429.1016 703.0371,1428.0176 Q704.9707,1426.9043 707.1387,1426.9043 Q708.4277,1426.9043 709.5703,1427.2266 Q710.7129,1427.5195 711.6797,1428.1348 Z " fill="#000000"/><text fill="#17324D" font-family="sans-serif" font-size="30" lengthAdjust="spacing" textLength="118.125" x="740.625" y="1448.0273">Livraison</text><line style="stroke:#2F7D5B;stroke-width:0.9375;" x1="680.625" x2="870" y1="1471.4941" y2="1471.4941"/><text fill="#000000" font-family="sans-serif" font-size="30" lengthAdjust="spacing" textLength="69.375" x="697.5" y="1517.6367">statut</text><text fill="#000000" font-family="sans-serif" font-size="30" lengthAdjust="spacing" textLength="108.75" x="697.5" y="1570.3711">codeQR</text><text fill="#000000" font-family="sans-serif" font-size="30" lengthAdjust="spacing" textLength="140.625" x="697.5" y="1623.1055">verification</text></g><!--class Versement--><g id="elem_Versement"><rect codeLine="98" fill="#FFFFFF" height="244.6875" id="Versement" rx="11.25" ry="11.25" style="stroke:#2F7D5B;stroke-width:0.9375;" width="217.5" x="250.3125" y="1739.3848"/><rect fill="#E4F3EA" height="71.4844" rx="11.25" ry="11.25" style="stroke:#E4F3EA;stroke-width:0.9375;" width="217.5" x="250.3125" y="1739.3848"/><rect fill="#E4F3EA" height="11.25" style="stroke:#E4F3EA;stroke-width:0.9375;" width="217.5" x="250.3125" y="1799.6191"/><rect codeLine="98" fill="none" height="244.6875" id="Versement" rx="11.25" ry="11.25" style="stroke:#2F7D5B;stroke-width:0.9375;" width="217.5" x="250.3125" y="1739.3848"/><ellipse cx="278.4375" cy="1775.127" fill="#ADD1B2" rx="20.625" ry="20.625" style="stroke:#181818;stroke-width:1.875;"/><path d="M283.2422,1767.5098 Q283.5352,1767.1289 283.8574,1766.9531 Q284.1797,1766.748 284.5605,1766.748 Q285.2344,1766.748 285.6445,1767.2168 Q286.0547,1767.6563 286.0547,1768.7402 L286.0547,1771.2891 Q286.0547,1772.373 285.6445,1772.8418 Q285.2344,1773.2813 284.5605,1773.2813 Q283.9746,1773.2813 283.5938,1772.959 Q283.2422,1772.6074 283.0664,1771.6992 Q282.9492,1771.084 282.6563,1770.7324 Q282.041,1770.0879 280.957,1769.707 Q279.9023,1769.2969 278.8184,1769.2969 Q277.4707,1769.2969 276.3281,1769.8828 Q275.2148,1770.4688 274.3359,1771.7871 Q273.4863,1773.1055 273.4863,1774.9219 L273.4863,1776.8555 Q273.4863,1779.0234 275.0391,1780.4883 Q276.6211,1781.9238 279.4336,1781.9238 Q281.1035,1781.9238 282.2461,1781.4844 Q282.9199,1781.2207 283.6816,1780.4297 Q284.1504,1779.9609 284.4141,1779.8438 Q284.6777,1779.6973 285.0293,1779.6973 Q285.6152,1779.6973 286.0547,1780.166 Q286.5234,1780.6055 286.5234,1781.2207 Q286.5234,1781.8359 285.9082,1782.5391 Q285.0293,1783.5645 283.623,1784.1504 Q281.7188,1784.9414 279.4336,1784.9414 Q276.7676,1784.9414 274.6289,1783.8281 Q272.9004,1782.9492 271.6699,1781.0742 Q270.4688,1779.1699 270.4688,1776.9141 L270.4688,1774.8926 Q270.4688,1772.5488 271.5527,1770.5273 Q272.666,1768.4766 274.5996,1767.3926 Q276.5332,1766.2793 278.7012,1766.2793 Q279.9902,1766.2793 281.1328,1766.6016 Q282.2754,1766.8945 283.2422,1767.5098 Z " fill="#000000"/><text fill="#17324D" font-family="sans-serif" font-size="30" lengthAdjust="spacing" textLength="142.5" x="312.1875" y="1787.4023">Versement</text><line style="stroke:#2F7D5B;stroke-width:0.9375;" x1="252.1875" x2="465.9375" y1="1810.8691" y2="1810.8691"/><text fill="#000000" font-family="sans-serif" font-size="30" lengthAdjust="spacing" textLength="103.125" x="269.0625" y="1857.0117">montant</text><text fill="#000000" font-family="sans-serif" font-size="30" lengthAdjust="spacing" textLength="153.75" x="269.0625" y="1909.7461">beneficiaire</text><text fill="#000000" font-family="sans-serif" font-size="30" lengthAdjust="spacing" textLength="69.375" x="269.0625" y="1962.4805">statut</text></g><!--class ServiceVeterinaire--><g id="elem_ServiceVeterinaire"><rect codeLine="103" fill="#FFFFFF" height="191.9531" id="ServiceVeterinaire" rx="11.25" ry="11.25" style="stroke:#2F7D5B;stroke-width:0.9375;" width="318.75" x="902.8125" y="590.9473"/><rect fill="#E4F3EA" height="71.4844" rx="11.25" ry="11.25" style="stroke:#E4F3EA;stroke-width:0.9375;" width="318.75" x="902.8125" y="590.9473"/><rect fill="#E4F3EA" height="11.25" style="stroke:#E4F3EA;stroke-width:0.9375;" width="318.75" x="902.8125" y="651.1816"/><rect codeLine="103" fill="none" height="191.9531" id="ServiceVeterinaire" rx="11.25" ry="11.25" style="stroke:#2F7D5B;stroke-width:0.9375;" width="318.75" x="902.8125" y="590.9473"/><ellipse cx="930.9375" cy="626.6895" fill="#ADD1B2" rx="20.625" ry="20.625" style="stroke:#181818;stroke-width:1.875;"/><path d="M935.7422,619.0723 Q936.0352,618.6914 936.3574,618.5156 Q936.6797,618.3105 937.0605,618.3105 Q937.7344,618.3105 938.1445,618.7793 Q938.5547,619.2188 938.5547,620.3027 L938.5547,622.8516 Q938.5547,623.9355 938.1445,624.4043 Q937.7344,624.8438 937.0605,624.8438 Q936.4746,624.8438 936.0938,624.5215 Q935.7422,624.1699 935.5664,623.2617 Q935.4492,622.6465 935.1563,622.2949 Q934.541,621.6504 933.457,621.2695 Q932.4023,620.8594 931.3184,620.8594 Q929.9707,620.8594 928.8281,621.4453 Q927.7148,622.0313 926.8359,623.3496 Q925.9863,624.668 925.9863,626.4844 L925.9863,628.418 Q925.9863,630.5859 927.5391,632.0508 Q929.1211,633.4863 931.9336,633.4863 Q933.6035,633.4863 934.7461,633.0469 Q935.4199,632.7832 936.1816,631.9922 Q936.6504,631.5234 936.9141,631.4063 Q937.1777,631.2598 937.5293,631.2598 Q938.1152,631.2598 938.5547,631.7285 Q939.0234,632.168 939.0234,632.7832 Q939.0234,633.3984 938.4082,634.1016 Q937.5293,635.127 936.123,635.7129 Q934.2188,636.5039 931.9336,636.5039 Q929.2676,636.5039 927.1289,635.3906 Q925.4004,634.5117 924.1699,632.6367 Q922.9688,630.7324 922.9688,628.4766 L922.9688,626.4551 Q922.9688,624.1113 924.0527,622.0898 Q925.166,620.0391 927.0996,618.9551 Q929.0332,617.8418 931.2012,617.8418 Q932.4902,617.8418 933.6328,618.1641 Q934.7754,618.457 935.7422,619.0723 Z " fill="#000000"/><text fill="#17324D" font-family="sans-serif" font-size="30" lengthAdjust="spacing" textLength="243.75" x="964.6875" y="638.9648">ServiceVeterinaire</text><line style="stroke:#2F7D5B;stroke-width:0.9375;" x1="904.6875" x2="1219.6875" y1="662.4316" y2="662.4316"/><text fill="#000000" font-family="sans-serif" font-size="30" lengthAdjust="spacing" textLength="48.75" x="921.5625" y="708.5742">titre</text><text fill="#000000" font-family="sans-serif" font-size="30" lengthAdjust="spacing" textLength="46.875" x="921.5625" y="761.3086">prix</text></g><!--class RendezVous--><g id="elem_RendezVous"><rect codeLine="107" fill="#FFFFFF" height="191.9531" id="RendezVous" rx="11.25" ry="11.25" style="stroke:#2F7D5B;stroke-width:0.9375;" width="241.875" x="1083.75" y="1035.3223"/><rect fill="#E4F3EA" height="71.4844" rx="11.25" ry="11.25" style="stroke:#E4F3EA;stroke-width:0.9375;" width="241.875" x="1083.75" y="1035.3223"/><rect fill="#E4F3EA" height="11.25" style="stroke:#E4F3EA;stroke-width:0.9375;" width="241.875" x="1083.75" y="1095.5566"/><rect codeLine="107" fill="none" height="191.9531" id="RendezVous" rx="11.25" ry="11.25" style="stroke:#2F7D5B;stroke-width:0.9375;" width="241.875" x="1083.75" y="1035.3223"/><ellipse cx="1111.875" cy="1071.0645" fill="#ADD1B2" rx="20.625" ry="20.625" style="stroke:#181818;stroke-width:1.875;"/><path d="M1116.6797,1063.4473 Q1116.9727,1063.0664 1117.2949,1062.8906 Q1117.6172,1062.6855 1117.998,1062.6855 Q1118.6719,1062.6855 1119.082,1063.1543 Q1119.4922,1063.5938 1119.4922,1064.6777 L1119.4922,1067.2266 Q1119.4922,1068.3105 1119.082,1068.7793 Q1118.6719,1069.2188 1117.998,1069.2188 Q1117.4121,1069.2188 1117.0313,1068.8965 Q1116.6797,1068.5449 1116.5039,1067.6367 Q1116.3867,1067.0215 1116.0938,1066.6699 Q1115.4785,1066.0254 1114.3945,1065.6445 Q1113.3398,1065.2344 1112.2559,1065.2344 Q1110.9082,1065.2344 1109.7656,1065.8203 Q1108.6523,1066.4063 1107.7734,1067.7246 Q1106.9238,1069.043 1106.9238,1070.8594 L1106.9238,1072.793 Q1106.9238,1074.9609 1108.4766,1076.4258 Q1110.0586,1077.8613 1112.8711,1077.8613 Q1114.541,1077.8613 1115.6836,1077.4219 Q1116.3574,1077.1582 1117.1191,1076.3672 Q1117.5879,1075.8984 1117.8516,1075.7813 Q1118.1152,1075.6348 1118.4668,1075.6348 Q1119.0527,1075.6348 1119.4922,1076.1035 Q1119.9609,1076.543 1119.9609,1077.1582 Q1119.9609,1077.7734 1119.3457,1078.4766 Q1118.4668,1079.502 1117.0605,1080.0879 Q1115.1563,1080.8789 1112.8711,1080.8789 Q1110.2051,1080.8789 1108.0664,1079.7656 Q1106.3379,1078.8867 1105.1074,1077.0117 Q1103.9063,1075.1074 1103.9063,1072.8516 L1103.9063,1070.8301 Q1103.9063,1068.4863 1104.9902,1066.4648 Q1106.1035,1064.4141 1108.0371,1063.3301 Q1109.9707,1062.2168 1112.1387,1062.2168 Q1113.4277,1062.2168 1114.5703,1062.5391 Q1115.7129,1062.832 1116.6797,1063.4473 Z " fill="#000000"/><text fill="#17324D" font-family="sans-serif" font-size="30" lengthAdjust="spacing" textLength="166.875" x="1145.625" y="1083.3398">RendezVous</text><line style="stroke:#2F7D5B;stroke-width:0.9375;" x1="1085.625" x2="1323.75" y1="1106.8066" y2="1106.8066"/><text fill="#000000" font-family="sans-serif" font-size="30" lengthAdjust="spacing" textLength="150" x="1102.5" y="1152.9492">datePrevue</text><text fill="#000000" font-family="sans-serif" font-size="30" lengthAdjust="spacing" textLength="69.375" x="1102.5" y="1205.6836">statut</text></g><!--class Notification--><g id="elem_Notification"><rect codeLine="111" fill="#FFFFFF" height="191.9531" id="Notification" rx="11.25" ry="11.25" style="stroke:#2F7D5B;stroke-width:0.9375;" width="221.25" x="1476.5625" y="590.9473"/><rect fill="#E4F3EA" height="71.4844" rx="11.25" ry="11.25" style="stroke:#E4F3EA;stroke-width:0.9375;" width="221.25" x="1476.5625" y="590.9473"/><rect fill="#E4F3EA" height="11.25" style="stroke:#E4F3EA;stroke-width:0.9375;" width="221.25" x="1476.5625" y="651.1816"/><rect codeLine="111" fill="none" height="191.9531" id="Notification" rx="11.25" ry="11.25" style="stroke:#2F7D5B;stroke-width:0.9375;" width="221.25" x="1476.5625" y="590.9473"/><ellipse cx="1504.6875" cy="626.6895" fill="#ADD1B2" rx="20.625" ry="20.625" style="stroke:#181818;stroke-width:1.875;"/><path d="M1509.4922,619.0723 Q1509.7852,618.6914 1510.1074,618.5156 Q1510.4297,618.3105 1510.8105,618.3105 Q1511.4844,618.3105 1511.8945,618.7793 Q1512.3047,619.2188 1512.3047,620.3027 L1512.3047,622.8516 Q1512.3047,623.9355 1511.8945,624.4043 Q1511.4844,624.8438 1510.8105,624.8438 Q1510.2246,624.8438 1509.8438,624.5215 Q1509.4922,624.1699 1509.3164,623.2617 Q1509.1992,622.6465 1508.9063,622.2949 Q1508.291,621.6504 1507.207,621.2695 Q1506.1523,620.8594 1505.0684,620.8594 Q1503.7207,620.8594 1502.5781,621.4453 Q1501.4648,622.0313 1500.5859,623.3496 Q1499.7363,624.668 1499.7363,626.4844 L1499.7363,628.418 Q1499.7363,630.5859 1501.2891,632.0508 Q1502.8711,633.4863 1505.6836,633.4863 Q1507.3535,633.4863 1508.4961,633.0469 Q1509.1699,632.7832 1509.9316,631.9922 Q1510.4004,631.5234 1510.6641,631.4063 Q1510.9277,631.2598 1511.2793,631.2598 Q1511.8652,631.2598 1512.3047,631.7285 Q1512.7734,632.168 1512.7734,632.7832 Q1512.7734,633.3984 1512.1582,634.1016 Q1511.2793,635.127 1509.873,635.7129 Q1507.9688,636.5039 1505.6836,636.5039 Q1503.0176,636.5039 1500.8789,635.3906 Q1499.1504,634.5117 1497.9199,632.6367 Q1496.7188,630.7324 1496.7188,628.4766 L1496.7188,626.4551 Q1496.7188,624.1113 1497.8027,622.0898 Q1498.916,620.0391 1500.8496,618.9551 Q1502.7832,617.8418 1504.9512,617.8418 Q1506.2402,617.8418 1507.3828,618.1641 Q1508.5254,618.457 1509.4922,619.0723 Z " fill="#000000"/><text fill="#17324D" font-family="sans-serif" font-size="30" lengthAdjust="spacing" textLength="146.25" x="1538.4375" y="638.9648">Notification</text><line style="stroke:#2F7D5B;stroke-width:0.9375;" x1="1478.4375" x2="1695.9375" y1="662.4316" y2="662.4316"/><text fill="#000000" font-family="sans-serif" font-size="30" lengthAdjust="spacing" textLength="101.25" x="1495.3125" y="708.5742">contenu</text><text fill="#000000" font-family="sans-serif" font-size="30" lengthAdjust="spacing" textLength="37.5" x="1495.3125" y="761.3086">lue</text></g><g id="elem_GMN24"><path d="M1783.125,643.4473 L1783.125,730.166 A11.25,11.25 0 0 0 1794.375,741.416 L2422.5,741.416 A11.25,11.25 0 0 0 2433.75,730.166 L2433.75,650.9473 L2415,632.1973 L1794.375,632.1973 A11.25,11.25 0 0 0 1783.125,643.4473 " fill="#FFF8E8" style="stroke:#E5AE45;stroke-width:0.9375;"/><path d="M2415,632.1973 L2415,645.3223 A5.625,5.625 0 0 0 2420.625,650.9473 L2433.75,650.9473 L2415,632.1973 " fill="#FFF8E8" style="stroke:#E5AE45;stroke-width:1.875;"/><text fill="#5B481E" font-family="sans-serif" font-size="30" lengthAdjust="spacing" textLength="596.25" x="1801.875" y="680.2148">R&#244;les : acheteur, &#233;leveur, vendeur, v&#233;t&#233;rinaire,</text><text fill="#5B481E" font-family="sans-serif" font-size="30" lengthAdjust="spacing" textLength="316.875" x="1801.875" y="717.9492">livreur ou administrateur.</text></g><g id="elem_GMN27"><path d="M553.125,1819.0723 L553.125,1905.791 A11.25,11.25 0 0 0 564.375,1917.041 L1080,1917.041 A11.25,11.25 0 0 0 1091.25,1905.791 L1091.25,1826.5723 L1072.5,1807.8223 L782.8125,1807.8223 L775.3125,1645.8223 L767.8125,1807.8223 L564.375,1807.8223 A11.25,11.25 0 0 0 553.125,1819.0723 " fill="#FFF8E8" style="stroke:#E5AE45;stroke-width:0.9375;"/><path d="M1072.5,1807.8223 L1072.5,1820.9473 A5.625,5.625 0 0 0 1078.125,1826.5723 L1091.25,1826.5723 L1072.5,1807.8223 " fill="#FFF8E8" style="stroke:#E5AE45;stroke-width:0.9375;"/><text fill="#5B481E" font-family="sans-serif" font-size="30" lengthAdjust="spacing" textLength="450" x="571.875" y="1855.8398">Cr&#233;&#233;e seulement si le client choisit</text><text fill="#5B481E" font-family="sans-serif" font-size="30" lengthAdjust="spacing" textLength="483.75" x="571.875" y="1893.5742">une livraison plut&#244;t qu'un retrait direct.</text></g><!--link Utilisateur to Annonce--><g id="link_Utilisateur_Annonce"><path codeLine="116" d="M1028.1188,417.9598 C1028.1188,486.3973 1028.1188,552.5098 1028.1188,552.5098 C1028.1188,552.5098 485.6437,552.5098 485.6437,552.5098 " fill="none" id="Utilisateur-to-Annonce" style="stroke:#456A7D;stroke-width:2.625;"/><polygon fill="#456A7D" points="476.2687,552.5098,493.1437,560.0098,485.6437,552.5098,493.1437,545.0098,476.2687,552.5098" style="stroke:#456A7D;stroke-width:2.625;"/><text fill="#29485B" font-family="sans-serif" font-size="30" lengthAdjust="spacing" textLength="78.75" x="696.6563" y="499.2773">publie</text><text fill="#29485B" font-family="sans-serif" font-size="30" lengthAdjust="spacing" textLength="157.5" x="657.2813" y="537.0117">[fournisseur]</text><text fill="#29485B" font-family="sans-serif" font-size="30" lengthAdjust="spacing" textLength="16.875" x="999.7589" y="470.6458">1</text><text fill="#29485B" font-family="sans-serif" font-size="30" lengthAdjust="spacing" textLength="43.125" x="498.8531" y="519.1571">0..*</text></g><!--reverse link Annonce to ReductionAnnonce--><g id="link_Annonce_ReductionAnnonce"><path codeLine="117" d="M310.3125,886.5785 C310.3125,886.5785 310.3125,1035.1723 310.3125,1035.1723 " fill="none" id="Annonce-backto-ReductionAnnonce" style="stroke:#456A7D;stroke-width:2.625;"/><polygon fill="#456A7D" points="310.3125,862.2035,302.8125,873.4535,310.3125,884.7035,317.8125,873.4535,310.3125,862.2035" style="stroke:#456A7D;stroke-width:2.625;"/><text fill="#29485B" font-family="sans-serif" font-size="30" lengthAdjust="spacing" textLength="108.75" x="319.6875" y="945.1336">propose</text><text fill="#29485B" font-family="sans-serif" font-size="30" lengthAdjust="spacing" textLength="16.875" x="279.8071" y="915.0656">1</text><text fill="#29485B" font-family="sans-serif" font-size="30" lengthAdjust="spacing" textLength="43.125" x="272.8271" y="1006.4145">0..*</text></g><!--link Utilisateur to Commande--><g id="link_Utilisateur_Commande"><path codeLine="118" d="M959.775,218.7598 C813.4313,218.7598 562.0313,218.7598 562.0313,218.7598 C562.0313,218.7598 562.0313,946.241 562.0313,946.241 " fill="none" id="Utilisateur-to-Commande" style="stroke:#456A7D;stroke-width:2.625;"/><polygon fill="#456A7D" points="562.0313,955.616,569.5313,938.741,562.0313,946.241,554.5313,938.741,562.0313,955.616" style="stroke:#456A7D;stroke-width:2.625;"/><text fill="#29485B" font-family="sans-serif" font-size="30" lengthAdjust="spacing" textLength="80.625" x="329.5313" y="330.3961">passe</text><text fill="#29485B" font-family="sans-serif" font-size="30" lengthAdjust="spacing" textLength="365.625" x="187.0313" y="368.1305">[&#8800; propri&#233;taire de l'annonce]</text><text fill="#29485B" font-family="sans-serif" font-size="30" lengthAdjust="spacing" textLength="16.875" x="920.9761" y="195.7046">1</text><text fill="#29485B" font-family="sans-serif" font-size="30" lengthAdjust="spacing" textLength="43.125" x="511.3704" y="926.3519">0..*</text></g><!--link Annonce to Commande--><g id="link_Annonce_Commande"><path codeLine="119" d="M447.6563,862.2035 C447.6563,862.2035 447.6563,945.7723 447.6563,945.7723 " fill="none" id="Annonce-to-Commande" style="stroke:#456A7D;stroke-width:2.625;"/><polygon fill="#456A7D" points="447.6563,955.1473,455.1563,938.2723,447.6563,945.7723,440.1563,938.2723,447.6563,955.1473" style="stroke:#456A7D;stroke-width:2.625;"/><text fill="#29485B" font-family="sans-serif" font-size="30" lengthAdjust="spacing" textLength="120" x="318.2813" y="888.2461">concerne</text><text fill="#29485B" font-family="sans-serif" font-size="30" lengthAdjust="spacing" textLength="16.875" x="460.9241" y="915.0656">1</text><text fill="#29485B" font-family="sans-serif" font-size="30" lengthAdjust="spacing" textLength="43.125" x="450.991" y="926.4776">0..*</text></g><!--reverse link Commande to Paiement--><g id="link_Commande_Paiement"><path codeLine="120" d="M484.2188,1331.1973 C484.2188,1331.1973 484.2188,1399.6535 484.2188,1399.6535 " fill="none" id="Commande-backto-Paiement" style="stroke:#456A7D;stroke-width:2.625;"/><polygon fill="#456A7D" points="484.2188,1306.8223,476.7188,1318.0723,484.2188,1329.3223,491.7188,1318.0723,484.2188,1306.8223" style="stroke:#456A7D;stroke-width:2.625;"/><text fill="#29485B" font-family="sans-serif" font-size="30" lengthAdjust="spacing" textLength="65.625" x="493.5938" y="1349.7023">r&#232;gle</text><text fill="#29485B" font-family="sans-serif" font-size="30" lengthAdjust="spacing" textLength="16.875" x="455.2625" y="1359.7015">1</text><text fill="#29485B" font-family="sans-serif" font-size="30" lengthAdjust="spacing" textLength="48.75" x="498.3171" y="1371.1454">0..1</text></g><!--reverse link Commande to Livraison--><g id="link_Commande_Livraison"><path codeLine="121" d="M672.4688,1266.8848 C672.4688,1266.8848 743.1188,1266.8848 743.1188,1266.8848 C743.1188,1266.8848 743.1188,1333.8973 743.1188,1399.3535 " fill="none" id="Commande-backto-Livraison" style="stroke:#456A7D;stroke-width:2.625;"/><polygon fill="#456A7D" points="648.0938,1266.8848,659.3438,1274.3848,670.5938,1266.8848,659.3438,1259.3848,648.0938,1266.8848" style="stroke:#456A7D;stroke-width:2.625;"/><text fill="#29485B" font-family="sans-serif" font-size="30" lengthAdjust="spacing" textLength="52.5" x="792.8063" y="1244.5523">livre</text><text fill="#29485B" font-family="sans-serif" font-size="30" lengthAdjust="spacing" textLength="133.125" x="752.4938" y="1282.2867">[optionnel]</text><text fill="#29485B" font-family="sans-serif" font-size="30" lengthAdjust="spacing" textLength="16.875" x="670.6937" y="1265.7506">1</text><text fill="#29485B" font-family="sans-serif" font-size="30" lengthAdjust="spacing" textLength="48.75" x="680.562" y="1370.8158">0..1</text></g><!--link Utilisateur to Livraison--><g id="link_Utilisateur_Livraison"><path codeLine="122" d="M959.325,318.1348 C888.6375,318.1348 807.5063,318.1348 807.5063,318.1348 C807.5063,318.1348 807.5063,1390.1848 807.5063,1390.1848 " fill="none" id="Utilisateur-to-Livraison" style="stroke:#456A7D;stroke-width:2.625;"/><polygon fill="#456A7D" points="807.5063,1399.5598,815.0063,1382.6848,807.5063,1390.1848,800.0063,1382.6848,807.5063,1399.5598" style="stroke:#456A7D;stroke-width:2.625;"/><text fill="#29485B" font-family="sans-serif" font-size="30" lengthAdjust="spacing" textLength="88.125" x="708.1313" y="725.0086">assure</text><text fill="#29485B" font-family="sans-serif" font-size="30" lengthAdjust="spacing" textLength="91.875" x="706.2563" y="762.743">[livreur]</text><text fill="#29485B" font-family="sans-serif" font-size="30" lengthAdjust="spacing" textLength="48.75" x="888.3381" y="306.8921">0..1</text><text fill="#29485B" font-family="sans-serif" font-size="30" lengthAdjust="spacing" textLength="43.125" x="757.1895" y="1371.0424">0..*</text></g><!--link Paiement to Versement--><g id="link_Paiement_Versement"><path codeLine="123" d="M408.2813,1645.8223 C408.2813,1645.8223 408.2813,1729.6723 408.2813,1729.6723 " fill="none" id="Paiement-to-Versement" style="stroke:#456A7D;stroke-width:2.625;"/><polygon fill="#456A7D" points="408.2813,1739.0473,415.7813,1722.1723,408.2813,1729.6723,400.7813,1722.1723,408.2813,1739.0473" style="stroke:#456A7D;stroke-width:2.625;"/><text fill="#29485B" font-family="sans-serif" font-size="30" lengthAdjust="spacing" textLength="133.125" x="265.7813" y="1728.2648">d&#233;clenche</text><text fill="#29485B" font-family="sans-serif" font-size="30" lengthAdjust="spacing" textLength="16.875" x="378.6775" y="1698.2778">1</text><text fill="#29485B" font-family="sans-serif" font-size="30" lengthAdjust="spacing" textLength="43.125" x="423.854" y="1709.8434">1..*</text></g><!--link Utilisateur to ServiceVeterinaire--><g id="link_Utilisateur_ServiceVeterinaire"><path codeLine="124" d="M1096.2563,417.6223 C1096.2563,417.6223 1096.2563,581.5723 1096.2563,581.5723 " fill="none" id="Utilisateur-to-ServiceVeterinaire" style="stroke:#456A7D;stroke-width:2.625;"/><polygon fill="#456A7D" points="1096.2563,590.9473,1103.7563,574.0723,1096.2563,581.5723,1088.7563,574.0723,1096.2563,590.9473" style="stroke:#456A7D;stroke-width:2.625;"/><text fill="#29485B" font-family="sans-serif" font-size="30" lengthAdjust="spacing" textLength="108.75" x="1127.1938" y="540.1148">propose</text><text fill="#29485B" font-family="sans-serif" font-size="30" lengthAdjust="spacing" textLength="151.875" x="1105.6313" y="577.8492">[v&#233;t&#233;rinaire]</text><text fill="#29485B" font-family="sans-serif" font-size="30" lengthAdjust="spacing" textLength="16.875" x="1073.3261" y="470.2814">1</text><text fill="#29485B" font-family="sans-serif" font-size="30" lengthAdjust="spacing" textLength="43.125" x="1046.2414" y="562.2078">0..*</text></g><!--link ServiceVeterinaire to RendezVous--><g id="link_ServiceVeterinaire_RendezVous"><path codeLine="125" d="M1152.6563,782.441 C1152.6563,782.441 1152.6563,1025.8723 1152.6563,1025.8723 " fill="none" id="ServiceVeterinaire-to-RendezVous" style="stroke:#456A7D;stroke-width:2.625;"/><polygon fill="#456A7D" points="1152.6563,1035.2473,1160.1563,1018.3723,1152.6563,1025.8723,1145.1563,1018.3723,1152.6563,1035.2473" style="stroke:#456A7D;stroke-width:2.625;"/><text fill="#29485B" font-family="sans-serif" font-size="30" lengthAdjust="spacing" textLength="120" x="1023.2813" y="888.4336">concerne</text><text fill="#29485B" font-family="sans-serif" font-size="30" lengthAdjust="spacing" textLength="16.875" x="1137.8306" y="836.7">1</text><text fill="#29485B" font-family="sans-serif" font-size="30" lengthAdjust="spacing" textLength="43.125" x="1092.1479" y="1006.4986">0..*</text></g><!--link Utilisateur to RendezVous--><g id="link_Utilisateur_RendezVous"><path codeLine="126" d="M1164.7875,344.3848 C1218.6563,344.3848 1273.5938,344.3848 1273.5938,344.3848 C1273.5938,344.3848 1273.5938,1025.9098 1273.5938,1025.9098 " fill="none" id="Utilisateur-to-RendezVous" style="stroke:#456A7D;stroke-width:2.625;"/><polygon fill="#456A7D" points="1273.5938,1035.2848,1281.0938,1018.4098,1273.5938,1025.9098,1266.0938,1018.4098,1273.5938,1035.2848" style="stroke:#456A7D;stroke-width:2.625;"/><text fill="#29485B" font-family="sans-serif" font-size="30" lengthAdjust="spacing" textLength="123.75" x="1282.9688" y="577.5211">demande</text><text fill="#29485B" font-family="sans-serif" font-size="30" lengthAdjust="spacing" textLength="108.75" x="1290.4688" y="615.2555">[&#233;leveur]</text><text fill="#29485B" font-family="sans-serif" font-size="30" lengthAdjust="spacing" textLength="16.875" x="1186.7343" y="336.6401">1</text><text fill="#29485B" font-family="sans-serif" font-size="30" lengthAdjust="spacing" textLength="43.125" x="1227.8247" y="1006.5407">0..*</text></g><!--link Utilisateur to Notification--><g id="link_Utilisateur_Notification"><path codeLine="127" d="M1164.6563,269.3848 C1317.45,269.3848 1587.1875,269.3848 1587.1875,269.3848 C1587.1875,269.3848 1587.1875,581.4785 1587.1875,581.4785 " fill="none" id="Utilisateur-to-Notification" style="stroke:#456A7D;stroke-width:2.625;"/><polygon fill="#456A7D" points="1587.1875,590.8535,1594.6875,573.9785,1587.1875,581.4785,1579.6875,573.9785,1587.1875,590.8535" style="stroke:#456A7D;stroke-width:2.625;"/><text fill="#29485B" font-family="sans-serif" font-size="30" lengthAdjust="spacing" textLength="73.125" x="1449.4688" y="253.6523">re&#231;oit</text><text fill="#29485B" font-family="sans-serif" font-size="30" lengthAdjust="spacing" textLength="16.875" x="1186.587" y="252.4995">1</text><text fill="#29485B" font-family="sans-serif" font-size="30" lengthAdjust="spacing" textLength="43.125" x="1533.0205" y="562.1026">0..*</text></g><!--link Utilisateur to GMN24--><g id="link_Utilisateur_GMN24"><path d="M1164.4125,194.3848 C1427.6812,194.3848 2108.4375,194.3848 2108.4375,194.3848 C2108.4375,194.3848 2108.4375,503.8723 2108.4375,632.0098 " fill="none" id="Utilisateur-GMN24" style="stroke:#456A7D;stroke-width:2.625;stroke-dasharray:7.0,7.0;"/></g><!--SRC=[ZLVDRkCs4BxhAOZq462nCVmREpaKy9-s1JP16czoQNEWfR5DX2Ar5ELDTb6Wrzxx07lh-hvle3VP9-cGacNQLfG6YFKptymtVnnIfsIcdpcGG4PHAiYFl_uX8QDBHQC84ZBbi1vB8I3GtYcPtRyZbsGXLKGrMUCxgHXm8a2Jx2lHCjL0D6MSGuFSN1iiFCLIQRAYHXHccmKJJ3Cf6bxoo4HCaORCQV2uL38LuLXogSXFllrp467CI6lGTDuaAnhAJqmioOBo11o9DHH89K2HLjiHS8P-FiT0qA6LTAt3WgPS-rBeQne1cL6Hp42nHJLcnZu3QPqxmWzCSwXLBn5MkTsk4XN1j_gTTdVY08PAoK-5iDix7_QFX8vs-w8xw8qE0HzMB7WKa2IarUWwmckfOLIH_S5qS8YIAWHL8AQzuRJREq0uJlH6tK5hwiXla8CkzurS34VzORy2TEHFrn_wvyT0DsS-KdQg8NbtpoKFtQm4cgsPVZucQ_e3lrE5T7rl-_t9VfOBL6qT2yo4qKYAi2hldScWHi7rO3AuwBNzoeXUT7BCQPACNbriEQmsN0lv1IX2ZknDktvdEZm4roLcAdHbAGuTAt2rdkMOEhQPfXLDFvtuVRzr1Albif0wghi40ffKa0snfmSLG9UkC-rtBvh7eDhOu6CA8e3tR87_uc31ZKVTSQiE_Me5jXetL6aMi9WA_NfmLKgrWMuLXcP_-VzEvV3wYXNGTsWmFhRSzqV-v4LuRIw53261cEoDHKN5etdPQrOir2kgbaoGLfNiXeQXsTi6UoEjJDzMt7PrH_AfMYr_rprit1tOqpB6pHjdfDOIjpgcS6V7FTfRiH08HB5-9X54Sr29OoGmotgejM9ptDj_3QImUrlJqsP38rSopBxXDSesck5M79uwHmdYULQTt6d6MOBUf8fyyGXX8Vu86U4lH7YGmAkI7Bm_2_nG28a5sM7DXewNMB6dEpnPKFGT7p-crCm1SvjWhAak3Tn2cDhWN4jR-1KJnfPCLG12u_vHgetnS4H5w10x53YSDJvSWxOF8To2LfJfO_ORoY12qzQCbffog_4CuXZxdgtHI2A51HT2WiUq47wxnPkrEMAmWDfARPNkiKOxXi8nl9k300Ip8Zy7L7XQMRC0xa6ZJM4mkODCgsrodGHY6ZxVopIncD1qae9rMc4MJmMbXnQCFQ91f7Z7KvDRpot_IUk4d9tzJ4wQZSQRaxBIboHEvvp17-Bt1HP6i2H1z8EtbHkrDsTdMxMZ-gA-ah748s8DMLbUHAFdXkp7tr-jfcBOm3ObAEQdD3UxprzjAJ1oF8PwvJlNLxmjk-6IgEpRah-CtFN29HvZryeuA6CJfW3-i1zPhk6uv2fZSAdLjbPC7aidoa1QLclNIPVct1vm78IhsYHMT56PV6HSOnwpJI5vy2hG1_QSJdEIMUF0da88DfD8d6rmyDXOQtJtUXNh0Tc_4bUm9_1aknsCSk7EA-pYs-mx1qD6CJNctLko9NkBwnFfxOqR-5lJ_7dkYKm93IFy84fmN1ZrXeSwn50UyfOrHFMnoZRP1WYk0vvNA674VC3XAi67O2LPOeTFAi1ovSMFUQgpxne7rob-vgbyH1N3VaVy7m00]--></g></svg>