<?xml version="1.0" encoding="us-ascii" standalone="no"?><svg xmlns="http://www.w3.org/2000/svg" xmlns:xlink="http://www.w3.org/1999/xlink" contentStyleType="text/css" height="665.625px" preserveAspectRatio="none" style="width:1353px;height:665px;background:#FFFFFF;" version="1.1" viewBox="0 0 1353 665" width="1353.75px" zoomAndPan="magnify"><defs/><g><text fill="#17324D" font-family="sans-serif" font-size="35.625" font-weight="bold" lengthAdjust="spacing" textLength="504.375" x="411.5625" y="55.7318">2. Organigramme fonctionnel</text><!--entity DG--><g id="elem_DG"><rect fill="#EBE2FB" height="108.252" rx="9.375" ry="9.375" style="stroke:#45505A;stroke-width:0.9375;" width="371.25" x="392.8125" y="97.3096"/><text fill="#17324D" font-family="sans-serif" font-size="28.125" font-weight="bold" lengthAdjust="spacing" textLength="318.75" x="411.5625" y="145.2557">DIRECTION G&#201;N&#201;RALE</text><text fill="#17324D" font-family="sans-serif" font-size="28.125" font-weight="bold" lengthAdjust="spacing" textLength="333.75" x="411.5625" y="180.6317">M. Germain D. GBAGUIDI</text></g><!--entity SEC--><g id="elem_SEC"><rect fill="#F4F1E2" height="108.252" rx="9.375" ry="9.375" style="stroke:#45505A;stroke-width:0.9375;" width="341.25" x="407.8125" y="247.3096"/><text fill="#17324D" font-family="sans-serif" font-size="28.125" font-weight="bold" lengthAdjust="spacing" textLength="196.875" x="426.5625" y="295.2557">SECR&#201;TARIAT</text><text fill="#17324D" font-family="sans-serif" font-size="28.125" font-weight="bold" lengthAdjust="spacing" textLength="303.75" x="426.5625" y="330.6317">Services administratifs</text></g><!--entity PC--><g id="elem_PC"><rect fill="#F8D0C2" height="108.252" rx="9.375" ry="9.375" style="stroke:#45505A;stroke-width:0.9375;" width="328.125" x="13.125" y="397.3096"/><text fill="#17324D" font-family="sans-serif" font-size="28.125" font-weight="bold" lengthAdjust="spacing" textLength="210" x="31.875" y="445.2557">P&#212;LE CONSEIL</text><text fill="#17324D" font-family="sans-serif" font-size="28.125" font-weight="bold" lengthAdjust="spacing" textLength="290.625" x="31.875" y="480.6317">Audit &amp; Cybers&#233;curit&#233;</text></g><!--entity PI--><g id="elem_PI"><rect fill="#CAEEDF" height="108.252" rx="9.375" ry="9.375" style="stroke:#45505A;stroke-width:0.9375;" width="399.375" x="378.75" y="397.3096"/><text fill="#17324D" font-family="sans-serif" font-size="28.125" font-weight="bold" lengthAdjust="spacing" textLength="247.5" x="397.5" y="445.2557">P&#212;LE ING&#201;NIERIE</text><text fill="#17324D" font-family="sans-serif" font-size="28.125" font-weight="bold" lengthAdjust="spacing" textLength="361.875" x="397.5" y="480.6317">Logicielle &amp; Infrastructures</text></g><!--entity PF--><g id="elem_PF"><rect fill="#EDD6B5" height="108.252" rx="9.375" ry="9.375" style="stroke:#45505A;stroke-width:0.9375;" width="481.875" x="815.625" y="397.3096"/><text fill="#17324D" font-family="sans-serif" font-size="28.125" font-weight="bold" lengthAdjust="spacing" textLength="255" x="834.375" y="445.2557">P&#212;LE FORMATION</text><text fill="#17324D" font-family="sans-serif" font-size="28.125" font-weight="bold" lengthAdjust="spacing" textLength="444.375" x="834.375" y="480.6317">Accompagnement au changement</text></g><!--entity PC1--><g id="elem_PC1"><rect fill="#FBE3DA" height="108.252" rx="9.375" ry="9.375" style="stroke:#45505A;stroke-width:0.9375;" width="166.875" x="16.875" y="547.3096"/><text fill="#17324D" font-family="sans-serif" font-size="28.125" font-weight="bold" lengthAdjust="spacing" textLength="67.5" x="35.625" y="595.2557">Audit</text><text fill="#17324D" font-family="sans-serif" font-size="28.125" font-weight="bold" lengthAdjust="spacing" textLength="129.375" x="35.625" y="630.6317">&amp; Conseil</text></g><!--entity PC2--><g id="elem_PC2"><rect fill="#FBE3DA" height="108.252" rx="9.375" ry="9.375" style="stroke:#45505A;stroke-width:0.9375;" width="146.25" x="222.1875" y="547.3096"/><text fill="#17324D" font-family="sans-serif" font-size="28.125" font-weight="bold" lengthAdjust="spacing" textLength="88.125" x="240.9375" y="595.2557">Cyber-</text><text fill="#17324D" font-family="sans-serif" font-size="28.125" font-weight="bold" lengthAdjust="spacing" textLength="108.75" x="240.9375" y="630.6317">s&#233;curit&#233;</text></g><!--entity PI1--><g id="elem_PI1"><rect fill="#E2F7EE" height="108.252" rx="9.375" ry="9.375" style="stroke:#45505A;stroke-width:0.9375;" width="142.5" x="456.5625" y="547.3096"/><text fill="#17324D" font-family="sans-serif" font-size="28.125" font-weight="bold" lengthAdjust="spacing" textLength="61.875" x="475.3125" y="595.2557">D&#233;v.</text><text fill="#17324D" font-family="sans-serif" font-size="28.125" font-weight="bold" lengthAdjust="spacing" textLength="105" x="475.3125" y="630.6317">Logiciel</text></g><!--entity PI2--><g id="elem_PI2"><rect fill="#E2F7EE" height="108.252" rx="9.375" ry="9.375" style="stroke:#45505A;stroke-width:0.9375;" width="174.375" x="637.5" y="547.3096"/><text fill="#17324D" font-family="sans-serif" font-size="28.125" font-weight="bold" lengthAdjust="spacing" textLength="69.375" x="656.25" y="595.2557">Infra-</text><text fill="#17324D" font-family="sans-serif" font-size="28.125" font-weight="bold" lengthAdjust="spacing" textLength="136.875" x="656.25" y="630.6317">structures</text></g><!--entity PF1--><g id="elem_PF1"><rect fill="#F3E7CC" height="108.252" rx="9.375" ry="9.375" style="stroke:#45505A;stroke-width:0.9375;" width="191.25" x="904.6875" y="547.3096"/><text fill="#17324D" font-family="sans-serif" font-size="28.125" font-weight="bold" lengthAdjust="spacing" textLength="133.125" x="923.4375" y="595.2557">Formation</text><text fill="#17324D" font-family="sans-serif" font-size="28.125" font-weight="bold" lengthAdjust="spacing" textLength="153.75" x="923.4375" y="630.6317">&amp; Coaching</text></g><!--entity PF2--><g id="elem_PF2"><rect fill="#F3E7CC" height="108.252" rx="9.375" ry="9.375" style="stroke:#45505A;stroke-width:0.9375;" width="208.125" x="1134.375" y="547.3096"/><text fill="#17324D" font-family="sans-serif" font-size="28.125" font-weight="bold" lengthAdjust="spacing" textLength="103.125" x="1153.125" y="595.2557">Change</text><text fill="#17324D" font-family="sans-serif" font-size="28.125" font-weight="bold" lengthAdjust="spacing" textLength="170.625" x="1153.125" y="630.6317">Management</text></g><!--link DG to SEC--><g id="link_DG_SEC"><path d="M578.4375,206.6783 C578.4375,206.6783 578.4375,237.8221 578.4375,237.8221 " fill="none" id="DG-to-SEC" style="stroke:#45505A;stroke-width:3.0;"/><polygon fill="#45505A" points="578.4375,247.1971,585.9375,230.3221,578.4375,237.8221,570.9375,230.3221,578.4375,247.1971" style="stroke:#45505A;stroke-width:3.0;"/></g><!--link SEC to PC--><g id="link_SEC_PC"><path d="M407.6813,301.6846 C298.4813,301.6846 177.1875,301.6846 177.1875,301.6846 C177.1875,301.6846 177.1875,387.3158 177.1875,387.3158 " fill="none" id="SEC-to-PC" style="stroke:#45505A;stroke-width:3.0;"/><polygon fill="#45505A" points="177.1875,396.6908,184.6875,379.8158,177.1875,387.3158,169.6875,379.8158,177.1875,396.6908" style="stroke:#45505A;stroke-width:3.0;"/></g><!--link SEC to PI--><g id="link_SEC_PI"><path d="M578.4375,356.6783 C578.4375,356.6783 578.4375,387.8221 578.4375,387.8221 " fill="none" id="SEC-to-PI" style="stroke:#45505A;stroke-width:3.0;"/><polygon fill="#45505A" points="578.4375,397.1971,585.9375,380.3221,578.4375,387.8221,570.9375,380.3221,578.4375,397.1971" style="stroke:#45505A;stroke-width:3.0;"/></g><!--link SEC to PF--><g id="link_SEC_PF"><path d="M749.7,301.6846 C886.8938,301.6846 1056.5625,301.6846 1056.5625,301.6846 C1056.5625,301.6846 1056.5625,387.3158 1056.5625,387.3158 " fill="none" id="SEC-to-PF" style="stroke:#45505A;stroke-width:3.0;"/><polygon fill="#45505A" points="1056.5625,396.6908,1064.0625,379.8158,1056.5625,387.3158,1049.0625,379.8158,1056.5625,396.6908" style="stroke:#45505A;stroke-width:3.0;"/></g><!--link PC to PC1--><g id="link_PC_PC1"><path d="M100.3125,506.6783 C100.3125,506.6783 100.3125,537.8221 100.3125,537.8221 " fill="none" id="PC-to-PC1" style="stroke:#45505A;stroke-width:3.0;"/><polygon fill="#45505A" points="100.3125,547.1971,107.8125,530.3221,100.3125,537.8221,92.8125,530.3221,100.3125,547.1971" style="stroke:#45505A;stroke-width:3.0;"/></g><!--link PC to PC2--><g id="link_PC_PC2"><path d="M281.7188,506.6783 C281.7188,506.6783 281.7188,537.8221 281.7188,537.8221 " fill="none" id="PC-to-PC2" style="stroke:#45505A;stroke-width:3.0;"/><polygon fill="#45505A" points="281.7188,547.1971,289.2188,530.3221,281.7188,537.8221,274.2188,530.3221,281.7188,547.1971" style="stroke:#45505A;stroke-width:3.0;"/></g><!--link PI to PI1--><g id="link_PI_PI1"><path d="M527.8125,506.6783 C527.8125,506.6783 527.8125,537.8221 527.8125,537.8221 " fill="none" id="PI-to-PI1" style="stroke:#45505A;stroke-width:3.0;"/><polygon fill="#45505A" points="527.8125,547.1971,535.3125,530.3221,527.8125,537.8221,520.3125,530.3221,527.8125,547.1971" style="stroke:#45505A;stroke-width:3.0;"/></g><!--link PI to PI2--><g id="link_PI_PI2"><path d="M707.8125,506.6783 C707.8125,506.6783 707.8125,537.8221 707.8125,537.8221 " fill="none" id="PI-to-PI2" style="stroke:#45505A;stroke-width:3.0;"/><polygon fill="#45505A" points="707.8125,547.1971,715.3125,530.3221,707.8125,537.8221,700.3125,530.3221,707.8125,547.1971" style="stroke:#45505A;stroke-width:3.0;"/></g><!--link PF to PF1--><g id="link_PF_PF1"><path d="M1000.3125,506.6783 C1000.3125,506.6783 1000.3125,537.8221 1000.3125,537.8221 " fill="none" id="PF-to-PF1" style="stroke:#45505A;stroke-width:3.0;"/><polygon fill="#45505A" points="1000.3125,547.1971,1007.8125,530.3221,1000.3125,537.8221,992.8125,530.3221,1000.3125,547.1971" style="stroke:#45505A;stroke-width:3.0;"/></g><!--link PF to PF2--><g id="link_PF_PF2"><path d="M1215.9375,506.6783 C1215.9375,506.6783 1215.9375,537.8221 1215.9375,537.8221 " fill="none" id="PF-to-PF2" style="stroke:#45505A;stroke-width:3.0;"/><polygon fill="#45505A" points="1215.9375,547.1971,1223.4375,530.3221,1215.9375,537.8221,1208.4375,530.3221,1215.9375,547.1971" style="stroke:#45505A;stroke-width:3.0;"/></g><!--SRC=[VLJ1Jjj04BtxAqOWmOa86mAqXqgElOuiGH8bQK-vBFOcMSMUZTRhK7hgbJiVq6k-mt_IB-dO2M4Db9modZVFxyq-xobCp6Cc855vNYBy_VqCgUGBpVDS5C0oiGaKeaYCSmgJ7ttu2dEbSsvWGy-KbY8350QgFs1KQGGOBhDCT60qgB7Yvrff0qjUjz9gEvSeZLJOSOgLn3Mdry0zJrOBhKfC0vKf3STHyxCGwLg2UtDkFIcMF5KF4XSmvraXh4v3b2YDGeDhZsIIT3wk1P2WfRBPnPoNcOaKcW7F1Kmu5XEXvVnZp4J-4k1shUPKcanyEdv0x8Q_VDJQctUlBxpBq0BuMgk7VVEosptl-c-RqwLCLYYA0jpEbTKSqmbnN6IYftGgzFyu3h3FLBH0kyJSgoor4AXIKOWrUFRIDSTLyz1p7AFMb14QCqRHHgKcIeg2O-eDWDU1eLvmbBleKSgmQQF874U_l1sEmdZCWcay742_UXfKJsF_bitmhWDzGR6K227zxVdzxt4O7m4l8Ep3CUinB-hPD1CMZAkdgJ-E_UaCwRmsCg6yypIdX1P6SoFdHJDFI8haPUGohoLaL3tVCWY6WmcBRsVebwaqS0B1uxtGHRLDIYrDjMqeHZN3JNWUUEy9ua7j8sRZc6pSgeLCw9EYzWd4EDUSf9I9ARNOYHd5S1puZ8NHUwPeEBxpwysGc8G-vpLVeCW56k0b94l2DjME9wAbXE5Lhzlor9YO8RbGM0YPxTMx9B_7BaBVnZP6psRupgjtGBVEhTfkEgyEzsw8cKxccZ4RsXYlcTzwzmve6nurzn55PIUS9qkw5_OkQ-KNx3e8MigRNL1eEFBMJhm3sg7KdD4DWsVVwW0uTGXUwj6RCcwNaJEoiMwxz1mwmjTHjrrIDxAOt7Rf_GC0]--></g></svg>