<?xml version="1.0" encoding="us-ascii" standalone="no"?><svg xmlns="http://www.w3.org/2000/svg" xmlns:xlink="http://www.w3.org/1999/xlink" contentStyleType="text/css" height="727.5px" preserveAspectRatio="none" style="width:1820px;height:727px;background:#FFFFFF;" version="1.1" viewBox="0 0 1820 727" width="1820.625px" zoomAndPan="magnify"><defs/><g><text fill="#17324D" font-family="sans-serif" font-size="33.75" font-weight="bold" lengthAdjust="spacing" textLength="448.125" x="673.5938" y="53.7854">Organigramme Fonctionnel</text><!--entity DG--><g id="elem_DG"><rect fill="#33C5FF" height="70.5176" rx="9.375" ry="9.375" style="stroke:#0088CC;stroke-width:0.9375;" width="286.875" x="721.875" y="94.9512"/><text fill="#FFFFFF" font-family="sans-serif" font-size="26.25" font-weight="bold" lengthAdjust="spacing" textLength="249.375" x="740.625" y="140.9509">Direction G&#233;n&#233;rale</text></g><!--entity SEC--><g id="elem_SEC"><rect fill="#33C5FF" height="70.5176" rx="9.375" ry="9.375" style="stroke:#0088CC;stroke-width:0.9375;" width="181.875" x="774.375" y="278.7012"/><text fill="#FFFFFF" font-family="sans-serif" font-size="26.25" font-weight="bold" lengthAdjust="spacing" textLength="144.375" x="793.125" y="324.7009">Secr&#233;tariat</text></g><!--entity PC--><g id="elem_PC"><rect fill="#33C5FF" height="70.5176" rx="9.375" ry="9.375" style="stroke:#0088CC;stroke-width:0.9375;" width="202.5" x="327.1875" y="462.4512"/><text fill="#FFFFFF" font-family="sans-serif" font-size="26.25" font-weight="bold" lengthAdjust="spacing" textLength="165" x="345.9375" y="508.4509">P&#244;le Conseil</text></g><!--entity PI--><g id="elem_PI"><rect fill="#33C5FF" height="70.5176" rx="9.375" ry="9.375" style="stroke:#0088CC;stroke-width:0.9375;" width="238.125" x="746.25" y="462.4512"/><text fill="#FFFFFF" font-family="sans-serif" font-size="26.25" font-weight="bold" lengthAdjust="spacing" textLength="200.625" x="765" y="508.4509">P&#244;le Ing&#233;nierie</text></g><!--entity PF--><g id="elem_PF"><rect fill="#33C5FF" height="70.5176" rx="9.375" ry="9.375" style="stroke:#0088CC;stroke-width:0.9375;" width="236.25" x="1187.8125" y="462.4512"/><text fill="#FFFFFF" font-family="sans-serif" font-size="26.25" font-weight="bold" lengthAdjust="spacing" textLength="198.75" x="1206.5625" y="508.4509">P&#244;le Formation</text></g><!--entity PC1--><g id="elem_PC1"><rect fill="#33C5FF" height="70.5176" rx="9.375" ry="9.375" style="stroke:#0088CC;stroke-width:0.9375;" width="238.125" x="13.125" y="646.2012"/><text fill="#FFFFFF" font-family="sans-serif" font-size="26.25" font-weight="bold" lengthAdjust="spacing" textLength="200.625" x="31.875" y="692.2009">Audit &amp; Conseil</text></g><!--entity PC2--><g id="elem_PC2"><rect fill="#33C5FF" height="70.5176" rx="9.375" ry="9.375" style="stroke:#0088CC;stroke-width:0.9375;" width="223.125" x="316.875" y="646.2012"/><text fill="#FFFFFF" font-family="sans-serif" font-size="26.25" font-weight="bold" lengthAdjust="spacing" textLength="185.625" x="335.625" y="692.2009">Cybers&#233;curit&#233;</text></g><!--entity PI1--><g id="elem_PI1"><rect fill="#33C5FF" height="70.5176" rx="9.375" ry="9.375" style="stroke:#0088CC;stroke-width:0.9375;" width="247.5" x="606.5625" y="646.2012"/><text fill="#FFFFFF" font-family="sans-serif" font-size="26.25" font-weight="bold" lengthAdjust="spacing" textLength="210" x="625.3125" y="692.2009">D&#233;veloppement</text></g><!--entity PI2--><g id="elem_PI2"><rect fill="#33C5FF" height="70.5176" rx="9.375" ry="9.375" style="stroke:#0088CC;stroke-width:0.9375;" width="234.375" x="920.625" y="646.2012"/><text fill="#FFFFFF" font-family="sans-serif" font-size="26.25" font-weight="bold" lengthAdjust="spacing" textLength="196.875" x="939.375" y="692.2009">Infrastructures</text></g><!--entity PF1--><g id="elem_PF1"><rect fill="#33C5FF" height="70.5176" rx="9.375" ry="9.375" style="stroke:#0088CC;stroke-width:0.9375;" width="170.625" x="1220.625" y="646.2012"/><text fill="#FFFFFF" font-family="sans-serif" font-size="26.25" font-weight="bold" lengthAdjust="spacing" textLength="133.125" x="1239.375" y="692.2009">Formation</text></g><!--entity PF2--><g id="elem_PF2"><rect fill="#33C5FF" height="70.5176" rx="9.375" ry="9.375" style="stroke:#0088CC;stroke-width:0.9375;" width="352.5" x="1457.8125" y="646.2012"/><text fill="#FFFFFF" font-family="sans-serif" font-size="26.25" font-weight="bold" lengthAdjust="spacing" textLength="315" x="1476.5625" y="692.2009">Gestion du changement</text></g><!--link DG to SEC--><g id="link_DG_SEC"><path d="M865.3125,166.8762 C865.3125,166.8762 865.3125,268.7262 865.3125,268.7262 " fill="none" id="DG-to-SEC" style="stroke:#0088CC;stroke-width:3.0;"/><polygon fill="#0088CC" points="865.3125,278.1012,872.8125,261.2262,865.3125,268.7262,857.8125,261.2262,865.3125,278.1012" style="stroke:#0088CC;stroke-width:3.0;"/></g><!--link SEC to PC--><g id="link_SEC_PC"><path d="M774.2625,314.3262 C646.2188,314.3262 428.4375,314.3262 428.4375,314.3262 C428.4375,314.3262 428.4375,452.4012 428.4375,452.4012 " fill="none" id="SEC-to-PC" style="stroke:#0088CC;stroke-width:3.0;"/><polygon fill="#0088CC" points="428.4375,461.7762,435.9375,444.9012,428.4375,452.4012,420.9375,444.9012,428.4375,461.7762" style="stroke:#0088CC;stroke-width:3.0;"/></g><!--link SEC to PI--><g id="link_SEC_PI"><path d="M865.3125,350.6262 C865.3125,350.6262 865.3125,452.4762 865.3125,452.4762 " fill="none" id="SEC-to-PI" style="stroke:#0088CC;stroke-width:3.0;"/><polygon fill="#0088CC" points="865.3125,461.8512,872.8125,444.9762,865.3125,452.4762,857.8125,444.9762,865.3125,461.8512" style="stroke:#0088CC;stroke-width:3.0;"/></g><!--link SEC to PF--><g id="link_SEC_PF"><path d="M956.6063,314.3262 C1085.6812,314.3262 1305.9375,314.3262 1305.9375,314.3262 C1305.9375,314.3262 1305.9375,452.4012 1305.9375,452.4012 " fill="none" id="SEC-to-PF" style="stroke:#0088CC;stroke-width:3.0;"/><polygon fill="#0088CC" points="1305.9375,461.7762,1313.4375,444.9012,1305.9375,452.4012,1298.4375,444.9012,1305.9375,461.7762" style="stroke:#0088CC;stroke-width:3.0;"/></g><!--link PC to PC1--><g id="link_PC_PC1"><path d="M326.4938,498.0762 C240.7875,498.0762 132.1875,498.0762 132.1875,498.0762 C132.1875,498.0762 132.1875,636.1512 132.1875,636.1512 " fill="none" id="PC-to-PC1" style="stroke:#0088CC;stroke-width:3.0;"/><polygon fill="#0088CC" points="132.1875,645.5262,139.6875,628.6512,132.1875,636.1512,124.6875,628.6512,132.1875,645.5262" style="stroke:#0088CC;stroke-width:3.0;"/></g><!--link PC to PC2--><g id="link_PC_PC2"><path d="M428.4375,534.3762 C428.4375,534.3762 428.4375,636.2262 428.4375,636.2262 " fill="none" id="PC-to-PC2" style="stroke:#0088CC;stroke-width:3.0;"/><polygon fill="#0088CC" points="428.4375,645.6012,435.9375,628.7262,428.4375,636.2262,420.9375,628.7262,428.4375,645.6012" style="stroke:#0088CC;stroke-width:3.0;"/></g><!--link PI to PI1--><g id="link_PI_PI1"><path d="M800.1563,534.3762 C800.1563,534.3762 800.1563,636.2262 800.1563,636.2262 " fill="none" id="PI-to-PI1" style="stroke:#0088CC;stroke-width:3.0;"/><polygon fill="#0088CC" points="800.1563,645.6012,807.6563,628.7262,800.1563,636.2262,792.6563,628.7262,800.1563,645.6012" style="stroke:#0088CC;stroke-width:3.0;"/></g><!--link PI to PI2--><g id="link_PI_PI2"><path d="M952.5,534.3762 C952.5,534.3762 952.5,636.2262 952.5,636.2262 " fill="none" id="PI-to-PI2" style="stroke:#0088CC;stroke-width:3.0;"/><polygon fill="#0088CC" points="952.5,645.6012,960,628.7262,952.5,636.2262,945,628.7262,952.5,645.6012" style="stroke:#0088CC;stroke-width:3.0;"/></g><!--link PF to PF1--><g id="link_PF_PF1"><path d="M1305.9375,534.3762 C1305.9375,534.3762 1305.9375,636.2262 1305.9375,636.2262 " fill="none" id="PF-to-PF1" style="stroke:#0088CC;stroke-width:3.0;"/><polygon fill="#0088CC" points="1305.9375,645.6012,1313.4375,628.7262,1305.9375,636.2262,1298.4375,628.7262,1305.9375,645.6012" style="stroke:#0088CC;stroke-width:3.0;"/></g><!--link PF to PF2--><g id="link_PF_PF2"><path d="M1407.6563,534.3762 C1407.6563,587.9262 1407.6563,681.8262 1407.6563,681.8262 C1407.6563,681.8262 1447.9688,681.8262 1447.9688,681.8262 " fill="none" id="PF-to-PF2" style="stroke:#0088CC;stroke-width:3.0;"/><polygon fill="#0088CC" points="1457.3438,681.8262,1440.4688,674.3262,1447.9688,681.8262,1440.4688,689.3262,1457.3438,681.8262" style="stroke:#0088CC;stroke-width:3.0;"/></g><!--SRC=[VLFBRjim4BppAnOfqCSXXMKdhKy54haoT6a5A3z0IskPC4sgIpA1M_I3TEyVwCTAoOvBAa49KCBk36UM0ydiXMevyGDiUBLlI3jLfrfgWZVPk9YvCEfMGBAS1HspuxL-4gg1BPS60sGKgZGf94Z28r8ejCSMGPFTwL0Tjzn9csbbl_43GicLAP74zdLEANuY93UClOFI7YM2K-A7GsYr8x3QMJGW_QwuyS_tzn8TL98BWaUn_H1EYfNbgl4AlnZuTJ_DOR58RtqE8wQfHZhtPxFbCat7_Z1GdDfpzpJRHikQ_MQ1wnsHVeg59k33JbHxXSP0yl5J03u8A_6_ALqOfuoMhq5dw-JpOdwpOipgreVcvxHM-vZ548hGYjc13z-fuKeqNi0x-jCZfb0ozY-ygzNp8LZtdUexuXAlW1jOhKDQYHNrdUKak1tXyciQwHJz7_zAjJ8evCWeqfTuhXhl8lpDJoP5_fAJQJhmOQ8J8ujixbmjBBoT62KX9Jrka4pVLOw4xRipPHxVkkyUKUgsnGCgUnubKidLbhYnv2hh2CsP4gjC9uq4rcZ6M6l_0UzyBt3AlCng3TV-9rJNNyOe_RxKnQJCuz87KeJa92wzTf47XvEu7E0i44lYSix-0W00]--></g></svg>