<?xml version="1.0" encoding="us-ascii" standalone="no"?><svg xmlns="http://www.w3.org/2000/svg" xmlns:xlink="http://www.w3.org/1999/xlink" contentStyleType="text/css" height="2758.125px" preserveAspectRatio="none" style="width:2518px;height:2758px;background:#FFFFFF;" version="1.1" viewBox="0 0 2518 2758" width="2518.125px" zoomAndPan="magnify"><defs/><g><text fill="#17324D" font-family="sans-serif" font-size="41.25" font-weight="bold" lengthAdjust="spacing" textLength="760.6641" x="865.6055" y="69.071">Sch&#233;ma relationnel &#8212; tables principales</text><!--cluster Utilisateurs--><g id="cluster_Utilisateurs"><path d="M1509.375,117.5098 L1674.375,117.5098 A16.875,16.875 0 0 1 1685.625,128.7598 L1698.75,181.4941 L1858.125,181.4941 A11.25,11.25 0 0 1 1869.375,192.7441 L1869.375,537.5098 A11.25,11.25 0 0 1 1858.125,548.7598 L1509.375,548.7598 A11.25,11.25 0 0 1 1498.125,537.5098 L1498.125,128.7598 A11.25,11.25 0 0 1 1509.375,117.5098 " fill="#F4FAF6" style="stroke:#9CB4C1;stroke-width:2.8125;"/><line style="stroke:#9CB4C1;stroke-width:2.8125;" x1="1498.125" x2="1698.75" y1="181.4941" y2="181.4941"/><text fill="#000000" font-family="sans-serif" font-size="30" font-weight="bold" lengthAdjust="spacing" textLength="161.25" x="1513.125" y="159.9023">Utilisateurs</text></g><!--cluster Catalogue--><g id="cluster_Catalogue"><path d="M22.5,593.7598 L172.5,593.7598 A16.875,16.875 0 0 1 183.75,605.0098 L196.875,657.7441 L495,657.7441 A11.25,11.25 0 0 1 506.25,668.9941 L506.25,1568.7598 A11.25,11.25 0 0 1 495,1580.0098 L22.5,1580.0098 A11.25,11.25 0 0 1 11.25,1568.7598 L11.25,605.0098 A11.25,11.25 0 0 1 22.5,593.7598 " fill="#F4FAF6" style="stroke:#9CB4C1;stroke-width:2.8125;"/><line style="stroke:#9CB4C1;stroke-width:2.8125;" x1="11.25" x2="196.875" y1="657.7441" y2="657.7441"/><text fill="#000000" font-family="sans-serif" font-size="30" font-weight="bold" lengthAdjust="spacing" textLength="146.25" x="26.25" y="636.1523">Catalogue</text></g><!--cluster Vente & livraison--><g id="cluster_Vente &amp; livraison"><path d="M562.5,1096.2598 L808.125,1096.2598 A16.875,16.875 0 0 1 819.375,1107.5098 L832.5,1160.2441 L1368.75,1160.2441 A11.25,11.25 0 0 1 1380,1171.4941 L1380,2442.5098 A11.25,11.25 0 0 1 1368.75,2453.7598 L562.5,2453.7598 A11.25,11.25 0 0 1 551.25,2442.5098 L551.25,1107.5098 A11.25,11.25 0 0 1 562.5,1096.2598 " fill="#F4FAF6" style="stroke:#9CB4C1;stroke-width:2.8125;"/><line style="stroke:#9CB4C1;stroke-width:2.8125;" x1="551.25" x2="832.5" y1="1160.2441" y2="1160.2441"/><text fill="#000000" font-family="sans-serif" font-size="30" font-weight="bold" lengthAdjust="spacing" textLength="241.875" x="566.25" y="1138.6523">Vente &amp; livraison</text></g><!--cluster Services v?t?rinaires--><g id="cluster_Services v&#233;t&#233;rinaires"><path d="M1436.25,620.0098 L1738.125,620.0098 A16.875,16.875 0 0 1 1749.375,631.2598 L1762.5,683.9941 L1931.25,683.9941 A11.25,11.25 0 0 1 1942.5,695.2441 L1942.5,1595.0098 A11.25,11.25 0 0 1 1931.25,1606.2598 L1436.25,1606.2598 A11.25,11.25 0 0 1 1425,1595.0098 L1425,631.2598 A11.25,11.25 0 0 1 1436.25,620.0098 " fill="#F4FAF6" style="stroke:#9CB4C1;stroke-width:2.8125;"/><line style="stroke:#9CB4C1;stroke-width:2.8125;" x1="1425" x2="1762.5" y1="683.9941" y2="683.9941"/><text fill="#000000" font-family="sans-serif" font-size="30" font-weight="bold" lengthAdjust="spacing" textLength="298.125" x="1440" y="662.4023">Services v&#233;t&#233;rinaires</text></g><!--cluster Communication--><g id="cluster_Communication"><path d="M2126.25,620.0098 L2356.875,620.0098 A16.875,16.875 0 0 1 2368.125,631.2598 L2381.25,683.9941 L2493.75,683.9941 A11.25,11.25 0 0 1 2505,695.2441 L2505,1040.0098 A11.25,11.25 0 0 1 2493.75,1051.2598 L2126.25,1051.2598 A11.25,11.25 0 0 1 2115,1040.0098 L2115,631.2598 A11.25,11.25 0 0 1 2126.25,620.0098 " fill="#F4FAF6" style="stroke:#9CB4C1;stroke-width:2.8125;"/><line style="stroke:#9CB4C1;stroke-width:2.8125;" x1="2115" x2="2381.25" y1="683.9941" y2="683.9941"/><text fill="#000000" font-family="sans-serif" font-size="30" font-weight="bold" lengthAdjust="spacing" textLength="226.875" x="2130" y="662.4023">Communication</text></g><!--class USER--><g id="elem_USER"><rect codeLine="63" fill="#FFFFFF" height="312.4219" id="USER" rx="11.25" ry="11.25" style="stroke:#2F7D5B;stroke-width:0.9375;" width="311.25" x="1528.125" y="205.6348"/><rect fill="#E4F3EA" height="71.4844" rx="11.25" ry="11.25" style="stroke:#E4F3EA;stroke-width:0.9375;" width="311.25" x="1528.125" y="205.6348"/><rect fill="#E4F3EA" height="11.25" style="stroke:#E4F3EA;stroke-width:0.9375;" width="311.25" x="1528.125" y="265.8691"/><rect codeLine="63" fill="none" height="312.4219" id="USER" rx="11.25" ry="11.25" style="stroke:#2F7D5B;stroke-width:0.9375;" width="311.25" x="1528.125" y="205.6348"/><ellipse cx="1569.75" cy="241.377" fill="#ADD1B2" rx="20.625" ry="20.625" style="stroke:#181818;stroke-width:1.875;"/><path d="M1568.168,242.4023 L1568.168,246.7969 L1575.8438,246.7969 L1575.8438,245.1855 Q1575.8438,244.1016 1576.2539,243.6328 Q1576.6641,243.1641 1577.3379,243.1641 Q1578.0117,243.1641 1578.4219,243.6328 Q1578.832,244.1016 1578.832,245.1855 L1578.832,249.8145 L1564.7109,249.8145 Q1563.627,249.8145 1563.1582,249.4043 Q1562.6895,248.9648 1562.6895,248.291 Q1562.6895,247.6465 1563.1582,247.2363 Q1563.627,246.7969 1564.7109,246.7969 L1565.1797,246.7969 L1565.1797,235.0488 L1564.7109,235.0488 Q1563.627,235.0488 1563.1582,234.6387 Q1562.6895,234.2285 1562.6895,233.5547 Q1562.6895,232.8809 1563.1582,232.4707 Q1563.627,232.0313 1564.7109,232.0313 L1578.1875,232.0605 L1578.1875,236.6309 Q1578.1875,237.6855 1577.7773,238.1543 Q1577.3672,238.623 1576.6934,238.623 Q1576.0195,238.623 1575.5801,238.1836 Q1575.1699,237.7148 1575.1699,236.6309 L1575.1699,235.0488 L1568.168,235.0488 L1568.168,239.3848 L1570.8047,239.3848 Q1570.8047,238.2129 1571.0391,237.8906 Q1571.4785,237.1582 1572.3281,237.1582 Q1572.9727,237.1582 1573.3828,237.627 Q1573.8223,238.0957 1573.8223,239.1797 L1573.8223,242.6367 Q1573.8223,243.6035 1573.5879,243.9551 Q1573.1191,244.6289 1572.3281,244.6289 Q1571.4785,244.6289 1571.0391,243.9258 Q1570.8047,243.5742 1570.8047,242.4023 L1568.168,242.4023 Z " fill="#000000"/><text fill="#17324D" font-family="sans-serif" font-size="30" lengthAdjust="spacing" textLength="206.25" x="1606.5" y="253.6523">UTILISATEURS</text><line style="stroke:#2F7D5B;stroke-width:0.9375;" x1="1530" x2="1837.5" y1="277.1191" y2="277.1191"/><ellipse cx="1548.75" cy="313.7988" fill="#000000" rx="5.625" ry="5.625" style="stroke:#000000;stroke-width:1.875;"/><text fill="#000000" font-family="sans-serif" font-size="30" lengthAdjust="spacing" textLength="247.5" x="1573.125" y="323.2617">id_utilisateur &#171;PK&#187;</text><line style="stroke:#2F7D5B;stroke-width:1.875;" x1="1530" x2="1837.5" y1="344.8535" y2="344.8535"/><text fill="#000000" font-family="sans-serif" font-size="30" lengthAdjust="spacing" textLength="155.625" x="1546.875" y="390.9961">email &#171;UQ&#187;</text><text fill="#000000" font-family="sans-serif" font-size="30" lengthAdjust="spacing" textLength="48.75" x="1546.875" y="443.7305">role</text><text fill="#000000" font-family="sans-serif" font-size="30" lengthAdjust="spacing" textLength="69.375" x="1546.875" y="496.4648">statut</text></g><!--class ANN--><g id="elem_ANN"><rect codeLine="73" fill="#FFFFFF" height="365.1563" id="ANN" rx="11.25" ry="11.25" style="stroke:#2F7D5B;stroke-width:0.9375;" width="298.125" x="177.1875" y="681.8848"/><rect fill="#E4F3EA" height="71.4844" rx="11.25" ry="11.25" style="stroke:#E4F3EA;stroke-width:0.9375;" width="298.125" x="177.1875" y="681.8848"/><rect fill="#E4F3EA" height="11.25" style="stroke:#E4F3EA;stroke-width:0.9375;" width="298.125" x="177.1875" y="742.1191"/><rect codeLine="73" fill="none" height="365.1563" id="ANN" rx="11.25" ry="11.25" style="stroke:#2F7D5B;stroke-width:0.9375;" width="298.125" x="177.1875" y="681.8848"/><ellipse cx="229.7813" cy="717.627" fill="#ADD1B2" rx="20.625" ry="20.625" style="stroke:#181818;stroke-width:1.875;"/><path d="M228.1992,718.6523 L228.1992,723.0469 L235.875,723.0469 L235.875,721.4355 Q235.875,720.3516 236.2852,719.8828 Q236.6953,719.4141 237.3691,719.4141 Q238.043,719.4141 238.4531,719.8828 Q238.8633,720.3516 238.8633,721.4355 L238.8633,726.0645 L224.7422,726.0645 Q223.6582,726.0645 223.1895,725.6543 Q222.7207,725.2148 222.7207,724.541 Q222.7207,723.8965 223.1895,723.4863 Q223.6582,723.0469 224.7422,723.0469 L225.2109,723.0469 L225.2109,711.2988 L224.7422,711.2988 Q223.6582,711.2988 223.1895,710.8887 Q222.7207,710.4785 222.7207,709.8047 Q222.7207,709.1309 223.1895,708.7207 Q223.6582,708.2813 224.7422,708.2813 L238.2188,708.3105 L238.2188,712.8809 Q238.2188,713.9355 237.8086,714.4043 Q237.3984,714.873 236.7246,714.873 Q236.0508,714.873 235.6113,714.4336 Q235.2012,713.9648 235.2012,712.8809 L235.2012,711.2988 L228.1992,711.2988 L228.1992,715.6348 L230.8359,715.6348 Q230.8359,714.4629 231.0703,714.1406 Q231.5098,713.4082 232.3594,713.4082 Q233.0039,713.4082 233.4141,713.877 Q233.8535,714.3457 233.8535,715.4297 L233.8535,718.8867 Q233.8535,719.8535 233.6191,720.2051 Q233.1504,720.8789 232.3594,720.8789 Q231.5098,720.8789 231.0703,720.1758 Q230.8359,719.8242 230.8359,718.6523 L228.1992,718.6523 Z " fill="#000000"/><text fill="#17324D" font-family="sans-serif" font-size="30" lengthAdjust="spacing" textLength="168.75" x="268.9688" y="729.9023">ANNONCES</text><line style="stroke:#2F7D5B;stroke-width:0.9375;" x1="179.0625" x2="473.4375" y1="753.3691" y2="753.3691"/><ellipse cx="197.8125" cy="790.0488" fill="#000000" rx="5.625" ry="5.625" style="stroke:#000000;stroke-width:1.875;"/><text fill="#000000" font-family="sans-serif" font-size="30" lengthAdjust="spacing" textLength="234.375" x="222.1875" y="799.5117">id_annonce &#171;PK&#187;</text><line style="stroke:#2F7D5B;stroke-width:1.875;" x1="179.0625" x2="473.4375" y1="821.1035" y2="821.1035"/><text fill="#000000" font-family="sans-serif" font-size="30" lengthAdjust="spacing" textLength="245.625" x="195.9375" y="867.2461">id_utilisateur &#171;FK&#187;</text><text fill="#000000" font-family="sans-serif" font-size="30" lengthAdjust="spacing" textLength="159.375" x="195.9375" y="919.9805">prix_unitaire</text><text fill="#000000" font-family="sans-serif" font-size="30" lengthAdjust="spacing" textLength="103.125" x="195.9375" y="972.7148">quantite</text><text fill="#000000" font-family="sans-serif" font-size="30" lengthAdjust="spacing" textLength="69.375" x="195.9375" y="1025.4492">statut</text></g><!--class RED--><g id="elem_RED"><rect codeLine="81" fill="#FFFFFF" height="312.4219" id="RED" rx="11.25" ry="11.25" style="stroke:#2F7D5B;stroke-width:0.9375;" width="433.125" x="42.1875" y="1236.8848"/><rect fill="#E4F3EA" height="71.4844" rx="11.25" ry="11.25" style="stroke:#E4F3EA;stroke-width:0.9375;" width="433.125" x="42.1875" y="1236.8848"/><rect fill="#E4F3EA" height="11.25" style="stroke:#E4F3EA;stroke-width:0.9375;" width="433.125" x="42.1875" y="1297.1191"/><rect codeLine="81" fill="none" height="312.4219" id="RED" rx="11.25" ry="11.25" style="stroke:#2F7D5B;stroke-width:0.9375;" width="433.125" x="42.1875" y="1236.8848"/><ellipse cx="70.3125" cy="1272.627" fill="#ADD1B2" rx="20.625" ry="20.625" style="stroke:#181818;stroke-width:1.875;"/><path d="M68.7305,1273.6523 L68.7305,1278.0469 L76.4063,1278.0469 L76.4063,1276.4355 Q76.4063,1275.3516 76.8164,1274.8828 Q77.2266,1274.4141 77.9004,1274.4141 Q78.5742,1274.4141 78.9844,1274.8828 Q79.3945,1275.3516 79.3945,1276.4355 L79.3945,1281.0645 L65.2734,1281.0645 Q64.1895,1281.0645 63.7207,1280.6543 Q63.252,1280.2148 63.252,1279.541 Q63.252,1278.8965 63.7207,1278.4863 Q64.1895,1278.0469 65.2734,1278.0469 L65.7422,1278.0469 L65.7422,1266.2988 L65.2734,1266.2988 Q64.1895,1266.2988 63.7207,1265.8887 Q63.252,1265.4785 63.252,1264.8047 Q63.252,1264.1309 63.7207,1263.7207 Q64.1895,1263.2813 65.2734,1263.2813 L78.75,1263.3105 L78.75,1267.8809 Q78.75,1268.9355 78.3398,1269.4043 Q77.9297,1269.873 77.2559,1269.873 Q76.582,1269.873 76.1426,1269.4336 Q75.7324,1268.9648 75.7324,1267.8809 L75.7324,1266.2988 L68.7305,1266.2988 L68.7305,1270.6348 L71.3672,1270.6348 Q71.3672,1269.4629 71.6016,1269.1406 Q72.041,1268.4082 72.8906,1268.4082 Q73.5352,1268.4082 73.9453,1268.877 Q74.3848,1269.3457 74.3848,1270.4297 L74.3848,1273.8867 Q74.3848,1274.8535 74.1504,1275.2051 Q73.6816,1275.8789 72.8906,1275.8789 Q72.041,1275.8789 71.6016,1275.1758 Q71.3672,1274.8242 71.3672,1273.6523 L68.7305,1273.6523 Z " fill="#000000"/><text fill="#17324D" font-family="sans-serif" font-size="30" lengthAdjust="spacing" textLength="358.125" x="104.0625" y="1284.9023">REDUCTIONS_ANNONCE</text><line style="stroke:#2F7D5B;stroke-width:0.9375;" x1="44.0625" x2="473.4375" y1="1308.3691" y2="1308.3691"/><ellipse cx="62.8125" cy="1345.0488" fill="#000000" rx="5.625" ry="5.625" style="stroke:#000000;stroke-width:1.875;"/><text fill="#000000" font-family="sans-serif" font-size="30" lengthAdjust="spacing" textLength="243.75" x="87.1875" y="1354.5117">id_reduction &#171;PK&#187;</text><line style="stroke:#2F7D5B;stroke-width:1.875;" x1="44.0625" x2="473.4375" y1="1376.1035" y2="1376.1035"/><text fill="#000000" font-family="sans-serif" font-size="30" lengthAdjust="spacing" textLength="232.5" x="60.9375" y="1422.2461">id_annonce &#171;FK&#187;</text><text fill="#000000" font-family="sans-serif" font-size="30" lengthAdjust="spacing" textLength="166.875" x="60.9375" y="1474.9805">quantite_min</text><text fill="#000000" font-family="sans-serif" font-size="30" lengthAdjust="spacing" textLength="163.125" x="60.9375" y="1527.7148">pourcentage</text></g><!--class CMD--><g id="elem_CMD"><rect codeLine="91" fill="#FFFFFF" height="417.8906" id="CMD" rx="11.25" ry="11.25" style="stroke:#2F7D5B;stroke-width:0.9375;" width="333.75" x="675" y="1184.3848"/><rect fill="#E4F3EA" height="71.4844" rx="11.25" ry="11.25" style="stroke:#E4F3EA;stroke-width:0.9375;" width="333.75" x="675" y="1184.3848"/><rect fill="#E4F3EA" height="11.25" style="stroke:#E4F3EA;stroke-width:0.9375;" width="333.75" x="675" y="1244.6191"/><rect codeLine="91" fill="none" height="417.8906" id="CMD" rx="11.25" ry="11.25" style="stroke:#2F7D5B;stroke-width:0.9375;" width="333.75" x="675" y="1184.3848"/><ellipse cx="730.125" cy="1220.127" fill="#ADD1B2" rx="20.625" ry="20.625" style="stroke:#181818;stroke-width:1.875;"/><path d="M728.543,1221.1523 L728.543,1225.5469 L736.2188,1225.5469 L736.2188,1223.9355 Q736.2188,1222.8516 736.6289,1222.3828 Q737.0391,1221.9141 737.7129,1221.9141 Q738.3867,1221.9141 738.7969,1222.3828 Q739.207,1222.8516 739.207,1223.9355 L739.207,1228.5645 L725.0859,1228.5645 Q724.002,1228.5645 723.5332,1228.1543 Q723.0645,1227.7148 723.0645,1227.041 Q723.0645,1226.3965 723.5332,1225.9863 Q724.002,1225.5469 725.0859,1225.5469 L725.5547,1225.5469 L725.5547,1213.7988 L725.0859,1213.7988 Q724.002,1213.7988 723.5332,1213.3887 Q723.0645,1212.9785 723.0645,1212.3047 Q723.0645,1211.6309 723.5332,1211.2207 Q724.002,1210.7813 725.0859,1210.7813 L738.5625,1210.8105 L738.5625,1215.3809 Q738.5625,1216.4355 738.1523,1216.9043 Q737.7422,1217.373 737.0684,1217.373 Q736.3945,1217.373 735.9551,1216.9336 Q735.5449,1216.4648 735.5449,1215.3809 L735.5449,1213.7988 L728.543,1213.7988 L728.543,1218.1348 L731.1797,1218.1348 Q731.1797,1216.9629 731.4141,1216.6406 Q731.8535,1215.9082 732.7031,1215.9082 Q733.3477,1215.9082 733.7578,1216.377 Q734.1973,1216.8457 734.1973,1217.9297 L734.1973,1221.3867 Q734.1973,1222.3535 733.9629,1222.7051 Q733.4941,1223.3789 732.7031,1223.3789 Q731.8535,1223.3789 731.4141,1222.6758 Q731.1797,1222.3242 731.1797,1221.1523 L728.543,1221.1523 Z " fill="#000000"/><text fill="#17324D" font-family="sans-serif" font-size="30" lengthAdjust="spacing" textLength="198.75" x="769.875" y="1232.4023">COMMANDES</text><line style="stroke:#2F7D5B;stroke-width:0.9375;" x1="676.875" x2="1006.875" y1="1255.8691" y2="1255.8691"/><ellipse cx="695.625" cy="1292.5488" fill="#000000" rx="5.625" ry="5.625" style="stroke:#000000;stroke-width:1.875;"/><text fill="#000000" font-family="sans-serif" font-size="30" lengthAdjust="spacing" textLength="270" x="720" y="1302.0117">id_commande &#171;PK&#187;</text><line style="stroke:#2F7D5B;stroke-width:1.875;" x1="676.875" x2="1006.875" y1="1323.6035" y2="1323.6035"/><text fill="#000000" font-family="sans-serif" font-size="30" lengthAdjust="spacing" textLength="232.5" x="693.75" y="1369.7461">id_annonce &#171;FK&#187;</text><text fill="#000000" font-family="sans-serif" font-size="30" lengthAdjust="spacing" textLength="245.625" x="693.75" y="1422.4805">id_utilisateur &#171;FK&#187;</text><text fill="#000000" font-family="sans-serif" font-size="30" lengthAdjust="spacing" textLength="159.375" x="693.75" y="1475.2148">montant_net</text><text fill="#000000" font-family="sans-serif" font-size="30" lengthAdjust="spacing" textLength="166.875" x="693.75" y="1527.9492">mode_retrait</text><text fill="#000000" font-family="sans-serif" font-size="30" lengthAdjust="spacing" textLength="69.375" x="693.75" y="1580.6836">statut</text></g><!--class PAY--><g id="elem_PAY"><rect codeLine="100" fill="#FFFFFF" height="312.4219" id="PAY" rx="11.25" ry="11.25" style="stroke:#2F7D5B;stroke-width:0.9375;" width="363.75" x="581.25" y="1673.7598"/><rect fill="#E4F3EA" height="71.4844" rx="11.25" ry="11.25" style="stroke:#E4F3EA;stroke-width:0.9375;" width="363.75" x="581.25" y="1673.7598"/><rect fill="#E4F3EA" height="11.25" style="stroke:#E4F3EA;stroke-width:0.9375;" width="363.75" x="581.25" y="1733.9941"/><rect codeLine="100" fill="none" height="312.4219" id="PAY" rx="11.25" ry="11.25" style="stroke:#2F7D5B;stroke-width:0.9375;" width="363.75" x="581.25" y="1673.7598"/><ellipse cx="662.5313" cy="1709.502" fill="#ADD1B2" rx="20.625" ry="20.625" style="stroke:#181818;stroke-width:1.875;"/><path d="M660.9492,1710.5273 L660.9492,1714.9219 L668.625,1714.9219 L668.625,1713.3105 Q668.625,1712.2266 669.0352,1711.7578 Q669.4453,1711.2891 670.1191,1711.2891 Q670.793,1711.2891 671.2031,1711.7578 Q671.6133,1712.2266 671.6133,1713.3105 L671.6133,1717.9395 L657.4922,1717.9395 Q656.4082,1717.9395 655.9395,1717.5293 Q655.4707,1717.0898 655.4707,1716.416 Q655.4707,1715.7715 655.9395,1715.3613 Q656.4082,1714.9219 657.4922,1714.9219 L657.9609,1714.9219 L657.9609,1703.1738 L657.4922,1703.1738 Q656.4082,1703.1738 655.9395,1702.7637 Q655.4707,1702.3535 655.4707,1701.6797 Q655.4707,1701.0059 655.9395,1700.5957 Q656.4082,1700.1563 657.4922,1700.1563 L670.9688,1700.1855 L670.9688,1704.7559 Q670.9688,1705.8105 670.5586,1706.2793 Q670.1484,1706.748 669.4746,1706.748 Q668.8008,1706.748 668.3613,1706.3086 Q667.9512,1705.8398 667.9512,1704.7559 L667.9512,1703.1738 L660.9492,1703.1738 L660.9492,1707.5098 L663.5859,1707.5098 Q663.5859,1706.3379 663.8203,1706.0156 Q664.2598,1705.2832 665.1094,1705.2832 Q665.7539,1705.2832 666.1641,1705.752 Q666.6035,1706.2207 666.6035,1707.3047 L666.6035,1710.7617 Q666.6035,1711.7285 666.3691,1712.0801 Q665.9004,1712.7539 665.1094,1712.7539 Q664.2598,1712.7539 663.8203,1712.0508 Q663.5859,1711.6992 663.5859,1710.5273 L660.9492,1710.5273 Z " fill="#000000"/><text fill="#17324D" font-family="sans-serif" font-size="30" lengthAdjust="spacing" textLength="170.625" x="708.0938" y="1721.7773">PAIEMENTS</text><line style="stroke:#2F7D5B;stroke-width:0.9375;" x1="583.125" x2="943.125" y1="1745.2441" y2="1745.2441"/><ellipse cx="601.875" cy="1781.9238" fill="#000000" rx="5.625" ry="5.625" style="stroke:#000000;stroke-width:1.875;"/><text fill="#000000" font-family="sans-serif" font-size="30" lengthAdjust="spacing" textLength="245.625" x="626.25" y="1791.3867">id_paiement &#171;PK&#187;</text><line style="stroke:#2F7D5B;stroke-width:1.875;" x1="583.125" x2="943.125" y1="1812.9785" y2="1812.9785"/><text fill="#000000" font-family="sans-serif" font-size="30" lengthAdjust="spacing" textLength="326.25" x="600" y="1859.1211">id_commande &#171;FK, UQ&#187;</text><text fill="#000000" font-family="sans-serif" font-size="30" lengthAdjust="spacing" textLength="168.75" x="600" y="1911.8555">total_general</text><text fill="#000000" font-family="sans-serif" font-size="30" lengthAdjust="spacing" textLength="69.375" x="600" y="1964.5898">statut</text></g><!--class DEL--><g id="elem_DEL"><rect codeLine="107" fill="#FFFFFF" height="365.1563" id="DEL" rx="11.25" ry="11.25" style="stroke:#2F7D5B;stroke-width:0.9375;" width="363.75" x="986.25" y="1647.5098"/><rect fill="#E4F3EA" height="71.4844" rx="11.25" ry="11.25" style="stroke:#E4F3EA;stroke-width:0.9375;" width="363.75" x="986.25" y="1647.5098"/><rect fill="#E4F3EA" height="11.25" style="stroke:#E4F3EA;stroke-width:0.9375;" width="363.75" x="986.25" y="1707.7441"/><rect codeLine="107" fill="none" height="365.1563" id="DEL" rx="11.25" ry="11.25" style="stroke:#2F7D5B;stroke-width:0.9375;" width="363.75" x="986.25" y="1647.5098"/><ellipse cx="1065.8438" cy="1683.252" fill="#ADD1B2" rx="20.625" ry="20.625" style="stroke:#181818;stroke-width:1.875;"/><path d="M1064.2617,1684.2773 L1064.2617,1688.6719 L1071.9375,1688.6719 L1071.9375,1687.0605 Q1071.9375,1685.9766 1072.3477,1685.5078 Q1072.7578,1685.0391 1073.4316,1685.0391 Q1074.1055,1685.0391 1074.5156,1685.5078 Q1074.9258,1685.9766 1074.9258,1687.0605 L1074.9258,1691.6895 L1060.8047,1691.6895 Q1059.7207,1691.6895 1059.252,1691.2793 Q1058.7832,1690.8398 1058.7832,1690.166 Q1058.7832,1689.5215 1059.252,1689.1113 Q1059.7207,1688.6719 1060.8047,1688.6719 L1061.2734,1688.6719 L1061.2734,1676.9238 L1060.8047,1676.9238 Q1059.7207,1676.9238 1059.252,1676.5137 Q1058.7832,1676.1035 1058.7832,1675.4297 Q1058.7832,1674.7559 1059.252,1674.3457 Q1059.7207,1673.9063 1060.8047,1673.9063 L1074.2813,1673.9355 L1074.2813,1678.5059 Q1074.2813,1679.5605 1073.8711,1680.0293 Q1073.4609,1680.498 1072.7871,1680.498 Q1072.1133,1680.498 1071.6738,1680.0586 Q1071.2637,1679.5898 1071.2637,1678.5059 L1071.2637,1676.9238 L1064.2617,1676.9238 L1064.2617,1681.2598 L1066.8984,1681.2598 Q1066.8984,1680.0879 1067.1328,1679.7656 Q1067.5723,1679.0332 1068.4219,1679.0332 Q1069.0664,1679.0332 1069.4766,1679.502 Q1069.916,1679.9707 1069.916,1681.0547 L1069.916,1684.5117 Q1069.916,1685.4785 1069.6816,1685.8301 Q1069.2129,1686.5039 1068.4219,1686.5039 Q1067.5723,1686.5039 1067.1328,1685.8008 Q1066.8984,1685.4492 1066.8984,1684.2773 L1064.2617,1684.2773 Z " fill="#000000"/><text fill="#17324D" font-family="sans-serif" font-size="30" lengthAdjust="spacing" textLength="174.375" x="1111.0313" y="1695.5273">LIVRAISONS</text><line style="stroke:#2F7D5B;stroke-width:0.9375;" x1="988.125" x2="1348.125" y1="1718.9941" y2="1718.9941"/><ellipse cx="1006.875" cy="1755.6738" fill="#000000" rx="5.625" ry="5.625" style="stroke:#000000;stroke-width:1.875;"/><text fill="#000000" font-family="sans-serif" font-size="30" lengthAdjust="spacing" textLength="230.625" x="1031.25" y="1765.1367">id_livraison &#171;PK&#187;</text><line style="stroke:#2F7D5B;stroke-width:1.875;" x1="988.125" x2="1348.125" y1="1786.7285" y2="1786.7285"/><text fill="#000000" font-family="sans-serif" font-size="30" lengthAdjust="spacing" textLength="326.25" x="1005" y="1832.8711">id_commande &#171;FK, UQ&#187;</text><text fill="#000000" font-family="sans-serif" font-size="30" lengthAdjust="spacing" textLength="198.75" x="1005" y="1885.6055">id_livreur &#171;FK&#187;</text><text fill="#000000" font-family="sans-serif" font-size="30" lengthAdjust="spacing" textLength="69.375" x="1005" y="1938.3398">statut</text><text fill="#000000" font-family="sans-serif" font-size="30" lengthAdjust="spacing" textLength="183.75" x="1005" y="1991.0742">verification_qr</text></g><!--class SETTLE--><g id="elem_SETTLE"><rect codeLine="115" fill="#FFFFFF" height="365.1563" id="SETTLE" rx="11.25" ry="11.25" style="stroke:#2F7D5B;stroke-width:0.9375;" width="322.5" x="813.75" y="2058.1348"/><rect fill="#E4F3EA" height="71.4844" rx="11.25" ry="11.25" style="stroke:#E4F3EA;stroke-width:0.9375;" width="322.5" x="813.75" y="2058.1348"/><rect fill="#E4F3EA" height="11.25" style="stroke:#E4F3EA;stroke-width:0.9375;" width="322.5" x="813.75" y="2118.3691"/><rect codeLine="115" fill="none" height="365.1563" id="SETTLE" rx="11.25" ry="11.25" style="stroke:#2F7D5B;stroke-width:0.9375;" width="322.5" x="813.75" y="2058.1348"/><ellipse cx="860.4375" cy="2093.877" fill="#ADD1B2" rx="20.625" ry="20.625" style="stroke:#181818;stroke-width:1.875;"/><path d="M858.8555,2094.9023 L858.8555,2099.2969 L866.5313,2099.2969 L866.5313,2097.6855 Q866.5313,2096.6016 866.9414,2096.1328 Q867.3516,2095.6641 868.0254,2095.6641 Q868.6992,2095.6641 869.1094,2096.1328 Q869.5195,2096.6016 869.5195,2097.6855 L869.5195,2102.3145 L855.3984,2102.3145 Q854.3145,2102.3145 853.8457,2101.9043 Q853.377,2101.4648 853.377,2100.791 Q853.377,2100.1465 853.8457,2099.7363 Q854.3145,2099.2969 855.3984,2099.2969 L855.8672,2099.2969 L855.8672,2087.5488 L855.3984,2087.5488 Q854.3145,2087.5488 853.8457,2087.1387 Q853.377,2086.7285 853.377,2086.0547 Q853.377,2085.3809 853.8457,2084.9707 Q854.3145,2084.5313 855.3984,2084.5313 L868.875,2084.5605 L868.875,2089.1309 Q868.875,2090.1855 868.4648,2090.6543 Q868.0547,2091.123 867.3809,2091.123 Q866.707,2091.123 866.2676,2090.6836 Q865.8574,2090.2148 865.8574,2089.1309 L865.8574,2087.5488 L858.8555,2087.5488 L858.8555,2091.8848 L861.4922,2091.8848 Q861.4922,2090.7129 861.7266,2090.3906 Q862.166,2089.6582 863.0156,2089.6582 Q863.6602,2089.6582 864.0703,2090.127 Q864.5098,2090.5957 864.5098,2091.6797 L864.5098,2095.1367 Q864.5098,2096.1035 864.2754,2096.4551 Q863.8066,2097.1289 863.0156,2097.1289 Q862.166,2097.1289 861.7266,2096.4258 Q861.4922,2096.0742 861.4922,2094.9023 L858.8555,2094.9023 Z " fill="#000000"/><text fill="#17324D" font-family="sans-serif" font-size="30" lengthAdjust="spacing" textLength="206.25" x="898.3125" y="2106.1523">VERSEMENTS</text><line style="stroke:#2F7D5B;stroke-width:0.9375;" x1="815.625" x2="1134.375" y1="2129.6191" y2="2129.6191"/><ellipse cx="834.375" cy="2166.2988" fill="#000000" rx="5.625" ry="5.625" style="stroke:#000000;stroke-width:1.875;"/><text fill="#000000" font-family="sans-serif" font-size="30" lengthAdjust="spacing" textLength="258.75" x="858.75" y="2175.7617">id_versement &#171;PK&#187;</text><line style="stroke:#2F7D5B;stroke-width:1.875;" x1="815.625" x2="1134.375" y1="2197.3535" y2="2197.3535"/><text fill="#000000" font-family="sans-serif" font-size="30" lengthAdjust="spacing" textLength="243.75" x="832.5" y="2243.4961">id_paiement &#171;FK&#187;</text><text fill="#000000" font-family="sans-serif" font-size="30" lengthAdjust="spacing" textLength="275.625" x="832.5" y="2296.2305">id_beneficiaire &#171;FK&#187;</text><text fill="#000000" font-family="sans-serif" font-size="30" lengthAdjust="spacing" textLength="103.125" x="832.5" y="2348.9648">montant</text><text fill="#000000" font-family="sans-serif" font-size="30" lengthAdjust="spacing" textLength="69.375" x="832.5" y="2401.6992">statut</text></g><!--class SERVICE--><g id="elem_SERVICE"><rect codeLine="126" fill="#FFFFFF" height="312.4219" id="SERVICE" rx="11.25" ry="11.25" style="stroke:#2F7D5B;stroke-width:0.9375;" width="457.5" x="1455" y="708.1348"/><rect fill="#E4F3EA" height="71.4844" rx="11.25" ry="11.25" style="stroke:#E4F3EA;stroke-width:0.9375;" width="457.5" x="1455" y="708.1348"/><rect fill="#E4F3EA" height="11.25" style="stroke:#E4F3EA;stroke-width:0.9375;" width="457.5" x="1455" y="768.3691"/><rect codeLine="126" fill="none" height="312.4219" id="SERVICE" rx="11.25" ry="11.25" style="stroke:#2F7D5B;stroke-width:0.9375;" width="457.5" x="1455" y="708.1348"/><ellipse cx="1483.125" cy="743.877" fill="#ADD1B2" rx="20.625" ry="20.625" style="stroke:#181818;stroke-width:1.875;"/><path d="M1481.543,744.9023 L1481.543,749.2969 L1489.2188,749.2969 L1489.2188,747.6855 Q1489.2188,746.6016 1489.6289,746.1328 Q1490.0391,745.6641 1490.7129,745.6641 Q1491.3867,745.6641 1491.7969,746.1328 Q1492.207,746.6016 1492.207,747.6855 L1492.207,752.3145 L1478.0859,752.3145 Q1477.002,752.3145 1476.5332,751.9043 Q1476.0645,751.4648 1476.0645,750.791 Q1476.0645,750.1465 1476.5332,749.7363 Q1477.002,749.2969 1478.0859,749.2969 L1478.5547,749.2969 L1478.5547,737.5488 L1478.0859,737.5488 Q1477.002,737.5488 1476.5332,737.1387 Q1476.0645,736.7285 1476.0645,736.0547 Q1476.0645,735.3809 1476.5332,734.9707 Q1477.002,734.5313 1478.0859,734.5313 L1491.5625,734.5605 L1491.5625,739.1309 Q1491.5625,740.1855 1491.1523,740.6543 Q1490.7422,741.123 1490.0684,741.123 Q1489.3945,741.123 1488.9551,740.6836 Q1488.5449,740.2148 1488.5449,739.1309 L1488.5449,737.5488 L1481.543,737.5488 L1481.543,741.8848 L1484.1797,741.8848 Q1484.1797,740.7129 1484.4141,740.3906 Q1484.8535,739.6582 1485.7031,739.6582 Q1486.3477,739.6582 1486.7578,740.127 Q1487.1973,740.5957 1487.1973,741.6797 L1487.1973,745.1367 Q1487.1973,746.1035 1486.9629,746.4551 Q1486.4941,747.1289 1485.7031,747.1289 Q1484.8535,747.1289 1484.4141,746.4258 Q1484.1797,746.0742 1484.1797,744.9023 L1481.543,744.9023 Z " fill="#000000"/><text fill="#17324D" font-family="sans-serif" font-size="30" lengthAdjust="spacing" textLength="382.5" x="1516.875" y="756.1523">SERVICES_VETERINAIRES</text><line style="stroke:#2F7D5B;stroke-width:0.9375;" x1="1456.875" x2="1910.625" y1="779.6191" y2="779.6191"/><ellipse cx="1475.625" cy="816.2988" fill="#000000" rx="5.625" ry="5.625" style="stroke:#000000;stroke-width:1.875;"/><text fill="#000000" font-family="sans-serif" font-size="30" lengthAdjust="spacing" textLength="217.5" x="1500" y="825.7617">id_service &#171;PK&#187;</text><line style="stroke:#2F7D5B;stroke-width:1.875;" x1="1456.875" x2="1910.625" y1="847.3535" y2="847.3535"/><text fill="#000000" font-family="sans-serif" font-size="30" lengthAdjust="spacing" textLength="258.75" x="1473.75" y="893.4961">id_veterinaire &#171;FK&#187;</text><text fill="#000000" font-family="sans-serif" font-size="30" lengthAdjust="spacing" textLength="48.75" x="1473.75" y="946.2305">titre</text><text fill="#000000" font-family="sans-serif" font-size="30" lengthAdjust="spacing" textLength="46.875" x="1473.75" y="998.9648">prix</text></g><!--class APPT--><g id="elem_APPT"><rect codeLine="133" fill="#FFFFFF" height="365.1563" id="APPT" rx="11.25" ry="11.25" style="stroke:#2F7D5B;stroke-width:0.9375;" width="298.125" x="1574.0625" y="1210.6348"/><rect fill="#E4F3EA" height="71.4844" rx="11.25" ry="11.25" style="stroke:#E4F3EA;stroke-width:0.9375;" width="298.125" x="1574.0625" y="1210.6348"/><rect fill="#E4F3EA" height="11.25" style="stroke:#E4F3EA;stroke-width:0.9375;" width="298.125" x="1574.0625" y="1270.8691"/><rect codeLine="133" fill="none" height="365.1563" id="APPT" rx="11.25" ry="11.25" style="stroke:#2F7D5B;stroke-width:0.9375;" width="298.125" x="1574.0625" y="1210.6348"/><ellipse cx="1602.1875" cy="1246.377" fill="#ADD1B2" rx="20.625" ry="20.625" style="stroke:#181818;stroke-width:1.875;"/><path d="M1600.6055,1247.4023 L1600.6055,1251.7969 L1608.2813,1251.7969 L1608.2813,1250.1855 Q1608.2813,1249.1016 1608.6914,1248.6328 Q1609.1016,1248.1641 1609.7754,1248.1641 Q1610.4492,1248.1641 1610.8594,1248.6328 Q1611.2695,1249.1016 1611.2695,1250.1855 L1611.2695,1254.8145 L1597.1484,1254.8145 Q1596.0645,1254.8145 1595.5957,1254.4043 Q1595.127,1253.9648 1595.127,1253.291 Q1595.127,1252.6465 1595.5957,1252.2363 Q1596.0645,1251.7969 1597.1484,1251.7969 L1597.6172,1251.7969 L1597.6172,1240.0488 L1597.1484,1240.0488 Q1596.0645,1240.0488 1595.5957,1239.6387 Q1595.127,1239.2285 1595.127,1238.5547 Q1595.127,1237.8809 1595.5957,1237.4707 Q1596.0645,1237.0313 1597.1484,1237.0313 L1610.625,1237.0605 L1610.625,1241.6309 Q1610.625,1242.6855 1610.2148,1243.1543 Q1609.8047,1243.623 1609.1309,1243.623 Q1608.457,1243.623 1608.0176,1243.1836 Q1607.6074,1242.7148 1607.6074,1241.6309 L1607.6074,1240.0488 L1600.6055,1240.0488 L1600.6055,1244.3848 L1603.2422,1244.3848 Q1603.2422,1243.2129 1603.4766,1242.8906 Q1603.916,1242.1582 1604.7656,1242.1582 Q1605.4102,1242.1582 1605.8203,1242.627 Q1606.2598,1243.0957 1606.2598,1244.1797 L1606.2598,1247.6367 Q1606.2598,1248.6035 1606.0254,1248.9551 Q1605.5566,1249.6289 1604.7656,1249.6289 Q1603.916,1249.6289 1603.4766,1248.9258 Q1603.2422,1248.5742 1603.2422,1247.4023 L1600.6055,1247.4023 Z " fill="#000000"/><text fill="#17324D" font-family="sans-serif" font-size="30" lengthAdjust="spacing" textLength="223.125" x="1635.9375" y="1258.6523">RENDEZ_VOUS</text><line style="stroke:#2F7D5B;stroke-width:0.9375;" x1="1575.9375" x2="1870.3125" y1="1282.1191" y2="1282.1191"/><ellipse cx="1594.6875" cy="1318.7988" fill="#000000" rx="5.625" ry="5.625" style="stroke:#000000;stroke-width:1.875;"/><text fill="#000000" font-family="sans-serif" font-size="30" lengthAdjust="spacing" textLength="163.125" x="1619.0625" y="1328.2617">id_rdv &#171;PK&#187;</text><line style="stroke:#2F7D5B;stroke-width:1.875;" x1="1575.9375" x2="1870.3125" y1="1349.8535" y2="1349.8535"/><text fill="#000000" font-family="sans-serif" font-size="30" lengthAdjust="spacing" textLength="215.625" x="1592.8125" y="1395.9961">id_service &#171;FK&#187;</text><text fill="#000000" font-family="sans-serif" font-size="30" lengthAdjust="spacing" textLength="215.625" x="1592.8125" y="1448.7305">id_eleveur &#171;FK&#187;</text><text fill="#000000" font-family="sans-serif" font-size="30" lengthAdjust="spacing" textLength="163.125" x="1592.8125" y="1501.4648">date_prevue</text><text fill="#000000" font-family="sans-serif" font-size="30" lengthAdjust="spacing" textLength="69.375" x="1592.8125" y="1554.1992">statut</text></g><!--class NOTIF--><g id="elem_NOTIF"><rect codeLine="144" fill="#FFFFFF" height="312.4219" id="NOTIF" rx="11.25" ry="11.25" style="stroke:#2F7D5B;stroke-width:0.9375;" width="328.125" x="2145.9375" y="708.1348"/><rect fill="#E4F3EA" height="71.4844" rx="11.25" ry="11.25" style="stroke:#E4F3EA;stroke-width:0.9375;" width="328.125" x="2145.9375" y="708.1348"/><rect fill="#E4F3EA" height="11.25" style="stroke:#E4F3EA;stroke-width:0.9375;" width="328.125" x="2145.9375" y="768.3691"/><rect codeLine="144" fill="none" height="312.4219" id="NOTIF" rx="11.25" ry="11.25" style="stroke:#2F7D5B;stroke-width:0.9375;" width="328.125" x="2145.9375" y="708.1348"/><ellipse cx="2189.25" cy="743.877" fill="#ADD1B2" rx="20.625" ry="20.625" style="stroke:#181818;stroke-width:1.875;"/><path d="M2187.668,744.9023 L2187.668,749.2969 L2195.3438,749.2969 L2195.3438,747.6855 Q2195.3438,746.6016 2195.7539,746.1328 Q2196.1641,745.6641 2196.8379,745.6641 Q2197.5117,745.6641 2197.9219,746.1328 Q2198.332,746.6016 2198.332,747.6855 L2198.332,752.3145 L2184.2109,752.3145 Q2183.127,752.3145 2182.6582,751.9043 Q2182.1895,751.4648 2182.1895,750.791 Q2182.1895,750.1465 2182.6582,749.7363 Q2183.127,749.2969 2184.2109,749.2969 L2184.6797,749.2969 L2184.6797,737.5488 L2184.2109,737.5488 Q2183.127,737.5488 2182.6582,737.1387 Q2182.1895,736.7285 2182.1895,736.0547 Q2182.1895,735.3809 2182.6582,734.9707 Q2183.127,734.5313 2184.2109,734.5313 L2197.6875,734.5605 L2197.6875,739.1309 Q2197.6875,740.1855 2197.2773,740.6543 Q2196.8672,741.123 2196.1934,741.123 Q2195.5195,741.123 2195.0801,740.6836 Q2194.6699,740.2148 2194.6699,739.1309 L2194.6699,737.5488 L2187.668,737.5488 L2187.668,741.8848 L2190.3047,741.8848 Q2190.3047,740.7129 2190.5391,740.3906 Q2190.9785,739.6582 2191.8281,739.6582 Q2192.4727,739.6582 2192.8828,740.127 Q2193.3223,740.5957 2193.3223,741.6797 L2193.3223,745.1367 Q2193.3223,746.1035 2193.0879,746.4551 Q2192.6191,747.1289 2191.8281,747.1289 Q2190.9785,747.1289 2190.5391,746.4258 Q2190.3047,746.0742 2190.3047,744.9023 L2187.668,744.9023 Z " fill="#000000"/><text fill="#17324D" font-family="sans-serif" font-size="30" lengthAdjust="spacing" textLength="219.375" x="2226.375" y="756.1523">NOTIFICATIONS</text><line style="stroke:#2F7D5B;stroke-width:0.9375;" x1="2147.8125" x2="2472.1875" y1="779.6191" y2="779.6191"/><ellipse cx="2166.5625" cy="816.2988" fill="#000000" rx="5.625" ry="5.625" style="stroke:#000000;stroke-width:1.875;"/><text fill="#000000" font-family="sans-serif" font-size="30" lengthAdjust="spacing" textLength="264.375" x="2190.9375" y="825.7617">id_notification &#171;PK&#187;</text><line style="stroke:#2F7D5B;stroke-width:1.875;" x1="2147.8125" x2="2472.1875" y1="847.3535" y2="847.3535"/><text fill="#000000" font-family="sans-serif" font-size="30" lengthAdjust="spacing" textLength="245.625" x="2164.6875" y="893.4961">id_utilisateur &#171;FK&#187;</text><text fill="#000000" font-family="sans-serif" font-size="30" lengthAdjust="spacing" textLength="101.25" x="2164.6875" y="946.2305">contenu</text><text fill="#000000" font-family="sans-serif" font-size="30" lengthAdjust="spacing" textLength="20.625" x="2164.6875" y="998.9648">lu</text></g><!--link USER to ANN--><g id="link_USER_ANN"><path codeLine="153" d="M1631.8688,533.8535 C1631.8688,533.8535 1631.8688,695.0098 1631.8688,695.0098 C1631.8688,695.0098 490.3875,695.0098 490.3875,695.0098 " fill="none" id="USER-ANN" style="stroke:#456A7D;stroke-width:2.625;"/><line style="stroke:#456A7D;stroke-width:2.625;" x1="1624.3688" x2="1639.3688" y1="526.3535" y2="526.3535"/><line style="stroke:#456A7D;stroke-width:2.625;" x1="1624.3688" x2="1639.3688" y1="531.9785" y2="531.9785"/><line style="stroke:#456A7D;stroke-width:2.625;" x1="1631.8688" x2="1631.8688" y1="533.8535" y2="518.8535"/><line style="stroke:#456A7D;stroke-width:2.625;" x1="490.3875" x2="475.3875" y1="695.0098" y2="706.2598"/><line style="stroke:#456A7D;stroke-width:2.625;" x1="490.3875" x2="475.3875" y1="695.0098" y2="683.7598"/><line style="stroke:#456A7D;stroke-width:2.625;" x1="490.3875" x2="475.3875" y1="695.0098" y2="695.0098"/><ellipse cx="501.6375" cy="695.0098" fill="none" rx="7.5" ry="7.5" style="stroke:#456A7D;stroke-width:2.625;"/><text fill="#29485B" font-family="sans-serif" font-size="30" lengthAdjust="spacing" textLength="78.75" x="1053.5813" y="679.2773">publie</text></g><!--link ANN to RED--><g id="link_ANN_RED"><path codeLine="154" d="M276.5625,1063.1473 C276.5625,1063.1473 276.5625,1221.6973 276.5625,1221.6973 " fill="none" id="ANN-RED" style="stroke:#456A7D;stroke-width:2.625;"/><line style="stroke:#456A7D;stroke-width:2.625;" x1="269.0625" x2="284.0625" y1="1055.6473" y2="1055.6473"/><line style="stroke:#456A7D;stroke-width:2.625;" x1="269.0625" x2="284.0625" y1="1061.2723" y2="1061.2723"/><line style="stroke:#456A7D;stroke-width:2.625;" x1="276.5625" x2="276.5625" y1="1063.1473" y2="1048.1473"/><line style="stroke:#456A7D;stroke-width:2.625;" x1="276.5625" x2="287.8125" y1="1221.6973" y2="1236.6973"/><line style="stroke:#456A7D;stroke-width:2.625;" x1="276.5625" x2="265.3125" y1="1221.6973" y2="1236.6973"/><line style="stroke:#456A7D;stroke-width:2.625;" x1="276.5625" x2="276.5625" y1="1221.6973" y2="1236.6973"/><ellipse cx="276.5625" cy="1210.4473" fill="none" rx="7.5" ry="7.5" style="stroke:#456A7D;stroke-width:2.625;"/><text fill="#29485B" font-family="sans-serif" font-size="30" lengthAdjust="spacing" textLength="112.5" x="154.6875" y="1126.6898">applique</text></g><!--link USER to CMD--><g id="link_USER_CMD"><path codeLine="155" d="M1512.8625,269.3848 C1512.8625,269.3848 841.875,269.3848 841.875,269.3848 C841.875,269.3848 841.875,1168.991 841.875,1168.991 " fill="none" id="USER-CMD" style="stroke:#456A7D;stroke-width:2.625;"/><line style="stroke:#456A7D;stroke-width:2.625;" x1="1520.3625" x2="1520.3625" y1="261.8848" y2="276.8848"/><line style="stroke:#456A7D;stroke-width:2.625;" x1="1514.7375" x2="1514.7375" y1="261.8848" y2="276.8848"/><line style="stroke:#456A7D;stroke-width:2.625;" x1="1512.8625" x2="1527.8625" y1="269.3848" y2="269.3848"/><line style="stroke:#456A7D;stroke-width:2.625;" x1="841.875" x2="853.125" y1="1168.991" y2="1183.991"/><line style="stroke:#456A7D;stroke-width:2.625;" x1="841.875" x2="830.625" y1="1168.991" y2="1183.991"/><line style="stroke:#456A7D;stroke-width:2.625;" x1="841.875" x2="841.875" y1="1168.991" y2="1183.991"/><ellipse cx="841.875" cy="1157.741" fill="none" rx="7.5" ry="7.5" style="stroke:#456A7D;stroke-width:2.625;"/><text fill="#29485B" font-family="sans-serif" font-size="30" lengthAdjust="spacing" textLength="80.625" x="751.875" y="367.9711">passe</text></g><!--link ANN to CMD--><g id="link_ANN_CMD"><path codeLine="156" d="M375.9375,1062.791 C375.9375,1062.791 375.9375,1210.6348 375.9375,1210.6348 C375.9375,1210.6348 659.9813,1210.6348 659.9813,1210.6348 " fill="none" id="ANN-CMD" style="stroke:#456A7D;stroke-width:2.625;"/><line style="stroke:#456A7D;stroke-width:2.625;" x1="368.4375" x2="383.4375" y1="1055.291" y2="1055.291"/><line style="stroke:#456A7D;stroke-width:2.625;" x1="368.4375" x2="383.4375" y1="1060.916" y2="1060.916"/><line style="stroke:#456A7D;stroke-width:2.625;" x1="375.9375" x2="375.9375" y1="1062.791" y2="1047.791"/><line style="stroke:#456A7D;stroke-width:2.625;" x1="659.9813" x2="674.9813" y1="1210.6348" y2="1199.3848"/><line style="stroke:#456A7D;stroke-width:2.625;" x1="659.9813" x2="674.9813" y1="1210.6348" y2="1221.8848"/><line style="stroke:#456A7D;stroke-width:2.625;" x1="659.9813" x2="674.9813" y1="1210.6348" y2="1210.6348"/><ellipse cx="648.7313" cy="1210.6348" fill="none" rx="7.5" ry="7.5" style="stroke:#456A7D;stroke-width:2.625;"/><text fill="#29485B" font-family="sans-serif" font-size="30" lengthAdjust="spacing" textLength="120" x="314.6625" y="1194.9023">concerne</text></g><!--link CMD to PAY--><g id="link_CMD_PAY"><path codeLine="157" d="M810,1617.9223 C810,1617.9223 810,1658.1973 810,1658.1973 " fill="none" id="CMD-PAY" style="stroke:#456A7D;stroke-width:2.625;"/><line style="stroke:#456A7D;stroke-width:2.625;" x1="802.5" x2="817.5" y1="1610.4223" y2="1610.4223"/><line style="stroke:#456A7D;stroke-width:2.625;" x1="802.5" x2="817.5" y1="1616.0473" y2="1616.0473"/><line style="stroke:#456A7D;stroke-width:2.625;" x1="810" x2="810" y1="1617.9223" y2="1602.9223"/><line style="stroke:#456A7D;stroke-width:2.625;" x1="810" x2="810" y1="1651.8223" y2="1673.1973"/><ellipse cx="810" cy="1651.8223" fill="none" rx="8.25" ry="8.25" style="stroke:#456A7D;stroke-width:2.625;"/><line style="stroke:#456A7D;stroke-width:2.625;" x1="818.25" x2="801.75" y1="1665.6973" y2="1665.6973"/><text fill="#29485B" font-family="sans-serif" font-size="30" lengthAdjust="spacing" textLength="65.625" x="735" y="1622.3273">r&#232;gle</text></g><!--link CMD to DEL--><g id="link_CMD_DEL"><path codeLine="158" d="M997.5,1617.9223 C997.5,1617.9223 997.5,1632.491 997.5,1632.491 " fill="none" id="CMD-DEL" style="stroke:#456A7D;stroke-width:2.625;"/><line style="stroke:#456A7D;stroke-width:2.625;" x1="990" x2="1005" y1="1610.4223" y2="1610.4223"/><line style="stroke:#456A7D;stroke-width:2.625;" x1="990" x2="1005" y1="1616.0473" y2="1616.0473"/><line style="stroke:#456A7D;stroke-width:2.625;" x1="997.5" x2="997.5" y1="1617.9223" y2="1602.9223"/><line style="stroke:#456A7D;stroke-width:2.625;" x1="997.5" x2="997.5" y1="1626.116" y2="1647.491"/><ellipse cx="997.5" cy="1626.116" fill="none" rx="8.25" ry="8.25" style="stroke:#456A7D;stroke-width:2.625;"/><line style="stroke:#456A7D;stroke-width:2.625;" x1="1005.75" x2="989.25" y1="1639.991" y2="1639.991"/><text fill="#29485B" font-family="sans-serif" font-size="30" lengthAdjust="spacing" textLength="255" x="1006.875" y="1609.4836">livraison optionnelle</text></g><!--link USER to DEL--><g id="link_USER_DEL"><path codeLine="159" d="M1512.6188,331.2598 C1512.6188,331.2598 1179.375,331.2598 1179.375,331.2598 C1179.375,331.2598 1179.375,1632.266 1179.375,1632.266 " fill="none" id="USER-DEL" style="stroke:#456A7D;stroke-width:2.625;"/><line style="stroke:#456A7D;stroke-width:2.625;" x1="1506.2438" x2="1527.6188" y1="331.2598" y2="331.2598"/><ellipse cx="1506.2438" cy="331.2598" fill="none" rx="8.25" ry="8.25" style="stroke:#456A7D;stroke-width:2.625;"/><line style="stroke:#456A7D;stroke-width:2.625;" x1="1520.1188" x2="1520.1188" y1="323.0098" y2="339.5098"/><line style="stroke:#456A7D;stroke-width:2.625;" x1="1179.375" x2="1190.625" y1="1632.266" y2="1647.266"/><line style="stroke:#456A7D;stroke-width:2.625;" x1="1179.375" x2="1168.125" y1="1632.266" y2="1647.266"/><line style="stroke:#456A7D;stroke-width:2.625;" x1="1179.375" x2="1179.375" y1="1632.266" y2="1647.266"/><ellipse cx="1179.375" cy="1621.016" fill="none" rx="7.5" ry="7.5" style="stroke:#456A7D;stroke-width:2.625;"/><text fill="#29485B" font-family="sans-serif" font-size="30" lengthAdjust="spacing" textLength="52.5" x="1117.5" y="799.4086">livre</text></g><!--link PAY to SETTLE--><g id="link_PAY_SETTLE"><path codeLine="160" d="M879.375,2002.316 C879.375,2002.316 879.375,2042.9285 879.375,2042.9285 " fill="none" id="PAY-SETTLE" style="stroke:#456A7D;stroke-width:2.625;"/><line style="stroke:#456A7D;stroke-width:2.625;" x1="871.875" x2="886.875" y1="1994.816" y2="1994.816"/><line style="stroke:#456A7D;stroke-width:2.625;" x1="871.875" x2="886.875" y1="2000.441" y2="2000.441"/><line style="stroke:#456A7D;stroke-width:2.625;" x1="879.375" x2="879.375" y1="2002.316" y2="1987.316"/><line style="stroke:#456A7D;stroke-width:2.625;" x1="879.375" x2="890.625" y1="2042.9285" y2="2057.9285"/><line style="stroke:#456A7D;stroke-width:2.625;" x1="879.375" x2="868.125" y1="2042.9285" y2="2057.9285"/><line style="stroke:#456A7D;stroke-width:2.625;" x1="879.375" x2="879.375" y1="2042.9285" y2="2057.9285"/><ellipse cx="879.375" cy="2031.6785" fill="none" rx="7.5" ry="7.5" style="stroke:#456A7D;stroke-width:2.625;"/><text fill="#29485B" font-family="sans-serif" font-size="30" lengthAdjust="spacing" textLength="133.125" x="736.875" y="2063.1398">d&#233;clenche</text></g><!--link USER to SETTLE--><g id="link_USER_SETTLE"><path codeLine="161" d="M1512.375,395.0098 C1512.375,395.0098 1385.0063,395.0098 1385.0063,395.0098 C1385.0063,395.0098 1385.0063,2241.8848 1385.0063,2241.8848 C1385.0063,2241.8848 1151.4563,2241.8848 1151.4563,2241.8848 " fill="none" id="USER-SETTLE" style="stroke:#456A7D;stroke-width:2.625;"/><line style="stroke:#456A7D;stroke-width:2.625;" x1="1519.875" x2="1519.875" y1="387.5098" y2="402.5098"/><line style="stroke:#456A7D;stroke-width:2.625;" x1="1514.25" x2="1514.25" y1="387.5098" y2="402.5098"/><line style="stroke:#456A7D;stroke-width:2.625;" x1="1512.375" x2="1527.375" y1="395.0098" y2="395.0098"/><line style="stroke:#456A7D;stroke-width:2.625;" x1="1151.4563" x2="1136.4563" y1="2241.8848" y2="2253.1348"/><line style="stroke:#456A7D;stroke-width:2.625;" x1="1151.4563" x2="1136.4563" y1="2241.8848" y2="2230.6348"/><line style="stroke:#456A7D;stroke-width:2.625;" x1="1151.4563" x2="1136.4563" y1="2241.8848" y2="2241.8848"/><ellipse cx="1162.7063" cy="2241.8848" fill="none" rx="7.5" ry="7.5" style="stroke:#456A7D;stroke-width:2.625;"/><text fill="#29485B" font-family="sans-serif" font-size="30" lengthAdjust="spacing" textLength="73.125" x="1302.5063" y="1355.7961">re&#231;oit</text></g><!--link USER to SERVICE--><g id="link_USER_SERVICE"><path codeLine="162" d="M1735.6313,534.116 C1735.6313,534.116 1735.6313,693.0973 1735.6313,693.0973 " fill="none" id="USER-SERVICE" style="stroke:#456A7D;stroke-width:2.625;"/><line style="stroke:#456A7D;stroke-width:2.625;" x1="1728.1313" x2="1743.1313" y1="526.616" y2="526.616"/><line style="stroke:#456A7D;stroke-width:2.625;" x1="1728.1313" x2="1743.1313" y1="532.241" y2="532.241"/><line style="stroke:#456A7D;stroke-width:2.625;" x1="1735.6313" x2="1735.6313" y1="534.116" y2="519.116"/><line style="stroke:#456A7D;stroke-width:2.625;" x1="1735.6313" x2="1746.8813" y1="693.0973" y2="708.0973"/><line style="stroke:#456A7D;stroke-width:2.625;" x1="1735.6313" x2="1724.3813" y1="693.0973" y2="708.0973"/><line style="stroke:#456A7D;stroke-width:2.625;" x1="1735.6313" x2="1735.6313" y1="693.0973" y2="708.0973"/><ellipse cx="1735.6313" cy="681.8473" fill="none" rx="7.5" ry="7.5" style="stroke:#456A7D;stroke-width:2.625;"/><text fill="#29485B" font-family="sans-serif" font-size="30" lengthAdjust="spacing" textLength="108.75" x="1617.5063" y="597.8836">propose</text></g><!--link SERVICE to APPT--><g id="link_SERVICE_APPT"><path codeLine="163" d="M1723.125,1036.916 C1723.125,1036.916 1723.125,1195.3348 1723.125,1195.3348 " fill="none" id="SERVICE-APPT" style="stroke:#456A7D;stroke-width:2.625;"/><line style="stroke:#456A7D;stroke-width:2.625;" x1="1715.625" x2="1730.625" y1="1029.416" y2="1029.416"/><line style="stroke:#456A7D;stroke-width:2.625;" x1="1715.625" x2="1730.625" y1="1035.041" y2="1035.041"/><line style="stroke:#456A7D;stroke-width:2.625;" x1="1723.125" x2="1723.125" y1="1036.916" y2="1021.916"/><line style="stroke:#456A7D;stroke-width:2.625;" x1="1723.125" x2="1734.375" y1="1195.3348" y2="1210.3348"/><line style="stroke:#456A7D;stroke-width:2.625;" x1="1723.125" x2="1711.875" y1="1195.3348" y2="1210.3348"/><line style="stroke:#456A7D;stroke-width:2.625;" x1="1723.125" x2="1723.125" y1="1195.3348" y2="1210.3348"/><ellipse cx="1723.125" cy="1184.0848" fill="none" rx="7.5" ry="7.5" style="stroke:#456A7D;stroke-width:2.625;"/><text fill="#29485B" font-family="sans-serif" font-size="30" lengthAdjust="spacing" textLength="120" x="1593.75" y="1100.3836">concerne</text></g><!--link USER to APPT--><g id="link_USER_APPT"><path codeLine="164" d="M1513.0313,456.8848 C1513.0313,456.8848 1419.9938,456.8848 1419.9938,456.8848 C1419.9938,456.8848 1419.9938,1394.3848 1419.9938,1394.3848 C1419.9938,1394.3848 1558.3313,1394.3848 1558.3313,1394.3848 " fill="none" id="USER-APPT" style="stroke:#456A7D;stroke-width:2.625;"/><line style="stroke:#456A7D;stroke-width:2.625;" x1="1520.5313" x2="1520.5313" y1="449.3848" y2="464.3848"/><line style="stroke:#456A7D;stroke-width:2.625;" x1="1514.9063" x2="1514.9063" y1="449.3848" y2="464.3848"/><line style="stroke:#456A7D;stroke-width:2.625;" x1="1513.0313" x2="1528.0313" y1="456.8848" y2="456.8848"/><line style="stroke:#456A7D;stroke-width:2.625;" x1="1558.3313" x2="1573.3313" y1="1394.3848" y2="1383.1348"/><line style="stroke:#456A7D;stroke-width:2.625;" x1="1558.3313" x2="1573.3313" y1="1394.3848" y2="1405.6348"/><line style="stroke:#456A7D;stroke-width:2.625;" x1="1558.3313" x2="1573.3313" y1="1394.3848" y2="1394.3848"/><ellipse cx="1547.0813" cy="1394.3848" fill="none" rx="7.5" ry="7.5" style="stroke:#456A7D;stroke-width:2.625;"/><text fill="#29485B" font-family="sans-serif" font-size="30" lengthAdjust="spacing" textLength="123.75" x="1286.8688" y="932.5523">demande</text></g><!--link USER to NOTIF--><g id="link_USER_NOTIF"><path codeLine="165" d="M1855.1625,363.1348 C1855.1625,363.1348 2310,363.1348 2310,363.1348 C2310,363.1348 2310,693.0598 2310,693.0598 " fill="none" id="USER-NOTIF" style="stroke:#456A7D;stroke-width:2.625;"/><line style="stroke:#456A7D;stroke-width:2.625;" x1="1847.6625" x2="1847.6625" y1="370.6348" y2="355.6348"/><line style="stroke:#456A7D;stroke-width:2.625;" x1="1853.2875" x2="1853.2875" y1="370.6348" y2="355.6348"/><line style="stroke:#456A7D;stroke-width:2.625;" x1="1855.1625" x2="1840.1625" y1="363.1348" y2="363.1348"/><line style="stroke:#456A7D;stroke-width:2.625;" x1="2310" x2="2321.25" y1="693.0598" y2="708.0598"/><line style="stroke:#456A7D;stroke-width:2.625;" x1="2310" x2="2298.75" y1="693.0598" y2="708.0598"/><line style="stroke:#456A7D;stroke-width:2.625;" x1="2310" x2="2310" y1="693.0598" y2="708.0598"/><ellipse cx="2310" cy="681.8098" fill="none" rx="7.5" ry="7.5" style="stroke:#456A7D;stroke-width:2.625;"/><text fill="#29485B" font-family="sans-serif" font-size="30" lengthAdjust="spacing" textLength="73.125" x="2165.0438" y="347.4023">re&#231;oit</text></g><rect fill="none" height="233.3203" id="_legend" rx="11.25" ry="11.25" style="stroke:#000000;stroke-width:1.875;" width="408.75" x="2060.625" y="2487.5098"/><text fill="#000000" font-family="sans-serif" font-size="26.25" font-weight="bold" lengthAdjust="spacing" textLength="151.875" x="2092.5" y="2542.8845">Abr&#233;viation</text><text fill="#000000" font-family="sans-serif" font-size="26.25" font-weight="bold" lengthAdjust="spacing" textLength="163.125" x="2274.375" y="2542.8845">Signification</text><text fill="#000000" font-family="sans-serif" font-size="26.25" lengthAdjust="spacing" textLength="33.75" x="2092.5" y="2590.9021">PK</text><text fill="#000000" font-family="sans-serif" font-size="26.25" lengthAdjust="spacing" textLength="136.875" x="2274.375" y="2590.9021">cl&#233; primaire</text><text fill="#000000" font-family="sans-serif" font-size="26.25" lengthAdjust="spacing" textLength="33.75" x="2092.5" y="2638.9197">FK</text><text fill="#000000" font-family="sans-serif" font-size="26.25" lengthAdjust="spacing" textLength="157.5" x="2274.375" y="2638.9197">cl&#233; &#233;trang&#232;re</text><text fill="#000000" font-family="sans-serif" font-size="26.25" lengthAdjust="spacing" textLength="37.5" x="2092.5" y="2686.9373">UQ</text><text fill="#000000" font-family="sans-serif" font-size="26.25" lengthAdjust="spacing" textLength="161.25" x="2274.375" y="2686.9373">valeur unique</text><line style="stroke:#000000;stroke-width:1.875;" x1="2077.5" x2="2452.5" y1="2508.1348" y2="2508.1348"/><line style="stroke:#000000;stroke-width:1.875;" x1="2077.5" x2="2452.5" y1="2556.1523" y2="2556.1523"/><line style="stroke:#000000;stroke-width:1.875;" x1="2077.5" x2="2452.5" y1="2604.1699" y2="2604.1699"/><line style="stroke:#000000;stroke-width:1.875;" x1="2077.5" x2="2452.5" y1="2652.1875" y2="2652.1875"/><line style="stroke:#000000;stroke-width:1.875;" x1="2077.5" x2="2452.5" y1="2700.2051" y2="2700.2051"/><line style="stroke:#000000;stroke-width:1.875;" x1="2077.5" x2="2077.5" y1="2508.1348" y2="2700.2051"/><line style="stroke:#000000;stroke-width:1.875;" x1="2259.375" x2="2259.375" y1="2508.1348" y2="2700.2051"/><line style="stroke:#000000;stroke-width:1.875;" x1="2452.5" x2="2452.5" y1="2508.1348" y2="2700.2051"/><!--SRC=[bLVTRk8u5BxdAQnPQKTQRQj2eT1gTgG0oGngIna2IBito2GkM3LswZXCkzEHzY7s0VPkfy_1c-oJxB4Jm84qdQdKDZddEpwVpv-TjyXNZuoWG2oN2KV__VKt2YcUIxnSaXYvZAmwWdCIgCfRv4y-e0jqA-GIAxG2cP2KCCI9Gkj_a1A98aXXoXWvHeE-nfA7I4Y55bYhmlNpBULKKS6FA_4TvH46DsY6Wxkv50aFEu89YNxop8-522EAggqJIn8lS2W-Kpv7jvZ5nDAOXG8XEP6eMhCKZ0BFnuWW8BGGzkha5YTCUOAhFbuIv6CU-qJIssACJ_yag7fcAKTKCL9glaKOurgjI9LjljeyhTMx5i2HKdpEbFN6cTCyK5hMjVDwgz7U1umMDBZZ98vHzRXkAVj2aNP1z5jkQnybP4XaXd0RZbjlx24i4erslLLrBVq0VE1vVf5pfzrqcWMW0pvrp_7E3e5sp3nmULeCIQjx9bXeHoLGT4NLuw6p4w_bdHOXRUurhzdDHpb3bUOnmtGfNWeU5iNzjDigCR0PT5ldZPfNkACNINOOZkFsgysMmagtQo0V2GR8mNfktJjrdNrmMM1ShWfJiKyimvKoIp5btdo52uhUxNfDhte0A_Lb86MknZ49S5pWp86QRXK0RNUdRhD-Vd88AjqRkKy83yWLlOLVljTmdNQzKor3lvg1ZSK0IqK36c6kNjzSaL7fHZS6ZZvVlfzK2Y_FM0Rz00j6XoitlRRNVH5U6aikGXAJA3_Q9UPtHbWlQDHhBEUKe-f9WMw0mr2VRQtSIDk6RwEksRPjyL1ibihg-uMx0rUKYE3mXXcfb82ZZaeusU6ChYXzD24_MAoVbnX9mh0MSpZnzIr1uHc36q8aATUquBbIYTAvYzwC5MKq1ZU9ZD-WBnM4YEbCq8nwLptV6RdZeVy6uHYDVNTe40ZzWcWuJNQcwDsxmUNxzqPtT6J-aINSBq0-_fJ9fM34FCImgqJ1uzVALuj91olCn3mXUHfElt_JxxWf1NYn6M3E1QIzmFi1FMy3W30yJ1Eut608dv7S9rZxEY2tup1qk-FEg7VJzwSP7SC6n3ORISB4vAEOpuxibil6ytH9UKfE9380hn2GW_XCG4xGpt0zMabCOy7pSUhSN5yx_MuMgCvrZfg-Cs8UakzczdByu8HJm7eATxJiFIImTGMSrCiH73WzzzhjZr9s0-Ttcrs4ALa2ifYTnTsx_1Ljwqa9g9VfdC3z4RENFL_r9aEdvqFkZEkkUsMxtWRpntndbdkXsVf7SEU6UoKDJ1zEx-KUfuaxzArm-EveTENQjC0yBWc95J0xOpE81JYbkh8BKbRMV70FNj40fiHg_QpMpp0gz29x4m7wVzA3LfnEt94xxFMTtj3TxC1ex2t4wOh56rWHHJ8VDb5ma_MaxjA39eJg_cCwkHbdis0m6ENQBrmLEziniOD5u8DfBtyX5FiqacILb0ygym6M9JSVeVxDgEVrEewP5OQbaTWqkL3RolYXmHL05WbFp3DBDgpCK7vwEZeINynql41HCcEKLFHB9jTpwWBXA68KpicSYPuJO08Nlvn5AWxqL83liuf-DPedqxeNIAw_pLbEhllgOZURa8Yo8uXj70gpyWv7Adgjp67M0XVwqpDWS9OlyZotUadM_mgOD7bbMdsm4IaY0LlPI3Q1qQLYxISNj5GN4jFeELMQkvtF2YCmRa8awNoXo-BfD-JCvFfvHTDimhjFvtoNtYSDGeDB-1EmzREkwgMf-LJXRHNGT707cQ-_RNNZJ_1d1OSr504K6-GD5E0yfV0_]--></g></svg>