<?xml version="1.0" encoding="us-ascii" standalone="no"?><svg xmlns="http://www.w3.org/2000/svg" xmlns:xlink="http://www.w3.org/1999/xlink" contentStyleType="text/css" height="1299.375px" preserveAspectRatio="none" style="width:787px;height:1299px;background:#FFFFFF;" version="1.1" viewBox="0 0 787 1299" width="787.5px" zoomAndPan="magnify"><defs/><g><text fill="#17324D" font-family="sans-serif" font-size="41.25" font-weight="bold" lengthAdjust="spacing" textLength="570" x="96.0938" y="69.071">Cycle de vie d'une commande</text><ellipse cx="553.125" cy="137.141" fill="#181818" rx="18.75" ry="18.75" style="stroke:none;stroke-width:1.875;"/><g id="EnAttente"><rect fill="#EDF7F1" height="105.2344" rx="11.25" ry="11.25" style="stroke:#2F7D5B;stroke-width:0.9375;" width="183.75" x="461.25" y="200.891"/><line style="stroke:#2F7D5B;stroke-width:0.9375;" x1="461.25" x2="645" y1="272.3754" y2="272.3754"/><text fill="#17324D" font-family="sans-serif" font-size="30" lengthAdjust="spacing" textLength="131.25" x="487.5" y="248.9086">En attente</text></g><g id="Payee"><rect fill="#EDF7F1" height="105.2344" rx="11.25" ry="11.25" style="stroke:#2F7D5B;stroke-width:0.9375;" width="136.875" x="419.0625" y="350.891"/><line style="stroke:#2F7D5B;stroke-width:0.9375;" x1="419.0625" x2="555.9375" y1="422.3754" y2="422.3754"/><text fill="#17324D" font-family="sans-serif" font-size="30" lengthAdjust="spacing" textLength="84.375" x="445.3125" y="398.9086">Pay&#233;e</text></g><g id="Annulee"><rect fill="#EDF7F1" height="105.2344" rx="11.25" ry="11.25" style="stroke:#2F7D5B;stroke-width:0.9375;" width="157.5" x="592.5" y="500.891"/><line style="stroke:#2F7D5B;stroke-width:0.9375;" x1="592.5" x2="750" y1="572.3754" y2="572.3754"/><text fill="#17324D" font-family="sans-serif" font-size="30" lengthAdjust="spacing" textLength="105" x="618.75" y="548.9086">Annul&#233;e</text></g><g id="Traitement"><rect fill="#EDF7F1" height="105.2344" rx="11.25" ry="11.25" style="stroke:#2F7D5B;stroke-width:0.9375;" width="225" x="326.25" y="500.891"/><line style="stroke:#2F7D5B;stroke-width:0.9375;" x1="326.25" x2="551.25" y1="572.3754" y2="572.3754"/><text fill="#17324D" font-family="sans-serif" font-size="30" lengthAdjust="spacing" textLength="172.5" x="352.5" y="548.9086">En traitement</text></g><g id="Validee"><rect fill="#EDF7F1" height="105.2344" rx="11.25" ry="11.25" style="stroke:#2F7D5B;stroke-width:0.9375;" width="153.75" x="305.625" y="650.891"/><line style="stroke:#2F7D5B;stroke-width:0.9375;" x1="305.625" x2="459.375" y1="722.3754" y2="722.3754"/><text fill="#17324D" font-family="sans-serif" font-size="30" lengthAdjust="spacing" textLength="101.25" x="331.875" y="698.9086">Valid&#233;e</text></g><g id="Refusee"><rect fill="#EDF7F1" height="105.2344" rx="11.25" ry="11.25" style="stroke:#2F7D5B;stroke-width:0.9375;" width="161.25" x="446.25" y="800.891"/><line style="stroke:#2F7D5B;stroke-width:0.9375;" x1="446.25" x2="607.5" y1="872.3754" y2="872.3754"/><text fill="#17324D" font-family="sans-serif" font-size="30" lengthAdjust="spacing" textLength="108.75" x="472.5" y="848.9086">Refus&#233;e</text></g><g id="EnLivraison"><rect fill="#EDF7F1" height="105.2344" rx="11.25" ry="11.25" style="stroke:#2F7D5B;stroke-width:0.9375;" width="202.5" x="116.25" y="800.891"/><line style="stroke:#2F7D5B;stroke-width:0.9375;" x1="116.25" x2="318.75" y1="872.3754" y2="872.3754"/><text fill="#17324D" font-family="sans-serif" font-size="30" lengthAdjust="spacing" textLength="150" x="142.5" y="848.9086">En livraison</text></g><g id="Confirmee"><rect fill="#EDF7F1" height="105.2344" rx="11.25" ry="11.25" style="stroke:#2F7D5B;stroke-width:0.9375;" width="189.375" x="280.3125" y="1100.891"/><line style="stroke:#2F7D5B;stroke-width:0.9375;" x1="280.3125" x2="469.6875" y1="1172.3754" y2="1172.3754"/><text fill="#17324D" font-family="sans-serif" font-size="30" lengthAdjust="spacing" textLength="136.875" x="306.5625" y="1148.9086">Confirm&#233;e</text></g><g id="Livree"><rect fill="#EDF7F1" height="105.2344" rx="11.25" ry="11.25" style="stroke:#2F7D5B;stroke-width:0.9375;" width="133.125" x="167.8125" y="950.891"/><line style="stroke:#2F7D5B;stroke-width:0.9375;" x1="167.8125" x2="300.9375" y1="1022.3754" y2="1022.3754"/><text fill="#17324D" font-family="sans-serif" font-size="30" lengthAdjust="spacing" textLength="80.625" x="194.0625" y="998.9086">Livr&#233;e</text></g><ellipse cx="534.375" cy="1269.641" fill="none" rx="18.75" ry="18.75" style="stroke:#181818;stroke-width:1.875;"/><ellipse cx="535.3125" cy="1270.5785" fill="#181818" rx="11.25" ry="11.25" style="stroke:none;stroke-width:1.875;"/><!--link *start* to EnAttente--><g id="link_*start*_EnAttente"><path d="M553.125,156.341 C553.125,156.341 553.125,191.1785 553.125,191.1785 " fill="none" id="*start*-to-EnAttente" style="stroke:#456A7D;stroke-width:2.625;"/><polygon fill="#456A7D" points="553.125,200.5535,560.625,183.6785,553.125,191.1785,545.625,183.6785,553.125,200.5535" style="stroke:#456A7D;stroke-width:2.625;"/><text fill="#29485B" font-family="sans-serif" font-size="30" lengthAdjust="spacing" textLength="105" x="438.75" y="158.0273">cr&#233;ation</text></g><!--link EnAttente to Payee--><g id="link_EnAttente_Payee"><path d="M508.5938,306.6973 C508.5938,306.6973 508.5938,341.3848 508.5938,341.3848 " fill="none" id="EnAttente-to-Payee" style="stroke:#456A7D;stroke-width:2.625;"/><polygon fill="#456A7D" points="508.5938,350.7598,516.0938,333.8848,508.5938,341.3848,501.0938,333.8848,508.5938,350.7598" style="stroke:#456A7D;stroke-width:2.625;"/><text fill="#29485B" font-family="sans-serif" font-size="30" lengthAdjust="spacing" textLength="234.375" x="517.9688" y="364.5586">paiement accept&#233;</text></g><!--link EnAttente to Annulee--><g id="link_EnAttente_Annulee"><path d="M618.75,306.341 C618.75,306.341 618.75,491.1035 618.75,491.1035 " fill="none" id="EnAttente-to-Annulee" style="stroke:#456A7D;stroke-width:2.625;"/><polygon fill="#456A7D" points="618.75,500.4785,626.25,483.6035,618.75,491.1035,611.25,483.6035,618.75,500.4785" style="stroke:#456A7D;stroke-width:2.625;"/><text fill="#29485B" font-family="sans-serif" font-size="30" lengthAdjust="spacing" textLength="131.25" x="628.125" y="439.2398">annulation</text></g><!--link Payee to Traitement--><g id="link_Payee_Traitement"><path d="M485.1563,456.6973 C485.1563,456.6973 485.1563,491.3848 485.1563,491.3848 " fill="none" id="Payee-to-Traitement" style="stroke:#456A7D;stroke-width:2.625;"/><polygon fill="#456A7D" points="485.1563,500.7598,492.6563,483.8848,485.1563,491.3848,477.6563,483.8848,485.1563,500.7598" style="stroke:#456A7D;stroke-width:2.625;"/><text fill="#29485B" font-family="sans-serif" font-size="30" lengthAdjust="spacing" textLength="290.625" x="185.1563" y="458.3086">notification fournisseur</text></g><!--link Traitement to Validee--><g id="link_Traitement_Validee"><path d="M392.8125,606.6973 C392.8125,606.6973 392.8125,641.3848 392.8125,641.3848 " fill="none" id="Traitement-to-Validee" style="stroke:#456A7D;stroke-width:2.625;"/><polygon fill="#456A7D" points="392.8125,650.7598,400.3125,633.8848,392.8125,641.3848,385.3125,633.8848,392.8125,650.7598" style="stroke:#456A7D;stroke-width:2.625;"/><text fill="#29485B" font-family="sans-serif" font-size="30" lengthAdjust="spacing" textLength="275.625" x="402.1875" y="664.5586">commande accept&#233;e</text></g><!--link Traitement to Refusee--><g id="link_Traitement_Refusee"><path d="M505.3125,606.341 C505.3125,606.341 505.3125,791.1035 505.3125,791.1035 " fill="none" id="Traitement-to-Refusee" style="stroke:#456A7D;stroke-width:2.625;"/><polygon fill="#456A7D" points="505.3125,800.4785,512.8125,783.6035,505.3125,791.1035,497.8125,783.6035,505.3125,800.4785" style="stroke:#456A7D;stroke-width:2.625;"/><text fill="#29485B" font-family="sans-serif" font-size="30" lengthAdjust="spacing" textLength="251.25" x="514.6875" y="739.2398">commande refus&#233;e</text></g><!--link Validee to EnLivraison--><g id="link_Validee_EnLivraison"><path d="M312.1875,756.6973 C312.1875,756.6973 312.1875,791.3848 312.1875,791.3848 " fill="none" id="Validee-to-EnLivraison" style="stroke:#456A7D;stroke-width:2.625;"/><polygon fill="#456A7D" points="312.1875,800.7598,319.6875,783.8848,312.1875,791.3848,304.6875,783.8848,312.1875,800.7598" style="stroke:#456A7D;stroke-width:2.625;"/><text fill="#29485B" font-family="sans-serif" font-size="30" lengthAdjust="spacing" textLength="208.125" x="94.6875" y="758.3086">livraison choisie</text></g><!--link Validee to Confirmee--><g id="link_Validee_Confirmee"><path d="M382.5,755.891 C382.5,755.891 382.5,1091.1598 382.5,1091.1598 " fill="none" id="Validee-to-Confirmee" style="stroke:#456A7D;stroke-width:2.625;"/><polygon fill="#456A7D" points="382.5,1100.5348,390,1083.6598,382.5,1091.1598,375,1083.6598,382.5,1100.5348" style="stroke:#456A7D;stroke-width:2.625;"/><text fill="#29485B" font-family="sans-serif" font-size="30" lengthAdjust="spacing" textLength="275.625" x="391.875" y="964.0336">retrait direct confirm&#233;</text></g><!--link EnLivraison to Livree--><g id="link_EnLivraison_Livree"><path d="M234.375,906.6973 C234.375,906.6973 234.375,941.3848 234.375,941.3848 " fill="none" id="EnLivraison-to-Livree" style="stroke:#456A7D;stroke-width:2.625;"/><polygon fill="#456A7D" points="234.375,950.7598,241.875,933.8848,234.375,941.3848,226.875,933.8848,234.375,950.7598" style="stroke:#456A7D;stroke-width:2.625;"/><text fill="#29485B" font-family="sans-serif" font-size="30" lengthAdjust="spacing" textLength="204.375" x="20.625" y="964.5586">remise au client</text></g><!--link Livree to Confirmee--><g id="link_Livree_Confirmee"><path d="M290.625,1056.6973 C290.625,1056.6973 290.625,1091.3848 290.625,1091.3848 " fill="none" id="Livree-to-Confirmee" style="stroke:#456A7D;stroke-width:2.625;"/><polygon fill="#456A7D" points="290.625,1100.7598,298.125,1083.8848,290.625,1091.3848,283.125,1083.8848,290.625,1100.7598" style="stroke:#456A7D;stroke-width:2.625;"/><text fill="#29485B" font-family="sans-serif" font-size="30" lengthAdjust="spacing" textLength="200.625" x="80.625" y="1114.5586">QR code valid&#233;</text></g><!--link Confirmee to *end*--><g id="link_Confirmee_*end*"><path d="M470.2313,1153.391 C501.375,1153.391 528.1313,1153.391 528.1313,1153.391 C528.1313,1153.391 528.1313,1242.0973 528.1313,1242.0973 " fill="none" id="Confirmee-to-*end*" style="stroke:#456A7D;stroke-width:2.625;"/><polygon fill="#456A7D" points="528.1313,1251.4723,535.6313,1234.5973,528.1313,1242.0973,520.6313,1234.5973,528.1313,1251.4723" style="stroke:#456A7D;stroke-width:2.625;"/><text fill="#29485B" font-family="sans-serif" font-size="30" lengthAdjust="spacing" textLength="150" x="537.5063" y="1153.0711">versements</text></g><!--link Annulee to *end*--><g id="link_Annulee_*end*"><path d="M678.75,606.0598 C678.75,771.4723 678.75,1269.641 678.75,1269.641 C678.75,1269.641 562.6313,1269.641 562.6313,1269.641 " fill="none" id="Annulee-to-*end*" style="stroke:#456A7D;stroke-width:2.625;"/><polygon fill="#456A7D" points="553.2563,1269.641,570.1313,1277.141,562.6313,1269.641,570.1313,1262.141,553.2563,1269.641" style="stroke:#456A7D;stroke-width:2.625;"/></g><!--link Refusee to *end*--><g id="link_Refusee_*end*"><path d="M540.6188,906.116 C540.6188,906.116 540.6188,1242.5098 540.6188,1242.5098 " fill="none" id="Refusee-to-*end*" style="stroke:#456A7D;stroke-width:2.625;"/><polygon fill="#456A7D" points="540.6188,1251.8848,548.1188,1235.0098,540.6188,1242.5098,533.1188,1235.0098,540.6188,1251.8848" style="stroke:#456A7D;stroke-width:2.625;"/><text fill="#29485B" font-family="sans-serif" font-size="30" lengthAdjust="spacing" textLength="204.375" x="326.8688" y="1058.5898">remboursement</text></g><!--SRC=[ZPPDRjiu68RtEWMHMGGeq22ovLZnOW3PbZgBJk29CzaCPi58d-mFaKYLfDowgnwY1vXjpf6Rz2GbzMFJigfCW2Got-VxuKlAv2LPgtq69EPvNZBouzjtaY3T29hd84cOmMx16ODOEPTa_VY1p4ZAHKuLsUanBX0oma2Hr_-8ugK2eYXc6LoHrPrXuKl1XI9RQgJazIL5XWevktBaCxA2wZBaYSRF6y5BbYnunWNvBQf-B28faBZ-jJKYjpJXdv5jI4ep2PPI9OgvO228ExA437MV-mA8RcZBxUoGqZ9J4MVgZkP0rfJ9DGXC-varVWNYtbZY0weC1iCFH1Ky6lL9pUJTwNZaBIqW489_RaHlSXDCpqGhUdJh-PDv5tZOOlpCG4hYNdcMUCSLp7lSzqE_It6HW6Y8S1A4tgH3M4rCvfxlXfQ-qZNevZJ9RJ2V1jCUwAmVBmgYctFGzYpI9SVzIBsxdtYMsAx42dUezkV5hYC_6lUHTk-ZQBeyTRcX1jUnOPP8SywIFj_7ItyWmEvWwTzEHb7lZ7xPv2AZKixVVDbgR72w5V87K8sSvGkzQ1m6NNZ8c92ftgNeDjPmWvtLp52rjQ8zcpvSHjF8FSC6QrN8KAc_9SHKzXGBz9xsUq2xt3YSUhVNvz3WtE1J2Io6ZvZgNzPvuHPpR-4EqM-kG1knea9XZ0Lbwkt9zGKDJhGD2Cpvyl-Rgl7X5MlG3pfXSPvv6isZvI_nGIyPJq12SVhLBYXxhWQzdXVrJoeso8XxtQEjQ9AOiyq_-KexsDVA8pjsph_qXzLZNdVZ7c57cIE8BFQn_fi0sQ7-Trco-av0cHvod7_U_KlUl_zTls21Ki3qQJuZiNXzeUOqTuwZXbdHFHYze0Yv7YKqZg5GhoyTBc2ip2gIcgSwLHriv0T1KTK9PjfWXId65QDl8ALWA2MKmh4e4_H8Cqogd8Vcs-hGPUyXBUKfAyoGGTiyzPm_uaw7IbrwfkyHxNEyvIZnbDMNfHH5NcKLe4n1VPyI-gwaYrHIPSCneGaodvg87ANkk2HnXhfDfr6wcV-wrzdCKfdAEk5HCwHPgvc-dmbPpLKwhT6DwBGJFyAwy9CsjGvm76bsYBNML9ABa15QVxnez7gfZAQVj6djk6Lp4wWE8otJUcQ0nteMXtZRdYR1mVIMQOmnidcqeezU677HcdxGMpECMZrRMckCqUwRhN3n4m00]--></g></svg>