<?xml version="1.0" encoding="us-ascii" standalone="no"?><svg xmlns="http://www.w3.org/2000/svg" xmlns:xlink="http://www.w3.org/1999/xlink" contentStyleType="text/css" height="999.375px" preserveAspectRatio="none" style="width:840px;height:999px;background:#FFFFFF;" version="1.1" viewBox="0 0 840 999" width="840px" zoomAndPan="magnify"><defs/><g><text fill="#17324D" font-family="sans-serif" font-size="41.25" font-weight="bold" lengthAdjust="spacing" textLength="519.375" x="147.1875" y="69.071">Cycle de vie d'une livraison</text><ellipse cx="441.5625" cy="137.141" fill="#181818" rx="18.75" ry="18.75" style="stroke:none;stroke-width:1.875;"/><g id="EnAttente"><rect fill="#EDF7F1" height="105.2344" rx="11.25" ry="11.25" style="stroke:#2F7D5B;stroke-width:0.9375;" width="183.75" x="349.6875" y="200.891"/><line style="stroke:#2F7D5B;stroke-width:0.9375;" x1="349.6875" x2="533.4375" y1="272.3754" y2="272.3754"/><text fill="#17324D" font-family="sans-serif" font-size="30" lengthAdjust="spacing" textLength="131.25" x="375.9375" y="248.9086">En attente</text></g><g id="PriseEnCharge"><rect fill="#EDF7F1" height="105.2344" rx="11.25" ry="11.25" style="stroke:#2F7D5B;stroke-width:0.9375;" width="258.75" x="216.5625" y="350.891"/><line style="stroke:#2F7D5B;stroke-width:0.9375;" x1="216.5625" x2="475.3125" y1="422.3754" y2="422.3754"/><text fill="#17324D" font-family="sans-serif" font-size="30" lengthAdjust="spacing" textLength="206.25" x="242.8125" y="398.9086">Prise en charge</text></g><g id="NonAssignee"><rect fill="#EDF7F1" height="105.2344" rx="11.25" ry="11.25" style="stroke:#2F7D5B;stroke-width:0.9375;" width="232.5" x="447.1875" y="500.891"/><line style="stroke:#2F7D5B;stroke-width:0.9375;" x1="447.1875" x2="679.6875" y1="572.3754" y2="572.3754"/><text fill="#17324D" font-family="sans-serif" font-size="30" lengthAdjust="spacing" textLength="180" x="473.4375" y="548.9086">Non assign&#233;e</text></g><g id="EnCours"><rect fill="#EDF7F1" height="105.2344" rx="11.25" ry="11.25" style="stroke:#2F7D5B;stroke-width:0.9375;" width="166.875" x="238.125" y="500.891"/><line style="stroke:#2F7D5B;stroke-width:0.9375;" x1="238.125" x2="405" y1="572.3754" y2="572.3754"/><text fill="#17324D" font-family="sans-serif" font-size="30" lengthAdjust="spacing" textLength="114.375" x="264.375" y="548.9086">En cours</text></g><g id="AConfirmer"><rect fill="#EDF7F1" height="105.2344" rx="11.25" ry="11.25" style="stroke:#2F7D5B;stroke-width:0.9375;" width="202.5" x="220.3125" y="650.891"/><line style="stroke:#2F7D5B;stroke-width:0.9375;" x1="220.3125" x2="422.8125" y1="722.3754" y2="722.3754"/><text fill="#17324D" font-family="sans-serif" font-size="30" lengthAdjust="spacing" textLength="150" x="246.5625" y="698.9086">&#192; confirmer</text></g><g id="Terminee"><rect fill="#EDF7F1" height="105.2344" rx="11.25" ry="11.25" style="stroke:#2F7D5B;stroke-width:0.9375;" width="176.25" x="23.4375" y="800.891"/><line style="stroke:#2F7D5B;stroke-width:0.9375;" x1="23.4375" x2="199.6875" y1="872.3754" y2="872.3754"/><text fill="#17324D" font-family="sans-serif" font-size="30" lengthAdjust="spacing" textLength="123.75" x="49.6875" y="848.9086">Termin&#233;e</text></g><g id="Incident"><rect fill="#EDF7F1" height="105.2344" rx="11.25" ry="11.25" style="stroke:#2F7D5B;stroke-width:0.9375;" width="258.75" x="240.9375" y="800.891"/><line style="stroke:#2F7D5B;stroke-width:0.9375;" x1="240.9375" x2="499.6875" y1="872.3754" y2="872.3754"/><text fill="#17324D" font-family="sans-serif" font-size="30" lengthAdjust="spacing" textLength="206.25" x="267.1875" y="848.9086">Incident &#224; traiter</text></g><ellipse cx="370.3125" cy="969.641" fill="none" rx="18.75" ry="18.75" style="stroke:#181818;stroke-width:1.875;"/><ellipse cx="371.25" cy="970.5785" fill="#181818" rx="11.25" ry="11.25" style="stroke:none;stroke-width:1.875;"/><!--link *start* to EnAttente--><g id="link_*start*_EnAttente"><path d="M441.5625,156.341 C441.5625,156.341 441.5625,191.1785 441.5625,191.1785 " fill="none" id="*start*-to-EnAttente" style="stroke:#456A7D;stroke-width:2.625;"/><polygon fill="#456A7D" points="441.5625,200.5535,449.0625,183.6785,441.5625,191.1785,434.0625,183.6785,441.5625,200.5535" style="stroke:#456A7D;stroke-width:2.625;"/><text fill="#29485B" font-family="sans-serif" font-size="30" lengthAdjust="spacing" textLength="247.5" x="184.6875" y="158.0273">commande valid&#233;e</text></g><!--link EnAttente to PriseEnCharge--><g id="link_EnAttente_PriseEnCharge"><path d="M412.5,306.6973 C412.5,306.6973 412.5,341.3848 412.5,341.3848 " fill="none" id="EnAttente-to-PriseEnCharge" style="stroke:#456A7D;stroke-width:2.625;"/><polygon fill="#456A7D" points="412.5,350.7598,420,333.8848,412.5,341.3848,405,333.8848,412.5,350.7598" style="stroke:#456A7D;stroke-width:2.625;"/><text fill="#29485B" font-family="sans-serif" font-size="30" lengthAdjust="spacing" textLength="189.375" x="421.875" y="364.5586">livreur accepte</text></g><!--link EnAttente to NonAssignee--><g id="link_EnAttente_NonAssignee"><path d="M504.375,306.341 C504.375,306.341 504.375,491.1035 504.375,491.1035 " fill="none" id="EnAttente-to-NonAssignee" style="stroke:#456A7D;stroke-width:2.625;"/><polygon fill="#456A7D" points="504.375,500.4785,511.875,483.6035,504.375,491.1035,496.875,483.6035,504.375,500.4785" style="stroke:#456A7D;stroke-width:2.625;"/><text fill="#29485B" font-family="sans-serif" font-size="30" lengthAdjust="spacing" textLength="303.75" x="513.75" y="439.2398">aucun livreur disponible</text></g><!--link PriseEnCharge to EnCours--><g id="link_PriseEnCharge_EnCours"><path d="M321.5625,456.6973 C321.5625,456.6973 321.5625,491.3848 321.5625,491.3848 " fill="none" id="PriseEnCharge-to-EnCours" style="stroke:#456A7D;stroke-width:2.625;"/><polygon fill="#456A7D" points="321.5625,500.7598,329.0625,483.8848,321.5625,491.3848,314.0625,483.8848,321.5625,500.7598" style="stroke:#456A7D;stroke-width:2.625;"/><text fill="#29485B" font-family="sans-serif" font-size="30" lengthAdjust="spacing" textLength="208.125" x="104.0625" y="514.5586">d&#233;part du livreur</text></g><!--link EnCours to AConfirmer--><g id="link_EnCours_AConfirmer"><path d="M321.5625,606.6973 C321.5625,606.6973 321.5625,641.3848 321.5625,641.3848 " fill="none" id="EnCours-to-AConfirmer" style="stroke:#456A7D;stroke-width:2.625;"/><polygon fill="#456A7D" points="321.5625,650.7598,329.0625,633.8848,321.5625,641.3848,314.0625,633.8848,321.5625,650.7598" style="stroke:#456A7D;stroke-width:2.625;"/><text fill="#29485B" font-family="sans-serif" font-size="30" lengthAdjust="spacing" textLength="243.75" x="68.4375" y="664.5586">commande remise</text></g><!--link AConfirmer to Terminee--><g id="link_AConfirmer_Terminee"><path d="M230.625,756.6973 C230.625,799.8035 230.625,853.391 230.625,853.391 C230.625,853.391 209.3438,853.391 209.3438,853.391 " fill="none" id="AConfirmer-to-Terminee" style="stroke:#456A7D;stroke-width:2.625;"/><polygon fill="#456A7D" points="199.9688,853.391,216.8438,860.891,209.3438,853.391,216.8438,845.891,199.9688,853.391" style="stroke:#456A7D;stroke-width:2.625;"/><text fill="#29485B" font-family="sans-serif" font-size="30" lengthAdjust="spacing" textLength="200.625" x="20.625" y="799.9523">QR code valid&#233;</text></g><!--link AConfirmer to Incident--><g id="link_AConfirmer_Incident"><path d="M331.875,756.6973 C331.875,756.6973 331.875,791.3848 331.875,791.3848 " fill="none" id="AConfirmer-to-Incident" style="stroke:#456A7D;stroke-width:2.625;"/><polygon fill="#456A7D" points="331.875,800.7598,339.375,783.8848,331.875,791.3848,324.375,783.8848,331.875,800.7598" style="stroke:#456A7D;stroke-width:2.625;"/><text fill="#29485B" font-family="sans-serif" font-size="30" lengthAdjust="spacing" textLength="223.125" x="341.25" y="758.3086">QR code invalide</text></g><!--link Terminee to *end*--><g id="link_Terminee_*end*"><path d="M111.5625,906.0785 C111.5625,936.8285 111.5625,969.641 111.5625,969.641 C111.5625,969.641 341.4938,969.641 341.4938,969.641 " fill="none" id="Terminee-to-*end*" style="stroke:#456A7D;stroke-width:2.625;"/><polygon fill="#456A7D" points="350.8688,969.641,333.9938,962.141,341.4938,969.641,333.9938,977.141,350.8688,969.641" style="stroke:#456A7D;stroke-width:2.625;"/></g><!--link NonAssignee to *end*--><g id="link_NonAssignee_*end*"><path d="M589.6875,606.116 C589.6875,718.1098 589.6875,969.641 589.6875,969.641 C589.6875,969.641 399.15,969.641 399.15,969.641 " fill="none" id="NonAssignee-to-*end*" style="stroke:#456A7D;stroke-width:2.625;"/><polygon fill="#456A7D" points="389.775,969.641,406.65,977.141,399.15,969.641,406.65,962.141,389.775,969.641" style="stroke:#456A7D;stroke-width:2.625;"/></g><!--link Incident to *end*--><g id="link_Incident_*end*"><path d="M370.3125,906.0785 C370.3125,906.0785 370.3125,941.141 370.3125,941.141 " fill="none" id="Incident-to-*end*" style="stroke:#456A7D;stroke-width:2.625;"/><polygon fill="#456A7D" points="370.3125,950.516,377.8125,933.641,370.3125,941.141,362.8125,933.641,370.3125,950.516" style="stroke:#456A7D;stroke-width:2.625;"/></g><!--SRC=[ZPPDRkCs5CVtEiL3PX5WW0aYMuwLMHIGRMbQe0tSEfrDqGKZFTj4f4SDINacivf3z03TzXovIKzIKXyEBMkK1d0ClV_lVP8oUGaR_PGZfA8eAe9_l_q56MSxoOe25SGv7fQ225FjNSBcumTu3riX2wRXO6n2Sio1KCFptw15fH4qutcELx2-ion-AONKi6TMofx_sNBYcWkwyjGZfvAPDF30qiUT51LbIv4B2M-I-iyXifA37rux5hLdcVZCQGTRbYjqb3fGAYIX17_Y23atTJwL2AQWlN2ZuvPLkKu4wJjM86mOgGrAlXrcDlmhWd_ZYFTSvpZgVYHgvybaI6gRz-VJIR1oW4XAyRaLWzbDD3yJ7U_9RH3E5dtWVi_JHqAbmByA7F5EQ5mCJ3-CmpubP8Qo9U9P50Up7k4KCLi4eHyx-jhaOBlJ8BVHOXxD1w2pUe8aIcxEGNTcYKav7KQQtVqWyioTIghvWUkdysJNIPXCXqYtzaaoNvrEkQL6rx5bLfmLWhAXkKzNuOY3My4gl9rDai6ElblaCcTABLvzsHfijDqQ-H6PGSxYnK4oZQC-F3QOcFJWKlGBQxdHoXfcBDj6iu5D7w-IUUAVOQEvQcGirUyAKwO6aaLcJuS3e9jk6i-3s-jpQBGt_5GXfVWptveFzLwuvI9O-cFqgolGUQoPr3pb9IFzUdD3JgEDTWwHFL_-Vr4DFhvYBVh112pF8y-JHRBwBZuwIn8PAYnFVzebeyVQ60oygBymkUC4_lM0jcPPPi-syEGdxJY-JfwulWlnPTYjiGNzZVi2UzeUGR1yIit_3E70pTTbHMYEp8DaN0a2p_lZxP_mxjqFvWsBj4Oon_dx-ix0oBgmd9lJ7RqNrR9hoHN6jDoRNYrlus4bWQKfbhfFtmcAbE8xGikoAZNNaSuZuweKn1zoz4w3DYKjHIMLSJ8rc1OrP5NdwNMY1IDpbTboMPYhWLEynC94z1pHilSe2zwKykjl1dxfia_-H2dFJ1SEoQbcqJj6iQ0PeUSssTcE0Jg3f-mAEQDc2YvY0jOyNhJwwIGiKri02TBQTd4CrCoW3PFQXqvpch7oypSZjuOEEJPXWUR1h7MdkXrPm3oRRsjme6EBbZW-s4kZsM3QfFeF]--></g></svg>