<?xml version="1.0" encoding="us-ascii" standalone="no"?><svg xmlns="http://www.w3.org/2000/svg" xmlns:xlink="http://www.w3.org/1999/xlink" contentStyleType="text/css" height="624.375px" preserveAspectRatio="none" style="width:870px;height:624px;background:#FFFFFF;" version="1.1" viewBox="0 0 870 624" width="870px" zoomAndPan="magnify"><defs/><g><text fill="#17324D" font-family="sans-serif" font-size="41.25" font-weight="bold" lengthAdjust="spacing" textLength="523.125" x="160.7813" y="69.071">Cycle de vie d'une annonce</text><ellipse cx="296.25" cy="137.366" fill="#181818" rx="18.75" ry="18.75" style="stroke:none;stroke-width:1.875;"/><g id="EnAttente"><rect fill="#EDF7F1" height="142.9688" rx="11.25" ry="11.25" style="stroke:#2F7D5B;stroke-width:0.9375;" width="241.875" x="175.3125" y="201.116"/><line style="stroke:#2F7D5B;stroke-width:0.9375;" x1="175.3125" x2="417.1875" y1="310.3348" y2="310.3348"/><text fill="#17324D" font-family="sans-serif" font-size="30" lengthAdjust="spacing" textLength="131.25" x="230.625" y="249.1336">En attente</text><text fill="#17324D" font-family="sans-serif" font-size="30" lengthAdjust="spacing" textLength="189.375" x="201.5625" y="286.868">de mod&#233;ration</text></g><g id="Visible"><rect fill="#EDF7F1" height="142.9688" rx="11.25" ry="11.25" style="stroke:#2F7D5B;stroke-width:0.9375;" width="281.25" x="26.25" y="388.616"/><line style="stroke:#2F7D5B;stroke-width:0.9375;" x1="26.25" x2="307.5" y1="497.8348" y2="497.8348"/><text fill="#17324D" font-family="sans-serif" font-size="30" lengthAdjust="spacing" textLength="90" x="121.875" y="436.6336">Visible</text><text fill="#17324D" font-family="sans-serif" font-size="30" lengthAdjust="spacing" textLength="228.75" x="52.5" y="474.368">dans le catalogue</text></g><g id="Rejetee"><rect fill="#EDF7F1" height="105.2344" rx="11.25" ry="11.25" style="stroke:#2F7D5B;stroke-width:0.9375;" width="153.75" x="348.75" y="407.366"/><line style="stroke:#2F7D5B;stroke-width:0.9375;" x1="348.75" x2="502.5" y1="478.8504" y2="478.8504"/><text fill="#17324D" font-family="sans-serif" font-size="30" lengthAdjust="spacing" textLength="101.25" x="375" y="455.3836">Rejet&#233;e</text></g><ellipse cx="296.25" cy="594.866" fill="none" rx="18.75" ry="18.75" style="stroke:#181818;stroke-width:1.875;"/><ellipse cx="297.1875" cy="595.8035" fill="#181818" rx="11.25" ry="11.25" style="stroke:none;stroke-width:1.875;"/><g id="elem_GMN12"><path d="M458.4375,229.241 L458.4375,264.866 L417.2438,272.366 L458.4375,279.866 L458.4375,315.9598 A11.25,11.25 0 0 0 469.6875,327.2098 L846.5625,327.2098 A11.25,11.25 0 0 0 857.8125,315.9598 L857.8125,236.741 L839.0625,217.991 L469.6875,217.991 A11.25,11.25 0 0 0 458.4375,229.241 " fill="#FFF8E8" style="stroke:#E5AE45;stroke-width:0.9375;"/><path d="M839.0625,217.991 L839.0625,231.116 A5.625,5.625 0 0 0 844.6875,236.741 L857.8125,236.741 L839.0625,217.991 " fill="#FFF8E8" style="stroke:#E5AE45;stroke-width:0.9375;"/><text fill="#5B481E" font-family="sans-serif" font-size="30" lengthAdjust="spacing" textLength="318.75" x="477.1875" y="266.0086">L'administrateur contr&#244;le</text><text fill="#5B481E" font-family="sans-serif" font-size="30" lengthAdjust="spacing" textLength="345" x="477.1875" y="303.743">la conformit&#233; de l'annonce.</text></g><!--link *start* to EnAttente--><g id="link_*start*_EnAttente"><path d="M296.25,156.1348 C296.25,156.1348 296.25,191.366 296.25,191.366 " fill="none" id="*start*-to-EnAttente" style="stroke:#456A7D;stroke-width:2.625;"/><polygon fill="#456A7D" points="296.25,200.741,303.75,183.866,296.25,191.366,288.75,183.866,296.25,200.741" style="stroke:#456A7D;stroke-width:2.625;"/><text fill="#29485B" font-family="sans-serif" font-size="30" lengthAdjust="spacing" textLength="148.125" x="138.75" y="158.0273">soumission</text></g><!--link EnAttente to Visible--><g id="link_EnAttente_Visible"><path d="M241.4063,343.7848 C241.4063,343.7848 241.4063,378.641 241.4063,378.641 " fill="none" id="EnAttente-to-Visible" style="stroke:#456A7D;stroke-width:2.625;"/><polygon fill="#456A7D" points="241.4063,388.016,248.9063,371.141,241.4063,378.641,233.9063,371.141,241.4063,388.016" style="stroke:#456A7D;stroke-width:2.625;"/><text fill="#29485B" font-family="sans-serif" font-size="30" lengthAdjust="spacing" textLength="157.5" x="74.5313" y="345.4898">approbation</text></g><!--link EnAttente to Rejetee--><g id="link_EnAttente_Rejetee"><path d="M382.9688,343.7848 C382.9688,343.7848 382.9688,397.9348 382.9688,397.9348 " fill="none" id="EnAttente-to-Rejetee" style="stroke:#456A7D;stroke-width:2.625;"/><polygon fill="#456A7D" points="382.9688,407.3098,390.4688,390.4348,382.9688,397.9348,375.4688,390.4348,382.9688,407.3098" style="stroke:#456A7D;stroke-width:2.625;"/><text fill="#29485B" font-family="sans-serif" font-size="30" lengthAdjust="spacing" textLength="151.875" x="392.3438" y="355.1273">rejet + motif</text></g><!--link Visible to *end*--><g id="link_Visible_*end*"><path d="M292.5,531.3223 C292.5,531.3223 292.5,566.966 292.5,566.966 " fill="none" id="Visible-to-*end*" style="stroke:#456A7D;stroke-width:2.625;"/><polygon fill="#456A7D" points="292.5,576.341,300,559.466,292.5,566.966,285,559.466,292.5,576.341" style="stroke:#456A7D;stroke-width:2.625;"/><text fill="#29485B" font-family="sans-serif" font-size="30" lengthAdjust="spacing" textLength="262.5" x="20.625" y="589.6523">publication termin&#233;e</text></g><!--link Rejetee to *end*--><g id="link_Rejetee_*end*"><path d="M425.625,512.441 C425.625,550.3535 425.625,594.866 425.625,594.866 C425.625,594.866 324.7125,594.866 324.7125,594.866 " fill="none" id="Rejetee-to-*end*" style="stroke:#456A7D;stroke-width:2.625;"/><polygon fill="#456A7D" points="315.3375,594.866,332.2125,602.366,324.7125,594.866,332.2125,587.366,315.3375,594.866" style="stroke:#456A7D;stroke-width:2.625;"/></g><!--SRC=[ZPPDKjim583tFiKRkiXCEp0uSOXXqHadiUcYPPY6iccxKEoNH4MMN4a6qbKFqGDqoxutu2OzIIN70H4RqymaaVM-zol9JpsOwJL3I4MUbnp-_lm56ILBIV8S5SGChoU2SqorruFPvIcSm4B8d6YuDdD2KcJ0KSFzRz2Yr0YQKCRm0CxFB8ktXP0QLiIAilkx1ULKKy4FF7L5UK6C6vYJz6efHScpYM12mgka-ZX4Lb3mmqDdHgr89cueNyA2C8MEf3AK2ibHWjzt18oQEDS5WWbe9Lphk20bqudW-epa23F2rGmbNRGpC_e3mJzoX1TKC-nKVo0gvNw_JLGdxuy6_M3g096KugOM1iEZQDGGEjhzuo0SZdU1YnLDhpWg1Vv1u0ZFXCPnI_N3EDobXCnGraGyZE9Wk4CuGGp7GUZ7ZlpS-23BfqQEe_4e6hL0ZNY294gEcg1RiyIu7BGZczqz5onpgv9gUatrkkdiC0cJGHlfnjvFHjEdLQwfpdMicIabkU1PMzq7qx13mOrW6XuF-qbhHiy6EM54gV6BXss3TQPR8U-G6AHXBmwIGHpjmbs5YRbkNOhTm6gkCx8Dq-LjfadBfe-doIZn6rYdhmhfSlL9OKfKYxF8xEcm1NJT3U9HS7pOX3fpm-ybyXJVquNvyfq3Dna74x-BVd45jXhdH6gQqe9m_N9oRKgTYMuL8jjV_Z-e3TwzOZLwQWmMJSkZP9nCdyKxQyb5XWgBfwzsIVXLDHcq7DGFH2uf1_-mHNPEiipsjl39A-sXV5jntzKTYzjsjSrSiBjn7s5FsnO4atLgVZE4Qsh-UYL789mBapzutkVNNs5__wqvNv7Mo4qpFm4bofmgPRgvzpXjeKkgw9nPX1I557EYcyn7_8OQBIFj2Dv0BhJfcLjTorYd9r2KSqRJoWPeb3dbztVeRVLhplEKJSg9ZoZOYpcGpUCNRXBBXRc1oChINirltLcw7XlKT72mLoAY2HFB4hVqrgcbgx69PC_pk6b_8EbofK4i7aFm0DxtI6O2faeRjrXASylYMjx_OLR8Y7sqjobg3DdAirvTyGCFUGRMxZy0]--></g></svg>